<svg width="17" height="17" viewBox="0 0 17 17" fill="none" xmlns="http://www.w3.org/2000/svg">
<rect width="16.0192" height="16.0192" rx="8.00961" fill="#BB6BD9" style="fill:#BB6BD9;fill:color(display-p3 0.7333 0.4196 0.8510);fill-opacity:1;"/>
<rect width="16.0192" height="16.0192" rx="8.00961" fill="#FFA469" style="fill:#FFA469;fill:color(display-p3 1.0000 0.6431 0.4118);fill-opacity:1;"/>
<rect width="10.6795" height="10.6795" transform="translate(2.66895 2.67188)" fill="#FFA469" style="fill:#FFA469;fill:color(display-p3 1.0000 0.6431 0.4118);fill-opacity:1;"/>
<path d="M9.89721 11.4061C9.72034 11.4061 9.49342 11.3494 9.20976 11.1825L8.21195 10.5918C8.1085 10.5317 7.90827 10.5317 7.80815 10.5918L6.80701 11.1825C6.21633 11.5329 5.86926 11.3927 5.71242 11.2793C5.55891 11.1658 5.31863 10.8755 5.47548 10.208L5.71242 9.18354C5.73911 9.07675 5.68572 8.8932 5.60563 8.81311L4.77801 7.9855C4.36421 7.57169 4.39758 7.21795 4.45431 7.04442C4.51104 6.87088 4.69125 6.56387 5.26524 6.46709L6.32979 6.29022C6.42991 6.27353 6.5734 6.16674 6.61679 6.07664L7.20746 4.89862C7.47444 4.36134 7.82484 4.28125 8.00838 4.28125C8.19193 4.28125 8.54233 4.36134 8.8093 4.89862L9.39664 6.0733C9.44336 6.16341 9.58686 6.2702 9.68697 6.28688L10.7515 6.46375C11.3289 6.56053 11.5091 6.86755 11.5625 7.04108C11.6158 7.21461 11.6492 7.56835 11.2388 7.98216L10.4111 8.81311C10.331 8.8932 10.281 9.07341 10.3043 9.18354L10.5413 10.208C10.6948 10.8755 10.4579 11.1658 10.3043 11.2793C10.2209 11.3393 10.0874 11.4061 9.89721 11.4061Z" fill="white" style="fill:white;fill:white;fill-opacity:1;"/>
</svg>
