<svg width="568" height="208" viewBox="0 0 568 208" fill="none" xmlns="http://www.w3.org/2000/svg">
<g opacity="0.6">
<path opacity="0.0512" d="M477.549 1.71126C89.35 9.78065 -363.766 -77.2411 -458.625 473.645C-668.441 1692.13 275.025 1844.08 275.025 1462.27C275.024 752.665 404.641 1110.25 865.587 696.689C1326.53 283.132 962.798 -8.37548 477.549 1.71126Z" stroke="#8F8F92" style="stroke:#8F8F92;stroke:color(display-p3 0.5613 0.5625 0.5708);stroke-opacity:1;"/>
<path opacity="0.0925" d="M472.13 38.014C92.4073 38.4558 -349.62 -55.3389 -449.203 481.559C-669.465 1669.1 251.275 1835.81 256.001 1462.43C264.784 768.495 387.111 1120.67 842.992 725.088C1298.87 329.51 946.783 37.4618 472.13 38.014Z" stroke="#8F8F92" style="stroke:#8F8F92;stroke:color(display-p3 0.5613 0.5625 0.5708);stroke-opacity:1;"/>
<path opacity="0.1338" d="M466.471 73.5295C95.3196 66.6784 -335.564 -33.4764 -439.539 489.388C-669.518 1645.89 228.363 1826.49 237.601 1461.64C254.771 783.539 369.978 1130.1 820.455 752.202C1270.93 374.3 930.409 82.0935 466.471 73.5295Z" stroke="#8F8F92" style="stroke:#8F8F92;stroke:color(display-p3 0.5613 0.5625 0.5708);stroke-opacity:1;"/>
<path opacity="0.175" d="M460.619 108.183C98.1279 94.3756 -321.562 -11.7258 -429.601 497.069C-668.566 1622.45 206.337 1816.09 219.874 1459.84C245.032 797.736 353.291 1138.5 798.034 777.966C1242.78 417.428 913.733 125.443 460.619 108.183Z" stroke="#8F8F92" style="stroke:#8F8F92;stroke:color(display-p3 0.5613 0.5625 0.5708);stroke-opacity:1;"/>
<path opacity="0.2163" d="M454.568 141.96C100.818 121.534 -307.637 9.89965 -419.409 504.598C-666.633 1598.8 185.191 1804.63 202.81 1457.06C235.556 811.083 337.044 1145.87 775.727 802.375C1214.41 458.88 896.755 167.493 454.568 141.96Z" stroke="#8F8F92" style="stroke:#8F8F92;stroke:color(display-p3 0.5613 0.5625 0.5708);stroke-opacity:1;"/>
<path opacity="0.2575" d="M448.372 174.919C103.439 148.214 -293.748 31.4605 -408.925 512.046C-663.677 1575.03 164.981 1792.18 186.466 1453.36C226.398 823.653 321.294 1152.28 753.598 825.499C1185.9 498.718 879.538 208.3 448.372 174.919Z" stroke="#8F8F92" style="stroke:#8F8F92;stroke:color(display-p3 0.5613 0.5625 0.5708);stroke-opacity:1;"/>
<path opacity="0.2988" d="M441.977 207.033C105.93 174.39 -279.964 52.9317 -398.215 519.396C-659.77 1551.15 145.652 1778.77 170.787 1448.77C217.501 835.433 305.987 1157.73 731.602 847.322C1157.22 536.916 862.036 247.838 441.977 207.033Z" stroke="#8F8F92" style="stroke:#8F8F92;stroke:color(display-p3 0.5613 0.5625 0.5708);stroke-opacity:1;"/>
<path opacity="0.34" d="M435.462 238.286C108.363 200.046 -266.219 74.2959 -387.218 526.64C-654.85 1527.16 127.283 1764.4 155.85 1443.27C208.942 846.418 291.202 1162.21 709.823 867.836C1128.44 573.46 844.336 286.086 435.462 238.286Z" stroke="#8F8F92" style="stroke:#8F8F92;stroke:color(display-p3 0.5613 0.5625 0.5708);stroke-opacity:1;"/>
<path opacity="0.3812" d="M428.788 268.663C110.693 225.169 -252.567 95.5402 -375.986 533.776C-648.97 1503.09 109.835 1749.09 141.615 1436.88C200.681 856.607 276.901 1165.74 688.231 887.038C1099.56 608.339 826.406 323.03 428.788 268.663Z" stroke="#8F8F92" style="stroke:#8F8F92;stroke:color(display-p3 0.5613 0.5625 0.5708);stroke-opacity:1;"/>
<path opacity="0.4225" d="M422.049 298.209C113.008 249.805 -238.928 116.71 -364.44 540.857C-642.056 1479.01 93.3987 1732.92 128.174 1429.66C192.807 866.058 263.178 1168.37 666.926 904.984C1070.67 641.601 808.349 358.713 422.049 298.209Z" stroke="#8F8F92" style="stroke:#8F8F92;stroke:color(display-p3 0.5613 0.5625 0.5708);stroke-opacity:1;"/>
<path opacity="0.4638" d="M415.175 326.888C115.232 273.919 -225.384 137.768 -352.665 547.856C-634.193 1454.91 77.9039 1715.87 115.456 1421.62C185.249 874.747 249.962 1170.09 645.846 921.65C1041.73 673.214 790.104 393.1 415.175 326.888Z" stroke="#8F8F92" style="stroke:#8F8F92;stroke:color(display-p3 0.5613 0.5625 0.5708);stroke-opacity:1;"/>
<path opacity="0.505" d="M408.237 354.716C117.428 297.525 -211.881 158.729 -340.607 554.797C-625.33 1430.84 63.4186 1698 103.528 1412.79C178.074 882.702 237.325 1170.93 625.069 937.061C1012.81 703.197 771.749 426.204 408.237 354.716Z" stroke="#8F8F92" style="stroke:#8F8F92;stroke:color(display-p3 0.5613 0.5625 0.5708);stroke-opacity:1;"/>
<path opacity="0.5462" d="M401.236 381.656C119.591 320.588 -198.43 179.556 -328.279 561.652C-615.485 1406.79 49.9405 1679.3 92.3886 1403.15C171.28 889.901 225.265 1170.87 604.601 951.194C983.938 731.518 753.292 457.99 401.236 381.656Z" stroke="#8F8F92" style="stroke:#8F8F92;stroke:color(display-p3 0.5613 0.5625 0.5708);stroke-opacity:1;"/>
</g>
</svg>
