<svg width="1600" height="1514" viewBox="0 0 1600 1514" fill="none" xmlns="http://www.w3.org/2000/svg">
<path d="M1000.8 142.203L1024.26 155.789C986.634 133.958 934.612 136.977 877.132 170.187C862.733 178.548 849.031 188.07 836.258 198.521L812.918 184.935C825.807 174.368 839.509 164.962 853.792 156.601C911.272 123.391 963.41 120.372 1000.92 142.203H1000.8Z" fill="url(#paint0_linear_65_5999)" stroke="#DCDCDC" style="stroke:#DCDCDC;stroke:color(display-p3 0.8625 0.8625 0.8625);stroke-opacity:1;" stroke-linecap="round" stroke-linejoin="round"/>
<path d="M766.756 112.863L790.096 126.449C776.742 118.901 761.763 114.953 746.435 115.069C719.379 115.882 693.02 123.894 669.912 138.177C643.436 153.969 619.516 173.942 599.078 197.05L575.738 183.464C596.175 160.24 620.096 140.383 646.572 124.591C669.563 110.308 696.039 102.296 723.095 101.483C738.423 101.367 753.518 105.199 766.756 112.863Z" fill="url(#paint1_linear_65_5999)" stroke="#DCDCDC" style="stroke:#DCDCDC;stroke:color(display-p3 0.8625 0.8625 0.8625);stroke-opacity:1;" stroke-linecap="round" stroke-linejoin="round"/>
<path d="M523.898 119.584L547.238 133.17C504.97 108.552 447.026 114.01 386.644 148.846L363.188 135.26C423.57 100.424 481.514 95.0824 523.782 119.584H523.898Z" fill="url(#paint2_linear_65_5999)" stroke="#DCDCDC" style="stroke:#DCDCDC;stroke:color(display-p3 0.8625 0.8625 0.8625);stroke-opacity:1;" stroke-linecap="round" stroke-linejoin="round"/>
<path d="M49.2964 1060.22L25.8401 1046.64C-7.25409 1027.36 -28.0396 986.837 -28.9686 929.357C-30.8265 812.424 49.877 668.203 152.411 605.266L175.751 618.852C73.2172 681.789 -7.48633 826.01 -5.62841 942.943C-4.69945 1000.54 16.0861 1040.95 49.1803 1060.22H49.2964Z" fill="url(#paint3_linear_65_5999)" stroke="#DCDCDC" style="stroke:#DCDCDC;stroke:color(display-p3 0.8625 0.8625 0.8625);stroke-opacity:1;" stroke-linecap="round" stroke-linejoin="round"/>
<path d="M386.807 148.785C479.007 95.6023 565.632 111.046 599.191 197.207C619.628 173.983 643.549 154.127 670.024 138.334C693.016 124.052 719.492 116.039 746.548 115.227C792.763 115.459 825.741 146.231 836.076 198.717C848.965 188.15 862.668 178.744 876.95 170.384C991.213 104.427 1084.11 157.378 1084.46 288.594C1084.81 419.81 992.49 579.707 878.344 645.663L182.668 1047.09C80.1343 1106.08 -3.70438 1059.63 -5.56231 942.698C-7.42023 825.766 73.2832 681.544 175.817 618.607C132.969 508.641 193.003 325.172 309.82 208.703C332.812 185.479 358.59 165.274 386.691 148.669L386.807 148.785Z" fill="url(#paint4_linear_65_5999)" stroke="#DCDCDC" style="stroke:#DCDCDC;stroke:color(display-p3 0.8625 0.8625 0.8625);stroke-opacity:1;" stroke-linecap="round" stroke-linejoin="round"/>
<path d="M175.782 618.61L152.442 605.024C109.594 495.058 169.628 311.588 286.444 195.12C309.32 171.896 335.215 151.691 363.316 135.086L386.656 148.672C358.555 165.277 332.66 185.482 309.785 208.706C192.852 325.174 132.818 508.644 175.782 618.61Z" fill="url(#paint5_linear_65_5999)" stroke="#DCDCDC" style="stroke:#DCDCDC;stroke:color(display-p3 0.8625 0.8625 0.8625);stroke-opacity:1;" stroke-linecap="round" stroke-linejoin="round"/>
<path d="M484.539 1304.87L484.771 1204.19C486.165 1219.75 495.919 1233.34 510.202 1239.72L509.969 1340.4C495.687 1334.01 485.933 1320.43 484.539 1304.87Z" fill="url(#paint6_linear_65_5999)" stroke="#DCDCDC" style="stroke:#DCDCDC;stroke:color(display-p3 0.8625 0.8625 0.8625);stroke-opacity:1;" stroke-linecap="round" stroke-linejoin="round"/>
<path d="M1611.92 983.707L1611.69 1084.38L904.514 1498.35L904.746 1397.68L1611.92 983.707Z" fill="url(#paint7_linear_65_5999)" stroke="#DCDCDC" style="stroke:#DCDCDC;stroke:color(display-p3 0.8625 0.8625 0.8625);stroke-opacity:1;" stroke-linecap="round" stroke-linejoin="round"/>
<path d="M782.984 1397.6L782.752 1498.27L510.102 1340.35L510.334 1239.67L782.984 1397.6Z" fill="url(#paint8_linear_65_5999)" stroke="#DCDCDC" style="stroke:#DCDCDC;stroke:color(display-p3 0.8625 0.8625 0.8625);stroke-opacity:1;" stroke-linecap="round" stroke-linejoin="round"/>
<path d="M1611.57 913.152C1645.36 932.66 1645.48 964.245 1611.92 983.753L904.746 1397.72C866.426 1417.23 821.14 1417.23 782.936 1397.72L510.286 1239.8C476.495 1220.29 476.379 1188.71 509.938 1169.2L1217.11 755.229C1255.43 735.721 1300.72 735.721 1338.92 755.229L1611.57 913.152Z" fill="url(#paint9_linear_65_5999)" stroke="#DCDCDC" style="stroke:#DCDCDC;stroke:color(display-p3 0.8625 0.8625 0.8625);stroke-opacity:1;" stroke-linecap="round" stroke-linejoin="round"/>
<path d="M904.773 1397.55L904.54 1498.22C866.221 1517.73 820.934 1517.73 782.73 1498.22L782.963 1397.55C821.282 1417.06 866.569 1417.06 904.773 1397.55Z" fill="url(#paint10_linear_65_5999)" stroke="#DCDCDC" style="stroke:#DCDCDC;stroke:color(display-p3 0.8625 0.8625 0.8625);stroke-opacity:1;" stroke-linecap="round" stroke-linejoin="round"/>
<path d="M484.539 1189.47L484.771 1088.8C486.165 1104.36 495.919 1117.94 510.202 1124.33L509.969 1225.01C495.687 1218.62 485.933 1205.03 484.539 1189.47Z" fill="url(#paint11_linear_65_5999)" stroke="#DCDCDC" style="stroke:#DCDCDC;stroke:color(display-p3 0.8625 0.8625 0.8625);stroke-opacity:1;" stroke-linecap="round" stroke-linejoin="round"/>
<path d="M1611.92 868.336L1611.69 969.012L904.514 1382.98L904.746 1282.3L1611.92 868.336Z" fill="url(#paint12_linear_65_5999)" stroke="#DCDCDC" style="stroke:#DCDCDC;stroke:color(display-p3 0.8625 0.8625 0.8625);stroke-opacity:1;" stroke-linecap="round" stroke-linejoin="round"/>
<path d="M782.984 1282.4L782.752 1383.07L510.102 1225.15L510.334 1124.47L782.984 1282.4Z" fill="url(#paint13_linear_65_5999)" stroke="#DCDCDC" style="stroke:#DCDCDC;stroke:color(display-p3 0.8625 0.8625 0.8625);stroke-opacity:1;" stroke-linecap="round" stroke-linejoin="round"/>
<path d="M1611.57 797.82C1645.36 817.328 1645.48 848.913 1611.92 868.421L904.746 1282.39C866.426 1301.9 821.14 1301.9 782.936 1282.39L510.286 1124.47C476.495 1104.96 476.379 1073.37 509.938 1053.86L1217.11 639.897C1255.43 620.389 1300.72 620.389 1338.92 639.897L1611.57 797.82Z" fill="url(#paint14_linear_65_5999)" stroke="#DCDCDC" style="stroke:#DCDCDC;stroke:color(display-p3 0.8625 0.8625 0.8625);stroke-opacity:1;" stroke-linecap="round" stroke-linejoin="round"/>
<path d="M904.773 1282.37L904.54 1383.04C866.221 1402.55 820.934 1402.55 782.73 1383.04L782.963 1282.37C821.282 1301.88 866.569 1301.88 904.773 1282.37Z" fill="url(#paint15_linear_65_5999)" stroke="#DCDCDC" style="stroke:#DCDCDC;stroke:color(display-p3 0.8625 0.8625 0.8625);stroke-opacity:1;" stroke-linecap="round" stroke-linejoin="round"/>
<path d="M1509.07 810.263C1531.83 823.384 1531.83 844.634 1509.3 857.64L898.861 1210.18C873.082 1223.3 842.659 1223.3 816.996 1210.18L633.759 1104.05C611.115 1090.93 610.999 1069.68 633.526 1056.55L1243.97 704.013C1269.75 690.891 1300.17 690.891 1325.83 704.013L1509.07 810.147V810.263Z" fill="url(#paint16_linear_65_5999)" stroke="#DCDCDC" style="stroke:#DCDCDC;stroke:color(display-p3 0.8625 0.8625 0.8625);stroke-opacity:1;" stroke-linecap="round" stroke-linejoin="round"/>
<path d="M1509.05 810.272L1325.81 704.138C1300.15 691.016 1269.72 691.016 1244.06 704.138L633.619 1056.68C624.213 1060.98 617.71 1069.92 616.781 1080.25V1081.41C618.175 1091.4 624.677 1099.88 633.735 1104.06L650.921 1114.04L1243.83 771.72C1269.61 758.598 1300.03 758.598 1325.69 771.72L1491.75 867.867L1509.28 857.649C1531.81 844.643 1531.69 823.393 1509.05 810.272Z" fill="url(#paint17_linear_65_5999)" stroke="#DCDCDC" style="stroke:#DCDCDC;stroke:color(display-p3 0.8625 0.8625 0.8625);stroke-opacity:1;" stroke-linecap="round" stroke-linejoin="round"/>
<path d="M899.11 400.105L727.949 301.287L1248.05 1L1419.21 99.8182L899.11 400.105Z" fill="url(#paint18_linear_65_5999)" stroke="#DCDCDC" style="stroke:#DCDCDC;stroke:color(display-p3 0.8625 0.8625 0.8625);stroke-opacity:1;" stroke-linecap="round" stroke-linejoin="round"/>
<path d="M1419.51 896.245L899.41 1196.53V400.064L1419.51 99.7773V896.245Z" fill="url(#paint19_linear_65_5999)" stroke="#DCDCDC" style="stroke:#DCDCDC;stroke:color(display-p3 0.8625 0.8625 0.8625);stroke-opacity:1;" stroke-linecap="round" stroke-linejoin="round"/>
<path d="M1127.69 825.391C1058.83 915.733 982.305 1000.04 899.047 1077.26V869.981C1020.74 820.863 1144.41 729.128 1269.7 602.789C1269.7 602.789 1240.9 676.641 1127.69 825.275V825.391Z" fill="url(#paint20_linear_65_5999)" stroke="#DCDCDC" style="stroke:#DCDCDC;stroke:color(display-p3 0.8625 0.8625 0.8625);stroke-opacity:1;" stroke-linecap="round" stroke-linejoin="round"/>
<g filter="url(#filter0_d_65_5999)">
<path d="M1134.91 425.766C1134.89 425.692 1134.88 425.616 1134.87 425.539C1134.84 425.268 1134.84 424.877 1134.84 424.303M1134.91 425.766L1135.32 423.718C1135.05 423.725 1134.84 423.946 1134.84 424.218L1134.84 424.266C1134.84 424.279 1134.84 424.291 1134.84 424.303M1134.91 425.766L1134.5 426.007C1134.47 425.777 1134.44 425.46 1134.44 425.031C1134.44 425.025 1134.44 425.019 1134.44 425.014C1134.44 424.851 1134.44 424.636 1134.41 424.437C1134.38 424.237 1134.3 423.954 1134.07 423.751C1133.81 423.53 1133.48 423.499 1133.16 423.56C1132.86 423.618 1132.5 423.772 1132.07 424.014L1131.03 424.593C1130.87 424.682 1130.77 424.849 1130.77 425.031V428.227L1130.38 428.456V421.256L1130.78 421.03M1134.91 425.766L1130.78 421.03M1134.84 424.303C1134.84 424.079 1134.84 423.885 1134.82 423.713C1134.81 423.531 1134.78 423.416 1134.75 423.349C1134.73 423.299 1134.71 423.297 1134.71 423.297C1134.71 423.297 1134.71 423.297 1134.71 423.297C1134.69 423.289 1134.61 423.266 1134.4 423.312C1134.18 423.362 1133.95 423.253 1133.84 423.048C1133.81 422.982 1133.79 422.911 1133.79 422.841C1133.6 423.014 1133.38 423.16 1133.12 423.272L1131.52 424.187C1131.37 424.276 1131.18 424.275 1131.02 424.186C1130.87 424.096 1130.77 423.931 1130.77 423.753V421.082C1130.77 421.065 1130.77 421.047 1130.78 421.03M1134.84 424.303C1134.84 424.313 1134.84 424.323 1134.84 424.334L1130.78 421.03M1135.07 420.153C1135.07 420.799 1134.86 421.396 1134.47 421.909C1134.64 421.561 1134.74 421.181 1134.79 420.796C1134.79 420.776 1134.79 420.755 1134.79 420.734C1134.79 420.428 1134.74 420.133 1134.59 419.892C1134.43 419.626 1134.18 419.483 1133.9 419.441C1133.78 419.424 1133.66 419.425 1133.55 419.438C1133.67 419.366 1133.82 419.292 1133.98 419.235C1134.2 419.152 1134.41 419.114 1134.57 419.128C1134.71 419.14 1134.81 419.189 1134.88 419.29C1134.97 419.408 1135.07 419.658 1135.07 420.153Z" stroke="#8B8B8B" style="stroke:#8B8B8B;stroke:color(display-p3 0.5458 0.5458 0.5458);stroke-opacity:1;" stroke-linecap="round" stroke-linejoin="round"/>
<path d="M1132.34 415.648C1132.46 415.677 1132.59 415.66 1132.71 415.593C1134.71 414.422 1136.37 414.352 1137.5 414.974C1138.61 415.593 1139.39 417.002 1139.39 419.214C1139.33 420.578 1139.08 421.909 1138.68 423.181C1138.98 422.138 1139.17 421.053 1139.23 419.949C1139.23 419.94 1139.23 419.931 1139.23 419.922C1139.23 417.831 1138.45 416.286 1137.09 415.562C1135.74 414.845 1133.99 415.024 1132.21 416.001C1132.2 416.006 1132.19 416.012 1132.18 416.019C1128.45 418.428 1126.05 422.52 1125.69 427.082C1125.69 427.095 1125.69 427.109 1125.69 427.122C1125.69 429.317 1126.45 430.899 1127.82 431.627C1129.18 432.347 1130.93 432.132 1132.7 431.159C1132.71 431.155 1132.71 431.15 1132.72 431.145C1133.54 430.631 1134.3 430.034 1134.99 429.369C1134.15 430.233 1133.22 431.012 1132.19 431.689C1130.26 432.789 1128.6 432.839 1127.45 432.187C1126.29 431.536 1125.47 430.091 1125.41 427.829C1125.75 422.877 1128.23 418.469 1132.34 415.648Z" stroke="#8B8B8B" style="stroke:#8B8B8B;stroke:color(display-p3 0.5458 0.5458 0.5458);stroke-opacity:1;" stroke-linecap="round" stroke-linejoin="round"/>
<path d="M1099.44 481.029C1099.13 471.669 1095.59 464.98 1089.9 461.823C1084.05 458.572 1076.1 459.162 1067.47 464.149C1067.47 464.154 1067.46 464.159 1067.45 464.163C1048.97 476.211 1037.39 496.33 1036.22 518.319C1036.22 518.328 1036.22 518.337 1036.22 518.346C1036.22 525.627 1038.13 531.387 1041.44 535.261C1044.75 539.144 1049.43 541.087 1054.85 540.792C1055.04 540.791 1055.32 540.757 1055.63 540.713C1055.96 540.667 1056.34 540.604 1056.72 540.538C1057.48 540.407 1058.24 540.261 1058.53 540.202C1058.54 540.2 1058.55 540.198 1058.56 540.196C1062.2 539.257 1065.72 537.849 1068.99 536.211C1069.04 536.187 1069.09 536.155 1069.12 536.117L1069.18 536.058C1070.01 535.632 1072.77 534.09 1074.46 533.141C1074.98 532.851 1075.4 532.616 1075.63 532.485L1075.63 532.485L1075.64 532.481L1152.11 488.324V500.058L1074.91 544.62L1074.9 544.622C1073.5 545.44 1068.65 548.212 1067.17 548.896L1067.17 548.896L1067.16 548.9C1063.12 550.86 1058.98 552.472 1054.72 553.624C1052.44 554.079 1050.16 554.307 1047.88 554.308C1041.41 554.021 1035.95 551.243 1032.09 546.271C1028.23 541.29 1025.96 534.067 1025.96 524.862C1027.58 495.304 1043.16 468.288 1067.99 452.119C1079.5 445.501 1089.84 444.873 1097.31 449.038C1104.72 453.172 1109.48 462.124 1109.72 475.095L1099.44 481.029Z" stroke="#8B8B8B" style="stroke:#8B8B8B;stroke:color(display-p3 0.5458 0.5458 0.5458);stroke-opacity:1;" stroke-linecap="round" stroke-linejoin="round"/>
<path d="M1072.55 513.756C1073.59 513.176 1074.63 512.587 1075.2 512.262C1075.31 512.276 1075.42 512.255 1075.52 512.199L1151.99 468.042V479.312L1074.67 523.99L1074.65 523.999C1073.74 524.57 1069.34 527 1068.42 527.459L1068.42 527.459L1068.42 527.464C1066.02 528.719 1063.5 529.636 1060.85 530.444C1059.48 530.785 1058.15 531.001 1056.84 530.892C1056.83 530.891 1056.82 530.89 1056.8 530.89C1053 530.89 1049.81 529.385 1047.55 526.591C1045.3 523.789 1043.95 519.648 1043.95 514.334C1044.87 497.549 1053.73 482.144 1067.86 472.944C1074.39 469.17 1080.2 468.832 1084.37 471.14C1088.49 473.418 1091.18 478.365 1091.37 485.587L1081.53 491.299C1081.23 487.549 1079.69 484.81 1077.25 483.487C1074.63 482.069 1071.16 482.367 1067.47 484.51C1067.46 484.514 1067.45 484.518 1067.45 484.522C1059.42 489.718 1054.34 498.458 1053.87 508.025C1053.86 508.034 1053.86 508.042 1053.86 508.05C1053.86 511.032 1054.61 513.472 1055.94 515.193C1057.28 516.924 1059.2 517.893 1061.43 517.956L1061.43 517.956H1061.45C1062.68 517.956 1063.78 517.709 1064.96 517.354C1064.97 517.35 1064.98 517.346 1064.99 517.342L1065.01 517.337C1066.5 516.762 1068.03 516.174 1069.56 515.351C1070.02 515.151 1071.31 514.448 1072.55 513.756Z" stroke="#8B8B8B" style="stroke:#8B8B8B;stroke:color(display-p3 0.5458 0.5458 0.5458);stroke-opacity:1;" stroke-linecap="round" stroke-linejoin="round"/>
<path d="M1018.21 577.232L1007.83 583.164L1007.6 499.487C1007.6 499.309 1007.51 499.145 1007.35 499.056C1007.2 498.967 1007.01 498.966 1006.85 499.055L991.112 508.081V496.409L1017.98 480.847L1018.21 577.232Z" stroke="#8B8B8B" style="stroke:#8B8B8B;stroke:color(display-p3 0.5458 0.5458 0.5458);stroke-opacity:1;" stroke-linecap="round" stroke-linejoin="round"/>
<path d="M1001.4 586.998L991.486 592.695L991.257 527.948C991.256 527.769 991.161 527.604 991.006 527.516C990.851 527.427 990.661 527.427 990.506 527.517L978.832 534.281V523.013L1001.17 510.118L1001.4 586.998Z" stroke="#8B8B8B" style="stroke:#8B8B8B;stroke:color(display-p3 0.5458 0.5458 0.5458);stroke-opacity:1;" stroke-linecap="round" stroke-linejoin="round"/>
</g>
<g filter="url(#filter1_d_65_5999)">
<mask id="path-28-inside-1_65_5999" fill="white">
<path d="M1198.33 451.64C1202.62 451.059 1205.29 452.336 1205.29 458.258C1204.6 466.851 1199.25 474.283 1191.47 477.883L1173.82 488.101V445.601L1190.89 435.731C1195.19 433.293 1198.44 432.712 1200.53 433.873C1202.39 435.151 1203.43 437.473 1203.09 439.795C1202.97 444.208 1201.23 448.504 1198.21 451.756L1198.33 451.64ZM1191.47 469.638C1194.73 468.245 1196.93 465.11 1197.28 461.626C1197.28 458.723 1195.42 458.026 1191.24 460.465L1181.84 465.922V475.328L1191.47 469.754M1181.72 449.201V458.258L1189.27 453.962C1192.52 452.569 1194.73 449.433 1195.07 445.95C1195.07 443.163 1193.1 442.698 1189.73 444.672L1181.72 449.317"/>
</mask>
<path d="M1198.33 451.64L1198.19 450.649C1197.97 450.678 1197.77 450.778 1197.62 450.932L1198.33 451.64ZM1205.29 458.258L1206.29 458.339C1206.29 458.312 1206.29 458.285 1206.29 458.258H1205.29ZM1191.47 477.883L1191.05 476.975C1191.03 476.988 1191 477.002 1190.97 477.017L1191.47 477.883ZM1173.82 488.101H1172.82C1172.82 488.459 1173.02 488.789 1173.32 488.968C1173.63 489.146 1174.02 489.146 1174.33 488.967L1173.82 488.101ZM1173.82 445.601L1173.32 444.736C1173.01 444.914 1172.82 445.244 1172.82 445.601H1173.82ZM1190.89 435.731L1190.4 434.861L1190.39 434.865L1190.89 435.731ZM1200.53 433.873L1201.1 433.049C1201.07 433.031 1201.05 433.015 1201.02 432.999L1200.53 433.873ZM1203.09 439.795L1202.1 439.647C1202.09 439.687 1202.09 439.728 1202.09 439.769L1203.09 439.795ZM1198.21 451.756L1197.48 451.075C1197.11 451.475 1197.12 452.098 1197.52 452.476C1197.91 452.854 1198.53 452.848 1198.92 452.463L1198.21 451.756ZM1191.08 468.719C1190.57 468.937 1190.34 469.525 1190.56 470.032C1190.77 470.54 1191.36 470.775 1191.87 470.557L1191.08 468.719ZM1197.28 461.626L1198.28 461.725C1198.28 461.692 1198.28 461.659 1198.28 461.626H1197.28ZM1191.24 460.465L1191.74 461.33L1191.75 461.329L1191.24 460.465ZM1181.84 465.922L1181.33 465.057C1181.03 465.236 1180.84 465.566 1180.84 465.922H1181.84ZM1181.84 475.328H1180.84C1180.84 475.686 1181.03 476.016 1181.34 476.194C1181.65 476.373 1182.03 476.373 1182.34 476.194L1181.84 475.328ZM1191.98 470.62C1192.45 470.344 1192.62 469.732 1192.34 469.254C1192.06 468.776 1191.45 468.612 1190.97 468.889L1191.98 470.62ZM1182.72 449.201C1182.72 448.649 1182.27 448.201 1181.72 448.201C1181.17 448.201 1180.72 448.649 1180.72 449.201H1182.72ZM1181.72 458.258H1180.72C1180.72 458.615 1180.91 458.944 1181.22 459.123C1181.53 459.302 1181.91 459.304 1182.22 459.128L1181.72 458.258ZM1189.27 453.962L1188.87 453.043C1188.84 453.058 1188.81 453.074 1188.77 453.093L1189.27 453.962ZM1195.07 445.95L1196.07 446.049C1196.07 446.016 1196.07 445.983 1196.07 445.95H1195.07ZM1189.73 444.672L1190.23 445.538L1190.24 445.535L1189.73 444.672ZM1181.22 448.452C1180.74 448.729 1180.58 449.341 1180.86 449.819C1181.13 450.297 1181.74 450.459 1182.22 450.182L1181.22 448.452ZM1198.46 452.631C1200.54 452.35 1201.92 452.571 1202.79 453.284C1203.64 453.985 1204.29 455.403 1204.29 458.258H1206.29C1206.29 455.192 1205.61 453.01 1204.05 451.737C1202.52 450.476 1200.41 450.349 1198.19 450.649L1198.46 452.631ZM1204.3 458.178C1203.63 466.4 1198.52 473.522 1191.05 476.975L1191.89 478.79C1199.99 475.044 1205.56 467.302 1206.29 458.339L1204.3 458.178ZM1190.97 477.017L1173.32 487.236L1174.33 488.967L1191.98 478.748L1190.97 477.017ZM1174.82 488.101V445.601H1172.82V488.101H1174.82ZM1174.32 446.467L1191.39 436.597L1190.39 434.865L1173.32 444.736L1174.32 446.467ZM1191.39 436.601C1193.48 435.413 1195.26 434.712 1196.73 434.435C1198.19 434.158 1199.27 434.315 1200.05 434.747L1201.02 432.999C1199.71 432.27 1198.11 432.137 1196.35 432.47C1194.6 432.802 1192.6 433.611 1190.4 434.861L1191.39 436.601ZM1199.97 434.697C1201.51 435.76 1202.39 437.706 1202.1 439.647L1204.08 439.944C1204.48 437.24 1203.27 434.542 1201.1 433.049L1199.97 434.697ZM1202.09 439.769C1201.98 443.939 1200.33 448.003 1197.48 451.075L1198.94 452.436C1202.13 449.006 1203.96 444.477 1204.09 439.822L1202.09 439.769ZM1198.92 452.463L1199.03 452.347L1197.62 450.932L1197.5 451.049L1198.92 452.463ZM1191.87 470.557C1195.47 469.015 1197.89 465.556 1198.28 461.725L1196.29 461.526C1195.97 464.663 1193.98 467.475 1191.08 468.719L1191.87 470.557ZM1198.28 461.626C1198.28 460.811 1198.15 460.035 1197.8 459.395C1197.43 458.717 1196.83 458.251 1196.06 458.069C1195.33 457.897 1194.51 457.993 1193.66 458.253C1192.8 458.515 1191.82 458.968 1190.74 459.601L1191.75 461.329C1192.75 460.742 1193.58 460.368 1194.24 460.166C1194.91 459.961 1195.34 459.955 1195.6 460.016C1195.81 460.066 1195.94 460.166 1196.05 460.359C1196.18 460.59 1196.28 460.99 1196.28 461.626H1198.28ZM1190.74 459.6L1181.33 465.057L1182.34 466.787L1191.74 461.33L1190.74 459.6ZM1180.84 465.922V475.328H1182.84V465.922H1180.84ZM1182.34 476.194L1191.98 470.62L1190.97 468.889L1181.34 474.462L1182.34 476.194ZM1180.72 449.201V458.258H1182.72V449.201H1180.72ZM1182.22 459.128L1189.76 454.831L1188.77 453.093L1181.23 457.389L1182.22 459.128ZM1189.66 454.881C1193.26 453.339 1195.69 449.88 1196.07 446.049L1194.08 445.85C1193.77 448.986 1191.78 451.799 1188.87 453.043L1189.66 454.881ZM1196.07 445.95C1196.07 445.149 1195.93 444.402 1195.58 443.79C1195.2 443.148 1194.62 442.724 1193.9 442.553C1193.21 442.39 1192.47 442.468 1191.71 442.687C1190.95 442.907 1190.12 443.289 1189.23 443.81L1190.24 445.535C1191.03 445.069 1191.71 444.768 1192.27 444.608C1192.83 444.445 1193.2 444.444 1193.43 444.499C1193.63 444.545 1193.75 444.637 1193.85 444.803C1193.97 445.001 1194.07 445.357 1194.07 445.95H1196.07ZM1189.23 443.807L1181.22 448.452L1182.22 450.182L1190.23 445.538L1189.23 443.807Z" fill="#8B8B8B" style="fill:#8B8B8B;fill:color(display-p3 0.5458 0.5458 0.5458);fill-opacity:1;" mask="url(#path-28-inside-1_65_5999)"/>
<path d="M1212.85 423.433L1219.86 419.368V460.712L1212.85 464.777V423.433Z" stroke="#8B8B8B" style="stroke:#8B8B8B;stroke:color(display-p3 0.5458 0.5458 0.5458);stroke-opacity:1;" stroke-linecap="round" stroke-linejoin="round"/>
<path d="M1245.87 445.687L1238.86 449.854V416.825C1238.86 416.647 1238.76 416.482 1238.61 416.393C1238.46 416.303 1238.26 416.303 1238.11 416.391L1227.48 422.466V415.023L1257.13 397.836V405.273L1246.12 411.631C1245.97 411.721 1245.87 411.886 1245.87 412.064V445.687Z" stroke="#8B8B8B" style="stroke:#8B8B8B;stroke:color(display-p3 0.5458 0.5458 0.5458);stroke-opacity:1;" stroke-linecap="round" stroke-linejoin="round"/>
<path d="M1286.48 407.416C1286.48 407.54 1286.52 407.66 1286.61 407.752L1295.25 417.278L1286.61 422.227L1278.75 413.583C1278.6 413.409 1278.34 413.368 1278.13 413.485L1271.86 417.085C1271.71 417.174 1271.61 417.34 1271.61 417.519V430.815L1264.48 434.888V393.538L1281.07 383.929C1281.07 383.929 1281.07 383.929 1281.07 383.929C1283.36 382.61 1285.4 381.796 1287.14 381.476C1288.88 381.156 1290.29 381.335 1291.37 381.956L1291.37 381.956L1291.38 381.958C1293.22 382.98 1294.26 385.396 1294.26 389.534C1294.26 396.124 1291.42 402.382 1286.63 406.938C1286.53 407.032 1286.48 407.163 1286.48 407.3V407.416ZM1287.13 394.787C1287.13 394.778 1287.13 394.768 1287.13 394.759C1287.13 392.716 1286.49 391.257 1285.08 390.773C1284.4 390.543 1283.62 390.566 1282.78 390.78C1281.94 390.995 1281 391.409 1279.99 392.004L1271.86 396.647C1271.71 396.736 1271.61 396.902 1271.61 397.081V409.274C1271.61 409.453 1271.71 409.618 1271.86 409.707C1272.02 409.796 1272.21 409.796 1272.36 409.707L1280.6 404.952C1284.35 403.011 1286.89 399.139 1287.13 394.787Z" stroke="#8B8B8B" style="stroke:#8B8B8B;stroke:color(display-p3 0.5458 0.5458 0.5458);stroke-opacity:1;" stroke-linecap="round" stroke-linejoin="round"/>
<path d="M1303.28 371.323L1310.29 367.156V408.493L1303.28 412.66V371.323Z" stroke="#8B8B8B" style="stroke:#8B8B8B;stroke:color(display-p3 0.5458 0.5458 0.5458);stroke-opacity:1;" stroke-linecap="round" stroke-linejoin="round"/>
<path d="M1343.29 348.199L1350.95 343.792L1339.3 370.175C1339.22 370.356 1339.26 370.567 1339.39 370.713L1351.98 384.535L1343.35 389.478L1335.26 380.038C1335.15 379.906 1334.98 379.842 1334.81 379.869C1334.63 379.895 1334.49 380.008 1334.42 380.167L1326.24 399.405L1318.43 403.9L1330.69 376.269C1330.77 376.089 1330.74 375.877 1330.61 375.731L1318.6 362.489L1327.22 357.549L1334.73 366.517C1334.84 366.651 1335.02 366.717 1335.19 366.691C1335.36 366.665 1335.51 366.552 1335.57 366.392L1343.29 348.199Z" stroke="#8B8B8B" style="stroke:#8B8B8B;stroke:color(display-p3 0.5458 0.5458 0.5458);stroke-opacity:1;" stroke-linecap="round" stroke-linejoin="round"/>
</g>
<path d="M899.13 1196.58L727.969 1097.76V301.289L899.13 400.107V1196.58Z" fill="url(#paint21_linear_65_5999)" stroke="#DCDCDC" style="stroke:#DCDCDC;stroke:color(display-p3 0.8625 0.8625 0.8625);stroke-opacity:1;" stroke-linecap="round" stroke-linejoin="round"/>
<path d="M727.848 978.392L899.009 1077.21V869.935L727.848 771.117V978.392Z" fill="url(#paint22_linear_65_5999)" stroke="#DCDCDC" style="stroke:#DCDCDC;stroke:color(display-p3 0.8625 0.8625 0.8625);stroke-opacity:1;" stroke-linecap="round" stroke-linejoin="round"/>
<path d="M1389.29 1070.86C1381.39 1075.39 1375.12 1071.68 1375.12 1062.62C1375.7 1052.63 1380.93 1043.46 1389.29 1038C1397.19 1033.47 1403.46 1037.19 1403.46 1046.25C1402.88 1056.23 1397.65 1065.41 1389.29 1070.86Z" fill="url(#paint23_linear_65_5999)" stroke="#DCDCDC" style="stroke:#DCDCDC;stroke:color(display-p3 0.8625 0.8625 0.8625);stroke-opacity:1;" stroke-linecap="round" stroke-linejoin="round"/>
<path d="M1442.15 1040.41C1434.25 1044.93 1427.98 1041.22 1427.98 1032.16C1428.56 1022.18 1433.79 1013 1442.15 1007.54C1450.04 1003.02 1456.31 1006.73 1456.31 1015.79C1455.73 1025.77 1450.51 1034.95 1442.15 1040.41Z" fill="url(#paint24_linear_65_5999)" stroke="#DCDCDC" style="stroke:#DCDCDC;stroke:color(display-p3 0.8625 0.8625 0.8625);stroke-opacity:1;" stroke-linecap="round" stroke-linejoin="round"/>
<path d="M1494.83 1009.89C1486.93 1014.42 1480.66 1010.71 1480.66 1001.65C1481.24 991.663 1486.47 982.49 1494.83 977.032C1502.61 972.504 1508.99 976.219 1508.99 985.277C1508.41 995.263 1503.19 1004.44 1494.83 1009.89Z" fill="url(#paint25_linear_65_5999)" stroke="#DCDCDC" style="stroke:#DCDCDC;stroke:color(display-p3 0.8625 0.8625 0.8625);stroke-opacity:1;" stroke-linecap="round" stroke-linejoin="round"/>
<path d="M1547.52 979.496C1539.63 984.024 1533.36 980.309 1533.36 971.251C1533.94 961.265 1539.16 952.091 1547.52 946.634C1555.42 942.105 1561.69 945.821 1561.69 954.878C1561.11 964.865 1555.88 974.038 1547.52 979.496Z" fill="url(#paint26_linear_65_5999)" stroke="#DCDCDC" style="stroke:#DCDCDC;stroke:color(display-p3 0.8625 0.8625 0.8625);stroke-opacity:1;" stroke-linecap="round" stroke-linejoin="round"/>
<rect x="1812" y="1258" width="2103" height="703" transform="rotate(-180 1812 1258)" fill="url(#paint27_linear_65_5999)" style=""/>
<defs>
<filter id="filter0_d_65_5999" x="946.332" y="382.086" width="238.277" height="243.471" filterUnits="userSpaceOnUse" color-interpolation-filters="sRGB">
<feFlood flood-opacity="0" result="BackgroundImageFix"/>
<feColorMatrix in="SourceAlpha" type="matrix" values="0 0 0 0 0 0 0 0 0 0 0 0 0 0 0 0 0 0 127 0" result="hardAlpha"/>
<feOffset/>
<feGaussianBlur stdDeviation="16"/>
<feComposite in2="hardAlpha" operator="out"/>
<feColorMatrix type="matrix" values="0 0 0 0 1 0 0 0 0 1 0 0 0 0 1 0 0 0 0.25 0"/>
<feBlend mode="normal" in2="BackgroundImageFix" result="effect1_dropShadow_65_5999"/>
<feBlend mode="normal" in="SourceGraphic" in2="effect1_dropShadow_65_5999" result="shape"/>
</filter>
<filter id="filter1_d_65_5999" x="1141.82" y="310.508" width="242.94" height="209.594" filterUnits="userSpaceOnUse" color-interpolation-filters="sRGB">
<feFlood flood-opacity="0" result="BackgroundImageFix"/>
<feColorMatrix in="SourceAlpha" type="matrix" values="0 0 0 0 0 0 0 0 0 0 0 0 0 0 0 0 0 0 127 0" result="hardAlpha"/>
<feOffset/>
<feGaussianBlur stdDeviation="16"/>
<feComposite in2="hardAlpha" operator="out"/>
<feColorMatrix type="matrix" values="0 0 0 0 1 0 0 0 0 1 0 0 0 0 1 0 0 0 0.25 0"/>
<feBlend mode="normal" in2="BackgroundImageFix" result="effect1_dropShadow_65_5999"/>
<feBlend mode="normal" in="SourceGraphic" in2="effect1_dropShadow_65_5999" result="shape"/>
</filter>
<linearGradient id="paint0_linear_65_5999" x1="933.535" y1="126.696" x2="955.578" y2="208.094" gradientUnits="userSpaceOnUse">
<stop stop-color="#EDE7E7" style="stop-color:#EDE7E7;stop-color:color(display-p3 0.9292 0.9059 0.9059);stop-opacity:1;"/>
<stop offset="1" stop-color="#F6F6F9" style="stop-color:#F6F6F9;stop-color:color(display-p3 0.9628 0.9643 0.9750);stop-opacity:1;"/>
</linearGradient>
<linearGradient id="paint1_linear_65_5999" x1="698.079" y1="99.3773" x2="736.189" y2="204.349" gradientUnits="userSpaceOnUse">
<stop stop-color="#EDE7E7" style="stop-color:#EDE7E7;stop-color:color(display-p3 0.9292 0.9059 0.9059);stop-opacity:1;"/>
<stop offset="1" stop-color="#F6F6F9" style="stop-color:#F6F6F9;stop-color:color(display-p3 0.9628 0.9643 0.9750);stop-opacity:1;"/>
</linearGradient>
<linearGradient id="paint2_linear_65_5999" x1="468.231" y1="103.496" x2="478.659" y2="156.612" gradientUnits="userSpaceOnUse">
<stop stop-color="#EDE7E7" style="stop-color:#EDE7E7;stop-color:color(display-p3 0.9292 0.9059 0.9059);stop-opacity:1;"/>
<stop offset="1" stop-color="#F6F6F9" style="stop-color:#F6F6F9;stop-color:color(display-p3 0.9628 0.9643 0.9750);stop-opacity:1;"/>
</linearGradient>
<linearGradient id="paint3_linear_65_5999" x1="87.8579" y1="595.254" x2="327.3" y2="727.584" gradientUnits="userSpaceOnUse">
<stop stop-color="#EDE7E7" style="stop-color:#EDE7E7;stop-color:color(display-p3 0.9292 0.9059 0.9059);stop-opacity:1;"/>
<stop offset="1" stop-color="#F6F6F9" style="stop-color:#F6F6F9;stop-color:color(display-p3 0.9628 0.9643 0.9750);stop-opacity:1;"/>
</linearGradient>
<linearGradient id="paint4_linear_65_5999" x1="616.533" y1="94.1564" x2="1179.73" y2="881.572" gradientUnits="userSpaceOnUse">
<stop stop-color="#EDE7E7" style="stop-color:#EDE7E7;stop-color:color(display-p3 0.9292 0.9059 0.9059);stop-opacity:1;"/>
<stop offset="1" stop-color="#F6F6F9" style="stop-color:#F6F6F9;stop-color:color(display-p3 0.9628 0.9643 0.9750);stop-opacity:1;"/>
</linearGradient>
<linearGradient id="paint5_linear_65_5999" x1="280.177" y1="124.445" x2="551.265" y2="295.223" gradientUnits="userSpaceOnUse">
<stop stop-color="#EDE7E7" style="stop-color:#EDE7E7;stop-color:color(display-p3 0.9292 0.9059 0.9059);stop-opacity:1;"/>
<stop offset="1" stop-color="#F6F6F9" style="stop-color:#F6F6F9;stop-color:color(display-p3 0.9628 0.9643 0.9750);stop-opacity:1;"/>
</linearGradient>
<linearGradient id="paint6_linear_65_5999" x1="499.185" y1="1201.19" x2="536.372" y2="1209.8" gradientUnits="userSpaceOnUse">
<stop stop-color="#EDE7E7" style="stop-color:#EDE7E7;stop-color:color(display-p3 0.9292 0.9059 0.9059);stop-opacity:1;"/>
<stop offset="1" stop-color="#F6F6F9" style="stop-color:#F6F6F9;stop-color:color(display-p3 0.9628 0.9643 0.9750);stop-opacity:1;"/>
</linearGradient>
<linearGradient id="paint7_linear_65_5999" x1="1308.25" y1="972.381" x2="1588.81" y2="1445.95" gradientUnits="userSpaceOnUse">
<stop stop-color="#EDE7E7" style="stop-color:#EDE7E7;stop-color:color(display-p3 0.9292 0.9059 0.9059);stop-opacity:1;"/>
<stop offset="1" stop-color="#F6F6F9" style="stop-color:#F6F6F9;stop-color:color(display-p3 0.9628 0.9643 0.9750);stop-opacity:1;"/>
</linearGradient>
<linearGradient id="paint8_linear_65_5999" x1="665.844" y1="1233.98" x2="821.333" y2="1435.47" gradientUnits="userSpaceOnUse">
<stop stop-color="#EDE7E7" style="stop-color:#EDE7E7;stop-color:color(display-p3 0.9292 0.9059 0.9059);stop-opacity:1;"/>
<stop offset="1" stop-color="#F6F6F9" style="stop-color:#F6F6F9;stop-color:color(display-p3 0.9628 0.9643 0.9750);stop-opacity:1;"/>
</linearGradient>
<linearGradient id="paint9_linear_65_5999" x1="1142.42" y1="725.814" x2="1465.98" y2="1407.29" gradientUnits="userSpaceOnUse">
<stop stop-color="#EDE7E7" style="stop-color:#EDE7E7;stop-color:color(display-p3 0.9292 0.9059 0.9059);stop-opacity:1;"/>
<stop offset="1" stop-color="#F6F6F9" style="stop-color:#F6F6F9;stop-color:color(display-p3 0.9628 0.9643 0.9750);stop-opacity:1;"/>
</linearGradient>
<linearGradient id="paint10_linear_65_5999" x1="852.384" y1="1395.01" x2="921.662" y2="1485.05" gradientUnits="userSpaceOnUse">
<stop stop-color="#EDE7E7" style="stop-color:#EDE7E7;stop-color:color(display-p3 0.9292 0.9059 0.9059);stop-opacity:1;"/>
<stop offset="1" stop-color="#F6F6F9" style="stop-color:#F6F6F9;stop-color:color(display-p3 0.9628 0.9643 0.9750);stop-opacity:1;"/>
</linearGradient>
<linearGradient id="paint11_linear_65_5999" x1="499.185" y1="1085.8" x2="536.372" y2="1094.4" gradientUnits="userSpaceOnUse">
<stop stop-color="#EDE7E7" style="stop-color:#EDE7E7;stop-color:color(display-p3 0.9292 0.9059 0.9059);stop-opacity:1;"/>
<stop offset="1" stop-color="#F6F6F9" style="stop-color:#F6F6F9;stop-color:color(display-p3 0.9628 0.9643 0.9750);stop-opacity:1;"/>
</linearGradient>
<linearGradient id="paint12_linear_65_5999" x1="1308.25" y1="857.01" x2="1588.81" y2="1330.58" gradientUnits="userSpaceOnUse">
<stop stop-color="#EDE7E7" style="stop-color:#EDE7E7;stop-color:color(display-p3 0.9292 0.9059 0.9059);stop-opacity:1;"/>
<stop offset="1" stop-color="#F6F6F9" style="stop-color:#F6F6F9;stop-color:color(display-p3 0.9628 0.9643 0.9750);stop-opacity:1;"/>
</linearGradient>
<linearGradient id="paint13_linear_65_5999" x1="665.844" y1="1118.78" x2="821.333" y2="1320.27" gradientUnits="userSpaceOnUse">
<stop stop-color="#EDE7E7" style="stop-color:#EDE7E7;stop-color:color(display-p3 0.9292 0.9059 0.9059);stop-opacity:1;"/>
<stop offset="1" stop-color="#F6F6F9" style="stop-color:#F6F6F9;stop-color:color(display-p3 0.9628 0.9643 0.9750);stop-opacity:1;"/>
</linearGradient>
<linearGradient id="paint14_linear_65_5999" x1="1142.42" y1="610.482" x2="1465.98" y2="1291.96" gradientUnits="userSpaceOnUse">
<stop stop-color="#EDE7E7" style="stop-color:#EDE7E7;stop-color:color(display-p3 0.9292 0.9059 0.9059);stop-opacity:1;"/>
<stop offset="1" stop-color="#F6F6F9" style="stop-color:#F6F6F9;stop-color:color(display-p3 0.9628 0.9643 0.9750);stop-opacity:1;"/>
</linearGradient>
<linearGradient id="paint15_linear_65_5999" x1="852.384" y1="1279.83" x2="921.662" y2="1369.87" gradientUnits="userSpaceOnUse">
<stop stop-color="#EDE7E7" style="stop-color:#EDE7E7;stop-color:color(display-p3 0.9292 0.9059 0.9059);stop-opacity:1;"/>
<stop offset="1" stop-color="#F6F6F9" style="stop-color:#F6F6F9;stop-color:color(display-p3 0.9628 0.9643 0.9750);stop-opacity:1;"/>
</linearGradient>
<linearGradient id="paint16_linear_65_5999" x1="1135.76" y1="682.6" x2="1387.7" y2="1217.69" gradientUnits="userSpaceOnUse">
<stop stop-color="#EDE7E7" style="stop-color:#EDE7E7;stop-color:color(display-p3 0.9292 0.9059 0.9059);stop-opacity:1;"/>
<stop offset="1" stop-color="#F6F6F9" style="stop-color:#F6F6F9;stop-color:color(display-p3 0.9628 0.9643 0.9750);stop-opacity:1;"/>
</linearGradient>
<linearGradient id="paint17_linear_65_5999" x1="1135.76" y1="685.06" x2="1307.62" y2="1142.27" gradientUnits="userSpaceOnUse">
<stop stop-color="#EDE7E7" style="stop-color:#EDE7E7;stop-color:color(display-p3 0.9292 0.9059 0.9059);stop-opacity:1;"/>
<stop offset="1" stop-color="#F6F6F9" style="stop-color:#F6F6F9;stop-color:color(display-p3 0.9628 0.9643 0.9750);stop-opacity:1;"/>
</linearGradient>
<linearGradient id="paint18_linear_65_5999" x1="1122.47" y1="-7.78301" x2="1313.51" y2="398.549" gradientUnits="userSpaceOnUse">
<stop stop-color="#EDE7E7" style="stop-color:#EDE7E7;stop-color:color(display-p3 0.9292 0.9059 0.9059);stop-opacity:1;"/>
<stop offset="1" stop-color="#F6F6F9" style="stop-color:#F6F6F9;stop-color:color(display-p3 0.9628 0.9643 0.9750);stop-opacity:1;"/>
</linearGradient>
<linearGradient id="paint19_linear_65_5999" x1="1196.25" y1="75.6413" x2="1789.17" y2="420.928" gradientUnits="userSpaceOnUse">
<stop stop-color="#EDE7E7" style="stop-color:#EDE7E7;stop-color:color(display-p3 0.9292 0.9059 0.9059);stop-opacity:1;"/>
<stop offset="1" stop-color="#F6F6F9" style="stop-color:#F6F6F9;stop-color:color(display-p3 0.9628 0.9643 0.9750);stop-opacity:1;"/>
</linearGradient>
<linearGradient id="paint20_linear_65_5999" x1="1110.59" y1="592.348" x2="1405.26" y2="875.028" gradientUnits="userSpaceOnUse">
<stop stop-color="#EDE7E7" style="stop-color:#EDE7E7;stop-color:color(display-p3 0.9292 0.9059 0.9059);stop-opacity:1;"/>
<stop offset="1" stop-color="#F6F6F9" style="stop-color:#F6F6F9;stop-color:color(display-p3 0.9628 0.9643 0.9750);stop-opacity:1;"/>
</linearGradient>
<linearGradient id="paint21_linear_65_5999" x1="825.656" y1="281.587" x2="1073.3" y2="339.728" gradientUnits="userSpaceOnUse">
<stop stop-color="#EDE7E7" style="stop-color:#EDE7E7;stop-color:color(display-p3 0.9292 0.9059 0.9059);stop-opacity:1;"/>
<stop offset="1" stop-color="#F6F6F9" style="stop-color:#F6F6F9;stop-color:color(display-p3 0.9628 0.9643 0.9750);stop-opacity:1;"/>
</linearGradient>
<linearGradient id="paint22_linear_65_5999" x1="825.535" y1="764.381" x2="1003.1" y2="886.314" gradientUnits="userSpaceOnUse">
<stop stop-color="#EDE7E7" style="stop-color:#EDE7E7;stop-color:color(display-p3 0.9292 0.9059 0.9059);stop-opacity:1;"/>
<stop offset="1" stop-color="#F6F6F9" style="stop-color:#F6F6F9;stop-color:color(display-p3 0.9628 0.9643 0.9750);stop-opacity:1;"/>
</linearGradient>
<linearGradient id="paint23_linear_65_5999" x1="1391.29" y1="1035.26" x2="1414.09" y2="1056.86" gradientUnits="userSpaceOnUse">
<stop stop-color="#EDE7E7" style="stop-color:#EDE7E7;stop-color:color(display-p3 0.9292 0.9059 0.9059);stop-opacity:1;"/>
<stop offset="1" stop-color="#F6F6F9" style="stop-color:#F6F6F9;stop-color:color(display-p3 0.9628 0.9643 0.9750);stop-opacity:1;"/>
</linearGradient>
<linearGradient id="paint24_linear_65_5999" x1="1444.15" y1="1004.81" x2="1466.94" y2="1026.4" gradientUnits="userSpaceOnUse">
<stop stop-color="#EDE7E7" style="stop-color:#EDE7E7;stop-color:color(display-p3 0.9292 0.9059 0.9059);stop-opacity:1;"/>
<stop offset="1" stop-color="#F6F6F9" style="stop-color:#F6F6F9;stop-color:color(display-p3 0.9628 0.9643 0.9750);stop-opacity:1;"/>
</linearGradient>
<linearGradient id="paint25_linear_65_5999" x1="1496.83" y1="974.293" x2="1519.62" y2="995.889" gradientUnits="userSpaceOnUse">
<stop stop-color="#EDE7E7" style="stop-color:#EDE7E7;stop-color:color(display-p3 0.9292 0.9059 0.9059);stop-opacity:1;"/>
<stop offset="1" stop-color="#F6F6F9" style="stop-color:#F6F6F9;stop-color:color(display-p3 0.9628 0.9643 0.9750);stop-opacity:1;"/>
</linearGradient>
<linearGradient id="paint26_linear_65_5999" x1="1549.53" y1="943.895" x2="1572.32" y2="965.491" gradientUnits="userSpaceOnUse">
<stop stop-color="#EDE7E7" style="stop-color:#EDE7E7;stop-color:color(display-p3 0.9292 0.9059 0.9059);stop-opacity:1;"/>
<stop offset="1" stop-color="#F6F6F9" style="stop-color:#F6F6F9;stop-color:color(display-p3 0.9628 0.9643 0.9750);stop-opacity:1;"/>
</linearGradient>
<linearGradient id="paint27_linear_65_5999" x1="2863.5" y1="1566.7" x2="2863.5" y2="1961" gradientUnits="userSpaceOnUse">
<stop offset="0.247604" stop-color="#F3F0F0" style="stop-color:#F3F0F0;stop-color:color(display-p3 0.9529 0.9412 0.9412);stop-opacity:1;"/>
<stop offset="1" stop-color="#F3F0F0" stop-opacity="0" style="stop-color:none;stop-color:none;stop-opacity:0;"/>
</linearGradient>
</defs>
</svg>
