<svg width="568" height="259" viewBox="0 0 568 259" fill="none" xmlns="http://www.w3.org/2000/svg">
<g opacity="0.6">
<path opacity="0.0512" d="M477.549 1.71126C89.35 9.78066 -363.766 -77.2411 -458.625 473.645C-668.441 1692.13 275.025 1844.08 275.025 1462.27C275.024 752.665 404.641 1110.25 865.587 696.689C1326.53 283.132 962.798 -8.37547 477.549 1.71126Z" stroke="#8F8F92" style="stroke:#8F8F92;stroke:color(display-p3 0.5613 0.5625 0.5708);stroke-opacity:1;"/>
<path opacity="0.0925" d="M472.13 38.014C92.4073 38.4558 -349.62 -55.3389 -449.203 481.559C-669.465 1669.1 251.275 1835.81 256.001 1462.43C264.784 768.495 387.111 1120.67 842.992 725.088C1298.87 329.51 946.783 37.4618 472.13 38.014Z" stroke="#8F8F92" style="stroke:#8F8F92;stroke:color(display-p3 0.5613 0.5625 0.5708);stroke-opacity:1;"/>
<path opacity="0.1338" d="M466.471 73.5295C95.3196 66.6784 -335.564 -33.4764 -439.539 489.388C-669.518 1645.89 228.363 1826.49 237.601 1461.64C254.771 783.539 369.978 1130.1 820.455 752.202C1270.93 374.3 930.409 82.0935 466.471 73.5295Z" stroke="#8F8F92" style="stroke:#8F8F92;stroke:color(display-p3 0.5613 0.5625 0.5708);stroke-opacity:1;"/>
<path opacity="0.175" d="M460.619 108.183C98.1279 94.3756 -321.562 -11.7258 -429.601 497.069C-668.566 1622.45 206.337 1816.09 219.874 1459.84C245.032 797.736 353.291 1138.5 798.034 777.966C1242.78 417.428 913.733 125.443 460.619 108.183Z" stroke="#8F8F92" style="stroke:#8F8F92;stroke:color(display-p3 0.5613 0.5625 0.5708);stroke-opacity:1;"/>
<path opacity="0.2163" d="M454.568 141.96C100.818 121.534 -307.637 9.89965 -419.409 504.598C-666.633 1598.8 185.191 1804.63 202.81 1457.06C235.556 811.083 337.044 1145.87 775.727 802.375C1214.41 458.88 896.755 167.493 454.568 141.96Z" stroke="#8F8F92" style="stroke:#8F8F92;stroke:color(display-p3 0.5613 0.5625 0.5708);stroke-opacity:1;"/>
<path opacity="0.2575" d="M448.372 174.919C103.439 148.214 -293.748 31.4605 -408.925 512.046C-663.677 1575.03 164.981 1792.18 186.466 1453.36C226.398 823.653 321.294 1152.28 753.598 825.499C1185.9 498.718 879.538 208.3 448.372 174.919Z" stroke="#8F8F92" style="stroke:#8F8F92;stroke:color(display-p3 0.5613 0.5625 0.5708);stroke-opacity:1;"/>
<path opacity="0.2988" d="M441.977 207.033C105.93 174.39 -279.964 52.9317 -398.215 519.396C-659.77 1551.15 145.652 1778.77 170.787 1448.77C217.501 835.433 305.987 1157.73 731.602 847.322C1157.22 536.916 862.036 247.838 441.977 207.033Z" stroke="#8F8F92" style="stroke:#8F8F92;stroke:color(display-p3 0.5613 0.5625 0.5708);stroke-opacity:1;"/>
<path opacity="0.34" d="M435.462 238.286C108.363 200.046 -266.219 74.2959 -387.218 526.64C-654.85 1527.16 127.283 1764.4 155.85 1443.27C208.943 846.418 291.202 1162.21 709.823 867.836C1128.44 573.46 844.336 286.086 435.462 238.286Z" stroke="#8F8F92" style="stroke:#8F8F92;stroke:color(display-p3 0.5613 0.5625 0.5708);stroke-opacity:1;"/>
<path opacity="0.3812" d="M428.788 268.663C110.693 225.169 -252.567 95.5402 -375.986 533.776C-648.97 1503.09 109.835 1749.09 141.615 1436.88C200.681 856.607 276.901 1165.74 688.231 887.038C1099.56 608.339 826.406 323.03 428.788 268.663Z" stroke="#8F8F92" style="stroke:#8F8F92;stroke:color(display-p3 0.5613 0.5625 0.5708);stroke-opacity:1;"/>
<path opacity="0.4225" d="M422.049 298.209C113.008 249.805 -238.928 116.71 -364.44 540.857C-642.056 1479.01 93.3987 1732.92 128.174 1429.66C192.807 866.058 263.178 1168.37 666.926 904.984C1070.67 641.601 808.349 358.713 422.049 298.209Z" stroke="#8F8F92" style="stroke:#8F8F92;stroke:color(display-p3 0.5613 0.5625 0.5708);stroke-opacity:1;"/>
<path opacity="0.4638" d="M415.175 326.888C115.232 273.919 -225.384 137.768 -352.665 547.856C-634.193 1454.91 77.9039 1715.87 115.456 1421.62C185.249 874.747 249.962 1170.09 645.846 921.65C1041.73 673.214 790.104 393.1 415.175 326.888Z" stroke="#8F8F92" style="stroke:#8F8F92;stroke:color(display-p3 0.5613 0.5625 0.5708);stroke-opacity:1;"/>
<path opacity="0.505" d="M408.237 354.716C117.428 297.525 -211.881 158.729 -340.607 554.797C-625.33 1430.84 63.4186 1698 103.528 1412.79C178.074 882.703 237.325 1170.93 625.069 937.062C1012.81 703.197 771.749 426.204 408.237 354.716Z" stroke="#8F8F92" style="stroke:#8F8F92;stroke:color(display-p3 0.5613 0.5625 0.5708);stroke-opacity:1;"/>
<path opacity="0.5462" d="M401.236 381.656C119.591 320.588 -198.43 179.556 -328.279 561.652C-615.485 1406.79 49.9405 1679.3 92.3886 1403.15C171.28 889.901 225.265 1170.87 604.601 951.194C983.938 731.518 753.292 457.99 401.236 381.656Z" stroke="#8F8F92" style="stroke:#8F8F92;stroke:color(display-p3 0.5613 0.5625 0.5708);stroke-opacity:1;"/>
<path opacity="0.5875" d="M394.172 407.786C121.715 343.188 -185.046 200.326 -315.697 568.507C-604.676 1382.87 37.4663 1659.88 82.0339 1392.8C164.865 896.433 213.781 1170.01 584.451 964.138C955.12 758.261 734.743 488.535 394.172 407.786Z" stroke="#8F8F92" style="stroke:#8F8F92;stroke:color(display-p3 0.5613 0.5625 0.5708);stroke-opacity:1;"/>
<path opacity="0.6288" d="M387.092 433.003C123.841 365.218 -171.696 220.933 -302.829 575.265C-592.877 1359 26.0394 1639.67 72.5074 1381.68C158.87 902.207 202.92 1168.27 564.67 975.799C926.419 783.325 716.156 517.735 387.092 433.003Z" stroke="#8F8F92" style="stroke:#8F8F92;stroke:color(display-p3 0.5613 0.5625 0.5708);stroke-opacity:1;"/>
<path opacity="0.67" d="M380.021 457.404C125.985 386.777 -158.369 241.473 -289.668 582.032C-580.082 1335.3 15.6793 1618.79 63.8291 1369.9C153.318 907.332 192.703 1165.76 545.289 986.29C897.875 806.816 697.565 545.688 380.021 457.404Z" stroke="#8F8F92" style="stroke:#8F8F92;stroke:color(display-p3 0.5613 0.5625 0.5708);stroke-opacity:1;"/>
</g>
<path d="M107.428 228.356L86.057 252.029C85.3105 252.856 84.8973 253.931 84.8973 255.045V302.535C84.8973 304.468 83.3303 306.035 81.3973 306.035H44C42.067 306.035 40.5 304.468 40.5 302.535L40.5 121.203C40.5 119.27 42.067 117.703 44 117.703H81.3973C83.3303 117.703 84.8973 119.27 84.8973 121.203L84.8973 180.537C84.8973 184.684 90.0312 186.623 92.7733 183.512L149.727 118.889C150.391 118.135 151.348 117.703 152.353 117.703L195.488 117.703C198.483 117.703 200.094 121.22 198.139 123.488L139.469 191.559C138.185 193.048 138.017 195.199 139.054 196.869L203.413 300.59C204.86 302.922 203.183 305.936 200.439 305.936H156.744C155.513 305.936 154.372 305.289 153.74 304.232L108.426 228.445C108.408 228.341 108.358 228.241 108.276 228.162C107.971 227.869 107.547 228.046 107.428 228.356ZM107.557 228.213C107.558 228.212 107.558 228.212 107.559 228.211L107.559 228.211L107.557 228.213Z" fill="#46474E" stroke="#6E6F73" style="fill:#46474E;fill:color(display-p3 0.2745 0.2784 0.3059);fill-opacity:1;stroke:#6E6F73;stroke:color(display-p3 0.4314 0.4353 0.4510);stroke-opacity:1;"/>
<path d="M301.498 302.191L301.502 302.19C307.602 299.919 313.392 297.061 318.77 293.615C318.932 293.511 319.123 293.494 319.291 293.551C324.469 290.274 329.208 286.263 333.197 281.668C333.723 281.061 334.003 280.276 334.003 279.46V203.546C334.003 201.613 332.436 200.046 330.503 200.046L265.218 200.046C263.285 200.046 261.718 201.613 261.718 203.546V232.479C261.718 234.412 263.285 235.979 265.218 235.979H284.608C287.094 235.979 289.108 237.994 289.108 240.479V260.195C289.108 261.564 288.492 262.899 287.327 263.69C284.586 265.55 281.454 266.961 278.174 267.807L278.172 267.807C274.581 268.715 270.881 269.22 267.177 269.22C263.259 269.22 259.344 268.614 255.641 267.503M301.498 302.191L255.782 267.023M301.498 302.191C295.786 304.373 289.757 305.862 283.719 306.856C269.047 309.241 254.064 308.545 239.813 304.671L239.805 304.669C230.866 302.387 222.449 298.715 214.865 293.755L214.864 293.755C207.403 288.907 201.287 282.474 196.724 275.049C191.86 266.847 189.48 257.558 189.687 248.169L189.687 248.169V248.158L189.687 177.287H189.687L189.687 177.276C189.48 167.882 191.757 158.589 196.417 150.284C200.77 142.764 206.887 136.13 214.148 130.98C221.627 125.723 230.042 121.756 238.974 119.376L238.974 119.376L238.983 119.374C248.032 116.792 257.499 115.5 267.072 115.5C278.943 115.5 290.818 117.19 302.278 120.274L302.278 120.274L302.288 120.277C311.915 122.663 320.964 126.94 328.847 132.756C330.271 133.806 330.585 135.801 329.597 137.306L311.775 164.47C310.632 166.212 308.199 166.587 306.443 165.362C301.212 161.714 295.248 158.984 288.938 157.437M301.498 302.191L288.818 157.922M255.641 267.503C255.64 267.503 255.639 267.503 255.638 267.502L255.782 267.023M255.641 267.503C255.641 267.503 255.641 267.503 255.642 267.503L255.782 267.023M255.641 267.503C251.824 266.389 248.319 264.667 245.237 262.333M255.782 267.023C252.018 265.925 248.568 264.228 245.536 261.933M245.237 262.333C245.237 262.333 245.238 262.334 245.239 262.335L245.536 261.933M245.237 262.333C241.925 259.885 239.37 256.627 237.563 253.076L237.557 253.064L237.558 253.064C235.436 248.607 234.371 243.738 234.582 238.864M245.237 262.333C245.236 262.332 245.235 262.332 245.234 262.331L245.536 261.933M245.536 261.933L234.582 238.864M234.582 238.864V238.874H235.082M234.582 238.864L238.009 252.849C235.918 248.457 234.873 243.666 235.082 238.874M234.582 238.864C234.582 238.86 234.582 238.856 234.582 238.853L235.082 238.874M234.582 238.864L234.582 185.183M235.082 238.874L235.082 185.172M235.082 185.172L234.582 185.194C234.582 185.19 234.582 185.186 234.582 185.183M235.082 185.172C234.873 180.281 235.918 175.59 238.114 171.198L256.723 157.023M235.082 185.172H234.582V185.183M234.582 185.183C234.371 180.208 235.436 175.436 237.666 170.974L237.67 170.966L237.671 170.966C239.59 167.301 242.361 164.148 245.768 161.708L245.77 161.706C249.057 159.378 252.663 157.656 256.584 156.543M256.584 156.543C256.583 156.543 256.583 156.543 256.582 156.544L256.723 157.023M256.584 156.543C256.585 156.543 256.585 156.543 256.586 156.542L256.723 157.023M256.584 156.543C260.388 155.433 264.303 154.827 268.222 154.827C275.166 154.827 282.106 155.731 288.938 157.437M256.723 157.023C260.486 155.925 264.354 155.327 268.222 155.327C275.122 155.327 282.022 156.225 288.818 157.922M288.938 157.437C288.938 157.436 288.937 157.436 288.937 157.436L288.818 157.922M288.938 157.437C288.938 157.437 288.939 157.437 288.939 157.437L288.818 157.922M319.335 294.114C319.284 294.147 319.216 294.128 319.188 294.075C319.16 294.021 319.091 294.003 319.04 294.035C313.631 297.502 307.809 300.376 301.676 302.658L319.335 294.114Z" fill="#46474E" stroke="#6E6F73" style="fill:#46474E;fill:color(display-p3 0.2745 0.2784 0.3059);fill-opacity:1;stroke:#6E6F73;stroke:color(display-p3 0.4314 0.4353 0.4510);stroke-opacity:1;"/>
</svg>
