<svg width="1173" height="886" viewBox="0 0 1173 886" fill="none" xmlns="http://www.w3.org/2000/svg">
<g opacity="0.2">
<path d="M294.585 523.328L198.517 634.835C197.222 636.338 196.51 638.256 196.51 640.24L196.51 872.8C196.51 875.929 193.973 878.465 190.845 878.465H6.97323C3.84453 878.465 1.30821 875.929 1.30821 872.8L1.30821 22.2819C1.30821 19.1532 3.84454 16.6168 6.97324 16.6168L190.845 16.6168C193.973 16.6168 196.51 19.1531 196.51 22.2818L196.51 333.703C196.51 341.43 206.155 344.947 211.129 339.034L480.614 18.6353C481.69 17.3556 483.277 16.6168 484.949 16.6168L700.804 16.6168C705.59 16.6168 708.219 22.1843 705.179 25.8806L428.824 361.848C426.609 364.54 426.318 368.33 428.094 371.329L723.08 869.459C725.316 873.236 722.594 878.011 718.206 878.011H502.875C500.841 878.011 498.963 876.92 497.955 875.154L297.33 523.568C297.315 523.237 297.181 522.912 296.931 522.66C296.07 521.792 294.805 522.382 294.585 523.328Z" fill="#37383D" stroke="#6E6F73" style="fill:#37383D;fill:color(display-p3 0.2157 0.2196 0.2392);fill-opacity:1;stroke:#6E6F73;stroke:color(display-p3 0.4314 0.4353 0.4510);stroke-opacity:1;" stroke-width="2.61642"/>
<path d="M1148.47 856.499L1148.48 856.495C1175.11 846.108 1200.39 833.031 1223.88 817.263C1224.47 816.865 1225.21 816.878 1225.78 817.221C1249.66 801.437 1271.43 781.905 1289.47 759.431C1290.27 758.448 1290.69 757.215 1290.69 755.941V393.89C1290.69 390.761 1288.16 388.225 1285.03 388.225L979.633 388.225C976.505 388.225 973.968 390.761 973.968 393.89V548.574C973.968 551.702 976.505 554.239 979.633 554.239H1085.04C1089.61 554.239 1093.32 557.946 1093.32 562.52V669.397C1093.32 671.856 1092.23 674.224 1090.26 675.763C1077.43 685.784 1062.29 693.326 1046.34 697.639L1046.34 697.64C1030.75 701.768 1014.7 704.065 998.627 704.065C981.632 704.065 964.644 701.308 948.58 696.257C932.038 691.199 916.863 683.38 903.521 672.795C889.216 661.713 878.167 646.96 870.351 630.862L870.344 630.847L870.337 630.832C861.15 610.612 856.55 588.542 857.465 566.458L857.465 321.314C856.549 298.773 861.151 277.151 870.802 256.918L870.808 256.908L870.813 256.897C879.104 240.307 891.081 226.021 905.82 214.961L905.826 214.957C920.069 204.385 935.693 196.569 952.693 191.512C969.203 186.465 986.186 183.708 1003.18 183.708C1033.37 183.708 1063.54 187.826 1093.25 195.6C1093.26 195.6 1093.26 195.6 1093.26 195.6L1092.93 196.866L1148.47 856.499ZM1148.47 856.499C1123.52 866.484 1097.19 873.299 1070.84 877.845M1148.47 856.499L1070.84 877.845M1070.84 877.845C1006.79 888.751 941.392 885.569 879.175 867.849L879.165 867.847L879.155 867.844C840.118 857.399 803.355 840.598 770.224 817.895L770.221 817.893C737.596 795.68 710.85 766.206 690.898 732.184C669.609 694.568 659.188 651.963 660.094 608.898L660.095 608.884V608.87L660.095 285.283V285.269L660.094 285.255C659.188 242.181 669.158 199.565 689.546 161.486C708.587 127.019 735.336 96.6281 767.074 73.04L1070.84 877.845Z" fill="#37383D" stroke="#6E6F73" style="fill:#37383D;fill:color(display-p3 0.2157 0.2196 0.2392);fill-opacity:1;stroke:#6E6F73;stroke:color(display-p3 0.4314 0.4353 0.4510);stroke-opacity:1;" stroke-width="2.61642"/>
</g>
</svg>
