<svg width="22" height="22" viewBox="0 0 22 22" fill="none" xmlns="http://www.w3.org/2000/svg">
  <g id="info">
    <mask id="mask0_65_6856" style="mask-type:alpha" maskUnits="userSpaceOnUse" x="0" y="-1" width="22" height="23">
      <rect id="Bounding box" y="-0.00756836" width="22" height="22" fill="#56565A" />
    </mask>
    <g mask="url(#mask0_65_6856)">
      <path id="info_2"
        d="M10.1 15.4924H11.9V10.0924H10.1V15.4924ZM11 8.29243C11.255 8.29243 11.4689 8.20603 11.6417 8.03323C11.8139 7.86103 11.9 7.64743 11.9 7.39243C11.9 7.13743 11.8139 6.92353 11.6417 6.75073C11.4689 6.57853 11.255 6.49243 11 6.49243C10.745 6.49243 10.5314 6.57853 10.3592 6.75073C10.1864 6.92353 10.1 7.13743 10.1 7.39243C10.1 7.64743 10.1864 7.86103 10.3592 8.03323C10.5314 8.20603 10.745 8.29243 11 8.29243ZM11 19.9924C9.755 19.9924 8.585 19.756 7.49 19.2832C6.395 18.811 5.4425 18.1699 4.6325 17.3599C3.8225 16.5499 3.1814 15.5974 2.7092 14.5024C2.2364 13.4074 2 12.2374 2 10.9924C2 9.74743 2.2364 8.57743 2.7092 7.48243C3.1814 6.38743 3.8225 5.43493 4.6325 4.62493C5.4425 3.81493 6.395 3.17353 7.49 2.70073C8.585 2.22853 9.755 1.99243 11 1.99243C12.245 1.99243 13.415 2.22853 14.51 2.70073C15.605 3.17353 16.5575 3.81493 17.3675 4.62493C18.1775 5.43493 18.8186 6.38743 19.2908 7.48243C19.7636 8.57743 20 9.74743 20 10.9924C20 12.2374 19.7636 13.4074 19.2908 14.5024C18.8186 15.5974 18.1775 16.5499 17.3675 17.3599C16.5575 18.1699 15.605 18.811 14.51 19.2832C13.415 19.756 12.245 19.9924 11 19.9924ZM11 18.1924C13.01 18.1924 14.7125 17.4949 16.1075 16.0999C17.5025 14.7049 18.2 13.0024 18.2 10.9924C18.2 8.98243 17.5025 7.27993 16.1075 5.88493C14.7125 4.48993 13.01 3.79243 11 3.79243C8.99 3.79243 7.2875 4.48993 5.8925 5.88493C4.4975 7.27993 3.8 8.98243 3.8 10.9924C3.8 13.0024 4.4975 14.7049 5.8925 16.0999C7.2875 17.4949 8.99 18.1924 11 18.1924Z"
        fill="#56565A" />
    </g>
  </g>
</svg>