<?xml version="1.0" encoding="utf-8"?>
<!-- Generator: Adobe Illustrator 27.6.1, SVG Export Plug-In . SVG Version: 6.00 Build 0)  -->
<svg version="1.1" id="Слой_1" xmlns="http://www.w3.org/2000/svg" xmlns:xlink="http://www.w3.org/1999/xlink" x="0px" y="0px"
	 viewBox="0 0 1292 885" style="enable-background:new 0 0 1292 885;" xml:space="preserve">
<style type="text/css">
	.st0{fill:none;stroke:#6F6F6F;stroke-miterlimit:10;}
</style>
<g>
	<path class="st0" d="M497.9,874.4L297.3,522.8c0-0.4-0.2-0.7-0.5-1c-1-1-2.4-0.3-2.7,0.7l-96,111.5c-1.3,1.5-2.1,3.5-2.1,5.5v232.6
		c0,3-2.5,5.5-5.5,5.5H6.8c-3,0-5.5-2.5-5.5-5.5V21.6c0-3,2.5-5.5,5.5-5.5h183.9c3,0,5.5,2.5,5.5,5.5V333c0,7.9,9.9,11.5,15,5.5
		L480.6,18.1c1-1.2,2.6-2,4.2-2h215.9c4.6,0,7.2,5.4,4.2,9l-276.4,336c-2.3,2.8-2.6,6.6-0.7,9.7l295,498.1c2.2,3.6-0.5,8.3-4.7,8.3
		H502.7C500.7,877.1,498.9,876.1,497.9,874.4z"/>
	<path class="st0" d="M1148.2,855.6L1148.2,855.6c-25,10-51.3,16.8-77.6,21.3c-64,10.9-129.4,7.7-191.6-10l0,0l0,0
		c-39-10.4-75.8-27.2-108.9-49.9l0,0c-32.6-22.2-59.3-51.6-79.3-85.6c-21.3-37.6-31.7-80.2-30.8-123.2v0v0V284.6v0v0
		c-0.9-43,9.1-85.6,29.4-123.7c19-34.4,45.8-64.8,77.5-88.4c32.7-24,69.4-42.2,108.4-53.1l0,0l0,0C914.9,7.6,956.2,1.7,998,1.7
		c51.8,0,103.6,7.7,153.6,21.8l0,0l0,0c45.2,11.7,87.5,33.5,123.7,63.3c2.1,1.7,2.6,4.7,1.1,7l-89.5,142.9c-1.8,2.8-5.7,3.5-8.4,1.3
		c-24.8-20.2-54.2-35.3-85.4-43.3c-29.7-7.8-59.9-11.9-90.1-11.9c-17,0-34,2.8-50.5,7.8c-17,5.1-32.7,12.9-46.9,23.5l0,0
		c-14.8,11.1-26.8,25.4-35.1,42l0,0l0,0c-9.7,20.3-14.3,41.9-13.4,64.5v245.1c-0.9,22.1,3.7,44.2,12.9,64.5l0,0l0,0
		c7.8,16.1,18.9,30.9,33.2,42c13.4,10.6,28.6,18.4,45.1,23.5c16.1,5.1,33.1,7.8,50.1,7.8c16.1,0,32.2-2.3,47.8-6.4v0
		c16-4.3,31.1-11.9,44-21.9c2-1.6,3.1-4,3.1-6.5V561.8c0-4.7-3.8-8.5-8.5-8.5H979.4c-3,0-5.5-2.5-5.5-5.5V393.2c0-3,2.5-5.5,5.5-5.5
		h305.4c3,0,5.5,2.5,5.5,5.5v362.1c0,1.2-0.4,2.4-1.2,3.4c-18,22.4-39.7,41.9-63.6,57.7c-0.6-0.3-1.4-0.3-2,0.1
		C1200.1,832.2,1174.8,845.3,1148.2,855.6z"/>
</g>
</svg>
