<svg width="318" height="395" viewBox="0 0 318 395" fill="none" xmlns="http://www.w3.org/2000/svg">
<g filter="url(#filter0_d_407_903)">
<path d="M112 36.446C112 29.02 118.02 23 125.446 23H366.554C373.98 23 380 29.02 380 36.446V40.0104H112V36.446Z" fill="#E8E8E8" style="fill:#E8E8E8;fill:color(display-p3 0.9083 0.9083 0.9083);fill-opacity:1;"/>
<rect x="123.203" y="30.2812" width="6.72302" height="6.72302" rx="3.36151" fill="#ED695E" style="fill:#ED695E;fill:color(display-p3 0.9294 0.4118 0.3686);fill-opacity:1;"/>
<rect x="134.406" y="30.2812" width="6.72302" height="6.72302" rx="3.36151" fill="#F5BF4F" style="fill:#F5BF4F;fill:color(display-p3 0.9608 0.7490 0.3098);fill-opacity:1;"/>
<rect x="145.617" y="30.2812" width="6.72302" height="6.72302" rx="3.36151" fill="#61C454" style="fill:#61C454;fill:color(display-p3 0.3804 0.7686 0.3294);fill-opacity:1;"/>
<g clip-path="url(#clip0_407_903)">
<path d="M112 40.0078H380V323.223C380 330.649 373.98 336.669 366.554 336.669H125.446C118.02 336.669 112 330.649 112 323.223V40.0078Z" fill="#E8E8E8" style="fill:#E8E8E8;fill:color(display-p3 0.9083 0.9083 0.9083);fill-opacity:1;"/>
<g clip-path="url(#clip1_407_903)">
<rect width="255.936" height="292.129" transform="translate(118.031 40.0078)" fill="#F3F0F0" style="fill:#F3F0F0;fill:color(display-p3 0.9529 0.9412 0.9412);fill-opacity:1;"/>
<path d="M145.768 60.2311V64.1509C145.768 65.3136 145.69 66.3085 145.535 67.1357C145.391 67.9628 145.169 68.664 144.869 69.2394C144.582 69.8028 144.222 70.2703 143.79 70.6419C143.359 71.0015 142.867 71.2952 142.316 71.5229L141.597 70.1025C142.016 69.8867 142.382 69.635 142.694 69.3473C143.017 69.0596 143.281 68.688 143.485 68.2325C143.701 67.777 143.856 67.2136 143.952 66.5423C144.06 65.871 144.114 65.0379 144.114 64.043V58.7207H151.738V71.1094H150.048V60.2311H145.768ZM155.353 68.628L156.684 66.5962L159.651 62.209H161.107V71.1094H159.525V64.6723H159.435L158.086 66.7401L155.138 71.1094H153.717V62.209H155.281V68.628H155.353ZM165.777 63.5755L165.67 65.931C165.622 66.8659 165.544 67.6391 165.436 68.2505C165.34 68.8498 165.16 69.3533 164.896 69.7608H169.32V63.5755H165.777ZM162.865 69.7788C163.08 69.635 163.266 69.4671 163.422 69.2754C163.578 69.0716 163.71 68.8258 163.818 68.5381C163.925 68.2385 164.009 67.8848 164.069 67.4773C164.129 67.0577 164.177 66.5603 164.213 65.9849L164.429 62.209H170.866V69.7608L171.603 69.7788V73.3929H170.147V71.1094H163.71V73.3929H162.253V69.8148L162.865 69.7788ZM181.031 71.1094V62.209H182.523V71.1094H181.031ZM178.621 68.3583C178.621 68.0227 178.495 67.717 178.244 67.4413C177.992 67.1536 177.578 67.0098 177.003 67.0098H174.683V69.7428H177.003C177.518 69.7428 177.914 69.629 178.19 69.4012C178.477 69.1615 178.621 68.8138 178.621 68.3583ZM174.701 65.6612H177.057C177.56 65.6612 178.004 65.7332 178.387 65.877C178.783 66.0089 179.107 66.1947 179.358 66.4344C179.622 66.6742 179.82 66.9618 179.952 67.2975C180.084 67.6211 180.15 67.9748 180.15 68.3583C180.15 69.1854 179.88 69.8507 179.34 70.3542C178.813 70.8576 178.046 71.1094 177.039 71.1094H173.155V62.191H174.701V65.6612Z" fill="#46474E" style="fill:#46474E;fill:color(display-p3 0.2745 0.2784 0.3059);fill-opacity:1;"/>
<path d="M138.266 87.771C138.266 86.5297 139.272 85.5234 140.513 85.5234L228.228 85.5234C229.014 85.5234 229.743 85.9342 230.15 86.6066L233.213 91.6636C233.647 92.3794 233.647 93.2767 233.213 93.9925L230.15 99.0495C229.743 99.722 229.014 100.133 228.228 100.133H140.513C139.272 100.133 138.266 99.1264 138.266 97.8851V87.771Z" fill="#FFA469" style="fill:#FFA469;fill:color(display-p3 1.0000 0.6431 0.4118);fill-opacity:1;"/>
<path d="M246.844 87.771C246.844 86.5297 247.85 85.5234 249.091 85.5234L336.806 85.5234C337.592 85.5234 338.321 85.9342 338.728 86.6066L341.791 91.6636C342.225 92.3794 342.225 93.2767 341.791 93.9925L338.728 99.0495C338.321 99.722 337.592 100.133 336.806 100.133H249.091C247.85 100.133 246.844 99.1264 246.844 97.8851V87.771Z" fill="#FCCD82" style="fill:#FCCD82;fill:color(display-p3 0.9882 0.8039 0.5098);fill-opacity:1;"/>
<rect x="138.188" y="108.148" width="101.685" height="79.5558" rx="6.72302" fill="white" style="fill:white;fill:white;fill-opacity:1;"/>
<rect x="147.148" y="119.352" width="39.6399" height="5.60252" rx="2.80126" fill="#A4A4A4" style="fill:#A4A4A4;fill:color(display-p3 0.6417 0.6417 0.6417);fill-opacity:1;"/>
<rect x="147.148" y="127.758" width="49.8624" height="5.60252" rx="2.80126" fill="#A4A4A4" style="fill:#A4A4A4;fill:color(display-p3 0.6417 0.6417 0.6417);fill-opacity:1;"/>
<rect x="147.148" y="174.258" width="19.6088" height="5.60252" rx="2.80126" fill="#D9D9D9" style="fill:#D9D9D9;fill:color(display-p3 0.8510 0.8510 0.8510);fill-opacity:1;"/>
<rect x="220.719" y="168.656" width="11.205" height="11.205" rx="5.60252" fill="#A4A4A4" style="fill:#A4A4A4;fill:color(display-p3 0.6417 0.6417 0.6417);fill-opacity:1;"/>
<rect x="220.727" y="116.547" width="11.205" height="8.40378" rx="4.20189" fill="#D9D9D9" style="fill:#D9D9D9;fill:color(display-p3 0.8510 0.8510 0.8510);fill-opacity:1;"/>
<rect x="220.727" y="127.75" width="11.205" height="8.40378" rx="4.20189" fill="#D9D9D9" style="fill:#D9D9D9;fill:color(display-p3 0.8510 0.8510 0.8510);fill-opacity:1;"/>
<rect x="220.727" y="138.953" width="11.205" height="8.40378" rx="4.20189" fill="#D9D9D9" style="fill:#D9D9D9;fill:color(display-p3 0.8510 0.8510 0.8510);fill-opacity:1;"/>
<rect x="220.727" y="150.156" width="11.205" height="8.40378" rx="4.20189" fill="#D9D9D9" style="fill:#D9D9D9;fill:color(display-p3 0.8510 0.8510 0.8510);fill-opacity:1;"/>
<rect x="138.188" y="194.32" width="101.685" height="79.5558" rx="6.72302" fill="#D7D7D7" style="fill:#D7D7D7;fill:color(display-p3 0.8417 0.8417 0.8417);fill-opacity:1;"/>
<rect x="147.148" y="205.523" width="39.6399" height="5.60252" rx="2.80126" fill="#A4A4A4" style="fill:#A4A4A4;fill:color(display-p3 0.6417 0.6417 0.6417);fill-opacity:1;"/>
<rect x="147.148" y="213.938" width="49.8624" height="5.60252" rx="2.80126" fill="#A4A4A4" style="fill:#A4A4A4;fill:color(display-p3 0.6417 0.6417 0.6417);fill-opacity:1;"/>
<rect x="147.148" y="260.422" width="19.6088" height="5.60252" rx="2.80126" fill="#E8E8E8" style="fill:#E8E8E8;fill:color(display-p3 0.9083 0.9083 0.9083);fill-opacity:1;"/>
<rect x="220.719" y="254.828" width="11.205" height="11.205" rx="5.60252" fill="#A4A4A4" style="fill:#A4A4A4;fill:color(display-p3 0.6417 0.6417 0.6417);fill-opacity:1;"/>
<rect x="220.727" y="202.727" width="11.205" height="8.40378" rx="4.20189" fill="#E8E8E8" style="fill:#E8E8E8;fill:color(display-p3 0.9083 0.9083 0.9083);fill-opacity:1;"/>
<rect x="220.727" y="213.93" width="11.205" height="8.40378" rx="4.20189" fill="#E8E8E8" style="fill:#E8E8E8;fill:color(display-p3 0.9083 0.9083 0.9083);fill-opacity:1;"/>
<rect x="220.727" y="225.141" width="11.205" height="8.40378" rx="4.20189" fill="#E8E8E8" style="fill:#E8E8E8;fill:color(display-p3 0.9083 0.9083 0.9083);fill-opacity:1;"/>
<rect x="220.727" y="236.344" width="11.205" height="8.40378" rx="4.20189" fill="#E8E8E8" style="fill:#E8E8E8;fill:color(display-p3 0.9083 0.9083 0.9083);fill-opacity:1;"/>
<rect x="138.188" y="280.586" width="101.685" height="79.5558" rx="6.72302" fill="white" style="fill:white;fill:white;fill-opacity:1;"/>
<rect x="147.148" y="291.797" width="39.6399" height="5.60252" rx="2.80126" fill="#A4A4A4" style="fill:#A4A4A4;fill:color(display-p3 0.6417 0.6417 0.6417);fill-opacity:1;"/>
<rect x="147.148" y="300.195" width="49.8624" height="5.60252" rx="2.80126" fill="#A4A4A4" style="fill:#A4A4A4;fill:color(display-p3 0.6417 0.6417 0.6417);fill-opacity:1;"/>
<rect x="220.719" y="288.992" width="11.205" height="8.40378" rx="4.20189" fill="#D9D9D9" style="fill:#D9D9D9;fill:color(display-p3 0.8510 0.8510 0.8510);fill-opacity:1;"/>
<rect x="220.719" y="300.195" width="11.205" height="8.40378" rx="4.20189" fill="#D9D9D9" style="fill:#D9D9D9;fill:color(display-p3 0.8510 0.8510 0.8510);fill-opacity:1;"/>
<rect x="220.719" y="311.406" width="11.205" height="8.40378" rx="4.20189" fill="#D9D9D9" style="fill:#D9D9D9;fill:color(display-p3 0.8510 0.8510 0.8510);fill-opacity:1;"/>
<rect x="220.719" y="322.609" width="11.205" height="8.40378" rx="4.20189" fill="#D9D9D9" style="fill:#D9D9D9;fill:color(display-p3 0.8510 0.8510 0.8510);fill-opacity:1;"/>
<rect x="246.766" y="108.148" width="101.685" height="79.5558" rx="6.72302" fill="white" style="fill:white;fill:white;fill-opacity:1;"/>
<rect x="255.734" y="119.352" width="39.6399" height="5.60252" rx="2.80126" fill="#A4A4A4" style="fill:#A4A4A4;fill:color(display-p3 0.6417 0.6417 0.6417);fill-opacity:1;"/>
<rect x="255.734" y="127.758" width="49.8624" height="5.60252" rx="2.80126" fill="#A4A4A4" style="fill:#A4A4A4;fill:color(display-p3 0.6417 0.6417 0.6417);fill-opacity:1;"/>
<rect x="255.734" y="174.258" width="19.6088" height="5.60252" rx="2.80126" fill="#D9D9D9" style="fill:#D9D9D9;fill:color(display-p3 0.8510 0.8510 0.8510);fill-opacity:1;"/>
<rect x="246.766" y="194.32" width="101.685" height="79.5558" rx="6.72302" fill="white" style="fill:white;fill:white;fill-opacity:1;"/>
<rect x="255.734" y="205.523" width="39.6399" height="5.60252" rx="2.80126" fill="#A4A4A4" style="fill:#A4A4A4;fill:color(display-p3 0.6417 0.6417 0.6417);fill-opacity:1;"/>
<rect x="255.734" y="213.93" width="49.8624" height="5.60252" rx="2.80126" fill="#A4A4A4" style="fill:#A4A4A4;fill:color(display-p3 0.6417 0.6417 0.6417);fill-opacity:1;"/>
<rect x="255.734" y="260.422" width="19.6088" height="5.60252" rx="2.80126" fill="#D9D9D9" style="fill:#D9D9D9;fill:color(display-p3 0.8510 0.8510 0.8510);fill-opacity:1;"/>
</g>
</g>
</g>
<g filter="url(#filter1_d_407_903)">
<path d="M366.807 388.462H44.7941C38.8549 388.462 34.0312 382.962 34.0312 376.171V141.322C34.0312 134.54 38.8476 129.031 44.7941 129.031H366.807C372.746 129.031 377.57 134.531 377.57 141.322V376.171C377.57 382.953 372.753 388.462 366.807 388.462Z" fill="#65666D" style="fill:#65666D;fill:color(display-p3 0.3952 0.3994 0.4292);fill-opacity:1;"/>
</g>
<path d="M376.407 394.383H34.0154C26.8277 394.383 21 387.717 21 379.495V371.875H389.415V379.495C389.415 387.717 383.588 394.383 376.4 394.383H376.407Z" fill="#65666D" style="fill:#65666D;fill:color(display-p3 0.3952 0.3994 0.4292);fill-opacity:1;"/>
<path d="M167.891 369.508L173.168 377.901H247.457L252.354 369.508H167.891Z" fill="#46474E" style="fill:#46474E;fill:color(display-p3 0.2745 0.2784 0.3059);fill-opacity:1;"/>
<path d="M377.563 369.177C377.563 369.304 300.612 369.4 205.711 369.4C110.809 369.4 33.8438 369.296 33.8438 369.177C33.8438 369.058 110.779 368.953 205.711 368.953C300.642 368.953 377.563 369.058 377.563 369.177Z" fill="#46474E" style="fill:#46474E;fill:color(display-p3 0.2745 0.2784 0.3059);fill-opacity:1;"/>
<path d="M360.962 362.404H47.0742C45.7531 362.404 44.6875 361.168 44.6875 359.637V146.017C44.6875 144.485 45.7531 143.25 47.0742 143.25H360.962C362.283 143.25 363.349 144.485 363.349 146.017V359.628C363.349 361.16 362.276 362.395 360.962 362.395V362.404Z" fill="#F3F0F0" style="fill:#F3F0F0;fill:color(display-p3 0.9529 0.9412 0.9412);fill-opacity:1;"/>
<path fill-rule="evenodd" clip-rule="evenodd" d="M71.3476 174.047C65.1355 174.047 60.0938 179.089 60.0938 185.301C60.0938 191.513 65.1355 196.555 71.3476 196.555C77.5597 196.555 82.6014 191.513 82.6014 185.301C82.6014 179.089 77.5597 174.047 71.3476 174.047ZM71.3449 177.422C73.213 177.422 74.7211 178.93 74.7211 180.798C74.7211 182.666 73.213 184.174 71.3449 184.174C69.4768 184.174 67.9688 182.666 67.9688 180.798C67.9688 178.93 69.4768 177.422 71.3449 177.422ZM71.3461 193.402C68.5326 193.402 66.0455 191.962 64.5938 189.779C64.6275 187.539 69.0953 186.312 71.3461 186.312C73.5856 186.312 78.0646 187.539 78.0984 189.779C76.6466 191.962 74.1595 193.402 71.3461 193.402Z" fill="#B9BABD" style="fill:#B9BABD;fill:color(display-p3 0.7255 0.7294 0.7412);fill-opacity:1;"/>
<path d="M62.9992 207.574C62.6266 207.574 62.2821 207.519 61.9656 207.409C61.6514 207.299 61.381 207.135 61.1543 206.918C60.9276 206.7 60.7514 206.428 60.6257 206.103C60.5022 205.777 60.4405 205.402 60.4405 204.975C60.4405 204.578 60.5 204.218 60.619 203.894C60.7379 203.571 60.9107 203.294 61.1374 203.063C61.3551 202.841 61.6245 202.669 61.9454 202.548C62.2686 202.426 62.621 202.366 63.0026 202.366C63.2136 202.366 63.4032 202.378 63.5716 202.403C63.7421 202.425 63.8993 202.456 64.0429 202.494C64.1933 202.536 64.3291 202.585 64.4503 202.639C64.5737 202.69 64.6815 202.738 64.7735 202.783V203.999H64.6253C64.5625 203.945 64.4828 203.881 64.3863 203.807C64.292 203.733 64.1843 203.66 64.0631 203.588C63.9397 203.516 63.8061 203.456 63.6625 203.406C63.5188 203.357 63.3651 203.332 63.2012 203.332C63.0194 203.332 62.8466 203.361 62.6828 203.42C62.5189 203.476 62.3674 203.57 62.2282 203.702C62.0958 203.83 61.9881 204 61.905 204.211C61.8242 204.422 61.7838 204.678 61.7838 204.978C61.7838 205.293 61.8276 205.555 61.9151 205.766C62.0049 205.977 62.1171 206.143 62.2518 206.265C62.3887 206.388 62.5414 206.477 62.7097 206.531C62.878 206.582 63.0441 206.608 63.208 206.608C63.3651 206.608 63.5199 206.584 63.6726 206.537C63.8274 206.49 63.97 206.426 64.1001 206.345C64.2101 206.28 64.3122 206.211 64.4065 206.137C64.5008 206.063 64.5782 205.999 64.6388 205.945H64.7735V207.143C64.6478 207.199 64.5277 207.252 64.4132 207.301C64.2988 207.351 64.1787 207.394 64.053 207.429C63.8892 207.477 63.7354 207.512 63.5918 207.537C63.4481 207.562 63.2506 207.574 62.9992 207.574ZM69.517 205.81H66.7429C66.7608 206.106 66.8731 206.333 67.0795 206.49C67.2883 206.647 67.5947 206.726 67.9987 206.726C68.2545 206.726 68.5025 206.68 68.7427 206.588C68.9829 206.496 69.1725 206.397 69.3117 206.291H69.4463V207.264C69.1725 207.374 68.9144 207.454 68.672 207.503C68.4296 207.553 68.1614 207.578 67.8674 207.578C67.1087 207.578 66.5274 207.407 66.1234 207.066C65.7194 206.725 65.5174 206.239 65.5174 205.608C65.5174 204.984 65.7082 204.49 66.0897 204.127C66.4735 203.761 66.9987 203.578 67.6654 203.578C68.2803 203.578 68.7427 203.734 69.0524 204.046C69.3622 204.356 69.517 204.802 69.517 205.386V205.81ZM68.3118 205.1C68.305 204.846 68.2422 204.655 68.1232 204.527C68.0043 204.399 67.8191 204.335 67.5677 204.335C67.3343 204.335 67.1424 204.396 66.992 204.517C66.8416 204.638 66.7575 204.833 66.7395 205.1H68.3118ZM74.4559 205.534C74.4559 205.846 74.4076 206.13 74.3111 206.386C74.2168 206.642 74.0923 206.853 73.9374 207.019C73.7758 207.194 73.5929 207.326 73.3886 207.416C73.1844 207.506 72.9655 207.551 72.7321 207.551C72.5166 207.551 72.3337 207.527 72.1833 207.48C72.033 207.435 71.8792 207.371 71.7221 207.288V208.864H70.5101V203.696H71.7221V204.09C71.9084 203.942 72.0981 203.821 72.2911 203.729C72.4863 203.637 72.7108 203.591 72.9644 203.591C73.4358 203.591 73.8016 203.764 74.062 204.11C74.3246 204.455 74.4559 204.93 74.4559 205.534ZM73.2068 205.558C73.2068 205.189 73.144 204.922 73.0183 204.756C72.8926 204.59 72.694 204.507 72.4224 204.507C72.3079 204.507 72.1901 204.525 72.0689 204.561C71.9477 204.595 71.8321 204.644 71.7221 204.709V206.611C71.8029 206.643 71.8893 206.663 71.9813 206.672C72.0734 206.681 72.1643 206.685 72.254 206.685C72.575 206.685 72.814 206.592 72.9712 206.406C73.1283 206.217 73.2068 205.935 73.2068 205.558ZM78.5261 204.537H76.6811V207.477H75.4691V203.696H78.5261V204.537ZM82.9936 205.81H80.2194C80.2374 206.106 80.3496 206.333 80.5561 206.49C80.7648 206.647 81.0712 206.726 81.4752 206.726C81.7311 206.726 81.9791 206.68 82.2192 206.588C82.4594 206.496 82.6491 206.397 82.7882 206.291H82.9229V207.264C82.6491 207.374 82.391 207.454 82.1485 207.503C81.9061 207.553 81.6379 207.578 81.3439 207.578C80.5853 207.578 80.004 207.407 79.5999 207.066C79.1959 206.725 78.9939 206.239 78.9939 205.608C78.9939 204.984 79.1847 204.49 79.5663 204.127C79.9501 203.761 80.4753 203.578 81.1419 203.578C81.7569 203.578 82.2192 203.734 82.529 204.046C82.8387 204.356 82.9936 204.802 82.9936 205.386V205.81ZM81.7883 205.1C81.7816 204.846 81.7187 204.655 81.5998 204.527C81.4808 204.399 81.2956 204.335 81.0443 204.335C80.8108 204.335 80.6189 204.396 80.4686 204.517C80.3182 204.638 80.234 204.833 80.2161 205.1H81.7883ZM87.8079 207.477H86.6329V205.164L84.9899 207.477H83.9866V203.696H85.1616V205.766L86.6834 203.696H87.8079V207.477ZM87.3904 202.019C87.3904 202.385 87.2647 202.683 87.0133 202.915C86.7642 203.146 86.3938 203.261 85.9023 203.261C85.413 203.261 85.0427 203.146 84.7913 202.915C84.5399 202.681 84.4142 202.383 84.4142 202.019H85.3502C85.3546 202.241 85.3973 202.407 85.4781 202.517C85.5589 202.625 85.7003 202.679 85.9023 202.679C86.1065 202.679 86.2479 202.626 86.3265 202.521C86.4073 202.413 86.4499 202.246 86.4544 202.019H87.3904ZM63.4807 212.271C63.6378 212.429 63.7567 212.619 63.8375 212.844C63.9183 213.066 63.9587 213.327 63.9587 213.628C63.9587 214.189 63.7904 214.655 63.4537 215.025C63.1171 215.396 62.703 215.581 62.2114 215.581C61.969 215.581 61.7457 215.541 61.5414 215.46C61.3372 215.377 61.1632 215.25 61.0196 215.079C60.84 214.866 60.7054 214.598 60.6156 214.275C60.5281 213.949 60.4843 213.553 60.4843 213.086C60.4843 212.918 60.4921 212.747 60.5079 212.574C60.5236 212.399 60.5595 212.191 60.6156 211.948C60.6605 211.74 60.7256 211.539 60.8109 211.346C60.8984 211.153 61.0016 210.997 61.1206 210.878C61.2822 210.714 61.4943 210.582 61.7569 210.484C62.0218 210.383 62.3719 210.313 62.8073 210.275C62.9846 210.259 63.1496 210.247 63.3022 210.238C63.4549 210.227 63.5918 210.217 63.713 210.208V210.79C63.5648 210.799 63.4178 210.808 63.2719 210.817C63.1283 210.826 62.9846 210.837 62.841 210.851C62.5537 210.875 62.2933 210.923 62.0599 210.992C61.8287 211.062 61.6593 211.151 61.5515 211.261C61.4326 211.38 61.3428 211.536 61.2822 211.729C61.2238 211.92 61.1857 212.102 61.1677 212.275C61.3361 212.154 61.5201 212.053 61.7199 211.972C61.9219 211.889 62.1362 211.847 62.3629 211.847C62.5739 211.847 62.777 211.882 62.9723 211.952C63.1676 212.021 63.337 212.128 63.4807 212.271ZM63.3157 213.665C63.3157 213.25 63.2158 212.94 63.0161 212.736C62.8163 212.53 62.5526 212.426 62.2249 212.426C62.0296 212.426 61.8422 212.458 61.6626 212.521C61.4831 212.581 61.3125 212.663 61.1509 212.766C61.1464 212.822 61.1419 212.889 61.1374 212.965C61.1352 213.039 61.1341 213.108 61.1341 213.17C61.1341 213.561 61.1666 213.877 61.2317 214.12C61.2968 214.362 61.3888 214.555 61.5078 214.699C61.611 214.82 61.7232 214.906 61.8444 214.958C61.9656 215.007 62.0958 215.032 62.235 215.032C62.5739 215.032 62.8387 214.91 63.0295 214.665C63.2203 214.421 63.3157 214.087 63.3157 213.665ZM68.2579 215.477H67.6317V212.652L65.6622 215.477H65.0898V211.716H65.716V214.5L67.6654 211.716H68.2579V215.477ZM72.2608 214.423C72.2608 214.634 72.2114 214.812 72.1126 214.958C72.0161 215.104 71.8916 215.222 71.7389 215.312C71.5863 215.399 71.418 215.463 71.2339 215.503C71.0499 215.544 70.8658 215.564 70.6818 215.564C70.4214 215.564 70.1734 215.539 69.9377 215.49C69.7021 215.441 69.4698 215.364 69.2408 215.261V214.568H69.2846C69.4485 214.711 69.6572 214.822 69.9108 214.901C70.1644 214.979 70.4102 215.019 70.6481 215.019C70.7603 215.019 70.8759 215.009 70.9949 214.988C71.1139 214.966 71.2171 214.931 71.3046 214.884C71.3989 214.83 71.4741 214.766 71.5302 214.692C71.5863 214.616 71.6144 214.513 71.6144 214.382C71.6144 214.248 71.5863 214.14 71.5302 214.059C71.4763 213.978 71.4023 213.918 71.308 213.877C71.216 213.837 71.1049 213.812 70.9747 213.803C70.8445 213.794 70.7256 213.79 70.6178 213.79H70.069V213.244H70.4495C70.5393 213.244 70.656 213.241 70.7996 213.234C70.9455 213.228 71.0634 213.21 71.1531 213.18C71.2698 213.142 71.3619 213.088 71.4292 213.019C71.4988 212.949 71.5336 212.838 71.5336 212.686C71.5336 212.58 71.5066 212.494 71.4528 212.426C71.3989 212.357 71.3316 212.303 71.2508 212.265C71.1677 212.227 71.0746 212.201 70.9713 212.187C70.8703 212.174 70.7805 212.167 70.702 212.167C70.4731 212.167 70.2475 212.199 70.0253 212.261C69.8053 212.322 69.6202 212.411 69.4698 212.527H69.426V211.83C69.6123 211.77 69.8121 211.72 70.0253 211.682C70.2385 211.644 70.4517 211.625 70.665 211.625C70.84 211.625 71.014 211.641 71.1868 211.672C71.3619 211.704 71.5246 211.757 71.675 211.834C71.8231 211.91 71.9443 212.014 72.0386 212.147C72.1328 212.277 72.18 212.439 72.18 212.632C72.18 212.829 72.1183 213.003 71.9948 213.154C71.8736 213.302 71.7098 213.408 71.5033 213.473V213.497C71.7345 213.553 71.9185 213.659 72.0554 213.813C72.1923 213.966 72.2608 214.169 72.2608 214.423ZM76.5465 215.477H75.9135V213.783H74.0315V215.477H73.3986V211.716H74.0315V213.238H75.9135V211.716H76.5465V215.477ZM81.0813 213.662H78.3105C78.3105 213.893 78.3453 214.095 78.4149 214.268C78.4844 214.438 78.5798 214.579 78.701 214.689C78.8177 214.796 78.9558 214.877 79.1151 214.931C79.2767 214.985 79.4541 215.012 79.6471 215.012C79.9029 215.012 80.1599 214.961 80.4181 214.86C80.6784 214.757 80.8636 214.656 80.9736 214.557H81.0072V215.248C80.794 215.337 80.5763 215.413 80.3541 215.473C80.1319 215.534 79.8985 215.564 79.6538 215.564C79.0298 215.564 78.5428 215.396 78.1927 215.059C77.8425 214.72 77.6675 214.24 77.6675 213.618C77.6675 213.003 77.8347 212.515 78.1691 212.154C78.5058 211.792 78.9479 211.612 79.4956 211.612C80.0028 211.612 80.3934 211.76 80.6672 212.056C80.9433 212.352 81.0813 212.773 81.0813 213.318V213.662ZM80.4652 213.177C80.4629 212.845 80.3788 212.588 80.2127 212.406C80.0488 212.224 79.7986 212.133 79.4619 212.133C79.123 212.133 78.8525 212.233 78.6505 212.433C78.4508 212.633 78.3374 212.881 78.3105 213.177H80.4652ZM84.9933 215.241C84.7352 215.362 84.513 215.445 84.3267 215.49C84.1426 215.537 83.9586 215.561 83.7745 215.561C83.5007 215.561 83.2493 215.521 83.0204 215.443C82.7915 215.362 82.5951 215.241 82.4312 215.079C82.2674 214.918 82.1394 214.713 82.0474 214.467C81.9576 214.22 81.9127 213.931 81.9127 213.601C81.9127 213.002 82.0788 212.524 82.411 212.167C82.7432 211.808 83.1977 211.628 83.7745 211.628C83.9922 211.628 84.2055 211.659 84.4142 211.719C84.6252 211.78 84.8182 211.854 84.9933 211.942V212.645H84.9562C84.7475 212.486 84.541 212.368 84.3368 212.292C84.1348 212.215 83.9384 212.177 83.7476 212.177C83.3728 212.177 83.0821 212.303 82.8756 212.554C82.6714 212.806 82.5693 213.155 82.5693 213.601C82.5693 214.048 82.6714 214.395 82.8756 214.642C83.0799 214.889 83.3705 215.012 83.7476 215.012C83.88 215.012 84.0113 214.995 84.1415 214.961C84.2739 214.928 84.394 214.884 84.5017 214.83C84.587 214.788 84.6746 214.737 84.7643 214.679C84.8564 214.618 84.9203 214.573 84.9562 214.544H84.9933V215.241ZM87.9929 213.588H85.8921V212.978H87.9929V213.588ZM92.191 215.477H91.5615V215.076C91.5054 215.114 91.429 215.168 91.3325 215.238C91.2383 215.305 91.1462 215.359 91.0565 215.399C90.951 215.451 90.8298 215.493 90.6929 215.527C90.5559 215.563 90.3955 215.581 90.2114 215.581C89.8725 215.581 89.5852 215.469 89.3495 215.244C89.1139 215.02 88.996 214.734 88.996 214.386C88.996 214.101 89.0566 213.871 89.1778 213.696C89.3013 213.518 89.4764 213.379 89.703 213.278C89.932 213.177 90.2069 213.109 90.5279 213.073C90.8488 213.037 91.1934 213.01 91.5615 212.992V212.894C91.5615 212.751 91.5357 212.632 91.484 212.537C91.4347 212.443 91.3628 212.369 91.2686 212.315C91.1788 212.264 91.0711 212.229 90.9454 212.211C90.8197 212.193 90.6884 212.184 90.5515 212.184C90.3854 212.184 90.2002 212.206 89.9959 212.251C89.7917 212.294 89.5807 212.357 89.363 212.44H89.3293V211.797C89.4528 211.763 89.6312 211.726 89.8646 211.686C90.0981 211.645 90.3281 211.625 90.5548 211.625C90.8197 211.625 91.0497 211.647 91.245 211.692C91.4425 211.735 91.6131 211.809 91.7567 211.915C91.8981 212.018 92.0059 212.151 92.0799 212.315C92.154 212.479 92.191 212.682 92.191 212.925V215.477ZM91.5615 214.551V213.504C91.3684 213.515 91.1406 213.532 90.878 213.554C90.6177 213.577 90.4112 213.609 90.2586 213.652C90.0767 213.703 89.9297 213.784 89.8175 213.894C89.7053 214.002 89.6492 214.151 89.6492 214.342C89.6492 214.557 89.7143 214.72 89.8444 214.83C89.9746 214.938 90.1733 214.992 90.4404 214.992C90.6626 214.992 90.8657 214.949 91.0497 214.864C91.2338 214.776 91.4044 214.672 91.5615 214.551ZM96.6956 215.477H96.0626V213.783H94.1806V215.477H93.5477V211.716H94.1806V213.238H96.0626V211.716H96.6956V215.477ZM101.005 215.477H100.375V215.076C100.319 215.114 100.243 215.168 100.146 215.238C100.052 215.305 99.96 215.359 99.8702 215.399C99.7648 215.451 99.6436 215.493 99.5066 215.527C99.3697 215.563 99.2093 215.581 99.0252 215.581C98.6863 215.581 98.399 215.469 98.1633 215.244C97.9277 215.02 97.8098 214.734 97.8098 214.386C97.8098 214.101 97.8704 213.871 97.9916 213.696C98.1151 213.518 98.2901 213.379 98.5168 213.278C98.7458 213.177 99.0207 213.109 99.3417 213.073C99.6626 213.037 100.007 213.01 100.375 212.992V212.894C100.375 212.751 100.349 212.632 100.298 212.537C100.248 212.443 100.177 212.369 100.082 212.315C99.9926 212.264 99.8848 212.229 99.7591 212.211C99.6335 212.193 99.5022 212.184 99.3652 212.184C99.1992 212.184 99.014 212.206 98.8097 212.251C98.6055 212.294 98.3945 212.357 98.1768 212.44H98.1431V211.797C98.2666 211.763 98.445 211.726 98.6784 211.686C98.9119 211.645 99.1419 211.625 99.3686 211.625C99.6335 211.625 99.8635 211.647 100.059 211.692C100.256 211.735 100.427 211.809 100.571 211.915C100.712 212.018 100.82 212.151 100.894 212.315C100.968 212.479 101.005 212.682 101.005 212.925V215.477ZM100.375 214.551V213.504C100.182 213.515 99.9544 213.532 99.6918 213.554C99.4315 213.577 99.225 213.609 99.0723 213.652C98.8905 213.703 98.7435 213.784 98.6313 213.894C98.5191 214.002 98.463 214.151 98.463 214.342C98.463 214.557 98.5281 214.72 98.6582 214.83C98.7884 214.938 98.987 214.992 99.2541 214.992C99.4763 214.992 99.6795 214.949 99.8635 214.864C100.048 214.776 100.218 214.672 100.375 214.551ZM105.395 215.477H104.762V212.248H103.358C103.351 212.434 103.345 212.614 103.338 212.787C103.331 212.959 103.324 213.115 103.318 213.255C103.302 213.629 103.276 213.929 103.24 214.153C103.204 214.376 103.157 214.561 103.099 214.709C103.045 214.848 102.984 214.961 102.917 215.049C102.852 215.134 102.781 215.212 102.705 215.281C102.629 215.349 102.543 215.399 102.449 215.433C102.357 215.466 102.256 215.483 102.146 215.483C102.108 215.483 102.052 215.482 101.978 215.48C101.906 215.478 101.859 215.477 101.836 215.477V214.924H101.87C101.888 214.924 101.914 214.926 101.947 214.928C101.981 214.93 102.009 214.931 102.032 214.931C102.085 214.931 102.14 214.923 102.197 214.908C102.255 214.892 102.304 214.863 102.345 214.82C102.459 214.708 102.551 214.518 102.621 214.251C102.69 213.984 102.736 213.598 102.759 213.093C102.768 212.909 102.776 212.691 102.782 212.44C102.791 212.186 102.799 211.945 102.806 211.716H105.395V215.477ZM109.95 215.477H109.324V212.652L107.354 215.477H106.782V211.716H107.408V214.5L109.357 211.716H109.95V215.477ZM114.101 212.271H112.741V215.477H112.108V212.271H110.748V211.716H114.101V212.271ZM118.063 215.477H117.437V212.652L115.468 215.477H114.895V211.716H115.522V214.5L117.471 211.716H118.063V215.477ZM122.844 215.477H122.016L120.454 213.753H120.11V215.477H119.477V211.716H120.11V213.339C120.319 213.339 120.487 213.302 120.615 213.228C120.743 213.151 120.852 213.03 120.942 212.864C120.973 212.803 121.004 212.739 121.033 212.672C121.064 212.603 121.094 212.536 121.124 212.473C121.24 212.22 121.386 212.03 121.561 211.904C121.736 211.779 121.988 211.716 122.315 211.716H122.605V212.261H122.326C122.148 212.261 122.009 212.3 121.908 212.376C121.809 212.45 121.72 212.581 121.639 212.77C121.549 212.981 121.454 213.139 121.353 213.244C121.254 213.348 121.148 213.426 121.036 213.48L122.844 215.477Z" fill="#46474E" style="fill:#46474E;fill:color(display-p3 0.2745 0.2784 0.3059);fill-opacity:1;"/>
<g clip-path="url(#clip2_407_903)">
<path d="M74.2125 336.508C71.3121 336.508 69.2404 338.802 69.2112 341.656C69.1821 344.482 71.4183 346.868 74.2333 346.844C76.9609 346.844 79.2345 344.489 79.1971 341.65C79.1596 338.827 77.1004 336.51 74.2125 336.51V336.508ZM74.225 345.009C72.3615 344.982 71.1018 343.233 71.1226 341.618C71.1413 340.1 72.3469 338.345 74.2 338.342C75.9677 338.34 77.3231 340.005 77.2794 341.677C77.3919 343.093 76.0426 345.038 74.2229 345.011L74.225 345.009Z" fill="#8F8F92" style="fill:#8F8F92;fill:color(display-p3 0.5613 0.5625 0.5708);fill-opacity:1;"/>
<path d="M85.5797 336.508C82.6793 336.508 80.6076 338.802 80.5784 341.656C80.5493 344.482 82.7854 346.868 85.6005 346.844C88.328 346.844 90.6017 344.489 90.5642 341.65C90.5268 338.827 88.4675 336.51 85.5797 336.51V336.508ZM85.5921 345.009C83.7286 344.982 82.469 343.233 82.4898 341.618C82.5085 340.1 83.7141 338.345 85.5672 338.342C87.3349 338.34 88.6903 340.005 88.6466 341.677C88.759 343.093 87.4098 345.038 85.5901 345.011L85.5921 345.009Z" fill="#8F8F92" style="fill:#8F8F92;fill:color(display-p3 0.5613 0.5625 0.5708);fill-opacity:1;"/>
<path d="M91.9119 343.458C91.9119 344.175 91.9119 344.89 91.9119 345.607C91.9119 346.017 91.9119 346.426 91.9119 346.838C91.9119 346.967 91.9557 347.019 92.0764 346.998C92.218 346.973 92.3596 346.955 92.4949 346.903C93.3069 346.591 93.8316 345.788 93.8316 344.849C93.8316 343.413 93.8462 341.974 93.8254 340.538C93.8129 339.721 94.3772 338.592 95.437 338.459C96.0762 338.377 96.6279 338.581 97.061 339.112C97.4129 339.545 97.5649 340.049 97.5607 340.63C97.5482 342.076 97.5566 343.524 97.5566 344.971C97.5566 345.098 97.5503 345.227 97.5815 345.351C97.8043 346.238 98.4019 346.892 99.2868 346.998C99.4284 347.016 99.4554 346.992 99.4554 346.833C99.4554 346.338 99.4554 345.845 99.4554 345.349C99.4554 343.739 99.4554 342.126 99.4554 340.515C99.4554 339.671 100.047 338.678 100.942 338.481C102.204 338.203 103.207 339.359 103.191 340.456C103.172 341.897 103.199 343.34 103.18 344.781C103.172 345.383 103.343 345.892 103.703 346.333C104.038 346.743 104.469 346.955 104.969 347.001C105.056 347.01 105.104 346.969 105.096 346.872C105.079 346.702 105.102 346.532 105.102 346.363C105.102 344.478 105.104 342.592 105.102 340.707C105.102 340.438 105.108 340.167 105.067 339.904C104.898 338.83 104.415 337.932 103.645 337.251C102.843 336.54 101.91 336.242 100.863 336.384C99.9635 336.506 99.216 336.934 98.583 337.624C98.5206 337.692 98.4852 337.696 98.4269 337.626C98.1895 337.339 97.9043 337.12 97.6003 336.923C96.7008 336.341 95.7368 336.199 94.7332 336.491C93.9191 336.726 93.2403 337.208 92.7364 337.959C92.218 338.732 91.8807 339.563 91.9078 340.549C91.9328 341.519 91.914 342.49 91.914 343.46L91.9119 343.458Z" fill="#8F8F92" style="fill:#8F8F92;fill:color(display-p3 0.5613 0.5625 0.5708);fill-opacity:1;"/>
<path d="M65.4744 346.944C66.5342 346.924 67.823 346.974 69.1118 346.922C69.2992 346.915 69.3263 346.886 69.293 346.684C69.1868 346.04 68.8932 345.528 68.381 345.171C68.0083 344.911 67.5877 344.841 67.1609 344.838C65.82 344.829 64.4812 344.836 63.1403 344.836C63.0883 344.836 63.0362 344.836 62.9842 344.836C62.955 344.836 62.9196 344.843 62.905 344.802C62.8925 344.764 62.9196 344.739 62.9425 344.718C63.0779 344.601 63.1882 344.451 63.309 344.318C64.9164 342.567 66.5258 340.816 68.1353 339.065C68.2623 338.927 68.3768 338.78 68.4726 338.617C68.8537 337.968 68.7266 337.199 68.1666 336.728C67.8771 336.484 67.544 336.407 67.19 336.407C64.8831 336.405 62.5761 336.407 60.2691 336.407C60.1088 336.407 60.0775 336.437 60.1004 336.604C60.1837 337.204 60.4461 337.694 60.8896 338.063C61.2747 338.384 61.7266 338.486 62.1992 338.488C63.3881 338.493 64.5749 338.488 65.7638 338.491C65.8117 338.491 65.8825 338.461 65.9054 338.525C65.9241 338.577 65.8637 338.611 65.8304 338.647C65.0038 339.547 64.1751 340.445 63.3465 341.346C62.4386 342.332 61.5308 343.316 60.623 344.304C60.344 344.608 60.1233 344.954 60.0983 345.395C60.0588 346.071 60.4919 346.691 61.1019 346.863C61.3206 346.924 61.5454 346.947 61.7724 346.947C62.93 346.947 64.0877 346.947 65.4723 346.947L65.4744 346.944Z" fill="#8F8F92" style="fill:#8F8F92;fill:color(display-p3 0.5613 0.5625 0.5708);fill-opacity:1;"/>
</g>
<path d="M75.3313 152.088C75.3313 153.717 74.0141 155.034 72.3844 155.034C70.7547 155.034 69.4375 153.717 69.4375 152.088C69.4375 150.458 70.7547 149.141 72.3844 149.141C74.0141 149.141 75.3313 150.458 75.3313 152.088Z" fill="#61C454" style="fill:#61C454;fill:color(display-p3 0.3804 0.7686 0.3294);fill-opacity:1;"/>
<path d="M57.4875 152.088C57.4875 153.717 56.1703 155.034 54.5406 155.034C52.911 155.034 51.5938 153.717 51.5938 152.088C51.5938 150.458 52.911 149.141 54.5406 149.141C56.1703 149.141 57.4875 150.458 57.4875 152.088Z" fill="#ED695E" style="fill:#ED695E;fill:color(display-p3 0.9294 0.4118 0.3686);fill-opacity:1;"/>
<path d="M66.05 152.088C66.05 153.717 64.7328 155.034 63.1031 155.034C61.4735 155.034 60.1562 153.717 60.1562 152.088C60.1562 150.458 61.4735 149.141 63.1031 149.141C64.7328 149.141 66.05 150.458 66.05 152.088Z" fill="#F5BF4F" style="fill:#F5BF4F;fill:color(display-p3 0.9608 0.7490 0.3098);fill-opacity:1;"/>
<path d="M262.718 233.609C262.718 233.609 275.297 239.739 279.723 255.571C284.148 271.403 297.68 312.632 297.68 312.632C297.68 312.632 305.413 321.729 306.247 328.463C307.08 335.198 305.422 351.497 302.93 354.538C300.447 357.58 296.901 357.076 296.901 357.076L264.349 353.989L251.531 268.159L262.727 233.609H262.718Z" fill="#46474E" style="fill:#46474E;fill:color(display-p3 0.2745 0.2784 0.3059);fill-opacity:1;"/>
<path d="M155.071 232.113C155.071 232.113 131.8 239.415 126 245.764L145.057 334.425L144.755 362.396H255.102C255.102 361.013 256.091 269.521 256.091 269.521L262.715 233.615L223.493 226.707L215.76 220.633L172.121 222.841L165.497 229.474L155.08 232.113H155.071Z" fill="#46474E" style="fill:#46474E;fill:color(display-p3 0.2745 0.2784 0.3059);fill-opacity:1;"/>
<g clip-path="url(#clip3_407_903)">
<path d="M225.416 275.865L223.575 277.841L223.375 282.167L219.857 282.044L220.569 266.6L224.087 266.722L223.809 272.752L229.136 266.898L233.296 267.042L227.869 273.137L232.848 282.488L228.729 282.345L225.408 275.856L225.416 275.865Z" fill="#F3F0F0" style="fill:#F3F0F0;fill:color(display-p3 0.9529 0.9412 0.9412);fill-opacity:1;"/>
<path d="M243.786 281.828C243.356 282.098 242.897 282.318 242.415 282.488C241.966 282.651 241.496 282.757 241.027 282.821C239.888 282.977 238.737 282.88 237.653 282.525C236.973 282.315 236.337 281.992 235.771 281.566C235.212 281.148 234.764 280.604 234.439 279.983C234.094 279.296 233.945 278.527 233.996 277.756L234.262 271.994C234.281 271.222 234.493 270.466 234.885 269.796C235.25 269.191 235.748 268.664 236.328 268.262C236.925 267.851 237.589 267.549 238.287 267.379C238.994 267.192 239.729 267.112 240.466 267.137C241.38 267.169 242.287 267.339 243.157 267.621C243.98 267.869 244.738 268.31 245.369 268.901L243.535 271.601C243.097 271.18 242.558 270.86 241.972 270.685C241.457 270.529 240.932 270.438 240.403 270.419C240.106 270.409 239.808 270.447 239.515 270.527C239.214 270.606 238.936 270.734 238.678 270.912C238.413 271.098 238.193 271.342 238.035 271.629C237.851 271.981 237.753 272.359 237.751 272.758L237.549 277.124C237.515 277.513 237.577 277.905 237.721 278.268C237.844 278.557 238.025 278.823 238.264 279.027C238.488 279.221 238.746 279.369 239.031 279.468C239.307 279.567 239.601 279.626 239.898 279.636C240.178 279.646 240.461 279.615 240.736 279.552C241.037 279.481 241.324 279.344 241.565 279.158L241.661 277.072L239.562 276.999L239.7 273.996L245.318 274.191L245.013 280.806C244.665 281.217 244.248 281.568 243.793 281.845L243.786 281.828Z" fill="#F3F0F0" style="fill:#F3F0F0;fill:color(display-p3 0.9529 0.9412 0.9412);fill-opacity:1;"/>
<path d="M244.485 288.027L219.568 287.16L219.412 290.55L244.329 291.417L244.485 288.027Z" fill="#F3F0F0" style="fill:#F3F0F0;fill:color(display-p3 0.9529 0.9412 0.9412);fill-opacity:1;"/>
</g>
<path d="M125.989 245.773C125.989 245.773 118.321 256.227 115.132 263.053C111.944 269.879 85.5574 327.196 83.9724 333.115C82.3782 339.024 78.2828 357.678 90.34 362.002H115.132L140.016 311.676L141.29 253.268L125.98 245.773H125.989Z" fill="#46474E" style="fill:#46474E;fill:color(display-p3 0.2745 0.2784 0.3059);fill-opacity:1;"/>
<path d="M116.729 325.65C116.729 325.65 116.179 325.165 115.034 324.514C113.898 323.873 112.121 323.131 109.83 322.627C108.685 322.38 107.411 322.178 106.037 322.095C104.663 322.013 103.188 322.031 101.685 322.38C98.68 323.048 95.6841 324.945 93.3386 327.62C90.9565 330.286 89.4814 333.438 88.611 336.407C87.7315 339.384 87.3558 342.179 87.1176 344.515C86.8886 346.86 86.7969 348.766 86.7145 350.085C86.6778 350.699 86.6412 351.203 86.6229 351.606C86.5954 351.954 86.5771 352.138 86.5587 352.138C86.5404 352.138 86.5312 351.954 86.5312 351.606C86.5312 351.203 86.5312 350.699 86.5312 350.085C86.5587 348.766 86.5954 346.851 86.7786 344.487C86.971 342.133 87.3192 339.311 88.1804 336.287C89.0325 333.273 90.5259 330.03 92.9721 327.309C95.3726 324.578 98.4602 322.627 101.584 321.958C103.142 321.61 104.663 321.601 106.055 321.711C107.448 321.811 108.74 322.031 109.894 322.306C112.212 322.856 113.99 323.653 115.117 324.358C115.676 324.716 116.088 325.036 116.344 325.266C116.601 325.504 116.729 325.641 116.711 325.65H116.729Z" fill="#8F8F92" style="fill:#8F8F92;fill:color(display-p3 0.5613 0.5625 0.5708);fill-opacity:1;"/>
<path d="M104.977 315.627C104.977 315.627 105.27 315.545 105.81 315.49C106.351 315.426 107.139 315.407 108.11 315.462C109.081 315.508 110.236 315.673 111.491 315.966C112.737 316.278 114.093 316.736 115.44 317.368C116.777 318.018 117.987 318.779 119.013 319.558C120.03 320.355 120.882 321.143 121.532 321.876C122.183 322.599 122.668 323.222 122.952 323.681C123.246 324.139 123.401 324.395 123.374 324.414C123.301 324.468 122.632 323.47 121.285 322.105C120.616 321.418 119.755 320.666 118.747 319.915C117.721 319.173 116.539 318.44 115.229 317.808C113.91 317.185 112.599 316.736 111.381 316.406C110.153 316.094 109.035 315.902 108.082 315.82C106.177 315.636 104.986 315.737 104.977 315.645V315.627Z" fill="#8F8F92" style="fill:#8F8F92;fill:color(display-p3 0.5613 0.5625 0.5708);fill-opacity:1;"/>
<path d="M127.389 312.863C127.389 312.863 126.977 312.863 126.244 312.771C125.511 312.68 124.448 312.57 123.138 312.469C120.517 312.267 116.871 312.222 112.876 312.698C108.891 313.184 105.354 314.091 102.853 314.897C101.598 315.3 100.59 315.657 99.903 315.923C99.2158 316.18 98.8218 316.308 98.8127 316.28C98.8035 316.253 99.1608 316.06 99.8388 315.749C100.508 315.428 101.506 315.025 102.752 314.576C105.244 313.678 108.799 312.707 112.831 312.222C116.853 311.745 120.545 311.846 123.174 312.13C124.494 312.267 125.557 312.432 126.28 312.579C127.004 312.726 127.407 312.817 127.398 312.854L127.389 312.863Z" fill="#8F8F92" style="fill:#8F8F92;fill:color(display-p3 0.5613 0.5625 0.5708);fill-opacity:1;"/>
<path d="M198.012 263.892C198.012 263.892 197.911 263.8 197.755 263.59C197.581 263.351 197.352 263.058 197.077 262.683C196.473 261.84 195.63 260.676 194.585 259.228C192.441 256.205 189.464 252 185.945 247.043L186.33 246.988C184.993 250.909 183.517 255.243 181.969 259.797L181.868 260.09L181.621 259.925C181.456 259.824 181.282 259.705 181.108 259.595C179.056 258.294 177.251 256.727 175.711 255.032C174.181 253.328 172.908 251.514 171.854 249.7C169.747 246.063 168.473 242.48 167.612 239.448C166.751 236.406 166.311 233.877 166.009 232.146C165.862 231.312 165.752 230.652 165.661 230.148C165.615 229.919 165.569 229.754 165.542 229.635C165.496 229.525 165.478 229.47 165.487 229.47C165.587 229.425 165.853 230.387 166.192 232.118C166.549 233.841 167.044 236.351 167.942 239.365C168.84 242.37 170.132 245.916 172.239 249.489C173.293 251.276 174.548 253.053 176.06 254.73C177.571 256.388 179.358 257.918 181.364 259.201C181.538 259.311 181.713 259.421 181.868 259.522L181.52 259.65C183.087 255.096 184.571 250.772 185.918 246.86L186.055 246.447L186.303 246.805C189.757 251.798 192.689 256.04 194.796 259.091C195.804 260.566 196.601 261.757 197.187 262.618C197.444 263.003 197.645 263.315 197.81 263.562C197.948 263.782 198.021 263.901 198.003 263.901L198.012 263.892Z" fill="#8F8F92" style="fill:#8F8F92;fill:color(display-p3 0.5613 0.5625 0.5708);fill-opacity:1;"/>
<path d="M225.699 294.239C225.699 294.239 221.686 295.347 224.7 303.566C227.705 311.775 228.713 311.28 230.711 318.958C232.717 326.645 235.053 333.653 238.562 337.987C242.071 342.33 255.1 351.18 255.1 351.18L266.79 340.159C266.79 340.159 264.866 331.94 265.325 326.37C265.783 320.799 266.955 307.093 266.79 304.757C266.626 302.42 264.115 296.74 264.115 296.74V292.855L258.105 274.357C258.105 274.357 254.761 272.855 253.597 278.196L251.591 272.525C251.591 272.525 248.421 272.021 247.578 278.526C246.744 285.04 248.247 294.055 248.247 294.055L246.579 305.407L244.078 313.094L241.906 313.424C241.906 313.424 238.636 312.535 236.849 306.378C235.062 300.231 230.216 292.883 225.708 294.22L225.699 294.239Z" fill="#DDC399" style="fill:#DDC399;fill:color(display-p3 0.8667 0.7647 0.6000);fill-opacity:1;"/>
<path d="M262.866 323.282C262.866 323.282 262.839 323.136 262.811 322.861C262.793 322.54 262.766 322.137 262.729 321.633C262.665 320.515 262.582 318.967 262.482 317.034C262.298 313.048 262.051 307.496 261.758 301.019L261.813 301.156C261.281 300.515 260.319 300.322 259.449 300.542C258.569 300.753 257.772 301.303 257.287 302.127C256.27 303.767 256.215 305.911 255.894 307.982C255.262 312.664 254.657 317.116 254.108 321.184C253.833 323.209 253.539 325.142 253.136 326.929C252.752 328.715 252.211 330.346 251.689 331.803C251.176 333.26 250.718 334.579 250.434 335.77C250.15 336.961 250.03 338.006 250.058 338.867C250.095 340.589 250.598 341.469 250.525 341.487C250.507 341.487 250.415 341.277 250.241 340.846C250.104 340.406 249.911 339.747 249.875 338.876C249.82 338.006 249.911 336.925 250.177 335.715C250.443 334.506 250.882 333.168 251.377 331.702C251.881 330.236 252.394 328.633 252.761 326.856C253.136 325.087 253.411 323.163 253.677 321.139C254.217 317.08 254.804 312.618 255.427 307.936C255.573 306.892 255.683 305.865 255.867 304.83C256.05 303.813 256.334 302.778 256.893 301.898C257.424 301 258.359 300.341 259.348 300.112C260.329 299.864 261.492 300.084 262.161 300.891L262.207 300.955V301.028C262.436 307.505 262.619 313.058 262.756 317.052C262.802 318.985 262.848 320.534 262.876 321.661C262.876 322.165 262.885 322.568 262.885 322.888C262.885 323.163 262.885 323.31 262.866 323.31V323.282Z" fill="#46474E" style="fill:#46474E;fill:color(display-p3 0.2745 0.2784 0.3059);fill-opacity:1;"/>
<path d="M256.469 302.239C256.469 302.239 256.258 301.881 255.974 301.194C255.699 300.507 255.333 299.49 254.994 298.198C254.655 296.916 254.334 295.349 254.151 293.599C254.059 292.719 253.995 291.785 254.105 290.814C254.206 289.843 254.49 288.816 255.113 287.955C255.644 287.204 256.395 286.599 257.247 286.352L257.431 286.297L257.522 286.462C259.217 289.449 260.683 292.087 261.718 293.984C262.195 294.872 262.589 295.624 262.919 296.228C263.194 296.76 263.331 297.053 263.303 297.071C263.276 297.09 263.093 296.815 262.772 296.311C262.415 295.725 261.975 295.001 261.453 294.14C260.344 292.289 258.823 289.678 257.119 286.7L257.394 286.81C256.661 287.03 255.992 287.552 255.516 288.239C254.957 289.027 254.682 289.962 254.581 290.878C254.48 291.803 254.526 292.71 254.6 293.571C254.755 295.303 255.03 296.851 255.333 298.134C255.626 299.417 255.937 300.443 256.157 301.148C256.377 301.854 256.505 302.239 256.478 302.257L256.469 302.239Z" fill="#46474E" style="fill:#46474E;fill:color(display-p3 0.2745 0.2784 0.3059);fill-opacity:1;"/>
<path d="M253.685 303.737C253.685 303.737 253.611 303.362 253.575 302.675C253.538 301.887 253.501 300.916 253.455 299.77C253.373 297.315 253.3 293.925 253.245 290.178C253.217 286.44 253.071 283.031 253.391 280.567C253.547 279.339 253.794 278.359 254.014 277.708C254.234 277.049 254.417 276.719 254.445 276.719C254.527 276.746 253.932 278.166 253.721 280.603C253.492 283.031 253.685 286.421 253.721 290.178C253.776 293.925 253.794 297.315 253.794 299.77C253.785 300.916 253.767 301.896 253.758 302.675C253.74 303.362 253.712 303.747 253.685 303.747V303.737Z" fill="#46474E" style="fill:#46474E;fill:color(display-p3 0.2745 0.2784 0.3059);fill-opacity:1;"/>
<path d="M243.79 334.526C243.726 334.471 244.459 333.61 245.357 332.053C245.815 331.274 246.282 330.312 246.713 329.203C247.125 328.086 247.501 326.83 247.758 325.484C247.996 324.128 248.078 322.827 248.078 321.635C248.06 320.444 247.959 319.372 247.803 318.493C247.501 316.716 247.116 315.653 247.199 315.625C247.226 315.616 247.345 315.873 247.528 316.349C247.721 316.825 247.932 317.54 248.133 318.429C248.335 319.327 248.472 320.417 248.518 321.626C248.545 322.845 248.463 324.183 248.225 325.566C247.968 326.949 247.574 328.232 247.125 329.359C246.658 330.486 246.145 331.457 245.641 332.227C245.146 332.996 244.697 333.592 244.349 333.968C244.01 334.352 243.809 334.554 243.781 334.526H243.79Z" fill="#46474E" style="fill:#46474E;fill:color(display-p3 0.2745 0.2784 0.3059);fill-opacity:1;"/>
<path d="M264.321 328.79L274.464 332.309C274.464 332.309 284.148 327.297 290.827 332.309C297.506 337.32 303.305 350.523 301.473 355.864C301.473 355.864 296.865 361.554 293.356 362.387C289.847 363.221 276.213 359.923 270.542 358.723C264.853 357.522 255.086 351.173 255.086 351.173L264.312 328.781L264.321 328.79Z" fill="#DDC399" style="fill:#DDC399;fill:color(display-p3 0.8667 0.7647 0.6000);fill-opacity:1;"/>
<path d="M265.561 343.737C265.561 343.737 265.488 343.416 265.451 342.839C265.415 342.152 265.36 341.337 265.305 340.393C265.195 338.322 265.057 335.464 265.012 332.294C264.966 329.124 265.057 326.256 265.25 324.185C265.341 323.15 265.451 322.316 265.552 321.739C265.653 321.171 265.726 320.85 265.763 320.86C265.836 320.869 265.68 322.142 265.58 324.204C265.479 326.265 265.442 329.124 265.488 332.285C265.543 335.381 265.598 338.185 265.635 340.375C265.644 341.41 265.644 342.253 265.635 342.83C265.616 343.407 265.589 343.728 265.561 343.728V343.737Z" fill="#46474E" style="fill:#46474E;fill:color(display-p3 0.2745 0.2784 0.3059);fill-opacity:1;"/>
<path d="M299.013 331.915C298.94 331.988 297.896 330.54 295.642 328.873C293.416 327.205 289.806 325.428 285.536 325.19C281.258 324.961 277.474 326.326 275.082 327.737C272.654 329.148 271.463 330.467 271.399 330.384C271.381 330.366 271.665 330.027 272.233 329.477C272.801 328.928 273.699 328.195 274.908 327.443C277.3 325.932 281.166 324.475 285.564 324.713C289.961 324.961 293.645 326.839 295.853 328.598C296.97 329.477 297.786 330.302 298.29 330.916C298.803 331.521 299.041 331.896 299.023 331.905L299.013 331.915Z" fill="#8F8F92" style="fill:#8F8F92;fill:color(display-p3 0.5613 0.5625 0.5708);fill-opacity:1;"/>
<path d="M297.714 323.458C297.65 323.559 296.294 322.185 293.49 321.131C290.733 320.05 286.454 319.555 282.065 320.792C279.876 321.406 277.869 322.277 276.156 323.248C274.443 324.228 273.013 325.3 271.877 326.271C270.741 327.242 269.871 328.094 269.266 328.681C268.671 329.267 268.341 329.597 268.313 329.579C268.295 329.56 268.579 329.194 269.129 328.553C269.688 327.92 270.521 327.032 271.648 326.015C272.766 324.998 274.195 323.88 275.927 322.863C277.659 321.855 279.693 320.948 281.928 320.325C286.427 319.061 290.815 319.629 293.6 320.811C295.011 321.388 296.056 322.057 296.725 322.57C297.073 322.817 297.302 323.055 297.467 323.202C297.632 323.349 297.714 323.44 297.696 323.449L297.714 323.458Z" fill="#8F8F92" style="fill:#8F8F92;fill:color(display-p3 0.5613 0.5625 0.5708);fill-opacity:1;"/>
<path d="M297.799 316.136C297.771 316.228 296.003 315.687 293.053 315.293C291.578 315.082 289.809 314.963 287.849 314.963C285.888 314.991 283.735 315.156 281.499 315.531C279.273 315.934 277.193 316.521 275.333 317.162C273.492 317.831 271.87 318.546 270.56 319.251C267.93 320.634 266.446 321.743 266.391 321.67C266.373 321.642 266.73 321.358 267.408 320.854C267.738 320.598 268.16 320.305 268.673 319.993C269.177 319.682 269.745 319.297 270.404 318.949C271.705 318.207 273.336 317.446 275.187 316.75C277.056 316.081 279.163 315.476 281.417 315.064C283.68 314.679 285.861 314.533 287.849 314.523C289.837 314.551 291.614 314.707 293.098 314.963C293.841 315.055 294.5 315.229 295.087 315.348C295.673 315.467 296.168 315.605 296.562 315.724C297.368 315.962 297.808 316.108 297.799 316.136Z" fill="#8F8F92" style="fill:#8F8F92;fill:color(display-p3 0.5613 0.5625 0.5708);fill-opacity:1;"/>
<path d="M220.073 226.406C220.073 226.406 220.541 227.286 220.779 229.1C221.026 230.905 220.99 233.617 220.394 236.97C220.092 238.647 219.689 240.488 219.084 242.458C218.452 244.428 217.499 246.444 216.418 248.551C214.228 252.765 211.48 257.355 208.3 262.257L207.925 262.825V262.138C207.925 259.045 207.916 255.8 207.908 252.429C205.511 254.36 203.011 256.38 200.437 258.46L199.758 259.008C197.791 265.276 196.489 272.252 195.977 279.509C195.203 289.861 195.785 308.554 195.882 310.809C195.89 310.952 195.895 311.026 195.895 311.026C195.894 311.059 195.89 310.983 195.882 310.809C195.753 308.595 194.709 289.991 195.492 279.482C196.014 272.17 197.333 265.134 199.331 258.812L199.349 258.748L199.404 258.702C202.22 256.436 204.961 254.236 207.58 252.133L207.98 251.812L208.337 251.528V251.987C208.337 255.262 208.329 258.428 208.321 261.46C214.441 251.949 219.375 243.667 220.147 236.943C220.779 233.617 220.852 230.923 220.642 229.127C220.55 228.22 220.376 227.551 220.266 227.093C220.119 226.644 220.064 226.415 220.064 226.415L220.073 226.406Z" fill="#8F8F92" style="fill:#8F8F92;fill:color(display-p3 0.5613 0.5625 0.5708);fill-opacity:1;"/>
<path d="M203.075 303.172H202.772C201.553 303.197 200.469 304.308 200.469 305.528C200.469 306.748 201.545 307.867 202.756 307.909C203.975 307.951 205.127 306.908 205.202 305.696C205.286 304.476 204.277 303.298 203.067 303.172H203.075Z" fill="#65666D" style="fill:#65666D;fill:color(display-p3 0.3952 0.3994 0.4292);fill-opacity:1;"/>
<path d="M203.083 286.578H202.78C201.561 286.603 200.477 287.714 200.477 288.934C200.477 290.154 201.553 291.273 202.763 291.315C203.983 291.357 205.134 290.314 205.21 289.102C205.294 287.891 204.285 286.704 203.075 286.578H203.083Z" fill="#65666D" style="fill:#65666D;fill:color(display-p3 0.3952 0.3994 0.4292);fill-opacity:1;"/>
<path d="M202.768 277.097C203.985 277.139 205.135 276.096 205.211 274.884C205.287 273.672 204.288 272.485 203.079 272.367H202.777C201.559 272.392 200.477 273.503 200.477 274.724C200.477 275.944 201.551 277.064 202.76 277.106L202.768 277.097Z" fill="#65666D" style="fill:#65666D;fill:color(display-p3 0.3952 0.3994 0.4292);fill-opacity:1;"/>
<path d="M214.482 233.556C213.777 228.095 213.2 223.542 213.163 222.974C213.163 222.974 231.414 218.869 230.406 200.417C229.92 191.493 227.419 173.206 224.973 156.687C222.343 138.949 206.511 126.214 188.609 127.405L186.831 127.524C167.719 129.925 159.089 147.507 162.021 166.536L172.337 230.368C172.337 230.368 176.735 244.486 186.153 246.933L198.027 263.901L199.988 256.598L208.838 248.893C208.838 248.893 210.872 246.694 213.2 242.397C215.105 238.879 214.702 235.269 214.473 233.556H214.482Z" fill="#DDC399" style="fill:#DDC399;fill:color(display-p3 0.8667 0.7647 0.6000);fill-opacity:1;"/>
<path d="M213.171 222.699C213.171 222.699 201.581 224.431 188.672 217.477C188.672 217.477 195.241 230.367 213.528 227.472L213.171 222.699Z" fill="#46474E" style="fill:#46474E;fill:color(display-p3 0.2745 0.2784 0.3059);fill-opacity:1;"/>
<path d="M219.05 172.538C219.196 173.921 218.133 175.186 216.686 175.369C215.238 175.543 213.956 174.563 213.809 173.179C213.671 171.796 214.725 170.522 216.164 170.348C217.611 170.174 218.894 171.154 219.04 172.547L219.05 172.538Z" fill="#46474E" style="fill:#46474E;fill:color(display-p3 0.2745 0.2784 0.3059);fill-opacity:1;"/>
<path d="M221.628 165.995C221.325 166.362 219.227 165.015 216.396 165.217C213.565 165.372 211.577 166.967 211.247 166.646C211.082 166.499 211.375 165.858 212.237 165.143C213.079 164.429 214.564 163.687 216.323 163.577C218.091 163.467 219.621 164.016 220.519 164.63C221.435 165.244 221.774 165.84 221.618 166.005L221.628 165.995Z" fill="#46474E" style="fill:#46474E;fill:color(display-p3 0.2745 0.2784 0.3059);fill-opacity:1;"/>
<path d="M192.262 174.46C192.399 175.843 191.346 177.108 189.898 177.291C188.451 177.465 187.168 176.485 187.021 175.101C186.875 173.718 187.938 172.444 189.385 172.27C190.833 172.096 192.115 173.076 192.262 174.469V174.46Z" fill="#46474E" style="fill:#46474E;fill:color(display-p3 0.2745 0.2784 0.3059);fill-opacity:1;"/>
<path d="M193.799 168.394C193.497 168.76 191.399 167.413 188.568 167.615C185.737 167.771 183.749 169.365 183.419 169.044C183.254 168.898 183.547 168.256 184.408 167.542C185.251 166.827 186.736 166.085 188.495 165.975C190.263 165.865 191.793 166.415 192.691 167.029C193.607 167.643 193.946 168.238 193.79 168.403L193.799 168.394Z" fill="#46474E" style="fill:#46474E;fill:color(display-p3 0.2745 0.2784 0.3059);fill-opacity:1;"/>
<path d="M205.496 188.718C205.469 188.553 207.209 188.131 210.04 187.582C210.764 187.463 211.433 187.27 211.525 186.766C211.662 186.235 211.305 185.474 210.902 184.65C210.105 182.946 209.271 181.159 208.391 179.281C204.891 171.631 202.308 165.327 202.619 165.19C202.931 165.052 206.009 171.136 209.509 178.786C210.352 180.674 211.158 182.469 211.928 184.192C212.258 184.998 212.789 185.896 212.496 187.004C212.34 187.554 211.836 187.985 211.378 188.141C210.92 188.315 210.517 188.351 210.16 188.397C207.301 188.745 205.514 188.874 205.496 188.718Z" fill="#46474E" style="fill:#46474E;fill:color(display-p3 0.2745 0.2784 0.3059);fill-opacity:1;"/>
<path d="M193.792 157.246C193.563 158.034 190.714 157.86 187.415 158.483C184.108 159.042 181.488 160.197 181.002 159.528C180.782 159.207 181.204 158.456 182.239 157.631C183.265 156.816 184.932 155.991 186.911 155.634C188.89 155.286 190.741 155.478 191.987 155.89C193.242 156.303 193.893 156.862 193.801 157.237L193.792 157.246Z" fill="#46474E" style="fill:#46474E;fill:color(display-p3 0.2745 0.2784 0.3059);fill-opacity:1;"/>
<path d="M220.044 157.875C219.586 158.553 217.589 158.012 215.243 158.14C212.889 158.186 210.937 158.864 210.433 158.223C210.213 157.911 210.479 157.242 211.304 156.574C212.119 155.905 213.521 155.318 215.133 155.254C216.746 155.199 218.184 155.685 219.045 156.29C219.916 156.894 220.237 157.545 220.035 157.865L220.044 157.875Z" fill="#46474E" style="fill:#46474E;fill:color(display-p3 0.2745 0.2784 0.3059);fill-opacity:1;"/>
<path d="M164.447 180.106C164.126 179.987 151.528 177.211 152.774 189.79C154.02 202.37 167.653 198.274 167.644 197.908C167.635 197.541 164.456 180.115 164.456 180.115L164.447 180.106Z" fill="#DDC399" style="fill:#DDC399;fill:color(display-p3 0.8667 0.7647 0.6000);fill-opacity:1;"/>
<path d="M162.07 193.771C162.006 193.734 161.868 193.945 161.511 194.156C161.163 194.357 160.558 194.531 159.88 194.348C158.506 193.991 157.177 191.994 156.884 189.731C156.737 188.585 156.875 187.477 157.186 186.533C157.48 185.571 158.011 184.875 158.671 184.691C159.321 184.472 159.834 184.829 160.027 185.168C160.228 185.507 160.173 185.763 160.246 185.773C160.283 185.8 160.494 185.534 160.347 185.021C160.274 184.774 160.091 184.499 159.779 184.279C159.449 184.059 159 183.986 158.533 184.078C157.571 184.243 156.783 185.223 156.435 186.258C156.032 187.303 155.858 188.558 156.023 189.841C156.353 192.369 157.892 194.614 159.761 194.953C160.668 195.1 161.383 194.761 161.731 194.422C162.088 194.073 162.125 193.78 162.079 193.762L162.07 193.771Z" fill="#46474E" style="fill:#46474E;fill:color(display-p3 0.2745 0.2784 0.3059);fill-opacity:1;"/>
<path d="M163.752 185.046C160.537 181.491 157.302 177.899 154.957 173.712C152.621 169.535 151.219 164.651 151.998 159.924C152.446 157.157 153.628 154.527 153.812 151.724C154.068 147.876 152.456 143.854 153.812 140.253C155.946 134.618 163.532 133.748 168.132 129.854C171.714 126.821 173.464 121.901 177.404 119.345C180.849 117.119 185.274 117.165 189.333 117.742C193.391 118.319 197.478 119.345 201.546 118.795C204.441 118.402 207.171 117.238 210.011 116.532C212.851 115.827 216.012 115.644 218.541 117.11C221.07 118.576 222.49 122.167 220.832 124.577C225.541 122.405 231.524 126.079 232.815 131.1C234.107 136.121 231.524 141.554 227.529 144.861C223.534 148.178 218.376 149.717 213.282 150.679C198.852 153.4 183.203 151.861 170.77 144.055" fill="#B18C5E" style="fill:#B18C5E;fill:color(display-p3 0.6941 0.5490 0.3686);fill-opacity:1;"/>
<path d="M224.053 139.506C223.191 144.517 213.031 149.098 204.611 148.86C196.851 148.631 193.012 144.783 187.368 142.044C184.986 140.889 182.182 140.575 178.957 141.1C175.045 141.741 173.011 146.359 170.812 149.666C174.999 158.801 173.313 169.42 171.536 179.315C171.344 180.405 171.096 181.587 170.263 182.32C168.852 183.566 166.552 182.824 165.159 181.55C162.933 179.507 161.916 176.493 161.192 173.561C159.525 166.891 158.893 159.9 159.946 153.102C161 146.304 163.813 139.707 168.458 134.632C174.257 128.291 182.741 124.636 191.326 124.196C199.911 123.756 208.532 126.413 215.715 131.123C219.05 133.303 222.165 136.006 224.053 139.524" fill="#B18C5E" style="fill:#B18C5E;fill:color(display-p3 0.6941 0.5490 0.3686);fill-opacity:1;"/>
<path d="M207.336 195.087C205.202 194.089 203.058 193.09 200.923 192.1C200.557 191.926 200.163 191.752 199.76 191.807C199.301 191.871 198.944 192.21 198.651 192.558C197.167 194.363 196.791 197.075 197.936 199.109C199.091 201.143 201.793 202.215 203.956 201.317C206.228 200.374 207.336 197.735 207.511 195.28L207.336 195.078V195.087Z" fill="#46474E" style="fill:#46474E;fill:color(display-p3 0.2745 0.2784 0.3059);fill-opacity:1;"/>
<path d="M204.167 201.781C204.185 201.836 203.873 202.02 203.232 202.157C202.6 202.276 201.61 202.322 200.474 201.955C199.347 201.589 198.074 200.719 197.286 199.308C196.489 197.933 196.196 196 196.892 194.25C197.222 193.38 197.744 192.61 198.376 192.006C198.697 191.703 199.027 191.447 199.421 191.218C199.622 191.108 199.87 190.998 200.163 190.979C200.447 190.961 200.703 191.034 200.905 191.126C201.326 191.309 201.592 191.511 201.904 191.694C202.206 191.877 202.49 192.06 202.774 192.235C203.324 192.583 203.846 192.903 204.332 193.215C206.237 194.424 207.373 195.231 207.309 195.34C207.245 195.45 205.981 194.855 203.993 193.801C203.489 193.526 202.948 193.233 202.371 192.922C202.078 192.757 201.784 192.592 201.473 192.427C201.171 192.262 200.832 192.051 200.566 191.951C200.273 191.85 200.144 191.859 199.86 192.015C199.586 192.189 199.274 192.427 199.018 192.684C198.486 193.206 198.056 193.856 197.772 194.598C197.185 196.073 197.396 197.677 198.046 198.895C198.688 200.123 199.723 200.929 200.694 201.332C201.675 201.745 202.572 201.8 203.177 201.8C203.791 201.781 204.13 201.726 204.157 201.8L204.167 201.781Z" fill="#46474E" style="fill:#46474E;fill:color(display-p3 0.2745 0.2784 0.3059);fill-opacity:1;"/>
<path d="M202.138 172.86C202.065 172.86 202.148 171.687 201.635 169.672C201.131 167.702 199.811 164.797 196.843 162.553C195.368 161.453 193.517 160.528 191.382 160.152C189.257 159.795 186.865 159.859 184.593 160.729C183.448 161.133 182.339 161.728 181.332 162.489C180.305 163.231 179.371 164.156 178.601 165.228C177.016 167.344 176.118 170.056 176.091 172.851C176.118 175.645 177.007 178.366 178.601 180.483C179.371 181.555 180.305 182.48 181.332 183.222C182.349 183.983 183.448 184.587 184.593 184.981C186.865 185.852 189.266 185.916 191.382 185.558C193.517 185.183 195.368 184.257 196.843 183.158C199.811 180.913 201.131 178.009 201.635 176.039C202.148 174.024 202.065 172.851 202.138 172.851C202.138 172.851 202.148 172.924 202.157 173.062C202.157 173.236 202.157 173.437 202.157 173.685C202.157 173.959 202.138 174.298 202.074 174.702C202.019 175.105 201.974 175.572 201.827 176.076C201.616 177.102 201.149 178.33 200.407 179.622C199.656 180.913 198.565 182.269 197.063 183.424C195.569 184.569 193.673 185.54 191.474 185.943C189.293 186.328 186.82 186.273 184.465 185.394C183.274 184.981 182.129 184.367 181.075 183.579C180.012 182.81 179.041 181.857 178.244 180.748C176.595 178.568 175.66 175.746 175.633 172.842C175.66 169.946 176.595 167.125 178.244 164.944C179.041 163.835 180.012 162.883 181.075 162.113C182.129 161.334 183.274 160.711 184.465 160.299C186.829 159.41 189.293 159.355 191.474 159.749C193.673 160.152 195.569 161.133 197.063 162.269C198.565 163.423 199.656 164.779 200.407 166.071C201.149 167.372 201.616 168.59 201.827 169.617C201.974 170.121 202.019 170.588 202.074 170.991C202.138 171.394 202.157 171.733 202.157 172.008C202.157 172.255 202.157 172.466 202.157 172.631C202.157 172.778 202.157 172.851 202.138 172.851V172.86Z" fill="#46474E" style="fill:#46474E;fill:color(display-p3 0.2745 0.2784 0.3059);fill-opacity:1;"/>
<path d="M233.518 171.624C233.445 171.624 233.518 170.479 233.023 168.518C232.528 166.594 231.246 163.763 228.35 161.583C226.921 160.511 225.116 159.604 223.037 159.247C220.966 158.898 218.639 158.963 216.422 159.815C215.304 160.199 214.232 160.795 213.242 161.528C212.244 162.252 211.337 163.159 210.585 164.203C209.037 166.265 208.167 168.903 208.139 171.634C208.167 174.364 209.037 177.002 210.585 179.064C211.337 180.108 212.244 181.006 213.242 181.739C214.232 182.481 215.304 183.068 216.422 183.453C218.639 184.295 220.966 184.369 223.037 184.021C225.116 183.654 226.921 182.747 228.35 181.684C231.246 179.495 232.528 176.673 233.023 174.749C233.518 172.788 233.435 171.643 233.509 171.643C233.527 171.643 233.527 171.927 233.509 172.458C233.509 172.724 233.5 173.063 233.435 173.448C233.38 173.842 233.335 174.291 233.197 174.785C232.757 176.746 231.493 179.669 228.552 181.95C227.095 183.068 225.245 184.021 223.101 184.405C220.975 184.781 218.565 184.726 216.266 183.865C215.111 183.471 213.994 182.866 212.968 182.097C211.932 181.345 210.989 180.411 210.21 179.339C208.597 177.213 207.69 174.465 207.672 171.634C207.699 168.803 208.606 166.063 210.21 163.928C210.989 162.847 211.932 161.913 212.968 161.171C213.994 160.41 215.111 159.805 216.266 159.402C218.565 158.541 220.975 158.486 223.101 158.862C225.245 159.256 227.095 160.209 228.552 161.317C231.493 163.598 232.748 166.512 233.197 168.482C233.335 168.977 233.38 169.426 233.435 169.819C233.5 170.213 233.518 170.543 233.509 170.809C233.527 171.35 233.518 171.624 233.509 171.624H233.518Z" fill="#46474E" style="fill:#46474E;fill:color(display-p3 0.2745 0.2784 0.3059);fill-opacity:1;"/>
<path d="M207.917 168.722C207.862 168.777 207.559 168.52 207.01 168.254C206.46 167.989 205.626 167.732 204.701 167.751C203.766 167.76 202.951 168.053 202.41 168.337C201.861 168.621 201.577 168.887 201.522 168.841C201.476 168.804 201.687 168.438 202.236 168.053C202.777 167.668 203.656 167.292 204.692 167.274C205.718 167.256 206.625 167.595 207.175 167.961C207.734 168.328 207.963 168.685 207.926 168.722H207.917Z" fill="#46474E" style="fill:#46474E;fill:color(display-p3 0.2745 0.2784 0.3059);fill-opacity:1;"/>
<path d="M176.658 170.996C176.74 171.106 174.166 173.158 170.913 175.577C167.661 178.005 164.967 179.883 164.885 179.782C164.802 179.672 167.377 177.629 170.629 175.201C173.882 172.773 176.575 170.895 176.658 170.996Z" fill="#46474E" style="fill:#46474E;fill:color(display-p3 0.2745 0.2784 0.3059);fill-opacity:1;"/>
<path d="M252.312 271.377C252.312 271.377 252.404 271.01 252.642 270.378C252.926 269.654 253.275 268.766 253.687 267.712C254.576 265.467 255.794 262.361 257.077 258.917C258.359 255.463 259.468 252.32 260.265 250.048C260.641 248.985 260.961 248.087 261.218 247.354C261.447 246.722 261.594 246.374 261.621 246.383C261.649 246.392 261.566 246.759 261.392 247.409C261.218 248.06 260.943 249.003 260.586 250.158C259.871 252.467 258.808 255.637 257.526 259.091C256.243 262.545 254.969 265.632 254.007 267.85C253.522 268.958 253.119 269.847 252.826 270.461C252.532 271.065 252.358 271.395 252.322 271.386L252.312 271.377Z" fill="#46474E" style="fill:#46474E;fill:color(display-p3 0.2745 0.2784 0.3059);fill-opacity:1;"/>
<path d="M136.812 272.273C136.683 272.301 135.685 267.94 134.585 262.534C133.486 257.128 132.698 252.731 132.826 252.703C132.954 252.676 133.953 257.037 135.053 262.442C136.152 267.848 136.94 272.246 136.812 272.273Z" fill="#46474E" style="fill:#46474E;fill:color(display-p3 0.2745 0.2784 0.3059);fill-opacity:1;"/>
<path d="M135.072 326.777C135.365 326.924 131.719 298.229 131.719 298.229C131.719 298.229 134.018 276.451 135.31 275.443L135.347 267.756C135.347 267.756 138.911 265.594 139.864 269.084C139.864 269.084 143.025 266.345 143.574 272.868C144.124 279.392 144.243 286.071 144.243 286.071L151.27 303.643L152.425 304.23C152.425 304.23 153.937 290.459 154.816 288.434C155.696 286.41 156.3 281.48 159.626 282.223C162.952 282.965 163.236 285.722 162.64 290.212C162.045 294.701 161.294 299.337 161.569 302.242C161.843 305.146 163.163 311.532 162.76 316.598C162.356 321.674 159.58 327.025 156.658 330.781C153.744 334.538 148.174 342.307 145.141 344.652C144.087 345.468 135.072 326.768 135.072 326.768V326.777Z" fill="#DDC399" style="fill:#DDC399;fill:color(display-p3 0.8667 0.7647 0.6000);fill-opacity:1;"/>
<path d="M138.63 303.418C138.63 303.418 138.602 302.978 138.648 302.19C138.712 301.311 138.785 300.193 138.877 298.855C139.088 296.043 139.418 292.158 139.812 287.87C140.013 285.735 140.205 283.701 140.38 281.832C140.471 280.907 140.526 280.037 140.416 279.239C140.306 278.442 139.995 277.755 139.537 277.26C138.611 276.253 137.411 275.996 136.669 275.996C135.89 275.996 135.487 276.198 135.469 276.152C135.469 276.134 135.56 276.088 135.753 276.005C135.954 275.932 136.257 275.84 136.66 275.813C137.448 275.758 138.73 275.959 139.784 277.031C140.306 277.563 140.673 278.332 140.801 279.185C140.948 280.037 140.893 280.944 140.819 281.878C140.654 283.747 140.471 285.781 140.288 287.925C139.894 292.213 139.509 296.088 139.216 298.892C139.06 300.22 138.941 301.338 138.831 302.209C138.73 302.997 138.657 303.427 138.63 303.418Z" fill="#46474E" style="fill:#46474E;fill:color(display-p3 0.2745 0.2784 0.3059);fill-opacity:1;"/>
<path d="M142.392 291.69C142.466 291.745 141.678 292.442 141.146 293.953C140.578 295.447 140.377 297.701 139.983 300.147C139.607 302.602 139.232 304.82 138.948 306.423C138.654 308.026 138.444 309.007 138.38 308.997C138.315 308.988 138.407 307.98 138.618 306.368C138.819 304.755 139.14 302.529 139.516 300.074C139.91 297.637 140.166 295.364 140.844 293.825C141.165 293.056 141.55 292.497 141.861 292.149C142.163 291.8 142.383 291.663 142.402 291.681L142.392 291.69Z" fill="#46474E" style="fill:#46474E;fill:color(display-p3 0.2745 0.2784 0.3059);fill-opacity:1;"/>
<path d="M139.817 268.703C139.817 268.703 139.936 269.024 140.064 269.601C140.192 270.187 140.348 271.039 140.531 272.102C140.879 274.219 141.264 277.16 141.512 280.43C141.75 283.701 141.805 286.67 141.768 288.814C141.75 289.886 141.722 290.756 141.677 291.352C141.64 291.947 141.603 292.286 141.567 292.277C141.493 292.277 141.484 290.948 141.429 288.814C141.374 286.679 141.273 283.72 141.035 280.467C140.797 277.215 140.467 274.274 140.201 272.148C139.936 270.022 139.762 268.712 139.826 268.703H139.817Z" fill="#46474E" style="fill:#46474E;fill:color(display-p3 0.2745 0.2784 0.3059);fill-opacity:1;"/>
<path d="M160.088 295.603C160.162 295.713 159.062 296.216 157.724 295.804C156.378 295.401 155.755 294.366 155.874 294.32C155.975 294.228 156.68 295.007 157.862 295.355C159.035 295.731 160.052 295.474 160.088 295.612V295.603Z" fill="#46474E" style="fill:#46474E;fill:color(display-p3 0.2745 0.2784 0.3059);fill-opacity:1;"/>
<path d="M135.472 323.204L116.901 331.01H105.833C105.833 331.01 94.8843 334.428 93.2077 344.68C91.5219 354.942 91.2837 360.219 96.0937 361.483C100.904 362.757 114.491 362.894 121.225 360.659C127.959 358.423 145.605 344.185 145.605 344.185L147.309 333.887L135.472 323.195V323.204Z" fill="#DDC399" style="fill:#DDC399;fill:color(display-p3 0.8667 0.7647 0.6000);fill-opacity:1;"/>
<path d="M139.816 334.538C139.816 334.538 139.606 334.391 139.285 334.052C138.955 333.731 138.552 333.2 138.076 332.522C137.159 331.148 136.152 329.068 135.483 326.649C134.786 324.231 134.493 321.968 134.337 320.337C134.2 318.706 134.209 317.689 134.264 317.68C134.337 317.68 134.447 318.678 134.667 320.291C134.905 321.903 135.254 324.13 135.932 326.512C136.591 328.903 137.526 330.946 138.35 332.339C139.184 333.722 139.862 334.483 139.798 334.538H139.816Z" fill="#46474E" style="fill:#46474E;fill:color(display-p3 0.2745 0.2784 0.3059);fill-opacity:1;"/>
<path d="M147.922 337.804C147.821 337.767 148.655 336.356 148.975 333.818C149.131 332.563 149.113 331.033 148.755 329.393C148.398 327.753 147.619 326.067 146.483 324.491C145.356 322.906 144.083 321.532 143.02 320.204C141.939 318.875 141.078 317.583 140.51 316.41C139.942 315.238 139.676 314.202 139.575 313.479C139.484 312.755 139.52 312.352 139.539 312.352C139.63 312.333 139.603 313.992 140.803 316.255C141.389 317.382 142.269 318.628 143.35 319.92C144.431 321.221 145.714 322.595 146.868 324.207C148.032 325.811 148.838 327.588 149.186 329.292C149.534 330.987 149.516 332.572 149.314 333.855C149.113 335.147 148.755 336.145 148.462 336.805C148.325 337.135 148.187 337.382 148.087 337.547C147.995 337.712 147.931 337.795 147.922 337.785V337.804Z" fill="#46474E" style="fill:#46474E;fill:color(display-p3 0.2745 0.2784 0.3059);fill-opacity:1;"/>
<defs>
<filter id="filter0_d_407_903" x="67.1799" y="0.589928" width="357.64" height="403.31" filterUnits="userSpaceOnUse" color-interpolation-filters="sRGB">
<feFlood flood-opacity="0" result="BackgroundImageFix"/>
<feColorMatrix in="SourceAlpha" type="matrix" values="0 0 0 0 0 0 0 0 0 0 0 0 0 0 0 0 0 0 127 0" result="hardAlpha"/>
<feOffset dy="22.4101"/>
<feGaussianBlur stdDeviation="22.4101"/>
<feComposite in2="hardAlpha" operator="out"/>
<feColorMatrix type="matrix" values="0 0 0 0 0.27451 0 0 0 0 0.278431 0 0 0 0 0.305882 0 0 0 0.2 0"/>
<feBlend mode="multiply" in2="BackgroundImageFix" result="effect1_dropShadow_407_903"/>
<feBlend mode="normal" in="SourceGraphic" in2="effect1_dropShadow_407_903" result="shape"/>
</filter>
<filter id="filter1_d_407_903" x="0.403557" y="112.217" width="410.794" height="326.686" filterUnits="userSpaceOnUse" color-interpolation-filters="sRGB">
<feFlood flood-opacity="0" result="BackgroundImageFix"/>
<feColorMatrix in="SourceAlpha" type="matrix" values="0 0 0 0 0 0 0 0 0 0 0 0 0 0 0 0 0 0 127 0" result="hardAlpha"/>
<feOffset dy="16.8138"/>
<feGaussianBlur stdDeviation="16.8138"/>
<feComposite in2="hardAlpha" operator="out"/>
<feColorMatrix type="matrix" values="0 0 0 0 0.27451 0 0 0 0 0.278431 0 0 0 0 0.305882 0 0 0 0.2 0"/>
<feBlend mode="multiply" in2="BackgroundImageFix" result="effect1_dropShadow_407_903"/>
<feBlend mode="normal" in="SourceGraphic" in2="effect1_dropShadow_407_903" result="shape"/>
</filter>
<clipPath id="clip0_407_903">
<path d="M112 40.0078H380V323.223C380 330.649 373.98 336.669 366.554 336.669H125.446C118.02 336.669 112 330.649 112 323.223V40.0078Z" fill="white" style="fill:white;fill:white;fill-opacity:1;"/>
</clipPath>
<clipPath id="clip1_407_903">
<rect width="255.936" height="292.129" fill="white" style="fill:white;fill:white;fill-opacity:1;" transform="translate(118.031 40.0078)"/>
</clipPath>
<clipPath id="clip2_407_903">
<rect width="45.0154" height="10.6615" fill="white" style="fill:white;fill:white;fill-opacity:1;" transform="translate(60.0938 336.344)"/>
</clipPath>
<clipPath id="clip3_407_903">
<rect width="25.0176" height="24.1062" fill="white" style="fill:white;fill:white;fill-opacity:1;" transform="matrix(0.99939 0.0347717 -0.0460529 0.998932 220.529 266.445)"/>
</clipPath>
</defs>
</svg>
