<svg width="24" height="25" viewBox="0 0 24 25" fill="none" xmlns="http://www.w3.org/2000/svg">
<g id="play_circle">
<mask id="mask0_65_6870" style="mask-type:alpha" maskUnits="userSpaceOnUse" x="0" y="0" width="24" height="25">
<rect id="Bounding box" y="0.285156" width="24" height="24" fill="#D9D9D9" style="fill:#D9D9D9;fill:color(display-p3 0.8510 0.8510 0.8510);fill-opacity:1;"/>
</mask>
<g mask="url(#mask0_65_6870)">
<g id="play_circle_2">
<path d="M9.5 16.7852L16.5 12.2852L9.5 7.78516V16.7852ZM12 22.2852C10.6167 22.2852 9.31667 22.0225 8.1 21.4972C6.88333 20.9725 5.825 20.2602 4.925 19.3602C4.025 18.4602 3.31267 17.4018 2.788 16.1852C2.26267 14.9685 2 13.6685 2 12.2852C2 10.9018 2.26267 9.60182 2.788 8.38516C3.31267 7.16849 4.025 6.11016 4.925 5.21016C5.825 4.31016 6.88333 3.59749 8.1 3.07216C9.31667 2.54749 10.6167 2.28516 12 2.28516C13.3833 2.28516 14.6833 2.54749 15.9 3.07216C17.1167 3.59749 18.175 4.31016 19.075 5.21016C19.975 6.11016 20.6873 7.16849 21.212 8.38516C21.7373 9.60182 22 10.9018 22 12.2852C22 13.6685 21.7373 14.9685 21.212 16.1852C20.6873 17.4018 19.975 18.4602 19.075 19.3602C18.175 20.2602 17.1167 20.9725 15.9 21.4972C14.6833 22.0225 13.3833 22.2852 12 22.2852ZM12 20.2852C14.2333 20.2852 16.125 19.5102 17.675 17.9602C19.225 16.4102 20 14.5185 20 12.2852C20 10.0518 19.225 8.16016 17.675 6.61016C16.125 5.06016 14.2333 4.28516 12 4.28516C9.76667 4.28516 7.875 5.06016 6.325 6.61016C4.775 8.16016 4 10.0518 4 12.2852C4 14.5185 4.775 16.4102 6.325 17.9602C7.875 19.5102 9.76667 20.2852 12 20.2852Z" fill="#FFA469" style="fill:#FFA469;fill:color(display-p3 1.0000 0.6431 0.4118);fill-opacity:1;"/>
</g>
</g>
</g>
</svg>
