<svg width="318" height="587" viewBox="0 0 318 587" fill="none" xmlns="http://www.w3.org/2000/svg">
<g filter="url(#filter0_d_5217_99593)">
<path d="M112 36.446C112 29.02 118.02 23 125.446 23H366.554C373.98 23 380 29.02 380 36.446V40.0104H112V36.446Z" fill="#E8E8E8"/>
<rect x="123.203" y="30.2812" width="6.72302" height="6.72302" rx="3.36151" fill="#ED695E"/>
<rect x="134.406" y="30.2812" width="6.72302" height="6.72302" rx="3.36151" fill="#F5BF4F"/>
<rect x="145.617" y="30.2812" width="6.72302" height="6.72302" rx="3.36151" fill="#61C454"/>
<g clip-path="url(#clip0_5217_99593)">
<path d="M112 40.0078H380V323.223C380 330.649 373.98 336.669 366.554 336.669H125.446C118.02 336.669 112 330.649 112 323.223V40.0078Z" fill="#E8E8E8"/>
<g clip-path="url(#clip1_5217_99593)">
<rect width="255.936" height="292.129" transform="translate(118.031 40.0078)" fill="#F3F0F0"/>
<path d="M145.768 60.2311V64.1509C145.768 65.3136 145.69 66.3085 145.535 67.1357C145.391 67.9628 145.169 68.664 144.869 69.2394C144.582 69.8028 144.222 70.2703 143.79 70.6419C143.359 71.0015 142.867 71.2952 142.316 71.5229L141.597 70.1025C142.016 69.8867 142.382 69.635 142.694 69.3473C143.017 69.0596 143.281 68.688 143.485 68.2325C143.701 67.777 143.856 67.2136 143.952 66.5423C144.06 65.871 144.114 65.0379 144.114 64.043V58.7207H151.738V71.1094H150.048V60.2311H145.768ZM155.353 68.628L156.684 66.5962L159.651 62.209H161.107V71.1094H159.525V64.6723H159.435L158.086 66.7401L155.138 71.1094H153.717V62.209H155.281V68.628H155.353ZM165.777 63.5755L165.67 65.931C165.622 66.8659 165.544 67.6391 165.436 68.2505C165.34 68.8498 165.16 69.3533 164.896 69.7608H169.32V63.5755H165.777ZM162.865 69.7788C163.08 69.635 163.266 69.4671 163.422 69.2754C163.578 69.0716 163.71 68.8258 163.818 68.5381C163.925 68.2385 164.009 67.8848 164.069 67.4773C164.129 67.0577 164.177 66.5603 164.213 65.9849L164.429 62.209H170.866V69.7608L171.603 69.7788V73.3929H170.147V71.1094H163.71V73.3929H162.253V69.8148L162.865 69.7788ZM181.031 71.1094V62.209H182.523V71.1094H181.031ZM178.621 68.3583C178.621 68.0227 178.495 67.717 178.244 67.4413C177.992 67.1536 177.578 67.0098 177.003 67.0098H174.683V69.7428H177.003C177.518 69.7428 177.914 69.629 178.19 69.4012C178.477 69.1615 178.621 68.8138 178.621 68.3583ZM174.701 65.6612H177.057C177.56 65.6612 178.004 65.7332 178.387 65.877C178.783 66.0089 179.107 66.1947 179.358 66.4344C179.622 66.6742 179.82 66.9618 179.952 67.2975C180.084 67.6211 180.15 67.9748 180.15 68.3583C180.15 69.1854 179.88 69.8507 179.34 70.3542C178.813 70.8576 178.046 71.1094 177.039 71.1094H173.155V62.191H174.701V65.6612Z" fill="#46474E"/>
<path d="M138.266 87.771C138.266 86.5297 139.272 85.5234 140.513 85.5234L228.228 85.5234C229.014 85.5234 229.743 85.9342 230.15 86.6066L233.213 91.6636C233.647 92.3794 233.647 93.2767 233.213 93.9925L230.15 99.0495C229.743 99.722 229.014 100.133 228.228 100.133H140.513C139.272 100.133 138.266 99.1264 138.266 97.8851V87.771Z" fill="#FFA469"/>
<path d="M246.844 87.771C246.844 86.5297 247.85 85.5234 249.091 85.5234L336.806 85.5234C337.592 85.5234 338.321 85.9342 338.728 86.6066L341.791 91.6636C342.225 92.3794 342.225 93.2767 341.791 93.9925L338.728 99.0495C338.321 99.722 337.592 100.133 336.806 100.133H249.091C247.85 100.133 246.844 99.1264 246.844 97.8851V87.771Z" fill="#FCCD82"/>
<rect x="138.188" y="108.148" width="101.685" height="79.5558" rx="6.72302" fill="white"/>
<rect x="147.148" y="119.352" width="39.6399" height="5.60252" rx="2.80126" fill="#A4A4A4"/>
<rect x="147.148" y="127.758" width="49.8624" height="5.60252" rx="2.80126" fill="#A4A4A4"/>
<rect x="147.148" y="174.258" width="19.6088" height="5.60252" rx="2.80126" fill="#D9D9D9"/>
<rect x="220.719" y="168.656" width="11.205" height="11.205" rx="5.60252" fill="#A4A4A4"/>
<rect x="220.727" y="116.547" width="11.205" height="8.40378" rx="4.20189" fill="#D9D9D9"/>
<rect x="220.727" y="127.75" width="11.205" height="8.40378" rx="4.20189" fill="#D9D9D9"/>
<rect x="220.727" y="138.953" width="11.205" height="8.40378" rx="4.20189" fill="#D9D9D9"/>
<rect x="220.727" y="150.156" width="11.205" height="8.40378" rx="4.20189" fill="#D9D9D9"/>
<rect x="138.188" y="194.32" width="101.685" height="79.5558" rx="6.72302" fill="#D7D7D7"/>
<rect x="147.148" y="205.523" width="39.6399" height="5.60252" rx="2.80126" fill="#A4A4A4"/>
<rect x="147.148" y="213.938" width="49.8624" height="5.60252" rx="2.80126" fill="#A4A4A4"/>
<rect x="147.148" y="260.422" width="19.6088" height="5.60252" rx="2.80126" fill="#E8E8E8"/>
<rect x="220.719" y="254.828" width="11.205" height="11.205" rx="5.60252" fill="#A4A4A4"/>
<rect x="220.727" y="202.727" width="11.205" height="8.40378" rx="4.20189" fill="#E8E8E8"/>
<rect x="220.727" y="213.93" width="11.205" height="8.40378" rx="4.20189" fill="#E8E8E8"/>
<rect x="220.727" y="225.141" width="11.205" height="8.40378" rx="4.20189" fill="#E8E8E8"/>
<rect x="220.727" y="236.344" width="11.205" height="8.40378" rx="4.20189" fill="#E8E8E8"/>
<rect x="138.188" y="280.586" width="101.685" height="79.5558" rx="6.72302" fill="white"/>
<rect x="147.148" y="291.797" width="39.6399" height="5.60252" rx="2.80126" fill="#A4A4A4"/>
<rect x="147.148" y="300.195" width="49.8624" height="5.60252" rx="2.80126" fill="#A4A4A4"/>
<rect x="220.719" y="288.992" width="11.205" height="8.40378" rx="4.20189" fill="#D9D9D9"/>
<rect x="220.719" y="300.195" width="11.205" height="8.40378" rx="4.20189" fill="#D9D9D9"/>
<rect x="220.719" y="311.406" width="11.205" height="8.40378" rx="4.20189" fill="#D9D9D9"/>
<rect x="220.719" y="322.609" width="11.205" height="8.40378" rx="4.20189" fill="#D9D9D9"/>
<rect x="246.766" y="108.148" width="101.685" height="79.5558" rx="6.72302" fill="white"/>
<rect x="255.734" y="119.352" width="39.6399" height="5.60252" rx="2.80126" fill="#A4A4A4"/>
<rect x="255.734" y="127.758" width="49.8624" height="5.60252" rx="2.80126" fill="#A4A4A4"/>
<rect x="255.734" y="174.258" width="19.6088" height="5.60252" rx="2.80126" fill="#D9D9D9"/>
<rect x="246.766" y="194.32" width="101.685" height="79.5558" rx="6.72302" fill="white"/>
<rect x="255.734" y="205.523" width="39.6399" height="5.60252" rx="2.80126" fill="#A4A4A4"/>
<rect x="255.734" y="213.93" width="49.8624" height="5.60252" rx="2.80126" fill="#A4A4A4"/>
<rect x="255.734" y="260.422" width="19.6088" height="5.60252" rx="2.80126" fill="#D9D9D9"/>
</g>
</g>
</g>
<g filter="url(#filter1_d_5217_99593)">
<path d="M366.807 536.462H44.7941C38.8549 536.462 34.0312 530.962 34.0312 524.171V289.322C34.0312 282.54 38.8476 277.031 44.7941 277.031H366.807C372.746 277.031 377.57 282.531 377.57 289.322V524.171C377.57 530.953 372.753 536.462 366.807 536.462Z" fill="#65666D"/>
</g>
<path d="M376.407 542.383H34.0154C26.8277 542.383 21 535.717 21 527.495V519.875H389.415V527.495C389.415 535.717 383.588 542.383 376.4 542.383H376.407Z" fill="#65666D"/>
<path d="M167.891 517.508L173.168 525.901H247.457L252.354 517.508H167.891Z" fill="#46474E"/>
<path d="M377.563 517.177C377.563 517.304 300.612 517.4 205.711 517.4C110.809 517.4 33.8438 517.296 33.8438 517.177C33.8438 517.058 110.779 516.953 205.711 516.953C300.642 516.953 377.563 517.058 377.563 517.177Z" fill="#46474E"/>
<path d="M360.962 510.404H47.0742C45.7531 510.404 44.6875 509.168 44.6875 507.637V294.017C44.6875 292.485 45.7531 291.25 47.0742 291.25H360.962C362.283 291.25 363.349 292.485 363.349 294.017V507.628C363.349 509.16 362.276 510.395 360.962 510.395V510.404Z" fill="#F3F0F0"/>
<path fill-rule="evenodd" clip-rule="evenodd" d="M71.3476 322.047C65.1355 322.047 60.0938 327.089 60.0938 333.301C60.0938 339.513 65.1355 344.555 71.3476 344.555C77.5597 344.555 82.6014 339.513 82.6014 333.301C82.6014 327.089 77.5597 322.047 71.3476 322.047ZM71.3449 325.422C73.213 325.422 74.7211 326.93 74.7211 328.798C74.7211 330.666 73.213 332.174 71.3449 332.174C69.4768 332.174 67.9688 330.666 67.9688 328.798C67.9688 326.93 69.4768 325.422 71.3449 325.422ZM71.3461 341.402C68.5326 341.402 66.0455 339.962 64.5938 337.779C64.6275 335.539 69.0953 334.312 71.3461 334.312C73.5856 334.312 78.0646 335.539 78.0984 337.779C76.6466 339.962 74.1595 341.402 71.3461 341.402Z" fill="#B9BABD"/>
<path d="M62.9992 355.574C62.6266 355.574 62.2821 355.519 61.9656 355.409C61.6514 355.299 61.381 355.135 61.1543 354.918C60.9276 354.7 60.7514 354.428 60.6257 354.103C60.5022 353.777 60.4405 353.402 60.4405 352.975C60.4405 352.578 60.5 352.218 60.619 351.894C60.7379 351.571 60.9107 351.294 61.1374 351.063C61.3551 350.841 61.6245 350.669 61.9454 350.548C62.2686 350.426 62.621 350.366 63.0026 350.366C63.2136 350.366 63.4032 350.378 63.5716 350.403C63.7421 350.425 63.8993 350.456 64.0429 350.494C64.1933 350.536 64.3291 350.585 64.4503 350.639C64.5737 350.69 64.6815 350.738 64.7735 350.783V351.999H64.6253C64.5625 351.945 64.4828 351.881 64.3863 351.807C64.292 351.733 64.1843 351.66 64.0631 351.588C63.9397 351.516 63.8061 351.456 63.6625 351.406C63.5188 351.357 63.3651 351.332 63.2012 351.332C63.0194 351.332 62.8466 351.361 62.6828 351.42C62.5189 351.476 62.3674 351.57 62.2282 351.702C62.0958 351.83 61.9881 352 61.905 352.211C61.8242 352.422 61.7838 352.678 61.7838 352.978C61.7838 353.293 61.8276 353.555 61.9151 353.766C62.0049 353.977 62.1171 354.143 62.2518 354.265C62.3887 354.388 62.5414 354.477 62.7097 354.531C62.878 354.582 63.0441 354.608 63.208 354.608C63.3651 354.608 63.5199 354.584 63.6726 354.537C63.8274 354.49 63.97 354.426 64.1001 354.345C64.2101 354.28 64.3122 354.211 64.4065 354.137C64.5008 354.063 64.5782 353.999 64.6388 353.945H64.7735V355.143C64.6478 355.199 64.5277 355.252 64.4132 355.301C64.2988 355.351 64.1787 355.394 64.053 355.429C63.8892 355.477 63.7354 355.512 63.5918 355.537C63.4481 355.562 63.2506 355.574 62.9992 355.574ZM69.517 353.81H66.7429C66.7608 354.106 66.8731 354.333 67.0795 354.49C67.2883 354.647 67.5947 354.726 67.9987 354.726C68.2545 354.726 68.5025 354.68 68.7427 354.588C68.9829 354.496 69.1725 354.397 69.3117 354.291H69.4463V355.264C69.1725 355.374 68.9144 355.454 68.672 355.503C68.4296 355.553 68.1614 355.578 67.8674 355.578C67.1087 355.578 66.5274 355.407 66.1234 355.066C65.7194 354.725 65.5174 354.239 65.5174 353.608C65.5174 352.984 65.7082 352.49 66.0897 352.127C66.4735 351.761 66.9987 351.578 67.6654 351.578C68.2803 351.578 68.7427 351.734 69.0524 352.046C69.3622 352.356 69.517 352.802 69.517 353.386V353.81ZM68.3118 353.1C68.305 352.846 68.2422 352.655 68.1232 352.527C68.0043 352.399 67.8191 352.335 67.5677 352.335C67.3343 352.335 67.1424 352.396 66.992 352.517C66.8416 352.638 66.7575 352.833 66.7395 353.1H68.3118ZM74.4559 353.534C74.4559 353.846 74.4076 354.13 74.3111 354.386C74.2168 354.642 74.0923 354.853 73.9374 355.019C73.7758 355.194 73.5929 355.326 73.3886 355.416C73.1844 355.506 72.9655 355.551 72.7321 355.551C72.5166 355.551 72.3337 355.527 72.1833 355.48C72.033 355.435 71.8792 355.371 71.7221 355.288V356.864H70.5101V351.696H71.7221V352.09C71.9084 351.942 72.0981 351.821 72.2911 351.729C72.4863 351.637 72.7108 351.591 72.9644 351.591C73.4358 351.591 73.8016 351.764 74.062 352.11C74.3246 352.455 74.4559 352.93 74.4559 353.534ZM73.2068 353.558C73.2068 353.189 73.144 352.922 73.0183 352.756C72.8926 352.59 72.694 352.507 72.4224 352.507C72.3079 352.507 72.1901 352.525 72.0689 352.561C71.9477 352.595 71.8321 352.644 71.7221 352.709V354.611C71.8029 354.643 71.8893 354.663 71.9813 354.672C72.0734 354.681 72.1643 354.685 72.254 354.685C72.575 354.685 72.814 354.592 72.9712 354.406C73.1283 354.217 73.2068 353.935 73.2068 353.558ZM78.5261 352.537H76.6811V355.477H75.4691V351.696H78.5261V352.537ZM82.9936 353.81H80.2194C80.2374 354.106 80.3496 354.333 80.5561 354.49C80.7648 354.647 81.0712 354.726 81.4752 354.726C81.7311 354.726 81.9791 354.68 82.2192 354.588C82.4594 354.496 82.6491 354.397 82.7882 354.291H82.9229V355.264C82.6491 355.374 82.391 355.454 82.1485 355.503C81.9061 355.553 81.6379 355.578 81.3439 355.578C80.5853 355.578 80.004 355.407 79.5999 355.066C79.1959 354.725 78.9939 354.239 78.9939 353.608C78.9939 352.984 79.1847 352.49 79.5663 352.127C79.9501 351.761 80.4753 351.578 81.1419 351.578C81.7569 351.578 82.2192 351.734 82.529 352.046C82.8387 352.356 82.9936 352.802 82.9936 353.386V353.81ZM81.7883 353.1C81.7816 352.846 81.7187 352.655 81.5998 352.527C81.4808 352.399 81.2956 352.335 81.0443 352.335C80.8108 352.335 80.6189 352.396 80.4686 352.517C80.3182 352.638 80.234 352.833 80.2161 353.1H81.7883ZM87.8079 355.477H86.6329V353.164L84.9899 355.477H83.9866V351.696H85.1616V353.766L86.6834 351.696H87.8079V355.477ZM87.3904 350.019C87.3904 350.385 87.2647 350.683 87.0133 350.915C86.7642 351.146 86.3938 351.261 85.9023 351.261C85.413 351.261 85.0427 351.146 84.7913 350.915C84.5399 350.681 84.4142 350.383 84.4142 350.019H85.3502C85.3546 350.241 85.3973 350.407 85.4781 350.517C85.5589 350.625 85.7003 350.679 85.9023 350.679C86.1065 350.679 86.2479 350.626 86.3265 350.521C86.4073 350.413 86.4499 350.246 86.4544 350.019H87.3904ZM63.4807 360.271C63.6378 360.429 63.7567 360.619 63.8375 360.844C63.9183 361.066 63.9587 361.327 63.9587 361.628C63.9587 362.189 63.7904 362.655 63.4537 363.025C63.1171 363.396 62.703 363.581 62.2114 363.581C61.969 363.581 61.7457 363.541 61.5414 363.46C61.3372 363.377 61.1632 363.25 61.0196 363.079C60.84 362.866 60.7054 362.598 60.6156 362.275C60.5281 361.949 60.4843 361.553 60.4843 361.086C60.4843 360.918 60.4921 360.747 60.5079 360.574C60.5236 360.399 60.5595 360.191 60.6156 359.948C60.6605 359.74 60.7256 359.539 60.8109 359.346C60.8984 359.153 61.0016 358.997 61.1206 358.878C61.2822 358.714 61.4943 358.582 61.7569 358.484C62.0218 358.383 62.3719 358.313 62.8073 358.275C62.9846 358.259 63.1496 358.247 63.3022 358.238C63.4549 358.227 63.5918 358.217 63.713 358.208V358.79C63.5648 358.799 63.4178 358.808 63.2719 358.817C63.1283 358.826 62.9846 358.837 62.841 358.851C62.5537 358.875 62.2933 358.923 62.0599 358.992C61.8287 359.062 61.6593 359.151 61.5515 359.261C61.4326 359.38 61.3428 359.536 61.2822 359.729C61.2238 359.92 61.1857 360.102 61.1677 360.275C61.3361 360.154 61.5201 360.053 61.7199 359.972C61.9219 359.889 62.1362 359.847 62.3629 359.847C62.5739 359.847 62.777 359.882 62.9723 359.952C63.1676 360.021 63.337 360.128 63.4807 360.271ZM63.3157 361.665C63.3157 361.25 63.2158 360.94 63.0161 360.736C62.8163 360.53 62.5526 360.426 62.2249 360.426C62.0296 360.426 61.8422 360.458 61.6626 360.521C61.4831 360.581 61.3125 360.663 61.1509 360.766C61.1464 360.822 61.1419 360.889 61.1374 360.965C61.1352 361.039 61.1341 361.108 61.1341 361.17C61.1341 361.561 61.1666 361.877 61.2317 362.12C61.2968 362.362 61.3888 362.555 61.5078 362.699C61.611 362.82 61.7232 362.906 61.8444 362.958C61.9656 363.007 62.0958 363.032 62.235 363.032C62.5739 363.032 62.8387 362.91 63.0295 362.665C63.2203 362.421 63.3157 362.087 63.3157 361.665ZM68.2579 363.477H67.6317V360.652L65.6622 363.477H65.0898V359.716H65.716V362.5L67.6654 359.716H68.2579V363.477ZM72.2608 362.423C72.2608 362.634 72.2114 362.812 72.1126 362.958C72.0161 363.104 71.8916 363.222 71.7389 363.312C71.5863 363.399 71.418 363.463 71.2339 363.503C71.0499 363.544 70.8658 363.564 70.6818 363.564C70.4214 363.564 70.1734 363.539 69.9377 363.49C69.7021 363.441 69.4698 363.364 69.2408 363.261V362.568H69.2846C69.4485 362.711 69.6572 362.822 69.9108 362.901C70.1644 362.979 70.4102 363.019 70.6481 363.019C70.7603 363.019 70.8759 363.009 70.9949 362.988C71.1139 362.966 71.2171 362.931 71.3046 362.884C71.3989 362.83 71.4741 362.766 71.5302 362.692C71.5863 362.616 71.6144 362.513 71.6144 362.382C71.6144 362.248 71.5863 362.14 71.5302 362.059C71.4763 361.978 71.4023 361.918 71.308 361.877C71.216 361.837 71.1049 361.812 70.9747 361.803C70.8445 361.794 70.7256 361.79 70.6178 361.79H70.069V361.244H70.4495C70.5393 361.244 70.656 361.241 70.7996 361.234C70.9455 361.228 71.0634 361.21 71.1531 361.18C71.2698 361.142 71.3619 361.088 71.4292 361.019C71.4988 360.949 71.5336 360.838 71.5336 360.686C71.5336 360.58 71.5066 360.494 71.4528 360.426C71.3989 360.357 71.3316 360.303 71.2508 360.265C71.1677 360.227 71.0746 360.201 70.9713 360.187C70.8703 360.174 70.7805 360.167 70.702 360.167C70.4731 360.167 70.2475 360.199 70.0253 360.261C69.8053 360.322 69.6202 360.411 69.4698 360.527H69.426V359.83C69.6123 359.77 69.8121 359.72 70.0253 359.682C70.2385 359.644 70.4517 359.625 70.665 359.625C70.84 359.625 71.014 359.641 71.1868 359.672C71.3619 359.704 71.5246 359.757 71.675 359.834C71.8231 359.91 71.9443 360.014 72.0386 360.147C72.1328 360.277 72.18 360.439 72.18 360.632C72.18 360.829 72.1183 361.003 71.9948 361.154C71.8736 361.302 71.7098 361.408 71.5033 361.473V361.497C71.7345 361.553 71.9185 361.659 72.0554 361.813C72.1923 361.966 72.2608 362.169 72.2608 362.423ZM76.5465 363.477H75.9135V361.783H74.0315V363.477H73.3986V359.716H74.0315V361.238H75.9135V359.716H76.5465V363.477ZM81.0813 361.662H78.3105C78.3105 361.893 78.3453 362.095 78.4149 362.268C78.4844 362.438 78.5798 362.579 78.701 362.689C78.8177 362.796 78.9558 362.877 79.1151 362.931C79.2767 362.985 79.4541 363.012 79.6471 363.012C79.9029 363.012 80.1599 362.961 80.4181 362.86C80.6784 362.757 80.8636 362.656 80.9736 362.557H81.0072V363.248C80.794 363.337 80.5763 363.413 80.3541 363.473C80.1319 363.534 79.8985 363.564 79.6538 363.564C79.0298 363.564 78.5428 363.396 78.1927 363.059C77.8425 362.72 77.6675 362.24 77.6675 361.618C77.6675 361.003 77.8347 360.515 78.1691 360.154C78.5058 359.792 78.9479 359.612 79.4956 359.612C80.0028 359.612 80.3934 359.76 80.6672 360.056C80.9433 360.352 81.0813 360.773 81.0813 361.318V361.662ZM80.4652 361.177C80.4629 360.845 80.3788 360.588 80.2127 360.406C80.0488 360.224 79.7986 360.133 79.4619 360.133C79.123 360.133 78.8525 360.233 78.6505 360.433C78.4508 360.633 78.3374 360.881 78.3105 361.177H80.4652ZM84.9933 363.241C84.7352 363.362 84.513 363.445 84.3267 363.49C84.1426 363.537 83.9586 363.561 83.7745 363.561C83.5007 363.561 83.2493 363.521 83.0204 363.443C82.7915 363.362 82.5951 363.241 82.4312 363.079C82.2674 362.918 82.1394 362.713 82.0474 362.467C81.9576 362.22 81.9127 361.931 81.9127 361.601C81.9127 361.002 82.0788 360.524 82.411 360.167C82.7432 359.808 83.1977 359.628 83.7745 359.628C83.9922 359.628 84.2055 359.659 84.4142 359.719C84.6252 359.78 84.8182 359.854 84.9933 359.942V360.645H84.9562C84.7475 360.486 84.541 360.368 84.3368 360.292C84.1348 360.215 83.9384 360.177 83.7476 360.177C83.3728 360.177 83.0821 360.303 82.8756 360.554C82.6714 360.806 82.5693 361.155 82.5693 361.601C82.5693 362.048 82.6714 362.395 82.8756 362.642C83.0799 362.889 83.3705 363.012 83.7476 363.012C83.88 363.012 84.0113 362.995 84.1415 362.961C84.2739 362.928 84.394 362.884 84.5017 362.83C84.587 362.788 84.6746 362.737 84.7643 362.679C84.8564 362.618 84.9203 362.573 84.9562 362.544H84.9933V363.241ZM87.9929 361.588H85.8921V360.978H87.9929V361.588ZM92.191 363.477H91.5615V363.076C91.5054 363.114 91.429 363.168 91.3325 363.238C91.2383 363.305 91.1462 363.359 91.0565 363.399C90.951 363.451 90.8298 363.493 90.6929 363.527C90.5559 363.563 90.3955 363.581 90.2114 363.581C89.8725 363.581 89.5852 363.469 89.3495 363.244C89.1139 363.02 88.996 362.734 88.996 362.386C88.996 362.101 89.0566 361.871 89.1778 361.696C89.3013 361.518 89.4764 361.379 89.703 361.278C89.932 361.177 90.2069 361.109 90.5279 361.073C90.8488 361.037 91.1934 361.01 91.5615 360.992V360.894C91.5615 360.751 91.5357 360.632 91.484 360.537C91.4347 360.443 91.3628 360.369 91.2686 360.315C91.1788 360.264 91.0711 360.229 90.9454 360.211C90.8197 360.193 90.6884 360.184 90.5515 360.184C90.3854 360.184 90.2002 360.206 89.9959 360.251C89.7917 360.294 89.5807 360.357 89.363 360.44H89.3293V359.797C89.4528 359.763 89.6312 359.726 89.8646 359.686C90.0981 359.645 90.3281 359.625 90.5548 359.625C90.8197 359.625 91.0497 359.647 91.245 359.692C91.4425 359.735 91.6131 359.809 91.7567 359.915C91.8981 360.018 92.0059 360.151 92.0799 360.315C92.154 360.479 92.191 360.682 92.191 360.925V363.477ZM91.5615 362.551V361.504C91.3684 361.515 91.1406 361.532 90.878 361.554C90.6177 361.577 90.4112 361.609 90.2586 361.652C90.0767 361.703 89.9297 361.784 89.8175 361.894C89.7053 362.002 89.6492 362.151 89.6492 362.342C89.6492 362.557 89.7143 362.72 89.8444 362.83C89.9746 362.938 90.1733 362.992 90.4404 362.992C90.6626 362.992 90.8657 362.949 91.0497 362.864C91.2338 362.776 91.4044 362.672 91.5615 362.551ZM96.6956 363.477H96.0626V361.783H94.1806V363.477H93.5477V359.716H94.1806V361.238H96.0626V359.716H96.6956V363.477ZM101.005 363.477H100.375V363.076C100.319 363.114 100.243 363.168 100.146 363.238C100.052 363.305 99.96 363.359 99.8702 363.399C99.7648 363.451 99.6436 363.493 99.5066 363.527C99.3697 363.563 99.2093 363.581 99.0252 363.581C98.6863 363.581 98.399 363.469 98.1633 363.244C97.9277 363.02 97.8098 362.734 97.8098 362.386C97.8098 362.101 97.8704 361.871 97.9916 361.696C98.1151 361.518 98.2901 361.379 98.5168 361.278C98.7458 361.177 99.0207 361.109 99.3417 361.073C99.6626 361.037 100.007 361.01 100.375 360.992V360.894C100.375 360.751 100.349 360.632 100.298 360.537C100.248 360.443 100.177 360.369 100.082 360.315C99.9926 360.264 99.8848 360.229 99.7591 360.211C99.6335 360.193 99.5022 360.184 99.3652 360.184C99.1992 360.184 99.014 360.206 98.8097 360.251C98.6055 360.294 98.3945 360.357 98.1768 360.44H98.1431V359.797C98.2666 359.763 98.445 359.726 98.6784 359.686C98.9119 359.645 99.1419 359.625 99.3686 359.625C99.6335 359.625 99.8635 359.647 100.059 359.692C100.256 359.735 100.427 359.809 100.571 359.915C100.712 360.018 100.82 360.151 100.894 360.315C100.968 360.479 101.005 360.682 101.005 360.925V363.477ZM100.375 362.551V361.504C100.182 361.515 99.9544 361.532 99.6918 361.554C99.4315 361.577 99.225 361.609 99.0723 361.652C98.8905 361.703 98.7435 361.784 98.6313 361.894C98.5191 362.002 98.463 362.151 98.463 362.342C98.463 362.557 98.5281 362.72 98.6582 362.83C98.7884 362.938 98.987 362.992 99.2541 362.992C99.4763 362.992 99.6795 362.949 99.8635 362.864C100.048 362.776 100.218 362.672 100.375 362.551ZM105.395 363.477H104.762V360.248H103.358C103.351 360.434 103.345 360.614 103.338 360.787C103.331 360.959 103.324 361.115 103.318 361.255C103.302 361.629 103.276 361.929 103.24 362.153C103.204 362.376 103.157 362.561 103.099 362.709C103.045 362.848 102.984 362.961 102.917 363.049C102.852 363.134 102.781 363.212 102.705 363.281C102.629 363.349 102.543 363.399 102.449 363.433C102.357 363.466 102.256 363.483 102.146 363.483C102.108 363.483 102.052 363.482 101.978 363.48C101.906 363.478 101.859 363.477 101.836 363.477V362.924H101.87C101.888 362.924 101.914 362.926 101.947 362.928C101.981 362.93 102.009 362.931 102.032 362.931C102.085 362.931 102.14 362.923 102.197 362.908C102.255 362.892 102.304 362.863 102.345 362.82C102.459 362.708 102.551 362.518 102.621 362.251C102.69 361.984 102.736 361.598 102.759 361.093C102.768 360.909 102.776 360.691 102.782 360.44C102.791 360.186 102.799 359.945 102.806 359.716H105.395V363.477ZM109.95 363.477H109.324V360.652L107.354 363.477H106.782V359.716H107.408V362.5L109.357 359.716H109.95V363.477ZM114.101 360.271H112.741V363.477H112.108V360.271H110.748V359.716H114.101V360.271ZM118.063 363.477H117.437V360.652L115.468 363.477H114.895V359.716H115.522V362.5L117.471 359.716H118.063V363.477ZM122.844 363.477H122.016L120.454 361.753H120.11V363.477H119.477V359.716H120.11V361.339C120.319 361.339 120.487 361.302 120.615 361.228C120.743 361.151 120.852 361.03 120.942 360.864C120.973 360.803 121.004 360.739 121.033 360.672C121.064 360.603 121.094 360.536 121.124 360.473C121.24 360.22 121.386 360.03 121.561 359.904C121.736 359.779 121.988 359.716 122.315 359.716H122.605V360.261H122.326C122.148 360.261 122.009 360.3 121.908 360.376C121.809 360.45 121.72 360.581 121.639 360.77C121.549 360.981 121.454 361.139 121.353 361.244C121.254 361.348 121.148 361.426 121.036 361.48L122.844 363.477Z" fill="#46474E"/>
<g clip-path="url(#clip2_5217_99593)">
<path d="M74.2125 484.508C71.3121 484.508 69.2404 486.802 69.2112 489.656C69.1821 492.482 71.4183 494.868 74.2333 494.844C76.9609 494.844 79.2345 492.489 79.1971 489.65C79.1596 486.827 77.1004 484.51 74.2125 484.51V484.508ZM74.225 493.009C72.3615 492.982 71.1018 491.233 71.1226 489.618C71.1413 488.1 72.3469 486.345 74.2 486.342C75.9677 486.34 77.3231 488.005 77.2794 489.677C77.3919 491.093 76.0426 493.038 74.2229 493.011L74.225 493.009Z" fill="#8F8F92"/>
<path d="M85.5797 484.508C82.6793 484.508 80.6076 486.802 80.5784 489.656C80.5493 492.482 82.7854 494.868 85.6005 494.844C88.328 494.844 90.6017 492.489 90.5642 489.65C90.5268 486.827 88.4675 484.51 85.5797 484.51V484.508ZM85.5921 493.009C83.7286 492.982 82.469 491.233 82.4898 489.618C82.5085 488.1 83.7141 486.345 85.5672 486.342C87.3349 486.34 88.6903 488.005 88.6466 489.677C88.759 491.093 87.4098 493.038 85.5901 493.011L85.5921 493.009Z" fill="#8F8F92"/>
<path d="M91.9119 491.458C91.9119 492.175 91.9119 492.89 91.9119 493.607C91.9119 494.017 91.9119 494.426 91.9119 494.838C91.9119 494.967 91.9557 495.019 92.0764 494.998C92.218 494.973 92.3596 494.955 92.4949 494.903C93.3069 494.591 93.8316 493.788 93.8316 492.849C93.8316 491.413 93.8462 489.974 93.8254 488.538C93.8129 487.721 94.3772 486.592 95.437 486.459C96.0762 486.377 96.6279 486.581 97.061 487.112C97.4129 487.545 97.5649 488.049 97.5607 488.63C97.5482 490.076 97.5566 491.524 97.5566 492.971C97.5566 493.098 97.5503 493.227 97.5815 493.351C97.8043 494.238 98.4019 494.892 99.2868 494.998C99.4284 495.016 99.4554 494.992 99.4554 494.833C99.4554 494.338 99.4554 493.845 99.4554 493.349C99.4554 491.739 99.4554 490.126 99.4554 488.515C99.4554 487.671 100.047 486.678 100.942 486.481C102.204 486.203 103.207 487.359 103.191 488.456C103.172 489.897 103.199 491.34 103.18 492.781C103.172 493.383 103.343 493.892 103.703 494.333C104.038 494.743 104.469 494.955 104.969 495.001C105.056 495.01 105.104 494.969 105.096 494.872C105.079 494.702 105.102 494.532 105.102 494.363C105.102 492.478 105.104 490.592 105.102 488.707C105.102 488.438 105.108 488.167 105.067 487.904C104.898 486.83 104.415 485.932 103.645 485.251C102.843 484.54 101.91 484.242 100.863 484.384C99.9635 484.506 99.216 484.934 98.583 485.624C98.5206 485.692 98.4852 485.696 98.4269 485.626C98.1895 485.339 97.9043 485.12 97.6003 484.923C96.7008 484.341 95.7368 484.199 94.7332 484.491C93.9191 484.726 93.2403 485.208 92.7364 485.959C92.218 486.732 91.8807 487.563 91.9078 488.549C91.9328 489.519 91.914 490.49 91.914 491.46L91.9119 491.458Z" fill="#8F8F92"/>
<path d="M65.4744 494.944C66.5342 494.924 67.823 494.974 69.1118 494.922C69.2992 494.915 69.3263 494.886 69.293 494.684C69.1868 494.04 68.8932 493.528 68.381 493.171C68.0083 492.911 67.5877 492.841 67.1609 492.838C65.82 492.829 64.4812 492.836 63.1403 492.836C63.0883 492.836 63.0362 492.836 62.9842 492.836C62.955 492.836 62.9196 492.843 62.905 492.802C62.8925 492.764 62.9196 492.739 62.9425 492.718C63.0779 492.601 63.1882 492.451 63.309 492.318C64.9164 490.567 66.5258 488.816 68.1353 487.065C68.2623 486.927 68.3768 486.78 68.4726 486.617C68.8537 485.968 68.7266 485.199 68.1666 484.728C67.8771 484.484 67.544 484.407 67.19 484.407C64.8831 484.405 62.5761 484.407 60.2691 484.407C60.1088 484.407 60.0775 484.437 60.1004 484.604C60.1837 485.204 60.4461 485.694 60.8896 486.063C61.2747 486.384 61.7266 486.486 62.1992 486.488C63.3881 486.493 64.5749 486.488 65.7638 486.491C65.8117 486.491 65.8825 486.461 65.9054 486.525C65.9241 486.577 65.8637 486.611 65.8304 486.647C65.0038 487.547 64.1751 488.445 63.3465 489.346C62.4386 490.332 61.5308 491.316 60.623 492.304C60.344 492.608 60.1233 492.954 60.0983 493.395C60.0588 494.071 60.4919 494.691 61.1019 494.863C61.3206 494.924 61.5454 494.947 61.7724 494.947C62.93 494.947 64.0877 494.947 65.4723 494.947L65.4744 494.944Z" fill="#8F8F92"/>
</g>
<path d="M75.3313 300.088C75.3313 301.717 74.0141 303.034 72.3844 303.034C70.7547 303.034 69.4375 301.717 69.4375 300.088C69.4375 298.458 70.7547 297.141 72.3844 297.141C74.0141 297.141 75.3313 298.458 75.3313 300.088Z" fill="#61C454"/>
<path d="M57.4875 300.088C57.4875 301.717 56.1703 303.034 54.5406 303.034C52.911 303.034 51.5938 301.717 51.5938 300.088C51.5938 298.458 52.911 297.141 54.5406 297.141C56.1703 297.141 57.4875 298.458 57.4875 300.088Z" fill="#ED695E"/>
<path d="M66.05 300.088C66.05 301.717 64.7328 303.034 63.1031 303.034C61.4735 303.034 60.1562 301.717 60.1562 300.088C60.1562 298.458 61.4735 297.141 63.1031 297.141C64.7328 297.141 66.05 298.458 66.05 300.088Z" fill="#F5BF4F"/>
<path d="M262.718 381.609C262.718 381.609 275.297 387.739 279.723 403.571C284.148 419.403 297.68 460.632 297.68 460.632C297.68 460.632 305.413 469.729 306.247 476.463C307.08 483.198 305.422 499.497 302.93 502.538C300.447 505.58 296.901 505.076 296.901 505.076L264.349 501.989L251.531 416.159L262.727 381.609H262.718Z" fill="#46474E"/>
<path d="M155.071 380.113C155.071 380.113 131.8 387.415 126 393.764L145.057 482.425L144.755 510.396H255.102C255.102 509.013 256.091 417.521 256.091 417.521L262.715 381.615L223.493 374.707L215.76 368.633L172.121 370.841L165.497 377.474L155.08 380.113H155.071Z" fill="#46474E"/>
<g clip-path="url(#clip3_5217_99593)">
<path d="M225.416 423.865L223.575 425.841L223.375 430.167L219.857 430.044L220.569 414.6L224.087 414.722L223.809 420.752L229.136 414.898L233.296 415.042L227.869 421.137L232.848 430.488L228.729 430.345L225.408 423.856L225.416 423.865Z" fill="#F3F0F0"/>
<path d="M243.786 429.828C243.356 430.098 242.897 430.318 242.415 430.488C241.966 430.651 241.496 430.757 241.027 430.821C239.888 430.977 238.737 430.88 237.653 430.525C236.973 430.315 236.337 429.992 235.771 429.566C235.212 429.148 234.764 428.604 234.439 427.983C234.094 427.296 233.945 426.527 233.996 425.756L234.262 419.994C234.281 419.222 234.493 418.466 234.885 417.796C235.25 417.191 235.748 416.664 236.328 416.262C236.925 415.851 237.589 415.549 238.287 415.379C238.994 415.192 239.729 415.112 240.466 415.137C241.38 415.169 242.287 415.339 243.157 415.621C243.98 415.869 244.738 416.31 245.369 416.901L243.535 419.601C243.097 419.18 242.558 418.86 241.972 418.685C241.457 418.529 240.932 418.438 240.403 418.419C240.106 418.409 239.808 418.447 239.515 418.527C239.214 418.606 238.936 418.734 238.678 418.912C238.413 419.098 238.193 419.342 238.035 419.629C237.851 419.981 237.753 420.359 237.751 420.758L237.549 425.124C237.515 425.513 237.577 425.905 237.721 426.268C237.844 426.557 238.025 426.823 238.264 427.027C238.488 427.221 238.746 427.369 239.031 427.468C239.307 427.567 239.601 427.626 239.898 427.636C240.178 427.646 240.461 427.615 240.736 427.552C241.037 427.481 241.324 427.344 241.565 427.158L241.661 425.072L239.562 424.999L239.7 421.996L245.318 422.191L245.013 428.806C244.665 429.217 244.248 429.568 243.793 429.845L243.786 429.828Z" fill="#F3F0F0"/>
<path d="M244.485 436.027L219.568 435.16L219.412 438.55L244.329 439.417L244.485 436.027Z" fill="#F3F0F0"/>
</g>
<path d="M125.989 393.773C125.989 393.773 118.321 404.227 115.132 411.053C111.944 417.879 85.5574 475.196 83.9724 481.115C82.3782 487.024 78.2828 505.678 90.34 510.002H115.132L140.016 459.676L141.29 401.268L125.98 393.773H125.989Z" fill="#46474E"/>
<path d="M116.729 473.65C116.729 473.65 116.179 473.165 115.034 472.514C113.898 471.873 112.121 471.131 109.83 470.627C108.685 470.38 107.411 470.178 106.037 470.095C104.663 470.013 103.188 470.031 101.685 470.38C98.68 471.048 95.6841 472.945 93.3386 475.62C90.9565 478.286 89.4814 481.438 88.611 484.407C87.7315 487.384 87.3558 490.179 87.1176 492.515C86.8886 494.86 86.7969 496.766 86.7145 498.085C86.6778 498.699 86.6412 499.203 86.6229 499.606C86.5954 499.954 86.5771 500.138 86.5587 500.138C86.5404 500.138 86.5312 499.954 86.5312 499.606C86.5312 499.203 86.5312 498.699 86.5312 498.085C86.5587 496.766 86.5954 494.851 86.7786 492.487C86.971 490.133 87.3192 487.311 88.1804 484.287C89.0325 481.273 90.5259 478.03 92.9721 475.309C95.3726 472.578 98.4602 470.627 101.584 469.958C103.142 469.61 104.663 469.601 106.055 469.711C107.448 469.811 108.74 470.031 109.894 470.306C112.212 470.856 113.99 471.653 115.117 472.358C115.676 472.716 116.088 473.036 116.344 473.266C116.601 473.504 116.729 473.641 116.711 473.65H116.729Z" fill="#8F8F92"/>
<path d="M104.977 463.627C104.977 463.627 105.27 463.545 105.81 463.49C106.351 463.426 107.139 463.407 108.11 463.462C109.081 463.508 110.236 463.673 111.491 463.966C112.737 464.278 114.093 464.736 115.44 465.368C116.777 466.018 117.987 466.779 119.013 467.558C120.03 468.355 120.882 469.143 121.532 469.876C122.183 470.599 122.668 471.222 122.952 471.681C123.246 472.139 123.401 472.395 123.374 472.414C123.301 472.468 122.632 471.47 121.285 470.105C120.616 469.418 119.755 468.666 118.747 467.915C117.721 467.173 116.539 466.44 115.229 465.808C113.91 465.185 112.599 464.736 111.381 464.406C110.153 464.094 109.035 463.902 108.082 463.82C106.177 463.636 104.986 463.737 104.977 463.645V463.627Z" fill="#8F8F92"/>
<path d="M127.389 460.863C127.389 460.863 126.977 460.863 126.244 460.771C125.511 460.68 124.448 460.57 123.138 460.469C120.517 460.267 116.871 460.222 112.876 460.698C108.891 461.184 105.354 462.091 102.853 462.897C101.598 463.3 100.59 463.657 99.903 463.923C99.2158 464.18 98.8218 464.308 98.8127 464.28C98.8035 464.253 99.1608 464.06 99.8388 463.749C100.508 463.428 101.506 463.025 102.752 462.576C105.244 461.678 108.799 460.707 112.831 460.222C116.853 459.745 120.545 459.846 123.174 460.13C124.494 460.267 125.557 460.432 126.28 460.579C127.004 460.726 127.407 460.817 127.398 460.854L127.389 460.863Z" fill="#8F8F92"/>
<path d="M198.012 411.892C198.012 411.892 197.911 411.8 197.755 411.59C197.581 411.351 197.352 411.058 197.077 410.683C196.473 409.84 195.63 408.676 194.585 407.228C192.441 404.205 189.464 400 185.945 395.043L186.33 394.988C184.993 398.909 183.517 403.243 181.969 407.797L181.868 408.09L181.621 407.925C181.456 407.824 181.282 407.705 181.108 407.595C179.056 406.294 177.251 404.727 175.711 403.032C174.181 401.328 172.908 399.514 171.854 397.7C169.747 394.063 168.473 390.48 167.612 387.448C166.751 384.406 166.311 381.877 166.009 380.146C165.862 379.312 165.752 378.652 165.661 378.148C165.615 377.919 165.569 377.754 165.542 377.635C165.496 377.525 165.478 377.47 165.487 377.47C165.587 377.425 165.853 378.387 166.192 380.118C166.549 381.841 167.044 384.351 167.942 387.365C168.84 390.37 170.132 393.916 172.239 397.489C173.293 399.276 174.548 401.053 176.06 402.73C177.571 404.388 179.358 405.918 181.364 407.201C181.538 407.311 181.713 407.421 181.868 407.522L181.52 407.65C183.087 403.096 184.571 398.772 185.918 394.86L186.055 394.447L186.303 394.805C189.757 399.798 192.689 404.04 194.796 407.091C195.804 408.566 196.601 409.757 197.187 410.618C197.444 411.003 197.645 411.315 197.81 411.562C197.948 411.782 198.021 411.901 198.003 411.901L198.012 411.892Z" fill="#8F8F92"/>
<path d="M225.699 442.239C225.699 442.239 221.686 443.347 224.7 451.566C227.705 459.775 228.713 459.28 230.711 466.958C232.717 474.645 235.053 481.653 238.562 485.987C242.071 490.33 255.1 499.18 255.1 499.18L266.79 488.159C266.79 488.159 264.866 479.94 265.325 474.37C265.783 468.799 266.955 455.093 266.79 452.757C266.626 450.42 264.115 444.74 264.115 444.74V440.855L258.105 422.357C258.105 422.357 254.761 420.855 253.597 426.196L251.591 420.525C251.591 420.525 248.421 420.021 247.578 426.526C246.744 433.04 248.247 442.055 248.247 442.055L246.579 453.407L244.078 461.094L241.906 461.424C241.906 461.424 238.636 460.535 236.849 454.378C235.062 448.231 230.216 440.883 225.708 442.22L225.699 442.239Z" fill="#DDC399"/>
<path d="M262.866 471.282C262.866 471.282 262.839 471.136 262.811 470.861C262.793 470.54 262.766 470.137 262.729 469.633C262.665 468.515 262.582 466.967 262.482 465.034C262.298 461.048 262.051 455.496 261.758 449.019L261.813 449.156C261.281 448.515 260.319 448.322 259.449 448.542C258.569 448.753 257.772 449.303 257.287 450.127C256.27 451.767 256.215 453.911 255.894 455.982C255.262 460.664 254.657 465.116 254.108 469.184C253.833 471.209 253.539 473.142 253.136 474.929C252.752 476.715 252.211 478.346 251.689 479.803C251.176 481.26 250.718 482.579 250.434 483.77C250.15 484.961 250.03 486.006 250.058 486.867C250.095 488.589 250.598 489.469 250.525 489.487C250.507 489.487 250.415 489.277 250.241 488.846C250.104 488.406 249.911 487.747 249.875 486.876C249.82 486.006 249.911 484.925 250.177 483.715C250.443 482.506 250.882 481.168 251.377 479.702C251.881 478.236 252.394 476.633 252.761 474.856C253.136 473.087 253.411 471.163 253.677 469.139C254.217 465.08 254.804 460.618 255.427 455.936C255.573 454.892 255.683 453.865 255.867 452.83C256.05 451.813 256.334 450.778 256.893 449.898C257.424 449 258.359 448.341 259.348 448.112C260.329 447.864 261.492 448.084 262.161 448.891L262.207 448.955V449.028C262.436 455.505 262.619 461.058 262.756 465.052C262.802 466.985 262.848 468.534 262.876 469.661C262.876 470.165 262.885 470.568 262.885 470.888C262.885 471.163 262.885 471.31 262.866 471.31V471.282Z" fill="#46474E"/>
<path d="M256.469 450.239C256.469 450.239 256.258 449.881 255.974 449.194C255.699 448.507 255.333 447.49 254.994 446.198C254.655 444.916 254.334 443.349 254.151 441.599C254.059 440.719 253.995 439.785 254.105 438.814C254.206 437.843 254.49 436.816 255.113 435.955C255.644 435.204 256.395 434.599 257.247 434.352L257.431 434.297L257.522 434.462C259.217 437.449 260.683 440.087 261.718 441.984C262.195 442.872 262.589 443.624 262.919 444.228C263.194 444.76 263.331 445.053 263.303 445.071C263.276 445.09 263.093 444.815 262.772 444.311C262.415 443.725 261.975 443.001 261.453 442.14C260.344 440.289 258.823 437.678 257.119 434.7L257.394 434.81C256.661 435.03 255.992 435.552 255.516 436.239C254.957 437.027 254.682 437.962 254.581 438.878C254.48 439.803 254.526 440.71 254.6 441.571C254.755 443.303 255.03 444.851 255.333 446.134C255.626 447.417 255.937 448.443 256.157 449.148C256.377 449.854 256.505 450.239 256.478 450.257L256.469 450.239Z" fill="#46474E"/>
<path d="M253.685 451.737C253.685 451.737 253.611 451.362 253.575 450.675C253.538 449.887 253.501 448.916 253.455 447.77C253.373 445.315 253.3 441.925 253.245 438.178C253.217 434.44 253.071 431.031 253.391 428.567C253.547 427.339 253.794 426.359 254.014 425.708C254.234 425.049 254.417 424.719 254.445 424.719C254.527 424.746 253.932 426.166 253.721 428.603C253.492 431.031 253.685 434.421 253.721 438.178C253.776 441.925 253.794 445.315 253.794 447.77C253.785 448.916 253.767 449.896 253.758 450.675C253.74 451.362 253.712 451.747 253.685 451.747V451.737Z" fill="#46474E"/>
<path d="M243.79 482.526C243.726 482.471 244.459 481.61 245.357 480.053C245.815 479.274 246.282 478.312 246.713 477.203C247.125 476.086 247.501 474.83 247.758 473.484C247.996 472.128 248.078 470.827 248.078 469.635C248.06 468.444 247.959 467.372 247.803 466.493C247.501 464.716 247.116 463.653 247.199 463.625C247.226 463.616 247.345 463.873 247.528 464.349C247.721 464.825 247.932 465.54 248.133 466.429C248.335 467.327 248.472 468.417 248.518 469.626C248.545 470.845 248.463 472.183 248.225 473.566C247.968 474.949 247.574 476.232 247.125 477.359C246.658 478.486 246.145 479.457 245.641 480.227C245.146 480.996 244.697 481.592 244.349 481.968C244.01 482.352 243.809 482.554 243.781 482.526H243.79Z" fill="#46474E"/>
<path d="M264.321 476.79L274.464 480.309C274.464 480.309 284.148 475.297 290.827 480.309C297.506 485.32 303.305 498.523 301.473 503.864C301.473 503.864 296.865 509.554 293.356 510.387C289.847 511.221 276.213 507.923 270.542 506.723C264.853 505.522 255.086 499.173 255.086 499.173L264.312 476.781L264.321 476.79Z" fill="#DDC399"/>
<path d="M265.561 491.737C265.561 491.737 265.488 491.416 265.451 490.839C265.415 490.152 265.36 489.337 265.305 488.393C265.195 486.322 265.057 483.464 265.012 480.294C264.966 477.124 265.057 474.256 265.25 472.185C265.341 471.15 265.451 470.316 265.552 469.739C265.653 469.171 265.726 468.85 265.763 468.86C265.836 468.869 265.68 470.142 265.58 472.204C265.479 474.265 265.442 477.124 265.488 480.285C265.543 483.381 265.598 486.185 265.635 488.375C265.644 489.41 265.644 490.253 265.635 490.83C265.616 491.407 265.589 491.728 265.561 491.728V491.737Z" fill="#46474E"/>
<path d="M299.013 479.915C298.94 479.988 297.896 478.54 295.642 476.873C293.416 475.205 289.806 473.428 285.536 473.19C281.258 472.961 277.474 474.326 275.082 475.737C272.654 477.148 271.463 478.467 271.399 478.384C271.381 478.366 271.665 478.027 272.233 477.477C272.801 476.928 273.699 476.195 274.908 475.443C277.3 473.932 281.166 472.475 285.564 472.713C289.961 472.961 293.645 474.839 295.853 476.598C296.97 477.477 297.786 478.302 298.29 478.916C298.803 479.521 299.041 479.896 299.023 479.905L299.013 479.915Z" fill="#8F8F92"/>
<path d="M297.714 471.458C297.65 471.559 296.294 470.185 293.49 469.131C290.733 468.05 286.454 467.555 282.065 468.792C279.876 469.406 277.869 470.277 276.156 471.248C274.443 472.228 273.013 473.3 271.877 474.271C270.741 475.242 269.871 476.094 269.266 476.681C268.671 477.267 268.341 477.597 268.313 477.579C268.295 477.56 268.579 477.194 269.129 476.553C269.688 475.92 270.521 475.032 271.648 474.015C272.766 472.998 274.195 471.88 275.927 470.863C277.659 469.855 279.693 468.948 281.928 468.325C286.427 467.061 290.815 467.629 293.6 468.811C295.011 469.388 296.056 470.057 296.725 470.57C297.073 470.817 297.302 471.055 297.467 471.202C297.632 471.349 297.714 471.44 297.696 471.449L297.714 471.458Z" fill="#8F8F92"/>
<path d="M297.799 464.136C297.771 464.228 296.003 463.687 293.053 463.293C291.578 463.082 289.809 462.963 287.849 462.963C285.888 462.991 283.735 463.156 281.499 463.531C279.273 463.934 277.193 464.521 275.333 465.162C273.492 465.831 271.87 466.546 270.56 467.251C267.93 468.634 266.446 469.743 266.391 469.67C266.373 469.642 266.73 469.358 267.408 468.854C267.738 468.598 268.16 468.305 268.673 467.993C269.177 467.682 269.745 467.297 270.404 466.949C271.705 466.207 273.336 465.446 275.187 464.75C277.056 464.081 279.163 463.476 281.417 463.064C283.68 462.679 285.861 462.533 287.849 462.523C289.837 462.551 291.614 462.707 293.098 462.963C293.841 463.055 294.5 463.229 295.087 463.348C295.673 463.467 296.168 463.605 296.562 463.724C297.368 463.962 297.808 464.108 297.799 464.136Z" fill="#8F8F92"/>
<path d="M220.073 374.406C220.073 374.406 220.541 375.286 220.779 377.1C221.026 378.905 220.99 381.617 220.394 384.97C220.092 386.647 219.689 388.488 219.084 390.458C218.452 392.428 217.499 394.444 216.418 396.551C214.228 400.765 211.48 405.355 208.3 410.257L207.925 410.825V410.138C207.925 407.045 207.916 403.8 207.908 400.429C205.511 402.36 203.011 404.38 200.437 406.46L199.758 407.008C197.791 413.276 196.489 420.252 195.977 427.509C195.203 437.861 195.785 456.554 195.882 458.809C195.89 458.952 195.895 459.026 195.895 459.026C195.894 459.059 195.89 458.983 195.882 458.809C195.753 456.595 194.709 437.991 195.492 427.482C196.014 420.17 197.333 413.134 199.331 406.812L199.349 406.748L199.404 406.702C202.22 404.436 204.961 402.236 207.58 400.133L207.98 399.812L208.337 399.528V399.987C208.337 403.262 208.329 406.428 208.321 409.46C214.441 399.949 219.375 391.667 220.147 384.943C220.779 381.617 220.852 378.923 220.642 377.127C220.55 376.22 220.376 375.551 220.266 375.093C220.119 374.644 220.064 374.415 220.064 374.415L220.073 374.406Z" fill="#8F8F92"/>
<path d="M203.075 451.172H202.772C201.553 451.197 200.469 452.308 200.469 453.528C200.469 454.748 201.545 455.867 202.756 455.909C203.975 455.951 205.127 454.908 205.202 453.696C205.286 452.476 204.277 451.298 203.067 451.172H203.075Z" fill="#65666D"/>
<path d="M203.083 434.578H202.78C201.561 434.603 200.477 435.714 200.477 436.934C200.477 438.154 201.553 439.273 202.763 439.315C203.983 439.357 205.134 438.314 205.21 437.102C205.294 435.891 204.285 434.704 203.075 434.578H203.083Z" fill="#65666D"/>
<path d="M202.768 425.097C203.985 425.139 205.135 424.096 205.211 422.884C205.287 421.672 204.288 420.485 203.079 420.367H202.777C201.559 420.392 200.477 421.503 200.477 422.724C200.477 423.944 201.551 425.064 202.76 425.106L202.768 425.097Z" fill="#65666D"/>
<path d="M214.482 381.556C213.777 376.095 213.2 371.542 213.163 370.974C213.163 370.974 231.414 366.869 230.406 348.417C229.92 339.493 227.419 321.206 224.973 304.687C222.343 286.949 206.511 274.214 188.609 275.405L186.831 275.524C167.719 277.925 159.089 295.507 162.021 314.536L172.337 378.368C172.337 378.368 176.735 392.486 186.153 394.933L198.027 411.901L199.988 404.598L208.838 396.893C208.838 396.893 210.872 394.694 213.2 390.397C215.105 386.879 214.702 383.269 214.473 381.556H214.482Z" fill="#DDC399"/>
<path d="M213.171 370.699C213.171 370.699 201.581 372.431 188.672 365.477C188.672 365.477 195.241 378.367 213.528 375.472L213.171 370.699Z" fill="#46474E"/>
<path d="M219.05 320.538C219.196 321.921 218.133 323.186 216.686 323.369C215.238 323.543 213.956 322.563 213.809 321.179C213.671 319.796 214.725 318.522 216.164 318.348C217.611 318.174 218.894 319.154 219.04 320.547L219.05 320.538Z" fill="#46474E"/>
<path d="M221.628 313.995C221.325 314.362 219.227 313.015 216.396 313.217C213.565 313.372 211.577 314.967 211.247 314.646C211.082 314.499 211.375 313.858 212.237 313.143C213.079 312.429 214.564 311.687 216.323 311.577C218.091 311.467 219.621 312.016 220.519 312.63C221.435 313.244 221.774 313.84 221.618 314.005L221.628 313.995Z" fill="#46474E"/>
<path d="M192.262 322.46C192.399 323.843 191.346 325.108 189.898 325.291C188.451 325.465 187.168 324.485 187.021 323.101C186.875 321.718 187.938 320.444 189.385 320.27C190.833 320.096 192.115 321.076 192.262 322.469V322.46Z" fill="#46474E"/>
<path d="M193.799 316.394C193.497 316.76 191.399 315.413 188.568 315.615C185.737 315.771 183.749 317.365 183.419 317.044C183.254 316.898 183.547 316.256 184.408 315.542C185.251 314.827 186.736 314.085 188.495 313.975C190.263 313.865 191.793 314.415 192.691 315.029C193.607 315.643 193.946 316.238 193.79 316.403L193.799 316.394Z" fill="#46474E"/>
<path d="M205.496 336.718C205.469 336.553 207.209 336.131 210.04 335.582C210.764 335.463 211.433 335.27 211.525 334.766C211.662 334.235 211.305 333.474 210.902 332.65C210.105 330.946 209.271 329.159 208.391 327.281C204.891 319.631 202.308 313.327 202.619 313.19C202.931 313.052 206.009 319.136 209.509 326.786C210.352 328.674 211.158 330.469 211.928 332.192C212.258 332.998 212.789 333.896 212.496 335.004C212.34 335.554 211.836 335.985 211.378 336.141C210.92 336.315 210.517 336.351 210.16 336.397C207.301 336.745 205.514 336.874 205.496 336.718Z" fill="#46474E"/>
<path d="M193.792 305.246C193.563 306.034 190.714 305.86 187.415 306.483C184.108 307.042 181.488 308.197 181.002 307.528C180.782 307.207 181.204 306.456 182.239 305.631C183.265 304.816 184.932 303.991 186.911 303.634C188.89 303.286 190.741 303.478 191.987 303.89C193.242 304.303 193.893 304.862 193.801 305.237L193.792 305.246Z" fill="#46474E"/>
<path d="M220.044 305.875C219.586 306.553 217.589 306.012 215.243 306.14C212.889 306.186 210.937 306.864 210.433 306.223C210.213 305.911 210.479 305.242 211.304 304.574C212.119 303.905 213.521 303.318 215.133 303.254C216.746 303.199 218.184 303.685 219.045 304.29C219.916 304.894 220.237 305.545 220.035 305.865L220.044 305.875Z" fill="#46474E"/>
<path d="M164.447 328.106C164.126 327.987 151.528 325.211 152.774 337.79C154.02 350.37 167.653 346.274 167.644 345.908C167.635 345.541 164.456 328.115 164.456 328.115L164.447 328.106Z" fill="#DDC399"/>
<path d="M162.07 341.771C162.006 341.734 161.868 341.945 161.511 342.156C161.163 342.357 160.558 342.531 159.88 342.348C158.506 341.991 157.177 339.994 156.884 337.731C156.737 336.585 156.875 335.477 157.186 334.533C157.48 333.571 158.011 332.875 158.671 332.691C159.321 332.472 159.834 332.829 160.027 333.168C160.228 333.507 160.173 333.763 160.246 333.773C160.283 333.8 160.494 333.534 160.347 333.021C160.274 332.774 160.091 332.499 159.779 332.279C159.449 332.059 159 331.986 158.533 332.078C157.571 332.243 156.783 333.223 156.435 334.258C156.032 335.303 155.858 336.558 156.023 337.841C156.353 340.369 157.892 342.614 159.761 342.953C160.668 343.1 161.383 342.761 161.731 342.422C162.088 342.073 162.125 341.78 162.079 341.762L162.07 341.771Z" fill="#46474E"/>
<path d="M163.752 333.046C160.537 329.491 157.302 325.899 154.957 321.712C152.621 317.535 151.219 312.651 151.998 307.924C152.446 305.157 153.628 302.527 153.812 299.724C154.068 295.876 152.456 291.854 153.812 288.253C155.946 282.618 163.532 281.748 168.132 277.854C171.714 274.821 173.464 269.901 177.404 267.345C180.849 265.119 185.274 265.165 189.333 265.742C193.391 266.319 197.478 267.345 201.546 266.795C204.441 266.402 207.171 265.238 210.011 264.532C212.851 263.827 216.012 263.644 218.541 265.11C221.07 266.576 222.49 270.167 220.832 272.577C225.541 270.405 231.524 274.079 232.815 279.1C234.107 284.121 231.524 289.554 227.529 292.861C223.534 296.178 218.376 297.717 213.282 298.679C198.852 301.4 183.203 299.861 170.77 292.055" fill="#B18C5E"/>
<path d="M224.053 287.506C223.191 292.517 213.031 297.098 204.611 296.86C196.851 296.631 193.012 292.783 187.368 290.044C184.986 288.889 182.182 288.575 178.957 289.1C175.045 289.741 173.011 294.359 170.812 297.666C174.999 306.801 173.313 317.42 171.536 327.315C171.344 328.405 171.096 329.587 170.263 330.32C168.852 331.566 166.552 330.824 165.159 329.55C162.933 327.507 161.916 324.493 161.192 321.561C159.525 314.891 158.893 307.9 159.946 301.102C161 294.304 163.813 287.707 168.458 282.632C174.257 276.291 182.741 272.636 191.326 272.196C199.911 271.756 208.532 274.413 215.715 279.123C219.05 281.303 222.165 284.006 224.053 287.524" fill="#B18C5E"/>
<path d="M207.336 343.087C205.202 342.089 203.058 341.09 200.923 340.1C200.557 339.926 200.163 339.752 199.76 339.807C199.301 339.871 198.944 340.21 198.651 340.558C197.167 342.363 196.791 345.075 197.936 347.109C199.091 349.143 201.793 350.215 203.956 349.317C206.228 348.374 207.336 345.735 207.511 343.28L207.336 343.078V343.087Z" fill="#46474E"/>
<path d="M204.167 349.781C204.185 349.836 203.873 350.02 203.232 350.157C202.6 350.276 201.61 350.322 200.474 349.955C199.347 349.589 198.074 348.719 197.286 347.308C196.489 345.933 196.196 344 196.892 342.25C197.222 341.38 197.744 340.61 198.376 340.006C198.697 339.703 199.027 339.447 199.421 339.218C199.622 339.108 199.87 338.998 200.163 338.979C200.447 338.961 200.703 339.034 200.905 339.126C201.326 339.309 201.592 339.511 201.904 339.694C202.206 339.877 202.49 340.06 202.774 340.235C203.324 340.583 203.846 340.903 204.332 341.215C206.237 342.424 207.373 343.231 207.309 343.34C207.245 343.45 205.981 342.855 203.993 341.801C203.489 341.526 202.948 341.233 202.371 340.922C202.078 340.757 201.784 340.592 201.473 340.427C201.171 340.262 200.832 340.051 200.566 339.951C200.273 339.85 200.144 339.859 199.86 340.015C199.586 340.189 199.274 340.427 199.018 340.684C198.486 341.206 198.056 341.856 197.772 342.598C197.185 344.073 197.396 345.677 198.046 346.895C198.688 348.123 199.723 348.929 200.694 349.332C201.675 349.745 202.572 349.8 203.177 349.8C203.791 349.781 204.13 349.726 204.157 349.8L204.167 349.781Z" fill="#46474E"/>
<path d="M202.138 320.86C202.065 320.86 202.148 319.687 201.635 317.672C201.131 315.702 199.811 312.797 196.843 310.553C195.368 309.453 193.517 308.528 191.382 308.152C189.257 307.795 186.865 307.859 184.593 308.729C183.448 309.133 182.339 309.728 181.332 310.489C180.305 311.231 179.371 312.156 178.601 313.228C177.016 315.344 176.118 318.056 176.091 320.851C176.118 323.645 177.007 326.366 178.601 328.483C179.371 329.555 180.305 330.48 181.332 331.222C182.349 331.983 183.448 332.587 184.593 332.981C186.865 333.852 189.266 333.916 191.382 333.558C193.517 333.183 195.368 332.257 196.843 331.158C199.811 328.913 201.131 326.009 201.635 324.039C202.148 322.024 202.065 320.851 202.138 320.851C202.138 320.851 202.148 320.924 202.157 321.062C202.157 321.236 202.157 321.437 202.157 321.685C202.157 321.959 202.138 322.298 202.074 322.702C202.019 323.105 201.974 323.572 201.827 324.076C201.616 325.102 201.149 326.33 200.407 327.622C199.656 328.913 198.565 330.269 197.063 331.424C195.569 332.569 193.673 333.54 191.474 333.943C189.293 334.328 186.82 334.273 184.465 333.394C183.274 332.981 182.129 332.367 181.075 331.579C180.012 330.81 179.041 329.857 178.244 328.748C176.595 326.568 175.66 323.746 175.633 320.842C175.66 317.946 176.595 315.125 178.244 312.944C179.041 311.835 180.012 310.883 181.075 310.113C182.129 309.334 183.274 308.711 184.465 308.299C186.829 307.41 189.293 307.355 191.474 307.749C193.673 308.152 195.569 309.133 197.063 310.269C198.565 311.423 199.656 312.779 200.407 314.071C201.149 315.372 201.616 316.59 201.827 317.617C201.974 318.121 202.019 318.588 202.074 318.991C202.138 319.394 202.157 319.733 202.157 320.008C202.157 320.255 202.157 320.466 202.157 320.631C202.157 320.778 202.157 320.851 202.138 320.851V320.86Z" fill="#46474E"/>
<path d="M233.518 319.624C233.445 319.624 233.518 318.479 233.023 316.518C232.528 314.594 231.246 311.763 228.35 309.583C226.921 308.511 225.116 307.604 223.037 307.247C220.966 306.898 218.639 306.963 216.422 307.815C215.304 308.199 214.232 308.795 213.242 309.528C212.244 310.252 211.337 311.159 210.585 312.203C209.037 314.265 208.167 316.903 208.139 319.634C208.167 322.364 209.037 325.002 210.585 327.064C211.337 328.108 212.244 329.006 213.242 329.739C214.232 330.481 215.304 331.068 216.422 331.453C218.639 332.295 220.966 332.369 223.037 332.021C225.116 331.654 226.921 330.747 228.35 329.684C231.246 327.495 232.528 324.673 233.023 322.749C233.518 320.788 233.435 319.643 233.509 319.643C233.527 319.643 233.527 319.927 233.509 320.458C233.509 320.724 233.5 321.063 233.435 321.448C233.38 321.842 233.335 322.291 233.197 322.785C232.757 324.746 231.493 327.669 228.552 329.95C227.095 331.068 225.245 332.021 223.101 332.405C220.975 332.781 218.565 332.726 216.266 331.865C215.111 331.471 213.994 330.866 212.968 330.097C211.932 329.345 210.989 328.411 210.21 327.339C208.597 325.213 207.69 322.465 207.672 319.634C207.699 316.803 208.606 314.063 210.21 311.928C210.989 310.847 211.932 309.913 212.968 309.171C213.994 308.41 215.111 307.805 216.266 307.402C218.565 306.541 220.975 306.486 223.101 306.862C225.245 307.256 227.095 308.209 228.552 309.317C231.493 311.598 232.748 314.512 233.197 316.482C233.335 316.977 233.38 317.426 233.435 317.819C233.5 318.213 233.518 318.543 233.509 318.809C233.527 319.35 233.518 319.624 233.509 319.624H233.518Z" fill="#46474E"/>
<path d="M207.917 316.722C207.862 316.777 207.559 316.52 207.01 316.254C206.46 315.989 205.626 315.732 204.701 315.751C203.766 315.76 202.951 316.053 202.41 316.337C201.861 316.621 201.577 316.887 201.522 316.841C201.476 316.804 201.687 316.438 202.236 316.053C202.777 315.668 203.656 315.292 204.692 315.274C205.718 315.256 206.625 315.595 207.175 315.961C207.734 316.328 207.963 316.685 207.926 316.722H207.917Z" fill="#46474E"/>
<path d="M176.658 318.996C176.74 319.106 174.166 321.158 170.913 323.577C167.661 326.005 164.967 327.883 164.885 327.782C164.802 327.672 167.377 325.629 170.629 323.201C173.882 320.773 176.575 318.895 176.658 318.996Z" fill="#46474E"/>
<path d="M252.312 419.377C252.312 419.377 252.404 419.01 252.642 418.378C252.926 417.654 253.275 416.766 253.687 415.712C254.576 413.467 255.794 410.361 257.077 406.917C258.359 403.463 259.468 400.32 260.265 398.048C260.641 396.985 260.961 396.087 261.218 395.354C261.447 394.722 261.594 394.374 261.621 394.383C261.649 394.392 261.566 394.759 261.392 395.409C261.218 396.06 260.943 397.003 260.586 398.158C259.871 400.467 258.808 403.637 257.526 407.091C256.243 410.545 254.969 413.632 254.007 415.85C253.522 416.958 253.119 417.847 252.826 418.461C252.532 419.065 252.358 419.395 252.322 419.386L252.312 419.377Z" fill="#46474E"/>
<path d="M136.812 420.273C136.683 420.301 135.685 415.94 134.585 410.534C133.486 405.128 132.698 400.731 132.826 400.703C132.954 400.676 133.953 405.037 135.053 410.442C136.152 415.848 136.94 420.246 136.812 420.273Z" fill="#46474E"/>
<path d="M135.072 474.777C135.365 474.924 131.719 446.229 131.719 446.229C131.719 446.229 134.018 424.451 135.31 423.443L135.347 415.756C135.347 415.756 138.911 413.594 139.864 417.084C139.864 417.084 143.025 414.345 143.574 420.868C144.124 427.392 144.243 434.071 144.243 434.071L151.27 451.643L152.425 452.23C152.425 452.23 153.937 438.459 154.816 436.434C155.696 434.41 156.3 429.48 159.626 430.223C162.952 430.965 163.236 433.722 162.64 438.212C162.045 442.701 161.294 447.337 161.569 450.242C161.843 453.146 163.163 459.532 162.76 464.598C162.356 469.674 159.58 475.025 156.658 478.781C153.744 482.538 148.174 490.307 145.141 492.652C144.087 493.468 135.072 474.768 135.072 474.768V474.777Z" fill="#DDC399"/>
<path d="M138.63 451.418C138.63 451.418 138.602 450.978 138.648 450.19C138.712 449.311 138.785 448.193 138.877 446.855C139.088 444.043 139.418 440.158 139.812 435.87C140.013 433.735 140.205 431.701 140.38 429.832C140.471 428.907 140.526 428.037 140.416 427.239C140.306 426.442 139.995 425.755 139.537 425.26C138.611 424.253 137.411 423.996 136.669 423.996C135.89 423.996 135.487 424.198 135.469 424.152C135.469 424.134 135.56 424.088 135.753 424.005C135.954 423.932 136.257 423.84 136.66 423.813C137.448 423.758 138.73 423.959 139.784 425.031C140.306 425.563 140.673 426.332 140.801 427.185C140.948 428.037 140.893 428.944 140.819 429.878C140.654 431.747 140.471 433.781 140.288 435.925C139.894 440.213 139.509 444.088 139.216 446.892C139.06 448.22 138.941 449.338 138.831 450.209C138.73 450.997 138.657 451.427 138.63 451.418Z" fill="#46474E"/>
<path d="M142.392 439.69C142.466 439.745 141.678 440.442 141.146 441.953C140.578 443.447 140.377 445.701 139.983 448.147C139.607 450.602 139.232 452.82 138.948 454.423C138.654 456.026 138.444 457.007 138.38 456.997C138.315 456.988 138.407 455.98 138.618 454.368C138.819 452.755 139.14 450.529 139.516 448.074C139.91 445.637 140.166 443.364 140.844 441.825C141.165 441.056 141.55 440.497 141.861 440.149C142.163 439.8 142.383 439.663 142.402 439.681L142.392 439.69Z" fill="#46474E"/>
<path d="M139.817 416.703C139.817 416.703 139.936 417.024 140.064 417.601C140.192 418.187 140.348 419.039 140.531 420.102C140.879 422.219 141.264 425.16 141.512 428.43C141.75 431.701 141.805 434.67 141.768 436.814C141.75 437.886 141.722 438.756 141.677 439.352C141.64 439.947 141.603 440.286 141.567 440.277C141.493 440.277 141.484 438.948 141.429 436.814C141.374 434.679 141.273 431.72 141.035 428.467C140.797 425.215 140.467 422.274 140.201 420.148C139.936 418.022 139.762 416.712 139.826 416.703H139.817Z" fill="#46474E"/>
<path d="M160.088 443.603C160.162 443.713 159.062 444.216 157.724 443.804C156.378 443.401 155.755 442.366 155.874 442.32C155.975 442.228 156.68 443.007 157.862 443.355C159.035 443.731 160.052 443.474 160.088 443.612V443.603Z" fill="#46474E"/>
<path d="M135.472 471.204L116.901 479.01H105.833C105.833 479.01 94.8843 482.428 93.2077 492.68C91.5219 502.942 91.2837 508.219 96.0937 509.483C100.904 510.757 114.491 510.894 121.225 508.659C127.959 506.423 145.605 492.185 145.605 492.185L147.309 481.887L135.472 471.195V471.204Z" fill="#DDC399"/>
<path d="M139.816 482.538C139.816 482.538 139.606 482.391 139.285 482.052C138.955 481.731 138.552 481.2 138.076 480.522C137.159 479.148 136.152 477.068 135.483 474.649C134.786 472.231 134.493 469.968 134.337 468.337C134.2 466.706 134.209 465.689 134.264 465.68C134.337 465.68 134.447 466.678 134.667 468.291C134.905 469.903 135.254 472.13 135.932 474.512C136.591 476.903 137.526 478.946 138.35 480.339C139.184 481.722 139.862 482.483 139.798 482.538H139.816Z" fill="#46474E"/>
<path d="M147.922 485.804C147.821 485.767 148.655 484.356 148.975 481.818C149.131 480.563 149.113 479.033 148.755 477.393C148.398 475.753 147.619 474.067 146.483 472.491C145.356 470.906 144.083 469.532 143.02 468.204C141.939 466.875 141.078 465.583 140.51 464.41C139.942 463.238 139.676 462.202 139.575 461.479C139.484 460.755 139.52 460.352 139.539 460.352C139.63 460.333 139.603 461.992 140.803 464.255C141.389 465.382 142.269 466.628 143.35 467.92C144.431 469.221 145.714 470.595 146.868 472.207C148.032 473.811 148.838 475.588 149.186 477.292C149.534 478.987 149.516 480.572 149.314 481.855C149.113 483.147 148.755 484.145 148.462 484.805C148.325 485.135 148.187 485.382 148.087 485.547C147.995 485.712 147.931 485.795 147.922 485.785V485.804Z" fill="#46474E"/>
<defs>
<filter id="filter0_d_5217_99593" x="67.1799" y="0.589928" width="357.64" height="403.308" filterUnits="userSpaceOnUse" color-interpolation-filters="sRGB">
<feFlood flood-opacity="0" result="BackgroundImageFix"/>
<feColorMatrix in="SourceAlpha" type="matrix" values="0 0 0 0 0 0 0 0 0 0 0 0 0 0 0 0 0 0 127 0" result="hardAlpha"/>
<feOffset dy="22.4101"/>
<feGaussianBlur stdDeviation="22.4101"/>
<feComposite in2="hardAlpha" operator="out"/>
<feColorMatrix type="matrix" values="0 0 0 0 0.27451 0 0 0 0 0.278431 0 0 0 0 0.305882 0 0 0 0.2 0"/>
<feBlend mode="multiply" in2="BackgroundImageFix" result="effect1_dropShadow_5217_99593"/>
<feBlend mode="normal" in="SourceGraphic" in2="effect1_dropShadow_5217_99593" result="shape"/>
</filter>
<filter id="filter1_d_5217_99593" x="0.403557" y="260.217" width="410.794" height="326.685" filterUnits="userSpaceOnUse" color-interpolation-filters="sRGB">
<feFlood flood-opacity="0" result="BackgroundImageFix"/>
<feColorMatrix in="SourceAlpha" type="matrix" values="0 0 0 0 0 0 0 0 0 0 0 0 0 0 0 0 0 0 127 0" result="hardAlpha"/>
<feOffset dy="16.8138"/>
<feGaussianBlur stdDeviation="16.8138"/>
<feComposite in2="hardAlpha" operator="out"/>
<feColorMatrix type="matrix" values="0 0 0 0 0.27451 0 0 0 0 0.278431 0 0 0 0 0.305882 0 0 0 0.2 0"/>
<feBlend mode="multiply" in2="BackgroundImageFix" result="effect1_dropShadow_5217_99593"/>
<feBlend mode="normal" in="SourceGraphic" in2="effect1_dropShadow_5217_99593" result="shape"/>
</filter>
<clipPath id="clip0_5217_99593">
<path d="M112 40.0078H380V323.223C380 330.649 373.98 336.669 366.554 336.669H125.446C118.02 336.669 112 330.649 112 323.223V40.0078Z" fill="white"/>
</clipPath>
<clipPath id="clip1_5217_99593">
<rect width="255.936" height="292.129" fill="white" transform="translate(118.031 40.0078)"/>
</clipPath>
<clipPath id="clip2_5217_99593">
<rect width="45.0154" height="10.6615" fill="white" transform="translate(60.0938 484.344)"/>
</clipPath>
<clipPath id="clip3_5217_99593">
<rect width="25.0176" height="24.1062" fill="white" transform="matrix(0.99939 0.0347717 -0.0460529 0.998932 220.529 414.445)"/>
</clipPath>
</defs>
</svg>
