<svg width="318" height="359" viewBox="0 0 318 359" fill="none" xmlns="http://www.w3.org/2000/svg">
<g filter="url(#filter0_d_5217_99261)">
<path d="M34 27.0883C34 21.5167 38.5167 17 44.0883 17H384.683C390.255 17 394.772 21.5167 394.772 27.0883V33.1636H34V27.0883Z" fill="#E8E8E8"/>
<rect x="42.4141" y="22.4688" width="5.04415" height="5.04415" rx="2.52208" fill="#ED695E"/>
<rect x="50.8203" y="22.4688" width="5.04415" height="5.04415" rx="2.52208" fill="#F5BF4F"/>
<rect x="59.2344" y="22.4688" width="5.04415" height="5.04415" rx="2.52208" fill="#61C454"/>
<path d="M34 33H395V297.912C395 303.483 390.483 308 384.912 308H44.0883C38.5167 308 34 303.483 34 297.912V33Z" fill="#E8E8E8"/>
<g clip-path="url(#clip0_5217_99261)">
<rect x="39" y="33" width="351" height="270" rx="6" fill="#F3F0F0"/>
<rect x="55.2656" y="82" width="80.4195" height="71.3154" rx="3.23435" fill="#E8E8E8"/>
<mask id="mask0_5217_99261" style="mask-type:luminance" maskUnits="userSpaceOnUse" x="55" y="82" width="77" height="72">
<rect x="55.2656" y="82" width="75.8675" height="71.3154" rx="3.23435" fill="white"/>
</mask>
<g mask="url(#mask0_5217_99261)">
</g>
<path fill-rule="evenodd" clip-rule="evenodd" d="M60.5703 113.483C60.5703 112.017 61.7592 110.828 63.2257 110.828H117.85C119.317 110.828 120.506 112.017 120.506 113.483C120.506 114.95 119.317 116.139 117.85 116.139H63.2257C61.7592 116.139 60.5703 114.95 60.5703 113.483Z" fill="#D7D7D7"/>
<path fill-rule="evenodd" clip-rule="evenodd" d="M60.5703 121.077C60.5703 119.611 61.7592 118.422 63.2257 118.422H114.057C115.523 118.422 116.712 119.611 116.712 121.077C116.712 122.544 115.523 123.733 114.057 123.733H63.2257C61.7592 123.733 60.5703 122.544 60.5703 121.077Z" fill="#D7D7D7"/>
<path fill-rule="evenodd" clip-rule="evenodd" d="M60.5703 129.421C60.5703 127.954 61.7592 126.766 63.2257 126.766H117.092C118.558 126.766 119.747 127.954 119.747 129.421C119.747 130.888 118.558 132.076 117.092 132.076H63.2257C61.7592 132.076 60.5703 130.888 60.5703 129.421Z" fill="#D7D7D7"/>
<path fill-rule="evenodd" clip-rule="evenodd" d="M60.5703 137.765C60.5703 136.298 61.7592 135.109 63.2257 135.109H112.54C114.006 135.109 115.195 136.298 115.195 137.765C115.195 139.231 114.006 140.42 112.54 140.42H63.2257C61.7592 140.42 60.5703 139.231 60.5703 137.765Z" fill="#D7D7D7"/>
<path fill-rule="evenodd" clip-rule="evenodd" d="M60.5703 145.351C60.5703 143.884 61.7592 142.695 63.2257 142.695H115.574C117.041 142.695 118.23 143.884 118.23 145.351C118.23 146.817 117.041 148.006 115.574 148.006H63.2257C61.7592 148.006 60.5703 146.817 60.5703 145.351Z" fill="#D7D7D7"/>
<path fill-rule="evenodd" clip-rule="evenodd" d="M60.5703 89.9679C60.5703 88.5013 61.7592 87.3125 63.2257 87.3125H111.022C112.489 87.3125 113.678 88.5013 113.678 89.9679C113.678 91.4344 112.489 92.6232 111.022 92.6232H63.2257C61.7592 92.6232 60.5703 91.4344 60.5703 89.9679Z" fill="#FFA469"/>
<path fill-rule="evenodd" clip-rule="evenodd" d="M60.5703 98.3116C60.5703 96.8451 61.7592 95.6562 63.2257 95.6562H97.366C98.8326 95.6562 100.021 96.8451 100.021 98.3116C100.021 99.7781 98.8326 100.967 97.366 100.967H63.2257C61.7592 100.967 60.5703 99.7781 60.5703 98.3116Z" fill="#FFA469"/>
<rect x="145" y="82" width="80.4195" height="71.3154" rx="3.23435" fill="#E8E8E8"/>
<mask id="mask1_5217_99261" style="mask-type:luminance" maskUnits="userSpaceOnUse" x="145" y="82" width="76" height="72">
<rect x="145" y="82" width="75.8675" height="71.3154" rx="3.23435" fill="white"/>
</mask>
<g mask="url(#mask1_5217_99261)">
</g>
<path fill-rule="evenodd" clip-rule="evenodd" d="M150.312 113.483C150.312 112.017 151.501 110.828 152.968 110.828H207.592C209.059 110.828 210.248 112.017 210.248 113.483C210.248 114.95 209.059 116.139 207.592 116.139H152.968C151.501 116.139 150.312 114.95 150.312 113.483Z" fill="#D7D7D7"/>
<path fill-rule="evenodd" clip-rule="evenodd" d="M150.312 121.077C150.312 119.611 151.501 118.422 152.968 118.422H203.799C205.266 118.422 206.454 119.611 206.454 121.077C206.454 122.544 205.266 123.733 203.799 123.733H152.968C151.501 123.733 150.312 122.544 150.312 121.077Z" fill="#D7D7D7"/>
<path fill-rule="evenodd" clip-rule="evenodd" d="M150.312 129.421C150.312 127.954 151.501 126.766 152.968 126.766H206.834C208.3 126.766 209.489 127.954 209.489 129.421C209.489 130.888 208.3 132.076 206.834 132.076H152.968C151.501 132.076 150.312 130.888 150.312 129.421Z" fill="#D7D7D7"/>
<path fill-rule="evenodd" clip-rule="evenodd" d="M150.312 137.765C150.312 136.298 151.501 135.109 152.968 135.109H202.282C203.748 135.109 204.937 136.298 204.937 137.765C204.937 139.231 203.748 140.42 202.282 140.42H152.968C151.501 140.42 150.312 139.231 150.312 137.765Z" fill="#D7D7D7"/>
<path fill-rule="evenodd" clip-rule="evenodd" d="M150.312 145.351C150.312 143.884 151.501 142.695 152.968 142.695H205.316C206.783 142.695 207.972 143.884 207.972 145.351C207.972 146.817 206.783 148.006 205.316 148.006H152.968C151.501 148.006 150.312 146.817 150.312 145.351Z" fill="#D7D7D7"/>
<path fill-rule="evenodd" clip-rule="evenodd" d="M150.312 89.9679C150.312 88.5013 151.501 87.3125 152.968 87.3125H200.764C202.231 87.3125 203.42 88.5013 203.42 89.9679C203.42 91.4344 202.231 92.6232 200.764 92.6232H152.968C151.501 92.6232 150.312 91.4344 150.312 89.9679Z" fill="#FCCD82"/>
<path fill-rule="evenodd" clip-rule="evenodd" d="M150.312 98.3116C150.312 96.8451 151.501 95.6562 152.968 95.6562H187.108C188.575 95.6562 189.764 96.8451 189.764 98.3116C189.764 99.7781 188.575 100.967 187.108 100.967H152.968C151.501 100.967 150.312 99.7781 150.312 98.3116Z" fill="#FCCD82"/>
<rect x="235" y="82" width="80.4195" height="71.3154" rx="3.23435" fill="#E8E8E8"/>
<mask id="mask2_5217_99261" style="mask-type:luminance" maskUnits="userSpaceOnUse" x="235" y="82" width="76" height="72">
<rect x="235" y="82" width="75.8675" height="71.3154" rx="3.23435" fill="white"/>
</mask>
<g mask="url(#mask2_5217_99261)">
</g>
<path fill-rule="evenodd" clip-rule="evenodd" d="M240.312 113.483C240.312 112.017 241.501 110.828 242.968 110.828H297.592C299.059 110.828 300.248 112.017 300.248 113.483C300.248 114.95 299.059 116.139 297.592 116.139H242.968C241.501 116.139 240.312 114.95 240.312 113.483Z" fill="#D7D7D7"/>
<path fill-rule="evenodd" clip-rule="evenodd" d="M240.312 121.077C240.312 119.611 241.501 118.422 242.968 118.422H293.799C295.266 118.422 296.454 119.611 296.454 121.077C296.454 122.544 295.266 123.733 293.799 123.733H242.968C241.501 123.733 240.312 122.544 240.312 121.077Z" fill="#D7D7D7"/>
<path fill-rule="evenodd" clip-rule="evenodd" d="M240.312 129.421C240.312 127.954 241.501 126.766 242.968 126.766H296.834C298.3 126.766 299.489 127.954 299.489 129.421C299.489 130.888 298.3 132.076 296.834 132.076H242.968C241.501 132.076 240.312 130.888 240.312 129.421Z" fill="#D7D7D7"/>
<path fill-rule="evenodd" clip-rule="evenodd" d="M240.312 137.765C240.312 136.298 241.501 135.109 242.968 135.109H292.282C293.748 135.109 294.937 136.298 294.937 137.765C294.937 139.231 293.748 140.42 292.282 140.42H242.968C241.501 140.42 240.312 139.231 240.312 137.765Z" fill="#D7D7D7"/>
<path fill-rule="evenodd" clip-rule="evenodd" d="M240.312 145.351C240.312 143.884 241.501 142.695 242.968 142.695H295.316C296.783 142.695 297.972 143.884 297.972 145.351C297.972 146.817 296.783 148.006 295.316 148.006H242.968C241.501 148.006 240.312 146.817 240.312 145.351Z" fill="#D7D7D7"/>
<path fill-rule="evenodd" clip-rule="evenodd" d="M240.312 89.9679C240.312 88.5013 241.501 87.3125 242.968 87.3125H290.764C292.231 87.3125 293.42 88.5013 293.42 89.9679C293.42 91.4344 292.231 92.6232 290.764 92.6232H242.968C241.501 92.6232 240.312 91.4344 240.312 89.9679Z" fill="#B5DE89"/>
<path fill-rule="evenodd" clip-rule="evenodd" d="M240.312 98.3116C240.312 96.8451 241.501 95.6562 242.968 95.6562H277.108C278.575 95.6562 279.764 96.8451 279.764 98.3116C279.764 99.7781 278.575 100.967 277.108 100.967H242.968C241.501 100.967 240.312 99.7781 240.312 98.3116Z" fill="#B5DE89"/>
<path d="M89.4653 153.547C89.4653 155.223 90.824 156.582 92.5 156.582C94.176 156.582 95.5347 155.223 95.5347 153.547C95.5347 151.871 94.176 150.512 92.5 150.512C90.824 150.512 89.4653 151.871 89.4653 153.547ZM184.902 153.145C184.68 152.922 184.32 152.922 184.098 153.145L180.477 156.766C180.254 156.988 180.254 157.348 180.477 157.57C180.699 157.793 181.059 157.793 181.281 157.57L184.5 154.352L187.719 157.57C187.941 157.793 188.301 157.793 188.523 157.57C188.746 157.348 188.746 156.988 188.523 156.766L184.902 153.145ZM92.5 168.219H91.931V168.788H92.5V168.219ZM184.5 168.219V168.788H185.069V168.219H184.5ZM91.931 153.547V168.219H93.069V153.547H91.931ZM92.5 168.788H184.5V167.65H92.5V168.788ZM185.069 168.219V153.547H183.931V168.219H185.069Z" fill="#FFA469"/>
<path fill-rule="evenodd" clip-rule="evenodd" d="M140.003 177.333C145.031 177.333 149.107 173.257 149.107 168.229C149.107 163.201 145.031 159.125 140.003 159.125C134.974 159.125 130.898 163.201 130.898 168.229C130.898 173.257 134.974 177.333 140.003 177.333Z" fill="#FFA469"/>
<path fill-rule="evenodd" clip-rule="evenodd" d="M137.059 167.934C136.677 167.552 136.058 167.552 135.677 167.934C135.295 168.316 135.295 168.934 135.677 169.316L138.351 171.929C138.777 172.355 139.483 172.298 139.835 171.809L144.399 165.743C144.714 165.305 144.614 164.694 144.176 164.379C143.738 164.064 143.128 164.164 142.812 164.602L138.92 169.734L137.059 167.934Z" fill="white"/>
<path d="M267.465 153.547C267.465 155.223 268.824 156.582 270.5 156.582C272.176 156.582 273.535 155.223 273.535 153.547C273.535 151.871 272.176 150.512 270.5 150.512C268.824 150.512 267.465 151.871 267.465 153.547ZM362.902 153.145C362.68 152.922 362.32 152.922 362.098 153.145L358.477 156.766C358.254 156.988 358.254 157.348 358.477 157.57C358.699 157.793 359.059 157.793 359.281 157.57L362.5 154.352L365.719 157.57C365.941 157.793 366.301 157.793 366.523 157.57C366.746 157.348 366.746 156.988 366.523 156.766L362.902 153.145ZM270.5 168.219H269.931V168.788H270.5V168.219ZM362.5 168.219V168.788H363.069V168.219H362.5ZM269.931 153.547V168.219H271.069V153.547H269.931ZM270.5 168.788H362.5V167.65H270.5V168.788ZM363.069 168.219V153.547H361.931V168.219H363.069Z" fill="#FFA469"/>
<path fill-rule="evenodd" clip-rule="evenodd" d="M318.003 177.333C323.031 177.333 327.107 173.257 327.107 168.229C327.107 163.201 323.031 159.125 318.003 159.125C312.974 159.125 308.898 163.201 308.898 168.229C308.898 173.257 312.974 177.333 318.003 177.333Z" fill="#FFA469"/>
<path fill-rule="evenodd" clip-rule="evenodd" d="M315.059 167.934C314.677 167.552 314.058 167.552 313.677 167.934C313.295 168.316 313.295 168.934 313.677 169.316L316.351 171.929C316.777 172.355 317.483 172.298 317.835 171.809L322.399 165.743C322.714 165.305 322.614 164.694 322.176 164.379C321.738 164.064 321.128 164.164 320.812 164.602L316.92 169.734L315.059 167.934Z" fill="white"/>
<path d="M276.598 82.0742C276.82 82.2964 277.18 82.2964 277.402 82.0742L281.023 78.4531C281.246 78.2309 281.246 77.8706 281.023 77.6484C280.801 77.4262 280.441 77.4262 280.219 77.6484L277 80.8672L273.781 77.6484C273.559 77.4262 273.199 77.4262 272.977 77.6484C272.754 77.8706 272.754 78.2309 272.977 78.4531L276.598 82.0742ZM188.035 81.6719C188.035 79.9958 186.676 78.6372 185 78.6372C183.324 78.6372 181.965 79.9958 181.965 81.6719C181.965 83.3479 183.324 84.7066 185 84.7066C186.676 84.7066 188.035 83.3479 188.035 81.6719ZM277 67L277.569 67L277.569 66.431L277 66.431L277 67ZM185 67L185 66.431L184.431 66.431L184.431 67L185 67ZM277.569 81.6719L277.569 67L276.431 67L276.431 81.6719L277.569 81.6719ZM277 66.431L185 66.431L185 67.569L277 67.569L277 66.431ZM184.431 67L184.431 81.6719L185.569 81.6719L185.569 67L184.431 67Z" fill="#FFA469"/>
<path fill-rule="evenodd" clip-rule="evenodd" d="M231.503 76.2082C236.531 76.2082 240.607 72.1322 240.607 67.1041C240.607 62.076 236.531 58 231.503 58C226.474 58 222.398 62.076 222.398 67.1041C222.398 72.1322 226.474 76.2082 231.503 76.2082Z" fill="#FFA469"/>
<path fill-rule="evenodd" clip-rule="evenodd" d="M228.559 66.809C228.177 66.4274 227.558 66.4274 227.177 66.809C226.795 67.1905 226.795 67.8092 227.177 68.1908L229.851 70.804C230.277 71.2301 230.983 71.1728 231.335 70.6836L235.899 64.618C236.214 64.1799 236.114 63.5693 235.676 63.2542C235.238 62.9392 234.628 63.0389 234.312 63.477L230.42 68.6093L228.559 66.809Z" fill="white"/>
<rect x="55.2656" y="214.664" width="80.4195" height="71.3154" rx="3.23435" fill="#E8E8E8"/>
<mask id="mask3_5217_99261" style="mask-type:luminance" maskUnits="userSpaceOnUse" x="55" y="214" width="77" height="72">
<rect x="55.2656" y="214.664" width="75.8675" height="71.3154" rx="3.23435" fill="white"/>
</mask>
<g mask="url(#mask3_5217_99261)">
</g>
<path fill-rule="evenodd" clip-rule="evenodd" d="M60.5703 246.155C60.5703 244.689 61.7592 243.5 63.2257 243.5H117.85C119.317 243.5 120.506 244.689 120.506 246.155C120.506 247.622 119.317 248.811 117.85 248.811H63.2257C61.7592 248.811 60.5703 247.622 60.5703 246.155Z" fill="#D7D7D7"/>
<path fill-rule="evenodd" clip-rule="evenodd" d="M60.5703 253.733C60.5703 252.267 61.7592 251.078 63.2257 251.078H114.057C115.523 251.078 116.712 252.267 116.712 253.733C116.712 255.2 115.523 256.389 114.057 256.389H63.2257C61.7592 256.389 60.5703 255.2 60.5703 253.733Z" fill="#D7D7D7"/>
<path fill-rule="evenodd" clip-rule="evenodd" d="M60.5703 262.077C60.5703 260.611 61.7592 259.422 63.2257 259.422H117.092C118.558 259.422 119.747 260.611 119.747 262.077C119.747 263.544 118.558 264.733 117.092 264.733H63.2257C61.7592 264.733 60.5703 263.544 60.5703 262.077Z" fill="#D7D7D7"/>
<path fill-rule="evenodd" clip-rule="evenodd" d="M60.5703 270.429C60.5703 268.962 61.7592 267.773 63.2257 267.773H112.54C114.006 267.773 115.195 268.962 115.195 270.429C115.195 271.895 114.006 273.084 112.54 273.084H63.2257C61.7592 273.084 60.5703 271.895 60.5703 270.429Z" fill="#D7D7D7"/>
<path fill-rule="evenodd" clip-rule="evenodd" d="M60.5703 278.015C60.5703 276.548 61.7592 275.359 63.2257 275.359H115.574C117.041 275.359 118.23 276.548 118.23 278.015C118.23 279.481 117.041 280.67 115.574 280.67H63.2257C61.7592 280.67 60.5703 279.481 60.5703 278.015Z" fill="#D7D7D7"/>
<path fill-rule="evenodd" clip-rule="evenodd" d="M60.5703 222.632C60.5703 221.165 61.7592 219.977 63.2257 219.977H111.022C112.489 219.977 113.678 221.165 113.678 222.632C113.678 224.098 112.489 225.287 111.022 225.287H63.2257C61.7592 225.287 60.5703 224.098 60.5703 222.632Z" fill="#FFA469"/>
<path fill-rule="evenodd" clip-rule="evenodd" d="M60.5703 230.976C60.5703 229.509 61.7592 228.32 63.2257 228.32H97.366C98.8326 228.32 100.021 229.509 100.021 230.976C100.021 232.442 98.8326 233.631 97.366 233.631H63.2257C61.7592 233.631 60.5703 232.442 60.5703 230.976Z" fill="#FFA469"/>
<rect x="145" y="214.664" width="80.4195" height="71.3154" rx="3.23435" fill="#E8E8E8"/>
<mask id="mask4_5217_99261" style="mask-type:luminance" maskUnits="userSpaceOnUse" x="145" y="214" width="76" height="72">
<rect x="145" y="214.664" width="75.8675" height="71.3154" rx="3.23435" fill="white"/>
</mask>
<g mask="url(#mask4_5217_99261)">
</g>
<path fill-rule="evenodd" clip-rule="evenodd" d="M150.312 246.155C150.312 244.689 151.501 243.5 152.968 243.5H207.592C209.059 243.5 210.248 244.689 210.248 246.155C210.248 247.622 209.059 248.811 207.592 248.811H152.968C151.501 248.811 150.312 247.622 150.312 246.155Z" fill="#D7D7D7"/>
<path fill-rule="evenodd" clip-rule="evenodd" d="M150.312 253.733C150.312 252.267 151.501 251.078 152.968 251.078H203.799C205.266 251.078 206.454 252.267 206.454 253.733C206.454 255.2 205.266 256.389 203.799 256.389H152.968C151.501 256.389 150.312 255.2 150.312 253.733Z" fill="#D7D7D7"/>
<path fill-rule="evenodd" clip-rule="evenodd" d="M150.312 262.077C150.312 260.611 151.501 259.422 152.968 259.422H206.834C208.3 259.422 209.489 260.611 209.489 262.077C209.489 263.544 208.3 264.733 206.834 264.733H152.968C151.501 264.733 150.312 263.544 150.312 262.077Z" fill="#D7D7D7"/>
<path fill-rule="evenodd" clip-rule="evenodd" d="M150.312 270.429C150.312 268.962 151.501 267.773 152.968 267.773H202.282C203.748 267.773 204.937 268.962 204.937 270.429C204.937 271.895 203.748 273.084 202.282 273.084H152.968C151.501 273.084 150.312 271.895 150.312 270.429Z" fill="#D7D7D7"/>
<path fill-rule="evenodd" clip-rule="evenodd" d="M150.312 278.015C150.312 276.548 151.501 275.359 152.968 275.359H205.316C206.783 275.359 207.972 276.548 207.972 278.015C207.972 279.481 206.783 280.67 205.316 280.67H152.968C151.501 280.67 150.312 279.481 150.312 278.015Z" fill="#D7D7D7"/>
<path fill-rule="evenodd" clip-rule="evenodd" d="M150.312 222.632C150.312 221.165 151.501 219.977 152.968 219.977H200.764C202.231 219.977 203.42 221.165 203.42 222.632C203.42 224.098 202.231 225.287 200.764 225.287H152.968C151.501 225.287 150.312 224.098 150.312 222.632Z" fill="#FCCD82"/>
<path fill-rule="evenodd" clip-rule="evenodd" d="M150.312 230.976C150.312 229.509 151.501 228.32 152.968 228.32H187.108C188.575 228.32 189.764 229.509 189.764 230.976C189.764 232.442 188.575 233.631 187.108 233.631H152.968C151.501 233.631 150.312 232.442 150.312 230.976Z" fill="#FCCD82"/>
<rect x="235" y="214.664" width="80.4195" height="71.3154" rx="3.23435" fill="#E8E8E8"/>
<mask id="mask5_5217_99261" style="mask-type:luminance" maskUnits="userSpaceOnUse" x="235" y="214" width="76" height="72">
<rect x="235" y="214.664" width="75.8675" height="71.3154" rx="3.23435" fill="white"/>
</mask>
<g mask="url(#mask5_5217_99261)">
</g>
<path fill-rule="evenodd" clip-rule="evenodd" d="M240.312 246.155C240.312 244.689 241.501 243.5 242.968 243.5H297.592C299.059 243.5 300.248 244.689 300.248 246.155C300.248 247.622 299.059 248.811 297.592 248.811H242.968C241.501 248.811 240.312 247.622 240.312 246.155Z" fill="#D7D7D7"/>
<path fill-rule="evenodd" clip-rule="evenodd" d="M240.312 253.733C240.312 252.267 241.501 251.078 242.968 251.078H293.799C295.266 251.078 296.454 252.267 296.454 253.733C296.454 255.2 295.266 256.389 293.799 256.389H242.968C241.501 256.389 240.312 255.2 240.312 253.733Z" fill="#D7D7D7"/>
<path fill-rule="evenodd" clip-rule="evenodd" d="M240.312 262.077C240.312 260.611 241.501 259.422 242.968 259.422H296.834C298.3 259.422 299.489 260.611 299.489 262.077C299.489 263.544 298.3 264.733 296.834 264.733H242.968C241.501 264.733 240.312 263.544 240.312 262.077Z" fill="#D7D7D7"/>
<path fill-rule="evenodd" clip-rule="evenodd" d="M240.312 270.429C240.312 268.962 241.501 267.773 242.968 267.773H292.282C293.748 267.773 294.937 268.962 294.937 270.429C294.937 271.895 293.748 273.084 292.282 273.084H242.968C241.501 273.084 240.312 271.895 240.312 270.429Z" fill="#D7D7D7"/>
<path fill-rule="evenodd" clip-rule="evenodd" d="M240.312 278.015C240.312 276.548 241.501 275.359 242.968 275.359H295.316C296.783 275.359 297.972 276.548 297.972 278.015C297.972 279.481 296.783 280.67 295.316 280.67H242.968C241.501 280.67 240.312 279.481 240.312 278.015Z" fill="#D7D7D7"/>
<path fill-rule="evenodd" clip-rule="evenodd" d="M240.312 222.632C240.312 221.165 241.501 219.977 242.968 219.977H290.764C292.231 219.977 293.42 221.165 293.42 222.632C293.42 224.098 292.231 225.287 290.764 225.287H242.968C241.501 225.287 240.312 224.098 240.312 222.632Z" fill="#B5DE89"/>
<path fill-rule="evenodd" clip-rule="evenodd" d="M240.312 230.976C240.312 229.509 241.501 228.32 242.968 228.32H277.108C278.575 228.32 279.764 229.509 279.764 230.976C279.764 232.442 278.575 233.631 277.108 233.631H242.968C241.501 233.631 240.312 232.442 240.312 230.976Z" fill="#B5DE89"/>
<path d="M62.4265 56.3438V48.4383H58.5278V56.3438H56.9898V47.0488H63.9914V56.3438H62.4265ZM66.7956 53.4703V53.8075C66.7956 54.0414 66.836 54.2437 66.917 54.4146C66.9979 54.5765 67.1013 54.7114 67.2273 54.8193C67.3622 54.9183 67.5151 54.9947 67.6859 55.0487C67.8658 55.0936 68.0502 55.1161 68.239 55.1161C68.4459 55.1161 68.6932 55.0801 68.981 55.0082C69.2778 54.9362 69.5701 54.7699 69.8579 54.509C70.0018 54.6799 70.1412 54.8463 70.2761 55.0082C70.42 55.1611 70.5594 55.323 70.6943 55.4938C70.3166 55.8626 69.9164 56.1099 69.4937 56.2358C69.08 56.3527 68.6617 56.4112 68.239 56.4112C67.8523 56.4112 67.4836 56.3617 67.1328 56.2628C66.7911 56.1639 66.4853 56.0155 66.2155 55.8176C65.9546 55.6108 65.7478 55.3544 65.5949 55.0487C65.442 54.7429 65.3656 54.3831 65.3656 53.9694V52.2156C65.3656 51.8109 65.433 51.4467 65.5679 51.1229C65.7118 50.7991 65.9097 50.5248 66.1615 50.3C66.4133 50.0752 66.7056 49.9043 67.0384 49.7874C67.3712 49.6614 67.7354 49.5985 68.1311 49.5985C68.5358 49.5985 68.9091 49.6569 69.2508 49.7739C69.5926 49.8908 69.8849 50.0617 70.1277 50.2865C70.3795 50.5024 70.5729 50.7677 70.7078 51.0824C70.8427 51.3972 70.9102 51.757 70.9102 52.1617V53.4703H66.7956ZM69.4667 52.2426C69.4667 51.775 69.3363 51.4377 69.0755 51.2308C68.8146 51.015 68.5044 50.9071 68.1446 50.9071C67.7849 50.9071 67.4701 51.0195 67.2003 51.2443C66.9395 51.4602 66.809 51.7884 66.809 52.2291V52.445H69.4667V52.2426ZM77.7784 54.0234C77.7784 54.7699 77.5716 55.3589 77.1579 55.7906C76.7531 56.2133 76.1776 56.4247 75.4311 56.4247C75.1972 56.4247 74.9184 56.4022 74.5947 56.3572C74.2709 56.3123 73.9156 56.1999 73.5289 56.02V59.0149H72.0989V49.6659H73.394L73.5289 50.327C73.9876 50.0482 74.3788 49.8593 74.7026 49.7604C75.0264 49.6524 75.3052 49.5985 75.539 49.5985C76.2315 49.5985 76.7756 49.7963 77.1714 50.1921C77.5761 50.5788 77.7784 51.1859 77.7784 52.0133V54.0234ZM76.3349 52.1347C76.3349 51.685 76.236 51.3792 76.0381 51.2174C75.8493 51.0465 75.6065 50.961 75.3097 50.961C75.1927 50.961 75.0578 50.979 74.9049 51.015C74.761 51.051 74.6082 51.1004 74.4463 51.1634C74.2844 51.2263 74.1225 51.2983 73.9606 51.3792C73.8077 51.4602 73.6638 51.5456 73.5289 51.6356V54.6844C73.8887 54.8373 74.1944 54.9407 74.4463 54.9947C74.7071 55.0487 74.9589 55.0756 75.2017 55.0756C75.3546 55.0756 75.4985 55.0577 75.6334 55.0217C75.7773 54.9857 75.8987 54.9227 75.9977 54.8328C76.1056 54.7339 76.1865 54.608 76.2405 54.4551C76.3035 54.3022 76.3349 54.1133 76.3349 53.8885V52.1347ZM84.5058 54.3337C84.5058 54.5945 84.4608 54.8463 84.3709 55.0891C84.2809 55.332 84.146 55.5478 83.9661 55.7367C83.7863 55.9166 83.5614 56.0649 83.2916 56.1819C83.0218 56.2898 82.707 56.3438 82.3473 56.3438H78.9612V49.6659H82.3203C82.6711 49.6659 82.9768 49.7154 83.2377 49.8143C83.4985 49.9133 83.7098 50.0482 83.8717 50.2191C84.0426 50.3809 84.1685 50.5743 84.2495 50.7991C84.3394 51.015 84.3844 51.2443 84.3844 51.4872C84.3844 51.748 84.3079 52.0088 84.155 52.2696C84.0111 52.5304 83.8088 52.7238 83.5479 52.8497C83.8627 52.9936 84.1011 53.2005 84.2629 53.4703C84.4248 53.7401 84.5058 54.0279 84.5058 54.3337ZM83.0488 54.2932C83.0488 54.0414 82.9589 53.8435 82.779 53.6996C82.5991 53.5557 82.3833 53.4838 82.1314 53.4838H80.4047V55.1431H82.0505C82.3923 55.1431 82.6441 55.0666 82.806 54.9138C82.9679 54.7609 83.0488 54.554 83.0488 54.2932ZM82.9544 51.5951C82.9544 51.3523 82.8644 51.1769 82.6846 51.069C82.5137 50.952 82.3113 50.8936 82.0775 50.8936H80.4047V52.2831H82.1179C82.3788 52.2831 82.5811 52.2246 82.725 52.1077C82.8779 51.9818 82.9544 51.8109 82.9544 51.5951ZM89.9434 51.9458L88.8777 53.6187L87.016 56.3438H85.7344V49.6659H87.1778V54.0504H87.2318L88.2166 52.5799L90.1593 49.6659H91.4543V56.3438H90.0109V51.9458H89.9434ZM93.9287 49.6524V51.6086C93.9287 52.0493 94.0321 52.3595 94.239 52.5394C94.4548 52.7193 94.7336 52.8092 95.0754 52.8092C95.3182 52.8092 95.588 52.7598 95.8848 52.6608C96.1906 52.5619 96.4874 52.4225 96.7752 52.2426V49.6524H98.1917V56.3438H96.7752V53.5242C96.3435 53.7581 95.9658 53.911 95.642 53.9829C95.3272 54.0549 95.0439 54.0908 94.7921 54.0908C94.0816 54.0908 93.5195 53.8975 93.1058 53.5107C92.7011 53.124 92.4987 52.5484 92.4987 51.784V49.6524H93.9287ZM103.738 56.3438V53.5782H100.918V56.3438H99.5019V49.6659H100.918V52.3371H103.738V49.6659H105.181V56.3438H103.738ZM112.621 56.3438V49.6659H114.024V56.3438H112.621ZM107.953 55.1296H109.532C109.873 55.1296 110.134 55.0532 110.314 54.9003C110.494 54.7384 110.584 54.518 110.584 54.2392C110.584 54.0234 110.503 53.8255 110.341 53.6456C110.179 53.4658 109.909 53.3758 109.532 53.3758H107.953V55.1296ZM106.537 56.3438V49.6524H107.953V52.1752H109.626C110.39 52.1752 110.975 52.3685 111.38 52.7553C111.784 53.133 111.987 53.6277 111.987 54.2392C111.987 54.527 111.937 54.8013 111.838 55.0622C111.748 55.314 111.605 55.5343 111.407 55.7232C111.209 55.9121 110.962 56.0649 110.665 56.1819C110.377 56.2898 110.035 56.3438 109.639 56.3438H106.537ZM116.779 53.4703V53.8075C116.779 54.0414 116.819 54.2437 116.9 54.4146C116.981 54.5765 117.085 54.7114 117.211 54.8193C117.346 54.9183 117.499 54.9947 117.669 55.0487C117.849 55.0936 118.034 55.1161 118.222 55.1161C118.429 55.1161 118.677 55.0801 118.964 55.0082C119.261 54.9362 119.554 54.7699 119.841 54.509C119.985 54.6799 120.125 54.8463 120.26 55.0082C120.403 55.1611 120.543 55.323 120.678 55.4938C120.3 55.8626 119.9 56.1099 119.477 56.2358C119.063 56.3527 118.645 56.4112 118.222 56.4112C117.836 56.4112 117.467 56.3617 117.116 56.2628C116.775 56.1639 116.469 56.0155 116.199 55.8176C115.938 55.6108 115.731 55.3544 115.578 55.0487C115.425 54.7429 115.349 54.3831 115.349 53.9694V52.2156C115.349 51.8109 115.416 51.4467 115.551 51.1229C115.695 50.7991 115.893 50.5248 116.145 50.3C116.397 50.0752 116.689 49.9043 117.022 49.7874C117.355 49.6614 117.719 49.5985 118.115 49.5985C118.519 49.5985 118.893 49.6569 119.234 49.7739C119.576 49.8908 119.868 50.0617 120.111 50.2865C120.363 50.5024 120.556 50.7677 120.691 51.0824C120.826 51.3972 120.894 51.757 120.894 52.1617V53.4703H116.779ZM119.45 52.2426C119.45 51.775 119.32 51.4377 119.059 51.2308C118.798 51.015 118.488 50.9071 118.128 50.9071C117.768 50.9071 117.454 51.0195 117.184 51.2443C116.923 51.4602 116.792 51.7884 116.792 52.2291V52.445H119.45V52.2426ZM61.1314 69.3438V63.9206H58.3254V69.3438H56.8954V62.6659H62.5749V69.3438H61.1314ZM69.5576 67.0234C69.5576 67.7699 69.3508 68.3589 68.9371 68.7906C68.5324 69.2133 67.9568 69.4247 67.2103 69.4247C66.9765 69.4247 66.6976 69.4022 66.3739 69.3572C66.0501 69.3123 65.6949 69.1999 65.3081 69.02V72.0149H63.8781V62.6659H65.1732L65.3081 63.327C65.7668 63.0482 66.158 62.8593 66.4818 62.7604C66.8056 62.6524 67.0844 62.5985 67.3182 62.5985C68.0107 62.5985 68.5548 62.7963 68.9506 63.1921C69.3553 63.5788 69.5576 64.1859 69.5576 65.0133V67.0234ZM68.1142 65.1347C68.1142 64.685 68.0152 64.3792 67.8174 64.2174C67.6285 64.0465 67.3857 63.961 67.0889 63.961C66.972 63.961 66.837 63.979 66.6842 64.015C66.5403 64.051 66.3874 64.1004 66.2255 64.1634C66.0636 64.2263 65.9017 64.2983 65.7398 64.3792C65.5869 64.4602 65.443 64.5456 65.3081 64.6356V67.6844C65.6679 67.8373 65.9737 67.9407 66.2255 67.9947C66.4863 68.0487 66.7381 68.0756 66.9809 68.0756C67.1338 68.0756 67.2777 68.0577 67.4126 68.0217C67.5565 67.9857 67.678 67.9227 67.7769 67.8328C67.8848 67.7339 67.9658 67.608 68.0197 67.4551C68.0827 67.3022 68.1142 67.1133 68.1142 66.8885V65.1347ZM76.4199 66.9829C76.4199 67.3786 76.3389 67.7294 76.1771 68.0352C76.0242 68.341 75.8128 68.5973 75.543 68.8041C75.2822 69.002 74.9809 69.1549 74.6391 69.2628C74.2974 69.3617 73.9421 69.4112 73.5734 69.4112C73.1957 69.4112 72.8314 69.3617 72.4807 69.2628C72.1389 69.1549 71.8376 69.002 71.5768 68.8041C71.325 68.5973 71.1226 68.341 70.9697 68.0352C70.8168 67.7294 70.7404 67.3786 70.7404 66.9829V65.0403C70.7404 64.6446 70.8168 64.2938 70.9697 63.988C71.1316 63.6822 71.343 63.4259 71.6038 63.2191C71.8646 63.0122 72.1659 62.8548 72.5076 62.7469C72.8494 62.639 73.2091 62.585 73.5869 62.585C73.9916 62.585 74.3648 62.639 74.7066 62.7469C75.0484 62.8548 75.3451 63.0167 75.597 63.2325C75.8578 63.4394 76.0601 63.6957 76.204 64.0015C76.3479 64.3073 76.4199 64.658 76.4199 65.0538V66.9829ZM75.0034 65.2966C75.0034 65.0448 74.9584 64.8334 74.8685 64.6625C74.7875 64.4827 74.6796 64.3388 74.5447 64.2308C74.4098 64.1229 74.2569 64.0465 74.086 64.0015C73.9151 63.9475 73.7488 63.9206 73.5869 63.9206C73.425 63.9206 73.2586 63.9475 73.0877 64.0015C72.9168 64.0465 72.764 64.1229 72.6291 64.2308C72.4941 64.3388 72.3817 64.4827 72.2918 64.6625C72.2108 64.8334 72.1704 65.0448 72.1704 65.2966V66.7131C72.1704 67.2167 72.3098 67.572 72.5886 67.7788C72.8674 67.9857 73.2001 68.0891 73.5869 68.0891C73.7488 68.0891 73.9151 68.0666 74.086 68.0217C74.2569 67.9677 74.4098 67.8868 74.5447 67.7788C74.6796 67.6709 74.7875 67.5315 74.8685 67.3606C74.9584 67.1808 75.0034 66.9649 75.0034 66.7131V65.2966ZM80.045 63.8936L79.9641 65.4315C79.9281 66.0161 79.8742 66.5287 79.8022 66.9694C79.7393 67.4101 79.6133 67.7878 79.4245 68.1026H82.3789V63.8936H80.045ZM77.1985 68.1296C77.2795 68.1296 77.3604 68.1296 77.4414 68.1296C77.5313 68.1296 77.6123 68.1251 77.6842 68.1161C77.999 67.8913 78.2238 67.5765 78.3587 67.1718C78.4936 66.7581 78.5836 66.1915 78.6285 65.472L78.8039 62.6659H83.7954V68.1026C83.8943 68.1026 83.9933 68.1071 84.0922 68.1161C84.1911 68.1161 84.2901 68.1161 84.389 68.1161V71.0705H83.0804V69.3438H78.5071V71.0705H77.1985V68.1296ZM89.5852 68.7367C89.1085 69.0065 88.7038 69.1864 88.371 69.2763C88.0472 69.3572 87.746 69.3977 87.4672 69.3977C86.8016 69.3977 86.28 69.2178 85.9023 68.8581C85.5245 68.4983 85.3356 68.0037 85.3356 67.3741C85.3356 67.0054 85.4166 66.6951 85.5785 66.4433C85.7404 66.1915 85.9427 65.9891 86.1856 65.8362C86.4284 65.6743 86.6892 65.5574 86.968 65.4855C87.2558 65.4135 87.5211 65.3775 87.7639 65.3775H89.6121V64.9728C89.6121 64.5771 89.4997 64.2938 89.2749 64.1229C89.05 63.952 88.7038 63.8666 88.2361 63.8666C88.0113 63.8666 87.7325 63.9026 87.3997 63.9745C87.0759 64.0375 86.7477 64.2039 86.4149 64.4737L85.7539 63.4079C86.2035 63.0662 86.6532 62.8458 87.1029 62.7469C87.5616 62.639 87.9843 62.585 88.371 62.585C89.2884 62.585 89.9629 62.7874 90.3946 63.1921C90.8263 63.5968 91.0421 64.2129 91.0421 65.0403V69.3438H89.7471L89.6256 68.7637L89.5852 68.7367ZM89.6121 66.4838H88.0068C87.8809 66.4838 87.7505 66.4928 87.6155 66.5107C87.4806 66.5287 87.3547 66.5692 87.2378 66.6322C87.1299 66.6861 87.0355 66.7671 86.9545 66.875C86.8826 66.9829 86.8466 67.1313 86.8466 67.3202C86.8466 67.572 86.9365 67.7699 87.1164 67.9138C87.2963 68.0487 87.5346 68.1161 87.8314 68.1161C87.9933 68.1161 88.1552 68.0981 88.3171 68.0622C88.4789 68.0172 88.6363 67.9677 88.7892 67.9138C88.9511 67.8508 89.0995 67.7833 89.2344 67.7114C89.3783 67.6394 89.5042 67.572 89.6121 67.509V66.4838ZM95.8011 69.3438V66.5782H95.248C95.0951 66.5782 94.9512 66.5872 94.8163 66.6052C94.6904 66.6232 94.5735 66.6681 94.4656 66.7401C94.3666 66.803 94.2767 66.8975 94.1958 67.0234C94.1148 67.1493 94.0474 67.3202 93.9934 67.536L93.4673 69.3438H91.9024L92.6039 67.1718C92.7118 66.839 92.8377 66.5602 92.9816 66.3354C93.1255 66.1015 93.3593 65.9396 93.6831 65.8497C93.4223 65.7598 93.2154 65.6114 93.0626 65.4045C92.9097 65.1887 92.7793 64.9189 92.6713 64.5951L92.0238 62.6524H93.5347L94.1148 64.4062C94.2497 64.8019 94.4206 65.0538 94.6275 65.1617C94.8343 65.2696 95.0681 65.3236 95.329 65.3236H95.8011V62.6524H97.2311V65.3236H97.7033C97.9731 65.3236 98.2114 65.2696 98.4183 65.1617C98.6251 65.0538 98.7915 64.8019 98.9174 64.4062L99.4975 62.6524H101.008L100.361 64.5951C100.253 64.9189 100.123 65.1887 99.9697 65.4045C99.8168 65.6114 99.61 65.7598 99.3491 65.8497C99.6729 65.9396 99.9067 66.1015 100.051 66.3354C100.195 66.5602 100.32 66.839 100.428 67.1718L101.13 69.3438H99.565L99.0523 67.536C98.9894 67.3202 98.9174 67.1493 98.8365 67.0234C98.7556 66.8975 98.6611 66.803 98.5532 66.7401C98.4543 66.6681 98.3418 66.6232 98.2159 66.6052C98.09 66.5872 97.9461 66.5782 97.7842 66.5782H97.2311V69.3438H95.8011ZM106.253 64.9458L105.187 66.6187L103.326 69.3438H102.044V62.6659H103.488V67.0504H103.542L104.526 65.5799L106.469 62.6659H107.764V69.3438H106.321V64.9458H106.253Z" fill="#46474E"/>
<path d="M60.0927 200.519L58.0961 204H56.3423L59.2563 199.238L56.5177 194.705H58.2849L60.0927 197.956L61.9139 194.705H63.6677L60.9426 199.238L63.8565 204H62.1028L60.0927 200.519ZM70.2411 201.639C70.2411 202.035 70.1602 202.386 69.9983 202.691C69.8454 202.997 69.634 203.254 69.3642 203.46C69.1034 203.658 68.8021 203.811 68.4604 203.919C68.1186 204.018 67.7634 204.067 67.3946 204.067C67.0169 204.067 66.6526 204.018 66.3019 203.919C65.9601 203.811 65.6588 203.658 65.398 203.46C65.1462 203.254 64.9438 202.997 64.791 202.691C64.6381 202.386 64.5616 202.035 64.5616 201.639V199.697C64.5616 199.301 64.6381 198.95 64.791 198.644C64.9528 198.338 65.1642 198.082 65.425 197.875C65.6858 197.668 65.9871 197.511 66.3289 197.403C66.6706 197.295 67.0304 197.241 67.4081 197.241C67.8128 197.241 68.1861 197.295 68.5278 197.403C68.8696 197.511 69.1664 197.673 69.4182 197.889C69.679 198.096 69.8814 198.352 70.0253 198.658C70.1692 198.964 70.2411 199.314 70.2411 199.71V201.639ZM68.8246 199.953C68.8246 199.701 68.7796 199.49 68.6897 199.319C68.6088 199.139 68.5008 198.995 68.3659 198.887C68.231 198.779 68.0781 198.703 67.9073 198.658C67.7364 198.604 67.57 198.577 67.4081 198.577C67.2462 198.577 67.0798 198.604 66.909 198.658C66.7381 198.703 66.5852 198.779 66.4503 198.887C66.3154 198.995 66.203 199.139 66.113 199.319C66.0321 199.49 65.9916 199.701 65.9916 199.953V201.369C65.9916 201.873 66.131 202.228 66.4098 202.435C66.6886 202.642 67.0214 202.745 67.4081 202.745C67.57 202.745 67.7364 202.723 67.9073 202.678C68.0781 202.624 68.231 202.543 68.3659 202.435C68.5008 202.327 68.6088 202.188 68.6897 202.017C68.7796 201.837 68.8246 201.621 68.8246 201.369V199.953ZM73.6909 200.196C73.6909 200.843 73.6369 201.396 73.529 201.855C73.4301 202.314 73.2772 202.7 73.0703 203.015C72.8725 203.321 72.6252 203.568 72.3284 203.757C72.0316 203.946 71.6898 204.09 71.3031 204.189L70.8849 203.042C71.1367 202.943 71.3525 202.835 71.5324 202.718C71.7123 202.601 71.8562 202.44 71.9641 202.233C72.081 202.026 72.162 201.761 72.2069 201.437C72.2609 201.113 72.2879 200.695 72.2879 200.182V197.322H77.1175V204H75.6875V198.55H73.6909V200.196ZM84.1796 201.639C84.1796 202.035 84.0986 202.386 83.9367 202.691C83.7839 202.997 83.5725 203.254 83.3027 203.46C83.0419 203.658 82.7406 203.811 82.3988 203.919C82.0571 204.018 81.7018 204.067 81.3331 204.067C80.9553 204.067 80.5911 204.018 80.2403 203.919C79.8986 203.811 79.5973 203.658 79.3365 203.46C79.0847 203.254 78.8823 202.997 78.7294 202.691C78.5765 202.386 78.5001 202.035 78.5001 201.639V199.697C78.5001 199.301 78.5765 198.95 78.7294 198.644C78.8913 198.338 79.1026 198.082 79.3635 197.875C79.6243 197.668 79.9256 197.511 80.2673 197.403C80.6091 197.295 80.9688 197.241 81.3466 197.241C81.7513 197.241 82.1245 197.295 82.4663 197.403C82.808 197.511 83.1048 197.673 83.3567 197.889C83.6175 198.096 83.8198 198.352 83.9637 198.658C84.1076 198.964 84.1796 199.314 84.1796 199.71V201.639ZM82.7631 199.953C82.7631 199.701 82.7181 199.49 82.6282 199.319C82.5472 199.139 82.4393 198.995 82.3044 198.887C82.1695 198.779 82.0166 198.703 81.8457 198.658C81.6748 198.604 81.5085 198.577 81.3466 198.577C81.1847 198.577 81.0183 198.604 80.8474 198.658C80.6765 198.703 80.5236 198.779 80.3887 198.887C80.2538 198.995 80.1414 199.139 80.0515 199.319C79.9705 199.49 79.9301 199.701 79.9301 199.953V201.369C79.9301 201.873 80.0695 202.228 80.3483 202.435C80.6271 202.642 80.9598 202.745 81.3466 202.745C81.5085 202.745 81.6748 202.723 81.8457 202.678C82.0166 202.624 82.1695 202.543 82.3044 202.435C82.4393 202.327 82.5472 202.188 82.6282 202.017C82.7181 201.837 82.7631 201.621 82.7631 201.369V199.953ZM87.8047 198.55L87.7238 200.088C87.6878 200.672 87.6339 201.185 87.5619 201.626C87.4989 202.066 87.373 202.444 87.1842 202.759H90.1386V198.55H87.8047ZM84.9582 202.786C85.0392 202.786 85.1201 202.786 85.2011 202.786C85.291 202.786 85.3719 202.781 85.4439 202.772C85.7587 202.548 85.9835 202.233 86.1184 201.828C86.2533 201.414 86.3433 200.848 86.3882 200.128L86.5636 197.322H91.5551V202.759C91.654 202.759 91.753 202.763 91.8519 202.772C91.9508 202.772 92.0498 202.772 92.1487 202.772V205.727H90.8401V204H86.2668V205.727H84.9582V202.786ZM97.4932 204V201.234H94.6737V204H93.2572V197.322H94.6737V199.993H97.4932V197.322H98.9367V204H97.4932ZM106.376 204V197.322H107.779V204H106.376ZM101.709 202.786H103.287C103.629 202.786 103.889 202.709 104.069 202.557C104.249 202.395 104.339 202.174 104.339 201.895C104.339 201.68 104.258 201.482 104.096 201.302C103.934 201.122 103.665 201.032 103.287 201.032H101.709V202.786ZM100.292 204V197.309H101.709V199.831H103.381C104.146 199.831 104.73 200.025 105.135 200.412C105.54 200.789 105.742 201.284 105.742 201.895C105.742 202.183 105.693 202.458 105.594 202.718C105.504 202.97 105.36 203.191 105.162 203.379C104.964 203.568 104.717 203.721 104.42 203.838C104.132 203.946 103.791 204 103.395 204H100.292ZM110.534 201.127V201.464C110.534 201.698 110.575 201.9 110.656 202.071C110.737 202.233 110.84 202.368 110.966 202.476C111.101 202.575 111.254 202.651 111.425 202.705C111.605 202.75 111.789 202.772 111.978 202.772C112.185 202.772 112.432 202.736 112.72 202.664C113.017 202.592 113.309 202.426 113.597 202.165C113.741 202.336 113.88 202.503 114.015 202.664C114.159 202.817 114.298 202.979 114.433 203.15C114.055 203.519 113.655 203.766 113.232 203.892C112.819 204.009 112.401 204.067 111.978 204.067C111.591 204.067 111.222 204.018 110.872 203.919C110.53 203.82 110.224 203.672 109.954 203.474C109.693 203.267 109.487 203.011 109.334 202.705C109.181 202.399 109.104 202.039 109.104 201.626V199.872C109.104 199.467 109.172 199.103 109.307 198.779C109.451 198.455 109.648 198.181 109.9 197.956C110.152 197.731 110.444 197.561 110.777 197.444C111.11 197.318 111.474 197.255 111.87 197.255C112.275 197.255 112.648 197.313 112.99 197.43C113.331 197.547 113.624 197.718 113.867 197.943C114.118 198.159 114.312 198.424 114.447 198.739C114.582 199.053 114.649 199.413 114.649 199.818V201.127H110.534ZM113.205 199.899C113.205 199.431 113.075 199.094 112.814 198.887C112.553 198.671 112.243 198.563 111.883 198.563C111.524 198.563 111.209 198.676 110.939 198.901C110.678 199.116 110.548 199.445 110.548 199.885V200.101H113.205V199.899ZM121.491 197.241C122.22 197.241 122.795 197.412 123.218 197.754C123.65 198.096 123.866 198.554 123.866 199.13C123.866 199.247 123.852 199.373 123.825 199.508C123.798 199.634 123.749 199.759 123.677 199.885C123.605 200.011 123.51 200.133 123.393 200.25C123.276 200.358 123.128 200.452 122.948 200.533C123.137 200.614 123.294 200.713 123.42 200.83C123.546 200.947 123.645 201.073 123.717 201.207C123.798 201.342 123.852 201.477 123.879 201.612C123.915 201.747 123.933 201.873 123.933 201.99C123.933 202.637 123.699 203.146 123.231 203.514C122.764 203.883 122.112 204.067 121.275 204.067C120.835 204.067 120.385 204.004 119.926 203.879C119.477 203.753 119.076 203.546 118.726 203.258L119.495 202.273C119.728 202.462 120.007 202.606 120.331 202.705C120.655 202.804 120.934 202.853 121.167 202.853C121.671 202.853 122.022 202.768 122.22 202.597C122.427 202.417 122.53 202.215 122.53 201.99C122.53 201.711 122.427 201.504 122.22 201.369C122.022 201.225 121.752 201.153 121.41 201.153H120.466V200.034H121.41C121.734 200.034 121.986 199.962 122.166 199.818C122.355 199.665 122.449 199.472 122.449 199.238C122.449 198.977 122.337 198.788 122.112 198.671C121.887 198.554 121.631 198.496 121.343 198.496C121.109 198.496 120.848 198.536 120.56 198.617C120.273 198.689 120.012 198.824 119.778 199.022L119.009 198.037C119.333 197.749 119.715 197.547 120.156 197.43C120.605 197.304 121.051 197.241 121.491 197.241ZM130.59 201.99C130.59 202.251 130.545 202.503 130.455 202.745C130.365 202.988 130.23 203.204 130.05 203.393C129.87 203.573 129.645 203.721 129.375 203.838C129.106 203.946 128.791 204 128.431 204H125.045V197.322H128.404C128.755 197.322 129.061 197.372 129.322 197.471C129.582 197.57 129.794 197.704 129.956 197.875C130.126 198.037 130.252 198.231 130.333 198.455C130.423 198.671 130.468 198.901 130.468 199.143C130.468 199.404 130.392 199.665 130.239 199.926C130.095 200.187 129.893 200.38 129.632 200.506C129.947 200.65 130.185 200.857 130.347 201.127C130.509 201.396 130.59 201.684 130.59 201.99ZM129.133 201.949C129.133 201.698 129.043 201.5 128.863 201.356C128.683 201.212 128.467 201.14 128.215 201.14H126.488V202.799H128.134C128.476 202.799 128.728 202.723 128.89 202.57C129.052 202.417 129.133 202.21 129.133 201.949ZM129.038 199.251C129.038 199.009 128.948 198.833 128.768 198.725C128.598 198.608 128.395 198.55 128.161 198.55H126.488V199.939H128.202C128.463 199.939 128.665 199.881 128.809 199.764C128.962 199.638 129.038 199.467 129.038 199.251ZM137.43 201.639C137.43 202.035 137.349 202.386 137.187 202.691C137.035 202.997 136.823 203.254 136.553 203.46C136.293 203.658 135.991 203.811 135.65 203.919C135.308 204.018 134.953 204.067 134.584 204.067C134.206 204.067 133.842 204.018 133.491 203.919C133.149 203.811 132.848 203.658 132.587 203.46C132.335 203.254 132.133 202.997 131.98 202.691C131.827 202.386 131.751 202.035 131.751 201.639V199.697C131.751 199.301 131.827 198.95 131.98 198.644C132.142 198.338 132.353 198.082 132.614 197.875C132.875 197.668 133.176 197.511 133.518 197.403C133.86 197.295 134.22 197.241 134.597 197.241C135.002 197.241 135.375 197.295 135.717 197.403C136.059 197.511 136.356 197.673 136.607 197.889C136.868 198.096 137.071 198.352 137.214 198.658C137.358 198.964 137.43 199.314 137.43 199.71V201.639ZM136.014 199.953C136.014 199.701 135.969 199.49 135.879 199.319C135.798 199.139 135.69 198.995 135.555 198.887C135.42 198.779 135.267 198.703 135.096 198.658C134.926 198.604 134.759 198.577 134.597 198.577C134.435 198.577 134.269 198.604 134.098 198.658C133.927 198.703 133.774 198.779 133.639 198.887C133.505 198.995 133.392 199.139 133.302 199.319C133.221 199.49 133.181 199.701 133.181 199.953V201.369C133.181 201.873 133.32 202.228 133.599 202.435C133.878 202.642 134.211 202.745 134.597 202.745C134.759 202.745 134.926 202.723 135.096 202.678C135.267 202.624 135.42 202.543 135.555 202.435C135.69 202.327 135.798 202.188 135.879 202.017C135.969 201.837 136.014 201.621 136.014 201.369V199.953ZM142.971 204V201.234H140.152V204H138.735V197.322H140.152V199.993H142.971V197.322H144.415V204H142.971ZM145.77 204V197.309H147.2V199.98H148.05C148.32 199.98 148.562 199.926 148.778 199.818C148.994 199.71 149.174 199.458 149.318 199.062L149.925 197.309H151.436L150.748 199.251C150.64 199.575 150.509 199.845 150.357 200.061C150.213 200.268 150.01 200.416 149.75 200.506C150.064 200.596 150.294 200.758 150.438 200.992C150.581 201.216 150.707 201.495 150.815 201.828L151.557 204H149.992L149.439 202.192C149.376 201.985 149.3 201.819 149.21 201.693C149.129 201.567 149.035 201.473 148.927 201.41C148.819 201.338 148.697 201.293 148.562 201.275C148.436 201.248 148.293 201.234 148.131 201.234H147.2V204H145.77ZM156.777 199.602L155.711 201.275L153.849 204H152.568V197.322H154.011V201.707H154.065L155.05 200.236L156.993 197.322H158.288V204H156.844V199.602H156.777Z" fill="#46474E"/>
<path d="M305 273.656H364" stroke="#FFA469" stroke-width="1.5"/>
<path d="M305 275.406C304.034 275.406 303.25 274.623 303.25 273.656C303.25 272.69 304.034 271.906 305 271.906C305.966 271.906 306.75 272.69 306.75 273.656C306.75 274.623 305.966 275.406 305 275.406Z" fill="#FFA469" stroke="#FFA469" stroke-width="1.5"/>
</g>
</g>
<defs>
<filter id="filter0_d_5217_99261" x="0.372307" y="0.186153" width="428.255" height="358.255" filterUnits="userSpaceOnUse" color-interpolation-filters="sRGB">
<feFlood flood-opacity="0" result="BackgroundImageFix"/>
<feColorMatrix in="SourceAlpha" type="matrix" values="0 0 0 0 0 0 0 0 0 0 0 0 0 0 0 0 0 0 127 0" result="hardAlpha"/>
<feOffset dy="16.8138"/>
<feGaussianBlur stdDeviation="16.8138"/>
<feComposite in2="hardAlpha" operator="out"/>
<feColorMatrix type="matrix" values="0 0 0 0 0.27451 0 0 0 0 0.278431 0 0 0 0 0.305882 0 0 0 0.2 0"/>
<feBlend mode="multiply" in2="BackgroundImageFix" result="effect1_dropShadow_5217_99261"/>
<feBlend mode="normal" in="SourceGraphic" in2="effect1_dropShadow_5217_99261" result="shape"/>
</filter>
<clipPath id="clip0_5217_99261">
<rect x="39" y="33" width="351" height="270" rx="6" fill="white"/>
</clipPath>
</defs>
</svg>
