<svg width="251" height="404" viewBox="0 0 251 404" fill="none" xmlns="http://www.w3.org/2000/svg">
<g filter="url(#filter0_d_5217_99594)">
<path d="M45 36.446C45 29.02 51.02 23 58.446 23H299.554C306.98 23 313 29.02 313 36.446V40.0104H45V36.446Z" fill="#E8E8E8"/>
<rect x="56.2031" y="30.2812" width="6.72302" height="6.72302" rx="3.36151" fill="#ED695E"/>
<rect x="67.4062" y="30.2812" width="6.72302" height="6.72302" rx="3.36151" fill="#F5BF4F"/>
<rect x="78.6172" y="30.2812" width="6.72302" height="6.72302" rx="3.36151" fill="#61C454"/>
<g clip-path="url(#clip0_5217_99594)">
<path d="M45 40.0078H313V323.223C313 330.649 306.98 336.669 299.554 336.669H58.446C51.02 336.669 45 330.649 45 323.223V40.0078Z" fill="#E8E8E8"/>
<g clip-path="url(#clip1_5217_99594)">
<rect width="255.936" height="292.129" transform="translate(51.0312 40.0078)" fill="#F3F0F0"/>
<path d="M78.7684 60.2311V64.1509C78.7684 65.3136 78.6904 66.3085 78.5346 67.1357C78.3908 67.9628 78.169 68.664 77.8693 69.2394C77.5816 69.8028 77.222 70.2703 76.7905 70.6419C76.359 71.0015 75.8675 71.2952 75.3161 71.5229L74.5969 70.1025C75.0164 69.8867 75.382 69.635 75.6937 69.3473C76.0173 69.0596 76.281 68.688 76.4848 68.2325C76.7006 67.777 76.8564 67.2136 76.9523 66.5423C77.0602 65.871 77.1141 65.0379 77.1141 64.043V58.7207H84.7379V71.1094H83.0477V60.2311H78.7684ZM88.3533 68.628L89.6839 66.5962L92.6507 62.209H94.1071V71.1094H92.5248V64.6723H92.4349L91.0864 66.7401L88.1375 71.1094H86.7171V62.209H88.2814V68.628H88.3533ZM98.7774 63.5755L98.6695 65.931C98.6216 66.8659 98.5437 67.6391 98.4358 68.2505C98.3399 68.8498 98.1601 69.3533 97.8964 69.7608H102.32V63.5755H98.7774ZM95.8646 69.7788C96.0803 69.635 96.2661 69.4671 96.422 69.2754C96.5778 69.0716 96.7097 68.8258 96.8175 68.5381C96.9254 68.2385 97.0093 67.8848 97.0693 67.4773C97.1292 67.0577 97.1772 66.5603 97.2131 65.9849L97.4289 62.209H103.866V69.7608L104.603 69.7788V73.3929H103.147V71.1094H96.7097V73.3929H95.2532V69.8148L95.8646 69.7788ZM114.031 71.1094V62.209H115.523V71.1094H114.031ZM111.621 68.3583C111.621 68.0227 111.495 67.717 111.244 67.4413C110.992 67.1536 110.578 67.0098 110.003 67.0098H107.683V69.7428H110.003C110.518 69.7428 110.914 69.629 111.19 69.4012C111.477 69.1615 111.621 68.8138 111.621 68.3583ZM107.701 65.6612H110.057C110.56 65.6612 111.004 65.7332 111.387 65.877C111.783 66.0089 112.107 66.1947 112.358 66.4344C112.622 66.6742 112.82 66.9618 112.952 67.2975C113.084 67.6211 113.15 67.9748 113.15 68.3583C113.15 69.1854 112.88 69.8507 112.34 70.3542C111.813 70.8576 111.046 71.1094 110.039 71.1094H106.155V62.191H107.701V65.6612Z" fill="#46474E"/>
<path d="M71.2656 87.771C71.2656 86.5297 72.2719 85.5234 73.5132 85.5234L161.228 85.5234C162.014 85.5234 162.743 85.9342 163.15 86.6066L166.213 91.6636C166.647 92.3794 166.647 93.2767 166.213 93.9925L163.15 99.0495C162.743 99.722 162.014 100.133 161.228 100.133H73.5132C72.2719 100.133 71.2656 99.1264 71.2656 97.8851V87.771Z" fill="#FFA469"/>
<path d="M179.844 87.771C179.844 86.5297 180.85 85.5234 182.091 85.5234L269.806 85.5234C270.592 85.5234 271.321 85.9342 271.728 86.6066L274.791 91.6636C275.225 92.3794 275.225 93.2767 274.791 93.9925L271.728 99.0495C271.321 99.722 270.592 100.133 269.806 100.133H182.091C180.85 100.133 179.844 99.1264 179.844 97.8851V87.771Z" fill="#FCCD82"/>
<rect x="71.1875" y="108.148" width="101.685" height="79.5558" rx="6.72302" fill="white"/>
<rect x="80.1484" y="119.352" width="39.6399" height="5.60252" rx="2.80126" fill="#A4A4A4"/>
<rect x="80.1484" y="127.758" width="49.8624" height="5.60252" rx="2.80126" fill="#A4A4A4"/>
<rect x="80.1484" y="174.258" width="19.6088" height="5.60252" rx="2.80126" fill="#D9D9D9"/>
<rect x="153.719" y="168.656" width="11.205" height="11.205" rx="5.60252" fill="#A4A4A4"/>
<rect x="153.727" y="116.547" width="11.205" height="8.40378" rx="4.20189" fill="#D9D9D9"/>
<rect x="153.727" y="127.75" width="11.205" height="8.40378" rx="4.20189" fill="#D9D9D9"/>
<rect x="153.727" y="138.953" width="11.205" height="8.40378" rx="4.20189" fill="#D9D9D9"/>
<rect x="153.727" y="150.156" width="11.205" height="8.40378" rx="4.20189" fill="#D9D9D9"/>
<rect x="71.1875" y="194.32" width="101.685" height="79.5558" rx="6.72302" fill="#D7D7D7"/>
<rect x="80.1484" y="205.523" width="39.6399" height="5.60252" rx="2.80126" fill="#A4A4A4"/>
<rect x="80.1484" y="213.938" width="49.8624" height="5.60252" rx="2.80126" fill="#A4A4A4"/>
<rect x="80.1484" y="260.422" width="19.6088" height="5.60252" rx="2.80126" fill="#E8E8E8"/>
<rect x="153.719" y="254.828" width="11.205" height="11.205" rx="5.60252" fill="#A4A4A4"/>
<rect x="153.727" y="202.727" width="11.205" height="8.40378" rx="4.20189" fill="#E8E8E8"/>
<rect x="153.727" y="213.93" width="11.205" height="8.40378" rx="4.20189" fill="#E8E8E8"/>
<rect x="153.727" y="225.141" width="11.205" height="8.40378" rx="4.20189" fill="#E8E8E8"/>
<rect x="153.727" y="236.344" width="11.205" height="8.40378" rx="4.20189" fill="#E8E8E8"/>
<rect x="71.1875" y="280.586" width="101.685" height="79.5558" rx="6.72302" fill="white"/>
<rect x="80.1484" y="291.797" width="39.6399" height="5.60252" rx="2.80126" fill="#A4A4A4"/>
<rect x="80.1484" y="300.195" width="49.8624" height="5.60252" rx="2.80126" fill="#A4A4A4"/>
<rect x="153.719" y="288.992" width="11.205" height="8.40378" rx="4.20189" fill="#D9D9D9"/>
<rect x="153.719" y="300.195" width="11.205" height="8.40378" rx="4.20189" fill="#D9D9D9"/>
<rect x="153.719" y="311.406" width="11.205" height="8.40378" rx="4.20189" fill="#D9D9D9"/>
<rect x="153.719" y="322.609" width="11.205" height="8.40378" rx="4.20189" fill="#D9D9D9"/>
<rect x="179.766" y="108.148" width="101.685" height="79.5558" rx="6.72302" fill="white"/>
<rect x="188.734" y="119.352" width="39.6399" height="5.60252" rx="2.80126" fill="#A4A4A4"/>
<rect x="188.734" y="127.758" width="49.8624" height="5.60252" rx="2.80126" fill="#A4A4A4"/>
<rect x="188.734" y="174.258" width="19.6088" height="5.60252" rx="2.80126" fill="#D9D9D9"/>
<rect x="179.766" y="194.32" width="101.685" height="79.5558" rx="6.72302" fill="white"/>
<rect x="188.734" y="205.523" width="39.6399" height="5.60252" rx="2.80126" fill="#A4A4A4"/>
<rect x="188.734" y="213.93" width="49.8624" height="5.60252" rx="2.80126" fill="#A4A4A4"/>
<rect x="188.734" y="260.422" width="19.6088" height="5.60252" rx="2.80126" fill="#D9D9D9"/>
</g>
</g>
</g>
<defs>
<filter id="filter0_d_5217_99594" x="0.179855" y="0.589928" width="357.64" height="403.308" filterUnits="userSpaceOnUse" color-interpolation-filters="sRGB">
<feFlood flood-opacity="0" result="BackgroundImageFix"/>
<feColorMatrix in="SourceAlpha" type="matrix" values="0 0 0 0 0 0 0 0 0 0 0 0 0 0 0 0 0 0 127 0" result="hardAlpha"/>
<feOffset dy="22.4101"/>
<feGaussianBlur stdDeviation="22.4101"/>
<feComposite in2="hardAlpha" operator="out"/>
<feColorMatrix type="matrix" values="0 0 0 0 0.27451 0 0 0 0 0.278431 0 0 0 0 0.305882 0 0 0 0.2 0"/>
<feBlend mode="multiply" in2="BackgroundImageFix" result="effect1_dropShadow_5217_99594"/>
<feBlend mode="normal" in="SourceGraphic" in2="effect1_dropShadow_5217_99594" result="shape"/>
</filter>
<clipPath id="clip0_5217_99594">
<path d="M45 40.0078H313V323.223C313 330.649 306.98 336.669 299.554 336.669H58.446C51.02 336.669 45 330.649 45 323.223V40.0078Z" fill="white"/>
</clipPath>
<clipPath id="clip1_5217_99594">
<rect width="255.936" height="292.129" fill="white" transform="translate(51.0312 40.0078)"/>
</clipPath>
</defs>
</svg>
