<svg width="318" height="327" viewBox="0 0 318 327" fill="none" xmlns="http://www.w3.org/2000/svg">
<g filter="url(#filter0_d_5217_99688)">
<path d="M366.807 276.462H44.7941C38.8549 276.462 34.0312 270.962 34.0312 264.171V29.322C34.0312 22.5397 38.8476 17.0312 44.7941 17.0312H366.807C372.746 17.0312 377.57 22.5313 377.57 29.322V264.171C377.57 270.953 372.753 276.462 366.807 276.462Z" fill="#65666D"/>
</g>
<path d="M376.407 282.383H34.0154C26.8277 282.383 21 275.717 21 267.495V259.875H389.415V267.495C389.415 275.717 383.588 282.383 376.4 282.383H376.407Z" fill="#65666D"/>
<path d="M167.891 257.508L173.168 265.901H247.457L252.354 257.508H167.891Z" fill="#46474E"/>
<path d="M377.563 257.177C377.563 257.304 300.612 257.4 205.711 257.4C110.809 257.4 33.8438 257.296 33.8438 257.177C33.8438 257.058 110.779 256.953 205.711 256.953C300.642 256.953 377.563 257.058 377.563 257.177Z" fill="#46474E"/>
<path d="M360.962 250.404H47.0742C45.7531 250.404 44.6875 249.168 44.6875 247.637V34.0171C44.6875 32.4855 45.7531 31.25 47.0742 31.25H360.962C362.283 31.25 363.349 32.4855 363.349 34.0171V247.628C363.349 249.16 362.276 250.395 360.962 250.395V250.404Z" fill="#F3F0F0"/>
<path fill-rule="evenodd" clip-rule="evenodd" d="M71.3476 62.0469C65.1355 62.0469 60.0938 67.0886 60.0938 73.3007C60.0938 79.5128 65.1355 84.5546 71.3476 84.5546C77.5597 84.5546 82.6014 79.5128 82.6014 73.3007C82.6014 67.0886 77.5597 62.0469 71.3476 62.0469ZM71.3449 65.4219C73.213 65.4219 74.7211 66.9299 74.7211 68.798C74.7211 70.6662 73.213 72.1742 71.3449 72.1742C69.4768 72.1742 67.9688 70.6662 67.9688 68.798C67.9688 66.9299 69.4768 65.4219 71.3449 65.4219ZM71.3461 81.4024C68.5326 81.4024 66.0455 79.9619 64.5938 77.7787C64.6275 75.5392 69.0953 74.3125 71.3461 74.3125C73.5856 74.3125 78.0646 75.5392 78.0984 77.7787C76.6466 79.9619 74.1595 81.4024 71.3461 81.4024Z" fill="#B9BABD"/>
<path d="M62.9992 95.5742C62.6266 95.5742 62.2821 95.5192 61.9656 95.4092C61.6514 95.2992 61.381 95.1354 61.1543 94.9177C60.9276 94.7 60.7514 94.4284 60.6257 94.1029C60.5022 93.7775 60.4405 93.4015 60.4405 92.9751C60.4405 92.5778 60.5 92.2176 60.619 91.8944C60.7379 91.5712 60.9107 91.294 61.1374 91.0628C61.3551 90.8406 61.6245 90.6689 61.9454 90.5477C62.2686 90.4265 62.621 90.3659 63.0026 90.3659C63.2136 90.3659 63.4032 90.3782 63.5716 90.4029C63.7421 90.4254 63.8993 90.4557 64.0429 90.4938C64.1933 90.5365 64.3291 90.5847 64.4503 90.6386C64.5737 90.6902 64.6815 90.7385 64.7735 90.7834V91.9987H64.6253C64.5625 91.9449 64.4828 91.8809 64.3863 91.8068C64.292 91.7328 64.1843 91.6598 64.0631 91.588C63.9397 91.5162 63.8061 91.4556 63.6625 91.4062C63.5188 91.3568 63.3651 91.3321 63.2012 91.3321C63.0194 91.3321 62.8466 91.3613 62.6828 91.4197C62.5189 91.4758 62.3674 91.5701 62.2282 91.7025C62.0958 91.8304 61.9881 91.9999 61.905 92.2109C61.8242 92.4218 61.7838 92.6777 61.7838 92.9785C61.7838 93.2927 61.8276 93.5553 61.9151 93.7663C62.0049 93.9773 62.1171 94.1433 62.2518 94.2645C62.3887 94.388 62.5414 94.4766 62.7097 94.5305C62.878 94.5821 63.0441 94.608 63.208 94.608C63.3651 94.608 63.5199 94.5844 63.6726 94.5372C63.8274 94.4901 63.97 94.4261 64.1001 94.3453C64.2101 94.2803 64.3122 94.2107 64.4065 94.1366C64.5008 94.0625 64.5782 93.9986 64.6388 93.9447H64.7735V95.1433C64.6478 95.1994 64.5277 95.2521 64.4132 95.3015C64.2988 95.3509 64.1787 95.3935 64.053 95.4294C63.8892 95.4766 63.7354 95.5125 63.5918 95.5372C63.4481 95.5619 63.2506 95.5742 62.9992 95.5742ZM69.517 93.81H66.7429C66.7608 94.1063 66.8731 94.333 67.0795 94.4901C67.2883 94.6472 67.5947 94.7258 67.9987 94.7258C68.2545 94.7258 68.5025 94.6798 68.7427 94.5878C68.9829 94.4957 69.1725 94.397 69.3117 94.2915H69.4463V95.2645C69.1725 95.3744 68.9144 95.4541 68.672 95.5035C68.4296 95.5529 68.1614 95.5776 67.8674 95.5776C67.1087 95.5776 66.5274 95.407 66.1234 95.0658C65.7194 94.7247 65.5174 94.2387 65.5174 93.608C65.5174 92.9841 65.7082 92.4903 66.0897 92.1267C66.4735 91.7608 66.9987 91.5779 67.6654 91.5779C68.2803 91.5779 68.7427 91.7339 69.0524 92.0459C69.3622 92.3556 69.517 92.8023 69.517 93.3858V93.81ZM68.3118 93.0997C68.305 92.846 68.2422 92.6553 68.1232 92.5273C68.0043 92.3994 67.8191 92.3354 67.5677 92.3354C67.3343 92.3354 67.1424 92.396 66.992 92.5172C66.8416 92.6384 66.7575 92.8326 66.7395 93.0997H68.3118ZM74.4559 93.534C74.4559 93.846 74.4076 94.1299 74.3111 94.3857C74.2168 94.6416 74.0923 94.8526 73.9374 95.0187C73.7758 95.1938 73.5929 95.3262 73.3886 95.416C73.1844 95.5057 72.9655 95.5506 72.7321 95.5506C72.5166 95.5506 72.3337 95.5271 72.1833 95.4799C72.033 95.435 71.8792 95.3711 71.7221 95.288V96.8636H70.5101V91.6957H71.7221V92.0896C71.9084 91.9415 72.0981 91.8214 72.2911 91.7294C72.4863 91.6374 72.7108 91.5914 72.9644 91.5914C73.4358 91.5914 73.8016 91.7642 74.062 92.1098C74.3246 92.4555 74.4559 92.9302 74.4559 93.534ZM73.2068 93.5575C73.2068 93.1894 73.144 92.9223 73.0183 92.7563C72.8926 92.5902 72.694 92.5071 72.4224 92.5071C72.3079 92.5071 72.1901 92.5251 72.0689 92.561C71.9477 92.5947 71.8321 92.644 71.7221 92.7091V94.6113C71.8029 94.6427 71.8893 94.6629 71.9813 94.6719C72.0734 94.6809 72.1643 94.6854 72.254 94.6854C72.575 94.6854 72.814 94.5922 72.9712 94.4059C73.1283 94.2174 73.2068 93.9346 73.2068 93.5575ZM78.5261 92.5374H76.6811V95.4766H75.4691V91.6957H78.5261V92.5374ZM82.9936 93.81H80.2194C80.2374 94.1063 80.3496 94.333 80.5561 94.4901C80.7648 94.6472 81.0712 94.7258 81.4752 94.7258C81.7311 94.7258 81.9791 94.6798 82.2192 94.5878C82.4594 94.4957 82.6491 94.397 82.7882 94.2915H82.9229V95.2645C82.6491 95.3744 82.391 95.4541 82.1485 95.5035C81.9061 95.5529 81.6379 95.5776 81.3439 95.5776C80.5853 95.5776 80.004 95.407 79.5999 95.0658C79.1959 94.7247 78.9939 94.2387 78.9939 93.608C78.9939 92.9841 79.1847 92.4903 79.5663 92.1267C79.9501 91.7608 80.4753 91.5779 81.1419 91.5779C81.7569 91.5779 82.2192 91.7339 82.529 92.0459C82.8387 92.3556 82.9936 92.8023 82.9936 93.3858V93.81ZM81.7883 93.0997C81.7816 92.846 81.7187 92.6553 81.5998 92.5273C81.4808 92.3994 81.2956 92.3354 81.0443 92.3354C80.8108 92.3354 80.6189 92.396 80.4686 92.5172C80.3182 92.6384 80.234 92.8326 80.2161 93.0997H81.7883ZM87.8079 95.4766H86.6329V93.1636L84.9899 95.4766H83.9866V91.6957H85.1616V93.7663L86.6834 91.6957H87.8079V95.4766ZM87.3904 90.0191C87.3904 90.385 87.2647 90.6835 87.0133 90.9147C86.7642 91.1458 86.3938 91.2614 85.9023 91.2614C85.413 91.2614 85.0427 91.1458 84.7913 90.9147C84.5399 90.6812 84.4142 90.3827 84.4142 90.0191H85.3502C85.3546 90.2413 85.3973 90.4074 85.4781 90.5174C85.5589 90.6251 85.7003 90.679 85.9023 90.679C86.1065 90.679 86.2479 90.6263 86.3265 90.5208C86.4073 90.413 86.4499 90.2458 86.4544 90.0191H87.3904ZM63.4807 100.271C63.6378 100.429 63.7567 100.619 63.8375 100.844C63.9183 101.066 63.9587 101.327 63.9587 101.628C63.9587 102.189 63.7904 102.655 63.4537 103.025C63.1171 103.396 62.703 103.581 62.2114 103.581C61.969 103.581 61.7457 103.541 61.5414 103.46C61.3372 103.377 61.1632 103.25 61.0196 103.079C60.84 102.866 60.7054 102.598 60.6156 102.275C60.5281 101.949 60.4843 101.553 60.4843 101.086C60.4843 100.918 60.4921 100.747 60.5079 100.574C60.5236 100.399 60.5595 100.191 60.6156 99.9482C60.6605 99.7395 60.7256 99.5386 60.8109 99.3456C60.8984 99.1526 61.0016 98.9966 61.1206 98.8776C61.2822 98.7138 61.4943 98.5825 61.7569 98.4837C62.0218 98.3827 62.3719 98.3131 62.8073 98.275C62.9846 98.2593 63.1496 98.2469 63.3022 98.238C63.4549 98.2267 63.5918 98.2166 63.713 98.2077V98.7901C63.5648 98.7991 63.4178 98.8081 63.2719 98.817C63.1283 98.826 62.9846 98.8372 62.841 98.8507C62.5537 98.8754 62.2933 98.9225 62.0599 98.9921C61.8287 99.0617 61.6593 99.1515 61.5515 99.2614C61.4326 99.3804 61.3428 99.5364 61.2822 99.7294C61.2238 99.9202 61.1857 100.102 61.1677 100.275C61.3361 100.154 61.5201 100.053 61.7199 99.9718C61.9219 99.8888 62.1362 99.8472 62.3629 99.8472C62.5739 99.8472 62.777 99.882 62.9723 99.9516C63.1676 100.021 63.337 100.128 63.4807 100.271ZM63.3157 101.665C63.3157 101.25 63.2158 100.94 63.0161 100.736C62.8163 100.53 62.5526 100.426 62.2249 100.426C62.0296 100.426 61.8422 100.458 61.6626 100.521C61.4831 100.581 61.3125 100.663 61.1509 100.766C61.1464 100.822 61.1419 100.889 61.1374 100.965C61.1352 101.039 61.1341 101.108 61.1341 101.17C61.1341 101.561 61.1666 101.877 61.2317 102.12C61.2968 102.362 61.3888 102.555 61.5078 102.699C61.611 102.82 61.7232 102.906 61.8444 102.958C61.9656 103.007 62.0958 103.032 62.235 103.032C62.5739 103.032 62.8387 102.91 63.0295 102.665C63.2203 102.421 63.3157 102.087 63.3157 101.665ZM68.2579 103.477H67.6317V100.652L65.6622 103.477H65.0898V99.7159H65.716V102.5L67.6654 99.7159H68.2579V103.477ZM72.2608 102.423C72.2608 102.634 72.2114 102.812 72.1126 102.958C72.0161 103.104 71.8916 103.222 71.7389 103.312C71.5863 103.399 71.418 103.463 71.2339 103.503C71.0499 103.544 70.8658 103.564 70.6818 103.564C70.4214 103.564 70.1734 103.539 69.9377 103.49C69.7021 103.441 69.4698 103.364 69.2408 103.261V102.568H69.2846C69.4485 102.711 69.6572 102.822 69.9108 102.901C70.1644 102.979 70.4102 103.019 70.6481 103.019C70.7603 103.019 70.8759 103.009 70.9949 102.988C71.1139 102.966 71.2171 102.931 71.3046 102.884C71.3989 102.83 71.4741 102.766 71.5302 102.692C71.5863 102.616 71.6144 102.513 71.6144 102.382C71.6144 102.248 71.5863 102.14 71.5302 102.059C71.4763 101.978 71.4023 101.918 71.308 101.877C71.216 101.837 71.1049 101.812 70.9747 101.803C70.8445 101.794 70.7256 101.79 70.6178 101.79H70.069V101.244H70.4495C70.5393 101.244 70.656 101.241 70.7996 101.234C70.9455 101.228 71.0634 101.21 71.1531 101.18C71.2698 101.142 71.3619 101.088 71.4292 101.019C71.4988 100.949 71.5336 100.838 71.5336 100.686C71.5336 100.58 71.5066 100.494 71.4528 100.426C71.3989 100.357 71.3316 100.303 71.2508 100.265C71.1677 100.227 71.0746 100.201 70.9713 100.187C70.8703 100.174 70.7805 100.167 70.702 100.167C70.4731 100.167 70.2475 100.199 70.0253 100.261C69.8053 100.322 69.6202 100.411 69.4698 100.527H69.426V99.8304C69.6123 99.7698 69.8121 99.7204 70.0253 99.6823C70.2385 99.6441 70.4517 99.625 70.665 99.625C70.84 99.625 71.014 99.6408 71.1868 99.6722C71.3619 99.7036 71.5246 99.7575 71.675 99.8338C71.8231 99.9101 71.9443 100.014 72.0386 100.147C72.1328 100.277 72.18 100.439 72.18 100.632C72.18 100.829 72.1183 101.003 71.9948 101.154C71.8736 101.302 71.7098 101.408 71.5033 101.473V101.497C71.7345 101.553 71.9185 101.659 72.0554 101.813C72.1923 101.966 72.2608 102.169 72.2608 102.423ZM76.5465 103.477H75.9135V101.783H74.0315V103.477H73.3986V99.7159H74.0315V101.238H75.9135V99.7159H76.5465V103.477ZM81.0813 101.662H78.3105C78.3105 101.893 78.3453 102.095 78.4149 102.268C78.4844 102.438 78.5798 102.579 78.701 102.689C78.8177 102.796 78.9558 102.877 79.1151 102.931C79.2767 102.985 79.4541 103.012 79.6471 103.012C79.9029 103.012 80.1599 102.961 80.4181 102.86C80.6784 102.757 80.8636 102.656 80.9736 102.557H81.0072V103.248C80.794 103.337 80.5763 103.413 80.3541 103.473C80.1319 103.534 79.8985 103.564 79.6538 103.564C79.0298 103.564 78.5428 103.396 78.1927 103.059C77.8425 102.72 77.6675 102.24 77.6675 101.618C77.6675 101.003 77.8347 100.515 78.1691 100.154C78.5058 99.7923 78.9479 99.6116 79.4956 99.6116C80.0028 99.6116 80.3934 99.7597 80.6672 100.056C80.9433 100.352 81.0813 100.773 81.0813 101.318V101.662ZM80.4652 101.177C80.4629 100.845 80.3788 100.588 80.2127 100.406C80.0488 100.224 79.7986 100.133 79.4619 100.133C79.123 100.133 78.8525 100.233 78.6505 100.433C78.4508 100.633 78.3374 100.881 78.3105 101.177H80.4652ZM84.9933 103.241C84.7352 103.362 84.513 103.445 84.3267 103.49C84.1426 103.537 83.9586 103.561 83.7745 103.561C83.5007 103.561 83.2493 103.521 83.0204 103.443C82.7915 103.362 82.5951 103.241 82.4312 103.079C82.2674 102.918 82.1394 102.713 82.0474 102.467C81.9576 102.22 81.9127 101.931 81.9127 101.601C81.9127 101.002 82.0788 100.524 82.411 100.167C82.7432 99.808 83.1977 99.6284 83.7745 99.6284C83.9922 99.6284 84.2055 99.6587 84.4142 99.7193C84.6252 99.7799 84.8182 99.854 84.9933 99.9415V100.645H84.9562C84.7475 100.486 84.541 100.368 84.3368 100.292C84.1348 100.215 83.9384 100.177 83.7476 100.177C83.3728 100.177 83.0821 100.303 82.8756 100.554C82.6714 100.806 82.5693 101.155 82.5693 101.601C82.5693 102.048 82.6714 102.395 82.8756 102.642C83.0799 102.889 83.3705 103.012 83.7476 103.012C83.88 103.012 84.0113 102.995 84.1415 102.961C84.2739 102.928 84.394 102.884 84.5017 102.83C84.587 102.788 84.6746 102.737 84.7643 102.679C84.8564 102.618 84.9203 102.573 84.9562 102.544H84.9933V103.241ZM87.9929 101.588H85.8921V100.978H87.9929V101.588ZM92.191 103.477H91.5615V103.076C91.5054 103.114 91.429 103.168 91.3325 103.238C91.2383 103.305 91.1462 103.359 91.0565 103.399C90.951 103.451 90.8298 103.493 90.6929 103.527C90.5559 103.563 90.3955 103.581 90.2114 103.581C89.8725 103.581 89.5852 103.469 89.3495 103.244C89.1139 103.02 88.996 102.734 88.996 102.386C88.996 102.101 89.0566 101.871 89.1778 101.696C89.3013 101.518 89.4764 101.379 89.703 101.278C89.932 101.177 90.2069 101.109 90.5279 101.073C90.8488 101.037 91.1934 101.01 91.5615 100.992V100.894C91.5615 100.751 91.5357 100.632 91.484 100.537C91.4347 100.443 91.3628 100.369 91.2686 100.315C91.1788 100.264 91.0711 100.229 90.9454 100.211C90.8197 100.193 90.6884 100.184 90.5515 100.184C90.3854 100.184 90.2002 100.206 89.9959 100.251C89.7917 100.294 89.5807 100.357 89.363 100.44H89.3293V99.7967C89.4528 99.7631 89.6312 99.726 89.8646 99.6856C90.0981 99.6452 90.3281 99.625 90.5548 99.625C90.8197 99.625 91.0497 99.6475 91.245 99.6924C91.4425 99.735 91.6131 99.8091 91.7567 99.9146C91.8981 100.018 92.0059 100.151 92.0799 100.315C92.154 100.479 92.191 100.682 92.191 100.925V103.477ZM91.5615 102.551V101.504C91.3684 101.515 91.1406 101.532 90.878 101.554C90.6177 101.577 90.4112 101.609 90.2586 101.652C90.0767 101.703 89.9297 101.784 89.8175 101.894C89.7053 102.002 89.6492 102.151 89.6492 102.342C89.6492 102.557 89.7143 102.72 89.8444 102.83C89.9746 102.938 90.1733 102.992 90.4404 102.992C90.6626 102.992 90.8657 102.949 91.0497 102.864C91.2338 102.776 91.4044 102.672 91.5615 102.551ZM96.6956 103.477H96.0626V101.783H94.1806V103.477H93.5477V99.7159H94.1806V101.238H96.0626V99.7159H96.6956V103.477ZM101.005 103.477H100.375V103.076C100.319 103.114 100.243 103.168 100.146 103.238C100.052 103.305 99.96 103.359 99.8702 103.399C99.7648 103.451 99.6436 103.493 99.5066 103.527C99.3697 103.563 99.2093 103.581 99.0252 103.581C98.6863 103.581 98.399 103.469 98.1633 103.244C97.9277 103.02 97.8098 102.734 97.8098 102.386C97.8098 102.101 97.8704 101.871 97.9916 101.696C98.1151 101.518 98.2901 101.379 98.5168 101.278C98.7458 101.177 99.0207 101.109 99.3417 101.073C99.6626 101.037 100.007 101.01 100.375 100.992V100.894C100.375 100.751 100.349 100.632 100.298 100.537C100.248 100.443 100.177 100.369 100.082 100.315C99.9926 100.264 99.8848 100.229 99.7591 100.211C99.6335 100.193 99.5022 100.184 99.3652 100.184C99.1992 100.184 99.014 100.206 98.8097 100.251C98.6055 100.294 98.3945 100.357 98.1768 100.44H98.1431V99.7967C98.2666 99.7631 98.445 99.726 98.6784 99.6856C98.9119 99.6452 99.1419 99.625 99.3686 99.625C99.6335 99.625 99.8635 99.6475 100.059 99.6924C100.256 99.735 100.427 99.8091 100.571 99.9146C100.712 100.018 100.82 100.151 100.894 100.315C100.968 100.479 101.005 100.682 101.005 100.925V103.477ZM100.375 102.551V101.504C100.182 101.515 99.9544 101.532 99.6918 101.554C99.4315 101.577 99.225 101.609 99.0723 101.652C98.8905 101.703 98.7435 101.784 98.6313 101.894C98.5191 102.002 98.463 102.151 98.463 102.342C98.463 102.557 98.5281 102.72 98.6582 102.83C98.7884 102.938 98.987 102.992 99.2541 102.992C99.4763 102.992 99.6795 102.949 99.8635 102.864C100.048 102.776 100.218 102.672 100.375 102.551ZM105.395 103.477H104.762V100.248H103.358C103.351 100.434 103.345 100.614 103.338 100.787C103.331 100.959 103.324 101.115 103.318 101.255C103.302 101.629 103.276 101.929 103.24 102.153C103.204 102.376 103.157 102.561 103.099 102.709C103.045 102.848 102.984 102.961 102.917 103.049C102.852 103.134 102.781 103.212 102.705 103.281C102.629 103.349 102.543 103.399 102.449 103.433C102.357 103.466 102.256 103.483 102.146 103.483C102.108 103.483 102.052 103.482 101.978 103.48C101.906 103.478 101.859 103.477 101.836 103.477V102.924H101.87C101.888 102.924 101.914 102.926 101.947 102.928C101.981 102.93 102.009 102.931 102.032 102.931C102.085 102.931 102.14 102.923 102.197 102.908C102.255 102.892 102.304 102.863 102.345 102.82C102.459 102.708 102.551 102.518 102.621 102.251C102.69 101.984 102.736 101.598 102.759 101.093C102.768 100.909 102.776 100.691 102.782 100.44C102.791 100.186 102.799 99.9449 102.806 99.7159H105.395V103.477ZM109.95 103.477H109.324V100.652L107.354 103.477H106.782V99.7159H107.408V102.5L109.357 99.7159H109.95V103.477ZM114.101 100.271H112.741V103.477H112.108V100.271H110.748V99.7159H114.101V100.271ZM118.063 103.477H117.437V100.652L115.468 103.477H114.895V99.7159H115.522V102.5L117.471 99.7159H118.063V103.477ZM122.844 103.477H122.016L120.454 101.753H120.11V103.477H119.477V99.7159H120.11V101.339C120.319 101.339 120.487 101.302 120.615 101.228C120.743 101.151 120.852 101.03 120.942 100.864C120.973 100.803 121.004 100.739 121.033 100.672C121.064 100.603 121.094 100.536 121.124 100.473C121.24 100.22 121.386 100.03 121.561 99.9045C121.736 99.7788 121.988 99.7159 122.315 99.7159H122.605V100.261H122.326C122.148 100.261 122.009 100.3 121.908 100.376C121.809 100.45 121.72 100.581 121.639 100.77C121.549 100.981 121.454 101.139 121.353 101.244C121.254 101.348 121.148 101.426 121.036 101.48L122.844 103.477Z" fill="#46474E"/>
<g clip-path="url(#clip0_5217_99688)">
<path d="M74.2125 224.508C71.3121 224.508 69.2404 226.802 69.2112 229.656C69.1821 232.482 71.4183 234.868 74.2333 234.844C76.9609 234.844 79.2345 232.489 79.1971 229.65C79.1596 226.827 77.1004 224.51 74.2125 224.51V224.508ZM74.225 233.009C72.3615 232.982 71.1018 231.233 71.1226 229.618C71.1413 228.1 72.3469 226.345 74.2 226.342C75.9677 226.34 77.3231 228.005 77.2794 229.677C77.3919 231.093 76.0426 233.038 74.2229 233.011L74.225 233.009Z" fill="#8F8F92"/>
<path d="M85.5797 224.508C82.6793 224.508 80.6076 226.802 80.5784 229.656C80.5493 232.482 82.7854 234.868 85.6005 234.844C88.328 234.844 90.6017 232.489 90.5642 229.65C90.5268 226.827 88.4675 224.51 85.5797 224.51V224.508ZM85.5921 233.009C83.7286 232.982 82.469 231.233 82.4898 229.618C82.5085 228.1 83.7141 226.345 85.5672 226.342C87.3349 226.34 88.6903 228.005 88.6466 229.677C88.759 231.093 87.4098 233.038 85.5901 233.011L85.5921 233.009Z" fill="#8F8F92"/>
<path d="M91.9119 231.458C91.9119 232.175 91.9119 232.89 91.9119 233.607C91.9119 234.017 91.9119 234.426 91.9119 234.838C91.9119 234.967 91.9557 235.019 92.0764 234.998C92.218 234.973 92.3596 234.955 92.4949 234.903C93.3069 234.591 93.8316 233.788 93.8316 232.849C93.8316 231.413 93.8462 229.974 93.8254 228.538C93.8129 227.721 94.3772 226.592 95.437 226.459C96.0762 226.377 96.6279 226.581 97.061 227.112C97.4129 227.545 97.5649 228.049 97.5607 228.63C97.5482 230.076 97.5566 231.524 97.5566 232.971C97.5566 233.098 97.5503 233.227 97.5815 233.351C97.8043 234.238 98.4019 234.892 99.2868 234.998C99.4284 235.016 99.4554 234.992 99.4554 234.833C99.4554 234.338 99.4554 233.845 99.4554 233.349C99.4554 231.739 99.4554 230.126 99.4554 228.515C99.4554 227.671 100.047 226.678 100.942 226.481C102.204 226.203 103.207 227.359 103.191 228.456C103.172 229.897 103.199 231.34 103.18 232.781C103.172 233.383 103.343 233.892 103.703 234.333C104.038 234.743 104.469 234.955 104.969 235.001C105.056 235.01 105.104 234.969 105.096 234.872C105.079 234.702 105.102 234.532 105.102 234.363C105.102 232.478 105.104 230.592 105.102 228.707C105.102 228.438 105.108 228.167 105.067 227.904C104.898 226.83 104.415 225.932 103.645 225.251C102.843 224.54 101.91 224.242 100.863 224.384C99.9635 224.506 99.216 224.934 98.583 225.624C98.5206 225.692 98.4852 225.696 98.4269 225.626C98.1895 225.339 97.9043 225.12 97.6003 224.923C96.7008 224.341 95.7368 224.199 94.7332 224.491C93.9191 224.726 93.2403 225.208 92.7364 225.959C92.218 226.732 91.8807 227.563 91.9078 228.549C91.9328 229.519 91.914 230.49 91.914 231.46L91.9119 231.458Z" fill="#8F8F92"/>
<path d="M65.4744 234.944C66.5342 234.924 67.823 234.974 69.1118 234.922C69.2992 234.915 69.3263 234.886 69.293 234.684C69.1868 234.04 68.8932 233.528 68.381 233.171C68.0083 232.911 67.5877 232.841 67.1609 232.838C65.82 232.829 64.4812 232.836 63.1403 232.836C63.0883 232.836 63.0362 232.836 62.9842 232.836C62.955 232.836 62.9196 232.843 62.905 232.802C62.8925 232.764 62.9196 232.739 62.9425 232.718C63.0779 232.601 63.1882 232.451 63.309 232.318C64.9164 230.567 66.5258 228.816 68.1353 227.065C68.2623 226.927 68.3768 226.78 68.4726 226.617C68.8537 225.968 68.7266 225.199 68.1666 224.728C67.8771 224.484 67.544 224.407 67.19 224.407C64.8831 224.405 62.5761 224.407 60.2691 224.407C60.1088 224.407 60.0775 224.437 60.1004 224.604C60.1837 225.204 60.4461 225.694 60.8896 226.063C61.2747 226.384 61.7266 226.486 62.1992 226.488C63.3881 226.493 64.5749 226.488 65.7638 226.491C65.8117 226.491 65.8825 226.461 65.9054 226.525C65.9241 226.577 65.8637 226.611 65.8304 226.647C65.0038 227.547 64.1751 228.445 63.3465 229.346C62.4386 230.332 61.5308 231.316 60.623 232.304C60.344 232.608 60.1233 232.954 60.0983 233.395C60.0588 234.071 60.4919 234.691 61.1019 234.863C61.3206 234.924 61.5454 234.947 61.7724 234.947C62.93 234.947 64.0877 234.947 65.4723 234.947L65.4744 234.944Z" fill="#8F8F92"/>
</g>
<path d="M75.3313 40.0875C75.3313 41.7172 74.0141 43.0344 72.3844 43.0344C70.7547 43.0344 69.4375 41.7172 69.4375 40.0875C69.4375 38.4579 70.7547 37.1406 72.3844 37.1406C74.0141 37.1406 75.3313 38.4579 75.3313 40.0875Z" fill="#61C454"/>
<path d="M57.4875 40.0875C57.4875 41.7172 56.1703 43.0344 54.5406 43.0344C52.911 43.0344 51.5938 41.7172 51.5938 40.0875C51.5938 38.4579 52.911 37.1406 54.5406 37.1406C56.1703 37.1406 57.4875 38.4579 57.4875 40.0875Z" fill="#ED695E"/>
<path d="M66.05 40.0875C66.05 41.7172 64.7328 43.0344 63.1031 43.0344C61.4735 43.0344 60.1562 41.7172 60.1562 40.0875C60.1562 38.4579 61.4735 37.1406 63.1031 37.1406C64.7328 37.1406 66.05 38.4579 66.05 40.0875Z" fill="#F5BF4F"/>
<path d="M262.718 121.609C262.718 121.609 275.297 127.739 279.723 143.571C284.148 159.403 297.68 200.632 297.68 200.632C297.68 200.632 305.413 209.729 306.247 216.463C307.08 223.198 305.422 239.497 302.93 242.538C300.447 245.58 296.901 245.076 296.901 245.076L264.349 241.989L251.531 156.159L262.727 121.609H262.718Z" fill="#46474E"/>
<path d="M155.071 120.113C155.071 120.113 131.8 127.415 126 133.764L145.057 222.425L144.755 250.396H255.102C255.102 249.013 256.091 157.521 256.091 157.521L262.715 121.615L223.493 114.707L215.76 108.633L172.121 110.841L165.497 117.474L155.08 120.113H155.071Z" fill="#46474E"/>
<g clip-path="url(#clip1_5217_99688)">
<path d="M225.416 163.865L223.575 165.841L223.375 170.167L219.857 170.044L220.569 154.6L224.087 154.722L223.809 160.752L229.136 154.898L233.296 155.042L227.869 161.137L232.848 170.488L228.729 170.345L225.408 163.856L225.416 163.865Z" fill="#F3F0F0"/>
<path d="M243.786 169.828C243.356 170.098 242.897 170.318 242.415 170.488C241.966 170.651 241.496 170.757 241.027 170.821C239.888 170.977 238.737 170.88 237.653 170.525C236.973 170.315 236.337 169.992 235.771 169.566C235.212 169.148 234.764 168.604 234.439 167.983C234.094 167.296 233.945 166.527 233.996 165.756L234.262 159.994C234.281 159.222 234.493 158.466 234.885 157.796C235.25 157.191 235.748 156.664 236.328 156.262C236.925 155.851 237.589 155.549 238.287 155.379C238.994 155.192 239.729 155.112 240.466 155.137C241.38 155.169 242.287 155.339 243.157 155.621C243.98 155.869 244.738 156.31 245.369 156.901L243.535 159.601C243.097 159.18 242.558 158.86 241.972 158.685C241.457 158.529 240.932 158.438 240.403 158.419C240.106 158.409 239.808 158.447 239.515 158.527C239.214 158.606 238.936 158.734 238.678 158.912C238.413 159.098 238.193 159.342 238.035 159.629C237.851 159.981 237.753 160.359 237.751 160.758L237.549 165.124C237.515 165.513 237.577 165.905 237.721 166.268C237.844 166.557 238.025 166.823 238.264 167.027C238.488 167.221 238.746 167.369 239.031 167.468C239.307 167.567 239.601 167.626 239.898 167.636C240.178 167.646 240.461 167.615 240.736 167.552C241.037 167.481 241.324 167.344 241.565 167.158L241.661 165.072L239.562 164.999L239.7 161.996L245.318 162.191L245.013 168.806C244.665 169.217 244.248 169.568 243.793 169.845L243.786 169.828Z" fill="#F3F0F0"/>
<path d="M244.485 176.027L219.568 175.16L219.412 178.55L244.329 179.417L244.485 176.027Z" fill="#F3F0F0"/>
</g>
<path d="M125.989 133.773C125.989 133.773 118.321 144.227 115.132 151.053C111.944 157.879 85.5574 215.196 83.9724 221.115C82.3782 227.024 78.2828 245.678 90.34 250.002H115.132L140.016 199.676L141.29 141.268L125.98 133.773H125.989Z" fill="#46474E"/>
<path d="M116.729 213.65C116.729 213.65 116.179 213.165 115.034 212.514C113.898 211.873 112.121 211.131 109.83 210.627C108.685 210.38 107.411 210.178 106.037 210.095C104.663 210.013 103.188 210.031 101.685 210.38C98.68 211.048 95.6841 212.945 93.3386 215.62C90.9565 218.286 89.4814 221.438 88.611 224.407C87.7315 227.384 87.3558 230.179 87.1176 232.515C86.8886 234.86 86.7969 236.766 86.7145 238.085C86.6778 238.699 86.6412 239.203 86.6229 239.606C86.5954 239.954 86.5771 240.138 86.5587 240.138C86.5404 240.138 86.5312 239.954 86.5312 239.606C86.5312 239.203 86.5312 238.699 86.5312 238.085C86.5587 236.766 86.5954 234.851 86.7786 232.487C86.971 230.133 87.3192 227.311 88.1804 224.287C89.0325 221.273 90.5259 218.03 92.9721 215.309C95.3726 212.578 98.4602 210.627 101.584 209.958C103.142 209.61 104.663 209.601 106.055 209.711C107.448 209.811 108.74 210.031 109.894 210.306C112.212 210.856 113.99 211.653 115.117 212.358C115.676 212.716 116.088 213.036 116.344 213.266C116.601 213.504 116.729 213.641 116.711 213.65H116.729Z" fill="#8F8F92"/>
<path d="M104.977 203.627C104.977 203.627 105.27 203.545 105.81 203.49C106.351 203.426 107.139 203.407 108.11 203.462C109.081 203.508 110.236 203.673 111.491 203.966C112.737 204.278 114.093 204.736 115.44 205.368C116.777 206.018 117.987 206.779 119.013 207.558C120.03 208.355 120.882 209.143 121.532 209.876C122.183 210.599 122.668 211.222 122.952 211.681C123.246 212.139 123.401 212.395 123.374 212.414C123.301 212.468 122.632 211.47 121.285 210.105C120.616 209.418 119.755 208.666 118.747 207.915C117.721 207.173 116.539 206.44 115.229 205.808C113.91 205.185 112.599 204.736 111.381 204.406C110.153 204.094 109.035 203.902 108.082 203.82C106.177 203.636 104.986 203.737 104.977 203.645V203.627Z" fill="#8F8F92"/>
<path d="M127.389 200.863C127.389 200.863 126.977 200.863 126.244 200.771C125.511 200.68 124.448 200.57 123.138 200.469C120.517 200.267 116.871 200.222 112.876 200.698C108.891 201.184 105.354 202.091 102.853 202.897C101.598 203.3 100.59 203.657 99.903 203.923C99.2158 204.18 98.8218 204.308 98.8127 204.28C98.8035 204.253 99.1608 204.06 99.8388 203.749C100.508 203.428 101.506 203.025 102.752 202.576C105.244 201.678 108.799 200.707 112.831 200.222C116.853 199.745 120.545 199.846 123.174 200.13C124.494 200.267 125.557 200.432 126.28 200.579C127.004 200.726 127.407 200.817 127.398 200.854L127.389 200.863Z" fill="#8F8F92"/>
<path d="M198.012 151.892C198.012 151.892 197.911 151.8 197.755 151.59C197.581 151.351 197.352 151.058 197.077 150.683C196.473 149.84 195.63 148.676 194.585 147.228C192.441 144.205 189.464 140 185.945 135.043L186.33 134.988C184.993 138.909 183.517 143.243 181.969 147.797L181.868 148.09L181.621 147.925C181.456 147.824 181.282 147.705 181.108 147.595C179.056 146.294 177.251 144.727 175.711 143.032C174.181 141.328 172.908 139.514 171.854 137.7C169.747 134.063 168.473 130.48 167.612 127.448C166.751 124.406 166.311 121.877 166.009 120.146C165.862 119.312 165.752 118.652 165.661 118.148C165.615 117.919 165.569 117.754 165.542 117.635C165.496 117.525 165.478 117.47 165.487 117.47C165.587 117.425 165.853 118.387 166.192 120.118C166.549 121.841 167.044 124.351 167.942 127.365C168.84 130.37 170.132 133.916 172.239 137.489C173.293 139.276 174.548 141.053 176.06 142.73C177.571 144.388 179.358 145.918 181.364 147.201C181.538 147.311 181.713 147.421 181.868 147.522L181.52 147.65C183.087 143.096 184.571 138.772 185.918 134.86L186.055 134.447L186.303 134.805C189.757 139.798 192.689 144.04 194.796 147.091C195.804 148.566 196.601 149.757 197.187 150.618C197.444 151.003 197.645 151.315 197.81 151.562C197.948 151.782 198.021 151.901 198.003 151.901L198.012 151.892Z" fill="#8F8F92"/>
<path d="M225.699 182.239C225.699 182.239 221.686 183.347 224.7 191.566C227.705 199.775 228.713 199.28 230.711 206.958C232.717 214.645 235.053 221.653 238.562 225.987C242.071 230.33 255.1 239.18 255.1 239.18L266.79 228.159C266.79 228.159 264.866 219.94 265.325 214.37C265.783 208.799 266.955 195.093 266.79 192.757C266.626 190.42 264.115 184.74 264.115 184.74V180.855L258.105 162.357C258.105 162.357 254.761 160.855 253.597 166.196L251.591 160.525C251.591 160.525 248.421 160.021 247.578 166.526C246.744 173.04 248.247 182.055 248.247 182.055L246.579 193.407L244.078 201.094L241.906 201.424C241.906 201.424 238.636 200.535 236.849 194.378C235.062 188.231 230.216 180.883 225.708 182.22L225.699 182.239Z" fill="#DDC399"/>
<path d="M262.866 211.282C262.866 211.282 262.839 211.136 262.811 210.861C262.793 210.54 262.766 210.137 262.729 209.633C262.665 208.515 262.582 206.967 262.482 205.034C262.298 201.048 262.051 195.496 261.758 189.019L261.813 189.156C261.281 188.515 260.319 188.322 259.449 188.542C258.569 188.753 257.772 189.303 257.287 190.127C256.27 191.767 256.215 193.911 255.894 195.982C255.262 200.664 254.657 205.116 254.108 209.184C253.833 211.209 253.539 213.142 253.136 214.929C252.752 216.715 252.211 218.346 251.689 219.803C251.176 221.26 250.718 222.579 250.434 223.77C250.15 224.961 250.03 226.006 250.058 226.867C250.095 228.589 250.598 229.469 250.525 229.487C250.507 229.487 250.415 229.277 250.241 228.846C250.104 228.406 249.911 227.747 249.875 226.876C249.82 226.006 249.911 224.925 250.177 223.715C250.443 222.506 250.882 221.168 251.377 219.702C251.881 218.236 252.394 216.633 252.761 214.856C253.136 213.087 253.411 211.163 253.677 209.139C254.217 205.08 254.804 200.618 255.427 195.936C255.573 194.892 255.683 193.865 255.867 192.83C256.05 191.813 256.334 190.778 256.893 189.898C257.424 189 258.359 188.341 259.348 188.112C260.329 187.864 261.492 188.084 262.161 188.891L262.207 188.955V189.028C262.436 195.505 262.619 201.058 262.756 205.052C262.802 206.985 262.848 208.534 262.876 209.661C262.876 210.165 262.885 210.568 262.885 210.888C262.885 211.163 262.885 211.31 262.866 211.31V211.282Z" fill="#46474E"/>
<path d="M256.469 190.239C256.469 190.239 256.258 189.881 255.974 189.194C255.699 188.507 255.333 187.49 254.994 186.198C254.655 184.916 254.334 183.349 254.151 181.599C254.059 180.719 253.995 179.785 254.105 178.814C254.206 177.843 254.49 176.816 255.113 175.955C255.644 175.204 256.395 174.599 257.247 174.352L257.431 174.297L257.522 174.462C259.217 177.449 260.683 180.087 261.718 181.984C262.195 182.872 262.589 183.624 262.919 184.228C263.194 184.76 263.331 185.053 263.303 185.071C263.276 185.09 263.093 184.815 262.772 184.311C262.415 183.725 261.975 183.001 261.453 182.14C260.344 180.289 258.823 177.678 257.119 174.7L257.394 174.81C256.661 175.03 255.992 175.552 255.516 176.239C254.957 177.027 254.682 177.962 254.581 178.878C254.48 179.803 254.526 180.71 254.6 181.571C254.755 183.303 255.03 184.851 255.333 186.134C255.626 187.417 255.937 188.443 256.157 189.148C256.377 189.854 256.505 190.239 256.478 190.257L256.469 190.239Z" fill="#46474E"/>
<path d="M253.685 191.737C253.685 191.737 253.611 191.362 253.575 190.675C253.538 189.887 253.501 188.916 253.455 187.77C253.373 185.315 253.3 181.925 253.245 178.178C253.217 174.44 253.071 171.031 253.391 168.567C253.547 167.339 253.794 166.359 254.014 165.708C254.234 165.049 254.417 164.719 254.445 164.719C254.527 164.746 253.932 166.166 253.721 168.603C253.492 171.031 253.685 174.421 253.721 178.178C253.776 181.925 253.794 185.315 253.794 187.77C253.785 188.916 253.767 189.896 253.758 190.675C253.74 191.362 253.712 191.747 253.685 191.747V191.737Z" fill="#46474E"/>
<path d="M243.79 222.526C243.726 222.471 244.459 221.61 245.357 220.053C245.815 219.274 246.282 218.312 246.713 217.203C247.125 216.086 247.501 214.83 247.758 213.484C247.996 212.128 248.078 210.827 248.078 209.635C248.06 208.444 247.959 207.372 247.803 206.493C247.501 204.716 247.116 203.653 247.199 203.625C247.226 203.616 247.345 203.873 247.528 204.349C247.721 204.825 247.932 205.54 248.133 206.429C248.335 207.327 248.472 208.417 248.518 209.626C248.545 210.845 248.463 212.183 248.225 213.566C247.968 214.949 247.574 216.232 247.125 217.359C246.658 218.486 246.145 219.457 245.641 220.227C245.146 220.996 244.697 221.592 244.349 221.968C244.01 222.352 243.809 222.554 243.781 222.526H243.79Z" fill="#46474E"/>
<path d="M264.321 216.79L274.464 220.309C274.464 220.309 284.148 215.297 290.827 220.309C297.506 225.32 303.305 238.523 301.473 243.864C301.473 243.864 296.865 249.554 293.356 250.387C289.847 251.221 276.213 247.923 270.542 246.723C264.853 245.522 255.086 239.173 255.086 239.173L264.312 216.781L264.321 216.79Z" fill="#DDC399"/>
<path d="M265.561 231.737C265.561 231.737 265.488 231.416 265.451 230.839C265.415 230.152 265.36 229.337 265.305 228.393C265.195 226.322 265.057 223.464 265.012 220.294C264.966 217.124 265.057 214.256 265.25 212.185C265.341 211.15 265.451 210.316 265.552 209.739C265.653 209.171 265.726 208.85 265.763 208.86C265.836 208.869 265.68 210.142 265.58 212.204C265.479 214.265 265.442 217.124 265.488 220.285C265.543 223.381 265.598 226.185 265.635 228.375C265.644 229.41 265.644 230.253 265.635 230.83C265.616 231.407 265.589 231.728 265.561 231.728V231.737Z" fill="#46474E"/>
<path d="M299.013 219.915C298.94 219.988 297.896 218.54 295.642 216.873C293.416 215.205 289.806 213.428 285.536 213.19C281.258 212.961 277.474 214.326 275.082 215.737C272.654 217.148 271.463 218.467 271.399 218.384C271.381 218.366 271.665 218.027 272.233 217.477C272.801 216.928 273.699 216.195 274.908 215.443C277.3 213.932 281.166 212.475 285.564 212.713C289.961 212.961 293.645 214.839 295.853 216.598C296.97 217.477 297.786 218.302 298.29 218.916C298.803 219.521 299.041 219.896 299.023 219.905L299.013 219.915Z" fill="#8F8F92"/>
<path d="M297.714 211.458C297.65 211.559 296.294 210.185 293.49 209.131C290.733 208.05 286.454 207.555 282.065 208.792C279.876 209.406 277.869 210.277 276.156 211.248C274.443 212.228 273.013 213.3 271.877 214.271C270.741 215.242 269.871 216.094 269.266 216.681C268.671 217.267 268.341 217.597 268.313 217.579C268.295 217.56 268.579 217.194 269.129 216.553C269.688 215.92 270.521 215.032 271.648 214.015C272.766 212.998 274.195 211.88 275.927 210.863C277.659 209.855 279.693 208.948 281.928 208.325C286.427 207.061 290.815 207.629 293.6 208.811C295.011 209.388 296.056 210.057 296.725 210.57C297.073 210.817 297.302 211.055 297.467 211.202C297.632 211.349 297.714 211.44 297.696 211.449L297.714 211.458Z" fill="#8F8F92"/>
<path d="M297.799 204.136C297.771 204.228 296.003 203.687 293.053 203.293C291.578 203.082 289.809 202.963 287.849 202.963C285.888 202.991 283.735 203.156 281.499 203.531C279.273 203.934 277.193 204.521 275.333 205.162C273.492 205.831 271.87 206.546 270.56 207.251C267.93 208.634 266.446 209.743 266.391 209.67C266.373 209.642 266.73 209.358 267.408 208.854C267.738 208.598 268.16 208.305 268.673 207.993C269.177 207.682 269.745 207.297 270.404 206.949C271.705 206.207 273.336 205.446 275.187 204.75C277.056 204.081 279.163 203.476 281.417 203.064C283.68 202.679 285.861 202.533 287.849 202.523C289.837 202.551 291.614 202.707 293.098 202.963C293.841 203.055 294.5 203.229 295.087 203.348C295.673 203.467 296.168 203.605 296.562 203.724C297.368 203.962 297.808 204.108 297.799 204.136Z" fill="#8F8F92"/>
<path d="M220.073 114.406C220.073 114.406 220.541 115.286 220.779 117.1C221.026 118.905 220.99 121.617 220.394 124.97C220.092 126.647 219.689 128.488 219.084 130.458C218.452 132.428 217.499 134.444 216.418 136.551C214.228 140.765 211.48 145.355 208.3 150.257L207.925 150.825V150.138C207.925 147.045 207.916 143.8 207.908 140.429C205.511 142.36 203.011 144.38 200.437 146.46L199.758 147.008C197.791 153.276 196.489 160.252 195.977 167.509C195.203 177.861 195.785 196.554 195.882 198.809C195.89 198.952 195.895 199.026 195.895 199.026C195.894 199.059 195.89 198.983 195.882 198.809C195.753 196.595 194.709 177.991 195.492 167.482C196.014 160.17 197.333 153.134 199.331 146.812L199.349 146.748L199.404 146.702C202.22 144.436 204.961 142.236 207.58 140.133L207.98 139.812L208.337 139.528V139.987C208.337 143.262 208.329 146.428 208.321 149.46C214.441 139.949 219.375 131.667 220.147 124.943C220.779 121.617 220.852 118.923 220.642 117.127C220.55 116.22 220.376 115.551 220.266 115.093C220.119 114.644 220.064 114.415 220.064 114.415L220.073 114.406Z" fill="#8F8F92"/>
<path d="M203.075 191.172H202.772C201.553 191.197 200.469 192.308 200.469 193.528C200.469 194.748 201.545 195.867 202.756 195.909C203.975 195.951 205.127 194.908 205.202 193.696C205.286 192.476 204.277 191.298 203.067 191.172H203.075Z" fill="#65666D"/>
<path d="M203.083 174.578H202.78C201.561 174.603 200.477 175.714 200.477 176.934C200.477 178.154 201.553 179.273 202.763 179.315C203.983 179.357 205.134 178.314 205.21 177.102C205.294 175.891 204.285 174.704 203.075 174.578H203.083Z" fill="#65666D"/>
<path d="M202.768 165.097C203.985 165.139 205.135 164.096 205.211 162.884C205.287 161.672 204.288 160.485 203.079 160.367H202.777C201.559 160.392 200.477 161.503 200.477 162.724C200.477 163.944 201.551 165.064 202.76 165.106L202.768 165.097Z" fill="#65666D"/>
<path d="M214.482 121.556C213.777 116.095 213.2 111.542 213.163 110.974C213.163 110.974 231.414 106.869 230.406 88.4171C229.92 79.4933 227.419 61.206 224.973 44.687C222.343 26.9493 206.511 14.2142 188.609 15.4052L186.831 15.5243C167.719 17.9248 159.089 35.5066 162.021 54.5361L172.337 118.368C172.337 118.368 176.735 132.486 186.153 134.933L198.027 151.901L199.988 144.598L208.838 136.893C208.838 136.893 210.872 134.694 213.2 130.397C215.105 126.879 214.702 123.269 214.473 121.556H214.482Z" fill="#DDC399"/>
<path d="M213.171 110.699C213.171 110.699 201.581 112.431 188.672 105.477C188.672 105.477 195.241 118.367 213.528 115.472L213.171 110.699Z" fill="#46474E"/>
<path d="M219.05 60.5379C219.196 61.9213 218.133 63.1857 216.686 63.3689C215.238 63.543 213.956 62.5627 213.809 61.1792C213.671 59.7957 214.725 58.5222 216.164 58.3481C217.611 58.1741 218.894 59.1544 219.04 60.547L219.05 60.5379Z" fill="#46474E"/>
<path d="M221.628 53.9954C221.325 54.3619 219.227 53.015 216.396 53.2166C213.565 53.3724 211.577 54.9665 211.247 54.6459C211.082 54.4993 211.375 53.8579 212.237 53.1433C213.079 52.4287 214.564 51.6866 216.323 51.5766C218.091 51.4667 219.621 52.0164 220.519 52.6302C221.435 53.2441 221.774 53.8396 221.618 54.0045L221.628 53.9954Z" fill="#46474E"/>
<path d="M192.262 62.4597C192.399 63.8432 191.346 65.1076 189.898 65.2908C188.451 65.4649 187.168 64.4845 187.021 63.1011C186.875 61.7176 187.938 60.4441 189.385 60.27C190.833 60.0959 192.115 61.0763 192.262 62.4689V62.4597Z" fill="#46474E"/>
<path d="M193.799 56.3938C193.497 56.7603 191.399 55.4135 188.568 55.615C185.737 55.7708 183.749 57.365 183.419 57.0443C183.254 56.8977 183.547 56.2564 184.408 55.5417C185.251 54.8271 186.736 54.085 188.495 53.975C190.263 53.8651 191.793 54.4148 192.691 55.0287C193.607 55.6425 193.946 56.2381 193.79 56.403L193.799 56.3938Z" fill="#46474E"/>
<path d="M205.496 76.7178C205.469 76.5529 207.209 76.1314 210.04 75.5817C210.764 75.4626 211.433 75.2702 211.525 74.7663C211.662 74.2349 211.305 73.4744 210.902 72.6498C210.105 70.9457 209.271 69.1591 208.391 67.2809C204.891 59.6307 202.308 53.3272 202.619 53.1898C202.931 53.0524 206.009 59.1359 209.509 66.7862C210.352 68.6735 211.158 70.4693 211.928 72.1917C212.258 72.998 212.789 73.8959 212.496 75.0045C212.34 75.5542 211.836 75.9848 211.378 76.1406C210.92 76.3146 210.517 76.3513 210.16 76.3971C207.301 76.7453 205.514 76.8735 205.496 76.7178Z" fill="#46474E"/>
<path d="M193.792 45.2464C193.563 46.0344 190.714 45.8603 187.415 46.4833C184.108 47.0422 181.488 48.1966 181.002 47.5278C180.782 47.2071 181.204 46.4558 182.239 45.6312C183.265 44.8158 184.932 43.9912 186.911 43.6339C188.89 43.2858 190.741 43.4782 191.987 43.8905C193.242 44.3028 193.893 44.8616 193.801 45.2373L193.792 45.2464Z" fill="#46474E"/>
<path d="M220.044 45.8746C219.586 46.5526 217.589 46.012 215.243 46.1403C212.889 46.1861 210.937 46.8641 210.433 46.2227C210.213 45.9112 210.479 45.2424 211.304 44.5736C212.119 43.9048 213.521 43.3184 215.133 43.2542C216.746 43.1993 218.184 43.6849 219.045 44.2896C219.916 44.8942 220.237 45.5447 220.035 45.8654L220.044 45.8746Z" fill="#46474E"/>
<path d="M164.447 68.1061C164.126 67.987 151.528 65.2109 152.774 77.7903C154.02 90.3697 167.653 86.2743 167.644 85.9079C167.635 85.5414 164.456 68.1153 164.456 68.1153L164.447 68.1061Z" fill="#DDC399"/>
<path d="M162.07 81.771C162.006 81.7344 161.868 81.9451 161.511 82.1558C161.163 82.3574 160.558 82.5315 159.88 82.3482C158.506 81.9909 157.177 79.9936 156.884 77.7306C156.737 76.5853 156.875 75.4767 157.186 74.5331C157.48 73.571 158.011 72.8747 158.671 72.6915C159.321 72.4716 159.834 72.8289 160.027 73.1679C160.228 73.5069 160.173 73.7634 160.246 73.7726C160.283 73.8001 160.494 73.5344 160.347 73.0213C160.274 72.7739 160.091 72.4991 159.779 72.2792C159.449 72.0593 159 71.986 158.533 72.0776C157.571 72.2426 156.783 73.2229 156.435 74.2582C156.032 75.3027 155.858 76.5579 156.023 77.8405C156.353 80.3692 157.892 82.6139 159.761 82.9529C160.668 83.0995 161.383 82.7605 161.731 82.4215C162.088 82.0734 162.125 81.7802 162.079 81.7619L162.07 81.771Z" fill="#46474E"/>
<path d="M163.752 73.0458C160.537 69.491 157.302 65.8995 154.957 61.7125C152.621 57.5346 151.219 52.6512 151.998 47.9237C152.446 45.1567 153.628 42.5272 153.812 39.7237C154.068 35.8756 152.456 31.8535 153.812 28.2529C155.946 22.6182 163.532 21.7479 168.132 17.854C171.714 14.8214 173.464 9.90141 177.404 7.34521C180.849 5.11885 185.274 5.16466 189.333 5.74186C193.391 6.31907 197.478 7.34521 201.546 6.79549C204.441 6.40153 207.171 5.23795 210.011 4.53248C212.851 3.82701 216.012 3.64377 218.541 5.10968C221.07 6.5756 222.49 10.1671 220.832 12.5767C225.541 10.4053 231.524 14.0793 232.815 19.1C234.107 24.1208 231.524 29.5539 227.529 32.8614C223.534 36.178 218.376 37.7172 213.282 38.6792C198.852 41.4003 183.203 39.8611 170.77 32.0551" fill="#B18C5E"/>
<path d="M224.053 27.5058C223.191 32.5174 213.031 37.0984 204.611 36.8602C196.851 36.6311 193.012 32.7831 187.368 30.0436C184.986 28.8892 182.182 28.5747 178.957 29.0999C175.045 29.7413 173.011 34.3589 170.812 37.6664C174.999 46.8009 173.313 57.4197 171.536 67.3146C171.344 68.4049 171.096 69.5868 170.263 70.3197C168.852 71.5658 166.552 70.8236 165.159 69.5501C162.933 67.507 161.916 64.4927 161.192 61.5609C159.525 54.8909 158.893 47.9003 159.946 41.1022C161 34.304 163.813 27.7073 168.458 22.6316C174.257 16.2915 182.741 12.6359 191.326 12.1961C199.911 11.7563 208.532 14.4133 215.715 19.1225C219.05 21.3031 222.165 24.0059 224.053 27.5241" fill="#B18C5E"/>
<path d="M207.336 83.0872C205.202 82.0885 203.058 81.0899 200.923 80.1004C200.557 79.9263 200.163 79.7522 199.76 79.8072C199.301 79.8713 198.944 80.2103 198.651 80.5585C197.167 82.3634 196.791 85.0754 197.936 87.1093C199.091 89.1433 201.793 90.2152 203.956 89.3174C206.228 88.3737 207.336 85.735 207.511 83.2796L207.336 83.078V83.0872Z" fill="#46474E"/>
<path d="M204.167 89.7814C204.185 89.8363 203.873 90.0196 203.232 90.157C202.6 90.2761 201.61 90.3219 200.474 89.9554C199.347 89.589 198.074 88.7186 197.286 87.3076C196.489 85.9333 196.196 84.0002 196.892 82.2502C197.222 81.3798 197.744 80.6102 198.376 80.0055C198.697 79.7032 199.027 79.4466 199.421 79.2176C199.622 79.1077 199.87 78.9977 200.163 78.9794C200.447 78.9611 200.703 79.0344 200.905 79.126C201.326 79.3092 201.592 79.5108 201.904 79.694C202.206 79.8773 202.49 80.0605 202.774 80.2346C203.324 80.5827 203.846 80.9034 204.332 81.2149C206.237 82.4243 207.373 83.2305 207.309 83.3405C207.245 83.4504 205.981 82.8549 203.993 81.8013C203.489 81.5264 202.948 81.2332 202.371 80.9217C202.078 80.7568 201.784 80.5919 201.473 80.427C201.171 80.2621 200.832 80.0513 200.566 79.9506C200.273 79.8498 200.144 79.8589 199.86 80.0147C199.586 80.1888 199.274 80.427 199.018 80.6835C198.486 81.2058 198.056 81.8563 197.772 82.5984C197.185 84.0735 197.396 85.6768 198.046 86.8953C198.688 88.1231 199.723 88.9293 200.694 89.3324C201.675 89.7447 202.572 89.7997 203.177 89.7997C203.791 89.7814 204.13 89.7264 204.157 89.7997L204.167 89.7814Z" fill="#46474E"/>
<path d="M202.138 60.86C202.065 60.86 202.148 59.6872 201.635 57.6716C201.131 55.7018 199.811 52.7974 196.843 50.5527C195.368 49.4533 193.517 48.5279 191.382 48.1523C189.257 47.795 186.865 47.8591 184.593 48.7295C183.448 49.1326 182.339 49.7282 181.332 50.4886C180.305 51.2307 179.371 52.1561 178.601 53.228C177.016 55.3444 176.118 58.0564 176.091 60.8508C176.118 63.6452 177.007 66.3663 178.601 68.4827C179.371 69.5547 180.305 70.4801 181.332 71.2222C182.349 71.9826 183.448 72.5873 184.593 72.9813C186.865 73.8517 189.266 73.9158 191.382 73.5585C193.517 73.1828 195.368 72.2575 196.843 71.158C199.811 68.9134 201.131 66.009 201.635 64.0392C202.148 62.0235 202.065 60.8508 202.138 60.8508C202.138 60.8508 202.148 60.9241 202.157 61.0615C202.157 61.2356 202.157 61.4372 202.157 61.6845C202.157 61.9594 202.138 62.2984 202.074 62.7015C202.019 63.1047 201.974 63.5719 201.827 64.0758C201.616 65.102 201.149 66.3297 200.407 67.6215C199.656 68.9134 198.565 70.2693 197.063 71.4237C195.569 72.569 193.673 73.5402 191.474 73.9433C189.293 74.3281 186.82 74.2731 184.465 73.3936C183.274 72.9813 182.129 72.3674 181.075 71.5795C180.012 70.8099 179.041 69.857 178.244 68.7484C176.595 66.5679 175.66 63.746 175.633 60.8416C175.66 57.9465 176.595 55.1246 178.244 52.944C179.041 51.8354 180.012 50.8826 181.075 50.113C182.129 49.3342 183.274 48.7112 184.465 48.2989C186.829 47.4102 189.293 47.3552 191.474 47.7492C193.673 48.1523 195.569 49.1326 197.063 50.2687C198.565 51.4231 199.656 52.7791 200.407 54.0709C201.149 55.3719 201.616 56.5905 201.827 57.6166C201.974 58.1205 202.019 58.5878 202.074 58.9909C202.138 59.3941 202.157 59.733 202.157 60.0079C202.157 60.2553 202.157 60.466 202.157 60.6309C202.157 60.7775 202.157 60.8508 202.138 60.8508V60.86Z" fill="#46474E"/>
<path d="M233.518 59.6244C233.445 59.6244 233.518 58.4791 233.023 56.5185C232.528 54.5945 231.246 51.7634 228.35 49.5829C226.921 48.5109 225.116 47.6039 223.037 47.2466C220.966 46.8984 218.639 46.9625 216.422 47.8146C215.304 48.1994 214.232 48.7949 213.242 49.5279C212.244 50.2517 211.337 51.1587 210.585 52.2032C209.037 54.2646 208.167 56.9033 208.139 59.6336C208.167 62.3638 209.037 65.0025 210.585 67.0639C211.337 68.1084 212.244 69.0063 213.242 69.7392C214.232 70.4814 215.304 71.0677 216.422 71.4525C218.639 72.2954 220.966 72.3687 223.037 72.0206C225.116 71.6541 226.921 70.7471 228.35 69.6843C231.246 67.4946 232.528 64.6727 233.023 62.7486C233.518 60.788 233.435 59.6427 233.509 59.6427C233.527 59.6427 233.527 59.9267 233.509 60.4581C233.509 60.7238 233.5 61.0628 233.435 61.4476C233.38 61.8416 233.335 62.2905 233.197 62.7853C232.757 64.7459 231.493 67.6686 228.552 69.95C227.095 71.0677 225.245 72.0206 223.101 72.4054C220.975 72.781 218.565 72.726 216.266 71.8648C215.111 71.4709 213.994 70.8662 212.968 70.0966C211.932 69.3453 210.989 68.4107 210.21 67.3388C208.597 65.2132 207.69 62.4646 207.672 59.6336C207.699 56.8025 208.606 54.0631 210.21 51.9283C210.989 50.8472 211.932 49.9127 212.968 49.1706C213.994 48.4101 215.111 47.8054 216.266 47.4023C218.565 46.5411 220.975 46.4861 223.101 46.8617C225.245 47.2557 227.095 48.2086 228.552 49.3172C231.493 51.5985 232.748 54.512 233.197 56.4818C233.335 56.9766 233.38 57.4255 233.435 57.8195C233.5 58.2135 233.518 58.5433 233.509 58.809C233.527 59.3495 233.518 59.6244 233.509 59.6244H233.518Z" fill="#46474E"/>
<path d="M207.917 56.7217C207.862 56.7767 207.559 56.5202 207.01 56.2545C206.46 55.9888 205.626 55.7322 204.701 55.7506C203.766 55.7597 202.951 56.0529 202.41 56.3369C201.861 56.621 201.577 56.8867 201.522 56.8408C201.476 56.8042 201.687 56.4377 202.236 56.0529C202.777 55.6681 203.656 55.2925 204.692 55.2741C205.718 55.2558 206.625 55.5948 207.175 55.9613C207.734 56.3278 207.963 56.6851 207.926 56.7217H207.917Z" fill="#46474E"/>
<path d="M176.658 58.9961C176.74 59.106 174.166 61.1583 170.913 63.5771C167.661 66.005 164.967 67.8832 164.885 67.7824C164.802 67.6725 167.377 65.6293 170.629 63.2014C173.882 60.7735 176.575 58.8953 176.658 58.9961Z" fill="#46474E"/>
<path d="M252.312 159.377C252.312 159.377 252.404 159.01 252.642 158.378C252.926 157.654 253.275 156.766 253.687 155.712C254.576 153.467 255.794 150.361 257.077 146.917C258.359 143.463 259.468 140.32 260.265 138.048C260.641 136.985 260.961 136.087 261.218 135.354C261.447 134.722 261.594 134.374 261.621 134.383C261.649 134.392 261.566 134.759 261.392 135.409C261.218 136.06 260.943 137.003 260.586 138.158C259.871 140.467 258.808 143.637 257.526 147.091C256.243 150.545 254.969 153.632 254.007 155.85C253.522 156.958 253.119 157.847 252.826 158.461C252.532 159.065 252.358 159.395 252.322 159.386L252.312 159.377Z" fill="#46474E"/>
<path d="M136.812 160.273C136.683 160.301 135.685 155.94 134.585 150.534C133.486 145.128 132.698 140.731 132.826 140.703C132.954 140.676 133.953 145.037 135.053 150.442C136.152 155.848 136.94 160.246 136.812 160.273Z" fill="#46474E"/>
<path d="M135.072 214.777C135.365 214.924 131.719 186.229 131.719 186.229C131.719 186.229 134.018 164.451 135.31 163.443L135.347 155.756C135.347 155.756 138.911 153.594 139.864 157.084C139.864 157.084 143.025 154.345 143.574 160.868C144.124 167.392 144.243 174.071 144.243 174.071L151.27 191.643L152.425 192.23C152.425 192.23 153.937 178.459 154.816 176.434C155.696 174.41 156.3 169.48 159.626 170.223C162.952 170.965 163.236 173.722 162.64 178.212C162.045 182.701 161.294 187.337 161.569 190.242C161.843 193.146 163.163 199.532 162.76 204.598C162.356 209.674 159.58 215.025 156.658 218.781C153.744 222.538 148.174 230.307 145.141 232.652C144.087 233.468 135.072 214.768 135.072 214.768V214.777Z" fill="#DDC399"/>
<path d="M138.63 191.418C138.63 191.418 138.602 190.978 138.648 190.19C138.712 189.311 138.785 188.193 138.877 186.855C139.088 184.043 139.418 180.158 139.812 175.87C140.013 173.735 140.205 171.701 140.38 169.832C140.471 168.907 140.526 168.037 140.416 167.239C140.306 166.442 139.995 165.755 139.537 165.26C138.611 164.253 137.411 163.996 136.669 163.996C135.89 163.996 135.487 164.198 135.469 164.152C135.469 164.134 135.56 164.088 135.753 164.005C135.954 163.932 136.257 163.84 136.66 163.813C137.448 163.758 138.73 163.959 139.784 165.031C140.306 165.563 140.673 166.332 140.801 167.185C140.948 168.037 140.893 168.944 140.819 169.878C140.654 171.747 140.471 173.781 140.288 175.925C139.894 180.213 139.509 184.088 139.216 186.892C139.06 188.22 138.941 189.338 138.831 190.209C138.73 190.997 138.657 191.427 138.63 191.418Z" fill="#46474E"/>
<path d="M142.392 179.69C142.466 179.745 141.678 180.442 141.146 181.953C140.578 183.447 140.377 185.701 139.983 188.147C139.607 190.602 139.232 192.82 138.948 194.423C138.654 196.026 138.444 197.007 138.38 196.997C138.315 196.988 138.407 195.98 138.618 194.368C138.819 192.755 139.14 190.529 139.516 188.074C139.91 185.637 140.166 183.364 140.844 181.825C141.165 181.056 141.55 180.497 141.861 180.149C142.163 179.8 142.383 179.663 142.402 179.681L142.392 179.69Z" fill="#46474E"/>
<path d="M139.817 156.703C139.817 156.703 139.936 157.024 140.064 157.601C140.192 158.187 140.348 159.039 140.531 160.102C140.879 162.219 141.264 165.16 141.512 168.43C141.75 171.701 141.805 174.67 141.768 176.814C141.75 177.886 141.722 178.756 141.677 179.352C141.64 179.947 141.603 180.286 141.567 180.277C141.493 180.277 141.484 178.948 141.429 176.814C141.374 174.679 141.273 171.72 141.035 168.467C140.797 165.215 140.467 162.274 140.201 160.148C139.936 158.022 139.762 156.712 139.826 156.703H139.817Z" fill="#46474E"/>
<path d="M160.088 183.603C160.162 183.713 159.062 184.216 157.724 183.804C156.378 183.401 155.755 182.366 155.874 182.32C155.975 182.228 156.68 183.007 157.862 183.355C159.035 183.731 160.052 183.474 160.088 183.612V183.603Z" fill="#46474E"/>
<path d="M135.472 211.204L116.901 219.01H105.833C105.833 219.01 94.8843 222.428 93.2077 232.68C91.5219 242.942 91.2837 248.219 96.0937 249.483C100.904 250.757 114.491 250.894 121.225 248.659C127.959 246.423 145.605 232.185 145.605 232.185L147.309 221.887L135.472 211.195V211.204Z" fill="#DDC399"/>
<path d="M139.816 222.538C139.816 222.538 139.606 222.391 139.285 222.052C138.955 221.731 138.552 221.2 138.076 220.522C137.159 219.148 136.152 217.068 135.483 214.649C134.786 212.231 134.493 209.968 134.337 208.337C134.2 206.706 134.209 205.689 134.264 205.68C134.337 205.68 134.447 206.678 134.667 208.291C134.905 209.903 135.254 212.13 135.932 214.512C136.591 216.903 137.526 218.946 138.35 220.339C139.184 221.722 139.862 222.483 139.798 222.538H139.816Z" fill="#46474E"/>
<path d="M147.922 225.804C147.821 225.767 148.655 224.356 148.975 221.818C149.131 220.563 149.113 219.033 148.755 217.393C148.398 215.753 147.619 214.067 146.483 212.491C145.356 210.906 144.083 209.532 143.02 208.204C141.939 206.875 141.078 205.583 140.51 204.41C139.942 203.238 139.676 202.202 139.575 201.479C139.484 200.755 139.52 200.352 139.539 200.352C139.63 200.333 139.603 201.992 140.803 204.255C141.389 205.382 142.269 206.628 143.35 207.92C144.431 209.221 145.714 210.595 146.868 212.207C148.032 213.811 148.838 215.588 149.186 217.292C149.534 218.987 149.516 220.572 149.314 221.855C149.113 223.147 148.755 224.145 148.462 224.805C148.325 225.135 148.187 225.382 148.087 225.547C147.995 225.712 147.931 225.795 147.922 225.785V225.804Z" fill="#46474E"/>
<defs>
<filter id="filter0_d_5217_99688" x="0.403557" y="0.217403" width="410.794" height="326.685" filterUnits="userSpaceOnUse" color-interpolation-filters="sRGB">
<feFlood flood-opacity="0" result="BackgroundImageFix"/>
<feColorMatrix in="SourceAlpha" type="matrix" values="0 0 0 0 0 0 0 0 0 0 0 0 0 0 0 0 0 0 127 0" result="hardAlpha"/>
<feOffset dy="16.8138"/>
<feGaussianBlur stdDeviation="16.8138"/>
<feComposite in2="hardAlpha" operator="out"/>
<feColorMatrix type="matrix" values="0 0 0 0 0.27451 0 0 0 0 0.278431 0 0 0 0 0.305882 0 0 0 0.2 0"/>
<feBlend mode="multiply" in2="BackgroundImageFix" result="effect1_dropShadow_5217_99688"/>
<feBlend mode="normal" in="SourceGraphic" in2="effect1_dropShadow_5217_99688" result="shape"/>
</filter>
<clipPath id="clip0_5217_99688">
<rect width="45.0154" height="10.6615" fill="white" transform="translate(60.0938 224.344)"/>
</clipPath>
<clipPath id="clip1_5217_99688">
<rect width="25.0176" height="24.1062" fill="white" transform="matrix(0.99939 0.0347717 -0.0460529 0.998932 220.529 154.445)"/>
</clipPath>
</defs>
</svg>
