<svg width="742" height="297" viewBox="0 0 742 297" fill="none" xmlns="http://www.w3.org/2000/svg">
<path d="M45.7366 80.4234L30.5607 97.9792L30.5607 135.259H0L0 2.15704L30.5607 2.15704L30.5607 54.1248L74.4177 2.15704L110.547 2.15704L65.9247 56.2231L112.845 135.189L77.063 135.189L45.667 80.3535L45.7366 80.4234Z" fill="#FBFBFB"/>
<path d="M158.721 2.15704L158.721 135.259H128.16L128.16 2.15704L158.721 2.15704Z" fill="#FBFBFB"/>
<path d="M286.532 96.2306C286.672 102.316 285.21 108.331 282.286 113.716C279.432 118.682 275.533 122.949 270.869 126.166C265.718 129.663 260.009 132.251 253.953 133.72C247.27 135.399 240.378 136.238 233.486 136.238C228.753 136.238 224.019 135.958 219.355 135.469C214.899 134.979 210.444 134 206.197 132.671C201.812 131.272 197.565 129.384 193.597 127.076C189.142 124.488 185.035 121.48 181.206 118.123L198.331 95.5312C203.413 99.7277 209.191 103.085 215.317 105.463C220.817 107.561 226.664 108.611 232.512 108.68C236.062 108.75 239.612 108.401 243.093 107.491C245.53 106.932 247.827 105.883 249.915 104.484C251.447 103.505 252.7 102.106 253.535 100.567C254.231 99.3081 254.579 97.9092 254.579 96.5104C254.579 94.6918 254.092 92.9433 253.118 91.4045C251.864 89.6559 250.194 88.2571 248.245 87.2779C245.321 85.7391 242.258 84.4102 239.125 83.431C235.366 82.172 230.632 80.7032 224.993 79.1645C219.424 77.6957 213.925 75.8072 208.634 73.4991C204.248 71.6106 200.211 69.0227 196.591 65.8053C193.388 62.8677 190.813 59.1607 189.212 55.104C187.402 50.3479 186.566 45.312 186.706 40.2061C186.636 34.5407 187.819 28.9453 190.256 23.9094C192.623 19.0833 196.034 14.8867 200.28 11.5294C204.875 7.96233 210.096 5.30449 215.665 3.69579C222.07 1.73739 228.613 0.828125 235.227 0.828125C242.884 0.828125 250.472 1.52756 257.991 2.92642C266.414 4.74494 274.35 8.2421 281.311 13.1381L267.667 37.8281C262.446 34.261 256.598 31.743 250.472 30.2742C245.321 29.225 240.1 28.7354 234.809 28.7354C230.702 28.5956 226.664 29.3649 222.975 31.1835C219.981 32.7222 218.241 35.8696 218.45 39.2269C218.45 40.8356 218.937 42.4443 219.912 43.7732C221.234 45.4519 222.905 46.7808 224.785 47.76C227.708 49.2987 230.702 50.5577 233.834 51.5369C237.524 52.7959 242.118 54.1248 247.479 55.6636C254.579 57.4121 261.402 60.07 267.876 63.4972C272.401 65.8753 276.369 69.0927 279.71 72.9395C282.356 76.1569 284.235 79.9338 285.21 83.9206C286.115 87.9074 286.602 92.034 286.532 96.1606V96.2306Z" fill="#FBFBFB"/>
<path d="M304.841 2.15704L397.29 2.15704V29.3649L335.402 29.3649V54.4745L388.24 54.4745V81.6824H335.402V107.911H397.29V135.119H304.841V2.15704Z" fill="#FBFBFB"/>
<path d="M417.478 135.259V2.15704L447.621 2.15704V107.981L510.482 107.981V135.189L417.478 135.189V135.259Z" fill="#FBFBFB"/>
<path d="M522.943 2.15704L615.391 2.15704V29.3649L553.504 29.3649V54.4745L606.341 54.4745V81.6824L553.504 81.6824V107.911L615.391 107.911V135.119H522.943V2.15704Z" fill="#FBFBFB"/>
<path d="M685.005 90.4253L698.441 42.3044L709.997 2.15704L741.88 2.15704L699.764 135.189H668.437L625.973 2.15704L658.622 2.15704L670.526 43.0738L683.822 90.3554H684.936L685.005 90.4253Z" fill="#FBFBFB"/>
<path d="M87.0974 286.445C83.4541 288.899 79.5306 290.932 75.3968 292.545C71.5434 294.088 67.4797 295.14 63.416 295.841C53.5371 297.524 43.448 297.033 33.8493 294.298C27.8239 292.685 22.1487 290.091 17.0341 286.585C11.9896 283.149 7.85586 278.591 4.77308 273.332C1.4801 267.512 -0.131363 260.921 0.00876307 254.259L0.00876307 204.474C-0.131363 197.812 1.41001 191.221 4.56286 185.331C7.50551 180.002 11.6392 175.304 16.5437 171.658C21.5882 167.941 27.2633 165.136 33.2888 163.453C39.3843 161.63 45.7601 160.719 52.2059 160.719C60.1931 160.719 68.1803 161.911 75.8873 164.085C83.1739 165.978 89.9699 169.554 95.7151 174.462L80.7917 198.303C76.7981 194.797 71.9638 192.203 66.7791 190.871C62.225 189.678 57.6008 189.047 52.9766 189.047C50.3843 189.047 47.7919 189.468 45.2697 190.239C42.6773 191.011 40.2952 192.203 38.1232 193.816C35.8812 195.498 34.0595 197.672 32.7983 200.197C31.327 203.282 30.6265 206.578 30.7666 210.013L30.7666 247.738C30.6265 251.104 31.327 254.47 32.7283 257.555C33.9194 260.009 35.6009 262.253 37.7729 263.936C39.8047 265.549 42.1168 266.741 44.6391 267.512C47.0913 268.284 49.6837 268.704 52.276 268.704C54.7282 268.704 57.1804 268.354 59.5625 267.723C62.1549 267.021 64.607 265.759 66.6389 264.076V246.055H48.2824L48.2824 220.111H97.3967V277.259C94.5241 280.905 91.021 284.061 87.1675 286.585L87.0974 286.445Z" fill="#FBFBFB"/>
<path d="M179.441 162.051C185.887 161.841 192.332 163.103 198.218 165.697C203.122 167.941 207.466 171.237 210.899 175.374C214.192 179.371 216.644 183.999 218.046 189.047C219.517 194.026 220.288 199.215 220.288 204.404C220.288 207.98 219.727 211.556 218.746 214.922C217.695 218.428 216.294 221.864 214.402 225.019C212.511 228.245 210.199 231.26 207.536 233.925C204.874 236.659 201.791 239.043 198.428 241.007L222.25 295.42H189.39L169.282 246.266H150.295L150.295 295.42H119.537L119.537 162.051H179.511H179.441ZM150.224 219.339H173.065C177.619 219.76 182.103 218.147 185.326 214.992C187.848 212.047 189.18 208.26 189.11 204.404C189.53 196.48 183.505 189.749 175.587 189.328C174.747 189.328 173.906 189.328 172.995 189.398H150.154V219.41L150.224 219.339Z" fill="#FBFBFB"/>
<path d="M339.816 253.278C339.956 259.939 338.554 266.46 335.542 272.421C332.809 277.75 328.886 282.378 324.121 285.954C319.147 289.67 313.542 292.405 307.516 294.088C301.071 295.911 294.345 296.823 287.618 296.823C280.892 296.823 274.236 295.911 267.861 294.088C261.905 292.405 256.23 289.67 251.256 285.954C246.421 282.378 242.498 277.75 239.765 272.421C236.823 266.46 235.351 259.869 235.491 253.278L235.491 203.142C235.281 196.55 236.893 189.959 240.116 184.139C243.128 178.95 247.262 174.462 252.166 170.956C257.211 167.45 262.886 164.786 268.842 163.243C274.937 161.56 281.243 160.719 287.548 160.719C293.924 160.719 300.23 161.63 306.395 163.453C312.421 165.136 318.096 167.871 323.211 171.517C328.185 175.023 332.249 179.651 335.191 184.98C338.344 190.871 339.886 197.462 339.746 204.123V253.278H339.816ZM309.058 209.873C309.128 206.507 308.497 203.142 307.096 200.056C305.975 197.602 304.293 195.428 302.192 193.675C300.16 192.063 297.848 190.8 295.325 190.099C292.873 189.328 290.351 188.977 287.759 188.907C285.166 188.907 282.574 189.328 280.122 190.099C277.599 190.871 275.287 192.063 273.256 193.675C271.084 195.358 269.402 197.602 268.211 200.056C266.81 203.142 266.179 206.507 266.249 209.873V247.598C266.109 250.964 266.81 254.33 268.211 257.415C269.402 259.869 271.084 262.113 273.256 263.796C275.287 265.409 277.599 266.601 280.122 267.372C282.574 268.143 285.166 268.564 287.759 268.564C290.351 268.564 292.873 268.143 295.325 267.372C297.848 266.671 300.16 265.409 302.192 263.796C304.293 262.043 305.975 259.869 307.096 257.415C308.497 254.33 309.128 250.964 309.058 247.598V209.873Z" fill="#FBFBFB"/>
<path d="M462.076 272.21C459.204 277.539 455.14 282.238 450.306 285.884C445.261 289.6 439.656 292.405 433.63 294.088C427.395 295.911 420.949 296.823 414.433 296.823C407.917 296.823 401.471 295.981 395.236 294.228C389.21 292.615 383.605 289.951 378.561 286.304C373.726 282.798 369.663 278.241 366.79 272.982C363.707 267.092 362.166 260.57 362.376 253.909V162.051H393.134V248.019C393.064 251.384 393.694 254.75 395.096 257.765C396.287 260.22 397.968 262.464 400.14 264.146C402.172 265.759 404.484 266.951 407.006 267.723C409.459 268.494 412.051 268.915 414.643 268.915C417.236 268.915 419.758 268.494 422.21 267.723C424.732 267.021 427.044 265.759 429.076 264.146C431.178 262.393 432.86 260.22 433.981 257.765C435.382 254.68 436.013 251.384 435.942 248.019V162.051L466.7 162.051V253.067C466.841 259.729 465.369 266.32 462.286 272.21H462.076Z" fill="#FBFBFB"/>
<path d="M548.254 162.051C554.84 161.841 561.356 163.103 567.451 165.627C572.426 167.801 576.91 171.097 580.413 175.234C583.776 179.231 586.228 183.788 587.77 188.767C589.311 193.816 590.082 199.145 590.082 204.474C590.082 209.803 589.171 215.132 587.279 220.181C583.426 230.559 575.578 238.903 565.489 243.321C559.744 245.775 553.509 247.037 547.273 246.897H520.719V295.49H489.961V162.051H548.254ZM520.649 219.55H543.279C547.833 220.041 552.388 218.428 555.681 215.132C558.133 212.117 559.464 208.331 559.324 204.474C559.394 200.617 558.133 196.831 555.751 193.816C552.458 190.52 547.904 188.907 543.279 189.398H520.649V219.62V219.55Z" fill="#FBFBFB"/>
</svg>
