<svg width="440" height="603" viewBox="0 0 440 603" fill="none" xmlns="http://www.w3.org/2000/svg">
<g filter="url(#filter0_d_5042_91370)">
<path d="M64 51.0623C64 40.5345 72.5345 32 83.0623 32H466.691C477.218 32 485.753 40.5345 485.753 51.0623V62.9762H64V51.0623Z" fill="#E8E8E8"/>
<rect x="79.8906" y="42.3281" width="9.53114" height="9.53114" rx="4.76557" fill="#ED695E"/>
<rect x="95.7695" y="42.3281" width="9.53114" height="9.53114" rx="4.76557" fill="#F5BF4F"/>
<rect x="111.66" y="42.3281" width="9.53114" height="9.53114" rx="4.76557" fill="#61C454"/>
<path d="M64 63H486V494.938C486 505.466 477.466 514 466.938 514H83.0623C72.5345 514 64 505.466 64 494.938V63Z" fill="#E8E8E8"/>
<rect x="72" y="63" width="406" height="75" rx="12.7082" fill="#F2EFEF"/>
<g clip-path="url(#clip0_5042_91370)">
<rect x="72" y="146" width="406" height="361" rx="12.7082" fill="#F3F0F0"/>
<rect x="94.9766" y="341.754" width="140.584" height="140.584" rx="7.94262" fill="#65666D"/>
<path d="M184.976 341.99C184.357 339.75 183.141 337.558 181.14 336.39C180.187 335.834 179.106 335.54 178.137 335.008C176.97 334.373 176.009 333.427 174.913 332.673C172.228 330.814 168.726 330.179 165.556 330.981C162.387 331.783 159.607 334.007 158.13 336.922C155.874 335.199 151.967 335.929 149.298 336.89C146.629 337.852 144.397 341.029 143.754 343.793L156.271 347.581C158.773 350.313 161.561 352.855 164.826 354.618C168.09 356.382 171.879 357.335 175.54 356.787C179.21 356.231 182.705 354.039 184.365 350.719C185.699 348.05 185.762 344.865 184.968 341.99H184.976Z" fill="#585960"/>
<path d="M193.857 383.414C197.042 381.19 197.805 376.194 195.43 373.121C194.723 372.207 193.762 371.381 193.603 370.237C193.508 369.53 193.738 368.832 193.905 368.14C195.033 363.55 193.166 358.371 189.362 355.559C189.298 352.994 187.861 347.569 184.604 345.496L169.815 347.577C170.49 363.153 170.442 378.76 169.68 394.335C169.561 396.726 169.473 399.291 170.784 401.293C172.635 404.128 176.495 404.724 179.886 404.812C183.127 404.891 186.431 404.756 189.489 403.684C192.547 402.611 195.358 400.491 196.645 397.512C198.623 392.929 196.582 387.608 193.865 383.422L193.857 383.414Z" fill="#585960"/>
<path d="M148.749 351.904L148.305 348.592L167.82 342.5C173.896 341.142 181.259 346.543 182.363 352.675C183.586 359.482 184.809 367.853 184.579 373.064C184.126 383.548 176.39 385.764 176.39 385.764L177.184 391.975C177.986 398.265 173.538 404.008 167.248 404.818C160.973 405.62 155.239 401.196 154.413 394.93L148.749 351.912V351.904Z" fill="#DDC399"/>
<path d="M181.017 360.372C181.12 361.063 180.62 361.73 179.897 361.849C179.175 361.968 178.507 361.507 178.404 360.816C178.301 360.125 178.801 359.458 179.524 359.339C180.247 359.22 180.922 359.681 181.025 360.372H181.017Z" fill="#65666D"/>
<path d="M180.681 357.297C180.538 357.488 179.45 356.86 178.028 357.027C176.606 357.17 175.653 358.028 175.478 357.869C175.391 357.797 175.526 357.472 175.939 357.091C176.344 356.709 177.075 356.304 177.957 356.201C178.838 356.106 179.625 356.344 180.093 356.63C180.57 356.916 180.752 357.21 180.681 357.297Z" fill="#65666D"/>
<path d="M167.761 362.18C167.865 362.871 167.364 363.538 166.641 363.658C165.919 363.777 165.251 363.316 165.14 362.625C165.029 361.934 165.537 361.267 166.26 361.148C166.983 361.029 167.658 361.489 167.761 362.18Z" fill="#65666D"/>
<path d="M166.743 359.156C166.6 359.347 165.512 358.72 164.091 358.886C162.669 359.029 161.708 359.887 161.541 359.728C161.454 359.657 161.589 359.331 162.002 358.95C162.407 358.569 163.137 358.164 164.019 358.06C164.909 357.965 165.687 358.203 166.156 358.489C166.632 358.775 166.815 359.069 166.743 359.156Z" fill="#65666D"/>
<path d="M173.118 369.108C173.102 369.029 173.968 368.775 175.382 368.425C175.739 368.346 176.073 368.235 176.104 367.98C176.16 367.71 175.961 367.337 175.739 366.932C175.294 366.09 174.834 365.216 174.349 364.295C172.403 360.53 170.958 357.425 171.108 357.345C171.259 357.266 172.959 360.252 174.897 364.017C175.366 364.946 175.818 365.828 176.247 366.678C176.43 367.075 176.724 367.512 176.597 368.076C176.533 368.354 176.287 368.584 176.065 368.671C175.842 368.767 175.636 368.799 175.461 368.83C174.031 369.077 173.134 369.18 173.126 369.1L173.118 369.108Z" fill="#65666D"/>
<path d="M176.391 385.784C176.391 385.784 169.163 387.047 161.832 383.711C161.832 383.711 166.137 390.518 176.685 388.349L176.399 385.784H176.391Z" fill="#DDC399"/>
<path d="M172.912 372.596C172.324 371.976 171.387 371.714 170.505 371.905C169.894 372.04 169.306 372.413 168.988 372.953C168.67 373.501 168.678 374.224 169.068 374.661C169.512 375.153 170.33 375.185 170.982 374.915C171.641 374.645 172.173 374.129 172.673 373.62C172.816 373.478 172.951 373.335 173.031 373.152C173.11 372.969 173.102 372.747 172.967 372.628" fill="#DDC399"/>
<path d="M169.051 370.571C169.281 370.531 169.464 372.072 170.909 373.017C172.355 373.963 173.975 373.605 174.015 373.82C174.046 373.915 173.681 374.161 172.99 374.256C172.315 374.36 171.29 374.256 170.409 373.677C169.527 373.097 169.074 372.239 168.955 371.612C168.82 370.976 168.955 370.571 169.058 370.571H169.051Z" fill="#65666D"/>
<path d="M166.479 353.556C166.383 353.961 164.946 353.937 163.302 354.334C161.65 354.691 160.363 355.335 160.101 355.017C159.982 354.866 160.172 354.469 160.673 354.032C161.165 353.595 161.983 353.143 162.976 352.92C163.961 352.698 164.898 352.753 165.534 352.92C166.177 353.095 166.518 353.365 166.479 353.556Z" fill="#65666D"/>
<path d="M179.689 353.242C179.475 353.592 178.458 353.369 177.283 353.488C176.099 353.568 175.138 353.957 174.868 353.647C174.749 353.496 174.868 353.155 175.273 352.797C175.67 352.44 176.353 352.114 177.164 352.043C177.974 351.979 178.712 352.186 179.157 352.472C179.61 352.758 179.785 353.075 179.697 353.242H179.689Z" fill="#65666D"/>
<path d="M150.954 341.563C148.929 342.23 146.641 347.75 147.237 349.792C147.832 351.833 149.739 353.318 151.804 353.842C153.869 354.366 156.061 354.049 158.102 353.437C160.985 352.564 164.027 350.578 164.226 347.576C167.038 350.403 171.382 351.602 175.242 350.602C179.103 349.601 181.962 343.7 183.05 339.863L150.954 341.563Z" fill="#585960"/>
<path d="M170.945 362.226C170.897 362.226 170.921 361.71 170.683 360.82C170.452 359.954 169.857 358.684 168.546 357.699C167.895 357.222 167.085 356.817 166.147 356.658C165.218 356.507 164.17 356.539 163.177 356.92C162.184 357.278 161.239 357.961 160.564 358.89C159.873 359.811 159.484 360.995 159.468 362.218C159.476 363.441 159.865 364.625 160.564 365.546C161.239 366.483 162.184 367.158 163.177 367.516C164.17 367.897 165.218 367.929 166.147 367.778C167.085 367.619 167.895 367.214 168.546 366.737C169.857 365.76 170.444 364.49 170.675 363.616C170.913 362.734 170.889 362.21 170.937 362.21C170.953 362.21 170.961 362.337 170.961 362.583C170.961 362.83 170.937 363.195 170.834 363.656C170.643 364.561 170.071 365.903 168.721 366.968C168.054 367.484 167.196 367.929 166.211 368.111C165.226 368.286 164.114 368.27 163.05 367.873C161.986 367.5 160.969 366.777 160.238 365.784C159.492 364.799 159.071 363.521 159.055 362.21C159.063 360.9 159.492 359.629 160.238 358.644C160.961 357.643 161.986 356.928 163.05 356.555C164.114 356.158 165.226 356.134 166.211 356.317C167.204 356.499 168.054 356.944 168.721 357.46C170.071 358.517 170.643 359.867 170.834 360.772C170.937 361.233 170.969 361.599 170.961 361.845C170.961 362.091 170.953 362.218 170.937 362.218L170.945 362.226Z" fill="#65666D"/>
<path d="M185.554 359.601C185.507 359.601 185.53 359.085 185.292 358.195C185.062 357.329 184.466 356.059 183.155 355.074C182.504 354.597 181.694 354.192 180.757 354.033C179.828 353.882 178.779 353.914 177.786 354.295C176.793 354.653 175.848 355.336 175.173 356.265C174.482 357.186 174.093 358.37 174.077 359.593C174.085 360.816 174.474 362 175.173 362.921C175.848 363.858 176.793 364.533 177.786 364.891C178.779 365.272 179.828 365.304 180.757 365.153C181.694 364.994 182.504 364.589 183.155 364.112C184.466 363.135 185.054 361.865 185.284 360.991C185.522 360.109 185.499 359.585 185.546 359.585C185.562 359.585 185.57 359.712 185.57 359.958C185.57 360.205 185.546 360.57 185.443 361.031C185.252 361.936 184.68 363.278 183.33 364.343C182.663 364.859 181.805 365.304 180.82 365.486C179.835 365.661 178.724 365.645 177.659 365.248C176.595 364.875 175.578 364.152 174.848 363.159C174.101 362.174 173.68 360.896 173.664 359.585C173.672 358.275 174.101 357.004 174.848 356.019C175.57 355.018 176.595 354.303 177.659 353.93C178.724 353.533 179.835 353.509 180.82 353.692C181.813 353.874 182.663 354.319 183.33 354.835C184.68 355.892 185.252 357.242 185.443 358.147C185.546 358.608 185.578 358.974 185.57 359.22C185.57 359.466 185.562 359.593 185.546 359.593L185.554 359.601Z" fill="#65666D"/>
<path d="M170.072 359.022C170.024 359.014 170.016 358.744 170.207 358.363C170.397 357.989 170.826 357.513 171.469 357.314C172.113 357.116 172.74 357.258 173.106 357.457C173.479 357.664 173.63 357.886 173.598 357.926C173.558 357.973 173.352 357.838 172.994 357.727C172.645 357.616 172.121 357.544 171.597 357.703C171.072 357.87 170.683 358.22 170.461 358.513C170.23 358.807 170.135 359.038 170.08 359.022H170.072Z" fill="#65666D"/>
<path d="M159.073 363.617C159.112 363.72 158.104 364.157 156.825 364.586C155.546 365.015 154.482 365.277 154.45 365.166C154.418 365.054 155.427 364.617 156.698 364.197C157.969 363.768 159.033 363.513 159.073 363.617Z" fill="#65666D"/>
<path d="M260.235 381.402C261.943 380.743 261.236 378.964 261.236 378.964L254.89 380.878C254.89 380.878 258.257 379.512 259.981 378.098C261.704 376.684 260.847 375.461 260.847 375.461L254.31 377.987L250.616 380.163L241.363 394.293C241.363 394.293 248.599 397.827 249.878 396.811C252.126 395.016 253.357 391.013 253.857 388.979C254.762 388.717 257.622 387.867 258.392 387.351C259.314 386.739 259.75 385.818 259.75 385.818L254.715 386.779C255.446 386.565 260.116 384.968 260.489 384.396C261.14 383.388 260.727 382.943 260.727 382.943L254.397 383.928L255.048 383.451C255.048 383.451 258.591 382.037 260.235 381.402Z" fill="#DDC399"/>
<path d="M236.933 396.114L215.639 415.613C212.994 415.001 180.572 395.621 180.572 395.621L175.449 420.561C175.449 420.561 208.633 435.819 217.767 433.968C219.261 433.666 221.707 433.476 223.248 431.498C230.555 422.11 246.051 398.878 246.051 398.878L236.941 396.114H236.933Z" fill="#DDC399"/>
<path d="M251.4 395.135L247.556 393.276L250.328 388.248L252.504 383.642L255.88 377.375L250.741 379.305C250.129 379.567 249.597 379.972 249.192 380.489L240.733 392.172L236.984 395.992L240.606 405.73L244.863 399.09L247.349 398.51C249.836 397.93 251.408 395.119 251.408 395.119L251.4 395.135Z" fill="#DDC399"/>
<path d="M245.215 387.22C246.987 386.331 248.829 385.616 250.736 385.068C251.355 384.885 252.006 384.726 252.642 384.822C253.277 384.917 253.913 385.322 254.087 385.949C254.278 386.656 253.817 387.411 253.206 387.808C252.594 388.205 251.848 388.348 251.141 388.531C250.434 388.713 249.695 388.983 249.226 389.539C248.782 390.072 248.639 390.778 248.408 391.43C247.646 393.55 245.716 395.203 243.508 395.631" fill="#DDC399"/>
<path d="M243.5 395.633C243.5 395.633 243.842 395.53 244.429 395.291C245.009 395.053 245.835 394.632 246.645 393.846C247.042 393.457 247.44 392.98 247.765 392.416C248.107 391.844 248.313 391.201 248.544 390.462C248.671 390.097 248.829 389.716 249.115 389.39C249.401 389.064 249.775 388.826 250.164 388.659C250.95 388.31 251.824 388.23 252.594 387.913C252.983 387.754 253.317 387.539 253.571 387.238C253.817 386.944 253.976 386.57 253.952 386.221C253.913 385.49 253.142 385.022 252.467 384.982C251.76 384.926 251.069 385.149 250.426 385.331C249.783 385.522 249.195 385.713 248.655 385.895C247.582 386.269 246.733 386.618 246.145 386.872C245.557 387.118 245.231 387.261 245.224 387.238C245.216 387.214 245.517 387.031 246.081 386.745C246.653 386.451 247.495 386.062 248.559 385.657C249.092 385.45 249.687 385.244 250.331 385.045C250.966 384.855 251.673 384.601 252.483 384.656C252.888 384.68 253.301 384.815 253.651 385.077C254 385.331 254.286 385.752 254.31 386.229C254.35 387.198 253.571 387.976 252.729 388.294C251.887 388.635 251.03 388.715 250.307 389.033C249.949 389.184 249.624 389.39 249.385 389.66C249.147 389.93 248.996 390.272 248.869 390.613C248.639 391.312 248.401 392.035 248.035 392.615C247.686 393.202 247.257 393.687 246.828 394.084C245.97 394.87 245.096 395.275 244.485 395.474C244.175 395.569 243.937 395.633 243.77 395.657C243.603 395.681 243.516 395.689 243.508 395.673L243.5 395.633Z" fill="#DDC399"/>
<path d="M178.164 465.797H134.519C134.519 465.797 128.077 473.906 123.828 482.357L186.035 482.611C187.258 480.61 178.164 465.797 178.164 465.797Z" fill="#65666D"/>
<path d="M191.072 426.114C189.595 406.575 184.75 394.304 184.75 394.304L177.188 391.977C176.044 396.972 167.911 398.617 163.273 396.432L158.372 393.867C142.638 391.508 143.456 392.811 139.818 394.995C136.657 396.893 136.951 411.071 136.951 411.071C136.951 411.071 129.112 448.004 129.54 453.929C129.969 459.854 134.536 465.803 134.536 465.803H178.181C182.573 465.803 183.828 455.867 183.526 452.261C183.225 448.655 191.572 432.54 191.088 426.122L191.072 426.114Z" fill="#FFA469"/>
<path d="M149.621 438.407C149.621 438.407 149.86 438.661 150.352 439.027C150.852 439.392 151.607 439.877 152.608 440.345C153.608 440.814 154.871 441.243 156.333 441.465C157.786 441.672 159.438 441.656 161.098 441.259C164.45 440.48 166.968 438.511 168.509 436.962C169.287 436.175 169.843 435.476 170.208 434.984C170.566 434.484 170.749 434.19 170.717 434.174C170.653 434.118 169.859 435.238 168.278 436.723C166.706 438.185 164.22 440.059 160.987 440.806C157.762 441.584 154.704 440.901 152.735 440.043C150.733 439.194 149.669 438.328 149.613 438.407H149.621Z" fill="#65666D"/>
<path d="M120.176 425.205L142.169 435.515C142.169 435.515 151.136 415.682 151.907 412.974C152.677 410.265 155.099 405.968 152.621 400.313C150.143 394.658 143.495 392.585 139.818 394.992C131.589 400.385 120.184 425.205 120.184 425.205H120.176Z" fill="#FFA469"/>
<path d="M189.329 426.262C190.354 426.262 202.148 432.425 202.148 432.425L208.86 410.186C198.836 403.506 190.608 395.874 184.738 394.293L187.82 412.672L189.329 426.254V426.262Z" fill="#FFA469"/>
<path d="M120.176 425.206C120.176 425.206 120.335 425.246 120.613 425.357C120.93 425.492 121.335 425.667 121.828 425.874C122.932 426.366 124.433 427.033 126.276 427.843C130.056 429.567 135.195 431.91 140.874 434.499C141.486 434.777 142.089 435.055 142.653 435.317L142.375 435.413C144.917 430.178 147.141 425.5 148.714 422.125C149.476 420.473 150.096 419.122 150.556 418.129C150.755 417.693 150.922 417.335 151.049 417.049C151.168 416.803 151.231 416.676 151.247 416.684C151.263 416.684 151.216 416.827 151.128 417.081C151.033 417.335 150.898 417.716 150.699 418.193C150.318 419.154 149.73 420.536 148.976 422.244C147.467 425.659 145.29 430.361 142.757 435.595L142.669 435.778L142.479 435.691C141.915 435.429 141.303 435.151 140.699 434.873C135.044 432.244 129.921 429.861 126.157 428.105C124.346 427.24 122.86 426.533 121.764 426.009C121.288 425.77 120.891 425.572 120.581 425.421C120.311 425.286 120.176 425.206 120.184 425.19L120.176 425.206Z" fill="#65666D"/>
<path d="M187.304 407.996C187.304 407.996 187.487 408.481 187.757 409.362C188.051 410.315 188.44 411.578 188.916 413.119C189.87 416.28 191.26 420.736 191.323 425.867C191.283 428.433 190.759 430.831 190.148 432.944C189.536 435.065 188.829 436.915 188.225 438.464C187.614 440.013 187.098 441.244 186.74 442.102C186.383 442.96 186.176 443.428 186.152 443.42C186.137 443.42 186.168 443.293 186.248 443.055C186.343 442.777 186.454 442.443 186.597 442.046C186.939 441.117 187.399 439.87 187.963 438.361C188.527 436.804 189.21 434.953 189.79 432.841C190.378 430.736 190.878 428.377 190.918 425.867C190.854 420.824 189.528 416.384 188.646 413.199C188.194 411.602 187.836 410.308 187.614 409.402C187.495 408.949 187.423 408.6 187.368 408.362C187.32 408.123 187.296 407.996 187.312 407.988L187.304 407.996Z" fill="#65666D"/>
<path d="M168.714 403.563C168.373 400.33 166.673 397.336 164.37 395.033C163.234 393.889 161.86 392.745 161.637 391.149C161.351 389.076 163.146 387.138 162.853 385.065C162.487 382.483 159.255 381.355 158.095 379.02C156.538 375.875 159.247 371.785 157.579 368.695C156.578 366.836 154.179 365.836 153.703 363.778C153.393 362.444 155.935 360.498 156.522 357.607C157.849 351.102 158.524 346.074 152.21 342.294L148.524 337.242C144.386 339.26 140.915 343.795 140.844 348.545C140.812 350.784 141.956 353.032 140.979 355.05C139.62 357.869 136.443 359.601 135.482 362.579C134.108 366.844 137.889 371.61 136.237 375.772C135.268 378.226 132.702 379.624 131.098 381.721C128.58 385.001 128.834 390.1 131.678 393.111C127.659 395.819 125.8 401.339 127.365 405.93C128.024 407.86 129.51 409.774 131.543 409.885C134.458 410.044 136.118 406.748 138.254 404.754C141.566 401.657 147.38 401.808 150.526 405.072C152.765 407.399 153.671 410.902 156.284 412.8C158.913 414.714 162.821 414.365 165.347 412.324C167.872 410.275 169.04 406.812 168.698 403.579L168.714 403.563Z" fill="#585960"/>
<path d="M140.006 434.123C135.844 440.97 132.937 444.901 132.937 444.901L170.291 467.649L165.938 477.76L117.496 457.824C117.496 457.824 112.723 452.908 114.407 447.435L122.127 426.117L140.006 434.123Z" fill="#DDC399"/>
<path d="M123.851 448.38C123.938 448.499 125.702 447.014 128.323 446.061C130.928 445.076 133.239 445.052 133.223 444.901C133.247 444.79 130.864 444.607 128.156 445.624C125.447 446.617 123.756 448.308 123.843 448.38H123.851Z" fill="#DDC399"/>
<path d="M199.269 474.574L189.952 470.119L171.771 468.673L170.286 467.648L165.934 477.759C165.934 477.759 170.699 480.039 173.193 480.237L188.483 479.777L196.473 480.619L199.269 474.574Z" fill="#DDC399"/>
<path d="M251.682 438.699L199.269 439.128C197.569 439.128 195.941 439.946 195.687 441.63L189.96 479.834H162.963C162.098 479.834 161.391 480.541 161.391 481.407C161.391 482.272 162.098 482.979 162.963 482.979H249.188L255.082 442.663C255.399 440.582 253.787 438.707 251.682 438.707V438.699Z" fill="#D7D7D7"/>
<path d="M251.683 438.696C251.683 438.696 251.969 438.656 252.509 438.775C253.033 438.894 253.859 439.22 254.511 440.102C254.836 440.531 255.082 441.11 255.162 441.778C255.249 442.453 255.051 443.168 254.971 443.93C254.749 445.471 254.503 447.25 254.217 449.252C253.065 457.258 251.397 468.806 249.356 482.992L249.34 483.127H249.197C226.886 483.143 197.562 483.159 165.545 483.174H163.298C162.948 483.19 162.464 483.174 162.106 482.944C161.733 482.738 161.447 482.396 161.304 481.999C160.986 481.197 161.368 480.22 162.114 479.823C162.472 479.608 162.948 479.584 163.298 479.6H164.41C167.364 479.6 170.287 479.6 173.17 479.6C178.937 479.6 184.56 479.6 189.977 479.6L189.778 479.775C191.843 466.09 193.765 453.334 195.489 441.881C195.545 441.158 195.878 440.372 196.458 439.887C197.03 439.379 197.745 439.117 198.46 439.006C199.19 438.894 199.881 438.95 200.572 438.934C201.263 438.934 201.946 438.926 202.629 438.918C205.354 438.902 207.983 438.886 210.516 438.863C215.592 438.831 220.278 438.799 224.543 438.775C233.05 438.736 239.841 438.696 244.511 438.672C246.83 438.672 248.625 438.672 249.856 438.664C250.452 438.664 250.913 438.664 251.238 438.664C251.548 438.664 251.707 438.68 251.707 438.68C251.707 438.68 251.548 438.696 251.238 438.704C250.921 438.704 250.46 438.72 249.856 438.736C248.625 438.751 246.838 438.775 244.519 438.815C239.849 438.871 233.066 438.942 224.559 439.037C220.302 439.077 215.608 439.125 210.532 439.18C207.999 439.204 205.362 439.228 202.645 439.26C201.962 439.26 201.279 439.276 200.588 439.276C199.897 439.299 199.19 439.244 198.523 439.355C197.856 439.458 197.197 439.712 196.696 440.157C196.18 440.61 195.91 441.23 195.846 441.944C194.139 453.398 192.233 466.161 190.191 479.847L190.167 480.021H189.993C184.576 480.021 178.952 480.021 173.186 480.021C170.303 480.021 167.38 480.021 164.425 480.021H163.313C162.924 480.013 162.63 480.021 162.337 480.188C161.765 480.49 161.479 481.236 161.717 481.848C161.828 482.15 162.051 482.412 162.329 482.571C162.622 482.738 162.916 482.754 163.313 482.746H165.561C197.578 482.761 226.902 482.785 249.213 482.793L249.054 482.928C251.159 468.751 252.866 457.21 254.058 449.204C254.36 447.21 254.622 445.431 254.86 443.89C254.955 443.12 255.154 442.413 255.075 441.77C255.011 441.126 254.773 440.562 254.463 440.141C253.843 439.276 253.041 438.942 252.525 438.807C252.001 438.68 251.707 438.704 251.715 438.68L251.683 438.696Z" fill="#65666D"/>
<path d="M223.253 463.627C225.065 463.627 226.533 462.158 226.533 460.347C226.533 458.535 225.065 457.066 223.253 457.066C221.441 457.066 219.973 458.535 219.973 460.347C219.973 462.158 221.441 463.627 223.253 463.627Z" fill="#F3F0F0"/>
<path d="M192.089 482.603C192.16 482.619 193.828 472.889 195.814 460.88C197.8 448.871 199.348 439.125 199.269 439.109C199.19 439.094 197.53 448.823 195.544 460.832C193.558 472.842 192.009 482.587 192.089 482.603Z" fill="#65666D"/>
<rect x="318.977" y="341.762" width="140.584" height="140.584" rx="7.94262" fill="#E8E8E8"/>
<path d="M302.424 402.277L303.56 401.554C305.657 400.22 308.429 400.943 309.62 403.119C311.455 406.463 313.734 411.125 313.734 411.125L308.921 418.75L307.309 418.798C305.553 419.918 301.463 417.662 298.691 415.978C295.919 414.302 297.285 412.602 297.285 412.602C295.546 410.212 297.944 409.227 297.944 409.227C296.467 407.05 298.651 405.573 298.651 405.573" fill="#DDC399"/>
<path d="M300.017 378.162L265.195 384.836L274.541 433.598L309.363 426.924L300.017 378.162Z" fill="#F3F0F0"/>
<path d="M274.547 433.599C274.547 433.599 274.524 433.528 274.492 433.385C274.46 433.218 274.412 432.996 274.349 432.718C274.23 432.106 274.047 431.225 273.825 430.089C273.364 427.762 272.705 424.386 271.863 420.113C270.187 411.503 267.82 399.303 265.016 384.879L264.977 384.697L265.159 384.665C275.675 382.647 287.51 380.368 299.972 377.977L300.178 377.938L300.218 378.144C303.705 396.404 306.922 413.29 309.527 426.912L309.558 427.078L309.392 427.11C298.804 429.104 290.075 430.74 283.983 431.892C280.973 432.448 278.606 432.892 276.978 433.186C276.192 433.329 275.58 433.441 275.151 433.52C274.738 433.591 274.539 433.623 274.539 433.623C274.539 433.623 274.762 433.568 275.183 433.48C275.62 433.393 276.231 433.266 277.033 433.107C278.662 432.781 281.037 432.313 284.055 431.717C290.115 430.534 298.796 428.842 309.328 426.785L309.193 426.983C306.572 413.362 303.324 396.484 299.813 378.231L300.051 378.398C287.581 380.781 275.755 383.045 265.231 385.054L265.382 384.832C268.098 399.216 270.401 411.384 272.022 419.978C272.824 424.275 273.459 427.674 273.896 430.009C274.111 431.169 274.269 432.058 274.389 432.686C274.444 432.98 274.484 433.21 274.508 433.377C274.532 433.536 274.547 433.615 274.539 433.623L274.547 433.599Z" fill="#65666D"/>
<path d="M271.012 396.019C270.988 395.908 276.738 394.708 283.847 393.35C290.964 391.984 296.738 390.975 296.762 391.087C296.786 391.198 291.035 392.397 283.926 393.755C276.818 395.113 271.036 396.13 271.012 396.019Z" fill="#65666D"/>
<path d="M271.672 399.456C271.648 399.345 277.399 398.146 284.507 396.788C291.624 395.422 297.398 394.413 297.422 394.524C297.446 394.635 291.695 395.835 284.579 397.193C277.47 398.559 271.688 399.568 271.664 399.456H271.672Z" fill="#65666D"/>
<path d="M272.324 402.894C272.301 402.783 278.051 401.583 285.16 400.225C292.276 398.859 298.05 397.85 298.074 397.962C298.098 398.073 292.348 399.272 285.231 400.63C278.122 401.996 272.34 403.005 272.316 402.894H272.324Z" fill="#65666D"/>
<path d="M272.988 406.347C272.965 406.236 278.715 405.036 285.824 403.678C292.94 402.312 298.714 401.303 298.738 401.415C298.762 401.526 293.012 402.725 285.903 404.083C278.794 405.442 273.012 406.458 272.988 406.347Z" fill="#65666D"/>
<path d="M273.656 409.784C273.632 409.673 279.383 408.474 286.492 407.116C293.608 405.75 299.39 404.741 299.406 404.852C299.43 404.963 293.68 406.163 286.571 407.521C279.462 408.879 273.68 409.896 273.656 409.784Z" fill="#65666D"/>
<path d="M274.313 413.238C274.289 413.126 280.039 411.927 287.148 410.569C294.264 409.203 300.039 408.194 300.063 408.305C300.086 408.416 294.336 409.616 287.227 410.974C280.119 412.332 274.336 413.349 274.313 413.238Z" fill="#65666D"/>
<path d="M274.969 416.675C274.945 416.564 280.695 415.365 287.804 414.006C294.921 412.64 300.695 411.632 300.719 411.743C300.743 411.854 294.992 413.053 287.884 414.411C280.775 415.77 274.993 416.786 274.969 416.675Z" fill="#65666D"/>
<path d="M275.625 420.113C275.601 420.001 281.352 418.802 288.46 417.444C295.577 416.078 301.351 415.069 301.375 415.18C301.399 415.291 295.648 416.491 288.54 417.849C281.431 419.207 275.649 420.224 275.625 420.113Z" fill="#65666D"/>
<path d="M276.293 423.558C276.269 423.447 282.02 422.247 289.128 420.889C296.245 419.523 302.027 418.514 302.043 418.626C302.067 418.737 296.316 419.936 289.208 421.294C282.099 422.652 276.317 423.669 276.293 423.558Z" fill="#65666D"/>
<path d="M295.228 380.889C295.228 380.889 295.34 381.191 295.475 381.755C295.618 382.406 295.792 383.209 295.999 384.146C296.054 384.4 296.11 384.67 296.166 384.94C296.221 385.242 296.213 385.575 296.118 385.893C295.927 386.529 295.34 387.108 294.585 387.227C293.838 387.37 292.973 387.005 292.56 386.274C292.456 386.092 292.377 385.901 292.337 385.687C292.298 385.496 292.266 385.313 292.226 385.123C292.155 384.741 292.083 384.36 292.004 383.979C291.861 383.201 291.71 382.446 291.575 381.715C291.503 381.35 291.44 380.993 291.376 380.635C291.313 380.294 291.233 379.912 291.265 379.547C291.321 378.808 291.702 378.157 292.21 377.744C292.719 377.331 293.338 377.164 293.886 377.172C295.014 377.204 295.729 377.927 295.991 378.435C296.134 378.697 296.197 378.92 296.229 379.078C296.253 379.229 296.261 379.309 296.245 379.317C296.205 379.325 296.166 378.991 295.864 378.522C295.57 378.07 294.887 377.458 293.894 377.466C293.41 377.474 292.877 377.641 292.441 378.006C292.012 378.371 291.694 378.935 291.654 379.571C291.63 379.889 291.702 380.198 291.773 380.564C291.845 380.913 291.916 381.271 291.988 381.636C292.131 382.367 292.274 383.121 292.425 383.9C292.496 384.289 292.568 384.67 292.647 385.051C292.687 385.242 292.719 385.425 292.758 385.615C292.79 385.782 292.854 385.933 292.933 386.076C293.259 386.656 293.942 386.965 294.545 386.854C295.157 386.767 295.641 386.314 295.816 385.79C295.904 385.528 295.919 385.258 295.88 385.004C295.832 384.726 295.784 384.463 295.745 384.201C295.586 383.248 295.459 382.438 295.348 381.779C295.26 381.207 295.228 380.889 295.252 380.881L295.228 380.889Z" fill="#65666D"/>
<path d="M305.584 400.887C305.322 400.911 295.005 402.515 295.005 402.515C294.822 403.46 295.378 404.81 297.808 404.85C300.112 404.89 302.193 404.691 302.193 404.691C302.193 404.691 304.742 410.013 307.252 410.608C309.762 411.196 308.531 405.501 308.531 405.501L305.584 400.895V400.887Z" fill="#DDC399"/>
<path d="M423.822 367.293C424.712 365.212 425.625 363.06 425.705 360.788C425.792 358.509 424.855 356.047 422.893 355.014C421.074 354.061 418.842 354.506 416.92 353.823C414.545 352.981 413.044 350.582 411.988 348.223C410.932 345.864 412.401 345.006 410.614 343.179C408.247 340.757 406.706 340.408 403.712 341.885C401.559 340.36 394.069 337.588 391.909 337.524C388.708 337.429 385.062 337.683 382.823 339.979C381.091 341.758 379.987 344.029 377.858 345.308C374.928 347.071 371.195 345.57 367.771 345.697C367.072 345.721 366.262 345.904 365.976 346.539C365.73 347.087 365.992 347.723 366.254 348.263C367.136 350.097 368.018 351.94 368.899 353.775C367.47 354.442 365.722 354.394 364.324 353.664C364.475 357.262 365.945 360.788 368.383 363.441C367.779 363.012 366.866 363.457 366.564 364.132C366.262 364.807 366.397 365.601 366.596 366.316C367.787 370.717 370.956 374.545 375.055 376.538C379.161 378.524 384.125 378.643 388.319 376.856L407.159 378.278C407.683 379.747 408.938 380.915 410.407 381.296C412.52 379.731 412.854 378.858 412.854 378.858C414.156 379.827 413.132 379.334 414.156 379.827C416.491 380.939 419.946 379.62 420.471 377.015C420.693 375.927 420.995 374.886 421.726 374.14C422.472 373.385 423.536 373.091 424.474 372.615C425.959 371.868 427.19 370.605 427.921 369.08C426.396 369.096 424.879 368.429 423.822 367.293Z" fill="#65666D"/>
<path d="M410.486 359.215L410.97 398.102C411.05 404.718 409.819 414.448 399.358 414.098C390.304 413.113 387.905 404.543 387.833 398.372C387.802 395.441 387.77 393.003 387.746 392.701C387.746 392.701 377.834 391.891 377 382.105C376.595 377.371 376.555 367.562 376.626 358.682C376.698 349.151 384.093 341.272 393.6 340.581L394.545 340.51C404.783 340.359 410.629 348.969 410.494 359.215H410.486Z" fill="#DDC399"/>
<path d="M387.746 392.71C387.746 392.71 393.949 392.622 400.232 388.008C400.232 388.008 397.643 395.394 387.802 395.22L387.746 392.71Z" fill="#DDC399"/>
<path d="M393.362 362.703C393.553 362.902 394.689 361.988 396.325 361.949C397.961 361.877 399.192 362.711 399.359 362.497C399.446 362.401 399.24 362.044 398.708 361.663C398.183 361.289 397.294 360.932 396.269 360.972C395.245 361.011 394.403 361.417 393.918 361.83C393.426 362.243 393.267 362.616 393.362 362.703Z" fill="#65666D"/>
<path d="M393.059 366.354C393.083 367.053 393.703 367.609 394.433 367.593C395.164 367.577 395.736 366.997 395.712 366.298C395.688 365.599 395.069 365.043 394.338 365.059C393.607 365.075 393.035 365.655 393.059 366.354Z" fill="#65666D"/>
<path d="M389.249 374.105C389.249 374.018 388.303 373.923 386.77 373.843C386.381 373.835 386.016 373.78 385.929 373.525C385.817 373.255 385.944 372.827 386.103 372.366C386.397 371.405 386.707 370.404 387.025 369.356C388.303 365.075 389.193 361.564 389.018 361.508C388.843 361.461 387.668 364.892 386.397 369.173C386.095 370.229 385.801 371.238 385.523 372.199C385.412 372.644 385.198 373.16 385.436 373.724C385.563 374.002 385.857 374.193 386.111 374.24C386.365 374.296 386.58 374.288 386.77 374.28C388.303 374.248 389.249 374.185 389.249 374.105Z" fill="#65666D"/>
<path d="M394.06 356.54C394.219 356.906 395.529 356.628 397.102 356.715C398.675 356.763 399.969 357.144 400.152 356.794C400.232 356.628 399.985 356.294 399.453 355.968C398.921 355.643 398.095 355.357 397.15 355.325C396.205 355.285 395.363 355.5 394.815 355.786C394.259 356.064 393.997 356.381 394.06 356.556V356.54Z" fill="#65666D"/>
<path d="M378.481 359.575C378.656 359.869 379.934 359.544 381.483 359.496C383.032 359.416 384.319 359.647 384.485 359.337C384.557 359.186 384.303 358.924 383.763 358.686C383.231 358.447 382.397 358.273 381.467 358.305C380.538 358.344 379.712 358.59 379.188 358.868C378.656 359.146 378.409 359.432 378.481 359.575Z" fill="#65666D"/>
<path d="M410.215 366.529C410.374 366.442 416.799 364.043 417.077 370.763C417.355 377.482 410.556 376.37 410.533 376.18C410.509 375.989 410.215 366.537 410.215 366.537V366.529Z" fill="#DDC399"/>
<path d="M412.487 373.551C412.487 373.551 412.606 373.63 412.804 373.71C413.003 373.789 413.336 373.837 413.678 373.694C414.377 373.408 414.925 372.256 414.909 371.041C414.901 370.429 414.75 369.85 414.512 369.381C414.29 368.896 413.956 368.571 413.599 368.523C413.241 368.46 412.995 368.682 412.923 368.873C412.844 369.063 412.892 369.198 412.852 369.206C412.836 369.222 412.701 369.103 412.749 368.817C412.772 368.682 412.844 368.523 412.995 368.388C413.154 368.253 413.384 368.174 413.638 368.19C414.155 368.205 414.647 368.658 414.901 369.182C415.187 369.699 415.378 370.35 415.386 371.033C415.402 372.391 414.758 373.678 413.797 374.004C413.328 374.146 412.931 374.019 412.717 373.868C412.502 373.71 412.463 373.559 412.487 373.551Z" fill="#DDC399"/>
<path d="M390.827 378.763C390.756 378.597 392.066 378.2 392.995 376.968C393.456 376.365 393.726 375.698 393.925 375.213C394.123 374.729 394.266 374.419 394.338 374.443C394.409 374.467 394.393 374.792 394.282 375.324C394.171 375.849 393.941 376.595 393.416 377.286C392.9 377.985 392.209 378.398 391.701 378.597C391.184 378.803 390.843 378.819 390.827 378.763Z" fill="#65666D"/>
<path d="M419.143 355.664C417.745 353.297 417.419 350.469 416.649 347.824C415.878 345.18 414.409 342.447 411.82 341.518L411.764 341.542C409.437 340.605 406.57 340.597 404.655 342.209C404.179 338.722 401.121 335.958 397.714 335.061C394.306 334.171 388.842 334.703 385.577 336.014C383.052 337.03 380.613 339.111 377.643 342.169C376.396 343.456 375.244 344.846 374.219 346.323L371.257 355.473C370.939 355.704 370.661 355.989 370.423 356.307C369.247 357.912 371.447 359.929 372.941 358.611C372.949 358.611 372.956 358.595 372.964 358.587C373.266 359.103 373.497 359.627 373.743 360.151L373.798 360.263C373.949 360.588 374.108 360.914 374.299 361.24V361.216L376.586 371.327C376.729 368.571 376.531 358.984 376.674 356.228C380.931 356.045 384.775 354.329 387.626 351.168C389.128 349.5 390.319 347.411 392.329 346.419C394.926 345.132 398.023 346.069 400.756 347.022L400.636 346.919C402.058 347.578 403.353 348.515 404.425 349.659C403.814 355.084 404.377 360.644 406.077 365.83C406.331 366.609 407.03 368.221 407.801 368.515C409.31 369.095 409.715 367.562 410.62 366.744C411.288 366.14 412.28 366.069 413.361 366.069C413.996 364.393 414.655 361.573 415.203 359.103C416.117 359.381 417.086 359.452 418.023 359.294C417.737 358.603 417.443 357.912 417.157 357.221C417.53 357.459 417.92 357.705 418.364 357.769C418.801 357.832 419.31 357.673 419.508 357.268C419.762 356.752 419.413 356.156 419.119 355.664H419.143Z" fill="#65666D"/>
<path d="M401.582 343.336C401.582 343.336 401.995 343.598 402.567 344.234C403.131 344.869 403.766 345.981 404.068 347.482C404.219 348.229 404.322 349.071 404.322 349.968C404.322 350.866 404.251 351.835 404.187 352.851C404.124 353.868 404.052 354.94 404.116 356.06C404.148 356.616 404.219 357.188 404.338 357.752C404.457 358.308 404.608 358.919 405.029 359.396C405.363 359.785 405.927 359.96 406.411 359.857C406.904 359.769 407.333 359.507 407.658 359.158C408.286 358.419 408.445 357.49 408.603 356.672L408.397 356.696C408.731 357.434 409.08 358.165 409.588 358.745C410.089 359.332 410.788 359.722 411.495 359.785C411.844 359.817 412.201 359.761 412.503 359.61C412.813 359.46 413.035 359.205 413.186 358.935C413.329 358.657 413.409 358.356 413.393 358.07C413.377 357.776 413.266 357.506 413.075 357.307L412.972 357.402C413.726 358.26 414.521 358.729 415.077 358.983C415.355 359.11 415.577 359.19 415.728 359.237C415.879 359.285 415.958 359.301 415.958 359.293C415.958 359.293 415.887 359.253 415.736 359.197C415.593 359.134 415.371 359.047 415.1 358.912C414.568 358.634 413.798 358.165 413.067 357.307L412.964 357.402C413.298 357.752 413.313 358.363 413.027 358.856C412.884 359.102 412.678 359.325 412.408 359.452C412.138 359.587 411.812 359.634 411.495 359.603C410.843 359.539 410.2 359.174 409.723 358.618C409.239 358.062 408.905 357.347 408.572 356.608L408.429 356.29L408.365 356.632C408.206 357.45 408.039 358.348 407.468 359.007C407.182 359.325 406.785 359.563 406.356 359.634C405.927 359.714 405.474 359.579 405.18 359.245C404.815 358.832 404.664 358.26 404.545 357.704C404.426 357.148 404.362 356.592 404.322 356.044C404.259 354.948 404.322 353.876 404.386 352.859C404.449 351.843 404.513 350.874 404.505 349.96C404.497 349.047 404.394 348.197 404.219 347.442C403.893 345.917 403.218 344.798 402.623 344.17C402.019 343.535 401.574 343.328 401.574 343.328L401.582 343.336Z" fill="#65666D"/>
<path d="M371.286 352.871C371.286 352.871 371.309 352.895 371.365 352.935C371.428 352.982 371.508 353.038 371.611 353.109C371.722 353.189 371.857 353.284 372.024 353.371C372.191 353.467 372.39 353.586 372.62 353.689C373.525 354.118 374.987 354.547 376.814 354.444C378.617 354.34 380.785 353.705 382.723 352.259C384.677 350.854 386.392 348.781 387.798 346.406C388.513 345.222 389.093 344.007 389.728 342.879C390.364 341.759 391.063 340.719 391.92 339.901C392.762 339.075 393.739 338.471 394.74 338.185C395.24 338.034 395.749 338.002 396.225 338.01C396.71 338.034 397.163 338.137 397.584 338.272C398.425 338.558 399.109 339.019 399.625 339.504C400.141 339.988 400.491 340.496 400.729 340.941C401.174 341.839 401.197 342.418 401.237 342.411C401.237 342.411 401.237 342.379 401.229 342.307C401.213 342.228 401.197 342.125 401.182 342.005C401.134 341.743 401.023 341.362 400.808 340.901C400.578 340.449 400.236 339.917 399.712 339.416C399.196 338.916 398.505 338.431 397.631 338.129C397.194 337.979 396.726 337.875 396.225 337.844C395.725 337.828 395.193 337.859 394.677 338.01C393.628 338.288 392.619 338.916 391.762 339.758C390.888 340.592 390.165 341.648 389.522 342.784C388.87 343.912 388.291 345.127 387.584 346.302C386.186 348.661 384.494 350.711 382.58 352.101C380.682 353.53 378.561 354.166 376.782 354.293C374.987 354.42 373.549 354.023 372.636 353.618C371.714 353.205 371.286 352.847 371.262 352.871H371.286Z" fill="#65666D"/>
<path d="M370.398 348.57C370.398 348.57 370.518 348.674 370.748 348.817C370.978 348.967 371.336 349.15 371.788 349.349C372.241 349.547 372.797 349.738 373.432 349.889C374.068 350.032 374.783 350.143 375.537 350.167C376.292 350.191 377.015 350.127 377.658 350.024C378.301 349.913 378.873 349.762 379.334 349.587C379.795 349.42 380.168 349.261 380.406 349.126C380.652 348.999 380.779 348.92 380.771 348.904C380.756 348.864 380.215 349.142 379.286 349.436C378.826 349.587 378.262 349.714 377.626 349.817C376.991 349.905 376.284 349.96 375.545 349.936C374.807 349.913 374.108 349.809 373.48 349.682C372.853 349.539 372.297 349.373 371.852 349.198C370.946 348.848 370.422 348.539 370.398 348.578V348.57Z" fill="#65666D"/>
<path d="M378.408 363.317C378.599 363.515 379.735 362.602 381.371 362.562C383.007 362.491 384.238 363.324 384.405 363.11C384.492 363.015 384.286 362.657 383.754 362.276C383.229 361.903 382.34 361.545 381.315 361.585C380.291 361.625 379.449 362.03 378.964 362.443C378.472 362.856 378.305 363.229 378.408 363.317Z" fill="#65666D"/>
<path d="M379.329 366.576C379.353 367.275 379.972 367.831 380.703 367.815C381.434 367.799 382.006 367.22 381.982 366.521C381.958 365.822 381.338 365.266 380.608 365.282C379.877 365.297 379.305 365.877 379.329 366.576Z" fill="#65666D"/>
<path d="M371.888 402.943L336.464 426.128L314.884 409.298L308.156 419.949C308.156 419.949 320.721 434.492 325.384 439.432C330.038 444.372 333.144 447.009 336.813 446.533C340.483 446.064 371.157 434.142 371.157 434.142L375.811 401.625L373.866 402.094C373.167 402.26 372.499 402.546 371.896 402.943H371.888Z" fill="#65666D"/>
<path d="M411.429 395.027C403.502 400.007 395.52 401.882 387.427 398.657L375.266 401.763L369.357 412.04C368.428 413.661 368.007 415.511 368.142 417.37L370.461 456.71L363.297 481.697L433.446 482.309L429.991 463.747L421.294 397.045L411.429 395.035V395.027Z" fill="#65666D"/>
<g clip-path="url(#clip1_5042_91370)">
<path d="M406.77 418.801L405.926 420.095L406.264 422.55L404.244 422.828L403.036 414.064L405.056 413.786L405.528 417.207L407.955 413.386L410.343 413.056L407.884 417.023L411.703 421.795L409.338 422.121L406.764 418.797L406.77 418.801Z" fill="#F3F0F0"/>
<path d="M417.874 420.343C417.657 420.537 417.418 420.706 417.161 420.85C416.922 420.986 416.664 421.092 416.404 421.175C415.77 421.375 415.103 421.434 414.448 421.341C414.038 421.29 413.641 421.171 413.274 420.987C412.911 420.807 412.599 420.545 412.349 420.228C412.08 419.875 411.914 419.457 411.863 419.018L411.412 415.748C411.342 415.312 411.384 414.865 411.538 414.45C411.683 414.073 411.911 413.727 412.201 413.443C412.498 413.153 412.845 412.918 413.226 412.752C413.61 412.577 414.02 412.46 414.444 412.401C414.968 412.329 415.504 412.335 416.029 412.408C416.525 412.466 417.004 412.64 417.426 412.91L416.662 414.611C416.367 414.417 416.026 414.29 415.674 414.25C415.364 414.213 415.055 414.213 414.751 414.255C414.581 414.279 414.414 414.33 414.255 414.403C414.092 414.477 413.947 414.577 413.819 414.703C413.687 414.834 413.587 414.993 413.527 415.17C413.458 415.386 413.442 415.609 413.482 415.833L413.824 418.311C413.845 418.533 413.922 418.748 414.042 418.938C414.142 419.089 414.273 419.221 414.431 419.312C414.579 419.399 414.741 419.456 414.914 419.484C415.082 419.513 415.256 419.517 415.426 419.493C415.587 419.471 415.745 419.426 415.896 419.363C416.06 419.293 416.21 419.188 416.328 419.059L416.165 417.876L414.959 418.042L414.724 416.338L417.95 415.893L418.467 419.647C418.312 419.912 418.11 420.151 417.88 420.352L417.874 420.343Z" fill="#F3F0F0"/>
<path d="M418.928 423.761L404.621 425.734L404.886 427.658L419.193 425.685L418.928 423.761Z" fill="#F3F0F0"/>
</g>
<path d="M422.149 426.974L419.957 396.855C419.957 396.855 436.47 398.388 441.934 410.032C446.541 419.849 460.353 448.387 461.719 452.422C465.714 464.28 458.368 481.571 432.657 480.626L429.726 464.511L422.157 426.966L422.149 426.974Z" fill="#65666D"/>
<path d="M435.336 452.051C435.336 452.051 435.463 452.52 435.749 453.234C436.035 453.957 436.456 454.942 436.932 456.014C437.401 457.063 437.83 458.008 438.171 458.77C438.489 459.477 438.688 459.914 438.712 459.898C438.735 459.89 438.584 459.43 438.299 458.715C438.013 457.992 437.592 457.007 437.115 455.935C436.646 454.887 436.218 453.941 435.876 453.179C435.558 452.472 435.36 452.035 435.336 452.043V452.051Z" fill="#65666D"/>
<path d="M426.197 428.339C426.252 428.339 426.292 426.433 426.292 424.074C426.292 421.715 426.245 419.809 426.197 419.809C426.149 419.809 426.102 421.715 426.102 424.074C426.102 426.425 426.141 428.339 426.197 428.339Z" fill="#65666D"/>
<path d="M428.623 415.513C428.623 415.513 428.686 415.346 428.774 415.037C428.853 414.727 428.988 414.282 429.163 413.742C429.52 412.662 430.116 411.192 430.998 409.691C431.879 408.19 432.872 406.959 433.65 406.117C434.04 405.696 434.357 405.37 434.588 405.148C434.818 404.926 434.937 404.799 434.929 404.783C434.921 404.767 434.778 404.878 434.532 405.093C434.286 405.299 433.944 405.617 433.539 406.022C432.729 406.84 431.712 408.071 430.823 409.588C429.933 411.105 429.353 412.598 429.028 413.702C428.861 414.25 428.75 414.703 428.694 415.021C428.631 415.338 428.607 415.513 428.615 415.513H428.623Z" fill="#65666D"/>
<path d="M370.38 413.648C370.38 413.648 370.444 413.998 370.476 414.633C370.515 415.269 370.523 416.19 370.507 417.326C370.476 419.597 370.245 422.727 369.967 426.174C369.689 429.621 369.554 432.742 369.618 435.006C369.642 436.134 369.681 437.047 369.737 437.683C369.777 438.31 369.793 438.668 369.761 438.668C369.729 438.668 369.666 438.326 369.578 437.699C369.475 437.071 369.395 436.15 369.332 435.014C369.197 432.742 369.284 429.597 369.562 426.142C369.84 422.695 370.118 419.574 370.222 417.318C370.277 416.19 370.309 415.277 370.325 414.641C370.341 414.006 370.364 413.656 370.396 413.656L370.38 413.648Z" fill="#65666D"/>
<path d="M445.858 457.582C445.858 457.582 445.46 457.82 444.73 458.217C443.991 458.607 442.943 459.194 441.664 459.957C440.385 460.719 438.876 461.665 437.121 462.57C436.239 463.023 435.31 463.475 434.317 463.904C433.324 464.317 432.299 464.738 431.243 465.175C430.917 465.31 430.6 465.437 430.298 465.564L430.425 465.342C431.1 469.607 431.68 473.428 432.085 476.184C432.268 477.51 432.419 478.606 432.538 479.44C432.633 480.211 432.673 480.632 432.649 480.639C432.625 480.639 432.53 480.226 432.387 479.464C432.236 478.63 432.045 477.542 431.807 476.223C431.33 473.483 430.703 469.671 430.02 465.405L429.996 465.247L430.147 465.183C430.449 465.064 430.767 464.929 431.084 464.794C432.133 464.365 433.157 463.944 434.15 463.531C435.135 463.11 436.064 462.673 436.938 462.228C438.693 461.347 440.21 460.433 441.513 459.703C442.815 458.964 443.896 458.424 444.65 458.074C445.024 457.892 445.325 457.773 445.532 457.693C445.738 457.614 445.842 457.574 445.85 457.59L445.858 457.582Z" fill="#65666D"/>
<path d="M449.605 452.424C449.621 452.496 448.771 452.655 447.484 453.139C446.197 453.616 444.49 454.474 442.877 455.8C441.265 457.134 440.098 458.651 439.391 459.819C438.676 460.994 438.358 461.789 438.287 461.765C438.263 461.757 438.318 461.55 438.445 461.177C438.565 460.804 438.803 460.288 439.129 459.676C439.788 458.445 440.955 456.856 442.607 455.482C444.267 454.116 446.047 453.274 447.381 452.861C448.048 452.655 448.604 452.52 448.985 452.472C449.375 452.416 449.589 452.393 449.589 452.424H449.605Z" fill="#65666D"/>
<path d="M422.868 481.965L440.103 440.377C440.889 438.479 439.904 436.938 437.895 436.938H434.424C433.01 436.938 432.041 436.16 431.954 434.944L431.843 433.412C431.747 432.196 430.786 431.418 429.373 431.418H412.892C411.605 431.418 410.159 432.061 409.079 433.102L407.745 434.396C406.665 435.445 405.219 436.08 403.932 436.08H382.948C380.946 436.08 378.699 437.621 377.936 439.519L360.852 481.957H422.875L422.868 481.965Z" fill="#FFA469"/>
<path d="M425.716 467.853L432.221 442.722C432.649 441.07 431.561 439.41 430.06 439.41H379.108C378.1 439.41 377.218 440.173 376.94 441.285L367.48 479.115C367.067 480.775 367.727 481.776 369.236 481.752L420.505 481.768C421.498 481.752 422.372 481.006 422.65 479.91L425.731 467.861L425.716 467.853Z" fill="#D7D7D7"/>
<path d="M422.195 480.832L424.967 441.253C425.062 439.848 423.95 438.656 422.545 438.656H369.75V480.832H422.195Z" fill="#D7D7D7"/>
<path d="M422.788 481.737L416.505 440.936C416.219 439.609 415.02 438.656 413.638 438.656H360.232C358.119 438.656 356.697 440.777 357.539 442.675L369.072 480.013L422.796 481.737H422.788Z" fill="#F3F0F0"/>
<path d="M422.866 481.943L409.911 443.731C409.371 442.135 407.926 441.07 406.305 441.07H351.247C349.476 441.07 348.221 442.889 348.785 444.637L360.834 481.959L422.858 481.943H422.866Z" fill="#FFA469"/>
<path d="M396.254 475.553L410.615 473.393L416.19 470.184C416.921 469.763 417.429 469.009 417.469 468.159C417.469 468.143 417.469 468.127 417.469 468.111C417.509 467.055 416.865 466.094 415.888 465.681C414.117 464.934 411.313 463.941 410.122 461.852C408.407 458.842 410.122 458.223 410.122 458.223L422.115 463.02L430.606 468.794L432.314 478.429L420.471 482.297C420.471 482.297 407.271 483.043 403.633 482.63C399.995 482.225 399.995 480.526 399.995 480.526C399.32 480.311 397.954 479.112 397.954 477.992C396.183 476.332 396.254 475.553 396.254 475.553Z" fill="#DDC399"/>
<path d="M414.619 479.703C414.619 479.703 414.404 479.727 414.031 479.814C413.658 479.91 413.11 480.029 412.435 480.164C411.084 480.434 409.194 480.72 407.089 480.799C404.984 480.879 403.078 480.744 401.712 480.577C401.029 480.497 400.473 480.418 400.092 480.354C399.711 480.299 399.496 480.275 399.496 480.291C399.496 480.307 399.703 480.362 400.076 480.45C400.457 480.537 401.005 480.64 401.688 480.752C403.062 480.958 404.977 481.125 407.097 481.045C409.218 480.958 411.116 480.648 412.466 480.331C413.141 480.172 413.682 480.029 414.055 479.91C414.42 479.79 414.627 479.719 414.619 479.703Z" fill="#DDC399"/>
<path d="M413.306 477.477C413.306 477.477 413.092 477.501 412.703 477.588C412.321 477.683 411.765 477.802 411.082 477.93C409.708 478.2 407.786 478.462 405.658 478.533C403.521 478.597 401.591 478.454 400.201 478.279C399.502 478.192 398.946 478.112 398.557 478.049C398.168 477.993 397.953 477.961 397.945 477.977C397.945 477.993 398.152 478.049 398.533 478.136C398.914 478.231 399.478 478.335 400.169 478.438C401.559 478.652 403.505 478.827 405.658 478.764C407.81 478.692 409.74 478.398 411.114 478.088C411.797 477.93 412.353 477.787 412.727 477.667C413.1 477.548 413.306 477.477 413.306 477.461V477.477Z" fill="#DDC399"/>
<rect x="318.957" y="169.402" width="140.584" height="140.584" rx="7.94262" fill="#65666D"/>
<path d="M406.202 165.595C405.392 163.824 403.351 162.696 401.421 162.951C399.261 161.06 395.742 160.949 393.47 162.704C391.818 161.616 389.594 161.457 387.815 162.315C386.036 163.165 384.757 165 384.575 166.97C382.613 166.556 380.444 167.518 379.436 169.249C378.427 170.981 378.657 173.339 379.984 174.841C377.8 175.428 376.267 177.819 376.632 180.051C376.997 182.283 379.221 184.046 381.477 183.903L405.075 170.941C406.536 169.646 407.013 167.367 406.202 165.595Z" fill="#D7D7D7"/>
<path d="M380.77 184.514C382.096 174.395 390.968 166.992 401.158 167.493L402.175 167.54C413.064 168.724 418.148 178.628 416.662 189.478L413.271 225.768L413.088 227.531L387.632 231.335L388.124 222.066C388.124 222.066 377.704 219.914 378.101 209.406C378.292 204.331 379.531 193.918 380.762 184.506L380.77 184.514Z" fill="#DDC399"/>
<path d="M388.052 222.055C388.052 222.055 394.732 222.793 402.007 218.711C402.007 218.711 398.401 226.106 387.973 224.636L388.052 222.047V222.055Z" fill="#DDC399"/>
<path d="M383.052 194.721C382.981 195.508 383.601 196.222 384.419 196.302C385.237 196.389 385.967 195.817 386.031 195.023C386.102 194.237 385.483 193.522 384.665 193.435C383.839 193.347 383.116 193.919 383.052 194.713V194.721Z" fill="#65666D"/>
<path d="M382.771 189.766C382.946 189.973 384.121 189.186 385.734 189.274C387.346 189.337 388.49 190.227 388.672 190.036C388.76 189.949 388.593 189.592 388.093 189.186C387.608 188.789 386.758 188.384 385.75 188.337C384.741 188.289 383.883 188.623 383.375 188.972C382.858 189.329 382.676 189.671 382.763 189.766H382.771Z" fill="#65666D"/>
<path d="M397.279 195.686C397.208 196.472 397.827 197.187 398.645 197.267C399.471 197.354 400.194 196.782 400.258 195.988C400.329 195.202 399.71 194.487 398.891 194.407C398.065 194.32 397.343 194.892 397.279 195.686Z" fill="#65666D"/>
<path d="M398.611 190.848C398.786 191.055 399.969 190.268 401.581 190.356C403.194 190.419 404.337 191.309 404.52 191.118C404.607 191.031 404.441 190.674 403.94 190.268C403.456 189.871 402.606 189.466 401.597 189.419C400.589 189.371 399.731 189.705 399.222 190.054C398.706 190.411 398.523 190.753 398.611 190.848Z" fill="#65666D"/>
<path d="M392.157 202.53C392.173 202.442 391.173 202.212 389.56 201.926C389.147 201.862 388.766 201.759 388.71 201.473C388.631 201.171 388.822 200.735 389.044 200.266C389.481 199.289 389.934 198.264 390.418 197.192C392.332 192.808 393.738 189.202 393.563 189.122C393.389 189.043 391.689 192.538 389.775 196.922C389.314 198.002 388.869 199.035 388.448 200.02C388.274 200.48 387.972 200.997 388.154 201.624C388.25 201.934 388.544 202.18 388.806 202.26C389.068 202.355 389.298 202.371 389.505 202.395C391.133 202.561 392.15 202.617 392.157 202.53Z" fill="#65666D"/>
<path d="M396.863 203.872C396.601 203.84 396.513 205.595 394.949 206.763C393.392 207.938 391.533 207.644 391.509 207.89C391.478 208.002 391.907 208.248 392.693 208.311C393.463 208.375 394.607 208.184 395.56 207.47C396.513 206.755 396.958 205.754 397.053 205.039C397.157 204.308 396.982 203.864 396.863 203.872Z" fill="#65666D"/>
<path d="M398.506 184.517C398.641 184.961 400.261 184.834 402.143 185.16C404.034 185.446 405.527 186.073 405.797 185.692C405.916 185.509 405.67 185.08 405.074 184.628C404.486 184.175 403.525 183.722 402.398 183.54C401.27 183.357 400.221 183.484 399.514 183.73C398.807 183.976 398.442 184.302 398.498 184.517H398.506Z" fill="#D7D7D7"/>
<path d="M383.591 185.12C383.853 185.501 384.989 185.175 386.323 185.223C387.665 185.223 388.777 185.588 389.055 185.223C389.182 185.04 389.016 184.667 388.539 184.294C388.07 183.92 387.268 183.603 386.347 183.579C385.426 183.563 384.615 183.857 384.131 184.206C383.638 184.564 383.464 184.929 383.583 185.112L383.591 185.12Z" fill="#D7D7D7"/>
<path d="M382.02 179.755C382.02 179.755 385.117 173.322 388.358 171.94C392.29 170.272 393.727 174.569 397.436 173.727C401.146 172.885 404.894 171.289 408.493 174.299C412.432 177.595 410.407 179.668 410.423 184.346C410.51 203.281 413.695 208.794 415.117 199.945C415.275 198.976 418.016 198.333 418.619 194.243C419.406 188.929 419.93 182.456 418.929 178.612C418.079 175.371 416.372 173.068 413.226 170.478C408.262 166.38 401.185 165.951 396.356 166.189C391.527 166.436 381.98 171.511 382.012 179.763L382.02 179.755Z" fill="#D7D7D7"/>
<path d="M414.473 199.622C414.615 198.001 416.077 196.794 417.681 197.024C419.627 197.31 421.756 198.525 421.422 202.568C420.835 209.733 413.766 207.667 413.766 207.461C413.766 207.318 414.195 202.616 414.465 199.622H414.473Z" fill="#DDC399"/>
<path d="M415.554 204.89C415.554 204.89 415.674 204.985 415.872 205.105C416.071 205.216 416.42 205.311 416.801 205.2C417.58 204.985 418.318 203.834 418.461 202.547C418.533 201.896 418.446 201.268 418.255 200.728C418.08 200.188 417.77 199.791 417.397 199.696C417.024 199.576 416.738 199.783 416.635 199.982C416.523 200.172 416.555 200.323 416.515 200.331C416.492 200.347 416.372 200.196 416.452 199.91C416.492 199.767 416.587 199.608 416.77 199.481C416.952 199.354 417.214 199.306 417.477 199.354C418.025 199.441 418.485 199.989 418.692 200.569C418.93 201.157 419.041 201.872 418.962 202.603C418.795 204.04 417.945 205.335 416.889 205.549C416.373 205.637 415.967 205.454 415.761 205.263C415.554 205.073 415.531 204.906 415.554 204.898V204.89Z" fill="#DDC399"/>
<path d="M415.023 185.717C414.062 186.305 413.045 186.916 411.917 186.972C410.789 187.027 409.534 186.321 409.399 185.193C409.336 184.692 409.487 184.113 409.177 183.715C408.804 183.239 408.081 183.342 407.469 183.374C405.373 183.493 403.307 181.912 402.879 179.855C402.307 180.626 401.068 180.53 400.289 179.974C399.511 179.418 399.034 178.537 398.439 177.79C397.843 177.044 396.993 176.345 396.04 176.432C395.508 176.48 394.992 176.774 394.459 176.702C393.522 176.575 393.117 175.447 393.022 174.502C392.926 173.557 392.871 172.461 392.1 171.913C391.386 171.404 390.409 171.627 389.535 171.714C388.661 171.801 387.549 171.539 387.375 170.682C387.279 170.229 387.494 169.768 387.764 169.395C388.971 167.687 391.441 167.028 393.339 167.91C394.158 165.574 396.469 163.835 398.939 163.7C401.409 163.565 403.895 165.034 404.975 167.266C406.564 165.964 408.796 165.495 410.766 166.051C412.743 166.607 414.403 168.164 415.078 170.102C416.85 169.728 418.804 170.507 419.836 171.984C420.869 173.469 420.924 175.566 419.963 177.099C421.218 177.901 422.259 179.236 422.211 180.721C422.163 182.206 420.646 183.62 419.232 183.151C419.757 184.335 419.209 185.884 418.049 186.471C416.897 187.059 415.325 186.606 414.665 185.487" fill="#D7D7D7"/>
<path d="M419.765 183.169C419.765 183.169 419.868 183.78 419.249 184.527C418.947 184.884 418.431 185.242 417.771 185.313C417.12 185.393 416.334 185.194 415.754 184.614L416.064 184.583C415.674 185.186 415.182 185.79 414.539 186.298C414.126 186.624 413.681 186.894 413.188 187.045C412.712 187.212 412.172 187.204 411.735 187.108C410.83 186.965 410.059 186.433 409.725 185.822C409.368 185.218 409.281 184.662 409.217 184.297C409.162 183.923 409.162 183.717 409.193 183.717C409.225 183.717 409.273 183.907 409.376 184.265C409.479 184.614 409.622 185.139 409.972 185.663C410.599 186.727 412.791 187.362 414.277 185.98C414.864 185.504 415.349 184.932 415.73 184.368L415.865 184.162L416.032 184.336C416.501 184.821 417.168 185.019 417.732 184.972C418.304 184.932 418.764 184.654 419.066 184.352C419.678 183.725 419.701 183.137 419.765 183.161V183.169Z" fill="#F3F0F0"/>
<path d="M407.015 166.093C407.015 166.093 406.824 166.133 406.498 166.252C406.181 166.371 405.704 166.617 405.339 167.142L405.243 167.277L405.148 167.142C404.521 166.204 403.456 164.997 401.82 164.163C401.002 163.75 400.057 163.448 399.024 163.401C398 163.345 396.92 163.583 395.943 164.116C395.18 164.529 394.537 165.092 394.044 165.744C393.568 166.395 393.258 167.134 393.147 167.872L393.115 168.103L392.901 168.031C391.836 167.682 390.732 167.841 389.898 168.246C389.056 168.659 388.5 169.318 388.183 169.914C387.539 171.145 387.706 172.034 387.627 172.018C387.611 172.018 387.563 171.812 387.571 171.431C387.587 171.049 387.659 170.47 387.976 169.81C388.286 169.167 388.858 168.428 389.755 167.96C390.637 167.491 391.836 167.301 393.02 167.666L392.774 167.825C392.885 167.023 393.21 166.22 393.719 165.513C394.243 164.814 394.934 164.203 395.744 163.766C396.785 163.202 397.952 162.94 399.048 163.012C400.144 163.075 401.145 163.409 401.987 163.853C403.687 164.759 404.743 166.046 405.339 167.038H405.156C405.585 166.475 406.117 166.252 406.467 166.157C406.824 166.069 407.023 166.093 407.023 166.109L407.015 166.093Z" fill="#F3F0F0"/>
<path d="M399.275 205.046C399.156 205.046 399.148 204.283 398.568 203.624C398.012 202.949 397.266 202.822 397.274 202.71C397.274 202.663 397.48 202.607 397.806 202.679C398.123 202.75 398.552 202.973 398.878 203.354C399.204 203.743 399.362 204.196 399.378 204.521C399.402 204.855 399.315 205.046 399.267 205.038L399.275 205.046Z" fill="#DDC399"/>
<path d="M400.013 203.092C399.91 203.148 399.664 202.886 399.29 202.695C398.925 202.496 398.568 202.441 398.552 202.322C398.528 202.21 398.988 202.067 399.481 202.322C399.973 202.576 400.116 203.036 400.013 203.084V203.092Z" fill="#DDC399"/>
<path d="M407.759 220.313C407.759 220.313 407.862 220.265 407.957 220.13C408.052 220.003 408.132 219.757 408.005 219.494C407.902 219.216 407.592 218.962 407.385 218.486C407.29 218.255 407.266 217.906 407.433 217.652C407.584 217.398 407.798 217.239 407.925 217.064C408.505 216.373 406.909 215.809 407.155 214.904C407.211 214.522 407.417 214.276 407.576 214.157C407.743 214.038 407.862 214.03 407.87 214.054C407.909 214.101 407.473 214.316 407.441 214.927C407.425 215.229 407.6 215.499 407.933 215.801C408.092 215.952 408.283 216.151 408.394 216.421C408.529 216.691 408.45 217.096 408.251 217.318C408.068 217.549 407.878 217.699 407.782 217.866C407.687 218.017 407.687 218.184 407.743 218.367C407.862 218.724 408.172 219.034 408.275 219.407C408.402 219.788 408.235 220.13 408.06 220.257C407.878 220.392 407.743 220.344 407.743 220.321L407.759 220.313Z" fill="#DDC399"/>
<path d="M409.991 220.08C409.991 220.08 409.96 219.969 409.912 219.818C409.864 219.659 409.737 219.461 409.539 219.198C409.443 219.063 409.34 218.92 409.253 218.722C409.165 218.531 409.11 218.269 409.181 218.015C409.324 217.507 409.761 217.197 409.975 216.839C410.214 216.482 410.031 216.164 409.737 215.839C409.602 215.672 409.459 215.505 409.372 215.299C409.284 215.092 409.269 214.886 409.284 214.711C409.38 213.964 409.888 213.766 409.888 213.821C409.936 213.861 409.57 214.131 409.578 214.727C409.578 215.029 409.721 215.291 410.023 215.6C410.166 215.759 410.341 215.934 410.444 216.212C410.555 216.49 410.484 216.839 410.333 217.07C410.031 217.538 409.642 217.808 409.547 218.142C409.435 218.452 409.634 218.785 409.785 219.063C409.944 219.341 410.063 219.611 410.063 219.81C410.063 220.009 410.007 220.104 409.983 220.104L409.991 220.08Z" fill="#DDC399"/>
<path d="M427.651 278.054L437.174 287.236L434.092 269.674L453.432 263.559C453.432 263.559 458.571 287.657 459.461 293.359C461.065 303.589 459.095 318.124 449.564 319.149C439.255 320.253 431.471 310.086 426.515 303.415C422.702 298.284 416.555 289.316 416.555 289.316L427.643 278.062" fill="#D7D7D7"/>
<path d="M353.972 262.422C350.866 272.191 346.53 273.669 344.814 301.658C344.48 307.115 345.656 314.398 350.835 316.162C356.585 318.116 365.385 314.557 368.149 309.839V290.563L353.972 262.43V262.422Z" fill="#D7D7D7"/>
<path d="M366.792 303.31C366.689 303.341 366.157 301.356 364.886 299.195C363.639 297.027 362.178 295.574 362.257 295.502C362.289 295.47 362.694 295.796 363.258 296.408C363.822 297.019 364.544 297.925 365.18 299.029C365.815 300.133 366.252 301.205 366.498 301.999C366.745 302.793 366.824 303.302 366.784 303.318L366.792 303.31Z" fill="#65666D"/>
<path d="M349.305 273.693C349.464 273.114 359.011 247.133 362.061 241.446C365.706 234.648 373.363 231.637 378.113 231.343C382.862 231.049 433.735 235.1 433.735 235.1C433.735 235.1 447.984 238.682 450.867 251.573C454.481 267.736 457.388 283.685 457.388 283.685L431.892 289.189L428.89 281.636L380.988 292.327L369.288 275.028L349.305 273.693Z" fill="#D7D7D7"/>
<path d="M437.097 236.585L417.225 227.824L415.001 219.254L391.808 230.223L386.947 224.853L384.914 230.906L379.831 232.566L369.831 252.279L367.988 297.973L368.163 309.839L436.708 310.292L436.152 290.865L437.097 236.585Z" fill="#D7D7D7"/>
<path d="M415.001 219.254C415.001 219.254 412.404 220.008 405.748 223.559C399.227 227.038 391.809 230.223 391.809 230.223L392.373 240.691L417.058 228.301" fill="#D7D7D7"/>
<path d="M386.944 224.852L391.805 230.221L389.208 241.444L384.879 231.301" fill="#D7D7D7"/>
<path d="M391.946 310.001C391.946 310.001 391.438 291.026 391.89 279.136C392.264 269.351 390.723 244.387 390.723 244.387L387.498 243.871C387.498 243.871 381.47 268.144 379.222 297.881L378.309 309.914" fill="#FFA469"/>
<path d="M431.219 259.656C431.219 259.656 431.322 260.014 431.449 260.665C431.576 261.38 431.751 262.317 431.949 263.445C432.362 265.852 432.918 269.068 433.53 272.619C434.157 276.201 434.69 279.449 435.039 281.808C435.214 282.984 435.349 283.945 435.436 284.604C435.523 285.263 435.555 285.637 435.531 285.637C435.508 285.637 435.428 285.279 435.301 284.628C435.174 283.913 434.999 282.976 434.793 281.848C434.372 279.441 433.808 276.233 433.188 272.674C432.569 269.092 432.061 265.836 431.711 263.477C431.552 262.341 431.417 261.404 431.314 260.681C431.227 260.022 431.195 259.656 431.219 259.648V259.656Z" fill="#65666D"/>
<path d="M438.572 238.108C438.612 238.156 437.905 238.712 436.904 239.737C435.903 240.769 434.64 242.318 433.6 244.248C432.567 246.178 431.964 248.084 431.654 249.49C431.344 250.896 431.281 251.785 431.217 251.785C431.193 251.785 431.193 251.555 431.217 251.15C431.233 250.745 431.297 250.157 431.424 249.442C431.67 248.013 432.25 246.051 433.298 244.081C434.354 242.119 435.673 240.555 436.729 239.562C437.261 239.061 437.706 238.68 438.04 238.45C438.365 238.212 438.556 238.084 438.572 238.108Z" fill="#65666D"/>
<path d="M391.881 235.225L389.665 234.367L387.577 237.957L387.195 243.859L390.15 244.335L392.366 240.69L391.881 235.225Z" fill="#FFA469"/>
<path d="M367.983 252.781C368.079 252.781 368.158 265.553 368.158 281.311C368.158 297.069 368.079 309.841 367.983 309.841C367.888 309.841 367.809 297.069 367.809 281.311C367.809 265.561 367.888 252.781 367.983 252.781Z" fill="#65666D"/>
<path d="M392.032 230.129C392.072 230.161 391.555 230.955 390.769 232.265C389.983 233.576 388.95 235.419 387.957 237.523C387.878 237.698 387.799 237.865 387.719 238.032L387.568 238.365L387.409 238.032C386.456 236.03 385.773 234.164 385.344 232.806C385.13 232.122 384.979 231.574 384.884 231.185C384.788 230.804 384.749 230.582 384.772 230.582C384.82 230.566 385.082 231.4 385.567 232.734C386.051 234.068 386.766 235.903 387.719 237.889H387.409C387.481 237.73 387.568 237.555 387.648 237.381C388.64 235.26 389.721 233.425 390.563 232.138C390.984 231.495 391.341 230.987 391.595 230.645C391.849 230.304 392.008 230.121 392.024 230.137L392.032 230.129Z" fill="#65666D"/>
<path d="M417.217 227.821C417.217 227.821 417.105 227.901 416.875 228.028C416.613 228.163 416.279 228.337 415.874 228.552C414.961 229.02 413.714 229.672 412.189 230.458C409.075 232.078 404.818 234.382 400.1 236.9C397.225 238.432 394.501 239.854 392.134 241.038L391.911 241.149V240.911C391.88 237.837 391.856 235.248 391.832 233.381C391.832 232.499 391.832 231.792 391.832 231.26C391.832 230.768 391.848 230.506 391.864 230.506C391.88 230.506 391.904 230.768 391.927 231.26C391.951 231.792 391.975 232.507 392.007 233.381C392.054 235.255 392.126 237.837 392.205 240.911L391.983 240.776C394.342 239.568 397.05 238.139 399.926 236.606C404.643 234.088 408.925 231.808 412.07 230.244C413.642 229.457 414.921 228.846 415.811 228.433C416.232 228.242 416.573 228.091 416.843 227.964C417.082 227.861 417.209 227.813 417.209 227.821H417.217Z" fill="#65666D"/>
<path d="M370.969 235.892C371.016 235.924 370.627 236.583 370.127 237.695C369.626 238.815 369.054 240.411 368.713 242.246C368.379 244.081 368.347 245.78 368.419 247.004C368.49 248.227 368.618 248.981 368.562 248.989C368.538 248.989 368.483 248.807 368.403 248.473C368.324 248.139 368.244 247.639 368.173 247.019C368.038 245.788 368.03 244.049 368.371 242.182C368.721 240.308 369.34 238.696 369.904 237.592C370.182 237.036 370.436 236.607 370.635 236.313C370.826 236.027 370.945 235.868 370.961 235.884L370.969 235.892Z" fill="#65666D"/>
<path d="M389.612 244.722C389.564 244.801 389 244.539 388.357 244.134C387.713 243.729 387.237 243.332 387.285 243.252C387.332 243.173 387.896 243.435 388.539 243.84C389.183 244.245 389.659 244.642 389.612 244.722Z" fill="#65666D"/>
<path d="M390.663 243.281C390.575 243.32 389.9 241.978 389.162 240.294C388.423 238.602 387.891 237.205 387.978 237.173C388.066 237.133 388.741 238.475 389.479 240.159C390.218 241.843 390.75 243.249 390.663 243.281Z" fill="#65666D"/>
<path d="M452.577 302.816C452.577 302.816 452.546 302.768 452.49 302.665C452.434 302.554 452.355 302.403 452.26 302.212C452.156 302.006 452.037 301.76 451.886 301.474C451.704 301.196 451.497 300.886 451.259 300.537C450.29 299.131 448.622 297.264 446.311 295.159C444.007 293.039 441.076 290.648 437.788 287.924C436.152 286.55 434.405 285.104 432.665 283.5C430.926 281.895 429.131 280.164 427.526 278.146L427.772 278.162C424.675 281.403 421.315 284.913 417.836 288.551C417.384 289.028 416.931 289.496 416.51 289.941L416.526 289.727C420.283 295.215 423.698 300.529 427.288 304.984C429.067 307.224 430.902 309.226 432.689 311.021C434.468 312.824 436.208 314.428 437.939 315.699C441.37 318.288 444.817 319.408 447.216 319.345C447.518 319.345 447.796 319.361 448.066 319.345C448.328 319.313 448.574 319.289 448.805 319.265C449.035 319.241 449.241 319.218 449.44 319.202C449.631 319.162 449.797 319.122 449.956 319.083C450.25 319.019 450.48 318.971 450.655 318.932C450.814 318.9 450.893 318.884 450.893 318.892C450.893 318.9 450.814 318.924 450.663 318.963C450.488 319.011 450.258 319.075 449.964 319.146C449.805 319.186 449.639 319.234 449.448 319.281C449.249 319.305 449.043 319.337 448.813 319.369C448.582 319.4 448.336 319.432 448.066 319.464C447.796 319.48 447.51 319.472 447.208 319.48C444.786 319.583 441.267 318.487 437.788 315.898C436.033 314.627 434.27 313.03 432.475 311.227C430.672 309.432 428.821 307.431 427.026 305.183C423.404 300.719 419.973 295.406 416.224 289.925L416.145 289.806L416.24 289.703C416.661 289.266 417.114 288.789 417.566 288.313C421.053 284.675 424.413 281.172 427.51 277.932L427.637 277.797L427.757 277.948C429.337 279.941 431.116 281.665 432.848 283.269C434.579 284.874 436.319 286.327 437.947 287.709C441.219 290.449 444.134 292.864 446.43 295.009C448.733 297.145 450.385 299.043 451.33 300.481C451.561 300.838 451.759 301.164 451.942 301.442C452.077 301.736 452.196 301.99 452.291 302.197C452.379 302.387 452.442 302.538 452.498 302.657C452.546 302.761 452.561 302.816 452.561 302.816H452.577Z" fill="#65666D"/>
<path d="M426.108 279.556L410.421 262.424L401.017 260.637L390.342 261.987C390.342 261.987 389.889 263.679 391.692 264.576L387.745 264.799C387.745 264.799 386.959 266.824 389.206 267.729L386.387 268.222C386.387 268.222 387.626 271.105 390.779 270.541C393.932 269.977 399.119 269.977 399.119 269.977L404.639 273.019L396.41 272.678L390.437 273.806C390.437 273.806 389.651 275.331 391.001 275.696C392.352 276.061 397.538 275.696 397.538 275.696L404.996 278.063C404.996 278.063 407.911 282.201 408.928 283.321C409.945 284.441 414.79 286.538 414.79 286.538L417.18 288.674L426.108 279.54V279.556Z" fill="#DDC399"/>
<path d="M387.754 264.805C387.762 264.893 388.929 264.837 390.82 264.694C392.71 264.551 395.307 264.297 398.175 263.987C399.128 263.876 400.057 263.773 400.923 263.678H400.812C402.948 264.265 404.799 264.766 406.125 265.099C407.452 265.433 408.246 265.592 408.27 265.528C408.293 265.465 407.531 265.171 406.236 264.742C404.942 264.313 403.107 263.741 400.986 263.106L400.931 263.09H400.867C399.993 263.185 399.072 263.28 398.111 263.384C395.244 263.693 392.654 264.003 390.78 264.265C388.906 264.519 387.754 264.726 387.762 264.805H387.754Z" fill="#DDC399"/>
<path d="M387.074 268.119C387.09 268.207 388.147 268.12 389.854 267.929C391.562 267.738 393.905 267.428 396.494 267.047C397.392 266.912 398.258 266.785 399.068 266.658L398.917 266.642C402.618 268.088 405.35 269.057 405.398 268.93C405.446 268.803 402.809 267.619 399.131 266.102L399.06 266.07H398.98C398.162 266.197 397.297 266.324 396.399 266.452C393.81 266.833 391.475 267.206 389.783 267.508C388.091 267.81 387.059 268.04 387.066 268.119H387.074Z" fill="#DDC399"/>
<path d="M347.156 265.452L355.107 295.491C355.544 297.159 357.069 298.303 358.792 298.271L399.967 297.461C402.31 297.413 404.033 295.245 403.549 292.957L397.481 264.189C397.115 262.458 395.59 261.227 393.827 261.227H350.405C348.197 261.227 346.585 263.323 347.148 265.46L347.156 265.452Z" fill="#65666D"/>
<path d="M374.068 273.331C375.188 273.879 375.696 275.126 375.203 276.119C374.711 277.112 373.416 277.469 372.296 276.921C371.177 276.373 370.668 275.126 371.161 274.133C371.645 273.14 372.948 272.783 374.068 273.331Z" fill="#F3F0F0"/>
<path d="M344.17 272.024C343.368 271.143 343.439 269.673 344.154 268.712C344.869 267.751 346.092 267.275 347.291 267.227C348.491 267.179 349.658 267.521 350.778 267.95C352.16 268.474 353.487 269.141 354.734 269.92C355.615 270.476 356.529 271.198 356.703 272.223C356.878 273.248 355.758 274.423 354.853 273.907C356.028 274.399 357.22 275.646 357.402 276.949C357.585 278.251 356.894 278.95 355.639 279.324C356.6 279.697 357.212 280.896 356.775 281.834C356.314 282.811 354.964 283.081 353.955 282.691C352.947 282.302 352.2 281.452 351.493 280.626C352.208 281.857 352.462 283.359 352.192 284.756C349.412 283.803 347.276 281.182 346.91 278.267C345.544 277.243 345.091 275.178 345.894 273.677C344.774 273.327 343.503 271.611 343.59 270.444" fill="#DDC399"/>
<path d="M355.611 279.348C355.611 279.348 355.143 278.999 354.404 278.427C353.673 277.871 352.601 277.101 351.235 276.807C350.56 276.664 349.885 276.664 349.305 276.807C348.725 276.95 348.249 277.22 347.899 277.514C347.192 278.101 347.033 278.697 346.986 278.673C346.97 278.673 346.986 278.522 347.097 278.268C347.2 278.022 347.407 277.681 347.764 277.355C348.121 277.029 348.622 276.711 349.241 276.545C349.861 276.37 350.584 276.362 351.306 276.513C352.76 276.831 353.84 277.665 354.547 278.268C355.254 278.896 355.643 279.333 355.611 279.356V279.348Z" fill="#DDC399"/>
<path d="M355.302 274.045C355.286 274.085 354.714 273.862 353.841 273.433C353.404 273.227 352.88 272.973 352.284 272.75C351.688 272.544 350.997 272.361 350.282 272.234C349.56 272.115 348.861 272.099 348.249 272.218C347.637 272.337 347.121 272.592 346.748 272.87C345.977 273.441 345.819 274.069 345.763 274.045C345.747 274.045 345.763 273.886 345.882 273.632C345.993 273.378 346.224 273.028 346.613 272.703C346.994 272.377 347.542 272.083 348.193 271.94C348.845 271.797 349.591 271.805 350.33 271.94C351.077 272.075 351.76 272.266 352.379 272.496C352.991 272.734 353.507 273.012 353.936 273.251C354.786 273.727 355.318 274.013 355.302 274.053V274.045Z" fill="#DDC399"/>
<rect x="94.1719" y="169.402" width="140.584" height="140.584" rx="7.94262" fill="#E8E8E8"/>
<path d="M251.363 283.149C251.363 283.149 255.771 277.375 257.844 277.153C259.917 276.93 272.896 277.383 274.723 277.153C276.549 276.922 286.811 272.594 286.811 272.594C286.811 272.594 288.638 273.205 288.408 274.842C288.177 276.47 276.772 282.633 275.406 282.864C274.039 283.094 263.087 283.896 263.087 283.896L260.338 288.86L251.363 283.157V283.149Z" fill="#DDC399"/>
<path d="M213.576 210.463C215.8 209.47 217.412 207.215 217.634 204.792C217.857 202.37 216.681 199.86 214.68 198.478L206.674 195.785C205.514 206.119 204.291 216.444 202.988 226.769C205.141 226.658 207.365 226.301 209.136 225.07C210.907 223.838 212.075 221.535 211.415 219.486C213.163 218.898 214.553 217.365 214.99 215.578C215.418 213.783 214.87 211.79 213.584 210.479L213.576 210.463Z" fill="#65666D"/>
<path d="M174.321 204.401L174.623 200.723L197.109 198.777C203.979 198.754 210.643 206.315 210.373 213.185C210.079 220.818 209.412 230.127 207.935 235.687C204.964 246.878 196.1 247.434 196.1 247.434L195.306 258.712C194.71 265.289 189.039 266.171 182.463 265.583C176.037 265.011 171.224 259.443 171.581 252.994L174.313 204.393L174.321 204.401Z" fill="#DDC399"/>
<path d="M206.801 221.284C206.746 222.054 206.055 222.65 205.245 222.61C204.434 222.57 203.823 221.911 203.879 221.141C203.934 220.37 204.625 219.775 205.435 219.814C206.245 219.854 206.857 220.513 206.809 221.284H206.801Z" fill="#65666D"/>
<path d="M207.469 217.775C207.271 217.95 206.246 217.012 204.673 216.861C203.109 216.679 201.87 217.37 201.719 217.163C201.639 217.068 201.862 216.742 202.402 216.433C202.934 216.123 203.808 215.853 204.793 215.956C205.769 216.059 206.556 216.504 206.993 216.925C207.437 217.346 207.565 217.703 207.469 217.783V217.775Z" fill="#65666D"/>
<path d="M192.133 220.358C192.078 221.128 191.387 221.724 190.577 221.684C189.767 221.645 189.155 220.985 189.211 220.215C189.258 219.445 189.957 218.849 190.767 218.889C191.577 218.928 192.189 219.588 192.141 220.358H192.133Z" fill="#65666D"/>
<path d="M192.01 216.49C191.811 216.664 190.787 215.727 189.214 215.576C187.649 215.402 186.41 216.085 186.259 215.878C186.188 215.783 186.402 215.457 186.942 215.147C187.475 214.838 188.348 214.568 189.333 214.671C190.31 214.774 191.096 215.219 191.533 215.64C191.978 216.061 192.105 216.418 192.01 216.498V216.49Z" fill="#65666D"/>
<path d="M196.52 228.716C196.52 228.629 197.512 228.557 199.117 228.518C199.522 228.518 199.911 228.478 200.006 228.208C200.133 227.93 200.006 227.477 199.863 226.993C199.585 225.984 199.292 224.927 198.99 223.815C197.79 219.304 196.964 215.603 197.139 215.555C197.314 215.507 198.442 219.129 199.649 223.641C199.935 224.753 200.213 225.809 200.475 226.826C200.578 227.294 200.785 227.842 200.523 228.422C200.388 228.708 200.07 228.899 199.8 228.938C199.538 228.994 199.307 228.97 199.109 228.962C197.504 228.883 196.52 228.795 196.52 228.7V228.716Z" fill="#65666D"/>
<path d="M196.097 247.48C196.097 247.48 188.003 247.13 180.887 241.801C180.887 241.801 183.913 250.156 195.795 250.323L196.089 247.488L196.097 247.48Z" fill="#FFA469"/>
<path d="M192.801 212.095C192.603 212.508 191.054 212.143 189.188 212.175C187.321 212.175 185.78 212.556 185.574 212.151C185.486 211.96 185.78 211.579 186.424 211.23C187.059 210.88 188.052 210.578 189.172 210.57C190.292 210.563 191.284 210.841 191.928 211.182C192.579 211.524 192.881 211.897 192.793 212.088L192.801 212.095Z" fill="#65666D"/>
<path d="M207.96 212.375C207.651 212.7 206.602 212.224 205.308 212.073C204.013 211.874 202.885 212.073 202.663 211.668C202.567 211.477 202.782 211.136 203.298 210.85C203.806 210.564 204.624 210.365 205.522 210.484C206.412 210.604 207.15 211.009 207.571 211.414C207.992 211.827 208.103 212.208 207.968 212.375H207.96Z" fill="#65666D"/>
<path d="M215.403 203.405C217.849 202.086 219.247 199.148 218.898 196.391C218.548 193.635 216.562 191.197 213.997 190.125C213.473 189.91 212.933 189.759 212.377 189.648C211.368 188.917 210.184 188.425 208.945 188.274C208.922 186.789 207.722 185.518 206.34 184.994C204.958 184.47 203.417 184.533 201.948 184.716C200.677 182.762 198.453 181.459 196.126 181.324C193.799 181.189 191.432 182.222 189.947 184.017C188.422 182.889 186.365 182.532 184.554 183.08C182.743 183.628 181.218 185.065 180.574 186.836C178.922 186.709 177.239 187.305 176.023 188.433C175.571 188.854 175.189 189.354 174.887 189.894C174.308 190.506 173.847 191.229 173.577 192.031C170.789 192.055 168.104 193.953 167.167 196.582C166.23 199.211 167.08 202.38 169.216 204.167C167.699 205.382 166.802 207.336 166.865 209.282C166.929 211.228 167.962 213.119 169.566 214.223C168.692 216.208 168.684 218.551 169.542 220.545C169.915 221.403 170.527 222.245 171.353 222.61C171.377 222.761 171.417 222.912 171.488 223.055C172.06 224.191 173.783 223.897 174.848 223.214C177.445 221.546 179.041 218.678 180.034 215.756C181.019 212.833 181.504 209.759 182.465 206.82C182.489 206.757 182.504 206.685 182.528 206.614C182.933 205.382 183.616 204.286 184.506 203.373C185.332 204.08 186.134 204.819 187.056 205.398C190.328 207.463 194.974 207.027 197.81 204.382C199.954 206.59 202.885 208.011 205.943 208.329C209.001 208.647 212.091 208.385 214.64 206.661C215.125 206.336 215.792 205.74 216.165 204.882C216.396 204.35 215.935 203.603 215.395 203.381L215.403 203.405Z" fill="#65666D"/>
<path d="M174.609 219.623C174.466 219.527 168.74 216.66 167.818 222.863C166.889 229.074 173.315 228.717 173.354 228.542C173.394 228.367 174.617 219.615 174.617 219.615L174.609 219.623Z" fill="#DDC399"/>
<path d="M171.804 225.915C171.804 225.915 171.685 225.978 171.486 226.034C171.296 226.089 170.978 226.097 170.676 225.93C170.057 225.589 169.659 224.469 169.795 223.341C169.866 222.777 170.065 222.253 170.327 221.84C170.581 221.411 170.922 221.141 171.264 221.133C171.605 221.109 171.804 221.34 171.86 221.522C171.915 221.705 171.86 221.824 171.891 221.84C171.907 221.856 172.042 221.753 172.026 221.49C172.026 221.363 171.971 221.205 171.844 221.062C171.717 220.919 171.502 220.823 171.272 220.815C170.787 220.776 170.295 221.157 170.001 221.61C169.683 222.062 169.445 222.65 169.366 223.286C169.223 224.54 169.683 225.811 170.541 226.2C170.962 226.383 171.343 226.304 171.558 226.185C171.772 226.057 171.828 225.922 171.804 225.915Z" fill="#FFA469"/>
<path d="M218.686 195.328C218.686 195.328 218.702 195.376 218.726 195.479C218.75 195.582 218.766 195.733 218.782 195.94C218.806 196.345 218.782 196.956 218.543 197.695C218.305 198.426 217.821 199.292 216.939 199.959C216.081 200.626 214.834 201.087 213.452 200.952L213.571 200.864C213.087 202.619 212.023 204.486 210.355 205.979C209.521 206.718 208.52 207.361 207.368 207.727C206.224 208.116 204.938 208.1 203.723 207.838C202.515 207.584 201.387 207.123 200.363 206.559C199.346 205.987 198.401 205.336 197.694 204.486L197.885 204.51C196.113 205.812 194.16 206.63 192.325 206.797C190.474 206.932 188.878 206.44 187.686 205.852C186.487 205.248 185.677 204.534 185.177 204.017C184.922 203.755 184.74 203.541 184.628 203.39C184.509 203.239 184.454 203.16 184.462 203.16C184.478 203.144 184.724 203.453 185.24 203.954C185.756 204.446 186.574 205.129 187.766 205.701C188.941 206.265 190.53 206.726 192.309 206.575C194.088 206.4 196.002 205.582 197.726 204.303L197.829 204.224L197.916 204.319C198.592 205.113 199.521 205.765 200.514 206.313C201.514 206.861 202.618 207.314 203.794 207.56C204.977 207.814 206.201 207.83 207.297 207.464C208.401 207.123 209.37 206.495 210.188 205.789C211.824 204.343 212.88 202.524 213.365 200.816L213.389 200.721H213.484C214.787 200.88 215.994 200.451 216.836 199.824C217.686 199.196 218.17 198.362 218.424 197.663C218.678 196.956 218.718 196.353 218.718 195.956C218.718 195.551 218.671 195.344 218.686 195.336V195.328Z" fill="#65666D"/>
<path d="M174.508 191.802C174.547 191.826 174.071 192.509 173.69 193.867C173.316 195.201 173.102 197.306 173.992 199.53L174.031 199.625L173.944 199.681C173.142 200.213 172.435 201.015 171.966 202C171.505 202.985 171.299 204.153 171.505 205.304C171.768 206.821 172.641 208.148 173.737 208.95L173.841 209.029L173.769 209.141C172.951 210.348 172.586 211.714 172.554 212.929C172.498 214.152 172.745 215.225 173.07 216.059C173.729 217.742 174.619 218.449 174.555 218.489C174.555 218.489 174.5 218.449 174.405 218.362C174.317 218.267 174.166 218.148 174.015 217.949C173.69 217.568 173.269 216.972 172.911 216.122C172.562 215.28 172.284 214.176 172.324 212.921C172.339 211.666 172.705 210.253 173.547 208.982L173.578 209.164C172.419 208.33 171.498 206.948 171.227 205.352C171.013 204.137 171.227 202.906 171.72 201.881C172.212 200.856 172.959 200.022 173.801 199.467L173.753 199.617C172.864 197.314 173.126 195.162 173.547 193.811C173.761 193.128 174.007 192.62 174.19 192.278C174.277 192.112 174.365 191.985 174.42 191.905C174.476 191.826 174.508 191.778 174.516 191.786L174.508 191.802Z" fill="#65666D"/>
<path d="M192.441 230.596C191.742 231.2 191.353 232.153 191.448 233.075C191.543 233.996 192.099 234.854 192.909 235.306C193.227 235.489 193.6 235.608 193.966 235.553C194.609 235.457 195.046 234.87 195.411 234.322C195.713 233.869 196.015 233.424 196.317 232.971C196.42 232.82 196.523 232.646 196.483 232.471C196.436 232.28 196.245 232.169 196.062 232.09C194.911 231.534 193.751 230.986 192.6 230.43" fill="#FFA469"/>
<path d="M193.921 235.335C193.921 235.335 193.254 235.312 192.301 234.771C191.84 234.493 191.316 234.009 191.101 233.278C190.982 232.921 190.998 232.468 191.117 232.103C191.228 231.721 191.403 231.34 191.657 230.999C191.904 230.665 192.213 230.395 192.547 230.196L192.658 230.125L192.769 230.196C195.009 231.571 196.804 232.405 196.764 232.5C196.725 232.603 194.834 231.92 192.539 230.57H192.769C192.483 230.745 192.221 230.983 192.015 231.269C191.602 231.864 191.324 232.595 191.498 233.175C191.657 233.787 192.078 234.231 192.475 234.517C193.301 235.081 193.945 235.264 193.913 235.343L193.921 235.335Z" fill="#65666D"/>
<path d="M110.859 310.198C110.859 310.198 133.456 269.691 137.213 263.138C141.637 255.434 145.489 252.638 148.96 250.954C152.59 249.199 156.609 248.365 160.644 248.341L171.851 248.254C171.851 248.254 176.108 254.624 181.882 255.871C189.841 257.594 195.798 251.685 195.798 251.685L211.897 258.285L208.665 288.031C207.855 295.52 205.114 302.685 200.722 308.808L199.658 310.19L140.326 310.135L147.205 288.729L134.489 310.182H110.859V310.198Z" fill="#65666D"/>
<g clip-path="url(#clip2_5042_91370)">
<path d="M191.705 275.009L190.364 275.777L189.548 278.116L187.622 277.445L190.537 269.091L192.463 269.763L191.325 273.025L195.226 270.727L197.502 271.522L193.507 273.934L194.733 279.921L192.479 279.134L191.702 275.003L191.705 275.009Z" fill="#F3F0F0"/>
<path d="M200.889 281.439C200.607 281.513 200.317 281.554 200.023 281.565C199.748 281.577 199.471 281.555 199.201 281.51C198.546 281.399 197.925 281.148 197.384 280.767C197.042 280.535 196.743 280.248 196.5 279.917C196.259 279.592 196.1 279.216 196.022 278.82C195.943 278.383 195.986 277.936 196.14 277.522L197.228 274.405C197.365 273.985 197.605 273.606 197.931 273.306C198.232 273.037 198.593 272.833 198.98 272.712C199.377 272.589 199.793 272.538 200.207 272.564C200.628 272.583 201.048 272.665 201.451 272.806C201.951 272.981 202.425 273.23 202.86 273.534C203.275 273.812 203.622 274.184 203.874 274.617L202.419 275.783C202.246 275.477 202 275.209 201.705 275.012C201.446 274.838 201.17 274.697 200.88 274.596C200.718 274.54 200.547 274.509 200.372 274.503C200.193 274.494 200.018 274.517 199.846 274.57C199.669 274.627 199.508 274.723 199.374 274.853C199.214 275.014 199.098 275.205 199.032 275.424L198.208 277.785C198.126 277.993 198.096 278.219 198.116 278.443C198.137 278.622 198.194 278.799 198.293 278.952C198.385 279.098 198.503 279.223 198.644 279.326C198.781 279.428 198.934 279.511 199.096 279.568C199.25 279.621 199.411 279.653 199.574 279.665C199.752 279.678 199.933 279.653 200.097 279.592L200.49 278.463L199.341 278.062L199.908 276.438L202.982 277.511L201.734 281.089C201.475 281.254 201.186 281.375 200.89 281.449L200.889 281.439Z" fill="#F3F0F0"/>
<path d="M200.268 284.961L186.633 280.203L185.993 282.036L199.629 286.795L200.268 284.961Z" fill="#F3F0F0"/>
</g>
<path d="M211.896 258.281C211.896 258.281 216.574 261.021 220.1 272.411C223.627 283.801 231.228 304.062 231.228 304.062L250.282 282.435L261.593 289.615C261.593 289.615 243.348 321.29 240.449 325.039C236.129 330.631 225.208 333.823 218.798 326.397C214.144 320.996 203 294.865 203 294.865L211.904 258.281H211.896Z" fill="#65666D"/>
<path d="M205.031 274.805C205.031 274.805 205.102 274.916 205.205 275.146C205.301 275.377 205.468 275.71 205.634 276.155C205.984 277.045 206.437 278.355 206.842 280.007C207.676 283.303 208.232 288.093 207.445 293.271C206.659 298.45 204.705 302.858 202.934 305.765C202.052 307.227 201.234 308.347 200.631 309.085C200.337 309.466 200.09 309.736 199.924 309.927C199.757 310.118 199.662 310.205 199.654 310.197C199.63 310.173 199.947 309.76 200.503 308.99C201.059 308.219 201.83 307.084 202.68 305.614C204.379 302.699 206.262 298.331 207.04 293.208C207.819 288.093 207.318 283.359 206.564 280.071C206.19 278.419 205.793 277.1 205.483 276.203C205.182 275.305 204.999 274.805 205.031 274.797V274.805Z" fill="#65666D"/>
<path d="M150.891 271.164C150.891 271.164 150.891 271.307 150.859 271.577C150.82 271.895 150.764 272.284 150.7 272.753C150.557 273.769 150.311 275.247 149.978 277.057C149.31 280.679 148.238 285.659 146.745 291.084C145.252 296.509 143.624 301.338 142.337 304.793C141.694 306.517 141.153 307.907 140.756 308.86C140.574 309.297 140.415 309.662 140.296 309.956C140.184 310.202 140.121 310.329 140.105 310.329C140.089 310.329 140.129 310.186 140.216 309.924C140.319 309.622 140.447 309.257 140.605 308.804C140.971 307.78 141.463 306.39 142.059 304.698C143.274 301.227 144.847 296.39 146.34 290.981C147.825 285.572 148.945 280.608 149.684 277.01C150.033 275.255 150.319 273.809 150.534 272.737C150.629 272.268 150.708 271.887 150.772 271.577C150.828 271.315 150.867 271.172 150.883 271.18L150.891 271.164Z" fill="#65666D"/>
<path d="M122.508 310.159C122.508 310.159 124.668 307.228 125.725 306.672C126.781 306.116 128.25 306.132 128.894 306.712L129.537 307.291C129.537 307.291 132.889 305.79 134.493 306.942C134.493 306.942 137.678 305.433 139.203 307.156C139.203 307.156 141.657 305.56 142.698 306.95C143.738 308.348 143.627 310.699 143.127 311.914C142.626 313.129 141.681 317.259 140.951 317.331C140.951 317.331 138.997 317.537 138.735 316.481C138.472 315.425 138.361 314.908 138.361 314.908C138.361 314.908 137.615 318.649 136.709 318.84C135.804 319.031 134.088 318.927 134.033 317.283C134.033 317.283 133.199 318.522 132.38 318.165C131.562 317.808 130.554 317.204 130.641 316.187C130.728 315.171 130.744 314.154 130.744 314.154C130.744 314.154 130.3 315.631 129.561 315.314C128.822 314.996 128.076 315.059 127.663 313.804C127.25 312.549 126.217 310.151 126.217 310.151H122.508V310.159Z" fill="#DDC399"/>
<path d="M130.688 314.073C130.641 314.049 130.839 313.668 131.006 313.017C131.181 312.365 131.3 311.428 131.117 310.42C130.927 309.411 130.482 308.577 130.085 308.037C129.688 307.489 129.37 307.203 129.41 307.163C129.433 307.131 129.807 307.362 130.267 307.894C130.728 308.418 131.236 309.292 131.435 310.364C131.634 311.436 131.467 312.429 131.228 313.08C130.99 313.747 130.72 314.089 130.688 314.073Z" fill="#DDC399"/>
<path d="M134.699 306.957C134.699 306.957 134.945 307.497 135.128 308.434C135.31 309.364 135.445 310.682 135.35 312.136C135.255 313.589 134.945 314.876 134.635 315.773C134.325 316.671 134.048 317.195 134.016 317.179C133.912 317.147 134.85 314.979 135.032 312.112C135.239 309.252 134.596 306.973 134.707 306.957H134.699Z" fill="#DDC399"/>
<path d="M139.277 307.203C139.357 307.195 139.579 308.974 139.325 311.167C139.079 313.359 138.459 315.043 138.38 315.011C138.284 314.979 138.761 313.279 138.999 311.127C139.253 308.974 139.174 307.211 139.277 307.203Z" fill="#DDC399"/>
<path d="M151.817 308.062C151.682 307.713 151.333 307.482 150.975 307.379C150.141 307.133 149.22 307.466 148.545 308.03C147.87 308.594 147.226 309.476 146.773 310.215H151.523C151.475 309.476 152.087 308.737 151.825 308.062H151.817Z" fill="#DDC399"/>
<path d="M274.429 242.191H299.909C299.909 256.17 288.408 267.671 274.429 267.671C260.45 267.671 248.949 256.17 248.949 242.191C248.949 228.212 260.418 216.743 274.381 216.711L274.429 242.191Z" fill="#FFA469"/>
<path d="M278.954 238.097L278.875 212.617H278.954C292.878 212.617 304.355 224.031 304.434 237.946L278.954 238.089V238.097Z" fill="#FFA469"/>
</g>
<g clip-path="url(#clip3_5042_91370)">
<path d="M134.085 87.0195C126.051 87.0195 120.312 93.0005 120.231 100.444C120.151 107.811 126.345 114.034 134.143 113.969C141.699 113.969 147.997 107.829 147.893 100.427C147.79 93.0654 142.085 87.0254 134.085 87.0254V87.0195ZM134.12 109.186C128.958 109.115 125.468 104.555 125.526 100.344C125.578 96.3862 128.918 91.809 134.051 91.8031C138.948 91.7972 142.702 96.1385 142.581 100.497C142.893 104.19 139.155 109.262 134.114 109.192L134.12 109.186Z" fill="#65666D"/>
<path d="M165.566 87.0195C157.531 87.0195 151.792 93.0005 151.712 100.444C151.631 107.811 157.826 114.034 165.624 113.969C173.179 113.969 179.478 107.829 179.374 100.427C179.27 93.0654 173.566 87.0254 165.566 87.0254V87.0195ZM165.6 109.186C160.438 109.115 156.949 104.555 157.007 100.344C157.058 96.3862 160.398 91.809 165.531 91.8031C170.428 91.7972 174.183 96.1385 174.062 100.497C174.373 104.19 170.636 109.262 165.595 109.192L165.6 109.186Z" fill="#65666D"/>
<path d="M183.133 105.148C183.133 107.017 183.133 108.881 183.133 110.751C183.133 111.819 183.133 112.886 183.133 113.96C183.133 114.296 183.254 114.432 183.589 114.379C183.981 114.314 184.373 114.267 184.748 114.131C186.997 113.317 188.451 111.223 188.451 108.775C188.451 105.03 188.491 101.278 188.433 97.5329C188.399 95.4035 189.962 92.4602 192.898 92.1122C194.668 91.8999 196.197 92.4308 197.397 93.8169C198.371 94.9435 198.792 96.2588 198.781 97.7747C198.746 101.544 198.769 105.319 198.769 109.094C198.769 109.424 198.752 109.76 198.839 110.085C199.456 112.397 201.111 114.101 203.562 114.379C203.955 114.426 204.03 114.361 204.03 113.948C204.03 112.656 204.03 111.371 204.03 110.079C204.03 105.879 204.03 101.674 204.03 97.4739C204.03 95.2738 205.668 92.6844 208.148 92.1712C211.643 91.4457 214.423 94.4598 214.377 97.3205C214.325 101.078 214.4 104.841 214.348 108.598C214.325 110.167 214.798 111.494 215.796 112.645C216.724 113.712 217.918 114.267 219.303 114.385C219.545 114.408 219.677 114.302 219.654 114.048C219.608 113.606 219.672 113.164 219.672 112.721C219.672 107.808 219.677 102.889 219.672 97.9752C219.672 97.2733 219.689 96.5655 219.574 95.8813C219.106 93.0796 217.768 90.7379 215.634 88.9625C213.414 87.1104 210.83 86.3318 207.929 86.7034C205.437 87.0219 203.366 88.1367 201.613 89.9357C201.44 90.1127 201.342 90.1245 201.18 89.9416C200.523 89.1925 199.733 88.6204 198.89 88.1072C196.399 86.5913 193.728 86.2197 190.948 86.9806C188.693 87.5941 186.813 88.8504 185.417 90.8087C183.981 92.8259 183.046 94.9907 183.121 97.5624C183.191 100.093 183.139 102.623 183.139 105.154L183.133 105.148Z" fill="#65666D"/>
<path d="M109.874 114.235C112.81 114.182 116.38 114.312 119.95 114.176C120.469 114.158 120.544 114.082 120.452 113.557C120.158 111.876 119.345 110.543 117.926 109.611C116.893 108.933 115.728 108.75 114.546 108.744C110.831 108.72 107.123 108.738 103.408 108.738C103.264 108.738 103.12 108.738 102.976 108.738C102.895 108.738 102.797 108.756 102.756 108.649C102.722 108.549 102.797 108.484 102.86 108.431C103.235 108.124 103.541 107.735 103.875 107.387C108.328 102.822 112.787 98.2564 117.245 93.6911C117.597 93.3313 117.914 92.9479 118.179 92.5232C119.235 90.8303 118.883 88.8249 117.332 87.598C116.53 86.961 115.607 86.7604 114.626 86.7604C108.236 86.7545 101.845 86.7604 95.4544 86.7604C95.0103 86.7604 94.9238 86.8371 94.9873 87.2736C95.218 88.8367 95.9447 90.1166 97.1732 91.0781C98.2403 91.9156 99.4919 92.1811 100.801 92.187C104.095 92.1988 107.382 92.187 110.676 92.1929C110.808 92.1929 111.004 92.1162 111.068 92.2813C111.12 92.417 110.952 92.5055 110.86 92.5998C108.57 94.9474 106.275 97.2891 103.979 99.6366C101.464 102.208 98.9497 104.774 96.435 107.352C95.6621 108.142 95.0507 109.045 94.9815 110.195C94.8719 111.958 96.0716 113.575 97.7615 114.023C98.3672 114.182 98.9901 114.241 99.6188 114.241C102.826 114.241 106.033 114.241 109.868 114.241L109.874 114.235Z" fill="#65666D"/>
</g>
</g>
<defs>
<filter id="filter0_d_5042_91370" x="0.459068" y="0.229534" width="549.082" height="609.082" filterUnits="userSpaceOnUse" color-interpolation-filters="sRGB">
<feFlood flood-opacity="0" result="BackgroundImageFix"/>
<feColorMatrix in="SourceAlpha" type="matrix" values="0 0 0 0 0 0 0 0 0 0 0 0 0 0 0 0 0 0 127 0" result="hardAlpha"/>
<feOffset dy="31.7705"/>
<feGaussianBlur stdDeviation="31.7705"/>
<feComposite in2="hardAlpha" operator="out"/>
<feColorMatrix type="matrix" values="0 0 0 0 0.27451 0 0 0 0 0.278431 0 0 0 0 0.305882 0 0 0 0.2 0"/>
<feBlend mode="multiply" in2="BackgroundImageFix" result="effect1_dropShadow_5042_91370"/>
<feBlend mode="normal" in="SourceGraphic" in2="effect1_dropShadow_5042_91370" result="shape"/>
</filter>
<clipPath id="clip0_5042_91370">
<rect width="406" height="361" fill="white" transform="translate(72 146)"/>
</clipPath>
<clipPath id="clip1_5042_91370">
<rect width="14.4916" height="13.7941" fill="white" transform="translate(403 413.98) rotate(-7.8528)"/>
</clipPath>
<clipPath id="clip2_5042_91370">
<rect width="14.4916" height="13.7941" fill="white" transform="translate(190.543 269) rotate(19.237)"/>
</clipPath>
<clipPath id="clip3_5042_91370">
<rect width="124.699" height="27.7992" fill="white" transform="translate(94.9766 86.5977)"/>
</clipPath>
</defs>
</svg>
