<svg width="228" height="152" viewBox="0 0 228 152" fill="none" xmlns="http://www.w3.org/2000/svg">
<path d="M122.332 6.57422H90.0093C88.3501 6.57422 87.0039 7.95558 87.0039 9.65783V42.8223C87.0039 44.5246 88.3501 45.906 90.0093 45.906H122.332C123.992 45.906 125.338 44.5246 125.338 42.8223V9.65783C125.338 7.95558 123.992 6.57422 122.332 6.57422Z" fill="#F3F0F0"/>
<path d="M87.043 18.9909H125.295C125.318 18.9909 125.334 18.9713 125.334 18.9517V8.89084C125.334 7.61122 124.297 6.57422 123.017 6.57422H89.2266C87.9979 6.57422 87 7.56818 87 8.80084V18.9556C87 18.9791 87.0196 18.9948 87.0391 18.9948L87.043 18.9909Z" fill="#FFA469"/>
<path d="M104.591 28.0954C104.591 28.47 104.521 28.8232 104.382 29.155C104.243 29.4761 104.066 29.7758 103.852 30.0541C103.638 30.3217 103.403 30.5732 103.146 30.8087C102.889 31.0441 102.643 31.2582 102.407 31.4509C102.225 31.6007 102.001 31.772 101.733 31.9646C101.476 32.1466 101.219 32.3446 100.962 32.5587C100.716 32.762 100.491 32.9814 100.288 33.2169C100.095 33.4524 99.9723 33.6932 99.9188 33.9394H104.527V36.0586H97.4624V34.5173C97.4624 34.0571 97.5266 33.6343 97.6551 33.249C97.7835 32.853 97.9494 32.4891 98.1528 32.1573C98.3668 31.8255 98.613 31.5204 98.8913 31.2422C99.1696 30.9639 99.4532 30.7123 99.7422 30.4876C100.031 30.2628 100.315 30.0541 100.593 29.8614C100.882 29.6688 101.139 29.4761 101.364 29.2835C101.589 29.0908 101.765 28.8982 101.894 28.7055C102.033 28.5128 102.102 28.3095 102.102 28.0954C102.102 27.8385 102.001 27.6191 101.797 27.4372C101.594 27.2552 101.267 27.1642 100.818 27.1642C100.486 27.1642 100.138 27.2231 99.7743 27.3408C99.4211 27.4586 99.0893 27.6566 98.7789 27.9349L97.5427 26.0244C97.9815 25.639 98.506 25.3554 99.1161 25.1734C99.7262 24.9808 100.358 24.8845 101.011 24.8845C101.439 24.8845 101.867 24.938 102.295 25.045C102.723 25.1413 103.103 25.3179 103.435 25.5748C103.777 25.821 104.056 26.1528 104.27 26.5702C104.484 26.9769 104.591 27.4853 104.591 28.0954ZM112.888 34.5173V36.0586H110.496V34.5173H105.968V32.6389L109.452 24.9968H111.973L108.601 32.4142H110.496V29.3316H112.888V32.4142H113.771V34.5173H112.888Z" fill="#46474E"/>
<path d="M100.498 11.5978C101.187 11.5978 101.747 11.0265 101.747 10.3182V3.99447C101.747 3.28617 101.187 2.71484 100.498 2.71484C99.8096 2.71484 99.25 3.28617 99.25 3.99447V10.3182C99.25 11.0265 99.8096 11.5978 100.498 11.5978Z" fill="#D7D7D7"/>
<path d="M112.201 11.5978C112.89 11.5978 113.45 11.0265 113.45 10.3182V3.99447C113.45 3.28617 112.89 2.71484 112.201 2.71484C111.513 2.71484 110.953 3.28617 110.953 3.99447V10.3182C110.953 11.0265 111.513 11.5978 112.201 11.5978Z" fill="#D7D7D7"/>
<path d="M109.136 20.6537C109.136 20.6537 109.206 20.6498 109.339 20.6459C109.476 20.6459 109.676 20.6459 109.942 20.6498C110.466 20.7045 111.253 20.7906 112.2 21.1507C113.143 21.5068 114.235 22.1368 115.268 23.1347C115.777 23.6395 116.281 24.2264 116.696 24.9269C117.111 25.6235 117.487 26.4139 117.698 27.2983C118.136 29.0593 117.984 31.1294 117.178 33.1016C116.364 35.0621 114.967 36.9601 113.045 38.3884C111.136 39.8245 108.745 40.8263 106.162 41.155C103.587 41.4681 100.801 41.1237 98.3158 39.8989C97.0753 39.2884 95.9444 38.4862 95.0248 37.4962C94.1013 36.5139 93.4008 35.3478 92.9821 34.1112C92.5634 32.8747 92.4147 31.5637 92.5947 30.3154C92.7708 29.0671 93.2639 27.9049 93.9056 26.8992C95.2048 24.8721 97.0362 23.4164 98.8715 22.3716C100.73 21.3424 102.644 20.7437 104.424 20.458C106.205 20.1724 107.852 20.1958 109.273 20.3798C110.689 20.5676 111.895 20.8728 112.834 21.2367C113.069 21.3268 113.296 21.3933 113.499 21.4872C113.703 21.5811 113.89 21.6672 114.067 21.7494C114.243 21.8316 114.403 21.9059 114.552 21.9724C114.693 22.0546 114.822 22.125 114.939 22.1916C115.162 22.3207 115.338 22.4185 115.46 22.489C115.577 22.5594 115.632 22.5985 115.632 22.5985C115.632 22.5985 115.565 22.5712 115.448 22.5085C115.323 22.442 115.143 22.3481 114.916 22.2268C114.798 22.1642 114.669 22.0937 114.524 22.0155C114.376 21.949 114.211 21.8785 114.035 21.8003C113.859 21.722 113.667 21.6398 113.464 21.5498C113.26 21.4598 113.033 21.3933 112.799 21.3072C111.859 20.955 110.662 20.6654 109.253 20.4893C107.845 20.3211 106.209 20.3054 104.444 20.5989C102.683 20.8924 100.789 21.4911 98.9498 22.5164C97.134 23.5534 95.3301 25.0052 94.0583 26.997C93.4282 27.987 92.9508 29.1219 92.7786 30.3428C92.6025 31.5598 92.7512 32.8394 93.1621 34.0486C93.573 35.2617 94.2578 36.3965 95.1618 37.3592C96.0657 38.3258 97.1771 39.1162 98.3941 39.715C100.84 40.9202 103.587 41.2646 106.127 40.9554C108.674 40.6346 111.034 39.6523 112.92 38.2397C114.818 36.8387 116.199 34.9682 117.009 33.039C117.811 31.0981 117.964 29.0632 117.545 27.3335C117.111 25.6 116.18 24.2069 115.174 23.2168C114.16 22.2229 113.088 21.5889 112.157 21.225C111.222 20.8572 110.443 20.7554 109.922 20.6889C109.664 20.6772 109.465 20.6693 109.324 20.6615C109.187 20.6576 109.116 20.6459 109.116 20.6459L109.136 20.6537Z" fill="#263238"/>
<g filter="url(#filter0_d_5042_90015)">
<g clip-path="url(#clip0_5042_90015)">
<path d="M21.4159 24.7148H50.4392L65.8233 40.0005V75.826C65.8233 77.7082 64.2929 79.2334 62.4073 79.2334H21.4159C19.5303 79.2334 18 77.7082 18 75.826V28.1223C18 26.24 19.5303 24.7148 21.4159 24.7148Z" fill="#FCCD82"/>
<path fill-rule="evenodd" clip-rule="evenodd" d="M42.0945 70.7088L40.3773 70.3089V63.5606L42.0945 63.2415V70.7088ZM54.1064 69.1177C52.8609 69.1218 51.8513 68.1404 51.843 66.9247V66.9126C51.843 65.7173 52.8485 64.7359 54.1022 64.7359C55.3559 64.7359 56.3614 65.7173 56.3614 66.9126C56.3656 68.1283 55.3559 69.1136 54.1146 69.1177H54.1064ZM58 66.9126C58 69.0126 56.258 70.7129 54.1064 70.7129C51.9548 70.7129 50.2128 69.0126 50.2128 66.9126C50.2128 64.8126 51.9589 63.1407 54.1106 63.1407C56.2623 63.1407 58 64.8409 58 66.9126ZM35.9086 70.313L37.5968 70.6563V66.1129C37.5968 63.9321 35.8548 63.1648 34.6549 63.1648C33.8645 63.1648 33.2108 63.3506 32.6398 63.9079C32.0398 63.3506 31.3323 63.1365 30.7613 63.1365C29.9172 63.1365 29.2096 63.4797 28.7172 64.0653V63.2939L27 63.6131V70.3089L28.7172 70.6522V66.0604C28.7172 65.3173 29.2634 64.8125 30.1034 64.8125C30.8937 64.8125 31.4648 65.3173 31.4648 66.0604V70.3129L33.153 70.6561V66.0603C33.153 65.3172 33.724 64.8124 34.5432 64.8124C35.3624 64.8124 35.9046 65.3172 35.9046 66.0603L35.9087 70.3128L35.9086 70.313ZM48.93 63.1406L47.9205 63.2738C46.0419 63.6979 44.8172 64.2834 44.8172 66.3026V70.3129L46.5344 70.6319V66.5408C46.5344 65.612 47.0806 65.1839 47.9247 65.0263L48.9342 64.8689L48.93 63.1404V63.1406ZM40.4601 60.3741C40.0504 60.782 40.0504 61.4282 40.4601 61.8361C40.878 62.2561 41.5691 62.2601 41.9952 61.8523L42.0118 61.8361C42.4215 61.4323 42.4215 60.7779 42.0118 60.3741C41.5733 59.9743 40.8946 59.9743 40.4601 60.3741Z" fill="#46474E"/>
<path d="M37.0638 44.4727H44.9876C46.6593 44.4727 48.0165 45.7973 48.0165 47.4288V55.1626C48.0165 56.7941 46.6593 58.1187 44.9877 58.1187H37.064C35.3923 58.1187 34.0352 56.7941 34.0352 55.1626V47.4288C34.035 45.7973 35.3922 44.4727 37.0638 44.4727Z" fill="white"/>
<path d="M43.7537 46.1758H42.2186L43.4971 48.3687L40.6834 46.1758H39.1483L40.5552 48.8573L37.6132 46.1758H36.0781L37.6132 49.5883L36.0781 56.4134H37.6132L40.5552 49.0997L39.1483 56.4134H40.6834L43.4971 48.6151L42.2186 56.4134H43.7537L46.5673 47.88L43.7537 46.1758Z" fill="#46474E"/>
<path d="M65.7718 40.0493H53.8652C51.9796 40.0493 50.4492 38.5227 50.4492 36.6419V24.75L65.7711 40.0493H65.7718Z" fill="#EAB560"/>
</g>
</g>
<path d="M231.276 85.8401C233.101 85.9376 234.47 83.821 234.112 82.0294C233.755 80.2377 232.182 78.9102 230.497 78.2093C228.812 77.5084 226.969 77.2996 225.196 76.8447C219.937 75.4986 215.3 71.8828 212.715 67.1066C211.865 65.5377 211.104 63.5929 210.408 61.4252C207.924 50.9537 204.48 35.9845 203.64 30.1546C201.468 15.0925 197.625 -1.44091 176.106 0.100109C176.106 0.100109 161.801 2.79225 156.31 13.0549C151.482 22.0782 154.267 49.2874 153.631 68.8889L158.324 71.7157L159.053 71.7575C159.633 73.7859 160.459 75.6936 161.638 77.3785C165.922 83.4915 171.752 88.3977 178.079 92.3663C190.853 100.382 206.142 104.759 221.148 103.251C224.319 102.935 227.531 102.332 230.302 100.763C233.073 99.1941 235.366 96.5066 235.783 93.3503C236.201 90.194 234.349 86.6896 231.276 85.8401Z" fill="#3A3B41"/>
<path d="M173.241 5.71468L174.587 4.43359L189.134 10.296C191.242 10.412 192.903 12.1201 192.968 14.2274L192.843 61.6277C192.862 64.8397 192.216 67.6246 190.276 70.1868L188.234 72.8836C183.574 79.0337 173.993 78.5278 170.303 71.751C170.043 71.2776 169.867 70.8598 169.788 70.5256C169.709 70.1032 169.593 69.8248 169.57 69.4673C169.138 65.6519 169.11 62.3471 169.11 62.3471C168.85 58.1604 168.767 56.443 168.767 56.4801C168.767 56.4801 159.855 55.4543 157.446 44.0173C156.248 38.3267 156.476 30.5009 156.81 22.8005C157.274 12.1433 164.668 5.70075 173.237 5.71468H173.241Z" fill="#DDC399"/>
<path d="M173.969 30.5985C173.978 31.383 174.651 32.0142 175.468 32.0189C176.285 32.0189 176.94 31.3923 176.926 30.6078C176.916 29.828 176.243 29.1875 175.426 29.1875C174.61 29.1875 173.955 29.8188 173.969 30.5985Z" fill="#3A3B41"/>
<path d="M159.77 30.5985C159.779 31.383 160.452 32.0142 161.269 32.0189C162.086 32.0189 162.74 31.3923 162.726 30.6078C162.717 29.828 162.044 29.1875 161.227 29.1875C160.41 29.1875 159.756 29.8188 159.77 30.5985Z" fill="#3A3B41"/>
<path d="M158.342 25.849C158.537 26.0347 159.614 25.1482 161.206 25.0739C162.793 24.9764 164.005 25.7377 164.167 25.5334C164.246 25.4406 164.042 25.1017 163.517 24.7583C162.997 24.4148 162.125 24.0992 161.136 24.1549C160.143 24.2106 159.331 24.6144 158.871 25.0136C158.402 25.4127 158.254 25.7701 158.347 25.8537L158.342 25.849Z" fill="#3A3B41"/>
<path d="M174.488 26.0166C174.697 26.1791 175.681 25.1857 177.26 24.949C178.828 24.6891 180.109 25.3204 180.253 25.1022C180.323 25.0047 180.086 24.6891 179.525 24.4013C178.972 24.1135 178.072 23.8861 177.092 24.0439C176.113 24.2017 175.343 24.6891 174.925 25.13C174.498 25.5756 174.386 25.947 174.488 26.0166Z" fill="#3A3B41"/>
<path d="M168.93 37.5919C168.93 37.499 167.936 37.3783 166.321 37.253C165.913 37.2298 165.523 37.1695 165.444 36.8956C165.333 36.6078 165.481 36.1622 165.653 35.6795C165.987 34.6769 166.335 33.6279 166.702 32.5232C168.15 28.0348 169.176 24.3539 168.995 24.2936C168.814 24.2379 167.491 27.8305 166.043 32.319C165.695 33.4237 165.365 34.482 165.049 35.4892C164.919 35.958 164.678 36.4964 164.919 37.0952C165.045 37.3923 165.351 37.6011 165.616 37.6568C165.88 37.7218 166.108 37.7172 166.312 37.7172C167.927 37.7218 168.93 37.68 168.93 37.5872V37.5919Z" fill="#3A3B41"/>
<path d="M168.77 56.4743C168.77 56.4743 176.549 56.5857 184.003 51.582C184.003 51.582 180.522 59.7559 168.927 59.2593L168.77 56.4789V56.4743Z" fill="#FFA469"/>
<path d="M169.792 41.3934C170.325 40.609 171.309 40.1402 172.307 40.2005C172.999 40.2423 173.718 40.5394 174.164 41.0778C174.61 41.6162 174.74 42.4146 174.387 42.9669C173.988 43.5935 173.096 43.7746 172.326 43.5982C171.555 43.4218 170.878 42.953 170.233 42.4842C170.052 42.3542 169.871 42.2196 169.754 42.0386C169.638 41.8529 169.601 41.6116 169.727 41.4445" fill="#FFA469"/>
<path d="M173.673 38.4613C173.413 38.4613 173.496 40.188 172.081 41.4876C170.665 42.7919 168.818 42.6898 168.813 42.9312C168.794 43.0426 169.24 43.2468 170.02 43.2282C170.781 43.2143 171.886 42.9172 172.749 42.1189C173.612 41.3205 173.951 40.2994 173.975 39.5892C174.002 38.8651 173.789 38.4474 173.673 38.4613Z" fill="#3A3B41"/>
<path d="M172.961 19.8058C173.183 20.2096 174.724 19.764 176.604 19.7037C178.484 19.6062 180.058 19.9172 180.243 19.4948C180.322 19.2952 180.002 18.9332 179.338 18.6083C178.679 18.2834 177.662 18.0373 176.535 18.0838C175.407 18.1302 174.418 18.4644 173.787 18.8403C173.151 19.2163 172.858 19.6062 172.956 19.8012L172.961 19.8058Z" fill="#3A3B41"/>
<path d="M158.567 19.0139C158.864 19.362 159.941 18.9304 161.259 18.8468C162.572 18.7169 163.705 18.9675 163.942 18.5776C164.044 18.3873 163.849 18.0345 163.348 17.7189C162.851 17.4033 162.034 17.1619 161.129 17.2362C160.224 17.3104 159.458 17.6771 159.017 18.0717C158.571 18.4662 158.437 18.8468 158.567 19.0186V19.0139Z" fill="#3A3B41"/>
<path d="M192.691 34.451C192.691 34.451 184.541 36.9853 179.932 16.8732C178.353 9.99427 171.98 4.42432 171.98 4.42432L174.566 3.64453C174.566 3.64453 190.635 8.17011 190.909 8.37435C191.178 8.57858 194.966 16.6875 194.966 16.6875L192.696 34.4463L192.691 34.451Z" fill="#3A3B41"/>
<path d="M190.677 33.7037C190.635 32.845 191.527 30.7702 192.367 30.5938C194.613 30.125 198.703 30.1064 199.032 35.8527C199.478 43.711 191.494 42.5367 191.471 42.3139C191.452 42.1375 190.821 36.665 190.677 33.7037Z" fill="#DDC399"/>
<path d="M193.705 39.1992C193.738 39.1714 193.849 39.2874 194.086 39.3802C194.318 39.4731 194.708 39.5195 195.112 39.3431C195.924 38.9904 196.551 37.635 196.509 36.2147C196.49 35.4999 196.3 34.8268 196.012 34.2745C195.738 33.7128 195.344 33.3322 194.921 33.2812C194.499 33.2069 194.221 33.4761 194.132 33.7035C194.039 33.931 194.1 34.0842 194.058 34.0981C194.039 34.1213 193.882 33.9774 193.928 33.6478C193.951 33.49 194.035 33.2997 194.211 33.1373C194.392 32.9748 194.661 32.882 194.959 32.8959C195.567 32.9052 196.142 33.4297 196.458 34.0331C196.806 34.6365 197.033 35.3931 197.057 36.1961C197.098 37.7835 196.37 39.3106 195.251 39.7052C194.708 39.8815 194.234 39.7377 193.988 39.5706C193.733 39.3895 193.682 39.2178 193.71 39.1992H193.705Z" fill="#FFA469"/>
<path d="M199.33 63.3974C199.33 63.3974 199.168 62.4273 199.159 60.6496C199.14 58.8765 199.363 56.305 199.92 53.1858C200.198 51.6262 200.509 49.9181 200.834 48.0847C201.15 46.2512 201.433 44.2832 201.54 42.1945C201.637 40.115 201.572 37.901 201.066 35.6915C200.816 34.5868 200.454 33.4868 199.962 32.4285C199.474 31.3656 198.834 30.3583 198.1 29.4068C196.624 27.5037 194.86 25.9209 193.152 24.4217C191.43 22.9317 189.778 21.465 188.316 19.9657C185.364 16.9812 183.029 13.992 181.247 11.3695C179.46 8.74694 178.225 6.49111 177.417 4.9176C177.013 4.12852 176.716 3.50654 176.526 3.07952C176.433 2.87528 176.359 2.71283 176.308 2.59679C176.261 2.48539 176.238 2.42969 176.238 2.42969C176.238 2.42969 176.271 2.48074 176.326 2.5875C176.382 2.70354 176.466 2.86136 176.563 3.06095C176.767 3.47869 177.078 4.09603 177.492 4.87582C178.322 6.44005 179.571 8.67731 181.372 11.2813C183.164 13.8852 185.503 16.8559 188.455 19.8265C189.922 21.3211 191.565 22.7739 193.292 24.2639C195.004 25.7631 196.782 27.3506 198.272 29.2768C199.015 30.2376 199.665 31.2588 200.157 32.3403C200.658 33.4172 201.02 34.5311 201.275 35.6451C201.786 37.8824 201.846 40.115 201.744 42.2084C201.633 44.3064 201.345 46.2837 201.015 48.1172C200.676 49.946 200.361 51.6541 200.073 53.2137C199.497 56.3282 199.251 58.8811 199.247 60.6496C199.238 61.5315 199.265 62.2231 199.298 62.6872C199.312 62.91 199.326 63.0864 199.33 63.2164C199.335 63.337 199.34 63.3974 199.33 63.3974Z" fill="#6C6D75"/>
<path d="M201.854 64.1435C201.854 64.1435 201.691 63.1734 201.682 61.3956C201.663 59.6225 201.886 57.0511 202.443 53.9319C202.722 52.3723 203.033 50.6642 203.358 48.8308C203.673 46.9973 203.956 45.0293 204.063 42.9406C204.161 40.8611 204.096 38.6471 203.59 36.4376C203.339 35.3329 202.977 34.2329 202.485 33.1746C201.998 32.1117 201.357 31.1044 200.624 30.1529C199.148 28.2498 197.384 26.667 195.676 25.1678C193.954 23.6778 192.301 22.2111 190.839 20.7118C187.887 17.7273 185.552 14.7381 183.77 12.1155C181.983 9.49303 180.748 7.2372 179.941 5.66369C179.537 4.87462 179.24 4.25264 179.049 3.82561C178.957 3.62138 178.882 3.45892 178.831 3.34288C178.785 3.23148 178.762 3.17578 178.762 3.17578C178.762 3.17578 178.794 3.22684 178.85 3.3336C178.906 3.44964 178.989 3.60745 179.087 3.80704C179.291 4.22479 179.602 4.84213 180.015 5.62192C180.846 7.18614 182.094 9.4234 183.895 12.0274C185.687 14.6313 188.026 17.6019 190.978 20.5726C192.445 22.0672 194.088 23.52 195.815 25.01C197.528 26.5092 199.306 28.0967 200.795 30.0229C201.538 30.9837 202.188 32.0049 202.68 33.0864C203.181 34.1633 203.543 35.2772 203.799 36.3912C204.309 38.6285 204.37 40.8611 204.267 42.9545C204.156 45.0525 203.868 47.0298 203.539 48.8633C203.2 50.6921 202.884 52.4002 202.596 53.9598C202.021 57.0743 201.775 59.6272 201.77 61.3956C201.761 62.2776 201.789 62.9692 201.821 63.4333C201.835 63.6561 201.849 63.8325 201.854 63.9625C201.858 64.0831 201.863 64.1435 201.854 64.1435Z" fill="#6C6D75"/>
<path d="M83.5903 72.837C81.5155 70.7204 79.1065 68.4414 79.1065 68.4414L77.0735 66.3062C76.9807 66.478 76.911 66.6683 76.8507 66.8539C76.7347 67.2113 76.6186 67.5827 76.3448 67.838C75.8249 68.3207 74.9755 68.1629 74.3489 67.8194C73.0446 67.1 72.1766 65.6471 72.1673 64.1664C72.158 62.7415 72.9378 61.3536 74.1493 60.597C74.2514 60.235 74.4185 59.8729 74.697 59.5155C76.3958 57.3293 80.4062 57.6125 80.4062 57.6125L79.7981 56.7677C79.7981 56.7677 77.0503 55.0781 72.5247 57.956C71.847 58.383 71.0301 58.5872 70.2364 58.4573C69.749 58.3783 69.2756 58.1741 69.0064 57.7239C68.3333 56.6052 68.9553 55.844 71.7588 54.0106C74.5624 52.1771 77.8765 51.3324 79.9931 52.1075C82.1097 52.8827 82.8848 53.319 82.8848 53.319C82.8848 53.319 77.8579 45.3632 77.5609 44.848C76.6975 43.3534 76.6465 41.7242 77.5887 41.0558C78.1921 40.6288 79.2736 40.5359 80.3319 42.2441C81.2463 43.7201 92.5487 57.6867 92.5487 57.6867L97.1857 64.1572L100.142 70.1124L90.1165 75.6312L89.281 75.5523C87.1226 75.3435 85.1035 74.3827 83.5857 72.837H83.5903Z" fill="#DDC399"/>
<path d="M95.5288 64.3996C94.8326 65.1423 93.5886 65.0541 92.6742 64.59C91.7598 64.1258 91.0311 63.3646 90.1492 62.8354C87.522 61.2526 83.9526 61.9117 81.4043 60.2036C81.0469 59.9669 80.6849 59.5631 80.8427 59.1685C80.9866 58.8018 81.4647 58.7322 81.8639 58.7137C85.243 58.5698 88.6221 58.4212 92.0058 58.2773" fill="#DDC399"/>
<path d="M92.0013 58.2837C92.0013 58.2466 91.6067 58.2234 90.9012 58.2188C90.1957 58.2188 89.1699 58.228 87.9073 58.2559C86.5938 58.293 85.0992 58.3394 83.47 58.3858C83.0522 58.3998 82.6252 58.4183 82.1889 58.4323C81.7851 58.4787 81.2327 58.358 80.7268 58.8407C80.4854 59.0914 80.4761 59.5277 80.6293 59.7876C80.7685 60.0615 80.9681 60.2471 81.1863 60.405C81.6087 60.6835 82.045 60.9202 82.5138 61.0966C84.3983 61.816 86.2781 61.8439 87.8656 62.2337C88.6639 62.4194 89.3927 62.6747 90.01 63.0321C90.6273 63.3895 91.1565 63.8398 91.6856 64.2064C92.7207 64.9955 93.8904 65.223 94.6052 65.0141C95.3432 64.8191 95.5568 64.4014 95.5335 64.4014C95.4964 64.355 95.2318 64.6892 94.5588 64.7959C93.8858 64.9073 92.8878 64.6706 91.927 63.8769C91.4303 63.5056 90.9198 63.0321 90.256 62.6237C89.5969 62.2152 88.8171 61.9228 87.9863 61.7185C86.3385 61.2869 84.4586 61.2312 82.718 60.5581C82.2863 60.3957 81.8779 60.1729 81.5158 59.9361C81.1677 59.6948 80.9821 59.3513 81.1492 59.2028C81.307 59.0125 81.7758 58.9893 82.2074 58.9753C82.6438 58.9521 83.0708 58.9336 83.4885 58.9104C85.1177 58.8175 86.6077 58.734 87.9213 58.6597C89.1838 58.5808 90.205 58.5065 90.9058 58.4415C91.6114 58.3766 92.0013 58.3209 91.9966 58.2837H92.0013Z" fill="#FFA469"/>
<path d="M80.5451 57.5868C80.4894 57.6378 80.1598 56.8673 79.0644 56.3707C78.526 56.1293 77.8065 56.0411 77.0453 56.2129C76.2794 56.3753 75.4857 56.7559 74.6874 57.2201C73.8844 57.6843 73.0999 58.1438 72.3016 58.4037C71.5079 58.659 70.7327 58.7379 70.0968 58.594C69.447 58.4548 69.0478 58.0092 68.9132 57.6889C68.7693 57.3593 68.7786 57.1598 68.7925 57.1598C68.8296 57.1505 68.8714 57.3408 69.0431 57.6239C69.2102 57.9024 69.5723 58.2459 70.1525 58.3434C70.7234 58.4455 71.4522 58.3434 72.1902 58.0881C72.9328 57.8281 73.6894 57.3733 74.5017 56.9045C75.3093 56.4357 76.1495 56.0365 76.9803 55.8833C77.8065 55.7162 78.6142 55.8415 79.1805 56.1386C79.756 56.4264 80.1134 56.8209 80.313 57.104C80.5126 57.3965 80.5683 57.5821 80.5497 57.5914L80.5451 57.5868Z" fill="#FFA469"/>
<path d="M77.2423 44.2702C77.2887 44.247 77.66 44.855 78.2541 45.8437C78.9179 46.9391 79.7116 48.248 80.5889 49.6962C81.4847 51.1305 82.297 52.4255 82.9793 53.5116C83.5967 54.4864 83.9773 55.0898 83.9308 55.1223C83.8891 55.1501 83.4342 54.5978 82.7612 53.6602C82.0835 52.7226 81.1969 51.3951 80.2686 49.8912C79.3449 48.3873 78.5558 46.9995 78.0221 45.9737C77.4883 44.9479 77.2005 44.2934 77.2423 44.2702Z" fill="#FFA469"/>
<path d="M79.8456 60.4943C79.8456 60.5222 79.6368 60.5454 79.2701 60.5965C78.922 60.6568 78.3325 60.7636 78.0029 61.2881C77.8405 61.5387 77.8358 61.8729 78.0029 62.2071C78.1514 62.5367 78.4299 62.843 78.7177 63.1958C78.9962 63.5393 79.3211 63.9895 79.3026 64.565C79.2794 65.122 78.9498 65.6373 78.4717 65.9436C77.9843 66.2592 77.3856 66.2964 76.8796 66.1664C76.3691 66.0364 75.9281 65.7812 75.5986 65.4145C74.9998 64.6997 74.6331 63.9756 74.3592 63.3489C74.0947 62.7177 73.9647 62.17 73.9508 61.7847C73.9369 61.3948 74.0204 61.1906 74.0343 61.1952C74.0668 61.1999 74.0343 61.4087 74.0947 61.7708C74.1504 62.1328 74.3175 62.6434 74.6006 63.2422C74.893 63.8317 75.2876 64.5418 75.8538 65.1824C76.3969 65.7626 77.4784 66.1246 78.2675 65.628C78.6527 65.382 78.9127 64.9596 78.9359 64.5465C78.9544 64.1287 78.7131 63.7435 78.4439 63.4046C78.1747 63.0612 77.8822 62.727 77.7105 62.3278C77.5248 61.9425 77.5434 61.4552 77.7755 61.1488C78.2303 60.5222 78.8941 60.4758 79.2515 60.4526C79.6368 60.4386 79.841 60.4711 79.8456 60.4943Z" fill="#FFA469"/>
<path d="M76.8666 65.8362C76.8666 65.8362 77.029 65.9662 77.1033 66.3143C77.1729 66.6485 77.1311 67.2194 76.6809 67.7022C76.24 68.1756 75.4184 68.4448 74.5875 68.2313C73.7567 68.0271 73.0001 67.4097 72.4988 66.6067C71.9929 65.7945 71.7979 64.8708 71.8583 64.0539C71.914 63.2323 72.2296 62.536 72.5777 62.0394C72.9305 61.5335 73.3157 61.2132 73.5989 61.0275C73.8867 60.8419 74.063 60.7815 74.0723 60.8001C74.1187 60.8558 73.4178 61.1993 72.7959 62.1833C72.4942 62.6707 72.2342 63.3251 72.1971 64.0771C72.1553 64.8244 72.3503 65.6691 72.8098 66.4118C73.2693 67.1498 73.9516 67.7115 74.6664 67.9018C75.3766 68.1014 76.0914 67.8971 76.486 67.5165C76.8851 67.1359 76.9733 66.6392 76.9501 66.3329C76.9269 66.0173 76.8294 65.8502 76.8573 65.8362H76.8666Z" fill="#FFA469"/>
<path d="M85.6963 67.824C85.6777 67.7961 85.9284 67.5641 86.4668 67.3691C86.9959 67.1742 87.85 67.0535 88.7597 67.3598L88.537 67.6012C88.3652 67.2438 88.1981 66.8493 88.0542 66.4269C87.2419 64.0875 87.5483 62.0545 87.6365 62.0823C87.7525 62.0823 87.6226 64.055 88.407 66.3062C88.5462 66.7146 88.704 67.0999 88.8619 67.448L89.0382 67.8333L88.6437 67.6894C87.8314 67.3923 87.047 67.4527 86.5318 67.578C86.0073 67.7033 85.7195 67.8611 85.6963 67.8194V67.824Z" fill="#FFA469"/>
<path d="M77.1028 54.3087C77.2003 54.2994 77.2467 55.0606 76.7315 55.794C76.2209 56.5274 75.4875 56.7455 75.4597 56.6527C75.4133 56.5552 75.9842 56.2257 76.4251 55.5805C76.88 54.9492 76.9961 54.2994 77.1028 54.3133V54.3087Z" fill="#FFA469"/>
<path d="M151.036 100.13C151.036 100.13 121.928 114.278 114.859 113.754C107.975 113.238 95.3177 91.7476 92.1243 85.7646C89.4322 80.7238 87.4688 76.3606 87.4688 76.3606L98.8454 67.082L100.702 68.753L118.707 90.1323C120.791 90.1323 138.958 78.3287 138.958 78.3287C138.958 78.3287 149.346 68.9433 153.296 68.3492C157.246 67.7551 154.851 76.6623 154.851 76.6623L151.036 100.135V100.13Z" fill="#FFA469"/>
<path d="M213.452 72.3835L196.292 64.1957L196.733 63.9079L192.945 57.5117L176.714 69.515L168.767 59.8789L165.031 64.7712L153.287 68.3499L150.502 78.9142L146.538 88.3089C142.811 97.1465 143.141 106.917 145.898 116.103C145.916 116.163 145.898 116.103 145.916 116.163C148.558 124.843 152.586 126.324 151.124 135.821C150.79 137.988 149.221 151.718 149.221 151.718H212.621L205.974 131.662L213.447 72.3881L213.452 72.3835Z" fill="#FFA469"/>
<g clip-path="url(#clip1_5042_90015)">
<path d="M184.031 88.3225L182.872 89.297L182.493 91.6955L180.519 91.3833L181.873 82.8199L183.847 83.1321L183.318 86.4755L186.679 83.5801L189.013 83.9491L185.581 86.9718L187.808 92.5314L185.497 92.1659L184.027 88.3173L184.031 88.3225Z" fill="#46474E"/>
<path d="M194.008 92.9216C193.749 93.0421 193.477 93.1328 193.195 93.1943C192.932 93.2542 192.661 93.2804 192.393 93.2842C191.742 93.2919 191.1 93.1581 190.511 92.8851C190.141 92.7205 189.803 92.4964 189.511 92.2195C189.222 91.9478 189.003 91.6134 188.858 91.2446C188.706 90.8377 188.67 90.3983 188.746 89.9722L189.251 86.7773C189.31 86.3484 189.476 85.941 189.738 85.595C189.981 85.2829 190.294 85.0234 190.646 84.8391C191.007 84.6518 191.4 84.5294 191.803 84.4826C192.213 84.4274 192.631 84.4337 193.045 84.4991C193.558 84.5801 194.058 84.7377 194.531 84.9554C194.979 85.1508 195.379 85.4493 195.698 85.8226L194.498 87.2011C194.277 86.9356 193.993 86.7201 193.674 86.5819C193.394 86.4592 193.104 86.3718 192.807 86.3249C192.641 86.2986 192.47 86.2992 192.3 86.3231C192.126 86.3463 191.961 86.3987 191.805 86.4801C191.644 86.5654 191.505 86.6864 191.399 86.8356C191.273 87.0186 191.195 87.223 191.169 87.4449L190.786 89.8659C190.743 90.0805 190.754 90.3036 190.812 90.5158C190.864 90.6854 190.949 90.8465 191.071 90.9765C191.185 91.1006 191.322 91.2006 191.476 91.2757C191.625 91.3501 191.787 91.4034 191.954 91.4297C192.111 91.4546 192.272 91.457 192.431 91.4406C192.605 91.4219 192.775 91.3658 192.922 91.2784L193.105 90.122L191.927 89.9357L192.19 88.2707L195.342 88.7691L194.762 92.4366C194.541 92.6414 194.284 92.8084 194.011 92.9313L194.008 92.9216Z" fill="#46474E"/>
<path d="M194.021 96.4255L180.043 94.2148L179.746 96.0942L193.724 98.3049L194.021 96.4255Z" fill="#46474E"/>
</g>
<path d="M148.721 80.4141C148.721 80.4141 148.749 80.5162 148.777 80.7204C148.809 80.9432 148.847 81.2356 148.898 81.6023C148.995 82.396 149.134 83.5054 149.306 84.8747V84.8932V84.9118C148.429 87.7292 147.236 91.7953 146.377 96.3998C145.964 98.6185 145.672 100.754 145.5 102.698C145.314 104.648 145.31 106.407 145.338 107.888C145.389 109.364 145.514 110.557 145.63 111.374C145.686 111.764 145.737 112.079 145.769 112.316C145.797 112.534 145.811 112.645 145.802 112.65C145.792 112.65 145.765 112.539 145.723 112.325C145.676 112.088 145.616 111.777 145.537 111.388C145.393 110.571 145.245 109.378 145.17 107.892C145.119 106.407 145.105 104.634 145.282 102.68C145.444 100.721 145.727 98.5814 146.145 96.3534C147.009 91.7303 148.234 87.6689 149.153 84.8561V84.8932C149.009 83.5239 148.898 82.41 148.814 81.6116C148.782 81.2449 148.754 80.9525 148.735 80.725C148.721 80.5208 148.717 80.4141 148.721 80.4141Z" fill="#3A3B41"/>
<path d="M174.448 86.633C173.756 93.4608 173.145 101.753 172.5 112.215C173.145 101.757 173.969 93.4748 174.619 86.6423C174.94 83.2353 175.204 80.4736 175.385 78.5519C175.469 77.605 175.534 76.867 175.58 76.3518C175.603 76.1105 175.617 75.9201 175.626 75.7809C175.636 75.6509 175.64 75.5859 175.636 75.5859C175.631 75.5859 175.622 75.6509 175.603 75.7809C175.585 75.9201 175.561 76.1105 175.534 76.3518C175.476 76.8483 175.4 77.5473 175.303 78.4447L175.292 78.5473C175.088 80.4689 174.8 83.2307 174.448 86.633Z" fill="#46474E"/>
<path d="M176.439 70.0093C176.439 70.0093 176.291 70.1903 176.026 70.5153C175.757 70.8402 175.399 71.3415 174.972 71.982C174.123 73.2677 173.023 75.1337 171.853 77.3292L171.756 77.5102L171.649 77.3384C171.194 76.6097 170.739 75.816 170.284 74.9944C168.78 72.228 167.546 69.6658 166.58 67.851C166.102 66.9412 165.698 66.2125 165.42 65.7112C165.29 65.4791 165.183 65.2888 165.095 65.131C165.025 64.9964 164.988 64.9267 164.998 64.9221C165.007 64.9175 165.053 64.9824 165.137 65.1078C165.234 65.2563 165.355 65.442 165.499 65.6648C165.801 66.1521 166.232 66.8716 166.729 67.7721C167.736 69.573 168.994 72.1259 170.493 74.8784C170.943 75.7 171.398 76.4844 171.844 77.2131L171.64 77.2224C172.823 75.0269 173.951 73.1703 174.842 71.8985C175.288 71.2672 175.669 70.7752 175.956 70.4642C176.091 70.3017 176.221 70.195 176.3 70.1161C176.383 70.0418 176.425 70.0047 176.43 70.0093H176.439Z" fill="#3A3B41"/>
<path d="M196.736 63.9104C196.736 63.9104 196.671 63.9939 196.527 64.1378C196.365 64.2956 196.156 64.5045 195.896 64.7598C195.339 65.289 194.527 66.0502 193.506 66.9692C191.463 68.8073 188.604 71.2999 185.369 73.9641C184.394 74.7671 183.443 75.5377 182.519 76.2571C181.6 76.9766 180.723 77.6542 179.85 78.2251L179.743 78.2948L179.697 78.1741C179.233 77.0183 179.033 75.9043 178.796 74.9342C178.578 73.9595 178.36 73.1147 178.137 72.4324C177.91 71.7501 177.682 71.2349 177.497 70.896C177.311 70.5572 177.19 70.3855 177.204 70.3808C177.209 70.3808 177.241 70.4179 177.302 70.4969C177.357 70.5804 177.46 70.6918 177.552 70.8635C177.761 71.1931 178.012 71.7083 178.258 72.3906C178.504 73.073 178.736 73.9177 178.973 74.8925C179.223 75.8579 179.437 76.9719 179.896 78.0906L179.739 78.0441C180.588 77.4825 181.461 76.7955 182.375 76.0761C183.289 75.3566 184.241 74.5815 185.216 73.7785C188.446 71.1188 191.324 68.6448 193.394 66.8393C194.406 65.9481 195.237 65.2147 195.831 64.6902C196.105 64.4488 196.323 64.2539 196.49 64.1053C196.643 63.9707 196.727 63.9057 196.732 63.9104H196.736Z" fill="#3A3B41"/>
<path d="M212.683 73.3838C212.683 73.3838 212.474 73.5602 212.075 73.8341C211.87 73.9687 211.629 74.1404 211.36 74.3586C211.091 74.5767 210.77 74.8042 210.45 75.1012C210.121 75.389 209.768 75.7046 209.415 76.076C209.044 76.4287 208.696 76.8465 208.32 77.2782C207.596 78.1693 206.867 79.1998 206.226 80.3602C205.6 81.5252 205.122 82.6996 204.769 83.7903C204.611 84.3427 204.449 84.8626 204.351 85.3639C204.23 85.8605 204.156 86.3293 204.091 86.761C204.012 87.188 203.994 87.5825 203.961 87.926C203.919 88.2695 203.91 88.5666 203.905 88.8126C203.892 89.2999 203.873 89.5692 203.854 89.5692C203.836 89.5692 203.822 89.3 203.808 88.8079C203.799 88.5619 203.794 88.2649 203.822 87.9167C203.845 87.5686 203.85 87.1694 203.919 86.7378C203.97 86.3015 204.035 85.8234 204.151 85.3221C204.24 84.8115 204.397 84.2824 204.551 83.7254C204.899 82.616 205.372 81.4278 206.008 80.2441C206.658 79.0698 207.401 78.0254 208.143 77.1342C208.533 76.7026 208.891 76.2802 209.271 75.9321C209.633 75.5607 210 75.2498 210.334 74.9713C210.664 74.6788 210.993 74.456 211.272 74.2518C211.55 74.0429 211.801 73.8805 212.014 73.7551C212.432 73.4999 212.669 73.3699 212.678 73.3838H212.683Z" fill="#3A3B41"/>
<path d="M229.129 110.364C229.129 110.364 225.379 93.9974 223.968 87.7683C221.29 75.9925 213.459 72.3906 213.459 72.3906L204.032 98.0124L209.866 124.771L183.976 121.044L179.594 119.939L176.438 134.964L184.644 138.302C184.644 138.302 213.881 149.307 222.51 148.263C231.139 147.218 232.875 137.475 232.912 133.46C232.972 126.582 229.129 110.359 229.129 110.359V110.364Z" fill="#FFA469"/>
<path d="M162.582 112.785L151.688 90.7696C150.95 89.275 149.414 88.3281 147.734 88.3281H120.362C119.345 88.3281 118.696 89.405 119.178 90.2915L137.708 124.593C138.228 125.554 139.239 126.153 140.339 126.153H168.732L162.587 112.785H162.582Z" fill="#D7D7D7"/>
<path d="M136.444 95.773C136.1 96.4924 136.435 97.119 136.992 97.5136C137.549 97.9081 138.235 97.8292 138.602 97.3929C138.844 97.1051 138.955 96.6363 138.774 96.1954C138.598 95.7544 137.799 95.0489 137.224 95.2113C137.224 95.2113 136.616 95.4109 136.444 95.773Z" fill="#F3F0F0"/>
<path d="M177.421 119.337C177.421 119.337 174.65 115.341 173.512 114.092C172.375 112.844 165.575 108.471 165.575 108.471C165.575 108.471 162.298 104.066 161.792 104.066C161.286 104.066 159.694 104.35 160.121 106.397C160.534 108.369 161.291 111.02 161.918 112.305L146.461 111.795C145.547 111.813 144.224 112.045 143.862 112.927C143.421 114.009 144.484 114.751 145.166 115.09C146.108 115.559 148.861 116.316 150.801 116.822C150.773 116.873 149.52 119.263 151.247 120.493C152.983 121.728 153.103 121.964 153.103 121.964C153.103 121.964 153.187 124.438 153.943 125.436C154.7 126.434 162.888 130.612 162.888 130.612C162.888 130.612 168.119 132.144 170.765 132.018C173.41 131.893 176.13 133.383 176.432 133.462C176.734 133.541 179.31 121.264 179.31 121.264L177.421 119.337Z" fill="#DDC399"/>
<path d="M160.528 112.372C160.528 112.516 162.362 112.59 164.608 112.827C166.855 113.073 168.711 113.185 168.721 113.027C168.73 112.901 166.929 112.567 164.655 112.317C162.38 112.075 160.514 112.233 160.523 112.372H160.528Z" fill="#FFA469"/>
<path d="M162.462 118.766C162.508 118.612 159.858 117.893 156.525 117.512C154.864 117.303 153.36 117.155 152.273 117.034C151.187 116.918 150.519 116.83 150.5 116.9C150.482 116.965 151.136 117.183 152.218 117.387C153.299 117.601 154.803 117.805 156.46 118.014C159.779 118.39 162.425 118.877 162.462 118.761V118.766Z" fill="#FFA469"/>
<path d="M162.463 123.482C162.463 123.333 160.346 123.268 157.789 122.827C155.227 122.4 153.212 121.76 153.161 121.903C153.11 122.024 155.087 122.892 157.705 123.333C160.318 123.783 162.477 123.616 162.468 123.486L162.463 123.482Z" fill="#FFA469"/>
<path d="M161.59 128.762C161.729 128.786 161.943 128.219 162.063 127.495C162.184 126.776 162.165 126.172 162.026 126.149C161.887 126.126 161.673 126.692 161.553 127.416C161.432 128.136 161.451 128.739 161.59 128.762Z" fill="#FFA469"/>
<path d="M162.893 122.433C163.037 122.423 163.116 121.954 163.367 121.458C163.603 120.957 163.928 120.608 163.849 120.488C163.784 120.367 163.218 120.599 162.907 121.235C162.596 121.871 162.763 122.456 162.898 122.433H162.893Z" fill="#FFA469"/>
<path d="M164.548 116.108C164.692 116.122 164.841 115.821 165.017 115.482C165.189 115.138 165.342 114.837 165.245 114.734C165.152 114.632 164.776 114.818 164.558 115.254C164.339 115.686 164.409 116.099 164.548 116.108Z" fill="#FFA469"/>
<path d="M209.864 146.196C209.864 146.196 209.808 146.187 209.697 146.164C209.58 146.136 209.418 146.103 209.209 146.057C208.777 145.96 208.142 145.816 207.325 145.588C205.686 145.157 203.314 144.432 200.348 143.472C194.412 141.55 186.08 138.635 176.398 135.066L176.305 135.033L176.323 134.936C177.298 130.28 178.366 125.198 179.475 119.911L179.503 119.785L179.623 119.818C180.501 120.036 181.438 120.273 182.385 120.514C182.928 120.653 183.476 120.788 184.01 120.923H183.996C193.469 122.208 202.302 123.411 209.799 124.427L209.683 124.552C208.063 116.982 206.712 110.683 205.765 106.269C205.301 104.074 204.939 102.342 204.684 101.154C204.563 100.569 204.47 100.119 204.41 99.8079C204.349 99.5016 204.326 99.3438 204.326 99.3438C204.326 99.3438 204.373 99.4969 204.442 99.8033C204.512 100.114 204.614 100.564 204.749 101.145C205.013 102.328 205.398 104.055 205.886 106.246C206.851 110.655 208.23 116.949 209.887 124.511L209.919 124.655L209.771 124.636C202.275 123.629 193.437 122.436 183.963 121.159H183.959H183.954C183.42 121.025 182.877 120.89 182.33 120.751C181.383 120.514 180.445 120.277 179.568 120.055L179.716 119.962C178.602 125.249 177.535 130.331 176.551 134.982L176.481 134.852C186.159 138.44 194.477 141.378 200.399 143.342C203.361 144.321 205.723 145.064 207.352 145.519C208.165 145.76 208.796 145.913 209.223 146.025C209.432 146.08 209.59 146.122 209.706 146.15C209.813 146.182 209.868 146.201 209.868 146.201L209.864 146.196Z" fill="#3A3B41"/>
<path d="M216.864 129.675C216.827 129.694 216.581 129.253 216.084 128.608C215.592 127.963 214.826 127.136 213.828 126.408C212.826 125.684 211.8 125.21 211.038 124.941C210.273 124.672 209.776 124.57 209.785 124.528C209.785 124.509 209.915 124.523 210.143 124.556C210.37 124.588 210.7 124.658 211.094 124.778C211.888 125.011 212.946 125.47 213.977 126.213C214.998 126.96 215.764 127.828 216.228 128.51C216.46 128.849 216.632 129.137 216.734 129.346C216.836 129.55 216.882 129.671 216.868 129.675H216.864Z" fill="#3A3B41"/>
<path fill-rule="evenodd" clip-rule="evenodd" d="M50.5 117.715C45.256 117.715 41 121.971 41 127.215C41 132.459 45.256 136.715 50.5 136.715C55.744 136.715 60 132.459 60 127.215C60 121.971 55.744 117.715 50.5 117.715ZM50.4984 120.566C52.0754 120.566 53.3484 121.839 53.3484 123.416C53.3484 124.993 52.0754 126.266 50.4984 126.266C48.9214 126.266 47.6484 124.993 47.6484 123.416C47.6484 121.839 48.9214 120.566 50.4984 120.566ZM50.4969 134.055C48.1219 134.055 46.0224 132.839 44.7969 130.996C44.8254 129.106 48.5969 128.07 50.4969 128.07C52.3874 128.07 56.1684 129.106 56.1969 130.996C54.9714 132.839 52.8719 134.055 50.4969 134.055Z" fill="#D7D7D7"/>
<path d="M70.2539 125.668H66.628V120.655H70.2539V121.625H67.914V122.49H70.0856V123.459H67.914V124.698H70.2539V125.668ZM75.1591 125.668H73.9471V122.732H72.9471C72.9404 122.901 72.9348 123.032 72.9303 123.126C72.9281 123.218 72.9247 123.326 72.9202 123.449C72.9045 123.811 72.8742 124.105 72.8293 124.331C72.7844 124.558 72.7272 124.743 72.6576 124.887C72.5903 125.033 72.5173 125.148 72.4388 125.234C72.3625 125.319 72.285 125.393 72.2065 125.456C72.1167 125.528 71.9989 125.585 71.853 125.628C71.7093 125.67 71.5702 125.692 71.4355 125.692C71.33 125.692 71.2234 125.687 71.1157 125.678C71.0079 125.671 70.9439 125.668 70.9237 125.668V124.698H70.9608C70.9698 124.698 70.9855 124.699 71.0079 124.702C71.0304 124.704 71.0528 124.705 71.0752 124.705C71.1336 124.705 71.1931 124.699 71.2537 124.688C71.3165 124.677 71.3682 124.652 71.4086 124.614C71.5589 124.471 71.6588 124.291 71.7082 124.076C71.7598 123.858 71.7968 123.537 71.8193 123.113C71.8283 122.956 71.8372 122.776 71.8462 122.574C71.8552 122.372 71.8631 122.143 71.8698 121.887H75.1591V125.668ZM80.2662 125.668H79.0913V123.355L77.4483 125.668H76.445V121.887H77.62V123.958L79.1418 121.887H80.2662V125.668ZM84.7236 124.597C84.7236 124.813 84.6709 124.998 84.5654 125.153C84.4599 125.305 84.3174 125.428 84.1378 125.52C83.956 125.612 83.754 125.677 83.5318 125.715C83.3096 125.753 83.0728 125.772 82.8214 125.772C82.4915 125.772 82.1986 125.744 81.9427 125.688C81.6891 125.632 81.4411 125.562 81.1987 125.479V124.56H81.3334C81.5107 124.659 81.7093 124.745 81.9293 124.82C82.1492 124.891 82.3737 124.927 82.6026 124.927C82.6879 124.927 82.7889 124.922 82.9056 124.91C83.0246 124.899 83.1188 124.88 83.1884 124.853C83.2827 124.817 83.3534 124.776 83.4005 124.729C83.4499 124.682 83.4746 124.606 83.4746 124.503C83.4746 124.407 83.4521 124.331 83.4072 124.278C83.3646 124.224 83.3051 124.184 83.2288 124.16C83.1637 124.137 83.0807 124.123 82.9797 124.116C82.8809 124.109 82.7552 124.106 82.6026 124.106H82.0235V123.338H82.4881C82.5779 123.338 82.6845 123.337 82.808 123.335C82.9337 123.333 83.0324 123.322 83.1042 123.305C83.2097 123.28 83.2849 123.241 83.3298 123.187C83.3769 123.133 83.4005 123.063 83.4005 122.978C83.4005 122.908 83.3769 122.85 83.3298 122.803C83.2827 122.756 83.221 122.719 83.1446 122.692C83.0796 122.669 83.0032 122.653 82.9157 122.641C82.8282 122.63 82.7362 122.624 82.6396 122.624C82.4803 122.624 82.294 122.653 82.0808 122.709C81.8698 122.765 81.6824 122.834 81.5185 122.917H81.3872V122.012C81.5264 121.969 81.7329 121.92 82.0067 121.864C82.2828 121.807 82.5644 121.779 82.8517 121.779C83.1031 121.779 83.3321 121.798 83.5386 121.837C83.745 121.875 83.928 121.932 84.0873 122.008C84.2557 122.091 84.3915 122.199 84.4947 122.332C84.5979 122.464 84.6496 122.629 84.6496 122.826C84.6496 123.028 84.58 123.209 84.4408 123.369C84.3039 123.528 84.1389 123.634 83.9459 123.688V123.719C84.1681 123.777 84.3533 123.879 84.5014 124.025C84.6496 124.169 84.7236 124.359 84.7236 124.597ZM88.033 124.682V123.894C87.8691 123.907 87.6918 123.926 87.501 123.951C87.3103 123.973 87.1655 124 87.0667 124.032C86.9455 124.07 86.8524 124.126 86.7873 124.2C86.7244 124.272 86.693 124.367 86.693 124.486C86.693 124.565 86.6998 124.629 86.7132 124.678C86.7267 124.728 86.7604 124.775 86.8142 124.82C86.8659 124.864 86.9276 124.898 86.9994 124.921C87.0712 124.941 87.1834 124.951 87.3361 124.951C87.4573 124.951 87.5796 124.926 87.703 124.877C87.8287 124.827 87.9387 124.762 88.033 124.682ZM88.033 125.267C87.9679 125.317 87.8871 125.376 87.7906 125.446C87.6941 125.515 87.6032 125.57 87.5179 125.611C87.3989 125.665 87.2755 125.704 87.1475 125.729C87.0196 125.756 86.8793 125.769 86.7267 125.769C86.3676 125.769 86.0668 125.658 85.8244 125.436C85.582 125.213 85.4608 124.93 85.4608 124.584C85.4608 124.308 85.5225 124.082 85.646 123.907C85.7694 123.732 85.9445 123.594 86.1712 123.493C86.3956 123.392 86.6739 123.32 87.0061 123.278C87.3383 123.235 87.6828 123.204 88.0397 123.183V123.163C88.0397 122.954 87.9544 122.811 87.7838 122.732C87.6133 122.651 87.3619 122.611 87.0297 122.611C86.8299 122.611 86.6167 122.647 86.39 122.719C86.1633 122.788 86.0006 122.842 85.9018 122.88H85.7907V121.968C85.9187 121.934 86.1263 121.895 86.4136 121.85C86.7031 121.803 86.9927 121.779 87.2822 121.779C87.9713 121.779 88.4684 121.886 88.7737 122.099C89.0811 122.31 89.2349 122.642 89.2349 123.096V125.668H88.033V125.267ZM94.2781 124.527C94.2781 124.708 94.2411 124.87 94.167 125.011C94.0952 125.153 93.9987 125.271 93.8775 125.365C93.7248 125.484 93.5632 125.565 93.3926 125.607C93.2243 125.648 93.0234 125.668 92.79 125.668H90.4872V121.887H92.6924C92.9684 121.887 93.1716 121.896 93.3017 121.914C93.4319 121.932 93.5599 121.976 93.6856 122.045C93.818 122.117 93.9167 122.213 93.9818 122.332C94.0492 122.451 94.0828 122.592 94.0828 122.756C94.0828 122.942 94.029 123.106 93.9212 123.247C93.8157 123.386 93.6878 123.493 93.5374 123.567V123.604C93.7462 123.656 93.9212 123.76 94.0626 123.917C94.2063 124.072 94.2781 124.275 94.2781 124.527ZM92.8607 123.025C92.8607 122.886 92.8181 122.787 92.7328 122.729C92.6497 122.67 92.5151 122.641 92.3288 122.641H91.6891V123.395H92.349C92.5128 123.395 92.6385 123.363 92.726 123.298C92.8158 123.23 92.8607 123.14 92.8607 123.025ZM93.029 124.49C93.029 124.326 92.9819 124.211 92.8876 124.146C92.7956 124.079 92.6587 124.045 92.4769 124.045H91.6891V124.91H92.4971C92.6632 124.91 92.7934 124.873 92.8876 124.799C92.9819 124.723 93.029 124.62 93.029 124.49ZM99.0217 124.001H96.2475C96.2654 124.298 96.3777 124.524 96.5842 124.682C96.7929 124.839 97.0993 124.917 97.5033 124.917C97.7591 124.917 98.0072 124.871 98.2473 124.779C98.4875 124.687 98.6771 124.588 98.8163 124.483H98.951V125.456C98.6771 125.566 98.419 125.646 98.1766 125.695C97.9342 125.744 97.666 125.769 97.372 125.769C96.6133 125.769 96.032 125.598 95.628 125.257C95.224 124.916 95.022 124.43 95.022 123.799C95.022 123.175 95.2128 122.682 95.5943 122.318C95.9781 121.952 96.5034 121.769 97.17 121.769C97.785 121.769 98.2473 121.925 98.5571 122.237C98.8668 122.547 99.0217 122.994 99.0217 123.577V124.001ZM97.8164 123.291C97.8096 123.037 97.7468 122.847 97.6278 122.719C97.5089 122.591 97.3237 122.527 97.0723 122.527C96.8389 122.527 96.647 122.587 96.4966 122.709C96.3462 122.83 96.2621 123.024 96.2441 123.291H97.8164ZM103.099 122.709H101.893V125.668H100.681V122.709H99.476V121.887H103.099V122.709ZM106.132 124.682V123.894C105.968 123.907 105.791 123.926 105.6 123.951C105.409 123.973 105.264 124 105.166 124.032C105.044 124.07 104.951 124.126 104.886 124.2C104.823 124.272 104.792 124.367 104.792 124.486C104.792 124.565 104.799 124.629 104.812 124.678C104.826 124.728 104.859 124.775 104.913 124.82C104.965 124.864 105.026 124.898 105.098 124.921C105.17 124.941 105.282 124.951 105.435 124.951C105.556 124.951 105.679 124.926 105.802 124.877C105.928 124.827 106.038 124.762 106.132 124.682ZM106.132 125.267C106.067 125.317 105.986 125.376 105.889 125.446C105.793 125.515 105.702 125.57 105.617 125.611C105.498 125.665 105.374 125.704 105.246 125.729C105.119 125.756 104.978 125.769 104.826 125.769C104.466 125.769 104.166 125.658 103.923 125.436C103.681 125.213 103.56 124.93 103.56 124.584C103.56 124.308 103.621 124.082 103.745 123.907C103.868 123.732 104.043 123.594 104.27 123.493C104.495 123.392 104.773 123.32 105.105 123.278C105.437 123.235 105.782 123.204 106.139 123.183V123.163C106.139 122.954 106.053 122.811 105.883 122.732C105.712 122.651 105.461 122.611 105.129 122.611C104.929 122.611 104.716 122.647 104.489 122.719C104.262 122.788 104.1 122.842 104.001 122.88H103.89V121.968C104.018 121.934 104.225 121.895 104.512 121.85C104.802 121.803 105.092 121.779 105.381 121.779C106.07 121.779 106.567 121.886 106.873 122.099C107.18 122.31 107.334 122.642 107.334 123.096V125.668H106.132V125.267ZM69.3752 130.463C69.5323 130.62 69.6513 130.811 69.7321 131.035C69.8129 131.257 69.8533 131.519 69.8533 131.82C69.8533 132.381 69.6849 132.846 69.3483 133.217C69.0116 133.587 68.5975 133.772 68.1059 133.772C67.8635 133.772 67.6402 133.732 67.436 133.651C67.2317 133.568 67.0578 133.441 66.9141 133.271C66.7346 133.057 66.5999 132.789 66.5101 132.466C66.4226 132.141 66.3788 131.744 66.3788 131.278C66.3788 131.109 66.3867 130.939 66.4024 130.766C66.4181 130.591 66.454 130.382 66.5101 130.14C66.555 129.931 66.6201 129.73 66.7054 129.537C66.7929 129.344 66.8962 129.188 67.0151 129.069C67.1767 128.905 67.3888 128.774 67.6514 128.675C67.9163 128.574 68.2664 128.505 68.7019 128.466C68.8792 128.451 69.0441 128.438 69.1968 128.429C69.3494 128.418 69.4863 128.408 69.6075 128.399V128.982C69.4594 128.99 69.3123 128.999 69.1665 129.008C69.0228 129.017 68.8792 129.029 68.7355 129.042C68.4482 129.067 68.1879 129.114 67.9544 129.184C67.7233 129.253 67.5538 129.343 67.4461 129.453C67.3271 129.572 67.2373 129.728 67.1767 129.921C67.1184 130.112 67.0802 130.293 67.0623 130.466C67.2306 130.345 67.4146 130.244 67.6144 130.163C67.8164 130.08 68.0308 130.039 68.2574 130.039C68.4684 130.039 68.6716 130.073 68.8668 130.143C69.0621 130.213 69.2315 130.319 69.3752 130.463ZM69.2102 131.857C69.2102 131.441 69.1103 131.132 68.9106 130.927C68.7108 130.721 68.4471 130.618 68.1194 130.618C67.9241 130.618 67.7367 130.649 67.5572 130.712C67.3776 130.773 67.207 130.855 67.0454 130.958C67.0409 131.014 67.0365 131.08 67.032 131.156C67.0297 131.23 67.0286 131.299 67.0286 131.362C67.0286 131.752 67.0611 132.069 67.1262 132.311C67.1913 132.554 67.2833 132.747 67.4023 132.89C67.5055 133.011 67.6178 133.098 67.739 133.149C67.8602 133.199 67.9904 133.224 68.1295 133.224C68.4684 133.224 68.7333 133.101 68.9241 132.857C69.1148 132.612 69.2102 132.279 69.2102 131.857ZM74.1524 133.668H73.5262V130.843L71.5567 133.668H70.9843V129.907H71.6106V132.692L73.5599 129.907H74.1524V133.668ZM78.1553 132.614C78.1553 132.825 78.1059 133.004 78.0072 133.149C77.9107 133.295 77.7861 133.413 77.6335 133.503C77.4808 133.591 77.3125 133.655 77.1285 133.695C76.9444 133.735 76.7604 133.756 76.5763 133.756C76.316 133.756 76.0679 133.731 75.8323 133.681C75.5966 133.632 75.3643 133.556 75.1354 133.452V132.759H75.1791C75.343 132.903 75.5517 133.014 75.8053 133.092C76.059 133.171 76.3047 133.21 76.5427 133.21C76.6549 133.21 76.7705 133.2 76.8894 133.18C77.0084 133.157 77.1116 133.123 77.1992 133.075C77.2934 133.022 77.3686 132.958 77.4247 132.884C77.4808 132.807 77.5089 132.704 77.5089 132.574C77.5089 132.439 77.4808 132.331 77.4247 132.251C77.3709 132.17 77.2968 132.109 77.2025 132.069C77.1105 132.028 76.9994 132.004 76.8692 131.995C76.739 131.986 76.6201 131.981 76.5124 131.981H75.9636V131.436H76.344C76.4338 131.436 76.5505 131.432 76.6942 131.426C76.84 131.419 76.9579 131.401 77.0477 131.372C77.1644 131.334 77.2564 131.28 77.3237 131.21C77.3933 131.141 77.4281 131.03 77.4281 130.877C77.4281 130.771 77.4012 130.685 77.3473 130.618C77.2934 130.548 77.2261 130.494 77.1453 130.456C77.0623 130.418 76.9691 130.392 76.8659 130.379C76.7649 130.365 76.6751 130.358 76.5965 130.358C76.3676 130.358 76.142 130.39 75.9198 130.453C75.6999 130.513 75.5147 130.602 75.3643 130.719H75.3205V130.022C75.5068 129.961 75.7066 129.912 75.9198 129.874C76.133 129.836 76.3463 129.816 76.5595 129.816C76.7346 129.816 76.9085 129.832 77.0813 129.864C77.2564 129.895 77.4191 129.949 77.5695 130.025C77.7176 130.101 77.8388 130.206 77.9331 130.338C78.0274 130.468 78.0745 130.63 78.0745 130.823C78.0745 131.021 78.0128 131.195 77.8893 131.345C77.7681 131.493 77.6043 131.6 77.3978 131.665V131.688C77.629 131.744 77.813 131.85 77.9499 132.005C78.0869 132.157 78.1553 132.361 78.1553 132.614ZM82.441 133.668H81.8081V131.975H79.9261V133.668H79.2931V129.907H79.9261V131.429H81.8081V129.907H82.441V133.668ZM86.9758 131.853H84.205C84.205 132.084 84.2398 132.286 84.3094 132.459C84.379 132.63 84.4744 132.77 84.5956 132.88C84.7123 132.988 84.8503 133.069 85.0097 133.123C85.1713 133.176 85.3486 133.203 85.5416 133.203C85.7975 133.203 86.0545 133.153 86.3126 133.052C86.5729 132.949 86.7581 132.848 86.8681 132.749H86.9018V133.439C86.6885 133.529 86.4708 133.604 86.2486 133.665C86.0264 133.725 85.793 133.756 85.5483 133.756C84.9244 133.756 84.4373 133.587 84.0872 133.25C83.7371 132.912 83.562 132.431 83.562 131.81C83.562 131.195 83.7292 130.706 84.0636 130.345C84.4003 129.984 84.8425 129.803 85.3901 129.803C85.8974 129.803 86.2879 129.951 86.5617 130.247C86.8378 130.544 86.9758 130.964 86.9758 131.51V131.853ZM86.3597 131.369C86.3575 131.036 86.2733 130.779 86.1072 130.598C85.9434 130.416 85.6931 130.325 85.3564 130.325C85.0175 130.325 84.7471 130.425 84.5451 130.624C84.3453 130.824 84.232 131.072 84.205 131.369H86.3597ZM90.8878 133.432C90.6297 133.554 90.4075 133.637 90.2212 133.681C90.0372 133.729 89.8531 133.752 89.6691 133.752C89.3952 133.752 89.1439 133.713 88.9149 133.634C88.686 133.554 88.4896 133.432 88.3257 133.271C88.1619 133.109 88.034 132.905 87.9419 132.658C87.8522 132.411 87.8073 132.123 87.8073 131.793C87.8073 131.193 87.9734 130.715 88.3055 130.358C88.6377 129.999 89.0922 129.82 89.6691 129.82C89.8868 129.82 90.1 129.85 90.3087 129.911C90.5197 129.971 90.7127 130.045 90.8878 130.133V130.837H90.8508C90.642 130.677 90.4356 130.559 90.2313 130.483C90.0293 130.407 89.8329 130.369 89.6421 130.369C89.2673 130.369 88.9766 130.494 88.7702 130.746C88.5659 130.997 88.4638 131.346 88.4638 131.793C88.4638 132.239 88.5659 132.586 88.7702 132.833C88.9744 133.08 89.2651 133.203 89.6421 133.203C89.7746 133.203 89.9059 133.187 90.036 133.153C90.1685 133.119 90.2885 133.075 90.3963 133.022C90.4816 132.979 90.5691 132.928 90.6589 132.87C90.7509 132.809 90.8149 132.765 90.8508 132.735H90.8878V133.432ZM93.8874 131.779H91.7866V131.17H93.8874V131.779ZM98.0856 133.668H97.456V133.267C97.3999 133.305 97.3236 133.359 97.2271 133.429C97.1328 133.496 97.0408 133.55 96.951 133.591C96.8455 133.642 96.7243 133.685 96.5874 133.718C96.4505 133.754 96.29 133.772 96.1059 133.772C95.767 133.772 95.4797 133.66 95.2441 133.436C95.0084 133.211 94.8906 132.925 94.8906 132.577C94.8906 132.292 94.9512 132.062 95.0724 131.887C95.1958 131.71 95.3709 131.571 95.5976 131.47C95.8265 131.369 96.1015 131.3 96.4224 131.264C96.7434 131.228 97.0879 131.201 97.456 131.183V131.086C97.456 130.942 97.4302 130.823 97.3786 130.729C97.3292 130.635 97.2574 130.56 97.1631 130.507C97.0733 130.455 96.9656 130.42 96.8399 130.402C96.7142 130.384 96.5829 130.375 96.446 130.375C96.2799 130.375 96.0947 130.398 95.8905 130.443C95.6862 130.485 95.4753 130.548 95.2575 130.631H95.2239V129.988C95.3473 129.954 95.5258 129.917 95.7592 129.877C95.9926 129.837 96.2227 129.816 96.4494 129.816C96.7142 129.816 96.9443 129.839 97.1395 129.884C97.337 129.926 97.5076 130 97.6513 130.106C97.7927 130.209 97.9004 130.343 97.9745 130.507C98.0485 130.67 98.0856 130.874 98.0856 131.116V133.668ZM97.456 132.742V131.695C97.263 131.706 97.0352 131.723 96.7726 131.746C96.5122 131.768 96.3057 131.801 96.1531 131.843C95.9713 131.895 95.8243 131.976 95.712 132.086C95.5998 132.193 95.5437 132.343 95.5437 132.533C95.5437 132.749 95.6088 132.912 95.739 133.022C95.8692 133.129 96.0678 133.183 96.3349 133.183C96.5571 133.183 96.7602 133.141 96.9443 133.055C97.1283 132.968 97.2989 132.863 97.456 132.742ZM102.59 133.668H101.957V131.975H100.075V133.668H99.4422V129.907H100.075V131.429H101.957V129.907H102.59V133.668ZM106.899 133.668H106.27V133.267C106.214 133.305 106.137 133.359 106.041 133.429C105.947 133.496 105.855 133.55 105.765 133.591C105.659 133.642 105.538 133.685 105.401 133.718C105.264 133.754 105.104 133.772 104.92 133.772C104.581 133.772 104.294 133.66 104.058 133.436C103.822 133.211 103.704 132.925 103.704 132.577C103.704 132.292 103.765 132.062 103.886 131.887C104.01 131.71 104.185 131.571 104.411 131.47C104.64 131.369 104.915 131.3 105.236 131.264C105.557 131.228 105.902 131.201 106.27 131.183V131.086C106.27 130.942 106.244 130.823 106.192 130.729C106.143 130.635 106.071 130.56 105.977 130.507C105.887 130.455 105.779 130.42 105.654 130.402C105.528 130.384 105.397 130.375 105.26 130.375C105.094 130.375 104.909 130.398 104.704 130.443C104.5 130.485 104.289 130.548 104.071 130.631H104.038V129.988C104.161 129.954 104.34 129.917 104.573 129.877C104.806 129.837 105.036 129.816 105.263 129.816C105.528 129.816 105.758 129.839 105.953 129.884C106.151 129.926 106.321 130 106.465 130.106C106.606 130.209 106.714 130.343 106.788 130.507C106.862 130.67 106.899 130.874 106.899 131.116V133.668ZM106.27 132.742V131.695C106.077 131.706 105.849 131.723 105.586 131.746C105.326 131.768 105.119 131.801 104.967 131.843C104.785 131.895 104.638 131.976 104.526 132.086C104.414 132.193 104.357 132.343 104.357 132.533C104.357 132.749 104.423 132.912 104.553 133.022C104.683 133.129 104.882 133.183 105.149 133.183C105.371 133.183 105.574 133.141 105.758 133.055C105.942 132.968 106.113 132.863 106.27 132.742ZM111.289 133.668H110.656V130.439H109.253C109.246 130.626 109.239 130.805 109.232 130.978C109.226 131.151 109.219 131.307 109.212 131.446C109.196 131.821 109.171 132.12 109.135 132.345C109.099 132.567 109.052 132.752 108.993 132.9C108.939 133.04 108.879 133.153 108.812 133.24C108.746 133.326 108.676 133.403 108.599 133.473C108.523 133.54 108.438 133.591 108.344 133.624C108.252 133.658 108.151 133.675 108.041 133.675C108.002 133.675 107.946 133.674 107.872 133.671C107.8 133.669 107.753 133.668 107.731 133.668V133.116H107.764C107.782 133.116 107.808 133.117 107.842 133.119C107.876 133.121 107.904 133.123 107.926 133.123C107.98 133.123 108.035 133.115 108.091 133.099C108.149 133.083 108.199 133.054 108.239 133.011C108.354 132.899 108.446 132.71 108.515 132.442C108.585 132.175 108.631 131.789 108.653 131.284C108.662 131.1 108.67 130.883 108.677 130.631C108.686 130.378 108.694 130.136 108.7 129.907H111.289V133.668ZM115.844 133.668H115.218V130.843L113.249 133.668H112.676V129.907H113.303V132.692L115.252 129.907H115.844V133.668ZM119.995 130.463H118.635V133.668H118.002V130.463H116.642V129.907H119.995V130.463ZM123.958 133.668H123.332V130.843L121.362 133.668H120.79V129.907H121.416V132.692L123.365 129.907H123.958V133.668ZM128.739 133.668H127.91L126.348 131.944H126.005V133.668H125.372V129.907H126.005V131.53C126.214 131.53 126.382 131.493 126.51 131.419C126.638 131.343 126.747 131.221 126.836 131.055C126.868 130.995 126.898 130.931 126.927 130.863C126.959 130.794 126.989 130.728 127.018 130.665C127.135 130.411 127.281 130.222 127.456 130.096C127.631 129.97 127.882 129.907 128.21 129.907H128.5V130.453H128.22C128.043 130.453 127.904 130.491 127.803 130.567C127.704 130.641 127.614 130.773 127.533 130.961C127.443 131.172 127.348 131.33 127.247 131.436C127.148 131.539 127.043 131.618 126.931 131.672L128.739 133.668Z" fill="#F3F0F0"/>
<defs>
<filter id="filter0_d_5042_90015" x="0.962963" y="16.1963" width="81.8983" height="88.5936" filterUnits="userSpaceOnUse" color-interpolation-filters="sRGB">
<feFlood flood-opacity="0" result="BackgroundImageFix"/>
<feColorMatrix in="SourceAlpha" type="matrix" values="0 0 0 0 0 0 0 0 0 0 0 0 0 0 0 0 0 0 127 0" result="hardAlpha"/>
<feOffset dy="8.51852"/>
<feGaussianBlur stdDeviation="8.51852"/>
<feComposite in2="hardAlpha" operator="out"/>
<feColorMatrix type="matrix" values="0 0 0 0 0.25098 0 0 0 0 0.25098 0 0 0 0 0.25098 0 0 0 0.1 0"/>
<feBlend mode="normal" in2="BackgroundImageFix" result="effect1_dropShadow_5042_90015"/>
<feBlend mode="normal" in="SourceGraphic" in2="effect1_dropShadow_5042_90015" result="shape"/>
</filter>
<clipPath id="clip0_5042_90015">
<rect x="18" y="24.7148" width="47.8233" height="54.5185" rx="3" fill="white"/>
</clipPath>
<clipPath id="clip1_5042_90015">
<rect width="14.2009" height="13.5174" fill="white" transform="translate(181.859 82.7305) rotate(8.98694)"/>
</clipPath>
</defs>
</svg>
