<svg width="265" height="306" viewBox="0 0 265 306" fill="none" xmlns="http://www.w3.org/2000/svg">
<g filter="url(#filter0_d_5042_89509)">
<path d="M34 27.0883C34 21.5167 38.5167 17 44.0883 17H353.912C359.483 17 364 21.5167 364 27.0883V33H34V27.0883Z" fill="#E8E8E8"/>
<rect x="42.4141" y="22.4648" width="5.04415" height="5.04415" rx="2.52208" fill="#ED695E"/>
<rect x="50.8203" y="22.4648" width="5.04415" height="5.04415" rx="2.52208" fill="#F5BF4F"/>
<rect x="59.2305" y="22.4648" width="5.04415" height="5.04415" rx="2.52208" fill="#61C454"/>
<path d="M34 33H364V244.912C364 250.483 359.483 255 353.912 255H44.0883C38.5167 255 34 250.483 34 244.912V33Z" fill="#E8E8E8"/>
<g clip-path="url(#clip0_5042_89509)">
<rect x="38.5234" y="33" width="320.72" height="218.429" rx="8" fill="#F3F0F0"/>
<rect x="55" y="89" width="286" height="82" rx="6" fill="#E8E8E8"/>
<path fill-rule="evenodd" clip-rule="evenodd" d="M60.5703 120.328C60.5703 118.947 61.6896 117.828 63.0703 117.828H118.006C119.386 117.828 120.506 118.947 120.506 120.328C120.506 121.709 119.386 122.828 118.006 122.828H63.0703C61.6896 122.828 60.5703 121.709 60.5703 120.328Z" fill="#D7D7D7"/>
<path fill-rule="evenodd" clip-rule="evenodd" d="M252 120.328C252 118.947 253.119 117.828 254.5 117.828H309.435C310.816 117.828 311.935 118.947 311.935 120.328C311.935 121.709 310.816 122.828 309.435 122.828H254.5C253.119 122.828 252 121.709 252 120.328Z" fill="#D7D7D7"/>
<path fill-rule="evenodd" clip-rule="evenodd" d="M61 127.5C61 126.119 62.1193 125 63.5 125H109.5C110.881 125 112 126.119 112 127.5C112 128.881 110.881 130 109.5 130H63.5C62.1193 130 61 128.881 61 127.5Z" fill="#D7D7D7"/>
<path fill-rule="evenodd" clip-rule="evenodd" d="M252.43 127.5C252.43 126.119 253.549 125 254.93 125H300.93C302.31 125 303.43 126.119 303.43 127.5C303.43 128.881 302.31 130 300.93 130H254.93C253.549 130 252.43 128.881 252.43 127.5Z" fill="#D7D7D7"/>
<path fill-rule="evenodd" clip-rule="evenodd" d="M161 120.5C161 119.119 162.119 118 163.5 118H214.5C215.881 118 217 119.119 217 120.5C217 121.881 215.881 123 214.5 123H163.5C162.119 123 161 121.881 161 120.5Z" fill="#D7D7D7"/>
<path fill-rule="evenodd" clip-rule="evenodd" d="M161 128.5C161 127.119 162.119 126 163.5 126H197.5C198.881 126 200 127.119 200 128.5C200 129.881 198.881 131 197.5 131H163.5C162.119 131 161 129.881 161 128.5Z" fill="#D7D7D7"/>
<path fill-rule="evenodd" clip-rule="evenodd" d="M161 136.5C161 135.119 162.119 134 163.5 134H206.5C207.881 134 209 135.119 209 136.5C209 137.881 207.881 139 206.5 139H163.5C162.119 139 161 137.881 161 136.5Z" fill="#D7D7D7"/>
<path fill-rule="evenodd" clip-rule="evenodd" d="M60.5703 96.8125C60.5703 95.4318 61.6896 94.3125 63.0703 94.3125H111.178C112.558 94.3125 113.678 95.4318 113.678 96.8125C113.678 98.1932 112.558 99.3125 111.178 99.3125H63.0703C61.6896 99.3125 60.5703 98.1932 60.5703 96.8125Z" fill="#FCCD82"/>
<path fill-rule="evenodd" clip-rule="evenodd" d="M60.5703 105.156C60.5703 103.776 61.6896 102.656 63.0703 102.656H97.5214C98.9021 102.656 100.021 103.776 100.021 105.156C100.021 106.537 98.9021 107.656 97.5214 107.656H63.0703C61.6896 107.656 60.5703 106.537 60.5703 105.156Z" fill="#FCCD82"/>
<path fill-rule="evenodd" clip-rule="evenodd" d="M67.5 163C71.0899 163 74 160.09 74 156.5C74 152.91 71.0899 150 67.5 150C63.9101 150 61 152.91 61 156.5C61 160.09 63.9101 163 67.5 163Z" fill="#FFA469"/>
<path fill-rule="evenodd" clip-rule="evenodd" d="M65.394 156.294C65.1216 156.022 64.6799 156.022 64.4075 156.294C64.135 156.567 64.135 157.008 64.4075 157.281L66.3165 159.147C66.6207 159.451 67.125 159.41 67.3762 159.061L70.6347 154.73C70.8597 154.417 70.7885 153.981 70.4757 153.756C70.1629 153.531 69.727 153.603 69.502 153.915L66.7227 157.58L65.394 156.294Z" fill="white"/>
<path fill-rule="evenodd" clip-rule="evenodd" d="M167.5 163C171.09 163 174 160.09 174 156.5C174 152.91 171.09 150 167.5 150C163.91 150 161 152.91 161 156.5C161 160.09 163.91 163 167.5 163Z" fill="#FFA469"/>
<path fill-rule="evenodd" clip-rule="evenodd" d="M165.394 156.294C165.122 156.022 164.68 156.022 164.407 156.294C164.135 156.567 164.135 157.008 164.407 157.281L166.317 159.147C166.621 159.451 167.125 159.41 167.376 159.061L170.635 154.73C170.86 154.417 170.789 153.981 170.476 153.756C170.163 153.531 169.727 153.603 169.502 153.915L166.723 157.58L165.394 156.294Z" fill="white"/>
<path fill-rule="evenodd" clip-rule="evenodd" d="M258.5 163C262.09 163 265 160.09 265 156.5C265 152.91 262.09 150 258.5 150C254.91 150 252 152.91 252 156.5C252 160.09 254.91 163 258.5 163Z" fill="#FFA469"/>
<path fill-rule="evenodd" clip-rule="evenodd" d="M256.394 156.294C256.122 156.022 255.68 156.022 255.407 156.294C255.135 156.567 255.135 157.008 255.407 157.281L257.317 159.147C257.621 159.451 258.125 159.41 258.376 159.061L261.635 154.73C261.86 154.417 261.789 153.981 261.476 153.756C261.163 153.531 260.727 153.603 260.502 153.915L257.723 157.58L256.394 156.294Z" fill="white"/>
<path fill-rule="evenodd" clip-rule="evenodd" d="M91.5 238C90.1193 238 89 236.881 89 235.5L89 216.5C89 215.119 90.1193 214 91.5 214C92.8807 214 94 215.119 94 216.5L94 235.5C94 236.881 92.8807 238 91.5 238Z" fill="#D7D7D7"/>
<path fill-rule="evenodd" clip-rule="evenodd" d="M147.5 238C146.119 238 145 236.881 145 235.5L145 216.5C145 215.119 146.119 214 147.5 214C148.881 214 150 215.119 150 216.5L150 235.5C150 236.881 148.881 238 147.5 238Z" fill="#D7D7D7"/>
<path fill-rule="evenodd" clip-rule="evenodd" d="M259.5 238C258.119 238 257 236.881 257 235.5L257 216.5C257 215.119 258.119 214 259.5 214C260.881 214 262 215.119 262 216.5L262 235.5C262 236.881 260.881 238 259.5 238Z" fill="#D7D7D7"/>
<path fill-rule="evenodd" clip-rule="evenodd" d="M133.5 238C132.119 238 131 236.881 131 235.5L131 216.5C131 215.119 132.119 214 133.5 214C134.881 214 136 215.119 136 216.5L136 235.5C136 236.881 134.881 238 133.5 238Z" fill="#D7D7D7"/>
<path fill-rule="evenodd" clip-rule="evenodd" d="M245.5 238C244.119 238 243 236.881 243 235.5L243 216.5C243 215.119 244.119 214 245.5 214C246.881 214 248 215.119 248 216.5L248 235.5C248 236.881 246.881 238 245.5 238Z" fill="#D7D7D7"/>
<path fill-rule="evenodd" clip-rule="evenodd" d="M119.5 238C118.119 238 117 236.881 117 235.5L117 216.5C117 215.119 118.119 214 119.5 214C120.881 214 122 215.119 122 216.5L122 235.5C122 236.881 120.881 238 119.5 238Z" fill="#D7D7D7"/>
<path fill-rule="evenodd" clip-rule="evenodd" d="M217.5 238C216.119 238 215 236.881 215 235.5L215 216.5C215 215.119 216.119 214 217.5 214C218.881 214 220 215.119 220 216.5L220 235.5C220 236.881 218.881 238 217.5 238Z" fill="#D7D7D7"/>
<path fill-rule="evenodd" clip-rule="evenodd" d="M105.5 238C104.119 238 103 236.881 103 235.5L103 220.5C103 219.119 104.119 218 105.5 218C106.881 218 108 219.119 108 220.5L108 235.5C108 236.881 106.881 238 105.5 238Z" fill="#D7D7D7"/>
<path fill-rule="evenodd" clip-rule="evenodd" d="M203.5 238C202.119 238 201 236.881 201 235.5L201 220.5C201 219.119 202.119 218 203.5 218C204.881 218 206 219.119 206 220.5L206 235.5C206 236.881 204.881 238 203.5 238Z" fill="#D7D7D7"/>
<path fill-rule="evenodd" clip-rule="evenodd" d="M161.5 238C160.119 238 159 236.881 159 235.5L159 220.5C159 219.119 160.119 218 161.5 218C162.881 218 164 219.119 164 220.5L164 235.5C164 236.881 162.881 238 161.5 238Z" fill="#D7D7D7"/>
<path fill-rule="evenodd" clip-rule="evenodd" d="M189.5 238C188.119 238 187 236.881 187 235.5L187 220.5C187 219.119 188.119 218 189.5 218C190.881 218 192 219.119 192 220.5L192 235.5C192 236.881 190.881 238 189.5 238Z" fill="#D7D7D7"/>
<path fill-rule="evenodd" clip-rule="evenodd" d="M63.5 238C62.1193 238 61 236.881 61 235.5L61 191.5C61 190.119 62.1193 189 63.5 189C64.8807 189 66 190.119 66 191.5L66 235.5C66 236.881 64.8807 238 63.5 238Z" fill="#FCCD82"/>
<path fill-rule="evenodd" clip-rule="evenodd" d="M175.5 238C174.119 238 173 236.881 173 235.5L173 191.5C173 190.119 174.119 189 175.5 189C176.881 189 178 190.119 178 191.5L178 235.5C178 236.881 176.881 238 175.5 238Z" fill="#FCCD82"/>
<path fill-rule="evenodd" clip-rule="evenodd" d="M77.5 238C76.1193 238 75 236.881 75 235.5L75 204.5C75 203.119 76.1193 202 77.5 202C78.8807 202 80 203.119 80 204.5L80 235.5C80 236.881 78.8807 238 77.5 238Z" fill="#FCCD82"/>
<path fill-rule="evenodd" clip-rule="evenodd" d="M231.5 238C230.119 238 229 236.881 229 235.5L229 204.5C229 203.119 230.119 202 231.5 202C232.881 202 234 203.119 234 204.5L234 235.5C234 236.881 232.881 238 231.5 238Z" fill="#FCCD82"/>
<path d="M63.7166 52.9916C63.7166 53.4773 63.6266 53.9135 63.4468 54.3002C63.2669 54.6869 63.0151 55.0152 62.6913 55.285C62.3765 55.5458 62.0033 55.7482 61.5716 55.8921C61.1489 56.027 60.6947 56.0944 60.209 56.0944C59.7144 56.0944 59.2512 56.027 58.8195 55.8921C58.3968 55.7482 58.0281 55.5458 57.7133 55.285C57.4075 55.0152 57.1647 54.6869 56.9848 54.3002C56.8049 53.9135 56.715 53.4773 56.715 52.9916V49.6864C56.715 49.2008 56.8049 48.7691 56.9848 48.3913C57.1737 48.0136 57.4255 47.6943 57.7403 47.4335C58.0551 47.1637 58.4238 46.9613 58.8465 46.8264C59.2692 46.6825 59.7234 46.6106 60.209 46.6106C60.6857 46.6106 61.1354 46.6825 61.5581 46.8264C61.9898 46.9703 62.363 47.1772 62.6778 47.447C63.0016 47.7078 63.2534 48.0316 63.4333 48.4183C63.6221 48.7961 63.7166 49.2278 63.7166 49.7134V52.9916ZM62.1652 49.9428C62.1652 49.61 62.1112 49.3222 62.0033 49.0794C61.8954 48.8365 61.7515 48.6387 61.5716 48.4858C61.3917 48.3239 61.1804 48.207 60.9375 48.135C60.7037 48.0631 60.4609 48.0271 60.209 48.0271C59.9482 48.0271 59.7009 48.0631 59.4671 48.135C59.2332 48.207 59.0264 48.3239 58.8465 48.4858C58.6756 48.6387 58.5362 48.8365 58.4283 49.0794C58.3204 49.3222 58.2664 49.61 58.2664 49.9428V52.7623C58.2664 53.104 58.3204 53.3963 58.4283 53.6392C58.5362 53.882 58.6801 54.0798 58.86 54.2327C59.0399 54.3856 59.2467 54.4981 59.4806 54.57C59.7144 54.642 59.9572 54.6779 60.209 54.6779C60.4609 54.6779 60.7037 54.642 60.9375 54.57C61.1804 54.4981 61.3917 54.3856 61.5716 54.2327C61.7515 54.0798 61.8954 53.882 62.0033 53.6392C62.1112 53.3963 62.1652 53.104 62.1652 52.7623V49.9428ZM67.9931 50.5498V56H66.5361V50.5498H64.553V49.3087H69.9762V50.5498H67.9931ZM71.8776 49.3087V51.2648C71.8776 51.7055 71.981 52.0158 72.1879 52.1957C72.4037 52.3755 72.6825 52.4655 73.0243 52.4655C73.2671 52.4655 73.5369 52.416 73.8337 52.3171C74.1395 52.2182 74.4363 52.0788 74.7241 51.8989V49.3087H76.1406V56H74.7241V53.1805C74.2924 53.4143 73.9147 53.5672 73.5909 53.6392C73.2761 53.7111 72.9928 53.7471 72.741 53.7471C72.0305 53.7471 71.4684 53.5537 71.0547 53.167C70.65 52.7803 70.4476 52.2047 70.4476 51.4402V49.3087H71.8776ZM78.8133 53.1265V53.4638C78.8133 53.6976 78.8538 53.9 78.9347 54.0709C79.0157 54.2327 79.1191 54.3676 79.245 54.4756C79.3799 54.5745 79.5328 54.6509 79.7037 54.7049C79.8836 54.7499 80.0679 54.7724 80.2568 54.7724C80.4637 54.7724 80.711 54.7364 80.9988 54.6644C81.2956 54.5925 81.5879 54.4261 81.8757 54.1653C82.0196 54.3362 82.159 54.5026 82.2939 54.6644C82.4378 54.8173 82.5772 54.9792 82.7121 55.1501C82.3343 55.5188 81.9341 55.7662 81.5114 55.8921C81.0977 56.009 80.6795 56.0675 80.2568 56.0675C79.8701 56.0675 79.5013 56.018 79.1506 55.9191C78.8088 55.8201 78.503 55.6717 78.2332 55.4739C77.9724 55.267 77.7656 55.0107 77.6127 54.7049C77.4598 54.3991 77.3833 54.0394 77.3833 53.6257V51.8719C77.3833 51.4672 77.4508 51.1029 77.5857 50.7792C77.7296 50.4554 77.9274 50.1811 78.1793 49.9562C78.4311 49.7314 78.7234 49.5605 79.0561 49.4436C79.3889 49.3177 79.7532 49.2547 80.1489 49.2547C80.5536 49.2547 80.9268 49.3132 81.2686 49.4301C81.6104 49.547 81.9027 49.7179 82.1455 49.9428C82.3973 50.1586 82.5907 50.4239 82.7256 50.7387C82.8605 51.0535 82.9279 51.4132 82.9279 51.8179V53.1265H78.8133ZM81.4844 51.8989C81.4844 51.4312 81.354 51.0939 81.0932 50.8871C80.8324 50.6712 80.5221 50.5633 80.1624 50.5633C79.8026 50.5633 79.4878 50.6757 79.218 50.9006C78.9572 51.1164 78.8268 51.4447 78.8268 51.8854V52.1012H81.4844V51.8989ZM87.0036 50.5498V56H85.5467V50.5498H83.5636V49.3087H88.9868V50.5498H87.0036ZM97.3241 56V50.5768H94.5181V56H93.0881V49.3222H98.7676V56H97.3241ZM105.683 53.6392C105.683 54.0349 105.602 54.3856 105.44 54.6914C105.287 54.9972 105.076 55.2535 104.806 55.4604C104.545 55.6582 104.244 55.8111 103.902 55.9191C103.56 56.018 103.205 56.0675 102.836 56.0675C102.459 56.0675 102.094 56.018 101.744 55.9191C101.402 55.8111 101.101 55.6582 100.84 55.4604C100.588 55.2535 100.386 54.9972 100.233 54.6914C100.08 54.3856 100.003 54.0349 100.003 53.6392V51.6965C100.003 51.3008 100.08 50.95 100.233 50.6443C100.395 50.3385 100.606 50.0822 100.867 49.8753C101.128 49.6684 101.429 49.5111 101.771 49.4031C102.112 49.2952 102.472 49.2412 102.85 49.2412C103.255 49.2412 103.628 49.2952 103.97 49.4031C104.311 49.5111 104.608 49.6729 104.86 49.8888C105.121 50.0956 105.323 50.352 105.467 50.6578C105.611 50.9635 105.683 51.3143 105.683 51.71V53.6392ZM104.266 51.9528C104.266 51.701 104.221 51.4897 104.131 51.3188C104.051 51.1389 103.943 50.995 103.808 50.8871C103.673 50.7792 103.52 50.7027 103.349 50.6578C103.178 50.6038 103.012 50.5768 102.85 50.5768C102.688 50.5768 102.522 50.6038 102.351 50.6578C102.18 50.7027 102.027 50.7792 101.892 50.8871C101.757 50.995 101.645 51.1389 101.555 51.3188C101.474 51.4897 101.433 51.701 101.433 51.9528V53.3693C101.433 53.873 101.573 54.2282 101.852 54.4351C102.13 54.642 102.463 54.7454 102.85 54.7454C103.012 54.7454 103.178 54.7229 103.349 54.6779C103.52 54.624 103.673 54.543 103.808 54.4351C103.943 54.3272 104.051 54.1878 104.131 54.0169C104.221 53.837 104.266 53.6212 104.266 53.3693V51.9528ZM111.427 49.3087V51.2648C111.427 51.7055 111.53 52.0158 111.737 52.1957C111.953 52.3755 112.232 52.4655 112.574 52.4655C112.817 52.4655 113.086 52.416 113.383 52.3171C113.689 52.2182 113.986 52.0788 114.273 51.8989V49.3087H115.69V56H114.273V53.1805C113.842 53.4143 113.464 53.5672 113.14 53.6392C112.825 53.7111 112.542 53.7471 112.29 53.7471C111.58 53.7471 111.018 53.5537 110.604 53.167C110.199 52.7803 109.997 52.2047 109.997 51.4402V49.3087H111.427ZM121.088 55.3929C120.611 55.6627 120.206 55.8426 119.874 55.9325C119.55 56.0135 119.249 56.054 118.97 56.054C118.304 56.054 117.783 55.8741 117.405 55.5143C117.027 55.1546 116.838 54.6599 116.838 54.0304C116.838 53.6616 116.919 53.3514 117.081 53.0995C117.243 52.8477 117.445 52.6454 117.688 52.4925C117.931 52.3306 118.192 52.2137 118.471 52.1417C118.758 52.0698 119.024 52.0338 119.267 52.0338H121.115V51.6291C121.115 51.2333 121.002 50.95 120.777 50.7792C120.553 50.6083 120.206 50.5228 119.739 50.5228C119.514 50.5228 119.235 50.5588 118.902 50.6308C118.579 50.6937 118.25 50.8601 117.918 51.1299L117.256 50.0642C117.706 49.7224 118.156 49.5021 118.606 49.4031C119.064 49.2952 119.487 49.2412 119.874 49.2412C120.791 49.2412 121.466 49.4436 121.897 49.8483C122.329 50.253 122.545 50.8691 122.545 51.6965V56H121.25L121.128 55.4199L121.088 55.3929ZM121.115 53.14H119.509C119.383 53.14 119.253 53.149 119.118 53.167C118.983 53.185 118.857 53.2254 118.74 53.2884C118.633 53.3424 118.538 53.4233 118.457 53.5312C118.385 53.6392 118.349 53.7876 118.349 53.9764C118.349 54.2282 118.439 54.4261 118.619 54.57C118.799 54.7049 119.037 54.7724 119.334 54.7724C119.496 54.7724 119.658 54.7544 119.82 54.7184C119.982 54.6734 120.139 54.624 120.292 54.57C120.454 54.507 120.602 54.4396 120.737 54.3676C120.881 54.2957 121.007 54.2282 121.115 54.1653V53.14ZM128.882 55.1636C128.522 55.5323 128.14 55.7752 127.735 55.8921C127.331 56.009 126.926 56.0675 126.521 56.0675C126.144 56.0675 125.788 56.0135 125.456 55.9056C125.123 55.7976 124.835 55.6403 124.592 55.4334C124.349 55.2265 124.156 54.9792 124.012 54.6914C123.877 54.3946 123.81 54.0574 123.81 53.6796V51.6965C123.81 51.3008 123.886 50.95 124.039 50.6443C124.192 50.3385 124.394 50.0822 124.646 49.8753C124.898 49.6684 125.186 49.5111 125.51 49.4031C125.833 49.2952 126.166 49.2412 126.508 49.2412C126.706 49.2412 126.908 49.2547 127.115 49.2817C127.322 49.2997 127.524 49.3402 127.722 49.4031C127.929 49.4571 128.127 49.5425 128.316 49.6595C128.513 49.7674 128.702 49.9158 128.882 50.1046L128.046 51.1704C127.74 50.8916 127.466 50.7207 127.223 50.6578C126.989 50.5948 126.782 50.5633 126.602 50.5633C126.449 50.5633 126.292 50.5903 126.13 50.6443C125.968 50.6892 125.82 50.7657 125.685 50.8736C125.559 50.9815 125.451 51.1254 125.361 51.3053C125.28 51.4762 125.24 51.6875 125.24 51.9394V53.3693C125.24 53.6212 125.276 53.837 125.348 54.0169C125.429 54.1878 125.532 54.3272 125.658 54.4351C125.784 54.543 125.928 54.624 126.09 54.6779C126.251 54.7229 126.418 54.7454 126.589 54.7454C126.778 54.7454 127.007 54.7049 127.277 54.624C127.547 54.534 127.789 54.3856 128.005 54.1788L128.882 55.1636ZM133.92 55.3929C133.443 55.6627 133.038 55.8426 132.705 55.9325C132.382 56.0135 132.08 56.054 131.802 56.054C131.136 56.054 130.614 55.8741 130.237 55.5143C129.859 55.1546 129.67 54.6599 129.67 54.0304C129.67 53.6616 129.751 53.3514 129.913 53.0995C130.075 52.8477 130.277 52.6454 130.52 52.4925C130.763 52.3306 131.024 52.2137 131.302 52.1417C131.59 52.0698 131.856 52.0338 132.098 52.0338H133.947V51.6291C133.947 51.2333 133.834 50.95 133.609 50.7792C133.384 50.6083 133.038 50.5228 132.571 50.5228C132.346 50.5228 132.067 50.5588 131.734 50.6308C131.41 50.6937 131.082 50.8601 130.749 51.1299L130.088 50.0642C130.538 49.7224 130.988 49.5021 131.437 49.4031C131.896 49.2952 132.319 49.2412 132.705 49.2412C133.623 49.2412 134.297 49.4436 134.729 49.8483C135.161 50.253 135.377 50.8691 135.377 51.6965V56H134.081L133.96 55.4199L133.92 55.3929ZM133.947 53.14H132.341C132.215 53.14 132.085 53.149 131.95 53.167C131.815 53.185 131.689 53.2254 131.572 53.2884C131.464 53.3424 131.37 53.4233 131.289 53.5312C131.217 53.6392 131.181 53.7876 131.181 53.9764C131.181 54.2282 131.271 54.4261 131.451 54.57C131.631 54.7049 131.869 54.7724 132.166 54.7724C132.328 54.7724 132.49 54.7544 132.651 54.7184C132.813 54.6734 132.971 54.624 133.124 54.57C133.286 54.507 133.434 54.4396 133.569 54.3676C133.713 54.2957 133.839 54.2282 133.947 54.1653V53.14ZM140.23 53.4098L141.35 51.3053L142.429 49.3222H143.711V56H142.281V52.3441H142.213L140.662 55.1366H139.69L138.948 53.7606L138.22 52.3845H138.139V56H136.709V49.3222H138.018L139.083 51.3323L140.149 53.4098H140.23ZM59.5615 63.5498V69H58.1045V63.5498H56.1214V62.3087H61.5446V63.5498H59.5615ZM63.7024 66.1265V66.4638C63.7024 66.6976 63.7428 66.9 63.8238 67.0709C63.9047 67.2327 64.0081 67.3676 64.134 67.4756C64.269 67.5745 64.4218 67.6509 64.5927 67.7049C64.7726 67.7499 64.957 67.7724 65.1458 67.7724C65.3527 67.7724 65.6 67.7364 65.8878 67.6644C66.1846 67.5925 66.4769 67.4261 66.7647 67.1653C66.9086 67.3362 67.048 67.5026 67.1829 67.6644C67.3268 67.8173 67.4662 67.9792 67.6011 68.1501C67.2234 68.5188 66.8232 68.7662 66.4005 68.8921C65.9867 69.009 65.5685 69.0675 65.1458 69.0675C64.7591 69.0675 64.3904 69.018 64.0396 68.9191C63.6979 68.8201 63.3921 68.6717 63.1223 68.4739C62.8614 68.267 62.6546 68.0107 62.5017 67.7049C62.3488 67.3991 62.2724 67.0394 62.2724 66.6257V64.8719C62.2724 64.4672 62.3398 64.1029 62.4747 63.7792C62.6186 63.4554 62.8165 63.1811 63.0683 62.9562C63.3201 62.7314 63.6124 62.5605 63.9452 62.4436C64.2779 62.3177 64.6422 62.2547 65.0379 62.2547C65.4426 62.2547 65.8159 62.3132 66.1576 62.4301C66.4994 62.547 66.7917 62.7179 67.0345 62.9428C67.2863 63.1586 67.4797 63.4239 67.6146 63.7387C67.7495 64.0535 67.817 64.4132 67.817 64.8179V66.1265H63.7024ZM66.3735 64.8989C66.3735 64.4312 66.2431 64.0939 65.9823 63.8871C65.7214 63.6712 65.4112 63.5633 65.0514 63.5633C64.6917 63.5633 64.3769 63.6757 64.1071 63.9006C63.8463 64.1164 63.7158 64.4447 63.7158 64.8854V65.1012H66.3735V64.8989ZM72.8775 69L71.4745 66.6931L70.0445 69H68.3447L70.7055 65.5869L68.4661 62.3087H70.1794L71.4745 64.4807L72.7965 62.3087H74.5098L72.2434 65.5599L74.6043 69H72.8775ZM79.5921 69V66.2344H76.7726V69H75.3561V62.3222H76.7726V64.9933H79.5921V62.3222H81.0356V69H79.5921ZM86.5999 64.6021L85.5341 66.2749L83.6724 69H82.3908V62.3222H83.8343V66.7066H83.8883L84.8731 65.2361L86.8157 62.3222H88.1108V69H86.6673V64.6021H86.5999ZM90.5852 62.3087V64.2648C90.5852 64.7055 90.6886 65.0158 90.8955 65.1957C91.1113 65.3755 91.3901 65.4655 91.7319 65.4655C91.9747 65.4655 92.2445 65.416 92.5413 65.3171C92.8471 65.2182 93.1439 65.0788 93.4317 64.8989V62.3087H94.8482V69H93.4317V66.1805C93 66.4143 92.6222 66.5672 92.2985 66.6392C91.9837 66.7111 91.7004 66.7471 91.4486 66.7471C90.7381 66.7471 90.176 66.5537 89.7622 66.167C89.3575 65.7803 89.1552 65.2047 89.1552 64.4402V62.3087H90.5852ZM97.5209 66.1265V66.4638C97.5209 66.6976 97.5614 66.9 97.6423 67.0709C97.7232 67.2327 97.8267 67.3676 97.9526 67.4756C98.0875 67.5745 98.2404 67.6509 98.4113 67.7049C98.5911 67.7499 98.7755 67.7724 98.9644 67.7724C99.1712 67.7724 99.4185 67.7364 99.7063 67.6644C100.003 67.5925 100.295 67.4261 100.583 67.1653C100.727 67.3362 100.867 67.5026 101.001 67.6644C101.145 67.8173 101.285 67.9792 101.42 68.1501C101.042 68.5188 100.642 68.7662 100.219 68.8921C99.8053 69.009 99.3871 69.0675 98.9644 69.0675C98.5776 69.0675 98.2089 69.018 97.8581 68.9191C97.5164 68.8201 97.2106 68.6717 96.9408 68.4739C96.68 68.267 96.4731 68.0107 96.3202 67.7049C96.1673 67.3991 96.0909 67.0394 96.0909 66.6257V64.8719C96.0909 64.4672 96.1583 64.1029 96.2932 63.7792C96.4371 63.4554 96.635 63.1811 96.8868 62.9562C97.1386 62.7314 97.4309 62.5605 97.7637 62.4436C98.0965 62.3177 98.4607 62.2547 98.8564 62.2547C99.2612 62.2547 99.6344 62.3132 99.9762 62.4301C100.318 62.547 100.61 62.7179 100.853 62.9428C101.105 63.1586 101.298 63.4239 101.433 63.7387C101.568 64.0535 101.635 64.4132 101.635 64.8179V66.1265H97.5209ZM100.192 64.8989C100.192 64.4312 100.062 64.0939 99.8008 63.8871C99.54 63.6712 99.2297 63.5633 98.8699 63.5633C98.5102 63.5633 98.1954 63.6757 97.9256 63.9006C97.6648 64.1164 97.5344 64.4447 97.5344 64.8854V65.1012H100.192V64.8989ZM107.843 68.1636C107.483 68.5323 107.101 68.7752 106.696 68.8921C106.291 69.009 105.887 69.0675 105.482 69.0675C105.104 69.0675 104.749 69.0135 104.416 68.9056C104.083 68.7976 103.796 68.6403 103.553 68.4334C103.31 68.2265 103.117 67.9792 102.973 67.6914C102.838 67.3946 102.77 67.0574 102.77 66.6796V64.6965C102.77 64.3008 102.847 63.95 103 63.6443C103.153 63.3385 103.355 63.0822 103.607 62.8753C103.859 62.6684 104.146 62.5111 104.47 62.4031C104.794 62.2952 105.127 62.2412 105.468 62.2412C105.666 62.2412 105.869 62.2547 106.075 62.2817C106.282 62.2997 106.485 62.3402 106.683 62.4031C106.889 62.4571 107.087 62.5425 107.276 62.6595C107.474 62.7674 107.663 62.9158 107.843 63.1046L107.006 64.1704C106.701 63.8916 106.426 63.7207 106.183 63.6578C105.95 63.5948 105.743 63.5633 105.563 63.5633C105.41 63.5633 105.253 63.5903 105.091 63.6443C104.929 63.6892 104.78 63.7657 104.645 63.8736C104.52 63.9815 104.412 64.1254 104.322 64.3053C104.241 64.4762 104.2 64.6875 104.2 64.9394V66.3693C104.2 66.6212 104.236 66.837 104.308 67.0169C104.389 67.1878 104.493 67.3272 104.618 67.4351C104.744 67.543 104.888 67.624 105.05 67.6779C105.212 67.7229 105.378 67.7454 105.549 67.7454C105.738 67.7454 105.968 67.7049 106.237 67.624C106.507 67.534 106.75 67.3856 106.966 67.1788L107.843 68.1636ZM108.779 69V62.3087H110.209V64.9798H111.059C111.329 64.9798 111.572 64.9259 111.787 64.8179C112.003 64.71 112.183 64.4582 112.327 64.0625L112.934 62.3087H114.445L113.757 64.2513C113.649 64.5751 113.519 64.8449 113.366 65.0608C113.222 65.2676 113.02 65.416 112.759 65.506C113.074 65.5959 113.303 65.7578 113.447 65.9916C113.591 66.2165 113.717 66.4953 113.824 66.828L114.566 69H113.002L112.448 67.1923C112.386 66.9854 112.309 66.819 112.219 66.6931C112.138 66.5672 112.044 66.4728 111.936 66.4098C111.828 66.3379 111.706 66.2929 111.572 66.2749C111.446 66.2479 111.302 66.2344 111.14 66.2344H110.209V69H108.779ZM121.189 66.6392C121.189 67.0349 121.108 67.3856 120.946 67.6914C120.793 67.9972 120.582 68.2535 120.312 68.4604C120.051 68.6582 119.75 68.8111 119.408 68.9191C119.067 69.018 118.711 69.0675 118.343 69.0675C117.965 69.0675 117.601 69.018 117.25 68.9191C116.908 68.8111 116.607 68.6582 116.346 68.4604C116.094 68.2535 115.892 67.9972 115.739 67.6914C115.586 67.3856 115.51 67.0349 115.51 66.6392V64.6965C115.51 64.3008 115.586 63.95 115.739 63.6443C115.901 63.3385 116.112 63.0822 116.373 62.8753C116.634 62.6684 116.935 62.5111 117.277 62.4031C117.619 62.2952 117.978 62.2412 118.356 62.2412C118.761 62.2412 119.134 62.2952 119.476 62.4031C119.818 62.5111 120.114 62.6729 120.366 62.8888C120.627 63.0956 120.829 63.352 120.973 63.6578C121.117 63.9635 121.189 64.3143 121.189 64.71V66.6392ZM119.773 64.9528C119.773 64.701 119.728 64.4897 119.638 64.3188C119.557 64.1389 119.449 63.995 119.314 63.8871C119.179 63.7792 119.026 63.7027 118.855 63.6578C118.684 63.6038 118.518 63.5768 118.356 63.5768C118.194 63.5768 118.028 63.6038 117.857 63.6578C117.686 63.7027 117.533 63.7792 117.398 63.8871C117.263 63.995 117.151 64.1389 117.061 64.3188C116.98 64.4897 116.94 64.701 116.94 64.9528V66.3693C116.94 66.873 117.079 67.2282 117.358 67.4351C117.637 67.642 117.969 67.7454 118.356 67.7454C118.518 67.7454 118.684 67.7229 118.855 67.6779C119.026 67.624 119.179 67.543 119.314 67.4351C119.449 67.3272 119.557 67.1878 119.638 67.0169C119.728 66.837 119.773 66.6212 119.773 66.3693V64.9528ZM125.246 61.3644C124.868 61.3644 124.553 61.3014 124.302 61.1755C124.059 61.0496 123.856 60.8922 123.695 60.7033C123.542 60.5145 123.429 60.3121 123.357 60.0963C123.294 59.8804 123.258 59.678 123.249 59.4892H124.356C124.365 59.5791 124.387 59.6736 124.423 59.7725C124.468 59.8714 124.526 59.9658 124.598 60.0558C124.679 60.1367 124.774 60.2087 124.882 60.2716C124.99 60.3256 125.111 60.3526 125.246 60.3526C125.399 60.3526 125.529 60.3256 125.637 60.2716C125.754 60.2087 125.848 60.1367 125.92 60.0558C126.001 59.9658 126.06 59.8714 126.096 59.7725C126.132 59.6736 126.15 59.5791 126.15 59.4892H127.243C127.225 59.678 127.18 59.8804 127.108 60.0963C127.036 60.3121 126.923 60.5145 126.77 60.7033C126.626 60.8922 126.429 61.0496 126.177 61.1755C125.934 61.3014 125.624 61.3644 125.246 61.3644ZM126.689 64.6021L125.624 66.2749L123.762 69H122.48V62.3222H123.924V66.7066H123.978L124.963 65.2361L126.905 62.3222H128.2V69H126.757V64.6021H126.689ZM137.111 69V63.5768H134.305V69H132.875V62.3222H138.554V69H137.111ZM145.469 66.6392C145.469 67.0349 145.388 67.3856 145.227 67.6914C145.074 67.9972 144.862 68.2535 144.592 68.4604C144.332 68.6582 144.03 68.8111 143.689 68.9191C143.347 69.018 142.992 69.0675 142.623 69.0675C142.245 69.0675 141.881 69.018 141.53 68.9191C141.188 68.8111 140.887 68.6582 140.626 68.4604C140.374 68.2535 140.172 67.9972 140.019 67.6914C139.866 67.3856 139.79 67.0349 139.79 66.6392V64.6965C139.79 64.3008 139.866 63.95 140.019 63.6443C140.181 63.3385 140.392 63.0822 140.653 62.8753C140.914 62.6684 141.215 62.5111 141.557 62.4031C141.899 62.2952 142.259 62.2412 142.636 62.2412C143.041 62.2412 143.414 62.2952 143.756 62.4031C144.098 62.5111 144.395 62.6729 144.646 62.8888C144.907 63.0956 145.11 63.352 145.254 63.6578C145.397 63.9635 145.469 64.3143 145.469 64.71V66.6392ZM144.053 64.9528C144.053 64.701 144.008 64.4897 143.918 64.3188C143.837 64.1389 143.729 63.995 143.594 63.8871C143.459 63.7792 143.306 63.7027 143.136 63.6578C142.965 63.6038 142.798 63.5768 142.636 63.5768C142.474 63.5768 142.308 63.6038 142.137 63.6578C141.966 63.7027 141.813 63.7792 141.679 63.8871C141.544 63.995 141.431 64.1389 141.341 64.3188C141.26 64.4897 141.22 64.701 141.22 64.9528V66.3693C141.22 66.873 141.359 67.2282 141.638 67.4351C141.917 67.642 142.25 67.7454 142.636 67.7454C142.798 67.7454 142.965 67.7229 143.136 67.6779C143.306 67.624 143.459 67.543 143.594 67.4351C143.729 67.3272 143.837 67.1878 143.918 67.0169C144.008 66.837 144.053 66.6212 144.053 66.3693V64.9528ZM149.095 63.5498L149.014 65.0877C148.978 65.6723 148.924 66.185 148.852 66.6257C148.789 67.0664 148.663 67.4441 148.474 67.7589H151.428V63.5498H149.095ZM146.248 67.7859C146.329 67.7859 146.41 67.7859 146.491 67.7859C146.581 67.7859 146.662 67.7814 146.734 67.7724C147.048 67.5475 147.273 67.2327 147.408 66.828C147.543 66.4143 147.633 65.8477 147.678 65.1282L147.853 62.3222H152.845V67.7589C152.944 67.7589 153.043 67.7634 153.142 67.7724C153.241 67.7724 153.34 67.7724 153.438 67.7724V70.7268H152.13V69H147.557V70.7268H146.248V67.7859ZM156.867 63.5498L156.786 65.0877C156.75 65.6723 156.697 66.185 156.625 66.6257C156.562 67.0664 156.436 67.4441 156.247 67.7589H159.201V63.5498H156.867ZM154.021 67.7859C154.102 67.7859 154.183 67.7859 154.264 67.7859C154.354 67.7859 154.435 67.7814 154.507 67.7724C154.821 67.5475 155.046 67.2327 155.181 66.828C155.316 66.4143 155.406 65.8477 155.451 65.1282L155.626 62.3222H160.618V67.7589C160.717 67.7589 160.816 67.7634 160.915 67.7724C161.013 67.7724 161.112 67.7724 161.211 67.7724V70.7268H159.903V69H155.329V70.7268H154.021V67.7859ZM163.682 66.1265V66.4638C163.682 66.6976 163.723 66.9 163.804 67.0709C163.885 67.2327 163.988 67.3676 164.114 67.4756C164.249 67.5745 164.402 67.6509 164.573 67.7049C164.753 67.7499 164.937 67.7724 165.126 67.7724C165.333 67.7724 165.58 67.7364 165.868 67.6644C166.165 67.5925 166.457 67.4261 166.745 67.1653C166.889 67.3362 167.028 67.5026 167.163 67.6644C167.307 67.8173 167.446 67.9792 167.581 68.1501C167.203 68.5188 166.803 68.7662 166.381 68.8921C165.967 69.009 165.549 69.0675 165.126 69.0675C164.739 69.0675 164.37 69.018 164.02 68.9191C163.678 68.8201 163.372 68.6717 163.102 68.4739C162.842 68.267 162.635 68.0107 162.482 67.7049C162.329 67.3991 162.252 67.0394 162.252 66.6257V64.8719C162.252 64.4672 162.32 64.1029 162.455 63.7792C162.599 63.4554 162.797 63.1811 163.048 62.9562C163.3 62.7314 163.592 62.5605 163.925 62.4436C164.258 62.3177 164.622 62.2547 165.018 62.2547C165.423 62.2547 165.796 62.3132 166.138 62.4301C166.479 62.547 166.772 62.7179 167.015 62.9428C167.266 63.1586 167.46 63.4239 167.595 63.7387C167.73 64.0535 167.797 64.4132 167.797 64.8179V66.1265H163.682ZM166.354 64.8989C166.354 64.4312 166.223 64.0939 165.962 63.8871C165.702 63.6712 165.391 63.5633 165.031 63.5633C164.672 63.5633 164.357 63.6757 164.087 63.9006C163.826 64.1164 163.696 64.4447 163.696 64.8854V65.1012H166.354V64.8989ZM174.665 66.6796C174.665 67.4261 174.458 68.0152 174.045 68.4469C173.64 68.8696 173.064 69.0809 172.318 69.0809C172.084 69.0809 171.805 69.0585 171.482 69.0135C171.158 68.9685 170.802 68.8561 170.416 68.6762V71.6711H168.986V62.3222H170.281L170.416 62.9832C170.874 62.7044 171.266 62.5156 171.589 62.4166C171.913 62.3087 172.192 62.2547 172.426 62.2547C173.118 62.2547 173.662 62.4526 174.058 62.8483C174.463 63.235 174.665 63.8421 174.665 64.6695V66.6796ZM173.222 64.791C173.222 64.3413 173.123 64.0355 172.925 63.8736C172.736 63.7027 172.493 63.6173 172.197 63.6173C172.08 63.6173 171.945 63.6353 171.792 63.6712C171.648 63.7072 171.495 63.7567 171.333 63.8196C171.171 63.8826 171.009 63.9545 170.847 64.0355C170.695 64.1164 170.551 64.2019 170.416 64.2918V67.3407C170.776 67.4936 171.081 67.597 171.333 67.6509C171.594 67.7049 171.846 67.7319 172.089 67.7319C172.241 67.7319 172.385 67.7139 172.52 67.6779C172.664 67.642 172.786 67.579 172.885 67.4891C172.992 67.3901 173.073 67.2642 173.127 67.1113C173.19 66.9584 173.222 66.7696 173.222 66.5447V64.791ZM179.356 69V66.2344H178.802C178.65 66.2344 178.506 66.2434 178.371 66.2614C178.245 66.2794 178.128 66.3244 178.02 66.3963C177.921 66.4593 177.831 66.5537 177.75 66.6796C177.669 66.8055 177.602 66.9764 177.548 67.1923L177.022 69H175.457L176.158 66.828C176.266 66.4953 176.392 66.2165 176.536 65.9916C176.68 65.7578 176.914 65.5959 177.238 65.506C176.977 65.416 176.77 65.2676 176.617 65.0608C176.464 64.8449 176.334 64.5751 176.226 64.2513L175.578 62.3087H177.089L177.669 64.0625C177.804 64.4582 177.975 64.71 178.182 64.8179C178.389 64.9259 178.623 64.9798 178.883 64.9798H179.356V62.3087H180.786V64.9798H181.258C181.528 64.9798 181.766 64.9259 181.973 64.8179C182.18 64.71 182.346 64.4582 182.472 64.0625L183.052 62.3087H184.563L183.915 64.2513C183.807 64.5751 183.677 64.8449 183.524 65.0608C183.371 65.2676 183.164 65.416 182.904 65.506C183.227 65.5959 183.461 65.7578 183.605 65.9916C183.749 66.2165 183.875 66.4953 183.983 66.828L184.684 69H183.119L182.607 67.1923C182.544 66.9764 182.472 66.8055 182.391 66.6796C182.31 66.5537 182.216 66.4593 182.108 66.3963C182.009 66.3244 181.896 66.2794 181.77 66.2614C181.644 66.2434 181.501 66.2344 181.339 66.2344H180.786V69H179.356ZM185.599 69V62.3087H187.029V64.9798H187.879C188.148 64.9798 188.391 64.9259 188.607 64.8179C188.823 64.71 189.003 64.4582 189.147 64.0625L189.754 62.3087H191.265L190.577 64.2513C190.469 64.5751 190.338 64.8449 190.185 65.0608C190.041 65.2676 189.839 65.416 189.578 65.506C189.893 65.5959 190.122 65.7578 190.266 65.9916C190.41 66.2165 190.536 66.4953 190.644 66.828L191.386 69H189.821L189.268 67.1923C189.205 66.9854 189.129 66.819 189.039 66.6931C188.958 66.5672 188.863 66.4728 188.755 66.4098C188.647 66.3379 188.526 66.2929 188.391 66.2749C188.265 66.2479 188.121 66.2344 187.959 66.2344H187.029V69H185.599ZM196.606 64.6021L195.54 66.2749L193.678 69H192.397V62.3222H193.84V66.7066H193.894L194.879 65.2361L196.821 62.3222H198.117V69H196.673V64.6021H196.606Z" fill="#46474E"/>
</g>
</g>
<defs>
<filter id="filter0_d_5042_89509" x="0.372307" y="0.186153" width="397.255" height="305.255" filterUnits="userSpaceOnUse" color-interpolation-filters="sRGB">
<feFlood flood-opacity="0" result="BackgroundImageFix"/>
<feColorMatrix in="SourceAlpha" type="matrix" values="0 0 0 0 0 0 0 0 0 0 0 0 0 0 0 0 0 0 127 0" result="hardAlpha"/>
<feOffset dy="16.8138"/>
<feGaussianBlur stdDeviation="16.8138"/>
<feComposite in2="hardAlpha" operator="out"/>
<feColorMatrix type="matrix" values="0 0 0 0 0.27451 0 0 0 0 0.278431 0 0 0 0 0.305882 0 0 0 0.2 0"/>
<feBlend mode="multiply" in2="BackgroundImageFix" result="effect1_dropShadow_5042_89509"/>
<feBlend mode="normal" in="SourceGraphic" in2="effect1_dropShadow_5042_89509" result="shape"/>
</filter>
<clipPath id="clip0_5042_89509">
<rect x="38.5234" y="33" width="320.72" height="218.429" rx="8" fill="white"/>
</clipPath>
</defs>
</svg>
