<svg width="219" height="291" viewBox="0 0 219 291" fill="none" xmlns="http://www.w3.org/2000/svg">
<g filter="url(#filter0_d_5042_89401)">
<path d="M34 27.0883C34 21.5167 38.5167 17 44.0883 17H288.912C294.483 17 299 21.5167 299 27.0883V33H34V27.0883Z" fill="#E8E8E8"/>
<rect x="42.4141" y="22.4648" width="5.04415" height="5.04415" rx="2.52208" fill="#ED695E"/>
<rect x="50.8203" y="22.4648" width="5.04415" height="5.04415" rx="2.52208" fill="#F5BF4F"/>
<rect x="59.2305" y="22.4648" width="5.04415" height="5.04415" rx="2.52208" fill="#61C454"/>
<path d="M34 33H299V229.912C299 235.483 294.483 240 288.912 240H44.0883C38.5167 240 34 235.483 34 229.912V33Z" fill="#E8E8E8"/>
<g clip-path="url(#clip0_5042_89401)">
<rect x="39" y="33" width="255" height="202" rx="6" fill="#E8E8E8"/>
<path d="M118 81H286C290.418 81 294 84.5817 294 89V369H118V81Z" fill="#F3F0F0"/>
<path d="M39 89C39 84.5817 42.5817 81 47 81H118V369H39V89Z" fill="url(#paint0_linear_5042_89401)"/>
<path opacity="0.5" d="M51 98C51 95.2386 53.2386 93 56 93H98C100.761 93 103 95.2386 103 98C103 100.761 100.761 103 98 103H56C53.2386 103 51 100.761 51 98Z" fill="white" fill-opacity="0.8"/>
<path fill-rule="evenodd" clip-rule="evenodd" d="M68 119.5C68 118.119 69.1193 117 70.5 117H94.5C95.8807 117 97 118.119 97 119.5C97 120.881 95.8807 122 94.5 122H70.5C69.1193 122 68 120.881 68 119.5Z" fill="#FFE4B9"/>
<path fill-rule="evenodd" clip-rule="evenodd" d="M67.7695 126.707C67.7695 125.421 68.8116 124.379 70.0972 124.379H91.5113C92.7968 124.379 93.8389 125.421 93.8389 126.707C93.8389 127.992 92.7968 129.034 91.5113 129.034H70.0972C68.8116 129.034 67.7695 127.992 67.7695 126.707Z" fill="#FCCD82"/>
<path fill-rule="evenodd" clip-rule="evenodd" d="M58.4594 116C54.6049 116 51.4766 119.128 51.4766 122.983C51.4766 126.837 54.6049 129.966 58.4594 129.966C62.314 129.966 65.4423 126.837 65.4423 122.983C65.4423 119.128 62.314 116 58.4594 116ZM58.4581 118.094C59.6173 118.094 60.553 119.029 60.553 120.189C60.553 121.348 59.6173 122.283 58.4581 122.283C57.299 122.283 56.3633 121.348 56.3633 120.189C56.3633 119.029 57.299 118.094 58.4581 118.094ZM58.4593 128.012C56.7135 128.012 55.1703 127.119 54.2695 125.764C54.2905 124.374 57.0627 123.613 58.4593 123.613C59.8488 123.613 62.628 124.374 62.649 125.764C61.7482 127.119 60.205 128.012 58.4593 128.012Z" fill="white" fill-opacity="0.8"/>
<path fill-rule="evenodd" clip-rule="evenodd" d="M67.7695 143.933C67.7695 142.648 68.8116 141.605 70.0972 141.605H100.822C102.107 141.605 103.149 142.648 103.149 143.933C103.149 145.219 102.107 146.261 100.822 146.261H70.0972C68.8116 146.261 67.7695 145.219 67.7695 143.933Z" fill="#FFE4B9"/>
<path fill-rule="evenodd" clip-rule="evenodd" d="M68 151C68 149.895 68.8954 149 70 149H88C89.1046 149 90 149.895 90 151C90 152.105 89.1046 153 88 153H70C68.8954 153 68 152.105 68 151Z" fill="#FCCD82"/>
<path fill-rule="evenodd" clip-rule="evenodd" d="M58.4594 140.203C54.6049 140.203 51.4766 143.331 51.4766 147.186C51.4766 151.041 54.6049 154.169 58.4594 154.169C62.314 154.169 65.4423 151.041 65.4423 147.186C65.4423 143.331 62.314 140.203 58.4594 140.203ZM58.4581 142.297C59.6173 142.297 60.553 143.233 60.553 144.392C60.553 145.551 59.6173 146.487 58.4581 146.487C57.299 146.487 56.3633 145.551 56.3633 144.392C56.3633 143.233 57.299 142.297 58.4581 142.297ZM58.4593 152.216C56.7135 152.216 55.1703 151.322 54.2695 149.967C54.2905 148.578 57.0627 147.816 58.4593 147.816C59.8488 147.816 62.628 148.578 62.649 149.967C61.7482 151.322 60.205 152.216 58.4593 152.216Z" fill="white" fill-opacity="0.8"/>
<path fill-rule="evenodd" clip-rule="evenodd" d="M68 168C68 166.895 68.8954 166 70 166H92C93.1046 166 94 166.895 94 168C94 169.105 93.1046 170 92 170H70C68.8954 170 68 169.105 68 168Z" fill="#FFE4B9"/>
<path fill-rule="evenodd" clip-rule="evenodd" d="M67.7695 175.121C67.7695 173.835 68.8116 172.793 70.0972 172.793H91.5113C92.7968 172.793 93.8389 173.835 93.8389 175.121C93.8389 176.406 92.7968 177.448 91.5113 177.448H70.0972C68.8116 177.448 67.7695 176.406 67.7695 175.121Z" fill="#FCCD82"/>
<path fill-rule="evenodd" clip-rule="evenodd" d="M58.4594 164.414C54.6049 164.414 51.4766 167.542 51.4766 171.397C51.4766 175.251 54.6049 178.38 58.4594 178.38C62.314 178.38 65.4423 175.251 65.4423 171.397C65.4423 167.542 62.314 164.414 58.4594 164.414ZM58.4581 166.508C59.6173 166.508 60.553 167.444 60.553 168.603C60.553 169.762 59.6173 170.698 58.4581 170.698C57.299 170.698 56.3633 169.762 56.3633 168.603C56.3633 167.444 57.299 166.508 58.4581 166.508ZM58.4593 176.427C56.7135 176.427 55.1703 175.533 54.2695 174.178C54.2905 172.788 57.0627 172.027 58.4593 172.027C59.8488 172.027 62.628 172.788 62.649 174.178C61.7482 175.533 60.205 176.427 58.4593 176.427Z" fill="white" fill-opacity="0.8"/>
<path fill-rule="evenodd" clip-rule="evenodd" d="M67.7695 192.347C67.7695 191.062 68.8116 190.02 70.0972 190.02H100.822C102.107 190.02 103.149 191.062 103.149 192.347C103.149 193.633 102.107 194.675 100.822 194.675H70.0972C68.8116 194.675 67.7695 193.633 67.7695 192.347Z" fill="#FFE4B9"/>
<path fill-rule="evenodd" clip-rule="evenodd" d="M68 199.5C68 198.119 69.1193 197 70.5 197H87.5C88.8807 197 90 198.119 90 199.5C90 200.881 88.8807 202 87.5 202H70.5C69.1193 202 68 200.881 68 199.5Z" fill="#FCCD82"/>
<path fill-rule="evenodd" clip-rule="evenodd" d="M58.4594 188.617C54.6049 188.617 51.4766 191.746 51.4766 195.6C51.4766 199.455 54.6049 202.583 58.4594 202.583C62.314 202.583 65.4423 199.455 65.4423 195.6C65.4423 191.746 62.314 188.617 58.4594 188.617ZM58.4581 190.711C59.6173 190.711 60.553 191.647 60.553 192.806C60.553 193.965 59.6173 194.901 58.4581 194.901C57.299 194.901 56.3633 193.965 56.3633 192.806C56.3633 191.647 57.299 190.711 58.4581 190.711ZM58.4593 200.63C56.7135 200.63 55.1703 199.736 54.2695 198.381C54.2905 196.992 57.0627 196.23 58.4593 196.23C59.8488 196.23 62.628 196.992 62.649 198.381C61.7482 199.736 60.205 200.63 58.4593 200.63Z" fill="white" fill-opacity="0.8"/>
<path fill-rule="evenodd" clip-rule="evenodd" d="M68 216.5C68 215.119 69.1193 214 70.5 214H87.5C88.8807 214 90 215.119 90 216.5C90 217.881 88.8807 219 87.5 219H70.5C69.1193 219 68 217.881 68 216.5Z" fill="#FFE4B9"/>
<path fill-rule="evenodd" clip-rule="evenodd" d="M67.7695 223.535C67.7695 222.249 68.8116 221.207 70.0972 221.207H91.5113C92.7968 221.207 93.8389 222.249 93.8389 223.535C93.8389 224.82 92.7968 225.862 91.5113 225.862H70.0972C68.8116 225.862 67.7695 224.82 67.7695 223.535Z" fill="#FCCD82"/>
<path fill-rule="evenodd" clip-rule="evenodd" d="M58.4594 212.828C54.6049 212.828 51.4766 215.956 51.4766 219.811C51.4766 223.666 54.6049 226.794 58.4594 226.794C62.314 226.794 65.4423 223.666 65.4423 219.811C65.4423 215.956 62.314 212.828 58.4594 212.828ZM58.4581 214.922C59.6173 214.922 60.553 215.858 60.553 217.017C60.553 218.176 59.6173 219.112 58.4581 219.112C57.299 219.112 56.3633 218.176 56.3633 217.017C56.3633 215.858 57.299 214.922 58.4581 214.922ZM58.4593 224.841C56.7135 224.841 55.1703 223.947 54.2695 222.592C54.2905 221.203 57.0627 220.441 58.4593 220.441C59.8488 220.441 62.628 221.203 62.649 222.592C61.7482 223.947 60.205 224.841 58.4593 224.841Z" fill="white" fill-opacity="0.8"/>
<path fill-rule="evenodd" clip-rule="evenodd" d="M148.652 95.9303C148.652 94.3119 149.964 93 151.583 93H250.48C252.099 93 253.411 94.3119 253.411 95.9303V123.768C253.411 125.387 252.099 126.699 250.48 126.699H151.583C149.964 126.699 148.652 125.387 148.652 123.768V95.9303Z" fill="white"/>
<path fill-rule="evenodd" clip-rule="evenodd" d="M154.512 106.92C154.512 105.707 155.496 104.723 156.709 104.723H166.966C168.179 104.723 169.163 105.707 169.163 106.92C169.163 108.134 168.179 109.118 166.966 109.118H156.709C155.496 109.118 154.512 108.134 154.512 106.92Z" fill="#E8E8E8"/>
<path fill-rule="evenodd" clip-rule="evenodd" d="M177.953 101.061C177.953 99.8472 178.937 98.8633 180.151 98.8633H190.407C191.621 98.8633 192.605 99.8472 192.605 101.061C192.605 102.275 191.621 103.259 190.407 103.259H180.151C178.937 103.259 177.953 102.275 177.953 101.061Z" fill="#FCCD82"/>
<path fill-rule="evenodd" clip-rule="evenodd" d="M154.512 101.061C154.512 99.8472 155.496 98.8633 156.709 98.8633H174.291C175.505 98.8633 176.489 99.8472 176.489 101.061C176.489 102.275 175.505 103.259 174.291 103.259H156.709C155.496 103.259 154.512 102.275 154.512 101.061Z" fill="#FCCD82"/>
<path fill-rule="evenodd" clip-rule="evenodd" d="M186.012 118.643C186.012 117.429 186.996 116.445 188.209 116.445H198.466C199.679 116.445 200.663 117.429 200.663 118.643C200.663 119.857 199.679 120.841 198.466 120.841H188.209C186.996 120.841 186.012 119.857 186.012 118.643Z" fill="#E8E8E8"/>
<path fill-rule="evenodd" clip-rule="evenodd" d="M202.129 106.92C202.129 105.707 203.113 104.723 204.327 104.723H214.583C215.796 104.723 216.78 105.707 216.78 106.92C216.78 108.134 215.796 109.118 214.583 109.118H204.327C203.113 109.118 202.129 108.134 202.129 106.92Z" fill="#E8E8E8"/>
<path fill-rule="evenodd" clip-rule="evenodd" d="M170.629 106.92C170.629 105.707 171.613 104.723 172.827 104.723H198.467C199.681 104.723 200.665 105.707 200.665 106.92C200.665 108.134 199.681 109.118 198.467 109.118H172.827C171.613 109.118 170.629 108.134 170.629 106.92Z" fill="#E8E8E8"/>
<path fill-rule="evenodd" clip-rule="evenodd" d="M154.512 118.643C154.512 117.429 155.496 116.445 156.709 116.445H182.35C183.563 116.445 184.547 117.429 184.547 118.643C184.547 119.857 183.563 120.841 182.35 120.841H156.709C155.496 120.841 154.512 119.857 154.512 118.643Z" fill="#E8E8E8"/>
<path fill-rule="evenodd" clip-rule="evenodd" d="M218.246 106.92C218.246 105.707 219.23 104.723 220.444 104.723H246.084C247.298 104.723 248.282 105.707 248.282 106.92C248.282 108.134 247.298 109.118 246.084 109.118H220.444C219.23 109.118 218.246 108.134 218.246 106.92Z" fill="#E8E8E8"/>
<path fill-rule="evenodd" clip-rule="evenodd" d="M154.512 112.784C154.512 111.57 155.496 110.586 156.709 110.586H193.338C194.552 110.586 195.536 111.57 195.536 112.784C195.536 113.997 194.552 114.981 193.338 114.981H156.709C155.496 114.981 154.512 113.997 154.512 112.784Z" fill="#E8E8E8"/>
<path fill-rule="evenodd" clip-rule="evenodd" d="M197 112.784C197 111.57 197.984 110.586 199.198 110.586H235.827C237.04 110.586 238.024 111.57 238.024 112.784C238.024 113.997 237.04 114.981 235.827 114.981H199.198C197.984 114.981 197 113.997 197 112.784Z" fill="#E8E8E8"/>
<path fill-rule="evenodd" clip-rule="evenodd" d="M202.129 118.643C202.129 117.429 203.113 116.445 204.327 116.445H240.955C242.169 116.445 243.153 117.429 243.153 118.643C243.153 119.857 242.169 120.841 240.955 120.841H204.327C203.113 120.841 202.129 119.857 202.129 118.643Z" fill="#E8E8E8"/>
<path fill-rule="evenodd" clip-rule="evenodd" d="M140.138 93C136.75 93 134 95.7497 134 99.1378C134 102.526 136.75 105.276 140.138 105.276C143.526 105.276 146.276 102.526 146.276 99.1378C146.276 95.7497 143.526 93 140.138 93ZM140.138 94.8398C141.157 94.8398 141.98 95.6623 141.98 96.6812C141.98 97.7001 141.157 98.5225 140.138 98.5225C139.119 98.5225 138.297 97.7001 138.297 96.6812C138.297 95.6623 139.119 94.8398 140.138 94.8398ZM140.14 103.558C138.605 103.558 137.249 102.773 136.457 101.582C136.475 100.36 138.912 99.6914 140.14 99.6914C141.361 99.6914 143.804 100.36 143.822 101.582C143.031 102.773 141.674 103.558 140.14 103.558Z" fill="#FFA469"/>
<path fill-rule="evenodd" clip-rule="evenodd" d="M148.652 188.235C148.652 186.617 149.964 185.305 151.583 185.305H252.678C254.297 185.305 255.609 186.617 255.609 188.235V216.073C255.609 217.691 254.297 219.003 252.678 219.003H151.583C149.964 219.003 148.652 217.691 148.652 216.073V188.235Z" fill="white"/>
<path fill-rule="evenodd" clip-rule="evenodd" d="M154.512 199.225C154.512 198.011 155.496 197.027 156.709 197.027H166.966C168.179 197.027 169.163 198.011 169.163 199.225C169.163 200.439 168.179 201.423 166.966 201.423H156.709C155.496 201.423 154.512 200.439 154.512 199.225Z" fill="#E8E8E8"/>
<path fill-rule="evenodd" clip-rule="evenodd" d="M177.953 193.366C177.953 192.152 178.937 191.168 180.151 191.168H190.407C191.621 191.168 192.605 192.152 192.605 193.366C192.605 194.579 191.621 195.563 190.407 195.563H180.151C178.937 195.563 177.953 194.579 177.953 193.366Z" fill="#FCCD82"/>
<path fill-rule="evenodd" clip-rule="evenodd" d="M154.512 193.366C154.512 192.152 155.496 191.168 156.709 191.168H174.291C175.505 191.168 176.489 192.152 176.489 193.366C176.489 194.579 175.505 195.563 174.291 195.563H156.709C155.496 195.563 154.512 194.579 154.512 193.366Z" fill="#FCCD82"/>
<path fill-rule="evenodd" clip-rule="evenodd" d="M186.012 210.948C186.012 209.734 186.996 208.75 188.209 208.75H198.466C199.679 208.75 200.663 209.734 200.663 210.948C200.663 212.162 199.679 213.145 198.466 213.145H188.209C186.996 213.145 186.012 212.162 186.012 210.948Z" fill="#E8E8E8"/>
<path fill-rule="evenodd" clip-rule="evenodd" d="M202.129 199.225C202.129 198.011 203.113 197.027 204.327 197.027H214.583C215.796 197.027 216.78 198.011 216.78 199.225C216.78 200.439 215.796 201.423 214.583 201.423H204.327C203.113 201.423 202.129 200.439 202.129 199.225Z" fill="#E8E8E8"/>
<path fill-rule="evenodd" clip-rule="evenodd" d="M170.629 199.225C170.629 198.011 171.613 197.027 172.827 197.027H198.467C199.681 197.027 200.665 198.011 200.665 199.225C200.665 200.439 199.681 201.423 198.467 201.423H172.827C171.613 201.423 170.629 200.439 170.629 199.225Z" fill="#E8E8E8"/>
<path fill-rule="evenodd" clip-rule="evenodd" d="M154.512 210.948C154.512 209.734 155.496 208.75 156.709 208.75H182.35C183.563 208.75 184.547 209.734 184.547 210.948C184.547 212.162 183.563 213.145 182.35 213.145H156.709C155.496 213.145 154.512 212.162 154.512 210.948Z" fill="#E8E8E8"/>
<path fill-rule="evenodd" clip-rule="evenodd" d="M154.512 205.088C154.512 203.875 155.496 202.891 156.709 202.891H193.338C194.552 202.891 195.536 203.875 195.536 205.088C195.536 206.302 194.552 207.286 193.338 207.286H156.709C155.496 207.286 154.512 206.302 154.512 205.088Z" fill="#E8E8E8"/>
<path fill-rule="evenodd" clip-rule="evenodd" d="M197 205.088C197 203.875 197.984 202.891 199.198 202.891H235.827C237.04 202.891 238.024 203.875 238.024 205.088C238.024 206.302 237.04 207.286 235.827 207.286H199.198C197.984 207.286 197 206.302 197 205.088Z" fill="#E8E8E8"/>
<path fill-rule="evenodd" clip-rule="evenodd" d="M202.129 210.948C202.129 209.734 203.113 208.75 204.327 208.75H240.955C242.169 208.75 243.153 209.734 243.153 210.948C243.153 212.162 242.169 213.145 240.955 213.145H204.327C203.113 213.145 202.129 212.162 202.129 210.948Z" fill="#E8E8E8"/>
<path fill-rule="evenodd" clip-rule="evenodd" d="M140.138 185.305C136.75 185.305 134 188.054 134 191.442C134 194.831 136.75 197.58 140.138 197.58C143.526 197.58 146.276 194.831 146.276 191.442C146.276 188.054 143.526 185.305 140.138 185.305ZM140.138 187.145C141.157 187.145 141.98 187.967 141.98 188.986C141.98 190.005 141.157 190.827 140.138 190.827C139.119 190.827 138.297 190.005 138.297 188.986C138.297 187.967 139.119 187.145 140.138 187.145ZM140.14 195.863C138.605 195.863 137.249 195.077 136.457 193.887C136.475 192.665 138.912 191.996 140.14 191.996C141.361 191.996 143.804 192.665 143.822 193.887C143.031 195.077 141.674 195.863 140.14 195.863Z" fill="#FFA469"/>
<path fill-rule="evenodd" clip-rule="evenodd" d="M163.301 142.083C163.301 140.464 164.613 139.152 166.231 139.152H266.594C268.212 139.152 269.524 140.464 269.524 142.083V169.921C269.524 171.539 268.212 172.851 266.594 172.851H166.231C164.613 172.851 163.301 171.539 163.301 169.921V142.083Z" fill="white"/>
<path fill-rule="evenodd" clip-rule="evenodd" d="M169.895 153.073C169.895 151.859 170.878 150.875 172.092 150.875H182.348C183.562 150.875 184.546 151.859 184.546 153.073C184.546 154.287 183.562 155.27 182.348 155.27H172.092C170.878 155.27 169.895 154.287 169.895 153.073Z" fill="#E8E8E8"/>
<path fill-rule="evenodd" clip-rule="evenodd" d="M206.523 164.795C206.523 163.582 207.507 162.598 208.721 162.598H218.977C220.191 162.598 221.175 163.582 221.175 164.795C221.175 166.009 220.191 166.993 218.977 166.993H208.721C207.507 166.993 206.523 166.009 206.523 164.795Z" fill="#E8E8E8"/>
<path fill-rule="evenodd" clip-rule="evenodd" d="M217.512 153.073C217.512 151.859 218.496 150.875 219.709 150.875H229.966C231.179 150.875 232.163 151.859 232.163 153.073C232.163 154.287 231.179 155.27 229.966 155.27H219.709C218.496 155.27 217.512 154.287 217.512 153.073Z" fill="#E8E8E8"/>
<path fill-rule="evenodd" clip-rule="evenodd" d="M186.012 153.073C186.012 151.859 186.996 150.875 188.209 150.875H213.85C215.063 150.875 216.047 151.859 216.047 153.073C216.047 154.287 215.063 155.27 213.85 155.27H188.209C186.996 155.27 186.012 154.287 186.012 153.073Z" fill="#E8E8E8"/>
<path fill-rule="evenodd" clip-rule="evenodd" d="M180.152 158.936C180.152 157.722 181.136 156.738 182.35 156.738H218.979C220.193 156.738 221.177 157.722 221.177 158.936C221.177 160.15 220.193 161.134 218.979 161.134H182.35C181.136 161.134 180.152 160.15 180.152 158.936Z" fill="#E8E8E8"/>
<path d="M52.9291 44.6915V47.3627C52.9291 48.0282 53.091 48.5094 53.4148 48.8061C53.7476 49.1029 54.2332 49.2513 54.8718 49.2513C55.2225 49.2513 55.5688 49.1884 55.9106 49.0625C56.2523 48.9276 56.5491 48.7792 56.8009 48.6173V44.6915H58.3523V53.9865H56.7874V50.0338C56.4816 50.2137 56.1444 50.3576 55.7756 50.4655C55.4069 50.5734 55.0292 50.6274 54.6424 50.6274C53.5902 50.6274 52.7807 50.3621 52.2141 49.8314C51.6565 49.2918 51.3777 48.5318 51.3777 47.5515V44.6915H52.9291ZM63.8647 53.3929C63.388 53.6627 62.9833 53.8426 62.6505 53.9325C62.3268 54.0135 62.0255 54.054 61.7467 54.054C61.0811 54.054 60.5595 53.8741 60.1818 53.5143C59.804 53.1546 59.6152 52.6599 59.6152 52.0304C59.6152 51.6616 59.6961 51.3514 59.858 51.0995C60.0199 50.8477 60.2222 50.6454 60.4651 50.4925C60.7079 50.3306 60.9687 50.2137 61.2475 50.1417C61.5353 50.0698 61.8006 50.0338 62.0435 50.0338H63.8917V49.6291C63.8917 49.2333 63.7793 48.95 63.5544 48.7792C63.3296 48.6083 62.9833 48.5228 62.5156 48.5228C62.2908 48.5228 62.012 48.5588 61.6792 48.6308C61.3555 48.6937 61.0272 48.8601 60.6944 49.1299L60.0334 48.0642C60.4831 47.7224 60.9327 47.5021 61.3824 47.4031C61.8411 47.2952 62.2638 47.2412 62.6505 47.2412C63.5679 47.2412 64.2424 47.4436 64.6741 47.8483C65.1058 48.253 65.3217 48.8691 65.3217 49.6965V54H64.0266L63.9052 53.4199L63.8647 53.3929ZM63.8917 51.14H62.2863C62.1604 51.14 62.03 51.149 61.8951 51.167C61.7602 51.185 61.6343 51.2254 61.5173 51.2884C61.4094 51.3424 61.315 51.4233 61.234 51.5312C61.1621 51.6392 61.1261 51.7876 61.1261 51.9764C61.1261 52.2282 61.2161 52.4261 61.3959 52.57C61.5758 52.7049 61.8141 52.7724 62.1109 52.7724C62.2728 52.7724 62.4347 52.7544 62.5966 52.7184C62.7585 52.6734 62.9159 52.624 63.0687 52.57C63.2306 52.507 63.379 52.4396 63.5139 52.3676C63.6578 52.2957 63.7837 52.2282 63.8917 52.1653V51.14ZM69.5275 48.5498V54H68.0706V48.5498H66.0875V47.3087H71.5107V48.5498H69.5275ZM78.5124 48.5498V54H77.0555V48.5498H75.0724V47.3087H80.4956V48.5498H78.5124ZM82.6533 51.1265V51.4638C82.6533 51.6976 82.6938 51.9 82.7747 52.0709C82.8557 52.2327 82.9591 52.3676 83.085 52.4756C83.2199 52.5745 83.3728 52.6509 83.5437 52.7049C83.7235 52.7499 83.9079 52.7724 84.0968 52.7724C84.3036 52.7724 84.551 52.7364 84.8388 52.6644C85.1356 52.5925 85.4279 52.4261 85.7157 52.1653C85.8595 52.3362 85.999 52.5026 86.1339 52.6644C86.2778 52.8173 86.4172 52.9792 86.5521 53.1501C86.1743 53.5188 85.7741 53.7662 85.3514 53.8921C84.9377 54.009 84.5195 54.0675 84.0968 54.0675C83.7101 54.0675 83.3413 54.018 82.9906 53.9191C82.6488 53.8201 82.343 53.6717 82.0732 53.4739C81.8124 53.267 81.6055 53.0107 81.4526 52.7049C81.2998 52.3991 81.2233 52.0394 81.2233 51.6257V49.8719C81.2233 49.4672 81.2908 49.1029 81.4257 48.7792C81.5696 48.4554 81.7674 48.1811 82.0192 47.9562C82.2711 47.7314 82.5634 47.5605 82.8961 47.4436C83.2289 47.3177 83.5931 47.2547 83.9889 47.2547C84.3936 47.2547 84.7668 47.3132 85.1086 47.4301C85.4503 47.547 85.7426 47.7179 85.9855 47.9428C86.2373 48.1586 86.4306 48.4239 86.5656 48.7387C86.7005 49.0535 86.7679 49.4132 86.7679 49.8179V51.1265H82.6533ZM85.3244 49.8989C85.3244 49.4312 85.194 49.0939 84.9332 48.8871C84.6724 48.6712 84.3621 48.5633 84.0024 48.5633C83.6426 48.5633 83.3278 48.6757 83.058 48.9006C82.7972 49.1164 82.6668 49.4447 82.6668 49.8854V50.1012H85.3244V49.8989ZM91.8284 54L90.4254 51.6931L88.9954 54H87.2956L89.6565 50.5869L87.417 47.3087H89.1303L90.4254 49.4807L91.7475 47.3087H93.4608L91.1944 50.5599L93.5552 54H91.8284ZM98.543 54V51.2344H95.7235V54H94.307V47.3222H95.7235V49.9933H98.543V47.3222H99.9865V54H98.543ZM105.551 49.6021L104.485 51.2749L102.623 54H101.342V47.3222H102.785V51.7066H102.839L103.824 50.2361L105.767 47.3222H107.062V54H105.618V49.6021H105.551ZM109.536 47.3087V49.2648C109.536 49.7055 109.64 50.0158 109.846 50.1957C110.062 50.3755 110.341 50.4655 110.683 50.4655C110.926 50.4655 111.195 50.416 111.492 50.3171C111.798 50.2182 112.095 50.0788 112.383 49.8989V47.3087H113.799V54H112.383V51.1805C111.951 51.4143 111.573 51.5672 111.249 51.6392C110.935 51.7111 110.651 51.7471 110.4 51.7471C109.689 51.7471 109.127 51.5537 108.713 51.167C108.308 50.7803 108.106 50.2047 108.106 49.4402V47.3087H109.536ZM116.472 51.1265V51.4638C116.472 51.6976 116.512 51.9 116.593 52.0709C116.674 52.2327 116.778 52.3676 116.904 52.4756C117.038 52.5745 117.191 52.6509 117.362 52.7049C117.542 52.7499 117.726 52.7724 117.915 52.7724C118.122 52.7724 118.369 52.7364 118.657 52.6644C118.954 52.5925 119.246 52.4261 119.534 52.1653C119.678 52.3362 119.817 52.5026 119.952 52.6644C120.096 52.8173 120.236 52.9792 120.371 53.1501C119.993 53.5188 119.593 53.7662 119.17 53.8921C118.756 54.009 118.338 54.0675 117.915 54.0675C117.529 54.0675 117.16 54.018 116.809 53.9191C116.467 53.8201 116.162 53.6717 115.892 53.4739C115.631 53.267 115.424 53.0107 115.271 52.7049C115.118 52.3991 115.042 52.0394 115.042 51.6257V49.8719C115.042 49.4672 115.109 49.1029 115.244 48.7792C115.388 48.4554 115.586 48.1811 115.838 47.9562C116.09 47.7314 116.382 47.5605 116.715 47.4436C117.047 47.3177 117.412 47.2547 117.807 47.2547C118.212 47.2547 118.585 47.3132 118.927 47.4301C119.269 47.547 119.561 47.7179 119.804 47.9428C120.056 48.1586 120.249 48.4239 120.384 48.7387C120.519 49.0535 120.586 49.4132 120.586 49.8179V51.1265H116.472ZM119.143 49.8989C119.143 49.4312 119.013 49.0939 118.752 48.8871C118.491 48.6712 118.181 48.5633 117.821 48.5633C117.461 48.5633 117.146 48.6757 116.877 48.9006C116.616 49.1164 116.485 49.4447 116.485 49.8854V50.1012H119.143V49.8989ZM126.794 53.1636C126.434 53.5323 126.052 53.7752 125.647 53.8921C125.242 54.009 124.838 54.0675 124.433 54.0675C124.055 54.0675 123.7 54.0135 123.367 53.9056C123.034 53.7976 122.747 53.6403 122.504 53.4334C122.261 53.2265 122.067 52.9792 121.924 52.6914C121.789 52.3946 121.721 52.0574 121.721 51.6796V49.6965C121.721 49.3008 121.798 48.95 121.951 48.6443C122.103 48.3385 122.306 48.0822 122.558 47.8753C122.809 47.6684 123.097 47.5111 123.421 47.4031C123.745 47.2952 124.078 47.2412 124.419 47.2412C124.617 47.2412 124.82 47.2547 125.026 47.2817C125.233 47.2997 125.436 47.3402 125.633 47.4031C125.84 47.4571 126.038 47.5425 126.227 47.6595C126.425 47.7674 126.614 47.9158 126.794 48.1046L125.957 49.1704C125.651 48.8916 125.377 48.7207 125.134 48.6578C124.9 48.5948 124.694 48.5633 124.514 48.5633C124.361 48.5633 124.203 48.5903 124.042 48.6443C123.88 48.6892 123.731 48.7657 123.596 48.8736C123.47 48.9815 123.363 49.1254 123.273 49.3053C123.192 49.4762 123.151 49.6875 123.151 49.9394V51.3693C123.151 51.6212 123.187 51.837 123.259 52.0169C123.34 52.1878 123.444 52.3272 123.569 52.4351C123.695 52.543 123.839 52.624 124.001 52.6779C124.163 52.7229 124.329 52.7454 124.5 52.7454C124.689 52.7454 124.918 52.7049 125.188 52.624C125.458 52.534 125.701 52.3856 125.917 52.1788L126.794 53.1636ZM127.73 54V47.3087H129.16V49.9798H130.01C130.28 49.9798 130.523 49.9259 130.738 49.8179C130.954 49.71 131.134 49.4582 131.278 49.0625L131.885 47.3087H133.396L132.708 49.2513C132.6 49.5751 132.47 49.8449 132.317 50.0608C132.173 50.2676 131.971 50.416 131.71 50.506C132.024 50.5959 132.254 50.7578 132.398 50.9916C132.542 51.2165 132.668 51.4953 132.775 51.828L133.517 54H131.953L131.399 52.1923C131.336 51.9854 131.26 51.819 131.17 51.6931C131.089 51.5672 130.995 51.4728 130.887 51.4098C130.779 51.3379 130.657 51.2929 130.523 51.2749C130.397 51.2479 130.253 51.2344 130.091 51.2344H129.16V54H127.73ZM140.14 51.6392C140.14 52.0349 140.059 52.3856 139.897 52.6914C139.744 52.9972 139.533 53.2535 139.263 53.4604C139.002 53.6582 138.701 53.8111 138.359 53.9191C138.017 54.018 137.662 54.0675 137.294 54.0675C136.916 54.0675 136.552 54.018 136.201 53.9191C135.859 53.8111 135.558 53.6582 135.297 53.4604C135.045 53.2535 134.843 52.9972 134.69 52.6914C134.537 52.3856 134.46 52.0349 134.46 51.6392V49.6965C134.46 49.3008 134.537 48.95 134.69 48.6443C134.852 48.3385 135.063 48.0822 135.324 47.8753C135.585 47.6684 135.886 47.5111 136.228 47.4031C136.57 47.2952 136.929 47.2412 137.307 47.2412C137.712 47.2412 138.085 47.2952 138.427 47.4031C138.768 47.5111 139.065 47.6729 139.317 47.8888C139.578 48.0956 139.78 48.352 139.924 48.6578C140.068 48.9635 140.14 49.3143 140.14 49.71V51.6392ZM138.724 49.9528C138.724 49.701 138.679 49.4897 138.589 49.3188C138.508 49.1389 138.4 48.995 138.265 48.8871C138.13 48.7792 137.977 48.7027 137.806 48.6578C137.635 48.6038 137.469 48.5768 137.307 48.5768C137.145 48.5768 136.979 48.6038 136.808 48.6578C136.637 48.7027 136.484 48.7792 136.349 48.8871C136.214 48.995 136.102 49.1389 136.012 49.3188C135.931 49.4897 135.89 49.701 135.89 49.9528V51.3693C135.89 51.873 136.03 52.2282 136.309 52.4351C136.588 52.642 136.92 52.7454 137.307 52.7454C137.469 52.7454 137.635 52.7229 137.806 52.6779C137.977 52.624 138.13 52.543 138.265 52.4351C138.4 52.3272 138.508 52.1878 138.589 52.0169C138.679 51.837 138.724 51.6212 138.724 51.3693V49.9528ZM144.197 46.3644C143.819 46.3644 143.504 46.3014 143.253 46.1755C143.01 46.0496 142.807 45.8922 142.645 45.7033C142.493 45.5145 142.38 45.3121 142.308 45.0963C142.245 44.8804 142.209 44.678 142.2 44.4892H143.306C143.315 44.5791 143.338 44.6736 143.374 44.7725C143.419 44.8714 143.477 44.9658 143.549 45.0558C143.63 45.1367 143.725 45.2087 143.833 45.2716C143.941 45.3256 144.062 45.3526 144.197 45.3526C144.35 45.3526 144.48 45.3256 144.588 45.2716C144.705 45.2087 144.799 45.1367 144.871 45.0558C144.952 44.9658 145.011 44.8714 145.047 44.7725C145.083 44.6736 145.101 44.5791 145.101 44.4892H146.193C146.175 44.678 146.131 44.8804 146.059 45.0963C145.987 45.3121 145.874 45.5145 145.721 45.7033C145.577 45.8922 145.38 46.0496 145.128 46.1755C144.885 46.3014 144.575 46.3644 144.197 46.3644ZM145.64 49.6021L144.575 51.2749L142.713 54H141.431V47.3222H142.875V51.7066H142.929L143.914 50.2361L145.856 47.3222H147.151V54H145.708V49.6021H145.64ZM55.8971 67V61.5768H53.091V67H51.661V60.3222H57.3405V67H55.8971ZM64.2558 64.6392C64.2558 65.0349 64.1749 65.3856 64.013 65.6914C63.8601 65.9972 63.6487 66.2535 63.3789 66.4604C63.1181 66.6582 62.8168 66.8111 62.4751 66.9191C62.1333 67.018 61.7781 67.0675 61.4093 67.0675C61.0316 67.0675 60.6673 67.018 60.3166 66.9191C59.9748 66.8111 59.6735 66.6582 59.4127 66.4604C59.1609 66.2535 58.9585 65.9972 58.8056 65.6914C58.6527 65.3856 58.5763 65.0349 58.5763 64.6392V62.6965C58.5763 62.3008 58.6527 61.95 58.8056 61.6443C58.9675 61.3385 59.1789 61.0822 59.4397 60.8753C59.7005 60.6684 60.0018 60.5111 60.3436 60.4031C60.6853 60.2952 61.0451 60.2412 61.4228 60.2412C61.8275 60.2412 62.2008 60.2952 62.5425 60.4031C62.8843 60.5111 63.1811 60.6729 63.4329 60.8888C63.6937 61.0956 63.8961 61.352 64.04 61.6578C64.1839 61.9635 64.2558 62.3143 64.2558 62.71V64.6392ZM62.8393 62.9528C62.8393 62.701 62.7943 62.4897 62.7044 62.3188C62.6235 62.1389 62.5155 61.995 62.3806 61.8871C62.2457 61.7792 62.0928 61.7027 61.9219 61.6578C61.7511 61.6038 61.5847 61.5768 61.4228 61.5768C61.2609 61.5768 61.0945 61.6038 60.9237 61.6578C60.7528 61.7027 60.5999 61.7792 60.465 61.8871C60.3301 61.995 60.2176 62.1389 60.1277 62.3188C60.0468 62.4897 60.0063 62.701 60.0063 62.9528V64.3693C60.0063 64.873 60.1457 65.2282 60.4245 65.4351C60.7033 65.642 61.0361 65.7454 61.4228 65.7454C61.5847 65.7454 61.7511 65.7229 61.9219 65.6779C62.0928 65.624 62.2457 65.543 62.3806 65.4351C62.5155 65.3272 62.6235 65.1878 62.7044 65.0169C62.7943 64.837 62.8393 64.6212 62.8393 64.3693V62.9528ZM67.881 61.5498L67.8 63.0877C67.764 63.6723 67.7101 64.185 67.6381 64.6257C67.5752 65.0664 67.4493 65.4441 67.2604 65.7589H70.2148V61.5498H67.881ZM65.0345 65.7859C65.1154 65.7859 65.1964 65.7859 65.2773 65.7859C65.3672 65.7859 65.4482 65.7814 65.5201 65.7724C65.8349 65.5475 66.0597 65.2327 66.1947 64.828C66.3296 64.4143 66.4195 63.8477 66.4645 63.1282L66.6398 60.3222H71.6313V65.7589C71.7303 65.7589 71.8292 65.7634 71.9281 65.7724C72.0271 65.7724 72.126 65.7724 72.2249 65.7724V68.7268H70.9163V67H66.343V68.7268H65.0345V65.7859ZM75.6538 61.5498L75.5729 63.0877C75.5369 63.6723 75.4829 64.185 75.411 64.6257C75.348 65.0664 75.2221 65.4441 75.0333 65.7589H77.9877V61.5498H75.6538ZM72.8073 65.7859C72.8883 65.7859 72.9692 65.7859 73.0502 65.7859C73.1401 65.7859 73.221 65.7814 73.293 65.7724C73.6078 65.5475 73.8326 65.2327 73.9675 64.828C74.1024 64.4143 74.1924 63.8477 74.2373 63.1282L74.4127 60.3222H79.4042V65.7589C79.5031 65.7589 79.6021 65.7634 79.701 65.7724C79.7999 65.7724 79.8988 65.7724 79.9978 65.7724V68.7268H78.6892V67H74.1159V68.7268H72.8073V65.7859ZM82.4689 64.1265V64.4638C82.4689 64.6976 82.5093 64.9 82.5903 65.0709C82.6712 65.2327 82.7746 65.3676 82.9006 65.4756C83.0355 65.5745 83.1884 65.6509 83.3592 65.7049C83.5391 65.7499 83.7235 65.7724 83.9123 65.7724C84.1192 65.7724 84.3665 65.7364 84.6543 65.6644C84.9511 65.5925 85.2434 65.4261 85.5312 65.1653C85.6751 65.3362 85.8145 65.5026 85.9494 65.6644C86.0933 65.8173 86.2327 65.9792 86.3676 66.1501C85.9899 66.5188 85.5897 66.7662 85.167 66.8921C84.7533 67.009 84.335 67.0675 83.9123 67.0675C83.5256 67.0675 83.1569 67.018 82.8061 66.9191C82.4644 66.8201 82.1586 66.6717 81.8888 66.4739C81.628 66.267 81.4211 66.0107 81.2682 65.7049C81.1153 65.3991 81.0389 65.0394 81.0389 64.6257V62.8719C81.0389 62.4672 81.1063 62.1029 81.2412 61.7792C81.3851 61.4554 81.583 61.1811 81.8348 60.9562C82.0866 60.7314 82.3789 60.5605 82.7117 60.4436C83.0445 60.3177 83.4087 60.2547 83.8044 60.2547C84.2091 60.2547 84.5824 60.3132 84.9241 60.4301C85.2659 60.547 85.5582 60.7179 85.801 60.9428C86.0528 61.1586 86.2462 61.4239 86.3811 61.7387C86.516 62.0535 86.5835 62.4132 86.5835 62.8179V64.1265H82.4689ZM85.14 62.8989C85.14 62.4312 85.0096 62.0939 84.7488 61.8871C84.4879 61.6712 84.1777 61.5633 83.8179 61.5633C83.4582 61.5633 83.1434 61.6757 82.8736 61.9006C82.6128 62.1164 82.4824 62.4447 82.4824 62.8854V63.1012H85.14V62.8989ZM93.4517 64.6796C93.4517 65.4261 93.2449 66.0152 92.8312 66.4469C92.4264 66.8696 91.8509 67.0809 91.1044 67.0809C90.8705 67.0809 90.5917 67.0585 90.268 67.0135C89.9442 66.9685 89.5889 66.8561 89.2022 66.6762V69.6711H87.7722V60.3222H89.0673L89.2022 60.9832C89.6609 60.7044 90.0521 60.5156 90.3759 60.4166C90.6997 60.3087 90.9785 60.2547 91.2123 60.2547C91.9048 60.2547 92.4489 60.4526 92.8447 60.8483C93.2494 61.235 93.4517 61.8421 93.4517 62.6695V64.6796ZM92.0082 62.791C92.0082 62.3413 91.9093 62.0355 91.7114 61.8736C91.5226 61.7027 91.2798 61.6173 90.983 61.6173C90.866 61.6173 90.7311 61.6353 90.5782 61.6712C90.4343 61.7072 90.2815 61.7567 90.1196 61.8196C89.9577 61.8826 89.7958 61.9545 89.6339 62.0355C89.481 62.1164 89.3371 62.2019 89.2022 62.2918V65.3407C89.562 65.4936 89.8677 65.597 90.1196 65.6509C90.3804 65.7049 90.6322 65.7319 90.875 65.7319C91.0279 65.7319 91.1718 65.7139 91.3067 65.6779C91.4506 65.642 91.572 65.579 91.671 65.4891C91.7789 65.3901 91.8598 65.2642 91.9138 65.1113C91.9768 64.9584 92.0082 64.7696 92.0082 64.5447V62.791ZM98.142 67V64.2344H97.5889C97.436 64.2344 97.2921 64.2434 97.1572 64.2614C97.0313 64.2794 96.9144 64.3244 96.8064 64.3963C96.7075 64.4593 96.6176 64.5537 96.5366 64.6796C96.4557 64.8055 96.3882 64.9764 96.3343 65.1923L95.8081 67H94.2432L94.9447 64.828C95.0527 64.4953 95.1786 64.2165 95.3225 63.9916C95.4664 63.7578 95.7002 63.5959 96.024 63.506C95.7632 63.416 95.5563 63.2676 95.4034 63.0608C95.2505 62.8449 95.1201 62.5751 95.0122 62.2513L94.3647 60.3087H95.8756L96.4557 62.0625C96.5906 62.4582 96.7615 62.71 96.9683 62.8179C97.1752 62.9259 97.409 62.9798 97.6698 62.9798H98.142V60.3087H99.572V62.9798H100.044C100.314 62.9798 100.552 62.9259 100.759 62.8179C100.966 62.71 101.132 62.4582 101.258 62.0625L101.838 60.3087H103.349L102.702 62.2513C102.594 62.5751 102.463 62.8449 102.311 63.0608C102.158 63.2676 101.951 63.416 101.69 63.506C102.014 63.5959 102.248 63.7578 102.392 63.9916C102.535 64.2165 102.661 64.4953 102.769 64.828L103.471 67H101.906L101.393 65.1923C101.33 64.9764 101.258 64.8055 101.177 64.6796C101.096 64.5537 101.002 64.4593 100.894 64.3963C100.795 64.3244 100.683 64.2794 100.557 64.2614C100.431 64.2434 100.287 64.2344 100.125 64.2344H99.572V67H98.142ZM104.385 67V60.3087H105.815V62.9798H106.665C106.935 62.9798 107.178 62.9259 107.393 62.8179C107.609 62.71 107.789 62.4582 107.933 62.0625L108.54 60.3087H110.051L109.363 62.2513C109.255 62.5751 109.125 62.8449 108.972 63.0608C108.828 63.2676 108.626 63.416 108.365 63.506C108.68 63.5959 108.909 63.7578 109.053 63.9916C109.197 64.2165 109.323 64.4953 109.431 64.828L110.172 67H108.608L108.054 65.1923C107.992 64.9854 107.915 64.819 107.825 64.6931C107.744 64.5672 107.65 64.4728 107.542 64.4098C107.434 64.3379 107.313 64.2929 107.178 64.2749C107.052 64.2479 106.908 64.2344 106.746 64.2344H105.815V67H104.385ZM115.392 62.6021L114.326 64.2749L112.465 67H111.183V60.3222H112.627V64.7066H112.68L113.665 63.2361L115.608 60.3222H116.903V67H115.46V62.6021H115.392Z" fill="#46474E"/>
</g>
</g>
<defs>
<filter id="filter0_d_5042_89401" x="0.372307" y="0.186153" width="332.255" height="290.255" filterUnits="userSpaceOnUse" color-interpolation-filters="sRGB">
<feFlood flood-opacity="0" result="BackgroundImageFix"/>
<feColorMatrix in="SourceAlpha" type="matrix" values="0 0 0 0 0 0 0 0 0 0 0 0 0 0 0 0 0 0 127 0" result="hardAlpha"/>
<feOffset dy="16.8138"/>
<feGaussianBlur stdDeviation="16.8138"/>
<feComposite in2="hardAlpha" operator="out"/>
<feColorMatrix type="matrix" values="0 0 0 0 0.27451 0 0 0 0 0.278431 0 0 0 0 0.305882 0 0 0 0.2 0"/>
<feBlend mode="multiply" in2="BackgroundImageFix" result="effect1_dropShadow_5042_89401"/>
<feBlend mode="normal" in="SourceGraphic" in2="effect1_dropShadow_5042_89401" result="shape"/>
</filter>
<linearGradient id="paint0_linear_5042_89401" x1="64.6344" y1="96.9429" x2="194.318" y2="131.054" gradientUnits="userSpaceOnUse">
<stop stop-color="#46474E"/>
<stop offset="1" stop-color="#636571"/>
<stop offset="1" stop-color="#62646F"/>
</linearGradient>
<clipPath id="clip0_5042_89401">
<rect x="39" y="33" width="255" height="202" rx="6" fill="white"/>
</clipPath>
</defs>
</svg>
