<svg width="285" height="287" viewBox="0 0 285 287" fill="none" xmlns="http://www.w3.org/2000/svg">
<g filter="url(#filter0_d_5042_89276)">
<path d="M314.914 236H43.0855C38.0719 236 34 231.357 34 225.625V27.3753C34 21.65 38.0657 17 43.0855 17H314.914C319.928 17 324 21.6429 324 27.3753V225.625C324 231.35 319.934 236 314.914 236Z" fill="#65666D"/>
</g>
<path d="M323.019 241H33.987C27.9195 241 23 235.373 23 228.432V222H334V228.432C334 235.373 329.081 241 323.013 241H323.019Z" fill="#65666D"/>
<path d="M147 220L151.455 227.085H214.166L218.301 220H147Z" fill="#46474E"/>
<path d="M324 219.72C324 219.827 259.042 219.909 178.93 219.909C98.8182 219.909 33.8477 219.821 33.8477 219.72C33.8477 219.619 98.793 219.531 178.93 219.531C259.067 219.531 324 219.619 324 219.72Z" fill="#46474E"/>
<path d="M309.985 214H45.0148C43.8996 214 43 212.957 43 211.664V31.3359C43 30.0429 43.8996 29 45.0148 29H309.985C311.1 29 312 30.0429 312 31.3359V211.657C312 212.95 311.094 213.993 309.985 213.993V214Z" fill="#F3F0F0"/>
<path fill-rule="evenodd" clip-rule="evenodd" d="M65.5 55C60.256 55 56 59.256 56 64.5C56 69.744 60.256 74 65.5 74C70.744 74 75 69.744 75 64.5C75 59.256 70.744 55 65.5 55ZM65.4984 57.8516C67.0754 57.8516 68.3484 59.1246 68.3484 60.7016C68.3484 62.2786 67.0754 63.5516 65.4984 63.5516C63.9214 63.5516 62.6484 62.2786 62.6484 60.7016C62.6484 59.1246 63.9214 57.8516 65.4984 57.8516ZM65.4969 71.3405C63.1219 71.3405 61.0224 70.1245 59.7969 68.2815C59.8254 66.391 63.5969 65.3555 65.4969 65.3555C67.3874 65.3555 71.1684 66.391 71.1969 68.2815C69.9714 70.1245 67.8719 71.3405 65.4969 71.3405Z" fill="#B9BABD"/>
<path d="M58.9055 84.0976C58.5329 84.0976 58.1884 84.0426 57.8719 83.9327C57.5577 83.8227 57.2872 83.6588 57.0605 83.4411C56.8338 83.2234 56.6576 82.9518 56.5319 82.6264C56.4085 82.3009 56.3468 81.925 56.3468 81.4985C56.3468 81.1013 56.4063 80.741 56.5252 80.4178C56.6442 80.0946 56.817 79.8174 57.0437 79.5862C57.2614 79.364 57.5307 79.1923 57.8517 79.0711C58.1749 78.9499 58.5273 78.8893 58.9088 78.8893C59.1198 78.8893 59.3095 78.9017 59.4778 78.9264C59.6484 78.9488 59.8055 78.9791 59.9492 79.0173C60.0995 79.0599 60.2353 79.1082 60.3565 79.162C60.48 79.2137 60.5877 79.2619 60.6797 79.3068V80.5222H60.5316C60.4688 80.4683 60.3891 80.4044 60.2926 80.3303C60.1983 80.2562 60.0906 80.1833 59.9694 80.1114C59.8459 80.0396 59.7124 79.979 59.5687 79.9296C59.4251 79.8803 59.2713 79.8556 59.1075 79.8556C58.9257 79.8556 58.7528 79.8848 58.589 79.9431C58.4252 79.9992 58.2737 80.0935 58.1345 80.2259C58.0021 80.3539 57.8943 80.5233 57.8113 80.7343C57.7305 80.9453 57.6901 81.2011 57.6901 81.5019C57.6901 81.8161 57.7339 82.0787 57.8214 82.2897C57.9112 82.5007 58.0234 82.6668 58.1581 82.788C58.295 82.9114 58.4476 83.0001 58.6159 83.054C58.7843 83.1056 58.9504 83.1314 59.1142 83.1314C59.2713 83.1314 59.4262 83.1078 59.5788 83.0607C59.7337 83.0136 59.8762 82.9496 60.0064 82.8688C60.1164 82.8037 60.2185 82.7341 60.3128 82.66C60.407 82.586 60.4845 82.522 60.5451 82.4681H60.6797V83.6667C60.554 83.7228 60.434 83.7756 60.3195 83.8249C60.205 83.8743 60.0849 83.917 59.9593 83.9529C59.7954 84 59.6417 84.0359 59.498 84.0606C59.3544 84.0853 59.1569 84.0976 58.9055 84.0976ZM65.4233 82.3335H62.6491C62.6671 82.6297 62.7793 82.8564 62.9858 83.0136C63.1945 83.1707 63.5009 83.2492 63.9049 83.2492C64.1608 83.2492 64.4088 83.2032 64.6489 83.1112C64.8891 83.0192 65.0788 82.9204 65.2179 82.8149H65.3526V83.7879C65.0788 83.8979 64.8207 83.9776 64.5782 84.0269C64.3358 84.0763 64.0676 84.101 63.7736 84.101C63.015 84.101 62.4337 83.9304 62.0296 83.5893C61.6256 83.2481 61.4236 82.7622 61.4236 82.1315C61.4236 81.5075 61.6144 81.0137 61.996 80.6501C62.3798 80.2843 62.905 80.1013 63.5716 80.1013C64.1866 80.1013 64.6489 80.2573 64.9587 80.5693C65.2684 80.8791 65.4233 81.3257 65.4233 81.9093V82.3335ZM64.218 81.6231C64.2113 81.3695 64.1484 81.1787 64.0295 81.0508C63.9105 80.9228 63.7253 80.8589 63.474 80.8589C63.2405 80.8589 63.0486 80.9195 62.8983 81.0407C62.7479 81.1619 62.6637 81.356 62.6458 81.6231H64.218ZM70.3621 82.0574C70.3621 82.3694 70.3139 82.6533 70.2174 82.9092C70.1231 83.1651 69.9985 83.376 69.8437 83.5421C69.6821 83.7172 69.4991 83.8496 69.2949 83.9394C69.0906 84.0292 68.8718 84.0741 68.6384 84.0741C68.4229 84.0741 68.24 84.0505 68.0896 84.0034C67.9392 83.9585 67.7855 83.8945 67.6284 83.8115V85.3871H66.4163V80.2192H67.6284V80.6131C67.8146 80.465 68.0043 80.3449 68.1973 80.2528C68.3926 80.1608 68.617 80.1148 68.8707 80.1148C69.342 80.1148 69.7079 80.2876 69.9682 80.6333C70.2308 80.9789 70.3621 81.4536 70.3621 82.0574ZM69.1131 82.081C69.1131 81.7129 69.0502 81.4458 68.9245 81.2797C68.7988 81.1136 68.6002 81.0306 68.3286 81.0306C68.2142 81.0306 68.0963 81.0485 67.9751 81.0844C67.8539 81.1181 67.7383 81.1675 67.6284 81.2326V83.1348C67.7092 83.1662 67.7956 83.1864 67.8876 83.1954C67.9796 83.2043 68.0705 83.2088 68.1603 83.2088C68.4813 83.2088 68.7203 83.1157 68.8774 82.9294C69.0345 82.7408 69.1131 82.458 69.1131 82.081ZM74.4323 81.0609H72.5874V84H71.3754V80.2192H74.4323V81.0609ZM78.8998 82.3335H76.1257C76.1436 82.6297 76.2558 82.8564 76.4623 83.0136C76.6711 83.1707 76.9774 83.2492 77.3815 83.2492C77.6373 83.2492 77.8853 83.2032 78.1255 83.1112C78.3657 83.0192 78.5553 82.9204 78.6945 82.8149H78.8291V83.7879C78.5553 83.8979 78.2972 83.9776 78.0548 84.0269C77.8124 84.0763 77.5442 84.101 77.2502 84.101C76.4915 84.101 75.9102 83.9304 75.5062 83.5893C75.1022 83.2481 74.9002 82.7622 74.9002 82.1315C74.9002 81.5075 75.091 81.0137 75.4725 80.6501C75.8563 80.2843 76.3815 80.1013 77.0481 80.1013C77.6631 80.1013 78.1255 80.2573 78.4352 80.5693C78.745 80.8791 78.8998 81.3257 78.8998 81.9093V82.3335ZM77.6946 81.6231C77.6878 81.3695 77.625 81.1787 77.506 81.0508C77.3871 80.9228 77.2019 80.8589 76.9505 80.8589C76.7171 80.8589 76.5252 80.9195 76.3748 81.0407C76.2244 81.1619 76.1403 81.356 76.1223 81.6231H77.6946ZM83.7141 84H82.5391V81.6871L80.8962 84H79.8929V80.2192H81.0679V82.2897L82.5896 80.2192H83.7141V84ZM83.2966 78.5426C83.2966 78.9084 83.1709 79.2069 82.9196 79.4381C82.6704 79.6693 82.3001 79.7849 81.8085 79.7849C81.3193 79.7849 80.9489 79.6693 80.6975 79.4381C80.4461 79.2047 80.3205 78.9062 80.3205 78.5426H81.2564C81.2609 78.7648 81.3035 78.9309 81.3843 79.0408C81.4651 79.1486 81.6065 79.2024 81.8085 79.2024C82.0128 79.2024 82.1542 79.1497 82.2328 79.0442C82.3136 78.9365 82.3562 78.7693 82.3607 78.5426H83.2966ZM59.3869 88.7949C59.544 88.952 59.663 89.1428 59.7438 89.3672C59.8246 89.5894 59.865 89.8509 59.865 90.1517C59.865 90.7128 59.6967 91.1785 59.36 91.5489C59.0233 91.9192 58.6092 92.1044 58.1177 92.1044C57.8753 92.1044 57.6519 92.064 57.4477 91.9832C57.2434 91.9001 57.0695 91.7733 56.9258 91.6027C56.7463 91.3895 56.6116 91.1213 56.5218 90.7981C56.4343 90.4726 56.3905 90.0765 56.3905 89.6096C56.3905 89.4413 56.3984 89.2707 56.4141 89.0979C56.4298 88.9228 56.4657 88.7141 56.5218 88.4717C56.5667 88.2629 56.6318 88.0621 56.7171 87.869C56.8046 87.676 56.9079 87.52 57.0268 87.4011C57.1884 87.2372 57.4006 87.1059 57.6632 87.0072C57.928 86.9062 58.2781 86.8366 58.7136 86.7984C58.8909 86.7827 59.0559 86.7704 59.2085 86.7614C59.3611 86.7502 59.498 86.7401 59.6192 86.7311V87.3135C59.4711 87.3225 59.3241 87.3315 59.1782 87.3405C59.0345 87.3494 58.8909 87.3607 58.7472 87.3741C58.4599 87.3988 58.1996 87.446 57.9662 87.5155C57.735 87.5851 57.5655 87.6749 57.4578 87.7849C57.3388 87.9038 57.2491 88.0598 57.1884 88.2528C57.1301 88.4436 57.0919 88.6254 57.074 88.7983C57.2423 88.6771 57.4264 88.5761 57.6261 88.4953C57.8281 88.4122 58.0425 88.3707 58.2692 88.3707C58.4801 88.3707 58.6833 88.4055 58.8785 88.4751C59.0738 88.5446 59.2433 88.6512 59.3869 88.7949ZM59.2219 90.1887C59.2219 89.7735 59.1221 89.4637 58.9223 89.2595C58.7225 89.053 58.4588 88.9498 58.1311 88.9498C57.9359 88.9498 57.7484 88.9812 57.5689 89.044C57.3893 89.1046 57.2188 89.1866 57.0571 89.2898C57.0527 89.3459 57.0482 89.4121 57.0437 89.4884C57.0414 89.5625 57.0403 89.631 57.0403 89.6938C57.0403 90.0843 57.0729 90.4008 57.1379 90.6432C57.203 90.8856 57.2951 91.0786 57.414 91.2223C57.5173 91.3435 57.6295 91.4299 57.7507 91.4815C57.8719 91.5309 58.0021 91.5556 58.1412 91.5556C58.4801 91.5556 58.745 91.4333 58.9358 91.1886C59.1266 90.944 59.2219 90.6107 59.2219 90.1887ZM64.1641 92H63.5379V89.1753L61.5684 92H60.9961V88.2394H61.6223V91.0237L63.5716 88.2394H64.1641V92ZM68.167 90.9462C68.167 91.1572 68.1177 91.3356 68.0189 91.4815C67.9224 91.6274 67.7978 91.7453 67.6452 91.835C67.4926 91.9226 67.3242 91.9865 67.1402 92.0269C66.9561 92.0673 66.7721 92.0875 66.588 92.0875C66.3277 92.0875 66.0797 92.0628 65.844 92.0135C65.6083 91.9641 65.376 91.8878 65.1471 91.7845V91.091H65.1909C65.3547 91.2346 65.5634 91.3457 65.8171 91.4243C66.0707 91.5028 66.3165 91.5421 66.5544 91.5421C66.6666 91.5421 66.7822 91.532 66.9011 91.5118C67.0201 91.4894 67.1233 91.4546 67.2109 91.4075C67.3052 91.3536 67.3803 91.2896 67.4365 91.2156C67.4926 91.1392 67.5206 91.036 67.5206 90.9058C67.5206 90.7711 67.4926 90.6634 67.4365 90.5826C67.3826 90.5018 67.3085 90.4412 67.2143 90.4008C67.1222 90.3604 67.0111 90.3357 66.8809 90.3267C66.7508 90.3178 66.6318 90.3133 66.5241 90.3133H65.9753V89.7679H66.3557C66.4455 89.7679 66.5622 89.7645 66.7059 89.7578C66.8518 89.751 66.9696 89.7331 67.0594 89.7039C67.1761 89.6657 67.2681 89.6119 67.3355 89.5423C67.405 89.4727 67.4398 89.3616 67.4398 89.209C67.4398 89.1035 67.4129 89.0171 67.359 88.9498C67.3052 88.8802 67.2378 88.8263 67.157 88.7882C67.074 88.75 66.9808 88.7242 66.8776 88.7107C66.7766 88.6973 66.6868 88.6905 66.6082 88.6905C66.3793 88.6905 66.1537 88.7219 65.9315 88.7848C65.7116 88.8454 65.5264 88.934 65.376 89.0508H65.3323V88.3539C65.5185 88.2932 65.7183 88.2439 65.9315 88.2057C66.1448 88.1676 66.358 88.1485 66.5712 88.1485C66.7463 88.1485 66.9202 88.1642 67.093 88.1956C67.2681 88.227 67.4308 88.2809 67.5812 88.3572C67.7294 88.4335 67.8506 88.5379 67.9448 88.6703C68.0391 88.8005 68.0862 88.9621 68.0862 89.1551C68.0862 89.3526 68.0245 89.5266 67.9011 89.677C67.7799 89.8251 67.616 89.9317 67.4095 89.9968V90.0204C67.6407 90.0765 67.8247 90.182 67.9617 90.3368C68.0986 90.4895 68.167 90.6926 68.167 90.9462ZM72.4527 92H71.8198V90.3065H69.9378V92H69.3048V88.2394H69.9378V89.7611H71.8198V88.2394H72.4527V92ZM76.9875 90.1853H74.2167C74.2167 90.4165 74.2515 90.6185 74.3211 90.7914C74.3907 90.9619 74.4861 91.1022 74.6073 91.2122C74.724 91.3199 74.862 91.4007 75.0214 91.4546C75.183 91.5085 75.3603 91.5354 75.5533 91.5354C75.8092 91.5354 76.0662 91.4849 76.3243 91.3839C76.5847 91.2806 76.7698 91.1796 76.8798 91.0809H76.9135V91.7711C76.7003 91.8608 76.4825 91.936 76.2603 91.9966C76.0381 92.0572 75.8047 92.0875 75.5601 92.0875C74.9361 92.0875 74.449 91.9192 74.0989 91.5825C73.7488 91.2436 73.5737 90.7633 73.5737 90.1416C73.5737 89.5266 73.7409 89.0384 74.0753 88.6771C74.412 88.3157 74.8542 88.135 75.4018 88.135C75.9091 88.135 76.2996 88.2831 76.5734 88.5794C76.8495 88.8757 76.9875 89.2965 76.9875 89.8419V90.1853ZM76.3714 89.7005C76.3692 89.3684 76.285 89.1114 76.1189 88.9296C75.9551 88.7478 75.7048 88.6569 75.3682 88.6569C75.0292 88.6569 74.7588 88.7567 74.5568 88.9565C74.357 89.1562 74.2437 89.4043 74.2167 89.7005H76.3714ZM80.8995 91.7643C80.6414 91.8855 80.4192 91.9686 80.2329 92.0135C80.0489 92.0606 79.8648 92.0842 79.6808 92.0842C79.407 92.0842 79.1556 92.0449 78.9266 91.9663C78.6977 91.8855 78.5013 91.7643 78.3375 91.6027C78.1736 91.4411 78.0457 91.2369 77.9537 90.99C77.8639 90.7431 77.819 90.4547 77.819 90.1247C77.819 89.5255 77.9851 89.0474 78.3173 88.6905C78.6494 88.3314 79.104 88.1518 79.6808 88.1518C79.8985 88.1518 80.1117 88.1821 80.3205 88.2427C80.5314 88.3033 80.7245 88.3774 80.8995 88.465V89.1686H80.8625C80.6538 89.0092 80.4473 88.8914 80.243 88.8151C80.041 88.7388 79.8446 88.7006 79.6539 88.7006C79.279 88.7006 78.9884 88.8263 78.7819 89.0777C78.5776 89.3291 78.4755 89.6781 78.4755 90.1247C78.4755 90.5714 78.5776 90.9182 78.7819 91.1651C78.9861 91.4119 79.2768 91.5354 79.6539 91.5354C79.7863 91.5354 79.9176 91.5186 80.0478 91.4849C80.1802 91.4512 80.3003 91.4075 80.408 91.3536C80.4933 91.3109 80.5808 91.2604 80.6706 91.2021C80.7626 91.1415 80.8266 91.0966 80.8625 91.0674H80.8995V91.7643ZM83.8991 90.1113H81.7983V89.5019H83.8991V90.1113ZM88.0973 92H87.4677V91.5994C87.4116 91.6375 87.3353 91.6914 87.2388 91.761C87.1445 91.8283 87.0525 91.8822 86.9627 91.9226C86.8572 91.9742 86.736 92.0168 86.5991 92.0505C86.4622 92.0864 86.3017 92.1044 86.1177 92.1044C85.7788 92.1044 85.4915 91.9921 85.2558 91.7677C85.0201 91.5432 84.9023 91.2571 84.9023 90.9092C84.9023 90.6241 84.9629 90.3941 85.0841 90.219C85.2075 90.0417 85.3826 89.9025 85.6093 89.8015C85.8382 89.7005 86.1132 89.6321 86.4341 89.5962C86.7551 89.5603 87.0996 89.5333 87.4677 89.5154V89.4177C87.4677 89.2741 87.4419 89.1551 87.3903 89.0609C87.3409 88.9666 87.2691 88.8925 87.1748 88.8387C87.085 88.787 86.9773 88.7522 86.8516 88.7343C86.7259 88.7163 86.5946 88.7074 86.4577 88.7074C86.2916 88.7074 86.1064 88.7298 85.9022 88.7747C85.698 88.8173 85.487 88.8802 85.2693 88.9632H85.2356V88.3202C85.359 88.2865 85.5375 88.2495 85.7709 88.2091C86.0043 88.1687 86.2344 88.1485 86.4611 88.1485C86.7259 88.1485 86.956 88.1709 87.1512 88.2158C87.3488 88.2585 87.5193 88.3325 87.663 88.438C87.8044 88.5413 87.9121 88.6748 87.9862 88.8387C88.0603 89.0025 88.0973 89.2056 88.0973 89.448V92ZM87.4677 91.0742V90.0271C87.2747 90.0383 87.0469 90.0552 86.7843 90.0776C86.5239 90.1001 86.3174 90.1326 86.1648 90.1752C85.983 90.2269 85.836 90.3077 85.7238 90.4176C85.6115 90.5254 85.5554 90.6746 85.5554 90.8654C85.5554 91.0809 85.6205 91.2436 85.7507 91.3536C85.8809 91.4613 86.0795 91.5152 86.3466 91.5152C86.5688 91.5152 86.7719 91.4725 86.956 91.3873C87.14 91.2997 87.3106 91.1954 87.4677 91.0742ZM92.6018 92H91.9689V90.3065H90.0869V92H89.4539V88.2394H90.0869V89.7611H91.9689V88.2394H92.6018V92ZM96.9111 92H96.2815V91.5994C96.2254 91.6375 96.1491 91.6914 96.0526 91.761C95.9583 91.8283 95.8663 91.8822 95.7765 91.9226C95.671 91.9742 95.5498 92.0168 95.4129 92.0505C95.276 92.0864 95.1155 92.1044 94.9315 92.1044C94.5925 92.1044 94.3052 91.9921 94.0696 91.7677C93.8339 91.5432 93.7161 91.2571 93.7161 90.9092C93.7161 90.6241 93.7767 90.3941 93.8979 90.219C94.0213 90.0417 94.1964 89.9025 94.4231 89.8015C94.652 89.7005 94.927 89.6321 95.2479 89.5962C95.5689 89.5603 95.9134 89.5333 96.2815 89.5154V89.4177C96.2815 89.2741 96.2557 89.1551 96.2041 89.0609C96.1547 88.9666 96.0829 88.8925 95.9886 88.8387C95.8988 88.787 95.7911 88.7522 95.6654 88.7343C95.5397 88.7163 95.4084 88.7074 95.2715 88.7074C95.1054 88.7074 94.9202 88.7298 94.716 88.7747C94.5117 88.8173 94.3008 88.8802 94.083 88.9632H94.0494V88.3202C94.1728 88.2865 94.3513 88.2495 94.5847 88.2091C94.8181 88.1687 95.0482 88.1485 95.2749 88.1485C95.5397 88.1485 95.7698 88.1709 95.965 88.2158C96.1625 88.2585 96.3331 88.3325 96.4768 88.438C96.6182 88.5413 96.7259 88.6748 96.8 88.8387C96.874 89.0025 96.9111 89.2056 96.9111 89.448V92ZM96.2815 91.0742V90.0271C96.0885 90.0383 95.8607 90.0552 95.5981 90.0776C95.3377 90.1001 95.1312 90.1326 94.9786 90.1752C94.7968 90.2269 94.6498 90.3077 94.5375 90.4176C94.4253 90.5254 94.3692 90.6746 94.3692 90.8654C94.3692 91.0809 94.4343 91.2436 94.5645 91.3536C94.6947 91.4613 94.8933 91.5152 95.1604 91.5152C95.3826 91.5152 95.5857 91.4725 95.7698 91.3873C95.9538 91.2997 96.1244 91.1954 96.2815 91.0742ZM101.301 92H100.668V88.7713H99.2643C99.2575 88.9576 99.2508 89.1372 99.2441 89.31C99.2373 89.4828 99.2306 89.6388 99.2239 89.778C99.2082 90.1528 99.1824 90.4524 99.1464 90.6769C99.1105 90.8991 99.0634 91.0843 99.005 91.2324C98.9512 91.3715 98.8906 91.4849 98.8232 91.5724C98.7581 91.6577 98.6874 91.7352 98.6111 91.8047C98.5348 91.8721 98.4495 91.9226 98.3553 91.9562C98.2632 91.9899 98.1622 92.0067 98.0523 92.0067C98.0141 92.0067 97.958 92.0056 97.8839 92.0034C97.8121 92.0011 97.765 92 97.7425 92V91.4479H97.7762C97.7941 91.4479 97.82 91.449 97.8536 91.4512C97.8873 91.4535 97.9153 91.4546 97.9378 91.4546C97.9917 91.4546 98.0467 91.4467 98.1028 91.431C98.1611 91.4153 98.2105 91.3861 98.2509 91.3435C98.3654 91.2313 98.4574 91.0416 98.527 90.7745C98.5965 90.5074 98.6426 90.1214 98.665 89.6164C98.674 89.4323 98.6818 89.2146 98.6886 88.9632C98.6975 88.7096 98.7054 88.4683 98.7121 88.2394H101.301V92ZM105.856 92H105.23V89.1753L103.26 92H102.688V88.2394H103.314V91.0237L105.264 88.2394H105.856V92ZM110.007 88.7949H108.647V92H108.014V88.7949H106.654V88.2394H110.007V88.7949ZM113.97 92H113.343V89.1753L111.374 92H110.802V88.2394H111.428V91.0237L113.377 88.2394H113.97V92ZM118.75 92H117.922L116.36 90.2762H116.017V92H115.384V88.2394H116.017V89.8621C116.225 89.8621 116.394 89.8251 116.522 89.751C116.649 89.6747 116.758 89.5535 116.848 89.3874C116.88 89.3268 116.91 89.2629 116.939 89.1955C116.97 89.1259 117.001 89.0597 117.03 88.9969C117.147 88.7433 117.292 88.5536 117.468 88.4279C117.643 88.3022 117.894 88.2394 118.222 88.2394H118.511V88.7848H118.232C118.054 88.7848 117.915 88.8229 117.814 88.8993C117.716 88.9733 117.626 89.1046 117.545 89.2932C117.455 89.5041 117.36 89.6624 117.259 89.7679C117.16 89.8711 117.055 89.9497 116.942 90.0035L118.75 92Z" fill="#46474E"/>
<g clip-path="url(#clip0_5042_89276)">
<path d="M67.9174 192.137C65.469 192.137 63.7202 194.073 63.6956 196.483C63.6709 198.868 65.5586 200.883 67.935 200.862C70.2375 200.862 72.1568 198.874 72.1252 196.477C72.0935 194.094 70.3552 192.139 67.9174 192.139V192.137ZM67.9279 199.313C66.3548 199.29 65.2915 197.814 65.3091 196.451C65.3249 195.169 66.3425 193.687 67.9068 193.685C69.3991 193.684 70.5433 195.089 70.5064 196.5C70.6013 197.696 69.4623 199.338 67.9262 199.315L67.9279 199.313Z" fill="#8F8F92"/>
<path d="M77.5111 192.137C75.0628 192.137 73.3139 194.073 73.2893 196.483C73.2647 198.868 75.1524 200.883 77.5287 200.862C79.8312 200.862 81.7505 198.874 81.7189 196.477C81.6873 194.094 79.949 192.139 77.5111 192.139V192.137ZM77.5217 199.313C75.9486 199.29 74.8852 197.814 74.9028 196.451C74.9186 195.169 75.9363 193.687 77.5006 193.685C78.9928 193.684 80.137 195.089 80.1001 196.5C80.195 197.696 79.0561 199.338 77.5199 199.315L77.5217 199.313Z" fill="#8F8F92"/>
<path d="M82.8642 198.006C82.8642 198.611 82.8642 199.214 82.8642 199.82C82.8642 200.165 82.8642 200.511 82.8642 200.859C82.8642 200.967 82.9011 201.011 83.003 200.994C83.1225 200.973 83.2421 200.958 83.3563 200.914C84.0418 200.65 84.4847 199.972 84.4847 199.18C84.4847 197.967 84.497 196.753 84.4794 195.54C84.4689 194.851 84.9452 193.898 85.8398 193.785C86.3794 193.717 86.8452 193.888 87.2108 194.337C87.5078 194.702 87.6361 195.128 87.6326 195.619C87.6221 196.839 87.6291 198.061 87.6291 199.283C87.6291 199.39 87.6238 199.499 87.6502 199.604C87.8383 200.353 88.3427 200.904 89.0897 200.994C89.2092 201.009 89.2321 200.988 89.2321 200.855C89.2321 200.437 89.2321 200.02 89.2321 199.602C89.2321 198.242 89.2321 196.881 89.2321 195.521C89.2321 194.809 89.7312 193.971 90.487 193.804C91.5521 193.57 92.3993 194.545 92.3853 195.472C92.3694 196.688 92.3923 197.906 92.3765 199.123C92.3694 199.631 92.5136 200.06 92.8176 200.433C93.1006 200.778 93.4644 200.958 93.8863 200.996C93.9601 201.004 94.0005 200.969 93.9935 200.887C93.9794 200.744 93.9988 200.601 93.9988 200.458C93.9988 198.867 94.0005 197.274 93.9988 195.684C93.9988 195.456 94.004 195.227 93.9689 195.006C93.8265 194.099 93.4187 193.34 92.7684 192.766C92.0917 192.166 91.3043 191.914 90.4202 192.034C89.6609 192.137 89.0299 192.498 88.4956 193.081C88.4429 193.138 88.413 193.142 88.3638 193.083C88.1634 192.84 87.9226 192.655 87.666 192.489C86.9067 191.998 86.0929 191.878 85.2458 192.124C84.5585 192.323 83.9855 192.729 83.5602 193.363C83.1225 194.016 82.8378 194.717 82.8607 195.55C82.8817 196.369 82.8659 197.188 82.8659 198.008L82.8642 198.006Z" fill="#8F8F92"/>
<path d="M60.5382 200.947C61.4328 200.929 62.5208 200.971 63.6088 200.928C63.7669 200.922 63.7898 200.897 63.7617 200.727C63.672 200.183 63.4242 199.751 62.9918 199.449C62.6772 199.23 62.3222 199.171 61.9619 199.169C60.8299 199.161 59.6998 199.167 58.5679 199.167C58.5239 199.167 58.48 199.167 58.4361 199.167C58.4114 199.167 58.3816 199.173 58.3693 199.138C58.3587 199.106 58.3816 199.085 58.4009 199.068C58.5151 198.968 58.6083 198.842 58.7102 198.73C60.0671 197.252 61.4258 195.773 62.7844 194.295C62.8916 194.179 62.9883 194.055 63.0692 193.917C63.3908 193.369 63.2836 192.72 62.8108 192.323C62.5665 192.117 62.2853 192.052 61.9865 192.052C60.039 192.05 58.0916 192.052 56.1441 192.052C56.0088 192.052 55.9824 192.076 56.0017 192.218C56.072 192.724 56.2935 193.138 56.6679 193.449C56.993 193.721 57.3744 193.807 57.7734 193.808C58.777 193.812 59.7789 193.808 60.7825 193.81C60.8229 193.81 60.8827 193.786 60.902 193.839C60.9178 193.883 60.8669 193.912 60.8387 193.942C60.141 194.702 59.4414 195.46 58.7419 196.22C57.9756 197.053 57.2092 197.884 56.4429 198.718C56.2074 198.974 56.0211 199.266 56 199.639C55.9666 200.209 56.3322 200.733 56.8472 200.878C57.0317 200.929 57.2215 200.949 57.4131 200.949C58.3904 200.949 59.3676 200.949 60.5364 200.949L60.5382 200.947Z" fill="#8F8F92"/>
</g>
<path d="M68.8659 36.4603C68.8659 37.836 67.754 38.9479 66.3783 38.9479C65.0026 38.9479 63.8906 37.836 63.8906 36.4603C63.8906 35.0846 65.0026 33.9727 66.3783 33.9727C67.754 33.9727 68.8659 35.0846 68.8659 36.4603Z" fill="#61C454"/>
<path d="M53.7995 36.4603C53.7995 37.836 52.6875 38.9479 51.3119 38.9479C49.9362 38.9479 48.8242 37.836 48.8242 36.4603C48.8242 35.0846 49.9362 33.9727 51.3119 33.9727C52.6875 33.9727 53.7995 35.0846 53.7995 36.4603Z" fill="#ED695E"/>
<path d="M61.03 36.4603C61.03 37.836 59.918 38.9479 58.5423 38.9479C57.1666 38.9479 56.0547 37.836 56.0547 36.4603C56.0547 35.0846 57.1666 33.9727 58.5423 33.9727C59.918 33.9727 61.03 35.0846 61.03 36.4603Z" fill="#F5BF4F"/>
<path d="M238.553 105.285C238.553 105.285 249.172 110.459 252.907 123.824C256.643 137.189 268.066 171.992 268.066 171.992C268.066 171.992 274.594 179.672 275.298 185.357C276.002 191.041 274.602 204.8 272.498 207.368C270.402 209.936 267.409 209.511 267.409 209.511L239.929 206.904L229.109 134.451L238.561 105.285H238.553Z" fill="#46474E"/>
<path d="M147.685 104.019C147.685 104.019 128.04 110.183 123.145 115.543L139.232 190.386L138.976 213.999H232.126C232.126 212.831 232.962 135.598 232.962 135.598L238.553 105.287L205.444 99.4559L198.916 94.3281L162.078 96.1921L156.486 101.792L147.693 104.019H147.685Z" fill="#46474E"/>
<g clip-path="url(#clip1_5042_89276)">
<path d="M207.005 140.931L205.453 142.582L205.308 146.213L202.32 146.093L202.839 133.13L205.827 133.249L205.624 138.311L210.114 133.421L213.647 133.562L209.073 138.653L213.353 146.528L209.854 146.388L206.999 140.924L207.005 140.931Z" fill="#F3F0F0"/>
<path d="M222.636 146.026C222.273 146.25 221.884 146.433 221.476 146.573C221.095 146.708 220.697 146.795 220.299 146.847C219.333 146.972 218.355 146.885 217.433 146.582C216.854 146.402 216.313 146.128 215.829 145.767C215.353 145.414 214.969 144.955 214.69 144.432C214.393 143.854 214.262 143.207 214.301 142.561L214.495 137.724C214.507 137.076 214.682 136.442 215.012 135.882C215.318 135.376 215.738 134.935 216.229 134.6C216.733 134.259 217.295 134.008 217.887 133.868C218.487 133.715 219.109 133.651 219.736 133.676C220.512 133.707 221.283 133.854 222.023 134.095C222.724 134.308 223.37 134.681 223.909 135.181L222.366 137.439C221.992 137.083 221.533 136.812 221.034 136.662C220.596 136.529 220.15 136.449 219.7 136.431C219.449 136.421 219.195 136.452 218.947 136.517C218.692 136.582 218.456 136.689 218.239 136.837C218.015 136.992 217.829 137.196 217.697 137.436C217.542 137.73 217.461 138.047 217.461 138.382L217.314 142.047C217.288 142.373 217.343 142.703 217.467 143.008C217.573 143.251 217.728 143.476 217.932 143.648C218.123 143.812 218.343 143.937 218.585 144.022C218.82 144.106 219.071 144.157 219.322 144.167C219.561 144.177 219.8 144.152 220.034 144.1C220.289 144.042 220.532 143.929 220.736 143.774L220.806 142.023L219.023 141.951L219.124 139.431L223.895 139.622L223.672 145.174C223.379 145.517 223.027 145.81 222.642 146.04L222.636 146.026Z" fill="#F3F0F0"/>
<path d="M223.274 151.234L202.113 150.387L201.999 153.232L223.16 154.079L223.274 151.234Z" fill="#F3F0F0"/>
</g>
<path d="M123.134 115.547C123.134 115.547 116.66 124.372 113.969 130.133C111.277 135.895 89.003 184.28 87.665 189.276C86.3193 194.265 82.8621 210.012 93.0402 213.662H113.969L134.975 171.179L136.05 121.873L123.126 115.547H123.134Z" fill="#46474E"/>
<path d="M115.312 182.976C115.312 182.976 114.848 182.566 113.881 182.017C112.922 181.475 111.422 180.849 109.488 180.424C108.521 180.215 107.446 180.045 106.286 179.975C105.126 179.905 103.881 179.921 102.613 180.215C100.076 180.779 97.5467 182.38 95.5668 184.639C93.5559 186.889 92.3107 189.55 91.576 192.056C90.8335 194.569 90.5164 196.928 90.3153 198.9C90.1219 200.88 90.0446 202.489 89.975 203.603C89.9441 204.121 89.9131 204.546 89.8977 204.887C89.8745 205.181 89.859 205.335 89.8435 205.335C89.828 205.335 89.8203 205.181 89.8203 204.887C89.8203 204.546 89.8203 204.121 89.8203 203.603C89.8435 202.489 89.8744 200.873 90.0291 198.877C90.1915 196.89 90.4854 194.507 91.2125 191.955C91.9317 189.411 93.1924 186.673 95.2574 184.376C97.2838 182.071 99.8902 180.424 102.528 179.859C103.842 179.565 105.126 179.557 106.302 179.65C107.477 179.735 108.568 179.921 109.542 180.153C111.499 180.617 113 181.29 113.951 181.885C114.423 182.187 114.771 182.458 114.987 182.651C115.204 182.852 115.312 182.968 115.297 182.976H115.312Z" fill="#8F8F92"/>
<path d="M105.395 174.518C105.395 174.518 105.642 174.449 106.098 174.402C106.555 174.348 107.22 174.333 108.04 174.379C108.859 174.418 109.834 174.557 110.894 174.804C111.945 175.067 113.09 175.454 114.227 175.988C115.356 176.537 116.377 177.179 117.243 177.836C118.102 178.509 118.821 179.174 119.37 179.793C119.919 180.404 120.329 180.93 120.569 181.317C120.816 181.703 120.948 181.92 120.925 181.935C120.863 181.982 120.298 181.139 119.161 179.986C118.597 179.406 117.87 178.772 117.019 178.138C116.153 177.511 115.155 176.893 114.049 176.359C112.935 175.833 111.829 175.454 110.801 175.176C109.764 174.913 108.821 174.75 108.016 174.681C106.408 174.526 105.402 174.611 105.395 174.534V174.518Z" fill="#8F8F92"/>
<path d="M124.31 172.188C124.31 172.188 123.962 172.188 123.344 172.111C122.725 172.033 121.828 171.94 120.722 171.855C118.51 171.685 115.432 171.647 112.06 172.049C108.695 172.459 105.71 173.224 103.598 173.905C102.539 174.245 101.688 174.547 101.108 174.771C100.528 174.988 100.195 175.096 100.188 175.073C100.18 175.05 100.482 174.887 101.054 174.624C101.618 174.354 102.461 174.013 103.513 173.634C105.617 172.876 108.618 172.057 112.021 171.647C115.416 171.244 118.533 171.329 120.753 171.569C121.866 171.685 122.764 171.824 123.375 171.948C123.986 172.072 124.326 172.149 124.318 172.18L124.31 172.188Z" fill="#8F8F92"/>
<path d="M183.935 130.848C183.935 130.848 183.85 130.77 183.718 130.592C183.571 130.391 183.378 130.144 183.146 129.827C182.635 129.115 181.924 128.133 181.042 126.911C179.232 124.359 176.719 120.809 173.749 116.624L174.074 116.578C172.944 119.888 171.699 123.547 170.392 127.39L170.307 127.638L170.098 127.499C169.959 127.414 169.812 127.313 169.665 127.22C167.933 126.122 166.409 124.799 165.11 123.369C163.818 121.93 162.743 120.399 161.854 118.867C160.075 115.797 159 112.773 158.273 110.213C157.546 107.645 157.175 105.511 156.919 104.049C156.796 103.345 156.703 102.788 156.625 102.363C156.587 102.169 156.548 102.03 156.525 101.93C156.486 101.837 156.471 101.79 156.478 101.79C156.564 101.752 156.788 102.564 157.074 104.026C157.376 105.48 157.793 107.599 158.551 110.143C159.309 112.68 160.4 115.673 162.179 118.689C163.068 120.198 164.128 121.698 165.404 123.113C166.68 124.513 168.188 125.805 169.882 126.888C170.029 126.981 170.176 127.073 170.307 127.158L170.013 127.267C171.336 123.423 172.589 119.772 173.726 116.47L173.842 116.122L174.05 116.423C176.966 120.639 179.441 124.219 181.22 126.795C182.071 128.04 182.744 129.046 183.239 129.773C183.455 130.097 183.625 130.36 183.765 130.569C183.881 130.755 183.942 130.855 183.927 130.855L183.935 130.848Z" fill="#8F8F92"/>
<path d="M207.306 156.463C207.306 156.463 203.918 157.398 206.463 164.336C209 171.266 209.85 170.848 211.536 177.329C213.23 183.818 215.202 189.735 218.165 193.393C221.127 197.059 232.125 204.53 232.125 204.53L241.994 195.226C241.994 195.226 240.369 188.289 240.756 183.586C241.143 178.884 242.133 167.314 241.994 165.341C241.854 163.369 239.735 158.574 239.735 158.574V155.295L234.662 139.679C234.662 139.679 231.839 138.411 230.856 142.92L229.163 138.133C229.163 138.133 226.487 137.707 225.775 143.199C225.071 148.698 226.34 156.308 226.34 156.308L224.932 165.891L222.821 172.379L220.988 172.658C220.988 172.658 218.227 171.908 216.718 166.71C215.21 161.521 211.119 155.318 207.314 156.447L207.306 156.463Z" fill="#DDC399"/>
<path d="M238.683 180.981C238.683 180.981 238.66 180.857 238.637 180.625C238.621 180.354 238.598 180.014 238.567 179.588C238.513 178.645 238.443 177.338 238.358 175.706C238.204 172.342 237.995 167.655 237.747 162.187L237.794 162.303C237.345 161.761 236.533 161.599 235.798 161.784C235.056 161.962 234.383 162.426 233.973 163.122C233.114 164.507 233.068 166.317 232.797 168.065C232.264 172.017 231.753 175.776 231.289 179.21C231.057 180.919 230.81 182.551 230.469 184.059C230.145 185.567 229.688 186.944 229.247 188.173C228.814 189.403 228.428 190.517 228.188 191.522C227.948 192.528 227.848 193.409 227.871 194.136C227.902 195.59 228.327 196.333 228.265 196.348C228.25 196.348 228.172 196.171 228.025 195.807C227.909 195.436 227.747 194.879 227.716 194.144C227.67 193.409 227.747 192.497 227.971 191.476C228.196 190.455 228.567 189.326 228.984 188.088C229.41 186.851 229.843 185.497 230.152 183.997C230.469 182.504 230.701 180.88 230.926 179.171C231.382 175.745 231.877 171.978 232.403 168.026C232.527 167.144 232.619 166.278 232.774 165.404C232.929 164.546 233.169 163.672 233.64 162.929C234.089 162.171 234.878 161.614 235.713 161.421C236.541 161.212 237.523 161.398 238.088 162.078L238.126 162.133V162.194C238.32 167.662 238.474 172.349 238.59 175.721C238.629 177.353 238.668 178.66 238.691 179.612C238.691 180.037 238.699 180.377 238.699 180.648C238.699 180.88 238.699 181.004 238.683 181.004V180.981Z" fill="#46474E"/>
<path d="M233.287 163.215C233.287 163.215 233.109 162.914 232.869 162.334C232.637 161.753 232.328 160.895 232.041 159.804C231.755 158.722 231.484 157.399 231.33 155.922C231.252 155.179 231.198 154.391 231.291 153.571C231.376 152.751 231.616 151.885 232.142 151.158C232.59 150.523 233.225 150.013 233.944 149.804L234.099 149.758L234.176 149.897C235.607 152.418 236.844 154.646 237.718 156.247C238.12 156.997 238.453 157.631 238.731 158.142C238.963 158.59 239.079 158.838 239.056 158.853C239.033 158.869 238.878 158.637 238.608 158.211C238.306 157.716 237.935 157.105 237.494 156.378C236.558 154.816 235.274 152.612 233.836 150.098L234.068 150.191C233.449 150.377 232.884 150.817 232.482 151.397C232.01 152.063 231.778 152.851 231.693 153.625C231.608 154.406 231.647 155.172 231.709 155.899C231.84 157.36 232.072 158.668 232.328 159.75C232.575 160.833 232.838 161.699 233.024 162.295C233.209 162.89 233.317 163.215 233.294 163.231L233.287 163.215Z" fill="#46474E"/>
<path d="M230.931 164.48C230.931 164.48 230.869 164.163 230.838 163.583C230.808 162.918 230.777 162.098 230.738 161.131C230.668 159.058 230.606 156.197 230.56 153.033C230.537 149.878 230.413 147.001 230.684 144.92C230.815 143.884 231.024 143.056 231.21 142.507C231.395 141.95 231.55 141.672 231.573 141.672C231.643 141.695 231.14 142.894 230.962 144.951C230.769 147.001 230.931 149.862 230.962 153.033C231.009 156.197 231.024 159.058 231.024 161.131C231.016 162.098 231.001 162.925 230.993 163.583C230.978 164.163 230.955 164.488 230.931 164.488V164.48Z" fill="#46474E"/>
<path d="M222.582 190.475C222.528 190.429 223.147 189.702 223.904 188.387C224.291 187.73 224.686 186.918 225.049 185.982C225.397 185.038 225.714 183.979 225.931 182.842C226.132 181.697 226.202 180.599 226.202 179.593C226.186 178.588 226.101 177.683 225.97 176.941C225.714 175.44 225.389 174.543 225.459 174.52C225.482 174.512 225.583 174.729 225.737 175.131C225.9 175.533 226.078 176.136 226.248 176.886C226.418 177.644 226.534 178.565 226.573 179.586C226.596 180.614 226.526 181.743 226.325 182.911C226.109 184.079 225.776 185.162 225.397 186.113C225.003 187.065 224.57 187.884 224.144 188.534C223.727 189.184 223.348 189.686 223.054 190.003C222.768 190.328 222.597 190.498 222.574 190.475H222.582Z" fill="#46474E"/>
<path d="M239.909 185.629L248.471 188.599C248.471 188.599 256.646 184.368 262.284 188.599C267.922 192.829 272.818 203.974 271.271 208.483C271.271 208.483 267.381 213.286 264.419 213.99C261.457 214.694 249.948 211.909 245.161 210.896C240.358 209.883 232.113 204.523 232.113 204.523L239.902 185.621L239.909 185.629Z" fill="#DDC399"/>
<path d="M240.954 198.25C240.954 198.25 240.892 197.979 240.862 197.492C240.831 196.912 240.784 196.223 240.738 195.427C240.645 193.679 240.529 191.266 240.49 188.59C240.452 185.914 240.529 183.493 240.691 181.745C240.769 180.871 240.862 180.167 240.947 179.68C241.032 179.201 241.094 178.93 241.124 178.938C241.186 178.945 241.055 180.02 240.97 181.761C240.885 183.501 240.854 185.914 240.892 188.582C240.939 191.196 240.985 193.563 241.016 195.411C241.024 196.285 241.024 196.997 241.016 197.484C241.001 197.971 240.978 198.242 240.954 198.242V198.25Z" fill="#46474E"/>
<path d="M269.194 188.269C269.132 188.331 268.251 187.109 266.348 185.701C264.469 184.293 261.421 182.793 257.817 182.592C254.205 182.398 251.011 183.551 248.993 184.742C246.943 185.933 245.938 187.047 245.884 186.977C245.868 186.962 246.108 186.675 246.587 186.211C247.067 185.747 247.825 185.129 248.846 184.494C250.864 183.218 254.128 181.989 257.841 182.19C261.553 182.398 264.662 183.984 266.526 185.469C267.47 186.211 268.158 186.907 268.583 187.426C269.016 187.936 269.217 188.253 269.202 188.261L269.194 188.269Z" fill="#8F8F92"/>
<path d="M268.097 181.128C268.043 181.213 266.898 180.053 264.531 179.164C262.203 178.251 258.592 177.833 254.887 178.878C253.039 179.396 251.345 180.13 249.898 180.95C248.452 181.778 247.246 182.683 246.287 183.503C245.328 184.322 244.593 185.042 244.082 185.537C243.58 186.032 243.301 186.31 243.278 186.295C243.263 186.279 243.502 185.97 243.966 185.428C244.438 184.895 245.142 184.144 246.093 183.286C247.037 182.427 248.243 181.484 249.705 180.625C251.167 179.775 252.884 179.009 254.771 178.483C258.568 177.416 262.273 177.895 264.624 178.893C265.815 179.38 266.697 179.945 267.262 180.378C267.556 180.587 267.749 180.788 267.888 180.912C268.027 181.035 268.097 181.113 268.081 181.12L268.097 181.128Z" fill="#8F8F92"/>
<path d="M268.166 174.947C268.142 175.024 266.65 174.568 264.159 174.236C262.914 174.058 261.421 173.957 259.766 173.957C258.111 173.98 256.294 174.12 254.407 174.437C252.527 174.777 250.771 175.272 249.201 175.813C247.647 176.378 246.278 176.981 245.172 177.577C242.952 178.745 241.699 179.68 241.653 179.619C241.637 179.595 241.939 179.356 242.511 178.93C242.79 178.714 243.146 178.466 243.579 178.203C244.004 177.94 244.484 177.615 245.04 177.322C246.139 176.695 247.515 176.053 249.078 175.465C250.655 174.901 252.434 174.39 254.337 174.042C256.247 173.717 258.088 173.594 259.766 173.586C261.445 173.609 262.945 173.741 264.198 173.957C264.824 174.035 265.381 174.181 265.876 174.282C266.371 174.383 266.789 174.499 267.121 174.599C267.802 174.8 268.173 174.924 268.166 174.947Z" fill="#8F8F92"/>
<path d="M202.553 99.2031C202.553 99.2031 202.948 99.9456 203.149 101.477C203.357 103.001 203.326 105.29 202.824 108.121C202.569 109.536 202.228 111.091 201.718 112.753C201.184 114.416 200.38 116.118 199.467 117.897C197.619 121.454 195.298 125.329 192.615 129.467L192.298 129.946V129.366C192.298 126.755 192.291 124.016 192.283 121.171C190.26 122.8 188.15 124.506 185.978 126.26L185.404 126.724C183.743 132.015 182.644 137.904 182.212 144.03C181.559 152.769 182.05 168.548 182.132 170.452C182.139 170.573 182.143 170.636 182.143 170.636C182.142 170.663 182.138 170.599 182.132 170.452C182.023 168.584 181.141 152.879 181.802 144.007C182.243 137.835 183.357 131.895 185.043 126.559L185.058 126.505L185.105 126.466C187.481 124.553 189.795 122.696 192.005 120.922L192.344 120.65L192.646 120.41V120.797C192.646 123.562 192.639 126.234 192.632 128.794C197.799 120.765 201.963 113.774 202.615 108.097C203.149 105.29 203.21 103.016 203.033 101.5C202.955 100.734 202.808 100.17 202.715 99.7832C202.592 99.4042 202.545 99.2109 202.545 99.2109L202.553 99.2031Z" fill="#8F8F92"/>
<path d="M188.212 164H187.956C186.927 164.021 186.012 164.959 186.012 165.989C186.012 167.019 186.92 167.963 187.942 167.999C188.971 168.034 189.944 167.154 190.008 166.131C190.079 165.101 189.227 164.107 188.205 164H188.212Z" fill="#65666D"/>
<path d="M188.212 150H187.956C186.927 150.021 186.012 150.959 186.012 151.989C186.012 153.019 186.92 153.963 187.942 153.999C188.971 154.034 189.944 153.154 190.008 152.131C190.079 151.108 189.227 150.107 188.205 150H188.212Z" fill="#65666D"/>
<path d="M187.946 141.993C188.974 142.028 189.945 141.147 190.008 140.124C190.072 139.101 189.229 138.099 188.208 138H187.953C186.926 138.021 186.012 138.959 186.012 139.989C186.012 141.02 186.919 141.964 187.939 142L187.946 141.993Z" fill="#65666D"/>
<path d="M197.825 105.239C197.229 100.63 196.742 96.7859 196.711 96.3064C196.711 96.3064 212.117 92.8415 211.267 77.2649C210.857 69.7318 208.745 54.2945 206.68 40.3498C204.461 25.3765 191.096 14.6261 175.983 15.6315L174.483 15.732C158.35 17.7584 151.064 32.6002 153.539 48.664L162.248 102.548C162.248 102.548 165.96 114.466 173.911 116.531L183.934 130.855L185.589 124.691L193.06 118.186C193.06 118.186 194.777 116.33 196.742 112.703C198.351 109.733 198.01 106.686 197.817 105.239H197.825Z" fill="#DDC399"/>
<path d="M196.72 96.0764C196.72 96.0764 186.936 97.5382 176.039 91.668C176.039 91.668 181.584 102.55 197.022 100.106L196.72 96.0764Z" fill="#46474E"/>
<path d="M201.676 53.7325C201.8 54.9004 200.903 55.9677 199.681 56.1224C198.459 56.2693 197.376 55.4418 197.252 54.2739C197.136 53.1061 198.026 52.031 199.24 51.8841C200.462 51.7371 201.545 52.5647 201.669 53.7403L201.676 53.7325Z" fill="#46474E"/>
<path d="M203.851 48.21C203.595 48.5193 201.824 47.3824 199.434 47.5526C197.045 47.6841 195.366 49.0298 195.088 48.7591C194.949 48.6354 195.196 48.094 195.923 47.4907C196.635 46.8874 197.888 46.261 199.373 46.1682C200.865 46.0754 202.157 46.5394 202.915 47.0576C203.688 47.5758 203.974 48.0785 203.843 48.2177L203.851 48.21Z" fill="#46474E"/>
<path d="M179.068 55.3536C179.184 56.5215 178.295 57.5888 177.073 57.7435C175.851 57.8904 174.768 57.0629 174.644 55.895C174.52 54.7272 175.418 53.6521 176.64 53.5052C177.862 53.3582 178.944 54.1858 179.068 55.3614V55.3536Z" fill="#46474E"/>
<path d="M180.362 50.2334C180.107 50.5428 178.336 49.4059 175.946 49.576C173.556 49.7075 171.878 51.0532 171.6 50.7825C171.46 50.6588 171.708 50.1174 172.435 49.5141C173.146 48.9109 174.399 48.2844 175.884 48.1916C177.377 48.0988 178.669 48.5628 179.427 49.081C180.2 49.5992 180.486 50.1019 180.355 50.2411L180.362 50.2334Z" fill="#46474E"/>
<path d="M190.235 67.3867C190.212 67.2474 191.681 66.8917 194.071 66.4276C194.682 66.3271 195.247 66.1647 195.324 65.7393C195.44 65.2907 195.139 64.6488 194.798 63.9527C194.125 62.5141 193.422 61.006 192.679 59.4205C189.725 52.9625 187.544 47.6414 187.807 47.5254C188.07 47.4094 190.668 52.5448 193.623 59.0028C194.334 60.5961 195.015 62.112 195.665 63.566C195.943 64.2466 196.392 65.0045 196.144 65.9404C196.013 66.4044 195.587 66.7679 195.2 66.8994C194.814 67.0463 194.473 67.0773 194.172 67.116C191.759 67.4099 190.251 67.5181 190.235 67.3867Z" fill="#46474E"/>
<path d="M180.36 40.8185C180.167 41.4837 177.762 41.3367 174.977 41.8626C172.185 42.3344 169.973 43.3089 169.563 42.7443C169.378 42.4736 169.734 41.8394 170.608 41.1434C171.474 40.455 172.881 39.7589 174.552 39.4573C176.223 39.1634 177.785 39.3258 178.837 39.6739C179.896 40.0219 180.445 40.4937 180.368 40.8108L180.36 40.8185Z" fill="#46474E"/>
<path d="M202.523 41.3523C202.136 41.9246 200.45 41.4683 198.47 41.5766C196.483 41.6152 194.835 42.1876 194.41 41.6462C194.224 41.3832 194.449 40.8186 195.145 40.254C195.833 39.6894 197.016 39.1944 198.378 39.1403C199.739 39.0939 200.953 39.5038 201.68 40.0143C202.415 40.5247 202.686 41.0738 202.515 41.3445L202.523 41.3523Z" fill="#46474E"/>
<path d="M155.591 60.1116C155.32 60.0111 144.685 57.6676 145.737 68.2866C146.789 78.9056 158.297 75.4485 158.29 75.1391C158.282 74.8297 155.598 60.1194 155.598 60.1194L155.591 60.1116Z" fill="#DDC399"/>
<path d="M153.583 71.6489C153.528 71.618 153.412 71.7958 153.111 71.9737C152.817 72.1439 152.306 72.2908 151.734 72.1361C150.574 71.8345 149.453 70.1485 149.205 68.2381C149.081 67.2714 149.197 66.3355 149.46 65.5389C149.708 64.7268 150.156 64.139 150.713 63.9843C151.262 63.7987 151.695 64.1004 151.858 64.3865C152.028 64.6727 151.982 64.8892 152.043 64.897C152.074 64.9202 152.252 64.6959 152.129 64.2628C152.067 64.054 151.912 63.8219 151.649 63.6363C151.371 63.4507 150.992 63.3888 150.597 63.4662C149.785 63.6054 149.12 64.4329 148.826 65.3069C148.486 66.1886 148.339 67.2482 148.478 68.3309C148.756 70.4656 150.056 72.3604 151.634 72.6466C152.399 72.7703 153.002 72.4842 153.296 72.198C153.598 71.9041 153.629 71.6566 153.59 71.6412L153.583 71.6489Z" fill="#46474E"/>
<path d="M155.004 64.2854C152.289 61.2846 149.559 58.2528 147.579 54.7183C145.607 51.1915 144.424 47.0692 145.081 43.0784C145.46 40.7427 146.458 38.523 146.612 36.1564C146.829 32.908 145.468 29.5127 146.612 26.4732C148.414 21.7167 154.818 20.982 158.701 17.6949C161.725 15.1349 163.202 10.9817 166.528 8.82388C169.436 6.94448 173.171 6.98315 176.598 7.4704C180.024 7.95765 183.473 8.82388 186.907 8.35983C189.351 8.02726 191.656 7.04502 194.054 6.4495C196.451 5.85397 199.12 5.69928 201.254 6.93675C203.389 8.17421 204.588 11.206 203.188 13.2401C207.163 11.4071 212.213 14.5085 213.304 18.7468C214.394 22.9851 212.213 27.5715 208.841 30.3635C205.469 33.1632 201.115 34.4626 196.815 35.2747C184.633 37.5717 171.424 36.2724 160.928 29.6829" fill="#B18C5E"/>
<path d="M205.907 25.8425C205.18 30.0731 196.603 33.9402 189.495 33.7391C182.944 33.5457 179.703 30.2974 174.939 27.9849C172.928 27.0104 170.562 26.7448 167.839 27.1883C164.537 27.7297 162.82 31.6277 160.964 34.4197C164.498 42.1306 163.075 51.0945 161.575 59.4474C161.412 60.3678 161.203 61.3655 160.5 61.9842C159.308 63.036 157.367 62.4096 156.192 61.3345C154.312 59.6098 153.454 57.0653 152.843 54.5903C151.435 48.9599 150.901 43.0587 151.791 37.32C152.68 31.5813 155.055 26.0127 158.976 21.728C163.872 16.3759 171.033 13.29 178.28 12.9188C185.527 12.5475 192.805 14.7904 198.869 18.7658C201.684 20.6065 204.313 22.8881 205.907 25.858" fill="#B18C5E"/>
<path d="M191.798 72.7619C189.996 71.9189 188.186 71.0759 186.384 70.2406C186.075 70.0936 185.742 69.9467 185.402 69.9931C185.015 70.0472 184.714 70.3334 184.466 70.6273C183.213 72.1509 182.896 74.4402 183.863 76.1572C184.838 77.8742 187.119 78.7791 188.944 78.0211C190.862 77.2245 191.798 74.9971 191.945 72.9243L191.798 72.7542V72.7619Z" fill="#46474E"/>
<path d="M189.124 78.4139C189.14 78.4603 188.877 78.615 188.335 78.731C187.802 78.8316 186.966 78.8702 186.007 78.5609C185.056 78.2515 183.981 77.5168 183.316 76.3257C182.643 75.1656 182.395 73.5337 182.983 72.0564C183.262 71.3217 183.703 70.672 184.236 70.1616C184.507 69.9063 184.785 69.6898 185.118 69.4964C185.288 69.4036 185.497 69.3108 185.744 69.2954C185.984 69.2799 186.201 69.3418 186.371 69.4191C186.727 69.5738 186.951 69.7439 187.214 69.8986C187.469 70.0533 187.709 70.208 187.949 70.3549C188.413 70.6488 188.853 70.9195 189.263 71.1825C190.872 72.2034 191.831 72.884 191.777 72.9768C191.723 73.0696 190.656 72.5669 188.977 71.6775C188.552 71.4454 188.096 71.198 187.608 70.935C187.361 70.7958 187.113 70.6566 186.85 70.5173C186.595 70.3781 186.309 70.2002 186.085 70.1152C185.837 70.0301 185.729 70.0378 185.489 70.1693C185.257 70.3163 184.994 70.5174 184.778 70.7339C184.329 71.1748 183.965 71.7239 183.726 72.3503C183.231 73.5955 183.409 74.949 183.958 75.9777C184.499 77.014 185.373 77.6946 186.193 78.0349C187.02 78.383 187.778 78.4294 188.289 78.4294C188.807 78.4139 189.093 78.3675 189.116 78.4294L189.124 78.4139Z" fill="#46474E"/>
<path d="M187.41 53.9952C187.348 53.9952 187.418 53.0052 186.985 51.3037C186.559 49.6408 185.446 47.1891 182.94 45.2943C181.695 44.3662 180.132 43.585 178.33 43.2679C176.536 42.9663 174.517 43.0204 172.599 43.7552C171.632 44.0955 170.697 44.5982 169.846 45.2401C168.98 45.8666 168.191 46.6477 167.541 47.5526C166.203 49.3392 165.445 51.6285 165.422 53.9874C165.445 56.3464 166.195 58.6434 167.541 60.43C168.191 61.3349 168.98 62.116 169.846 62.7425C170.704 63.3844 171.632 63.8949 172.599 64.2274C174.517 64.9622 176.544 65.0163 178.33 64.7147C180.132 64.3976 181.695 63.6165 182.94 62.6884C185.446 60.7935 186.559 58.3418 186.985 56.6789C187.418 54.9774 187.348 53.9874 187.41 53.9874C187.41 53.9874 187.418 54.0493 187.426 54.1653C187.426 54.3123 187.426 54.4824 187.426 54.6912C187.426 54.9233 187.41 55.2094 187.356 55.5497C187.309 55.89 187.271 56.2845 187.147 56.7099C186.969 57.5761 186.575 58.6125 185.948 59.703C185.314 60.7935 184.394 61.9381 183.125 62.9126C181.865 63.8794 180.264 64.6992 178.407 65.0395C176.567 65.3644 174.479 65.318 172.491 64.5755C171.485 64.2274 170.519 63.7093 169.629 63.0441C168.732 62.3945 167.912 61.5901 167.239 60.6543C165.847 58.8135 165.058 56.4314 165.035 53.9797C165.058 51.5357 165.847 49.1536 167.239 47.3129C167.912 46.377 168.732 45.5727 169.629 44.923C170.519 44.2656 171.485 43.7397 172.491 43.3917C174.486 42.6414 176.567 42.595 178.407 42.9276C180.264 43.2679 181.865 44.0955 183.125 45.0545C184.394 46.029 185.314 47.1737 185.948 48.2642C186.575 49.3624 186.969 50.3911 187.147 51.2573C187.271 51.6827 187.309 52.0771 187.356 52.4174C187.41 52.7577 187.426 53.0439 187.426 53.2759C187.426 53.4847 187.426 53.6626 187.426 53.8018C187.426 53.9256 187.426 53.9874 187.41 53.9874V53.9952Z" fill="#46474E"/>
<path d="M213.896 52.9564C213.834 52.9564 213.896 51.9897 213.479 50.3345C213.061 48.7104 211.978 46.3205 209.534 44.4798C208.328 43.5749 206.804 42.8092 205.048 42.5076C203.3 42.2137 201.336 42.2678 199.464 42.9871C198.521 43.3119 197.616 43.8147 196.78 44.4334C195.937 45.0444 195.172 45.8101 194.538 46.6918C193.231 48.4319 192.496 50.6594 192.473 52.9642C192.496 55.2689 193.231 57.4964 194.538 59.2366C195.172 60.1182 195.937 60.8762 196.78 61.4949C197.616 62.1214 198.521 62.6164 199.464 62.9412C201.336 63.6528 203.3 63.7146 205.048 63.4207C206.804 63.1114 208.328 62.3457 209.534 61.4485C211.978 59.6001 213.061 57.2179 213.479 55.5938C213.896 53.9387 213.827 52.9719 213.888 52.9719C213.904 52.9719 213.904 53.2117 213.888 53.6602C213.888 53.8845 213.881 54.1707 213.827 54.4955C213.78 54.8281 213.741 55.2071 213.625 55.6247C213.254 57.2798 212.187 59.747 209.704 61.6728C208.475 62.6164 206.912 63.4207 205.102 63.7456C203.308 64.0627 201.274 64.0163 199.333 63.2892C198.358 62.9567 197.415 62.4462 196.548 61.7966C195.675 61.1624 194.878 60.3735 194.22 59.4686C192.859 57.6743 192.094 55.354 192.078 52.9642C192.101 50.5743 192.867 48.2618 194.22 46.4597C194.878 45.5471 195.675 44.7582 196.548 44.1318C197.415 43.4898 198.358 42.9794 199.333 42.6391C201.274 41.9121 203.308 41.8657 205.102 42.1828C206.912 42.5153 208.475 43.3197 209.704 44.2555C212.187 46.1813 213.246 48.6408 213.625 50.3036C213.741 50.7213 213.78 51.1002 213.827 51.4328C213.881 51.7654 213.896 52.0438 213.888 52.2681C213.904 52.7244 213.896 52.9564 213.888 52.9564H213.896Z" fill="#46474E"/>
<path d="M192.286 50.5038C192.24 50.5503 191.985 50.3337 191.521 50.1094C191.057 49.8851 190.353 49.6686 189.572 49.684C188.783 49.6918 188.094 49.9393 187.638 50.179C187.174 50.4188 186.934 50.6431 186.888 50.6044C186.849 50.5735 187.027 50.2641 187.491 49.9393C187.948 49.6144 188.69 49.2973 189.564 49.2818C190.43 49.2664 191.196 49.5525 191.66 49.8619C192.132 50.1713 192.325 50.4729 192.294 50.5038H192.286Z" fill="#46474E"/>
<path d="M165.901 52.4251C165.971 52.518 163.797 54.2504 161.052 56.2922C158.306 58.3418 156.032 59.9273 155.963 59.8422C155.893 59.7494 158.066 58.0247 160.812 55.9751C163.557 53.9256 165.831 52.3401 165.901 52.4251Z" fill="#46474E"/>
<path d="M229.773 137.161C229.773 137.161 229.851 136.852 230.052 136.318C230.292 135.707 230.586 134.957 230.934 134.068C231.684 132.173 232.712 129.551 233.795 126.643C234.878 123.727 235.814 121.074 236.487 119.156C236.804 118.259 237.074 117.501 237.291 116.882C237.484 116.349 237.608 116.055 237.631 116.063C237.655 116.07 237.585 116.38 237.438 116.929C237.291 117.478 237.059 118.275 236.757 119.249C236.154 121.198 235.257 123.874 234.174 126.79C233.091 129.706 232.016 132.312 231.204 134.184C230.794 135.12 230.454 135.87 230.207 136.388C229.959 136.898 229.812 137.177 229.781 137.169L229.773 137.161Z" fill="#46474E"/>
<path d="M132.27 137.919C132.162 137.942 131.319 134.26 130.391 129.697C129.463 125.134 128.798 121.422 128.906 121.399C129.014 121.375 129.857 125.057 130.785 129.62C131.714 134.183 132.379 137.895 132.27 137.919Z" fill="#46474E"/>
<path d="M130.803 183.929C131.051 184.053 127.973 159.83 127.973 159.83C127.973 159.83 129.914 141.445 131.004 140.595L131.035 134.106C131.035 134.106 134.044 132.28 134.848 135.227C134.848 135.227 137.517 132.915 137.981 138.421C138.445 143.928 138.545 149.566 138.545 149.566L144.477 164.4L145.452 164.895C145.452 164.895 146.728 153.271 147.47 151.562C148.213 149.852 148.723 145.691 151.531 146.318C154.338 146.944 154.578 149.272 154.075 153.062C153.573 156.852 152.938 160.765 153.171 163.217C153.403 165.669 154.516 171.06 154.176 175.336C153.836 179.621 151.492 184.138 149.025 187.309C146.566 190.48 141.863 197.038 139.303 199.018C138.414 199.707 130.803 183.921 130.803 183.921V183.929Z" fill="#DDC399"/>
<path d="M133.801 164.212C133.801 164.212 133.778 163.841 133.817 163.176C133.871 162.433 133.933 161.49 134.01 160.361C134.188 157.986 134.466 154.707 134.799 151.087C134.969 149.285 135.131 147.568 135.278 145.991C135.356 145.209 135.402 144.475 135.309 143.802C135.216 143.129 134.953 142.549 134.567 142.131C133.786 141.281 132.772 141.064 132.146 141.064C131.489 141.064 131.148 141.234 131.133 141.195C131.133 141.18 131.21 141.141 131.373 141.072C131.543 141.01 131.798 140.932 132.138 140.909C132.803 140.863 133.886 141.033 134.776 141.938C135.216 142.386 135.526 143.036 135.634 143.755C135.758 144.475 135.711 145.24 135.65 146.029C135.51 147.607 135.356 149.324 135.201 151.134C134.868 154.753 134.544 158.025 134.296 160.392C134.165 161.513 134.064 162.457 133.971 163.191C133.886 163.856 133.824 164.22 133.801 164.212Z" fill="#46474E"/>
<path d="M136.987 154.31C137.048 154.356 136.383 154.944 135.935 156.22C135.455 157.481 135.285 159.383 134.953 161.448C134.635 163.521 134.318 165.393 134.079 166.746C133.831 168.1 133.653 168.927 133.599 168.92C133.545 168.912 133.622 168.061 133.8 166.7C133.97 165.339 134.241 163.459 134.558 161.387C134.891 159.329 135.107 157.411 135.68 156.112C135.95 155.462 136.275 154.99 136.538 154.697C136.793 154.403 136.979 154.287 136.994 154.302L136.987 154.31Z" fill="#46474E"/>
<path d="M134.804 134.902C134.804 134.902 134.905 135.173 135.013 135.66C135.121 136.155 135.253 136.875 135.408 137.772C135.701 139.558 136.026 142.041 136.235 144.802C136.436 147.563 136.483 150.069 136.452 151.879C136.436 152.784 136.413 153.518 136.374 154.021C136.343 154.524 136.312 154.81 136.282 154.802C136.22 154.802 136.212 153.681 136.166 151.879C136.119 150.077 136.034 147.579 135.833 144.833C135.632 142.087 135.353 139.605 135.129 137.81C134.905 136.016 134.758 134.91 134.812 134.902H134.804Z" fill="#46474E"/>
<path d="M151.917 157.616C151.979 157.709 151.051 158.135 149.922 157.787C148.785 157.446 148.259 156.572 148.36 156.534C148.445 156.456 149.04 157.114 150.038 157.408C151.028 157.725 151.887 157.508 151.917 157.624V157.616Z" fill="#46474E"/>
<path d="M131.14 180.914L115.463 187.503H106.12C106.12 187.503 96.8776 190.388 95.4623 199.043C94.0392 207.705 93.8381 212.16 97.8985 213.227C101.959 214.302 113.429 214.418 119.113 212.531C124.798 210.644 139.694 198.625 139.694 198.625L141.132 189.932L131.14 180.906V180.914Z" fill="#DDC399"/>
<path d="M134.805 190.481C134.805 190.481 134.627 190.357 134.356 190.071C134.078 189.8 133.737 189.352 133.335 188.779C132.562 187.619 131.711 185.864 131.146 183.822C130.558 181.78 130.311 179.87 130.18 178.493C130.064 177.116 130.071 176.258 130.118 176.25C130.18 176.25 130.272 177.093 130.458 178.454C130.659 179.815 130.953 181.695 131.525 183.706C132.082 185.724 132.871 187.449 133.567 188.625C134.271 189.792 134.843 190.434 134.789 190.481H134.805Z" fill="#46474E"/>
<path d="M141.643 193.236C141.558 193.205 142.262 192.014 142.532 189.871C142.664 188.812 142.648 187.52 142.347 186.136C142.045 184.751 141.388 183.328 140.429 181.998C139.477 180.66 138.402 179.5 137.505 178.378C136.593 177.257 135.866 176.166 135.386 175.176C134.907 174.186 134.682 173.312 134.597 172.701C134.52 172.09 134.551 171.75 134.566 171.75C134.644 171.735 134.62 173.135 135.634 175.045C136.129 175.996 136.871 177.048 137.784 178.139C138.696 179.237 139.779 180.397 140.754 181.758C141.736 183.112 142.416 184.612 142.71 186.051C143.004 187.481 142.989 188.819 142.819 189.902C142.648 190.993 142.347 191.836 142.099 192.393C141.983 192.671 141.867 192.88 141.782 193.019C141.705 193.158 141.651 193.228 141.643 193.22V193.236Z" fill="#46474E"/>
<defs>
<filter id="filter0_d_5042_89276" x="0.372307" y="0.186153" width="357.255" height="286.255" filterUnits="userSpaceOnUse" color-interpolation-filters="sRGB">
<feFlood flood-opacity="0" result="BackgroundImageFix"/>
<feColorMatrix in="SourceAlpha" type="matrix" values="0 0 0 0 0 0 0 0 0 0 0 0 0 0 0 0 0 0 127 0" result="hardAlpha"/>
<feOffset dy="16.8138"/>
<feGaussianBlur stdDeviation="16.8138"/>
<feComposite in2="hardAlpha" operator="out"/>
<feColorMatrix type="matrix" values="0 0 0 0 0.27451 0 0 0 0 0.278431 0 0 0 0 0.305882 0 0 0 0.2 0"/>
<feBlend mode="multiply" in2="BackgroundImageFix" result="effect1_dropShadow_5042_89276"/>
<feBlend mode="normal" in="SourceGraphic" in2="effect1_dropShadow_5042_89276" result="shape"/>
</filter>
<clipPath id="clip0_5042_89276">
<rect width="38" height="9" fill="white" transform="translate(56 192)"/>
</clipPath>
<clipPath id="clip1_5042_89276">
<rect width="21.2509" height="20.2282" fill="white" transform="translate(202.809 133) rotate(2.29245)"/>
</clipPath>
</defs>
</svg>
