<svg width="289" height="484" viewBox="0 0 289 484" fill="none" xmlns="http://www.w3.org/2000/svg">
<g filter="url(#filter0_d_5042_89787)">
<g clip-path="url(#clip0_5042_89787)">
<rect x="69" y="38" width="275.801" height="390" rx="12.0123" fill="#46474E"/>
<path d="M106.384 313.398H105.751V310.183H103.869V313.398H103.236V309.638H106.384V313.398ZM110.976 311.52C110.976 312.133 110.819 312.616 110.505 312.971C110.19 313.325 109.77 313.503 109.242 313.503C108.71 313.503 108.287 313.325 107.973 312.971C107.661 312.616 107.505 312.133 107.505 311.52C107.505 310.907 107.661 310.423 107.973 310.069C108.287 309.712 108.71 309.533 109.242 309.533C109.77 309.533 110.19 309.712 110.505 310.069C110.819 310.423 110.976 310.907 110.976 311.52ZM110.323 311.52C110.323 311.033 110.228 310.671 110.037 310.436C109.846 310.198 109.581 310.079 109.242 310.079C108.899 310.079 108.632 310.198 108.441 310.436C108.252 310.671 108.158 311.033 108.158 311.52C108.158 311.991 108.254 312.349 108.444 312.594C108.635 312.836 108.901 312.957 109.242 312.957C109.579 312.957 109.843 312.837 110.033 312.597C110.226 312.355 110.323 311.996 110.323 311.52ZM117.763 312.26C117.763 312.442 117.726 312.604 117.652 312.745C117.58 312.887 117.48 313.005 117.352 313.099C117.209 313.204 117.052 313.281 116.881 313.328C116.713 313.375 116.49 313.398 116.214 313.398H114.659V309.638H116.113C116.394 309.638 116.605 309.648 116.746 309.668C116.89 309.686 117.025 309.728 117.15 309.793C117.292 309.867 117.395 309.963 117.46 310.082C117.527 310.201 117.561 310.341 117.561 310.503C117.561 310.689 117.508 310.851 117.403 310.988C117.297 311.125 117.162 311.231 116.995 311.308V311.341C117.218 311.395 117.401 311.5 117.544 311.654C117.69 311.807 117.763 312.009 117.763 312.26ZM116.911 310.601C116.911 310.52 116.893 310.447 116.857 310.382C116.824 310.317 116.771 310.266 116.699 310.23C116.605 310.183 116.498 310.157 116.379 310.153C116.263 310.146 116.118 310.143 115.945 310.143H115.285V311.173H116.076C116.242 311.173 116.365 311.167 116.443 311.156C116.524 311.143 116.605 311.111 116.686 311.062C116.771 311.008 116.829 310.945 116.861 310.873C116.894 310.799 116.911 310.708 116.911 310.601ZM117.11 312.264C117.11 312.14 117.09 312.041 117.049 311.964C117.009 311.886 116.92 311.814 116.783 311.749C116.698 311.708 116.606 311.685 116.507 311.678C116.409 311.669 116.272 311.665 116.097 311.665H115.285V312.893H115.884C116.136 312.893 116.329 312.886 116.464 312.87C116.6 312.852 116.718 312.815 116.817 312.759C116.916 312.703 116.989 312.634 117.036 312.553C117.085 312.473 117.11 312.376 117.11 312.264ZM122.045 313.398H121.412V311.705H119.53V313.398H118.898V309.638H119.53V311.16H121.412V309.638H122.045V313.398ZM126.58 311.584H123.809C123.809 311.815 123.844 312.017 123.914 312.19C123.983 312.36 124.079 312.501 124.2 312.611C124.317 312.718 124.455 312.799 124.614 312.853C124.776 312.907 124.953 312.934 125.146 312.934C125.402 312.934 125.659 312.883 125.917 312.782C126.177 312.679 126.363 312.578 126.473 312.479H126.506V313.17C126.293 313.259 126.075 313.334 125.853 313.395C125.631 313.456 125.397 313.486 125.153 313.486C124.529 313.486 124.042 313.318 123.692 312.981C123.341 312.642 123.166 312.162 123.166 311.54C123.166 310.925 123.334 310.437 123.668 310.075C124.005 309.714 124.447 309.533 124.995 309.533C125.502 309.533 125.892 309.682 126.166 309.978C126.442 310.274 126.58 310.695 126.58 311.24V311.584ZM125.964 311.099C125.962 310.767 125.878 310.51 125.712 310.328C125.548 310.146 125.298 310.055 124.961 310.055C124.622 310.055 124.351 310.155 124.149 310.355C123.95 310.555 123.836 310.803 123.809 311.099H125.964ZM131.091 314.301H130.502V313.388H127.674V314.301H127.085V312.86H127.492C127.755 312.427 127.95 311.927 128.078 311.362C128.208 310.794 128.274 310.219 128.274 309.638H130.637V312.86H131.091V314.301ZM130.004 312.86V310.17H128.869C128.84 310.733 128.754 311.247 128.61 311.712C128.467 312.176 128.302 312.559 128.115 312.86H130.004ZM135.414 311.473C135.414 311.778 135.37 312.057 135.283 312.311C135.195 312.562 135.072 312.776 134.913 312.951C134.764 313.117 134.589 313.246 134.387 313.338C134.188 313.428 133.976 313.473 133.751 313.473C133.556 313.473 133.378 313.451 133.219 313.409C133.062 313.366 132.902 313.3 132.738 313.21V314.786H132.105V309.638H132.738V310.032C132.906 309.89 133.095 309.772 133.303 309.678C133.514 309.582 133.739 309.533 133.977 309.533C134.43 309.533 134.782 309.705 135.034 310.049C135.287 310.39 135.414 310.864 135.414 311.473ZM134.761 311.49C134.761 311.036 134.684 310.697 134.529 310.473C134.374 310.248 134.136 310.136 133.815 310.136C133.633 310.136 133.45 310.175 133.266 310.254C133.082 310.332 132.906 310.436 132.738 310.564V312.695C132.917 312.776 133.071 312.831 133.199 312.86C133.329 312.889 133.476 312.904 133.64 312.904C133.992 312.904 134.267 312.785 134.465 312.547C134.662 312.309 134.761 311.956 134.761 311.49ZM139.686 311.584H136.916C136.916 311.815 136.95 312.017 137.02 312.19C137.09 312.36 137.185 312.501 137.306 312.611C137.423 312.718 137.561 312.799 137.72 312.853C137.882 312.907 138.059 312.934 138.252 312.934C138.508 312.934 138.765 312.883 139.023 312.782C139.284 312.679 139.469 312.578 139.579 312.479H139.612V313.17C139.399 313.259 139.181 313.334 138.959 313.395C138.737 313.456 138.504 313.486 138.259 313.486C137.635 313.486 137.148 313.318 136.798 312.981C136.448 312.642 136.273 312.162 136.273 311.54C136.273 310.925 136.44 310.437 136.774 310.075C137.111 309.714 137.553 309.533 138.101 309.533C138.608 309.533 138.999 309.682 139.272 309.978C139.548 310.274 139.686 310.695 139.686 311.24V311.584ZM139.07 311.099C139.068 310.767 138.984 310.51 138.818 310.328C138.654 310.146 138.404 310.055 138.067 310.055C137.728 310.055 137.458 310.155 137.256 310.355C137.056 310.555 136.943 310.803 136.916 311.099H139.07ZM143.932 313.398H143.299V311.705H141.417V313.398H140.784V309.638H141.417V311.16H143.299V309.638H143.932V313.398ZM148.487 313.398H147.861V310.574L145.891 313.398H145.319V309.638H145.945V312.422L147.894 309.638H148.487V313.398ZM154.025 311.52C154.025 311.037 153.932 310.677 153.745 310.439C153.559 310.199 153.301 310.079 152.971 310.079C152.628 310.079 152.365 310.205 152.183 310.456C152.004 310.705 151.914 311.06 151.914 311.52C151.914 311.996 152.008 312.355 152.197 312.597C152.385 312.837 152.643 312.957 152.971 312.957C153.299 312.957 153.556 312.838 153.742 312.601C153.931 312.36 154.025 312 154.025 311.52ZM151.288 311.695H150.507V313.398H149.874V309.638H150.507V311.163H151.305C151.361 310.644 151.541 310.244 151.847 309.961C152.154 309.676 152.531 309.533 152.978 309.533C153.496 309.533 153.909 309.711 154.217 310.065C154.524 310.42 154.678 310.905 154.678 311.52C154.678 312.128 154.527 312.611 154.224 312.967C153.921 313.324 153.505 313.503 152.978 313.503C152.48 313.503 152.08 313.341 151.779 313.018C151.481 312.695 151.317 312.254 151.288 311.695ZM162.28 313.035C162.156 313.089 162.044 313.139 161.943 313.186C161.844 313.233 161.714 313.283 161.553 313.334C161.416 313.377 161.266 313.413 161.105 313.442C160.945 313.474 160.769 313.489 160.576 313.489C160.213 313.489 159.882 313.439 159.583 313.338C159.287 313.235 159.029 313.074 158.809 312.856C158.593 312.643 158.425 312.373 158.304 312.045C158.182 311.715 158.122 311.332 158.122 310.897C158.122 310.484 158.18 310.115 158.297 309.789C158.414 309.464 158.582 309.189 158.802 308.964C159.015 308.747 159.272 308.581 159.573 308.466C159.876 308.352 160.211 308.295 160.58 308.295C160.849 308.295 161.117 308.327 161.384 308.392C161.654 308.457 161.952 308.572 162.28 308.736V309.527H162.229C161.953 309.296 161.679 309.127 161.408 309.022C161.136 308.916 160.846 308.863 160.536 308.863C160.282 308.863 160.053 308.905 159.849 308.988C159.647 309.069 159.466 309.196 159.307 309.368C159.152 309.537 159.031 309.75 158.943 310.008C158.858 310.264 158.815 310.56 158.815 310.897C158.815 311.249 158.863 311.552 158.957 311.806C159.053 312.06 159.177 312.266 159.327 312.425C159.484 312.592 159.667 312.715 159.876 312.796C160.087 312.874 160.309 312.914 160.543 312.914C160.864 312.914 161.164 312.859 161.445 312.749C161.725 312.639 161.988 312.474 162.233 312.254H162.28V313.035ZM167.508 313.398H166.643L164.966 311.405H164.027V313.398H163.36V308.385H164.764C165.067 308.385 165.32 308.406 165.522 308.446C165.724 308.484 165.906 308.554 166.067 308.655C166.249 308.769 166.39 308.914 166.491 309.089C166.595 309.262 166.646 309.482 166.646 309.749C166.646 310.11 166.555 310.413 166.374 310.658C166.192 310.9 165.942 311.083 165.623 311.207L167.508 313.398ZM165.949 309.796C165.949 309.652 165.924 309.526 165.872 309.416C165.823 309.303 165.74 309.209 165.623 309.133C165.526 309.068 165.412 309.023 165.279 308.998C165.147 308.971 164.991 308.958 164.811 308.958H164.027V310.85H164.7C164.911 310.85 165.095 310.832 165.252 310.796C165.41 310.758 165.543 310.688 165.653 310.587C165.754 310.493 165.828 310.385 165.875 310.264C165.925 310.141 165.949 309.985 165.949 309.796ZM172.757 313.398H172.09V309.079L170.696 312.018H170.299L168.915 309.079V313.398H168.292V308.385H169.201L170.538 311.176L171.831 308.385H172.757V313.398ZM179.567 313.163C179.309 313.284 179.087 313.367 178.901 313.412C178.717 313.459 178.533 313.483 178.349 313.483C178.075 313.483 177.823 313.443 177.594 313.365C177.365 313.284 177.169 313.163 177.005 313.001C176.841 312.84 176.713 312.635 176.621 312.388C176.532 312.142 176.487 311.853 176.487 311.523C176.487 310.924 176.653 310.446 176.985 310.089C177.317 309.73 177.772 309.55 178.349 309.55C178.566 309.55 178.78 309.581 178.988 309.641C179.199 309.702 179.392 309.776 179.567 309.863V310.567H179.53C179.322 310.408 179.115 310.29 178.911 310.214C178.709 310.137 178.512 310.099 178.322 310.099C177.947 310.099 177.656 310.225 177.45 310.476C177.245 310.728 177.143 311.077 177.143 311.523C177.143 311.97 177.245 312.317 177.45 312.563C177.654 312.81 177.945 312.934 178.322 312.934C178.454 312.934 178.585 312.917 178.716 312.883C178.848 312.85 178.968 312.806 179.076 312.752C179.161 312.709 179.249 312.659 179.338 312.601C179.43 312.54 179.494 312.495 179.53 312.466H179.567V313.163ZM183.742 313.398H183.116V310.574L181.146 313.398H180.574V309.638H181.2V312.422L183.149 309.638H183.742V313.398ZM187.943 313.163C187.685 313.284 187.463 313.367 187.277 313.412C187.093 313.459 186.909 313.483 186.725 313.483C186.451 313.483 186.199 313.443 185.971 313.365C185.742 313.284 185.545 313.163 185.381 313.001C185.218 312.84 185.09 312.635 184.998 312.388C184.908 312.142 184.863 311.853 184.863 311.523C184.863 310.924 185.029 310.446 185.361 310.089C185.693 309.73 186.148 309.55 186.725 309.55C186.942 309.55 187.156 309.581 187.364 309.641C187.575 309.702 187.768 309.776 187.943 309.863V310.567H187.906C187.698 310.408 187.491 310.29 187.287 310.214C187.085 310.137 186.889 310.099 186.698 310.099C186.323 310.099 186.032 310.225 185.826 310.476C185.622 310.728 185.519 311.077 185.519 311.523C185.519 311.97 185.622 312.317 185.826 312.563C186.03 312.81 186.321 312.934 186.698 312.934C186.83 312.934 186.961 312.917 187.092 312.883C187.224 312.85 187.344 312.806 187.452 312.752C187.537 312.709 187.625 312.659 187.714 312.601C187.807 312.54 187.87 312.495 187.906 312.466H187.943V313.163ZM191.714 310.193H190.354V313.398H189.721V310.193H188.361V309.638H191.714V310.193ZM195.656 311.584H192.885C192.885 311.815 192.92 312.017 192.99 312.19C193.059 312.36 193.155 312.501 193.276 312.611C193.393 312.718 193.531 312.799 193.69 312.853C193.852 312.907 194.029 312.934 194.222 312.934C194.478 312.934 194.735 312.883 194.993 312.782C195.253 312.679 195.439 312.578 195.549 312.479H195.582V313.17C195.369 313.259 195.151 313.334 194.929 313.395C194.707 313.456 194.473 313.486 194.229 313.486C193.605 313.486 193.118 313.318 192.768 312.981C192.418 312.642 192.242 312.162 192.242 311.54C192.242 310.925 192.41 310.437 192.744 310.075C193.081 309.714 193.523 309.533 194.071 309.533C194.578 309.533 194.968 309.682 195.242 309.978C195.518 310.274 195.656 310.695 195.656 311.24V311.584ZM195.04 311.099C195.038 310.767 194.954 310.51 194.788 310.328C194.624 310.146 194.374 310.055 194.037 310.055C193.698 310.055 193.428 310.155 193.226 310.355C193.026 310.555 192.912 310.803 192.885 311.099H195.04ZM200.309 313.398H199.683V310.429L198.747 312.361H198.275L197.346 310.429V313.398H196.754V309.638H197.518L198.541 311.742L199.531 309.638H200.309V313.398ZM204.009 312.244C204.009 312.129 203.989 312.029 203.948 311.944C203.91 311.856 203.846 311.786 203.756 311.732C203.662 311.676 203.554 311.642 203.433 311.631C203.314 311.62 203.142 311.614 202.918 311.614H202.325V312.893H202.905C203.129 312.893 203.303 312.884 203.426 312.866C203.55 312.846 203.656 312.809 203.746 312.755C203.838 312.697 203.904 312.629 203.945 312.55C203.988 312.469 204.009 312.367 204.009 312.244ZM204.662 312.234C204.662 312.415 204.625 312.58 204.551 312.728C204.479 312.877 204.38 312.997 204.255 313.089C204.106 313.201 203.948 313.281 203.78 313.328C203.612 313.375 203.395 313.398 203.13 313.398H201.693V309.638H202.325V311.102H203.147C203.43 311.102 203.649 311.117 203.803 311.146C203.961 311.175 204.117 311.247 204.271 311.362C204.402 311.458 204.499 311.582 204.564 311.732C204.629 311.882 204.662 312.05 204.662 312.234ZM205.292 309.638H205.924V313.398H205.292V309.638ZM106.65 324.301H106.061V323.388H103.233V324.301H102.644V322.86H103.051C103.314 322.427 103.509 321.927 103.637 321.362C103.767 320.794 103.832 320.219 103.832 319.638H106.195V322.86H106.65V324.301ZM105.563 322.86V320.17H104.428C104.399 320.733 104.312 321.247 104.169 321.712C104.025 322.176 103.86 322.559 103.674 322.86H105.563ZM110.697 323.398H110.064V320.17H108.66C108.653 320.356 108.646 320.536 108.64 320.708C108.633 320.881 108.626 321.037 108.619 321.176C108.604 321.551 108.578 321.851 108.542 322.075C108.506 322.298 108.459 322.483 108.401 322.631C108.347 322.77 108.286 322.883 108.219 322.971C108.154 323.056 108.083 323.134 108.007 323.203C107.93 323.271 107.845 323.321 107.751 323.355C107.659 323.388 107.558 323.405 107.448 323.405C107.41 323.405 107.353 323.404 107.279 323.402C107.208 323.4 107.16 323.398 107.138 323.398V322.846H107.172C107.19 322.846 107.215 322.847 107.249 322.85C107.283 322.852 107.311 322.853 107.333 322.853C107.387 322.853 107.442 322.845 107.498 322.829C107.557 322.814 107.606 322.785 107.646 322.742C107.761 322.63 107.853 322.44 107.922 322.173C107.992 321.906 108.038 321.52 108.06 321.015C108.069 320.831 108.077 320.613 108.084 320.362C108.093 320.108 108.101 319.867 108.108 319.638H110.697V323.398ZM114.972 323.398H114.339V321.907H113.595L112.43 323.398H111.686L112.952 321.846C112.627 321.757 112.389 321.62 112.238 321.436C112.088 321.249 112.013 321.006 112.013 320.705C112.013 320.505 112.058 320.336 112.148 320.197C112.237 320.058 112.351 319.944 112.488 319.857C112.622 319.771 112.777 319.714 112.952 319.685C113.127 319.654 113.318 319.638 113.525 319.638H114.972V323.398ZM114.339 321.409V320.143H113.541C113.369 320.143 113.244 320.148 113.168 320.16C113.091 320.171 113.008 320.201 112.919 320.251C112.831 320.3 112.766 320.367 112.723 320.453C112.683 320.536 112.663 320.627 112.663 320.725C112.663 320.849 112.675 320.949 112.7 321.025C112.727 321.101 112.78 321.173 112.861 321.24C112.944 321.305 113.045 321.35 113.164 321.375C113.283 321.397 113.416 321.409 113.562 321.409H114.339ZM122.311 323.398H121.483L119.921 321.675H119.578V323.398H118.945V319.638H119.578V321.261C119.786 321.261 119.955 321.224 120.083 321.149C120.211 321.073 120.319 320.952 120.409 320.786C120.441 320.725 120.471 320.661 120.5 320.594C120.532 320.524 120.562 320.458 120.591 320.395C120.708 320.142 120.854 319.952 121.029 319.826C121.204 319.701 121.455 319.638 121.783 319.638H122.072V320.183H121.793C121.616 320.183 121.476 320.221 121.375 320.298C121.277 320.372 121.187 320.503 121.106 320.692C121.016 320.903 120.921 321.061 120.82 321.166C120.721 321.27 120.616 321.348 120.503 321.402L122.311 323.398ZM126.341 321.52C126.341 322.133 126.184 322.616 125.87 322.971C125.556 323.325 125.135 323.503 124.607 323.503C124.075 323.503 123.652 323.325 123.338 322.971C123.026 322.616 122.87 322.133 122.87 321.52C122.87 320.907 123.026 320.423 123.338 320.069C123.652 319.712 124.075 319.533 124.607 319.533C125.135 319.533 125.556 319.712 125.87 320.069C126.184 320.423 126.341 320.907 126.341 321.52ZM125.688 321.52C125.688 321.033 125.593 320.671 125.402 320.436C125.211 320.198 124.946 320.079 124.607 320.079C124.264 320.079 123.997 320.198 123.806 320.436C123.618 320.671 123.523 321.033 123.523 321.52C123.523 321.991 123.619 322.349 123.809 322.594C124 322.836 124.266 322.957 124.607 322.957C124.944 322.957 125.208 322.837 125.399 322.597C125.592 322.355 125.688 321.996 125.688 321.52ZM131.017 323.398H130.391V320.429L129.455 322.361H128.984L128.055 320.429V323.398H127.462V319.638H128.226L129.25 321.742L130.24 319.638H131.017V323.398ZM135.549 323.398H134.916V320.183H133.034V323.398H132.401V319.638H135.549V323.398ZM139.858 323.398H139.229V322.998C139.172 323.036 139.096 323.09 139 323.159C138.905 323.227 138.813 323.281 138.724 323.321C138.618 323.373 138.497 323.415 138.36 323.449C138.223 323.485 138.063 323.503 137.879 323.503C137.54 323.503 137.252 323.391 137.017 323.166C136.781 322.942 136.663 322.656 136.663 322.308C136.663 322.023 136.724 321.793 136.845 321.617C136.968 321.44 137.143 321.301 137.37 321.2C137.599 321.099 137.874 321.031 138.195 320.995C138.516 320.959 138.86 320.932 139.229 320.914V320.816C139.229 320.673 139.203 320.554 139.151 320.459C139.102 320.365 139.03 320.291 138.936 320.237C138.846 320.185 138.738 320.151 138.612 320.133C138.487 320.115 138.355 320.106 138.219 320.106C138.052 320.106 137.867 320.128 137.663 320.173C137.459 320.216 137.248 320.279 137.03 320.362H136.996V319.719C137.12 319.685 137.298 319.648 137.532 319.608C137.765 319.567 137.995 319.547 138.222 319.547C138.487 319.547 138.717 319.569 138.912 319.614C139.11 319.657 139.28 319.731 139.424 319.836C139.565 319.94 139.673 320.073 139.747 320.237C139.821 320.401 139.858 320.604 139.858 320.846V323.398ZM139.229 322.473V321.426C139.036 321.437 138.808 321.454 138.545 321.476C138.285 321.498 138.078 321.531 137.926 321.574C137.744 321.625 137.597 321.706 137.485 321.816C137.372 321.924 137.316 322.073 137.316 322.264C137.316 322.479 137.381 322.642 137.512 322.752C137.642 322.86 137.84 322.914 138.107 322.914C138.33 322.914 138.533 322.871 138.717 322.786C138.901 322.698 139.071 322.594 139.229 322.473ZM144.363 323.398H143.73V321.705H141.848V323.398H141.215V319.638H141.848V321.16H143.73V319.638H144.363V323.398ZM148.918 323.398H148.291V320.574L146.322 323.398H145.75V319.638H146.376V322.422L148.325 319.638H148.918V323.398ZM153.473 323.398H152.847V320.574L150.877 323.398H150.305V319.638H150.931V322.422L152.88 319.638H153.473V323.398Z" fill="white" fill-opacity="0.9"/>
<path d="M160.657 322.755L158.879 321.345V321.059L160.657 319.651V320.284L159.455 321.203L160.657 322.122V322.755ZM159.209 322.853L157.358 321.351V321.052L159.209 319.554V320.214L157.96 321.203L159.209 322.193V322.853ZM165.835 321.856C165.835 322.106 165.788 322.326 165.693 322.516C165.599 322.707 165.472 322.864 165.313 322.988C165.125 323.136 164.917 323.241 164.69 323.304C164.466 323.367 164.18 323.398 163.832 323.398H162.054V318.385H163.539C163.905 318.385 164.178 318.399 164.36 318.426C164.542 318.453 164.716 318.509 164.882 318.594C165.066 318.691 165.2 318.815 165.283 318.968C165.366 319.118 165.407 319.299 165.407 319.51C165.407 319.748 165.347 319.951 165.226 320.119C165.104 320.285 164.943 320.419 164.741 320.52V320.547C165.08 320.616 165.347 320.766 165.542 320.995C165.737 321.221 165.835 321.509 165.835 321.856ZM164.714 319.597C164.714 319.476 164.694 319.374 164.653 319.291C164.613 319.208 164.548 319.141 164.458 319.089C164.352 319.028 164.224 318.991 164.074 318.978C163.924 318.962 163.737 318.954 163.515 318.954H162.721V320.402H163.583C163.791 320.402 163.957 320.392 164.081 320.372C164.204 320.349 164.319 320.304 164.424 320.237C164.53 320.17 164.604 320.083 164.646 319.978C164.691 319.87 164.714 319.743 164.714 319.597ZM165.141 321.883C165.141 321.681 165.111 321.521 165.05 321.402C164.99 321.283 164.88 321.182 164.721 321.099C164.613 321.043 164.481 321.007 164.327 320.991C164.174 320.973 163.988 320.964 163.768 320.964H162.721V322.829H163.603C163.895 322.829 164.134 322.815 164.32 322.786C164.506 322.754 164.659 322.698 164.778 322.617C164.903 322.53 164.995 322.43 165.054 322.318C165.112 322.205 165.141 322.061 165.141 321.883ZM169.791 323.398H169.161V322.998C169.105 323.036 169.029 323.09 168.932 323.159C168.838 323.227 168.746 323.281 168.656 323.321C168.551 323.373 168.429 323.415 168.292 323.449C168.156 323.485 167.995 323.503 167.811 323.503C167.472 323.503 167.185 323.391 166.949 323.166C166.713 322.942 166.596 322.656 166.596 322.308C166.596 322.023 166.656 321.793 166.777 321.617C166.901 321.44 167.076 321.301 167.303 321.2C167.532 321.099 167.807 321.031 168.127 320.995C168.448 320.959 168.793 320.932 169.161 320.914V320.816C169.161 320.673 169.135 320.554 169.084 320.459C169.034 320.365 168.962 320.291 168.868 320.237C168.778 320.185 168.671 320.151 168.545 320.133C168.419 320.115 168.288 320.106 168.151 320.106C167.985 320.106 167.8 320.128 167.596 320.173C167.391 320.216 167.18 320.279 166.963 320.362H166.929V319.719C167.052 319.685 167.231 319.648 167.464 319.608C167.698 319.567 167.928 319.547 168.154 319.547C168.419 319.547 168.649 319.569 168.845 319.614C169.042 319.657 169.213 319.731 169.356 319.836C169.498 319.94 169.605 320.073 169.68 320.237C169.754 320.401 169.791 320.604 169.791 320.846V323.398ZM169.161 322.473V321.426C168.968 321.437 168.74 321.454 168.478 321.476C168.217 321.498 168.011 321.531 167.858 321.574C167.676 321.625 167.529 321.706 167.417 321.816C167.305 321.924 167.249 322.073 167.249 322.264C167.249 322.479 167.314 322.642 167.444 322.752C167.574 322.86 167.773 322.914 168.04 322.914C168.262 322.914 168.465 322.871 168.649 322.786C168.833 322.698 169.004 322.594 169.161 322.473ZM175.941 323.398H171.147V319.638H171.78V322.853H173.228V319.638H173.861V322.853H175.309V319.638H175.941V323.398ZM180.247 323.398H179.618V322.998C179.562 323.036 179.485 323.09 179.389 323.159C179.295 323.227 179.203 323.281 179.113 323.321C179.007 323.373 178.886 323.415 178.749 323.449C178.612 323.485 178.452 323.503 178.268 323.503C177.929 323.503 177.642 323.391 177.406 323.166C177.17 322.942 177.052 322.656 177.052 322.308C177.052 322.023 177.113 321.793 177.234 321.617C177.358 321.44 177.533 321.301 177.759 321.2C177.988 321.099 178.263 321.031 178.584 320.995C178.905 320.959 179.25 320.932 179.618 320.914V320.816C179.618 320.673 179.592 320.554 179.54 320.459C179.491 320.365 179.419 320.291 179.325 320.237C179.235 320.185 179.127 320.151 179.002 320.133C178.876 320.115 178.745 320.106 178.608 320.106C178.442 320.106 178.257 320.128 178.052 320.173C177.848 320.216 177.637 320.279 177.419 320.362H177.386V319.719C177.509 319.685 177.688 319.648 177.921 319.608C178.154 319.567 178.384 319.547 178.611 319.547C178.876 319.547 179.106 319.569 179.301 319.614C179.499 319.657 179.669 319.731 179.813 319.836C179.954 319.94 180.062 320.073 180.136 320.237C180.21 320.401 180.247 320.604 180.247 320.846V323.398ZM179.618 322.473V321.426C179.425 321.437 179.197 321.454 178.934 321.476C178.674 321.498 178.468 321.531 178.315 321.574C178.133 321.625 177.986 321.706 177.874 321.816C177.762 321.924 177.706 322.073 177.706 322.264C177.706 322.479 177.771 322.642 177.901 322.752C178.031 322.86 178.23 322.914 178.497 322.914C178.719 322.914 178.922 322.871 179.106 322.786C179.29 322.698 179.461 322.594 179.618 322.473ZM187.56 323.398H186.731L185.169 321.675H184.826V323.398H184.193V319.638H184.826V321.261C185.035 321.261 185.203 321.224 185.331 321.149C185.459 321.073 185.568 320.952 185.657 320.786C185.689 320.725 185.719 320.661 185.748 320.594C185.78 320.524 185.81 320.458 185.839 320.395C185.956 320.142 186.102 319.952 186.277 319.826C186.452 319.701 186.703 319.638 187.031 319.638H187.321V320.183H187.041C186.864 320.183 186.725 320.221 186.624 320.298C186.525 320.372 186.435 320.503 186.354 320.692C186.265 320.903 186.169 321.061 186.068 321.166C185.969 321.27 185.864 321.348 185.752 321.402L187.56 323.398ZM191.589 321.52C191.589 322.133 191.432 322.616 191.118 322.971C190.804 323.325 190.383 323.503 189.856 323.503C189.324 323.503 188.901 323.325 188.586 322.971C188.274 322.616 188.118 322.133 188.118 321.52C188.118 320.907 188.274 320.423 188.586 320.069C188.901 319.712 189.324 319.533 189.856 319.533C190.383 319.533 190.804 319.712 191.118 320.069C191.432 320.423 191.589 320.907 191.589 321.52ZM190.936 321.52C190.936 321.033 190.841 320.671 190.65 320.436C190.459 320.198 190.195 320.079 189.856 320.079C189.512 320.079 189.245 320.198 189.054 320.436C188.866 320.671 188.772 321.033 188.772 321.52C188.772 321.991 188.867 322.349 189.058 322.594C189.248 322.836 189.514 322.957 189.856 322.957C190.192 322.957 190.456 322.837 190.647 322.597C190.84 322.355 190.936 321.996 190.936 321.52ZM196.266 323.398H195.639V320.429L194.704 322.361H194.232L193.303 320.429V323.398H192.71V319.638H193.475L194.498 321.742L195.488 319.638H196.266V323.398ZM200.797 323.398H200.164V320.183H198.282V323.398H197.649V319.638H200.797V323.398ZM205.106 323.398H204.477V322.998C204.421 323.036 204.344 323.09 204.248 323.159C204.154 323.227 204.062 323.281 203.972 323.321C203.866 323.373 203.745 323.415 203.608 323.449C203.471 323.485 203.311 323.503 203.127 323.503C202.788 323.503 202.501 323.391 202.265 323.166C202.029 322.942 201.911 322.656 201.911 322.308C201.911 322.023 201.972 321.793 202.093 321.617C202.217 321.44 202.392 321.301 202.618 321.2C202.847 321.099 203.122 321.031 203.443 320.995C203.764 320.959 204.109 320.932 204.477 320.914V320.816C204.477 320.673 204.451 320.554 204.399 320.459C204.35 320.365 204.278 320.291 204.184 320.237C204.094 320.185 203.986 320.151 203.861 320.133C203.735 320.115 203.604 320.106 203.467 320.106C203.301 320.106 203.116 320.128 202.911 320.173C202.707 320.216 202.496 320.279 202.278 320.362H202.245V319.719C202.368 319.685 202.547 319.648 202.78 319.608C203.013 319.567 203.243 319.547 203.47 319.547C203.735 319.547 203.965 319.569 204.16 319.614C204.358 319.657 204.528 319.731 204.672 319.836C204.813 319.94 204.921 320.073 204.995 320.237C205.069 320.401 205.106 320.604 205.106 320.846V323.398ZM204.477 322.473V321.426C204.284 321.437 204.056 321.454 203.793 321.476C203.533 321.498 203.327 321.531 203.174 321.574C202.992 321.625 202.845 321.706 202.733 321.816C202.621 321.924 202.565 322.073 202.565 322.264C202.565 322.479 202.63 322.642 202.76 322.752C202.89 322.86 203.089 322.914 203.356 322.914C203.578 322.914 203.781 322.871 203.965 322.786C204.149 322.698 204.32 322.594 204.477 322.473ZM209.611 323.398H208.978V321.705H207.096V323.398H206.463V319.638H207.096V321.16H208.978V319.638H209.611V323.398ZM214.166 323.398H213.54V320.574L211.57 323.398H210.998V319.638H211.624V322.422L213.573 319.638H214.166V323.398ZM218.442 323.398H217.809V321.907H217.065L215.9 323.398H215.156L216.421 321.846C216.096 321.757 215.858 321.62 215.708 321.436C215.557 321.249 215.482 321.006 215.482 320.705C215.482 320.505 215.527 320.336 215.617 320.197C215.707 320.058 215.82 319.944 215.957 319.857C216.092 319.771 216.246 319.714 216.421 319.685C216.597 319.654 216.787 319.638 216.994 319.638H218.442V323.398ZM217.809 321.409V320.143H217.011C216.838 320.143 216.713 320.148 216.637 320.16C216.561 320.171 216.478 320.201 216.388 320.251C216.3 320.3 216.235 320.367 216.193 320.453C216.152 320.536 216.132 320.627 216.132 320.725C216.132 320.849 216.144 320.949 216.169 321.025C216.196 321.101 216.25 321.173 216.331 321.24C216.414 321.305 216.515 321.35 216.634 321.375C216.753 321.397 216.885 321.409 217.031 321.409H217.809ZM223.087 321.351L221.236 322.853V322.193L222.485 321.203L221.236 320.214V319.554L223.087 321.052V321.351ZM221.566 321.345L219.788 322.755V322.122L220.99 321.203L219.788 320.284V319.651L221.566 321.059V321.345Z" fill="#FCCD82"/>
<path d="M104.686 74.7989L103.998 75.5955V77.287H102.613V71.2478H103.998V73.6057L105.985 71.2478H107.622L105.6 73.7009L107.726 77.2838H106.105L104.682 74.7958L104.686 74.7989Z" fill="#D7D7D7"/>
<path d="M109.805 71.2478V77.287H108.42V71.2478H109.805Z" fill="#D7D7D7"/>
<path d="M115.596 75.5162C115.602 75.7922 115.536 76.0652 115.403 76.3095C115.274 76.5348 115.097 76.7284 114.886 76.8744C114.652 77.0331 114.394 77.1505 114.119 77.2171C113.817 77.2933 113.504 77.3314 113.192 77.3314C112.978 77.3314 112.763 77.3187 112.552 77.2965C112.35 77.2743 112.148 77.2298 111.956 77.1695C111.757 77.1061 111.565 77.0204 111.385 76.9157C111.183 76.7982 110.997 76.6618 110.823 76.5095L111.599 75.4844C111.83 75.6748 112.091 75.8272 112.369 75.9351C112.618 76.0303 112.883 76.0779 113.148 76.081C113.309 76.0842 113.47 76.0683 113.627 76.0271C113.738 76.0017 113.842 75.9541 113.936 75.8906C114.006 75.8462 114.063 75.7827 114.101 75.7129C114.132 75.6558 114.148 75.5923 114.148 75.5288C114.148 75.4463 114.126 75.367 114.082 75.2972C114.025 75.2178 113.949 75.1544 113.861 75.1099C113.728 75.0401 113.59 74.9798 113.448 74.9354C113.277 74.8783 113.063 74.8116 112.807 74.7418C112.555 74.6752 112.306 74.5895 112.066 74.4848C111.867 74.3991 111.684 74.2817 111.52 74.1357C111.375 74.0024 111.259 73.8342 111.186 73.6501C111.104 73.4343 111.066 73.2058 111.073 72.9742C111.069 72.7171 111.123 72.4632 111.233 72.2348C111.341 72.0158 111.495 71.8254 111.688 71.673C111.896 71.5112 112.132 71.3906 112.385 71.3176C112.675 71.2288 112.971 71.1875 113.271 71.1875C113.618 71.1875 113.962 71.2192 114.302 71.2827C114.684 71.3652 115.044 71.5239 115.359 71.746L114.741 72.8663C114.504 72.7044 114.239 72.5902 113.962 72.5235C113.728 72.4759 113.492 72.4537 113.252 72.4537C113.066 72.4474 112.883 72.4823 112.716 72.5648C112.58 72.6346 112.501 72.7774 112.511 72.9297C112.511 73.0027 112.533 73.0757 112.577 73.136C112.637 73.2122 112.713 73.2725 112.798 73.3169C112.93 73.3867 113.066 73.4439 113.208 73.4883C113.375 73.5454 113.583 73.6057 113.826 73.6755C114.148 73.7549 114.457 73.8755 114.75 74.031C114.955 74.1389 115.135 74.2848 115.286 74.4594C115.406 74.6054 115.491 74.7767 115.536 74.9576C115.577 75.1385 115.599 75.3257 115.596 75.513V75.5162Z" fill="#D7D7D7"/>
<path d="M116.425 71.2478H120.614V72.4823H117.81V73.6216H120.204V74.8561H117.81V76.0461H120.614V77.2806H116.425V71.2478Z" fill="#D7D7D7"/>
<path d="M121.528 77.287V71.2478H122.894V76.0493H125.742V77.2838H121.528V77.287Z" fill="#D7D7D7"/>
<path d="M126.307 71.2478H130.496V72.4823H127.692V73.6216H130.086V74.8561H127.692V76.0461H130.496V77.2806H126.307V71.2478Z" fill="#D7D7D7"/>
<path d="M133.65 75.2528L134.258 73.0694L134.782 71.2478H136.227L134.318 77.2838H132.899L130.975 71.2478H132.454L132.994 73.1043L133.596 75.2496H133.647L133.65 75.2528Z" fill="#D7D7D7"/>
<path d="M106.602 84.9428C106.437 85.0541 106.26 85.1464 106.072 85.2196C105.898 85.2896 105.714 85.3373 105.53 85.3691C105.082 85.4455 104.625 85.4232 104.19 85.2991C103.917 85.2259 103.66 85.1082 103.428 84.9491C103.199 84.7933 103.012 84.5865 102.873 84.3478C102.723 84.0838 102.65 83.7847 102.657 83.4825V81.2236C102.65 80.9213 102.72 80.6223 102.863 80.355C102.996 80.1132 103.184 79.9 103.406 79.7346C103.634 79.566 103.892 79.4387 104.165 79.3624C104.441 79.2796 104.73 79.2383 105.022 79.2383C105.383 79.2383 105.745 79.2924 106.095 79.391C106.425 79.4769 106.733 79.6392 106.993 79.8619L106.317 80.9436C106.136 80.7845 105.917 80.6668 105.682 80.6063C105.476 80.5523 105.266 80.5236 105.057 80.5236C104.939 80.5236 104.822 80.5427 104.707 80.5777C104.59 80.6127 104.482 80.6668 104.384 80.74C104.282 80.8163 104.199 80.915 104.142 81.0295C104.076 81.1695 104.044 81.319 104.05 81.4749V83.1866C104.044 83.3393 104.076 83.492 104.139 83.632C104.193 83.7433 104.269 83.8452 104.368 83.9215C104.46 83.9947 104.564 84.0488 104.679 84.0838C104.79 84.1188 104.907 84.1379 105.025 84.1379C105.136 84.1379 105.247 84.1219 105.355 84.0933C105.472 84.0615 105.583 84.0042 105.676 83.9279V83.1102H104.844V81.933H107.069V84.526C106.939 84.6914 106.78 84.8346 106.606 84.9491L106.602 84.9428Z" fill="#D7D7D7"/>
<path d="M110.786 79.2987C111.078 79.2892 111.37 79.3465 111.637 79.4642C111.859 79.566 112.056 79.7155 112.212 79.9032C112.361 80.0846 112.472 80.2946 112.536 80.5236C112.602 80.7495 112.637 80.9849 112.637 81.2204C112.637 81.3826 112.612 81.5449 112.567 81.6976C112.52 81.8567 112.456 82.0126 112.37 82.1558C112.285 82.3021 112.18 82.4389 112.059 82.5598C111.939 82.6839 111.799 82.7921 111.647 82.8811L112.726 85.35H111.237L110.326 83.1198H109.466V85.35H108.072V79.2987H110.79H110.786ZM109.463 81.8981H110.498C110.704 81.9171 110.907 81.844 111.053 81.7008C111.167 81.5672 111.228 81.3954 111.224 81.2204C111.244 80.8609 110.971 80.5554 110.612 80.5364C110.574 80.5364 110.536 80.5364 110.494 80.5395H109.459V81.9012L109.463 81.8981Z" fill="#D7D7D7"/>
<path d="M118.053 83.4379C118.059 83.7402 117.996 84.036 117.859 84.3065C117.735 84.5483 117.557 84.7583 117.342 84.9205C117.116 85.0891 116.862 85.2132 116.589 85.2896C116.297 85.3723 115.992 85.4137 115.688 85.4137C115.383 85.4137 115.081 85.3723 114.793 85.2896C114.523 85.2132 114.266 85.0891 114.04 84.9205C113.821 84.7583 113.643 84.5483 113.52 84.3065C113.386 84.036 113.32 83.737 113.326 83.4379V81.1631C113.316 80.864 113.389 80.565 113.535 80.3009C113.672 80.0655 113.859 79.8619 114.081 79.7028C114.31 79.5437 114.567 79.4228 114.837 79.3528C115.113 79.2765 115.399 79.2383 115.685 79.2383C115.973 79.2383 116.259 79.2796 116.538 79.3624C116.811 79.4387 117.069 79.5628 117.3 79.7282C117.526 79.8873 117.71 80.0973 117.843 80.3391C117.986 80.6063 118.056 80.9054 118.05 81.2077V83.4379H118.053ZM116.659 81.4685C116.662 81.3158 116.634 81.1631 116.57 81.0231C116.519 80.9118 116.443 80.8131 116.348 80.7336C116.256 80.6604 116.151 80.6032 116.037 80.5713C115.926 80.5364 115.812 80.5204 115.694 80.5173C115.577 80.5173 115.459 80.5364 115.348 80.5713C115.234 80.6063 115.129 80.6604 115.037 80.7336C114.939 80.81 114.862 80.9118 114.808 81.0231C114.745 81.1631 114.716 81.3158 114.72 81.4685V83.1802C114.713 83.3329 114.745 83.4856 114.808 83.6256C114.862 83.737 114.939 83.8388 115.037 83.9151C115.129 83.9883 115.234 84.0424 115.348 84.0774C115.459 84.1124 115.577 84.1315 115.694 84.1315C115.812 84.1315 115.926 84.1124 116.037 84.0774C116.151 84.0456 116.256 83.9883 116.348 83.9151C116.443 83.8356 116.519 83.737 116.57 83.6256C116.634 83.4856 116.662 83.3329 116.659 83.1802V81.4685Z" fill="#D7D7D7"/>
<path d="M123.592 84.2969C123.462 84.5387 123.278 84.7519 123.059 84.9173C122.83 85.086 122.576 85.2132 122.303 85.2896C122.021 85.3723 121.729 85.4137 121.433 85.4137C121.138 85.4137 120.846 85.3755 120.564 85.2959C120.291 85.2228 120.037 85.1019 119.808 84.9364C119.589 84.7773 119.405 84.5705 119.275 84.3319C119.135 84.0647 119.065 83.7688 119.075 83.4666V79.2987H120.468V83.1993C120.465 83.352 120.494 83.5047 120.557 83.6415C120.611 83.7529 120.687 83.8547 120.786 83.9311C120.878 84.0042 120.983 84.0583 121.097 84.0933C121.208 84.1283 121.326 84.1474 121.443 84.1474C121.56 84.1474 121.675 84.1283 121.786 84.0933C121.9 84.0615 122.005 84.0042 122.097 83.9311C122.192 83.8515 122.268 83.7529 122.319 83.6415C122.383 83.5015 122.411 83.352 122.408 83.1993V79.2987H123.802V83.4284C123.808 83.7306 123.741 84.0297 123.602 84.2969H123.592Z" fill="#D7D7D7"/>
<path d="M127.497 79.2987C127.795 79.2892 128.09 79.3465 128.366 79.461C128.592 79.5596 128.795 79.7091 128.954 79.8969C129.106 80.0782 129.217 80.285 129.287 80.5109C129.357 80.74 129.392 80.9818 129.392 81.2236C129.392 81.4654 129.351 81.7072 129.265 81.9362C129.09 82.4071 128.735 82.7857 128.278 82.9861C128.017 83.0975 127.735 83.1548 127.452 83.1484H126.249V85.3532H124.856V79.2987H127.497ZM126.246 81.9076H127.271C127.478 81.9299 127.684 81.8567 127.833 81.7072C127.944 81.5704 128.005 81.3985 127.998 81.2236C128.001 81.0486 127.944 80.8768 127.836 80.74C127.687 80.5904 127.481 80.5173 127.271 80.5395H126.246V81.9108V81.9076Z" fill="#D7D7D7"/>
<line x1="102.613" y1="91.9282" x2="311.188" y2="91.9282" stroke="#6A6B6F" stroke-width="0.323204"/>
<path opacity="0.6" d="M305.717 78.2935H305.368V77.7518H303.688V78.2935H303.339V77.438H303.58C303.736 77.1808 303.852 76.8843 303.928 76.5484C304.006 76.2113 304.044 75.8701 304.044 75.5249H305.448V77.438H305.717V78.2935ZM305.072 77.438V75.8408H304.398C304.381 76.1753 304.329 76.4805 304.244 76.7563C304.159 77.0322 304.061 77.2594 303.95 77.438H305.072ZM308.202 77.7578H307.826V75.8408H306.993C306.989 75.9514 306.985 76.058 306.981 76.1606C306.977 76.2632 306.973 76.3559 306.969 76.4385C306.959 76.661 306.944 76.8389 306.923 76.9722C306.901 77.1041 306.873 77.2141 306.839 77.302C306.807 77.3847 306.771 77.452 306.731 77.5039C306.692 77.5546 306.65 77.6006 306.605 77.6419C306.559 77.6819 306.509 77.7118 306.453 77.7318C306.398 77.7518 306.338 77.7618 306.273 77.7618C306.25 77.7618 306.217 77.7611 306.173 77.7598C306.13 77.7585 306.102 77.7578 306.089 77.7578V77.43H306.109C306.12 77.43 306.135 77.4306 306.155 77.432C306.175 77.4333 306.192 77.434 306.205 77.434C306.237 77.434 306.27 77.4293 306.303 77.42C306.338 77.4107 306.367 77.3933 306.391 77.368C306.459 77.3014 306.514 77.1888 306.555 77.0302C306.596 76.8716 306.623 76.6424 306.637 76.3425C306.642 76.2333 306.647 76.104 306.651 75.9547C306.656 75.8041 306.661 75.6609 306.665 75.5249H308.202V77.7578ZM310.822 77.7578H310.447V76.8723H310.005L309.313 77.7578H308.871L309.623 76.8363C309.43 76.783 309.289 76.7017 309.199 76.5924C309.11 76.4818 309.065 76.3372 309.065 76.1586C309.065 76.04 309.092 75.9394 309.145 75.8568C309.199 75.7742 309.266 75.7069 309.347 75.6549C309.427 75.6042 309.519 75.5703 309.623 75.5529C309.727 75.5343 309.84 75.5249 309.963 75.5249H310.822V77.7578ZM310.447 76.5764V75.8248H309.973C309.87 75.8248 309.796 75.8281 309.751 75.8348C309.706 75.8415 309.656 75.8594 309.603 75.8888C309.551 75.9181 309.512 75.9581 309.487 76.0087C309.463 76.058 309.451 76.112 309.451 76.1706C309.451 76.2439 309.459 76.3032 309.473 76.3485C309.489 76.3938 309.521 76.4365 309.569 76.4765C309.618 76.5151 309.678 76.5418 309.749 76.5564C309.82 76.5697 309.898 76.5764 309.985 76.5764H310.447ZM284.114 80.6424C284.114 81.0062 284.02 81.2934 283.834 81.5039C283.647 81.7145 283.397 81.8198 283.084 81.8198C282.768 81.8198 282.517 81.7145 282.331 81.5039C282.145 81.2934 282.053 81.0062 282.053 80.6424C282.053 80.2786 282.145 79.9914 282.331 79.7808C282.517 79.5689 282.768 79.463 283.084 79.463C283.397 79.463 283.647 79.5689 283.834 79.7808C284.02 79.9914 284.114 80.2786 284.114 80.6424ZM283.726 80.6424C283.726 80.3532 283.669 80.1386 283.556 79.9987C283.443 79.8574 283.285 79.7868 283.084 79.7868C282.88 79.7868 282.722 79.8574 282.608 79.9987C282.496 80.1386 282.44 80.3532 282.44 80.6424C282.44 80.9222 282.497 81.1348 282.61 81.2801C282.724 81.424 282.882 81.4959 283.084 81.4959C283.284 81.4959 283.441 81.4246 283.554 81.2821C283.669 81.1381 283.726 80.9249 283.726 80.6424ZM286.73 81.7578H286.354V79.8488H285.237V81.7578H284.861V79.5249H286.73V81.7578ZM289.277 79.8548H288.469V81.7578H288.093V79.8548H287.286V79.5249H289.277V79.8548ZM291.711 81.7578H291.34V80.0807L290.17 81.7578H289.83V79.5249H290.202V81.1781L291.359 79.5249H291.711V81.7578ZM294.728 81.7578H294.356V79.9947L293.8 81.1421H293.52L292.969 79.9947V81.7578H292.617V79.5249H293.07L293.678 80.7743L294.266 79.5249H294.728V81.7578ZM297.512 81.7578H297.14V80.0807L295.971 81.7578H295.631V79.5249H296.003V81.1781L297.16 79.5249H297.512V81.7578ZM299.971 81.1321C299.971 81.2574 299.941 81.3633 299.883 81.45C299.825 81.5366 299.751 81.6066 299.661 81.6599C299.57 81.7118 299.47 81.7498 299.361 81.7738C299.252 81.7978 299.142 81.8098 299.033 81.8098C298.879 81.8098 298.731 81.7951 298.591 81.7658C298.451 81.7365 298.313 81.6912 298.178 81.6299V81.2181H298.204C298.301 81.3034 298.425 81.3693 298.575 81.416C298.726 81.4626 298.872 81.486 299.013 81.486C299.08 81.486 299.148 81.48 299.219 81.468C299.29 81.4546 299.351 81.434 299.403 81.406C299.459 81.374 299.504 81.336 299.537 81.292C299.57 81.2467 299.587 81.1854 299.587 81.1081C299.587 81.0282 299.57 80.9642 299.537 80.9162C299.505 80.8683 299.461 80.8323 299.405 80.8083C299.35 80.7843 299.284 80.7696 299.207 80.7643C299.13 80.759 299.059 80.7563 298.995 80.7563H298.669V80.4325H298.895C298.948 80.4325 299.018 80.4305 299.103 80.4265C299.19 80.4225 299.26 80.4118 299.313 80.3945C299.382 80.3718 299.437 80.3399 299.477 80.2986C299.518 80.2572 299.539 80.1913 299.539 80.1007C299.539 80.038 299.523 79.9867 299.491 79.9467C299.459 79.9054 299.419 79.8734 299.371 79.8508C299.322 79.8281 299.266 79.8128 299.205 79.8048C299.145 79.7968 299.092 79.7928 299.045 79.7928C298.909 79.7928 298.775 79.8115 298.643 79.8488C298.513 79.8848 298.403 79.9374 298.313 80.0067H298.287V79.5929C298.398 79.5569 298.517 79.5276 298.643 79.505C298.77 79.4823 298.897 79.471 299.023 79.471C299.127 79.471 299.23 79.4803 299.333 79.499C299.437 79.5176 299.534 79.5496 299.623 79.5949C299.711 79.6402 299.783 79.7022 299.839 79.7808C299.895 79.8581 299.923 79.9541 299.923 80.0687C299.923 80.1859 299.886 80.2892 299.813 80.3785C299.741 80.4665 299.643 80.5298 299.521 80.5684V80.5824C299.658 80.6157 299.767 80.6784 299.849 80.7703C299.93 80.8609 299.971 80.9815 299.971 81.1321ZM302.463 81.7578H302.089V81.5199C302.056 81.5426 302.011 81.5746 301.953 81.6159C301.898 81.6559 301.843 81.6878 301.79 81.7118C301.727 81.7425 301.655 81.7678 301.574 81.7878C301.492 81.8091 301.397 81.8198 301.288 81.8198C301.087 81.8198 300.916 81.7531 300.776 81.6199C300.636 81.4866 300.566 81.3167 300.566 81.1101C300.566 80.9409 300.602 80.8043 300.674 80.7003C300.747 80.5951 300.851 80.5124 300.986 80.4525C301.122 80.3925 301.285 80.3519 301.476 80.3305C301.666 80.3092 301.871 80.2932 302.089 80.2826V80.2246C302.089 80.1393 302.074 80.0687 302.043 80.0127C302.014 79.9567 301.971 79.9127 301.915 79.8808C301.862 79.8501 301.798 79.8295 301.724 79.8188C301.649 79.8081 301.571 79.8028 301.49 79.8028C301.391 79.8028 301.281 79.8161 301.16 79.8428C301.039 79.8681 300.913 79.9054 300.784 79.9547H300.764V79.5729C300.837 79.5529 300.943 79.5309 301.082 79.507C301.221 79.483 301.357 79.471 301.492 79.471C301.649 79.471 301.786 79.4843 301.902 79.511C302.019 79.5363 302.12 79.5803 302.205 79.6429C302.289 79.7042 302.353 79.7835 302.397 79.8808C302.441 79.978 302.463 80.0987 302.463 80.2426V81.7578ZM302.089 81.2081V80.5864C301.975 80.5931 301.84 80.6031 301.684 80.6164C301.529 80.6297 301.406 80.649 301.316 80.6744C301.208 80.705 301.121 80.753 301.054 80.8183C300.987 80.8823 300.954 80.9709 300.954 81.0842C300.954 81.2121 300.993 81.3087 301.07 81.374C301.147 81.438 301.265 81.47 301.424 81.47C301.556 81.47 301.676 81.4446 301.786 81.394C301.895 81.342 301.996 81.2801 302.089 81.2081ZM305.122 81.7578H303.351V79.5249H303.726V81.434H304.826V79.5249H305.202V81.434H305.472V82.2935H305.122V81.7578ZM308.034 81.7578H307.662V80.0807L306.493 81.7578H306.153V79.5249H306.525V81.1781L307.682 79.5249H308.034V81.7578ZM310.821 81.7578H310.449V80.0807L309.279 81.7578H308.939V79.5249H309.311V81.1781L310.469 79.5249H310.821V81.7578ZM295.241 83.8548C295.335 83.9481 295.405 84.0613 295.453 84.1946C295.501 84.3265 295.525 84.4818 295.525 84.6604C295.525 84.9935 295.425 85.2701 295.225 85.4899C295.025 85.7098 294.78 85.8198 294.488 85.8198C294.344 85.8198 294.211 85.7958 294.09 85.7478C293.969 85.6985 293.865 85.6232 293.78 85.5219C293.673 85.3953 293.594 85.2361 293.54 85.0442C293.488 84.8509 293.462 84.6157 293.462 84.3385C293.462 84.2386 293.467 84.1373 293.476 84.0347C293.486 83.9307 293.507 83.8068 293.54 83.6629C293.567 83.5389 293.606 83.4197 293.656 83.3051C293.708 83.1904 293.769 83.0978 293.84 83.0272C293.936 82.9299 294.062 82.852 294.218 82.7933C294.375 82.7333 294.583 82.692 294.842 82.6694C294.947 82.6601 295.045 82.6527 295.135 82.6474C295.226 82.6407 295.307 82.6347 295.379 82.6294V82.9752C295.291 82.9806 295.204 82.9859 295.117 82.9912C295.032 82.9965 294.947 83.0032 294.862 83.0112C294.691 83.0259 294.536 83.0539 294.398 83.0952C294.261 83.1365 294.16 83.1898 294.096 83.2551C294.025 83.3257 293.972 83.4183 293.936 83.5329C293.901 83.6462 293.879 83.7542 293.868 83.8568C293.968 83.7848 294.077 83.7248 294.196 83.6769C294.316 83.6276 294.443 83.6029 294.578 83.6029C294.703 83.6029 294.824 83.6236 294.94 83.6649C295.055 83.7062 295.156 83.7695 295.241 83.8548ZM295.143 84.6824C295.143 84.4358 295.084 84.2519 294.966 84.1306C294.847 84.008 294.69 83.9467 294.496 83.9467C294.38 83.9467 294.269 83.9654 294.162 84.0027C294.055 84.0387 293.954 84.0873 293.858 84.1486C293.855 84.1819 293.853 84.2213 293.85 84.2666C293.849 84.3105 293.848 84.3512 293.848 84.3885C293.848 84.6204 293.867 84.8083 293.906 84.9522C293.945 85.0961 293.999 85.2108 294.07 85.296C294.131 85.368 294.198 85.4193 294.27 85.45C294.342 85.4793 294.419 85.4939 294.502 85.4939C294.703 85.4939 294.86 85.4213 294.974 85.2761C295.087 85.1308 295.143 84.9329 295.143 84.6824ZM298.16 85.7578H297.788V84.0807L296.619 85.7578H296.279V83.5249H296.65V85.1781L297.808 83.5249H298.16V85.7578ZM300.618 85.1321C300.618 85.2574 300.589 85.3633 300.53 85.45C300.473 85.5366 300.399 85.6066 300.308 85.6599C300.218 85.7118 300.118 85.7498 300.009 85.7738C299.899 85.7978 299.79 85.8098 299.681 85.8098C299.526 85.8098 299.379 85.7951 299.239 85.7658C299.099 85.7365 298.961 85.6912 298.825 85.6299V85.2181H298.851C298.948 85.3034 299.072 85.3693 299.223 85.416C299.374 85.4626 299.52 85.486 299.661 85.486C299.727 85.486 299.796 85.48 299.867 85.468C299.937 85.4546 299.999 85.434 300.051 85.406C300.107 85.374 300.151 85.336 300.185 85.292C300.218 85.2467 300.235 85.1854 300.235 85.1081C300.235 85.0282 300.218 84.9642 300.185 84.9162C300.153 84.8683 300.109 84.8323 300.053 84.8083C299.998 84.7843 299.932 84.7696 299.855 84.7643C299.777 84.759 299.707 84.7563 299.643 84.7563H299.317V84.4325H299.543C299.596 84.4325 299.665 84.4305 299.751 84.4265C299.837 84.4225 299.907 84.4118 299.961 84.3945C300.03 84.3718 300.085 84.3399 300.125 84.2986C300.166 84.2572 300.187 84.1913 300.187 84.1007C300.187 84.038 300.171 83.9867 300.139 83.9467C300.107 83.9054 300.067 83.8734 300.019 83.8508C299.969 83.8281 299.914 83.8128 299.853 83.8048C299.793 83.7968 299.739 83.7928 299.693 83.7928C299.557 83.7928 299.423 83.8115 299.291 83.8488C299.16 83.8848 299.05 83.9374 298.961 84.0067H298.935V83.5929C299.046 83.5569 299.164 83.5276 299.291 83.505C299.418 83.4823 299.544 83.471 299.671 83.471C299.775 83.471 299.878 83.4803 299.981 83.499C300.085 83.5176 300.181 83.5496 300.27 83.5949C300.358 83.6402 300.43 83.7022 300.486 83.7808C300.542 83.8581 300.57 83.9541 300.57 84.0687C300.57 84.1859 300.534 84.2892 300.46 84.3785C300.388 84.4665 300.291 84.5298 300.169 84.5684V84.5824C300.306 84.6157 300.415 84.6784 300.496 84.7703C300.578 84.8609 300.618 84.9815 300.618 85.1321ZM303.245 85.7578H302.869V84.7523H301.752V85.7578H301.376V83.5249H301.752V84.4285H302.869V83.5249H303.245V85.7578ZM306.019 84.6804H304.374C304.374 84.8176 304.395 84.9376 304.436 85.0402C304.477 85.1415 304.534 85.2247 304.606 85.29C304.675 85.354 304.757 85.402 304.852 85.434C304.948 85.466 305.053 85.482 305.168 85.482C305.32 85.482 305.472 85.452 305.625 85.392C305.78 85.3307 305.89 85.2707 305.955 85.2121H305.975V85.6219C305.849 85.6752 305.719 85.7198 305.587 85.7558C305.456 85.7918 305.317 85.8098 305.172 85.8098C304.801 85.8098 304.512 85.7098 304.304 85.5099C304.096 85.3087 303.992 85.0235 303.992 84.6544C303.992 84.2892 304.092 83.9994 304.29 83.7848C304.49 83.5703 304.753 83.463 305.078 83.463C305.379 83.463 305.611 83.5509 305.773 83.7268C305.937 83.9028 306.019 84.1526 306.019 84.4765V84.6804ZM305.653 84.3925C305.652 84.1953 305.602 84.0427 305.504 83.9347C305.406 83.8268 305.258 83.7728 305.058 83.7728C304.857 83.7728 304.696 83.8321 304.576 83.9507C304.457 84.0693 304.39 84.2166 304.374 84.3925H305.653ZM308.424 85.6179C308.271 85.6898 308.139 85.7392 308.028 85.7658C307.919 85.7938 307.81 85.8078 307.7 85.8078C307.538 85.8078 307.388 85.7845 307.252 85.7378C307.117 85.6898 307 85.6179 306.903 85.5219C306.805 85.426 306.729 85.3047 306.675 85.1581C306.621 85.0115 306.595 84.8403 306.595 84.6444C306.595 84.2886 306.693 84.0047 306.891 83.7928C307.088 83.5796 307.358 83.473 307.7 83.473C307.83 83.473 307.956 83.491 308.08 83.5269C308.205 83.5629 308.32 83.6069 308.424 83.6589V84.0767H308.402C308.278 83.982 308.155 83.9121 308.034 83.8668C307.914 83.8215 307.798 83.7988 307.684 83.7988C307.462 83.7988 307.289 83.8734 307.167 84.0227C307.045 84.172 306.985 84.3792 306.985 84.6444C306.985 84.9096 307.045 85.1155 307.167 85.2621C307.288 85.4087 307.46 85.482 307.684 85.482C307.763 85.482 307.841 85.472 307.918 85.452C307.997 85.432 308.068 85.406 308.132 85.374C308.183 85.3487 308.235 85.3187 308.288 85.2841C308.343 85.2481 308.381 85.2214 308.402 85.2041H308.424V85.6179ZM310.838 85.7578H310.465V85.5199C310.431 85.5426 310.386 85.5746 310.329 85.6159C310.273 85.6559 310.218 85.6878 310.165 85.7118C310.102 85.7425 310.03 85.7678 309.949 85.7878C309.868 85.8091 309.772 85.8198 309.663 85.8198C309.462 85.8198 309.291 85.7531 309.151 85.6199C309.011 85.4866 308.941 85.3167 308.941 85.1101C308.941 84.9409 308.977 84.8043 309.049 84.7003C309.123 84.5951 309.227 84.5124 309.361 84.4525C309.497 84.3925 309.66 84.3519 309.851 84.3305C310.042 84.3092 310.246 84.2932 310.465 84.2826V84.2246C310.465 84.1393 310.449 84.0687 310.419 84.0127C310.389 83.9567 310.347 83.9127 310.291 83.8808C310.237 83.8501 310.173 83.8295 310.099 83.8188C310.024 83.8081 309.946 83.8028 309.865 83.8028C309.766 83.8028 309.656 83.8161 309.535 83.8428C309.414 83.8681 309.289 83.9054 309.159 83.9547H309.139V83.5729C309.213 83.5529 309.319 83.5309 309.457 83.507C309.596 83.483 309.732 83.471 309.867 83.471C310.024 83.471 310.161 83.4843 310.277 83.511C310.394 83.5363 310.495 83.5803 310.581 83.6429C310.665 83.7042 310.729 83.7835 310.773 83.8808C310.817 83.978 310.838 84.0987 310.838 84.2426V85.7578ZM310.465 85.2081V84.5864C310.35 84.5931 310.215 84.6031 310.059 84.6164C309.904 84.6297 309.782 84.649 309.691 84.6744C309.583 84.705 309.496 84.753 309.429 84.8183C309.363 84.8823 309.329 84.9709 309.329 85.0842C309.329 85.2121 309.368 85.3087 309.445 85.374C309.522 85.438 309.64 85.47 309.799 85.47C309.931 85.47 310.052 85.4446 310.161 85.394C310.27 85.342 310.371 85.2801 310.465 85.2081Z" fill="#D7D7D7"/>
<path d="M110.589 254.506V268.078H107.298V254.506H102.902V251.527H114.961V254.506H110.589ZM119.39 263.033V263.418C119.39 263.77 119.446 264.074 119.558 264.331C119.686 264.587 119.846 264.795 120.038 264.955C120.246 265.115 120.479 265.236 120.735 265.316C120.991 265.396 121.263 265.436 121.552 265.436C121.888 265.436 122.304 265.388 122.801 265.292C123.297 265.179 123.826 264.899 124.386 264.451L126.068 266.541C125.699 266.893 125.331 267.181 124.963 267.406C124.594 267.614 124.226 267.782 123.858 267.91C123.489 268.022 123.113 268.094 122.729 268.126C122.36 268.174 121.984 268.198 121.6 268.198C120.895 268.198 120.222 268.11 119.582 267.934C118.957 267.758 118.405 267.494 117.924 267.141C117.444 266.773 117.059 266.317 116.771 265.772C116.483 265.227 116.339 264.579 116.339 263.826V260.751C116.339 260.015 116.467 259.358 116.723 258.782C116.995 258.189 117.364 257.693 117.828 257.292C118.293 256.892 118.829 256.588 119.438 256.379C120.046 256.171 120.703 256.067 121.407 256.067C122.144 256.067 122.825 256.171 123.449 256.379C124.074 256.588 124.61 256.892 125.059 257.292C125.507 257.677 125.86 258.157 126.116 258.734C126.372 259.31 126.5 259.967 126.5 260.703V263.033H119.39ZM123.449 260.799C123.449 260.127 123.249 259.638 122.849 259.334C122.448 259.014 121.976 258.854 121.431 258.854C120.871 258.854 120.39 259.03 119.99 259.382C119.59 259.734 119.39 260.239 119.39 260.896V261.04H123.449V260.799ZM135.84 268.078L133.51 264.331L131.18 268.078H127.529L131.901 262.025L127.721 256.187H131.372L133.51 259.742L135.696 256.187H139.347L135.12 262.001L139.516 268.078H135.84ZM148.208 268.078V263.322H143.836V268.078H140.833V256.187H143.836V260.751H148.208V256.187H151.282V268.078H148.208ZM161.039 261.016L159.021 264.114L156.355 268.078H153.688V256.187H156.739V263.202H156.859L158.589 260.559L161.496 256.187H164.21V268.078H161.159V261.016H161.039ZM169.065 256.187V259.742C169.065 260.383 169.241 260.839 169.593 261.112C169.945 261.384 170.434 261.52 171.058 261.52C171.427 261.52 171.819 261.464 172.236 261.352C172.668 261.224 173.084 261.056 173.485 260.847V256.187H176.512V268.078H173.485V263.346C172.908 263.618 172.364 263.81 171.851 263.922C171.339 264.018 170.85 264.066 170.386 264.066C169.761 264.066 169.185 263.994 168.656 263.85C168.128 263.69 167.671 263.45 167.287 263.13C166.903 262.793 166.598 262.377 166.374 261.88C166.15 261.384 166.038 260.791 166.038 260.103V256.187H169.065ZM181.791 263.033V263.418C181.791 263.77 181.847 264.074 181.959 264.331C182.087 264.587 182.247 264.795 182.439 264.955C182.648 265.115 182.88 265.236 183.136 265.316C183.392 265.396 183.664 265.436 183.953 265.436C184.289 265.436 184.705 265.388 185.202 265.292C185.698 265.179 186.227 264.899 186.787 264.451L188.469 266.541C188.101 266.893 187.732 267.181 187.364 267.406C186.996 267.614 186.627 267.782 186.259 267.91C185.891 268.022 185.514 268.094 185.13 268.126C184.761 268.174 184.385 268.198 184.001 268.198C183.296 268.198 182.624 268.11 181.983 267.934C181.358 267.758 180.806 267.494 180.325 267.141C179.845 266.773 179.461 266.317 179.172 265.772C178.884 265.227 178.74 264.579 178.74 263.826V260.751C178.74 260.015 178.868 259.358 179.124 258.782C179.397 258.189 179.765 257.693 180.229 257.292C180.694 256.892 181.23 256.588 181.839 256.379C182.447 256.171 183.104 256.067 183.809 256.067C184.545 256.067 185.226 256.171 185.85 256.379C186.475 256.588 187.012 256.892 187.46 257.292C187.908 257.677 188.261 258.157 188.517 258.734C188.773 259.31 188.901 259.967 188.901 260.703V263.033H181.791ZM185.85 260.799C185.85 260.127 185.65 259.638 185.25 259.334C184.85 259.014 184.377 258.854 183.833 258.854C183.272 258.854 182.792 259.03 182.391 259.382C181.991 259.734 181.791 260.239 181.791 260.896V261.04H185.85V260.799ZM200.331 266.445C199.979 266.813 199.619 267.117 199.25 267.357C198.882 267.582 198.506 267.758 198.121 267.886C197.737 268.014 197.353 268.094 196.968 268.126C196.6 268.174 196.224 268.198 195.839 268.198C195.183 268.198 194.558 268.11 193.965 267.934C193.373 267.758 192.852 267.494 192.404 267.141C191.956 266.773 191.595 266.325 191.323 265.796C191.067 265.252 190.939 264.619 190.939 263.898V260.391C190.939 259.67 191.083 259.038 191.371 258.493C191.659 257.949 192.036 257.5 192.5 257.148C192.965 256.78 193.485 256.507 194.062 256.331C194.654 256.139 195.247 256.043 195.839 256.043C196.208 256.043 196.584 256.059 196.968 256.091C197.353 256.123 197.729 256.195 198.097 256.307C198.482 256.419 198.858 256.588 199.226 256.812C199.595 257.02 199.955 257.308 200.307 257.677L198.554 259.911C197.993 259.414 197.513 259.118 197.112 259.022C196.728 258.91 196.392 258.854 196.103 258.854C195.863 258.854 195.615 258.894 195.359 258.974C195.103 259.038 194.87 259.158 194.662 259.334C194.47 259.494 194.31 259.71 194.182 259.983C194.054 260.239 193.989 260.551 193.989 260.92V263.298C193.989 263.682 194.046 264.01 194.158 264.283C194.286 264.539 194.446 264.755 194.638 264.931C194.83 265.091 195.046 265.211 195.287 265.292C195.543 265.356 195.799 265.388 196.055 265.388C196.376 265.388 196.76 265.316 197.208 265.171C197.673 265.027 198.105 264.755 198.506 264.355L200.331 266.445ZM201.944 268.078V256.163H205.019V260.583H206.004C206.516 260.583 206.948 260.479 207.301 260.271C207.669 260.063 207.973 259.63 208.214 258.974L209.247 256.163H212.514L211.264 259.622C211.072 260.183 210.84 260.647 210.568 261.016C210.312 261.384 209.935 261.664 209.439 261.856C210.031 262.049 210.456 262.345 210.712 262.745C210.968 263.13 211.192 263.618 211.385 264.211L212.73 268.078H209.319L208.382 264.931C208.27 264.579 208.134 264.299 207.973 264.09C207.829 263.866 207.661 263.698 207.469 263.586C207.277 263.458 207.061 263.378 206.82 263.346C206.58 263.314 206.316 263.298 206.028 263.298H205.019V268.078H201.944ZM224.775 263.85C224.775 264.587 224.623 265.227 224.318 265.772C224.03 266.317 223.638 266.773 223.141 267.141C222.661 267.494 222.108 267.758 221.484 267.934C220.859 268.11 220.219 268.198 219.562 268.198C218.889 268.198 218.241 268.11 217.616 267.934C216.992 267.758 216.431 267.494 215.935 267.141C215.454 266.773 215.07 266.317 214.782 265.772C214.493 265.227 214.349 264.587 214.349 263.85V260.415C214.349 259.678 214.493 259.038 214.782 258.493C215.086 257.949 215.478 257.5 215.959 257.148C216.455 256.78 217.016 256.507 217.64 256.331C218.281 256.139 218.929 256.043 219.586 256.043C220.291 256.043 220.955 256.139 221.58 256.331C222.22 256.507 222.773 256.78 223.237 257.148C223.718 257.516 224.094 257.981 224.366 258.541C224.639 259.086 224.775 259.726 224.775 260.463V263.85ZM221.724 260.944C221.724 260.559 221.66 260.239 221.532 259.983C221.404 259.726 221.236 259.518 221.027 259.358C220.819 259.182 220.587 259.062 220.331 258.998C220.09 258.918 219.842 258.878 219.586 258.878C219.33 258.878 219.066 258.918 218.793 258.998C218.537 259.062 218.305 259.182 218.097 259.358C217.888 259.518 217.72 259.726 217.592 259.983C217.464 260.239 217.4 260.559 217.4 260.944V263.298C217.4 263.682 217.456 264.01 217.568 264.283C217.696 264.539 217.864 264.755 218.073 264.931C218.281 265.091 218.513 265.211 218.769 265.292C219.025 265.356 219.298 265.388 219.586 265.388C219.842 265.388 220.09 265.356 220.331 265.292C220.587 265.211 220.819 265.091 221.027 264.931C221.236 264.755 221.404 264.539 221.532 264.283C221.66 264.01 221.724 263.682 221.724 263.298V260.944ZM229.929 263.033V263.418C229.929 263.77 229.985 264.074 230.097 264.331C230.225 264.587 230.385 264.795 230.577 264.955C230.786 265.115 231.018 265.236 231.274 265.316C231.53 265.396 231.803 265.436 232.091 265.436C232.427 265.436 232.844 265.388 233.34 265.292C233.836 265.179 234.365 264.899 234.925 264.451L236.607 266.541C236.239 266.893 235.87 267.181 235.502 267.406C235.134 267.614 234.765 267.782 234.397 267.91C234.029 268.022 233.652 268.094 233.268 268.126C232.9 268.174 232.523 268.198 232.139 268.198C231.434 268.198 230.762 268.11 230.121 267.934C229.496 267.758 228.944 267.494 228.463 267.141C227.983 266.773 227.599 266.317 227.31 265.772C227.022 265.227 226.878 264.579 226.878 263.826V260.751C226.878 260.015 227.006 259.358 227.262 258.782C227.535 258.189 227.903 257.693 228.367 257.292C228.832 256.892 229.368 256.588 229.977 256.379C230.585 256.171 231.242 256.067 231.947 256.067C232.683 256.067 233.364 256.171 233.989 256.379C234.613 256.588 235.15 256.892 235.598 257.292C236.046 257.677 236.399 258.157 236.655 258.734C236.911 259.31 237.039 259.967 237.039 260.703V263.033H229.929ZM233.989 260.799C233.989 260.127 233.788 259.638 233.388 259.334C232.988 259.014 232.515 258.854 231.971 258.854C231.41 258.854 230.93 259.03 230.529 259.382C230.129 259.734 229.929 260.239 229.929 260.896V261.04H233.989V260.799ZM108.258 278.043C108.851 278.043 109.412 278.115 109.94 278.259C110.469 278.403 110.925 278.62 111.309 278.908C111.71 279.196 112.022 279.556 112.246 279.989C112.47 280.405 112.582 280.902 112.582 281.478C112.582 281.943 112.446 282.399 112.174 282.847C111.902 283.296 111.501 283.656 110.973 283.928C111.55 284.201 111.974 284.577 112.246 285.058C112.518 285.538 112.655 286.01 112.655 286.475C112.655 287.099 112.534 287.644 112.294 288.108C112.054 288.573 111.718 288.965 111.285 289.285C110.853 289.59 110.34 289.822 109.748 289.982C109.155 290.142 108.507 290.222 107.802 290.222C106.985 290.222 106.153 290.11 105.304 289.886C104.455 289.662 103.718 289.309 103.094 288.829L104.583 286.739C105.015 287.059 105.512 287.308 106.072 287.484C106.649 287.644 107.137 287.724 107.538 287.724C108.307 287.724 108.851 287.604 109.171 287.364C109.492 287.107 109.652 286.803 109.652 286.451C109.652 285.618 109.067 285.202 107.898 285.202H106.169V282.92H107.85C108.363 282.92 108.771 282.815 109.075 282.607C109.38 282.383 109.532 282.087 109.532 281.718C109.532 281.318 109.363 281.03 109.027 280.854C108.691 280.677 108.307 280.589 107.874 280.589C107.474 280.589 107.017 280.661 106.505 280.806C106.008 280.934 105.552 281.166 105.136 281.502L103.67 279.436C104.279 278.94 104.991 278.588 105.808 278.379C106.625 278.155 107.442 278.043 108.258 278.043ZM121.928 289.093C121.207 289.51 120.559 289.798 119.982 289.958C119.405 290.102 118.869 290.174 118.373 290.174C117.155 290.174 116.211 289.854 115.538 289.213C114.881 288.557 114.553 287.668 114.553 286.547C114.553 285.89 114.689 285.338 114.961 284.889C115.234 284.425 115.578 284.049 115.994 283.76C116.427 283.472 116.899 283.264 117.412 283.136C117.924 283.008 118.413 282.944 118.877 282.944H121.952V282.439C121.952 281.879 121.792 281.462 121.471 281.19C121.151 280.902 120.583 280.758 119.766 280.758C119.381 280.758 118.901 280.814 118.324 280.926C117.764 281.038 117.195 281.326 116.619 281.79L115.25 279.556C116.082 278.916 116.915 278.499 117.748 278.307C118.597 278.115 119.373 278.019 120.078 278.019C121.776 278.019 123.025 278.403 123.826 279.172C124.626 279.941 125.027 281.102 125.027 282.655V290.078H122.216L122 289.117L121.928 289.093ZM121.976 285.202H119.43C119.237 285.202 119.045 285.218 118.853 285.25C118.677 285.266 118.509 285.322 118.349 285.418C118.204 285.498 118.084 285.618 117.988 285.778C117.892 285.922 117.844 286.114 117.844 286.355C117.844 286.675 117.956 286.939 118.18 287.147C118.421 287.34 118.773 287.436 119.237 287.436C119.75 287.436 120.254 287.34 120.751 287.147C121.247 286.939 121.656 286.747 121.976 286.571V285.202ZM131.906 280.709L131.762 283.04C131.714 283.856 131.634 284.657 131.522 285.442C131.41 286.227 131.194 286.899 130.873 287.46H135.486V280.709H131.906ZM126.477 287.484C126.638 287.484 126.79 287.484 126.934 287.484C127.094 287.484 127.246 287.476 127.39 287.46C127.823 287.139 128.151 286.651 128.375 285.994C128.615 285.322 128.792 284.561 128.904 283.712C129.016 282.847 129.088 281.943 129.12 280.998C129.168 280.037 129.216 279.1 129.264 278.187H138.44V287.46H139.569V293.177H136.855V290.078H129.192V293.177H126.477V287.484ZM148.53 289.093C147.81 289.51 147.161 289.798 146.585 289.958C146.008 290.102 145.472 290.174 144.975 290.174C143.758 290.174 142.813 289.854 142.141 289.213C141.484 288.557 141.156 287.668 141.156 286.547C141.156 285.89 141.292 285.338 141.564 284.889C141.836 284.425 142.181 284.049 142.597 283.76C143.029 283.472 143.502 283.264 144.014 283.136C144.527 283.008 145.015 282.944 145.48 282.944H148.554V282.439C148.554 281.879 148.394 281.462 148.074 281.19C147.754 280.902 147.185 280.758 146.368 280.758C145.984 280.758 145.504 280.814 144.927 280.926C144.367 281.038 143.798 281.326 143.222 281.79L141.852 279.556C142.685 278.916 143.518 278.499 144.351 278.307C145.199 278.115 145.976 278.019 146.681 278.019C148.378 278.019 149.627 278.403 150.428 279.172C151.229 279.941 151.629 281.102 151.629 282.655V290.078H148.819L148.603 289.117L148.53 289.093ZM148.578 285.202H146.032C145.84 285.202 145.648 285.218 145.456 285.25C145.279 285.266 145.111 285.322 144.951 285.418C144.807 285.498 144.687 285.618 144.591 285.778C144.495 285.922 144.447 286.114 144.447 286.355C144.447 286.675 144.559 286.939 144.783 287.147C145.023 287.34 145.376 287.436 145.84 287.436C146.352 287.436 146.857 287.34 147.353 287.147C147.85 286.939 148.258 286.747 148.578 286.571V285.202ZM161.392 290.078V285.322H157.02V290.078H154.017V278.187H157.02V282.751H161.392V278.187H164.466V290.078H161.392ZM174.223 283.016L172.205 286.114L169.539 290.078H166.872V278.187H169.923V285.202H170.043L171.773 282.559L174.68 278.187H177.394V290.078H174.343V283.016H174.223ZM182.729 285.033V285.418C182.729 285.77 182.785 286.074 182.897 286.331C183.025 286.587 183.186 286.795 183.378 286.955C183.586 287.115 183.818 287.236 184.074 287.316C184.331 287.396 184.603 287.436 184.891 287.436C185.227 287.436 185.644 287.388 186.14 287.292C186.637 287.179 187.165 286.899 187.726 286.451L189.407 288.541C189.039 288.893 188.671 289.181 188.302 289.406C187.934 289.614 187.566 289.782 187.197 289.91C186.829 290.022 186.453 290.094 186.068 290.126C185.7 290.174 185.324 290.198 184.939 290.198C184.235 290.198 183.562 290.11 182.921 289.934C182.297 289.758 181.744 289.494 181.264 289.141C180.783 288.773 180.399 288.317 180.111 287.772C179.822 287.227 179.678 286.579 179.678 285.826V282.751C179.678 282.015 179.806 281.358 180.063 280.782C180.335 280.189 180.703 279.693 181.168 279.292C181.632 278.892 182.169 278.588 182.777 278.379C183.386 278.171 184.042 278.067 184.747 278.067C185.484 278.067 186.164 278.171 186.789 278.379C187.413 278.588 187.95 278.892 188.398 279.292C188.847 279.677 189.199 280.157 189.455 280.734C189.712 281.31 189.84 281.967 189.84 282.703V285.033H182.729ZM186.789 282.799C186.789 282.127 186.589 281.638 186.188 281.334C185.788 281.014 185.315 280.854 184.771 280.854C184.21 280.854 183.73 281.03 183.33 281.382C182.929 281.734 182.729 282.239 182.729 282.896V283.04H186.789V282.799Z" fill="white"/>
<g opacity="0.6">
<path opacity="0.0512" d="M-61.9318 668.897C87.2486 739.773 246.742 852.021 366.489 701.317C631.352 367.981 294.824 143.21 236.887 260.082C129.209 477.294 134.068 343.349 -104.368 382.848C-342.805 422.348 -248.407 580.302 -61.9318 668.897Z" fill="#46474E" stroke="#8F8F92" stroke-width="0.323204"/>
<path opacity="0.0925" d="M-54.3555 658.803C90.4366 730.412 244.676 842.639 364.1 697.109C628.251 375.218 302.622 150.225 244.163 263.623C135.516 474.378 142.333 343.466 -91.4452 378.419C-325.223 413.372 -235.346 569.292 -54.3555 658.803Z" fill="#46474E" stroke="#8F8F92" stroke-width="0.323204"/>
<path opacity="0.1338" d="M-46.8133 649.005C93.6053 721.227 242.632 833.295 361.601 692.89C624.745 382.336 309.937 157.41 251.052 267.346C141.611 471.669 150.291 343.818 -78.7454 374.381C-307.782 404.944 -222.337 558.727 -46.8133 649.005Z" fill="#46474E" stroke="#8F8F92" stroke-width="0.323204"/>
<path opacity="0.175" d="M-39.3235 639.503C96.739 712.219 240.597 823.992 358.98 688.662C620.827 389.332 316.755 164.755 257.537 271.246C147.479 469.164 157.927 344.4 -66.2891 370.732C-290.505 397.063 -209.402 548.609 -39.3235 639.503Z" fill="#46474E" stroke="#8F8F92" stroke-width="0.323204"/>
<path opacity="0.2163" d="M-31.8928 630.305C99.8338 703.395 238.57 814.739 356.237 684.429C616.5 396.203 323.074 172.257 263.617 275.32C153.115 466.866 165.236 345.212 -54.0843 367.472C-273.404 389.732 -196.551 538.943 -31.8928 630.305Z" fill="#46474E" stroke="#8F8F92" stroke-width="0.323204"/>
<path opacity="0.2575" d="M-24.5239 621.388C102.889 694.734 236.555 805.516 353.378 680.17C611.773 402.922 328.895 179.885 269.292 279.539C158.519 464.749 172.217 346.227 -42.1352 364.576C-256.488 382.924 -183.791 529.706 -24.5239 621.388Z" fill="#46474E" stroke="#8F8F92" stroke-width="0.323204"/>
<path opacity="0.2988" d="M-17.2155 612.766C105.91 686.251 234.557 796.339 350.409 675.897C606.657 409.495 334.224 187.642 274.568 283.909C163.695 462.824 178.876 347.452 -30.4423 362.052C-239.76 376.652 -171.123 520.91 -17.2155 612.766Z" fill="#46474E" stroke="#8F8F92" stroke-width="0.323204"/>
<path opacity="0.34" d="M-9.98982 604.436C108.876 677.943 232.561 787.209 347.317 671.607C601.143 415.913 339.045 195.518 279.427 288.421C168.624 461.085 185.192 348.878 -19.0285 359.893C-223.249 370.908 -158.572 512.553 -9.98982 604.436Z" fill="#46474E" stroke="#8F8F92" stroke-width="0.323204"/>
<path opacity="0.3812" d="M-2.84532 596.389C111.792 669.803 230.572 778.117 344.11 667.291C595.24 422.161 343.363 203.491 283.874 293.056C173.311 459.517 191.168 350.491 -7.89384 358.085C-206.956 365.679 -146.141 504.622 -2.84532 596.389Z" fill="#46474E" stroke="#8F8F92" stroke-width="0.323204"/>
<path opacity="0.4225" d="M4.21169 588.622C114.653 661.828 228.591 769.063 340.789 662.946C588.956 428.229 347.178 211.552 287.907 297.807C177.751 458.116 196.803 352.283 2.95442 356.621C-190.894 360.959 -133.839 497.114 4.21169 588.622Z" fill="#46474E" stroke="#8F8F92" stroke-width="0.323204"/>
<path opacity="0.4638" d="M11.1825 581.14C117.463 654.025 226.624 760.056 337.363 658.576C582.302 434.117 350.496 219.695 291.533 302.669C181.949 456.882 202.1 354.251 13.5167 355.5C-175.066 356.748 -121.669 490.033 11.1825 581.14Z" fill="#46474E" stroke="#8F8F92" stroke-width="0.323204"/>
<path opacity="0.505" d="M18.0493 573.932C120.208 646.383 224.658 751.088 333.82 654.172C575.271 439.809 353.305 227.901 294.739 307.627C185.89 455.801 207.044 356.381 23.7742 354.707C-159.495 353.033 -109.649 483.367 18.0493 573.932Z" fill="#46474E" stroke="#8F8F92" stroke-width="0.323204"/>
<path opacity="0.5462" d="M24.8059 567.014C122.884 638.921 222.692 742.177 330.162 649.751C567.87 445.317 355.605 236.177 297.522 312.688C189.572 454.887 211.632 358.683 33.7197 354.254C-144.193 349.826 -97.7915 477.131 24.8059 567.014Z" fill="#46474E" stroke="#8F8F92" stroke-width="0.323204"/>
<path opacity="0.5875" d="M31.4538 560.354C125.494 631.605 220.733 733.294 326.397 645.279C560.111 450.601 357.403 244.482 299.89 317.813C192.999 454.103 215.869 361.118 43.3545 354.103C-129.16 347.088 -86.0964 471.289 31.4538 560.354Z" fill="#46474E" stroke="#8F8F92" stroke-width="0.323204"/>
<path opacity="0.6288" d="M37.9834 553.966C128.031 624.453 218.776 724.457 322.523 640.772C551.996 455.673 358.695 252.822 301.838 323.012C196.165 453.462 219.75 363.696 52.668 354.264C-114.414 344.832 -74.5768 465.856 37.9834 553.966Z" fill="#46474E" stroke="#8F8F92" stroke-width="0.323204"/>
<path opacity="0.67" d="M44.3806 547.844C130.485 617.46 216.813 715.663 318.533 636.225C543.522 460.52 359.475 261.182 303.357 328.269C199.058 452.953 223.262 366.406 61.6458 354.726C-99.9705 343.046 -63.2497 460.824 44.3806 547.844Z" fill="#46474E" stroke="#8F8F92" stroke-width="0.323204"/>
<path opacity="0.7113" d="M50.6553 541.992C132.866 610.63 214.858 706.919 314.443 631.643C534.713 465.145 359.758 269.557 304.462 333.583C201.693 452.578 226.42 369.246 70.2975 355.488C-85.8253 341.73 -52.1082 456.194 50.6553 541.992Z" fill="#46474E" stroke="#8F8F92" stroke-width="0.323204"/>
<path opacity="0.7525" d="M56.79 536.383C135.16 603.939 212.898 698.202 310.244 627.001C525.561 469.514 359.533 277.914 305.142 338.922C204.054 452.307 229.21 372.184 78.605 356.518C-72.0003 340.852 -41.1729 451.938 56.79 536.383Z" fill="#46474E" stroke="#8F8F92" stroke-width="0.323204"/>
<path opacity="0.7937" d="M62.7827 531.041C137.368 597.411 210.936 689.539 305.94 622.322C516.076 473.649 358.806 286.267 305.4 344.301C206.144 452.161 231.634 375.239 86.5666 357.836C-58.5012 340.432 -30.4486 448.078 62.7827 531.041Z" fill="#46474E" stroke="#8F8F92" stroke-width="0.323204"/>
<path opacity="0.835" d="M68.6357 525.95C139.493 591.032 208.979 680.918 301.541 617.593C506.275 477.53 357.585 294.592 305.245 349.701C207.969 452.122 233.698 378.391 94.184 359.421C-45.3302 340.45 -19.9359 444.597 68.6357 525.95Z" fill="#46474E" stroke="#8F8F92" stroke-width="0.323204"/>
<path opacity="0.8763" d="M74.3279 521.102C141.517 584.796 207.011 672.335 297.032 612.809C496.145 481.146 355.856 302.876 304.66 355.106C209.51 452.179 235.385 381.627 101.436 361.26C-32.5121 340.893 -9.65869 441.485 74.3279 521.102Z" fill="#46474E" stroke="#8F8F92" stroke-width="0.323204"/>
<path opacity="0.9175" d="M79.8653 516.494C143.449 578.701 205.041 663.79 292.426 607.966C485.708 484.491 353.634 311.105 303.659 360.508C210.778 452.325 236.705 384.939 108.33 363.345C-20.0449 341.751 0.386235 438.735 79.8653 516.494Z" fill="#46474E" stroke="#8F8F92" stroke-width="0.323204"/>
<path opacity="0.9588" d="M85.2388 512.129C145.28 572.752 203.067 655.29 287.721 603.07C474.964 487.565 350.916 319.277 302.238 365.904C211.767 452.563 237.653 388.324 114.856 365.675C-7.94149 343.025 10.1869 436.35 85.2388 512.129Z" fill="#46474E" stroke="#8F8F92" stroke-width="0.323204"/>
<path d="M90.4429 508.007C147.009 566.95 201.085 646.84 282.919 598.122C463.922 490.366 347.704 327.383 300.397 371.288C212.476 452.888 238.228 391.779 121.008 368.244C3.78917 344.709 19.7354 434.328 90.4429 508.007Z" fill="#46474E" stroke="#8F8F92" stroke-width="0.323204"/>
<path d="M95.4687 504.103C148.628 561.273 199.092 638.419 278.016 593.102C452.584 492.867 343.997 335.394 298.135 376.632C212.899 453.275 238.425 395.274 126.78 371.024C15.1343 346.773 29.0199 432.641 95.4687 504.103Z" fill="#46474E" stroke="#8F8F92" stroke-width="0.323204"/>
<path d="M100.319 500.43C150.141 555.734 197.094 630.044 273.023 588.023C440.966 495.079 339.806 343.312 295.46 381.94C213.042 453.733 238.251 398.818 132.172 374.021C26.0932 349.224 38.0405 431.3 100.319 500.43Z" fill="#46474E" stroke="#8F8F92" stroke-width="0.323204"/>
<path d="M104.976 496.983C151.535 550.331 195.079 621.712 267.929 582.882C429.062 496.993 335.121 351.127 292.363 387.204C212.894 454.255 237.695 402.4 137.171 377.226C36.6459 352.053 46.778 430.297 104.976 496.983Z" fill="#46474E" stroke="#8F8F92" stroke-width="0.323204"/>
<path d="M109.456 493.752C152.826 545.055 193.066 613.422 262.756 577.673C416.9 498.602 329.966 358.823 288.864 392.409C212.472 454.83 236.776 406.009 141.79 380.626C46.8037 355.244 55.2444 429.622 109.456 493.752Z" fill="#46474E" stroke="#8F8F92" stroke-width="0.323204"/>
<path d="M113.738 490.725C153.995 539.898 191.037 605.163 257.489 572.387C404.472 499.891 324.329 366.383 284.949 397.539C211.76 455.444 235.477 409.627 146.01 384.204C56.543 358.781 63.4168 429.26 113.738 490.725Z" fill="#46474E" stroke="#8F8F92" stroke-width="0.323204"/>
<path d="M117.813 487.91C155.035 534.867 188.988 596.949 252.127 567.033C391.782 500.865 318.209 373.806 280.618 402.595C210.753 456.102 233.796 413.257 149.824 387.962C65.8522 362.666 71.2842 429.214 117.813 487.91Z" fill="#46474E" stroke="#8F8F92" stroke-width="0.323204"/>
<path d="M121.695 485.302C155.964 529.96 186.937 588.778 246.691 561.61C378.857 501.52 311.63 381.081 275.892 407.568C209.471 456.796 231.751 416.892 153.247 391.889C74.7433 366.887 78.8592 429.478 121.695 485.302Z" fill="#46474E" stroke="#8F8F92" stroke-width="0.323204"/>
<path d="M125.366 482.89C156.764 525.17 184.868 580.645 241.166 556.112C365.689 501.846 304.58 388.194 270.757 412.445C207.897 457.517 229.328 420.517 156.261 395.973C83.1935 371.43 86.1194 430.041 125.366 482.89Z" fill="#46474E" stroke="#8F8F92" stroke-width="0.323204"/>
<path d="M128.821 480.663C157.43 520.485 182.781 572.544 235.556 550.528C352.286 501.831 297.063 395.126 265.217 417.208C206.031 458.25 226.528 424.116 158.862 400.196C91.1957 376.277 93.0581 430.886 128.821 480.663Z" fill="#46474E" stroke="#8F8F92" stroke-width="0.323204"/>
<path d="M132.066 478.627C157.974 515.915 180.685 564.485 229.873 544.869C338.668 501.48 289.097 401.878 259.287 421.86C203.884 458.999 223.362 427.693 161.058 404.561C98.7548 381.428 99.6805 432.018 132.066 478.627Z" fill="#46474E" stroke="#8F8F92" stroke-width="0.323204"/>
<path d="M135.086 476.781C158.38 511.46 178.569 556.472 224.107 539.137C324.832 500.793 280.673 408.443 252.957 426.396C201.446 459.761 219.821 431.242 162.837 409.06C105.852 386.877 105.969 433.432 135.086 476.781Z" fill="#46474E" stroke="#8F8F92" stroke-width="0.323204"/>
<path d="M137.87 475.099C158.639 507.097 176.423 548.485 218.254 533.31C310.777 499.745 271.79 414.792 246.224 430.786C198.708 460.511 215.897 434.736 164.186 413.665C112.474 392.593 111.909 435.102 137.87 475.099Z" fill="#46474E" stroke="#8F8F92" stroke-width="0.323204"/>
<path d="M140.44 473.588C158.775 502.834 174.274 540.534 212.342 527.399C296.541 498.344 262.479 420.926 239.117 435.034C195.697 461.254 211.62 438.177 165.131 418.377C118.642 398.577 117.522 437.031 140.44 473.588Z" fill="#46474E" stroke="#8F8F92" stroke-width="0.323204"/>
<path d="M142.766 472.247C158.758 498.673 172.094 532.625 206.345 521.405C282.104 496.59 252.72 426.838 231.614 439.134C192.388 461.986 206.964 441.56 165.643 423.191C124.322 404.821 122.775 439.213 142.766 472.247Z" fill="#46474E" stroke="#8F8F92" stroke-width="0.323204"/>
<path d="M144.863 471.068C158.607 494.61 169.902 524.755 200.287 515.328C267.494 494.477 242.537 432.519 223.738 443.077C188.8 462.7 201.949 444.877 165.739 428.095C129.528 411.314 127.682 441.642 144.863 471.068Z" fill="#46474E" stroke="#8F8F92" stroke-width="0.323204"/>
<path d="M146.723 470.04C158.315 490.633 167.693 516.916 194.164 509.157C252.715 491.995 231.932 437.95 215.489 446.847C184.93 463.383 196.574 448.112 165.413 433.074C134.252 418.036 132.234 444.3 146.723 470.04Z" fill="#46474E" stroke="#8F8F92" stroke-width="0.323204"/>
<path d="M148.341 469.161C157.877 486.743 165.461 509.113 187.975 502.896C237.774 489.144 220.907 443.125 206.867 450.439C180.774 464.03 190.838 451.259 164.66 438.119C138.483 424.98 136.421 447.182 148.341 469.161Z" fill="#46474E" stroke="#8F8F92" stroke-width="0.323204"/>
</g>
</g>
</g>
<g filter="url(#filter1_d_5042_89787)">
<g clip-path="url(#clip1_5042_89787)">
<path d="M105.416 9H134.439L149.823 24.2856V60.1111C149.823 61.9934 148.293 63.5185 146.407 63.5185H105.416C103.53 63.5185 102 61.9934 102 60.1111V12.4074C102 10.5252 103.53 9 105.416 9Z" fill="#FFA469"/>
<path d="M149.772 24.3344H137.865C135.98 24.3344 134.449 22.8079 134.449 20.927V9.03516L149.771 24.3344H149.772Z" fill="#EB9055"/>
<path d="M137.01 43.3331C137.582 43.3331 137.862 42.8356 137.862 42.3538C137.862 41.872 137.57 41.3725 137.01 41.3725H133.751C133.114 41.3725 132.759 41.8986 132.759 42.4799V50.4682C132.759 51.1803 133.165 51.5756 133.715 51.5756C134.265 51.5756 134.671 51.1803 134.671 50.4682V48.2759H136.642C137.253 48.2759 137.559 47.7763 137.559 47.2809C137.559 46.7855 137.253 46.3132 136.642 46.3132H134.671V43.3338H137.01L137.01 43.3331ZM125.995 41.3718H123.61C122.963 41.3718 122.504 41.8147 122.504 42.4724V50.475C122.504 51.2907 123.164 51.5463 123.638 51.5463H126.14C129.102 51.5463 131.057 49.6027 131.057 46.6021C131.056 43.4298 129.215 41.3718 125.995 41.3718ZM126.11 49.5734H124.656V43.3447H125.966C127.949 43.3447 128.812 44.6722 128.812 46.5033C128.812 48.2173 127.964 49.5734 126.11 49.5734ZM117.375 41.3718H115.013C114.345 41.3718 113.973 41.8113 113.973 42.4792V50.4675C113.973 51.1797 114.4 51.5749 114.974 51.5749C115.547 51.5749 115.974 51.1797 115.974 50.4675V48.1348H117.455C119.282 48.1348 120.791 46.8434 120.791 44.7662C120.791 42.7341 119.336 41.3711 117.375 41.3711V41.3718ZM117.336 46.2614H115.974V43.2472H117.336C118.176 43.2472 118.711 43.9014 118.711 44.7546C118.709 45.6065 118.177 46.2607 117.336 46.2607V46.2614Z" fill="white"/>
</g>
</g>
<defs>
<filter id="filter0_d_5042_89787" x="0.264526" y="3.63226" width="413.272" height="527.471" filterUnits="userSpaceOnUse" color-interpolation-filters="sRGB">
<feFlood flood-opacity="0" result="BackgroundImageFix"/>
<feColorMatrix in="SourceAlpha" type="matrix" values="0 0 0 0 0 0 0 0 0 0 0 0 0 0 0 0 0 0 127 0" result="hardAlpha"/>
<feOffset dy="34.3677"/>
<feGaussianBlur stdDeviation="34.3677"/>
<feComposite in2="hardAlpha" operator="out"/>
<feColorMatrix type="matrix" values="0 0 0 0 0.27451 0 0 0 0 0.278431 0 0 0 0 0.305882 0 0 0 0.2 0"/>
<feBlend mode="multiply" in2="BackgroundImageFix" result="effect1_dropShadow_5042_89787"/>
<feBlend mode="normal" in="SourceGraphic" in2="effect1_dropShadow_5042_89787" result="shape"/>
</filter>
<filter id="filter1_d_5042_89787" x="84.963" y="0.481482" width="81.8983" height="88.5936" filterUnits="userSpaceOnUse" color-interpolation-filters="sRGB">
<feFlood flood-opacity="0" result="BackgroundImageFix"/>
<feColorMatrix in="SourceAlpha" type="matrix" values="0 0 0 0 0 0 0 0 0 0 0 0 0 0 0 0 0 0 127 0" result="hardAlpha"/>
<feOffset dy="8.51852"/>
<feGaussianBlur stdDeviation="8.51852"/>
<feComposite in2="hardAlpha" operator="out"/>
<feColorMatrix type="matrix" values="0 0 0 0 0.25098 0 0 0 0 0.25098 0 0 0 0 0.25098 0 0 0 0.1 0"/>
<feBlend mode="normal" in2="BackgroundImageFix" result="effect1_dropShadow_5042_89787"/>
<feBlend mode="normal" in="SourceGraphic" in2="effect1_dropShadow_5042_89787" result="shape"/>
</filter>
<clipPath id="clip0_5042_89787">
<rect x="69" y="38" width="275.801" height="390" rx="12.0123" fill="white"/>
</clipPath>
<clipPath id="clip1_5042_89787">
<rect x="102" y="9" width="47.8233" height="54.5185" rx="3" fill="white"/>
</clipPath>
</defs>
</svg>
