<svg width="48" height="40" viewBox="0 0 48 40" fill="none" xmlns="http://www.w3.org/2000/svg">
<path id="&#226;&#128;&#156;" opacity="0.4" d="M21.4839 5.65854C18.7742 7.73984 16.6452 10.0163 15.0968 12.4878C13.5484 14.9593 12.6452 17.8862 12.3871 21.2683H12.5806C14.9032 21.2683 16.8387 22.1789 18.3871 24C19.9355 25.8211 20.7097 28.0325 20.7097 30.6341C20.7097 33.1057 19.8064 35.3171 18 37.2683C16.3226 39.0894 14 40 11.0323 40C7.29032 40 4.51613 38.6341 2.70968 35.9024C0.903226 33.1707 0 30.1138 0 26.7317C0 23.8699 0.451613 21.0732 1.35484 18.3415C2.25806 15.4797 3.48387 12.8781 5.03226 10.5366C6.58065 8.19512 8.3871 6.11382 10.4516 4.29269C12.5161 2.47155 14.7097 1.04065 17.0323 0L21.4839 5.65854ZM48 5.65854C45.2903 7.73984 43.1613 10.0163 41.6129 12.4878C40.0645 14.9593 39.1613 17.8862 38.9032 21.2683H39.0968C41.4194 21.2683 43.3548 22.1789 44.9032 24C46.4516 25.8211 47.2258 28.0325 47.2258 30.6341C47.2258 33.1057 46.3226 35.3171 44.5161 37.2683C42.8387 39.0894 40.5161 40 37.5484 40C33.8064 40 31.0323 38.6341 29.2258 35.9024C27.4194 33.1707 26.5161 30.1138 26.5161 26.7317C26.5161 23.8699 26.9677 21.0732 27.871 18.3415C28.7742 15.4797 30 12.8781 31.5484 10.5366C33.0968 8.19512 34.9032 6.11382 36.9677 4.29269C39.0323 2.47155 41.2258 1.04065 43.5484 0L48 5.65854Z" fill="#D7D7D7"/>
</svg>
