<svg width="48" height="40" viewBox="0 0 48 40" fill="none" xmlns="http://www.w3.org/2000/svg">
<path id="&#226;&#128;&#156;" opacity="0.4" d="M26.5161 34.3415C29.2258 32.2602 31.3548 29.9837 32.9032 27.5122C34.4516 25.0407 35.3548 22.1138 35.6129 18.7317L35.4194 18.7317C33.0968 18.7317 31.1613 17.8211 29.6129 16C28.0645 14.1789 27.2903 11.9675 27.2903 9.36586C27.2903 6.89431 28.1936 4.68293 30 2.7317C31.6774 0.910567 34 -1.22392e-06 36.9677 -9.64471e-07C40.7097 -6.3734e-07 43.4839 1.36585 45.2903 4.09756C47.0968 6.82927 48 9.88618 48 13.2683C48 16.1301 47.5484 18.9268 46.6452 21.6585C45.7419 24.5203 44.5161 27.1219 42.9677 29.4634C41.4194 31.8049 39.6129 33.8862 37.5484 35.7073C35.4839 37.5285 33.2903 38.9593 30.9677 40L26.5161 34.3415ZM4.94686e-07 34.3415C2.70968 32.2602 4.83871 29.9837 6.38709 27.5122C7.93549 25.0406 8.83871 22.1138 9.09678 18.7317L8.90323 18.7317C6.58064 18.7317 4.64516 17.8211 3.09678 16C1.54839 14.1789 0.774195 11.9675 0.774195 9.36585C0.774196 6.89431 1.67742 4.68293 3.48387 2.7317C5.1613 0.910564 7.48387 -3.54203e-06 10.4516 -3.28258e-06C14.1936 -2.95545e-06 16.9677 1.36585 18.7742 4.09756C20.5806 6.82926 21.4839 9.88617 21.4839 13.2683C21.4839 16.1301 21.0323 18.9268 20.129 21.6585C19.2258 24.5203 18 27.1219 16.4516 29.4634C14.9032 31.8049 13.0968 33.8862 11.0323 35.7073C8.96774 37.5284 6.77419 38.9593 4.45161 40L4.94686e-07 34.3415Z" fill="#D7D7D7"/>
</svg>
