<svg width="243" height="157" viewBox="0 0 243 157" fill="none" xmlns="http://www.w3.org/2000/svg">
<path d="M51.8322 91.8103L51.4249 91.4642L34.1719 111.768L33.9934 111.978V112.254V154.619H0.75V2.18257H33.9934V61.5348V63.6135L35.3206 62.0136L84.9553 2.18257H124.103L74.3652 63.489L74.0384 63.8918L74.3 64.3398L126.983 154.538H88.0489L52.886 92.0611L53.0109 91.9142L52.5325 91.4253L52.4533 91.3444L51.8322 91.8103ZM231.738 144.093L231.657 143.928L230.941 144.42C226.873 147.218 222.491 149.538 217.872 151.379L217.865 151.381C213.573 153.136 209.036 154.337 204.488 155.139C193.438 157.061 182.157 156.5 171.428 153.378L171.416 153.374C164.692 151.536 158.36 148.58 152.654 144.585L152.652 144.584C147.054 140.69 142.459 135.519 139.028 129.543C135.376 122.95 133.587 115.479 133.742 107.924L133.742 107.917V107.909V50.4761V50.4684L133.742 50.4607C133.586 42.9008 135.299 35.424 138.799 28.7452C142.071 22.6947 146.668 17.3587 152.122 13.2175C157.749 8.98392 164.077 5.79106 170.791 3.87599L170.791 3.87612L170.804 3.87204C177.616 1.79116 184.744 0.75 191.953 0.75C200.9 0.75 209.852 2.11366 218.496 4.60348L218.503 4.60566L218.511 4.60769C226.426 6.70796 233.826 10.63 240.128 16.0062L224.069 42.2075C219.607 38.3858 214.292 35.5505 208.607 34.0582C203.404 32.6677 198.117 31.9301 192.824 31.9301C189.813 31.9301 186.81 32.4289 183.897 33.3386C180.884 34.2544 178.115 35.67 175.593 37.583L175.59 37.5854C172.965 39.5975 170.833 42.1962 169.357 45.2122L169.357 45.2121L169.351 45.2244C167.642 48.885 166.825 52.8007 166.986 56.8815V100.371C166.825 104.37 167.642 108.362 169.266 112.016L169.27 112.024L169.274 112.033C170.659 114.947 172.624 117.632 175.181 119.657C177.551 121.578 180.246 122.996 183.179 123.912C186.018 124.824 189.023 125.322 192.032 125.322C194.875 125.322 197.711 124.907 200.459 124.164L200.463 124.163C203.494 123.326 206.362 121.819 208.741 119.806L209.007 119.582V119.234V98.4446V97.6946H208.257H188.271V69.2649H242.25V134.184C239.265 138.01 235.677 141.356 231.738 144.093Z" stroke="#D7D7D7" stroke-width="1.5"/>
</svg>
