<svg width="64" height="62" viewBox="0 0 64 62" fill="none" xmlns="http://www.w3.org/2000/svg">
<g id="_&#208;&#161;&#208;&#187;&#208;&#190;&#208;&#185;_1" clip-path="url(#clip0_729_36664)">
<path id="Vector" d="M23.3763 61.9989C22.8402 61.6765 22.6498 61.2004 22.7083 60.5858C22.7701 59.9277 22.4795 59.1409 22.897 58.6298C23.7821 57.5424 23.4481 56.3198 23.5516 55.1338C23.6368 54.1667 23.3579 53.3767 22.7701 52.605C21.6061 51.075 20.6058 49.4481 20.2083 47.5188C20.0263 46.6353 19.9628 45.7466 19.9645 44.8497C19.9662 42.6616 20.0096 40.4734 19.9595 38.287C19.9228 36.7419 20.4538 35.5694 21.8816 34.8044C20.392 33.3629 18.9275 31.9465 17.4629 30.53C17.2675 30.3413 17.0638 30.1609 16.8868 29.9588C16.5227 29.5429 16.526 29.0301 16.8784 28.6659C17.2391 28.2951 17.7268 28.2751 18.171 28.6242C18.3012 28.7261 18.4148 28.8497 18.535 28.9666C20.2284 30.6018 21.92 32.2388 23.6134 33.874C23.6885 33.9458 23.7604 34.0227 23.8405 34.0895C24.0276 34.2448 24.2146 34.5171 24.4651 34.3985C24.6454 34.3133 24.5152 34.016 24.5486 33.8172C24.8241 32.177 24.3115 30.9075 22.9321 29.907C22.1138 29.314 21.4458 28.5123 20.7193 27.7957C20.2117 27.2946 20.1599 26.7952 20.5473 26.3693C20.9381 25.9417 21.5109 25.9717 22.0286 26.4661C22.8235 27.2245 23.6101 27.9928 24.5486 28.8998C24.5452 27.9009 24.6772 27.1009 25.1915 26.416C25.3068 26.2624 25.1013 26.1638 25.0062 26.0703C24.5469 25.6159 24.0726 25.1766 23.6184 24.719C23.1642 24.2613 23.1191 23.7318 23.4781 23.3343C23.8672 22.9033 24.4066 22.905 24.9093 23.3727C25.4888 23.9122 26.0549 24.4668 26.6143 25.0263C26.8047 25.2167 26.9867 25.3203 27.2723 25.2685C27.5779 25.2151 27.9219 25.175 28.1975 25.3186C28.9356 25.7045 29.0842 25.1182 29.3397 24.6806C29.5017 24.405 29.2562 24.3064 29.1226 24.1745C28.2593 23.3293 27.3875 22.4924 26.5208 21.6506C26.2135 21.3516 26.0766 20.9992 26.2436 20.5766C26.3772 20.2358 26.6327 20.0454 26.9918 19.9936C27.3859 19.9368 27.6631 20.149 27.9253 20.4045C28.8521 21.3048 29.7856 22.1968 30.7058 23.1038C30.9412 23.336 31.1583 23.4395 31.5207 23.4011C33.0738 23.2374 34.3797 24.1611 34.7805 25.6978C34.884 26.097 35.0143 26.1922 35.4001 26.0569C35.6272 25.9767 35.8977 25.9617 36.1399 25.9918C36.6709 26.0552 36.6609 25.7963 36.4655 25.4656C36.3302 25.2368 36.1332 25.0397 35.9411 24.8526C33.1239 22.1316 30.3033 19.4157 27.4827 16.6981C27.3475 16.5678 27.2055 16.4442 27.0819 16.3039C26.6978 15.8679 26.6828 15.4003 27.0302 15.0127C27.3775 14.6252 27.942 14.5818 28.3695 14.9693C29.1711 15.6976 29.9309 16.4709 30.7325 17.2009C31.5174 17.9141 32.683 17.555 32.9485 16.5394C33.0755 16.0517 32.9419 15.6141 32.5945 15.2783C30.6039 13.3524 28.6751 11.3598 26.5876 9.53743C25.0679 8.2112 23.1759 7.77691 21.2387 7.49964C20.6626 7.41779 20.0881 7.31423 19.5119 7.22905C19.1479 7.1756 18.8523 7.01525 18.5885 6.75301C17.8637 6.0331 17.1139 5.33992 16.3975 4.61333C16.147 4.35944 16.005 4.37113 15.7612 4.62502C12.7586 7.74852 9.74763 10.8653 6.72498 13.9705C6.43941 14.2628 6.47114 14.4365 6.76005 14.657C6.89197 14.7572 6.99718 14.8908 7.12243 15.001C8.50851 16.2137 9.65578 17.5266 10.2436 19.3823C10.8715 21.3683 12.2576 22.9568 13.7856 24.3782C14.2883 24.8459 14.7843 25.3253 15.2635 25.8164C15.7128 26.2774 15.7245 26.8069 15.3287 27.1994C14.9479 27.5769 14.4419 27.5752 13.986 27.1693C11.2857 24.7524 8.92266 22.0982 7.87225 18.5121C7.82716 18.3601 7.73531 18.2031 7.62175 18.0911C6.74502 17.2293 5.85659 16.3807 4.97819 15.5205C4.82455 15.3702 4.65588 15.3618 4.4655 15.3618C3.84928 15.3618 3.3366 15.113 2.90241 14.6887C1.93049 13.7466 0.965244 12.8046 0 11.8625C0 11.612 0 11.3631 0 11.1125C0.736458 10.3759 1.12222 10.3709 1.87705 11.0958C2.59848 11.789 3.32658 12.4755 4.02797 13.1888C4.3436 13.5095 4.56236 13.5395 4.89302 13.1938C8.21292 9.73787 11.5428 6.292 14.8794 2.85281C15.1967 2.52543 15.2151 2.29659 14.8711 1.97923C14.0912 1.25765 13.3364 0.509349 12.5766 -0.233944C12.0455 -0.755084 11.9854 -1.2829 12.3929 -1.7055C12.8053 -2.13477 13.3314 -2.09468 13.8725 -1.57855C14.6857 -0.801853 15.4907 -0.0151318 16.3023 0.764908C16.7398 1.18583 17.0337 1.67857 17.0287 2.29993C17.027 2.58222 17.154 2.76428 17.3443 2.94301C17.7101 3.28375 18.1125 3.59944 18.4164 3.9903C19.2932 5.11442 20.4405 5.60216 21.8382 5.73077C24.8074 6.00136 27.2656 7.32259 29.3147 9.4773C30.2899 10.5029 31.3571 11.4416 32.3574 12.4438C32.658 12.7461 32.835 12.7511 33.1573 12.4622C34.7855 11.004 36.3236 9.43888 38.072 8.11766C39.7353 6.86158 41.5906 5.98633 43.6113 5.47521C43.9837 5.38167 44.2977 5.21965 44.5816 4.9524C45.3564 4.22414 46.148 3.51593 46.9412 2.80938C47.1383 2.634 47.2535 2.45861 47.2635 2.17633C47.2836 1.61176 47.5391 1.13405 47.9532 0.753216C48.8283 -0.0485382 49.705 -0.850292 50.5918 -1.64035C51.1162 -2.10804 51.6339 -2.11472 52.0263 -1.68879C52.402 -1.28123 52.3453 -0.721677 51.851 -0.262339C51.0727 0.46091 50.2962 1.1875 49.4863 1.87567C49.0922 2.21141 49.0771 2.44525 49.4328 2.83109C51.0444 4.57491 52.6308 6.34378 54.2257 8.1043C54.2674 8.15107 54.3092 8.19616 54.3509 8.24293C54.8686 8.82588 54.9237 9.38543 54.5029 9.77963C54.0687 10.1872 53.4959 10.0786 52.9448 9.47563C52.382 8.86095 51.8242 8.24126 51.2648 7.62324C50.3413 6.60435 49.4078 5.5938 48.5027 4.55988C48.2555 4.27759 48.1052 4.24419 47.8213 4.51478C47.0849 5.22132 46.3083 5.88611 45.5635 6.58431C45.2345 6.89331 44.8721 7.09876 44.4313 7.19898C41.9814 7.7552 39.8455 8.91607 37.9868 10.5931C36.8112 11.6537 35.6439 12.7244 34.4665 13.7817C34.2311 13.9938 34.1075 14.1241 34.3296 14.4816C35.35 16.1235 34.8824 17.9876 33.2224 19.0148C32.9586 19.1785 32.8266 19.2587 33.1239 19.531C33.8303 20.179 34.52 20.8455 35.1913 21.5287C35.4184 21.7592 35.5537 21.7057 35.7474 21.5153C36.0614 21.2096 36.382 20.9106 36.7193 20.635C37.1836 20.2559 37.7046 20.2809 38.0587 20.6735C38.4043 21.056 38.3726 21.6005 37.9618 22.0164C37.6111 22.3722 37.0049 22.6712 36.9465 23.062C36.883 23.4796 37.5911 23.7418 37.8616 24.1628C38.0069 24.3899 38.1488 24.6188 38.3242 24.896C38.7317 24.5302 39.1224 24.1644 39.5282 23.8187C40.0276 23.3944 40.5386 23.3927 40.9176 23.7936C41.2984 24.1962 41.2433 24.7691 40.7573 25.2234C40.1328 25.8064 39.5165 26.401 38.8536 26.9388C38.4478 27.2679 38.7433 27.4967 38.8419 27.7924C38.9604 28.1465 39.1742 28.0112 39.388 27.9494C39.9825 27.774 40.582 27.7606 41.1715 27.951C41.447 28.0412 41.5856 28.0145 41.7643 27.7389C42.5926 26.4594 43.8484 25.5992 44.974 24.6188C45.3397 24.2997 45.8107 24.42 46.148 24.7958C46.487 25.1716 46.4703 25.6978 46.0645 26.0853C45.4182 26.705 44.7402 27.2913 44.0772 27.8943C43.8935 28.063 43.6965 28.2233 43.5412 28.4171C43.1254 28.9332 43.1437 29.6514 43.5679 30.1408C44.0188 30.662 44.7235 30.7689 45.318 30.3914C45.4917 30.2811 45.647 30.1375 45.8006 29.9972C47.4539 28.5023 49.0938 26.9923 50.7605 25.5107C52.3069 24.136 53.3072 22.454 53.7464 20.4329C53.8165 20.1072 53.9401 19.7899 53.9735 19.4608C54.1288 17.879 54.8486 16.6547 56.1478 15.7243C56.6221 15.3836 57.3602 14.9977 57.3518 14.4883C57.3452 14.044 56.6688 13.608 56.2881 13.1687C56.1929 13.0585 56.0927 12.9516 55.9975 12.8413C55.5216 12.2901 55.4998 11.7439 55.9407 11.3614C56.3833 10.9756 56.8959 11.0591 57.407 11.6136C57.943 12.1966 58.4908 12.7712 58.9951 13.3792C59.3207 13.7734 59.5712 13.8118 59.952 13.4426C60.7001 12.7177 61.4834 12.0295 62.2599 11.3347C62.806 10.847 63.3571 10.8202 63.7462 11.2445C64.1453 11.6805 64.0735 12.2099 63.5274 12.711C62.7141 13.4577 61.8925 14.1943 61.0759 14.9392C60.5966 15.3769 60.0539 15.6592 59.3875 15.6157C59.1587 15.6007 58.9817 15.6642 58.8381 15.8362C58.8248 15.8512 58.8081 15.8646 58.7914 15.8763C56.9277 17.2075 55.772 18.8962 55.423 21.2631C55.1007 23.4545 53.8198 25.2568 52.1699 26.7518C50.3947 28.3603 48.6196 29.9705 46.846 31.5807C45.8441 32.4893 44.6918 32.6931 43.4243 32.2955C43.2957 32.5361 43.3458 32.7699 43.3458 32.9954C43.3391 35.4124 43.3391 37.8293 43.3291 40.2463C43.3291 40.4935 43.3241 40.754 43.2539 40.9862C43.1153 41.4422 42.7696 41.6577 42.2987 41.6143C41.8578 41.5725 41.5706 41.3153 41.4921 40.8743C41.4537 40.6505 41.4637 40.4183 41.4637 40.1895C41.4654 37.2514 41.4704 34.3133 41.4738 31.3752C41.4738 31.1881 41.4838 30.9994 41.4621 30.814C41.3852 30.1275 40.906 29.6832 40.268 29.6932C39.6 29.7032 39.1291 30.1809 39.1208 30.9125C39.1057 32.3924 39.1124 33.8707 39.1107 35.3506C39.1107 36.1005 39.1174 36.8505 39.1057 37.6005C39.0957 38.3104 38.7066 38.7513 38.1338 38.7313C37.5827 38.7129 37.2387 38.292 37.237 37.6022C37.2354 34.8094 37.242 32.0183 37.2387 29.2255C37.2387 28.4438 36.8579 27.9494 36.2284 27.8659C35.4468 27.7623 34.884 28.3035 34.879 29.1954C34.869 31.5289 34.8724 33.8623 34.8724 36.1974C34.8724 36.6551 34.8757 37.1144 34.8724 37.5721C34.864 38.2937 34.5033 38.7346 33.9305 38.7296C33.3594 38.7246 33.002 38.287 33.002 37.5604C33.002 33.9976 33.0053 30.4331 33.007 26.8703C33.007 26.6616 33.0254 26.4494 32.9886 26.2473C32.8834 25.666 32.5194 25.3286 31.9382 25.2551C31.4088 25.1883 30.9179 25.5291 30.7308 26.0485C30.6356 26.3108 30.6473 26.5814 30.6473 26.852C30.644 30.353 30.6406 33.854 30.6356 37.3549C30.6356 37.5637 30.6523 37.7775 30.6106 37.978C30.5204 38.4156 30.2181 38.6712 29.7873 38.7146C29.3798 38.7547 29.0659 38.5609 28.8738 38.1884C28.7436 37.9362 28.7619 37.6623 28.7636 37.3934C28.7669 34.5171 28.7703 31.6425 28.7719 28.7662C28.7719 28.5574 28.7803 28.3469 28.7552 28.1415C28.6868 27.5769 28.2225 27.1543 27.6631 27.1242C27.1053 27.0958 26.596 27.4683 26.4807 28.0312C26.4273 28.2935 26.4256 28.5691 26.424 28.838C26.4156 32.6931 26.4106 36.5482 26.4039 40.4033C26.4039 40.5904 26.4089 40.7791 26.3989 40.9662C26.3638 41.5625 26.0048 41.945 25.4838 41.9483C24.9728 41.9517 24.5636 41.5658 24.5452 40.9795C24.5169 40.106 24.5386 39.229 24.5352 38.3538C24.5352 38.1033 24.5419 37.8527 24.5118 37.6055C24.43 36.9223 23.8706 36.4346 23.1926 36.4313C22.5146 36.4279 21.8716 36.919 21.8733 37.5955C21.88 40.6755 21.6378 43.7623 21.9969 46.834C22.1488 48.1385 22.6515 49.3712 23.5015 50.3534C25.0796 52.179 25.7677 54.2185 25.4053 56.6054C25.3268 57.1182 25.5172 57.2702 26.0432 57.2685C30.2515 57.2501 34.4599 57.2551 38.6682 57.2785C39.1759 57.2819 39.413 57.1616 39.3262 56.6288C39.3095 56.5269 39.3295 56.42 39.3228 56.3164C39.2276 54.454 39.3846 52.6902 40.3231 50.9664C41.255 49.251 41.4404 47.2767 41.4504 45.3207C41.4504 45.1336 41.4454 44.9449 41.457 44.7578C41.4955 44.1648 41.8578 43.774 42.3672 43.7656C42.8732 43.7573 43.2907 44.1465 43.3074 44.7311C43.3408 45.9187 43.2823 47.1063 43.0753 48.2805C42.778 49.9742 42.2386 51.5844 41.4287 53.1027C41.3001 53.3433 41.1932 53.5804 41.1949 53.8677C41.2015 55.0353 41.1965 56.2012 41.1915 57.3687C41.1915 57.5859 41.2299 57.7696 41.3953 57.9316C41.8712 58.3993 42.0432 58.9806 42.0165 59.637C42.0015 59.9911 41.9848 60.3486 42.0182 60.6993C42.0733 61.279 41.8645 61.7066 41.3719 62.0022H40.7473C40.2396 61.6464 40.066 61.1537 40.1361 60.549C40.1595 60.3436 40.1161 60.1298 40.1461 59.926C40.2413 59.2779 39.9557 59.1259 39.3395 59.1276C34.8306 59.1476 30.3217 59.1276 25.8128 59.1309C24.4484 59.1309 24.5786 58.9405 24.5903 60.3603C24.5953 61.0334 24.5553 61.6464 23.8722 61.9989H23.3729H23.3763Z" fill="white"/>
</g>
<defs>
<clipPath id="clip0_729_36664">
<rect width="64" height="64" fill="white" transform="translate(0 -2)"/>
</clipPath>
</defs>
</svg>
