<svg width="64" height="64" viewBox="0 0 64 64" fill="none" xmlns="http://www.w3.org/2000/svg">
<g id="_&#208;&#161;&#208;&#187;&#208;&#190;&#208;&#185;_1" clip-path="url(#clip0_729_36655)">
<path id="Vector" d="M30.0017 63.9967C29.445 63.79 28.8517 63.875 28.2783 63.7833C27.7867 63.705 27.4783 63.4783 27.315 63.0217C27.1 62.415 26.8667 61.8117 26.6683 61.2C26.4717 60.5967 26.695 60.085 27.1983 59.9067C27.7133 59.725 28.18 59.9733 28.4267 60.5617C28.435 60.5817 28.4517 60.5983 28.4533 60.6183C28.5767 61.9117 29.425 62.1233 30.53 62.11C31.8833 62.0933 33.2367 62.1233 34.5883 62.0167C34.9633 61.9867 35.1283 61.8517 35.2467 61.5117C35.9867 59.3917 36.7583 57.2817 37.4883 55.1583C37.6767 54.61 37.985 54.2867 38.545 54.1333C39.8733 53.7717 41.135 53.235 42.375 52.6367C42.7133 52.4733 42.7717 52.3283 42.6467 51.975C42.44 51.3883 42.2583 50.7833 42.165 50.17C42.0933 49.7017 41.9567 49.7433 41.6233 49.9233C39.4783 51.0817 37.1967 51.8133 34.78 52.1517C25.8033 53.4083 17.1967 48.7233 13.525 40.365C10.335 33.1 11.105 26.1667 15.78 19.71C15.8783 19.575 15.9783 19.4417 16.0933 19.3217C16.4733 18.9267 17 18.8683 17.38 19.1967C17.78 19.5433 17.855 19.9683 17.5767 20.4267C17.4467 20.64 17.285 20.8317 17.135 21.0317C11.66 28.3467 12.52 38.9 19.1067 45.205C19.24 45.3333 19.3833 45.45 19.565 45.6117C19.7733 45.0767 19.9517 44.575 20.2533 44.1333C21.3067 42.5867 22.7367 41.7067 24.6383 41.6767C25.4817 41.6633 26.1717 41.1833 26.9333 40.9283C26.99 40.91 27.05 40.8667 27.0817 40.8183C27.265 40.535 27.055 38.625 26.815 38.3683C25.8967 37.3817 25.2983 36.2317 25.1283 34.8883C25.075 34.4717 24.8883 34.3783 24.515 34.3983C21.7817 34.5383 20.7783 31.8183 21.73 29.6717C21.8967 29.2967 21.98 28.945 21.99 28.5433C22.025 27.1533 21.8617 25.7583 22.2333 24.38C23.0917 21.2 25.9983 18.9117 29.3017 18.8717C30.405 18.8583 31.51 18.8717 32.6133 18.8683C33.7167 18.8667 34.705 19.21 35.5633 19.8917C35.8083 20.085 36.0467 20.17 36.3517 20.1933C39.7683 20.4483 41.9983 22.8133 42.0683 26.2467C42.08 26.8083 42.0733 27.3717 42.07 27.9333C42.0667 28.6383 42.115 29.3017 42.4067 29.99C43.0067 31.4 42.5167 33.0917 41.4183 33.8817C40.8917 34.2617 40.2967 34.455 39.6567 34.3917C39.0917 34.3367 38.9317 34.5567 38.8517 35.1C38.6833 36.255 38.1817 37.2983 37.3767 38.145C36.9933 38.5483 36.8767 38.9467 36.8883 39.475C36.9183 40.86 36.9033 40.85 38.2033 41.385C38.6733 41.5783 39.1417 41.67 39.6533 41.6867C40.8667 41.7233 41.9133 42.2167 42.8083 43.0167C43.0817 43.26 43.1933 43.2733 43.3833 42.9333C44.7083 40.5733 46.6417 38.9067 49.1767 37.955C49.4617 37.8483 49.5867 37.6767 49.6767 37.3933C52.895 27.3617 46.4283 16.1817 36.1233 13.9883C30.3583 12.7617 25.1417 13.97 20.4783 17.5667C20.0933 17.8633 19.705 18.085 19.225 17.835C18.855 17.6433 18.7067 17.315 18.7433 16.8983C18.7717 16.58 18.965 16.3733 19.1983 16.185C22.295 13.6933 25.82 12.1667 29.77 11.7817C36.6517 11.1117 42.5367 13.2967 47.14 18.4633C51.7867 23.68 53.2933 29.8117 51.8117 36.6517C51.695 37.1867 51.6983 37.385 52.3417 37.2917C53.04 37.1883 53.7633 37.2183 54.455 37.3783C55.015 37.5067 55.5067 37.3817 56.0217 37.1933C57.8383 36.53 59.66 35.8833 61.4883 35.2533C61.8517 35.1283 61.9983 34.96 62.03 34.5583C62.1617 32.85 62.1617 31.1483 62.03 29.44C62 29.04 61.8567 28.87 61.4917 28.7433C59.39 28.0133 57.3017 27.2417 55.1967 26.5233C54.6217 26.3267 54.2983 26.0017 54.1383 25.4233C53.7083 23.875 53.0983 22.3933 52.3017 20.9967C52 20.4667 52.01 20.0083 52.2717 19.4717C53.2467 17.4717 54.18 15.45 55.1567 13.45C55.33 13.0933 55.3017 12.8733 55.045 12.5767C53.925 11.2817 52.7183 10.0783 51.425 8.95667C51.1233 8.695 50.9017 8.68333 50.55 8.85333C48.55 9.82833 46.5283 10.7617 44.5283 11.7367C43.9883 12 43.53 12 43.0033 11.7C41.6067 10.9033 40.125 10.2933 38.575 9.865C37.995 9.705 37.675 9.37667 37.48 8.80167C36.7617 6.69667 35.99 4.60833 35.26 2.50667C35.1317 2.13833 34.9517 2.005 34.5567 1.975C32.87 1.845 31.1883 1.84833 29.5 1.96833C29.04 2.00167 28.8683 2.17833 28.7283 2.58333C28.0083 4.66667 27.24 6.73333 26.5267 8.81833C26.33 9.39333 25.9967 9.71 25.4183 9.86833C23.9083 10.2833 22.465 10.8817 21.1017 11.6467C20.515 11.9767 20.02 12.0033 19.41 11.7C17.4533 10.73 15.465 9.82333 13.5033 8.865C13.105 8.67 12.8517 8.71833 12.525 9.005C11.2833 10.09 10.125 11.2533 9.03333 12.49C8.72833 12.835 8.67333 13.0967 8.88333 13.5217C9.85667 15.5 10.7767 17.5033 11.7467 19.485C12.0117 20.0283 11.9967 20.485 11.7 21.01C10.9083 22.4083 10.2967 23.89 9.86833 25.4383C9.715 25.9917 9.40833 26.3167 8.85667 26.5067C6.79167 27.2167 4.745 27.9783 2.67833 28.6833C2.205 28.845 2 29.045 1.96667 29.5817C1.86167 31.2283 1.85667 32.8683 1.97833 34.5133C2.01 34.9333 2.14333 35.1217 2.54167 35.2583C4.625 35.9767 6.69167 36.745 8.77667 37.4583C9.36833 37.66 9.71333 37.9817 9.88 38.5917C10.305 40.1417 10.925 41.62 11.7183 43.0183C12.005 43.5233 12.005 43.9667 11.7517 44.4867C10.7683 46.5067 9.82333 48.545 8.845 50.5667C8.68833 50.89 8.69333 51.1033 8.93833 51.3883C10.0717 52.7 11.29 53.92 12.6033 55.0533C12.8833 55.295 13.095 55.3167 13.4233 55.1567C15.445 54.1767 17.4833 53.2317 19.5033 52.2483C20.02 51.9967 20.4633 51.9867 20.9717 52.275C22.4067 53.0867 23.925 53.7133 25.5167 54.1533C26.0267 54.295 26.3417 54.59 26.4967 55.095C26.6483 55.5917 26.855 56.0717 27.0017 56.57C27.1717 57.145 26.9417 57.6017 26.435 57.785C25.9383 57.9633 25.3983 57.755 25.2633 57.1683C25.03 56.15 24.4233 55.6833 23.4433 55.43C22.4817 55.1817 21.5733 54.7317 20.7 54.2433C20.33 54.0367 20.0317 54.07 19.665 54.2467C17.6433 55.225 15.6033 56.1667 13.585 57.155C12.98 57.4517 12.5117 57.4017 11.99 56.9733C10.1467 55.46 8.47 53.79 6.97 51.9367C6.59333 51.47 6.54 51.0333 6.79667 50.5017C7.79 48.44 8.75667 46.3667 9.76 44.31C9.945 43.9317 9.93667 43.6383 9.74 43.275C9.13333 42.1567 8.64667 40.9817 8.28333 39.765C8.15167 39.325 7.91167 39.1333 7.50667 38.9917C5.425 38.2683 3.35833 37.4983 1.27167 36.7933C0.591667 36.5633 0.23 36.21 0.176667 35.4733C0.141667 34.9817 0.198333 34.47 0 33.995V29.995C0.191667 29.54 0.145 29.0483 0.166667 28.5783C0.203333 27.7867 0.6 27.4117 1.32333 27.17C3.41167 26.47 5.47667 25.6983 7.56 24.9817C7.95833 24.845 8.155 24.6283 8.27667 24.23C8.65 23.0167 9.12333 21.8383 9.73667 20.725C9.95333 20.3317 9.92667 20.0233 9.73667 19.6333C8.755 17.615 7.81333 15.575 6.83 13.5583C6.54833 12.98 6.58333 12.525 6.99667 12.0183C8.5 10.17 10.175 8.49833 12.0217 6.99333C12.5283 6.58 12.985 6.54667 13.5633 6.82833C15.5817 7.81167 17.62 8.75333 19.6383 9.73667C20.0283 9.92667 20.3367 9.95167 20.73 9.73667C21.8433 9.125 23.0233 8.65167 24.2367 8.27833C24.6367 8.155 24.85 7.95667 24.9867 7.55833C25.725 5.41667 26.5033 3.29 27.2433 1.14833C27.4433 0.571667 27.7683 0.266667 28.3983 0.193333C28.9317 0.131667 29.485 0.208333 29.9983 0H33.9983C34.4517 0.201667 34.9433 0.138333 35.4133 0.165C36.1983 0.21 36.58 0.595 36.8233 1.32333C37.5217 3.41167 38.2933 5.47667 39.01 7.55833C39.1467 7.95667 39.3633 8.14833 39.7633 8.27333C40.955 8.64333 42.1183 9.105 43.2117 9.70833C43.6417 9.945 43.985 9.92333 44.4167 9.71167C46.415 8.735 48.4367 7.80667 50.435 6.83C51.0133 6.54667 51.4733 6.58167 51.9783 6.99167C53.825 8.49667 55.4967 10.1717 57.0017 12.0183C57.4133 12.5233 57.45 12.9817 57.1683 13.56C56.185 15.5783 55.2433 17.6167 54.26 19.635C54.07 20.025 54.0433 20.3333 54.26 20.7267C54.8733 21.84 55.3467 23.0183 55.72 24.2317C55.8433 24.63 56.0383 24.8467 56.4383 24.9833C58.58 25.7217 60.7083 26.4983 62.8483 27.2417C63.4217 27.44 63.7367 27.76 63.8033 28.395C63.86 28.9283 63.7967 29.4817 63.9983 29.9983V33.9983C63.7967 34.515 63.8617 35.0683 63.8033 35.6017C63.7333 36.2333 63.4217 36.56 62.845 36.755C61.5067 37.2083 60.1767 37.6883 58.8467 38.17C58.61 38.255 58.3383 38.2883 58.1117 38.51C58.38 38.6783 58.6067 38.8183 58.8333 38.96C60.83 40.2217 62.2817 41.9467 63.185 44.1283C63.4483 44.7633 63.6767 45.4133 63.76 46.0983C63.8233 46.625 63.5867 47.005 63.0617 47.1183C62.55 47.2283 62.1633 47.0233 61.9767 46.5133C61.92 46.3583 61.8867 46.1933 61.845 46.0333C60.665 41.515 56.42 38.6467 51.7767 39.2283C47.9167 39.7117 44.685 42.77 44.01 46.575C43.3033 50.565 45.2067 54.505 48.7317 56.345C49.7233 56.8633 49.6817 56.86 49.7383 55.7333C49.7717 55.0783 49.5867 54.6483 49.0217 54.2967C48.3717 53.89 47.7883 53.375 47.16 52.9283C46.7683 52.65 46.6 52.3017 46.605 51.8183C46.6217 50.0683 46.6217 48.32 46.605 46.57C46.6 46.0583 46.7833 45.705 47.2033 45.4217C48.24 44.725 49.2633 44.01 50.2867 43.2917C50.6667 43.0233 51.0517 42.855 51.5 43.105C51.9183 43.3383 51.9983 43.73 51.9967 44.1717C51.9867 45.4417 51.9917 46.7133 51.995 47.9833C51.995 48.385 52.6183 49.07 52.985 49.0783C53.34 49.0867 53.9967 48.395 53.9983 48.005C54 46.7133 54.0067 45.4217 53.995 44.1317C53.99 43.68 54.0933 43.3017 54.52 43.085C54.92 42.8833 55.2783 43.0017 55.6267 43.2467C56.6833 43.9867 57.7433 44.725 58.8117 45.4483C59.2133 45.72 59.385 46.065 59.3817 46.5483C59.3683 48.2983 59.365 50.0467 59.3817 51.7967C59.3867 52.3067 59.1967 52.6617 58.7883 52.9533C58.0433 53.4867 57.3183 54.0467 56.585 54.5967C56.42 54.72 56.2483 54.825 56.255 55.0833C56.27 55.62 56.26 56.1567 56.26 56.6867C56.3433 56.7017 56.39 56.725 56.4217 56.7133C56.5767 56.655 56.7333 56.5967 56.8817 56.5233C59.4983 55.2267 61.18 53.1733 61.8817 50.3283C62.0567 49.6167 62.49 49.2717 63.045 49.39C63.6283 49.5133 63.8817 50.0383 63.7067 50.78C63.3833 52.15 62.845 53.4267 62.0383 54.585C57.6917 60.82 48.3017 60.8167 43.9867 54.565C43.715 54.1717 43.515 54.1267 43.105 54.3483C42.0417 54.9217 40.9183 55.3683 39.7633 55.7217C39.3633 55.8433 39.1483 56.0417 39.01 56.44C38.2717 58.5817 37.495 60.71 36.7517 62.8517C36.5517 63.4267 36.23 63.735 35.5967 63.8067C35.065 63.865 34.5117 63.7933 33.9967 64.0017H29.9967L30.0017 63.9967ZM30.29 28.3717V28.3633C29.4367 28.3633 28.5833 28.38 27.73 28.3583C27.155 28.3433 26.8833 28.5717 26.8867 29.1617C26.8983 30.7633 26.865 32.3667 26.9017 33.9683C26.9517 36.175 28.43 37.95 30.57 38.4333C31.2467 38.5867 31.9383 38.5417 32.6233 38.52C34.8567 38.4467 36.73 36.86 37.0067 34.6517C37.26 32.6283 37.1283 30.5817 37.06 28.545C37.0433 28.0633 36.8517 27.6183 36.5583 27.2217C36.3167 26.8967 36.1333 26.8183 35.7817 27.15C34.9 27.985 33.8133 28.3667 32.6 28.3733C31.83 28.3783 31.06 28.3733 30.29 28.3733V28.3717ZM30.0333 26.49C30.0333 26.49 30.0333 26.495 30.0333 26.4967C30.9067 26.4967 31.7817 26.5117 32.655 26.4933C34.2583 26.46 35.5017 25.1917 35.5 23.615C35.4983 22.0383 34.25 20.7733 32.6467 20.7467C31.5233 20.7283 30.3983 20.7283 29.275 20.75C26.7383 20.7983 24.5467 22.605 23.9867 25.0767C23.7817 25.9833 23.8767 26.9 23.855 27.8133C23.8517 27.915 23.85 28.0233 23.95 28.0917C24.2 28.265 25.1617 28.0383 25.3267 27.7633C25.84 26.9033 26.5917 26.4767 27.5967 26.4883C28.4083 26.4983 29.22 26.49 30.0317 26.49H30.0333ZM55.8733 45.7017C55.8733 46.7917 55.8617 47.7617 55.8783 48.73C55.8867 49.2133 55.715 49.5717 55.31 49.8333C54.7517 50.195 54.1967 50.565 53.6467 50.9417C53.195 51.2517 52.765 51.2417 52.3183 50.9283C51.8417 50.5933 51.3617 50.2583 50.86 49.9633C50.32 49.645 50.0783 49.2233 50.1067 48.58C50.1483 47.6583 50.1167 46.7333 50.1167 45.6967C49.6617 46.0083 49.3383 46.27 48.9783 46.4683C48.5783 46.6867 48.4633 46.98 48.475 47.4283C48.5067 48.635 48.5 49.845 48.4783 51.0533C48.4717 51.4233 48.5733 51.665 48.885 51.8817C49.6183 52.3933 50.3183 52.955 51.0433 53.48C51.4333 53.7617 51.6083 54.12 51.6017 54.5983C51.59 55.3483 51.6117 56.0983 51.5933 56.8483C51.585 57.185 51.6917 57.36 52.0417 57.3583C52.6667 57.3567 53.29 57.355 53.915 57.3617C54.2967 57.3667 54.4067 57.185 54.3933 56.8167C54.3683 56.0883 54.4017 55.3583 54.38 54.63C54.365 54.1233 54.5533 53.7567 54.9617 53.4633C55.705 52.9283 56.4267 52.3633 57.1683 51.8233C57.385 51.665 57.5117 51.5083 57.5067 51.2167C57.49 49.8633 57.5 48.5083 57.4983 47.155C57.4983 46.99 57.5117 46.83 57.3383 46.715C56.8767 46.4083 56.425 46.0883 55.8683 45.7033L55.8733 45.7017ZM31.06 46.8017C30.215 47.3067 29.5083 47.7367 28.7933 48.1567C28.0667 48.5833 27.625 48.47 27.1883 47.7417C26.44 46.4917 25.6883 45.245 24.9683 43.98C24.7567 43.6083 24.5117 43.5167 24.1067 43.5883C22.65 43.845 21.3783 45.2333 21.2733 46.6933C21.2533 46.9683 21.3717 47.1117 21.5767 47.25C22.32 47.75 23.0883 48.2067 23.8933 48.5983C25.9933 49.6167 28.2 50.2433 30.5333 50.405C30.765 50.4217 31.0617 50.5383 31.06 50.1133C31.0567 49.0533 31.06 47.995 31.06 46.8033V46.8017ZM32.9383 46.8C32.9383 47.905 32.9583 48.8783 32.93 49.85C32.9167 50.3067 33.0183 50.4583 33.5183 50.415C35.995 50.2033 38.3167 49.505 40.5383 48.4C41.475 47.935 42.2833 47.455 42.1783 46.2317C42.165 46.0733 42.2183 45.8983 42.2783 45.7467C42.3733 45.5 42.2883 45.305 42.1533 45.11C41.6 44.3017 40.8533 43.7917 39.8867 43.59C39.4767 43.505 39.2417 43.62 39.0317 43.9867C38.31 45.25 37.5617 46.495 36.8133 47.7433C36.3783 48.47 35.9333 48.5833 35.2117 48.1583C34.4983 47.74 33.7917 47.31 32.94 46.8H32.9383ZM28.9633 39.9117C29.0683 40.415 28.7867 40.8933 29.1783 41.2667C30.0233 42.0667 30.8917 42.8417 31.745 43.6333C31.905 43.7817 32.0383 43.8317 32.2217 43.6617C33.105 42.8417 34.0133 42.0483 34.875 41.2067C35.1817 40.9067 35.09 40.41 34.9667 40.0833C34.8583 39.795 34.5167 40.1517 34.2683 40.1583C34.1067 40.1633 33.9483 40.245 33.785 40.27C32.1867 40.5133 30.6017 40.515 28.9617 39.9133L28.9633 39.9117ZM40.1867 26.7783H40.2067C40.1817 26.3433 40.1933 25.9017 40.125 25.475C39.8817 23.9867 39.0433 22.9533 37.6633 22.3533C37.3883 22.2333 37.1583 22.165 37.2633 22.6117C37.4467 23.3983 37.4117 24.1783 37.1833 24.9467C37.125 25.1417 37.1717 25.2567 37.3233 25.3683C38.1483 25.9783 38.595 26.8267 38.8283 27.8017C38.8783 28.0083 38.955 28.1017 39.1917 28.1217C40.175 28.21 40.1883 28.2083 40.19 27.2133C40.19 27.0683 40.19 26.9233 40.19 26.7783H40.1867ZM30.3617 44.9217C30.265 44.8267 30.18 44.735 30.0883 44.6517C29.5533 44.16 28.965 43.7133 28.495 43.165C27.9983 42.5867 27.5283 42.625 26.9317 42.9433C26.6733 43.08 26.645 43.1733 26.785 43.4C27.0383 43.805 27.2567 44.2317 27.5233 44.6267C27.8533 45.1183 28.0133 45.99 28.505 46.0317C29.0117 46.075 29.5717 45.4867 30.1083 45.175C30.1617 45.1433 30.22 45.115 30.2633 45.0733C30.3033 45.035 30.325 44.9783 30.36 44.9217H30.3617ZM37.3217 43.1917C37.325 43.0117 37.18 42.985 37.07 42.965C36.695 42.9017 36.3717 42.4083 35.9417 42.795C35.23 43.4333 34.5367 44.0917 33.8233 44.7267C33.59 44.9333 33.6433 45.0383 33.8817 45.175C34.3317 45.4333 34.7817 45.6933 35.21 45.985C35.5 46.1833 35.6283 46.0833 35.78 45.8183C36.2317 45.025 36.7083 44.245 37.1733 43.46C37.2267 43.37 37.275 43.2783 37.3217 43.1933V43.1917ZM25.015 31.2717C25.015 30.96 25.02 30.6467 25.0133 30.335C25.01 30.1983 25.0383 30.0583 24.8367 29.9933C24.3 29.8167 23.5917 30.07 23.3733 30.5417C23.0783 31.1833 23.2767 32.135 23.765 32.4083C24.4817 32.81 25.015 32.5117 25.015 31.7083C25.015 31.5633 25.015 31.4167 25.015 31.2717ZM40.7217 31.1033C40.7217 31.1217 40.7367 30.995 40.7183 30.8717C40.625 30.2233 40.2 29.9567 39.3833 29.985C38.6317 30.0117 39.0833 30.5667 39 30.8683C38.925 31.1383 38.945 31.4533 38.995 31.735C39.0417 32 38.7533 32.435 39.2267 32.5083C39.7367 32.5867 40.2883 32.605 40.6 32.035C40.735 31.79 40.7433 31.5167 40.7217 31.1017V31.1033Z" fill="#8F8F92"/>
</g>
<defs>
<clipPath id="clip0_729_36655">
<rect width="64" height="64" fill="white"/>
</clipPath>
</defs>
</svg>
