<svg width="64" height="64" viewBox="0 0 64 64" fill="none" xmlns="http://www.w3.org/2000/svg">
<g id="_&#208;&#161;&#208;&#187;&#208;&#190;&#208;&#185;_1" clip-path="url(#clip0_729_36671)">
<path id="Vector" d="M0.00166667 50.875C0.00166667 36.875 0.00166667 22.875 0.00166667 8.875C0.04 8.75833 0.0883333 8.645 0.116667 8.52667C0.681667 6.17667 2.33667 4.63333 4.72167 4.31667C5.45833 4.21833 6.21667 4.24833 6.965 4.27C7.385 4.28167 7.505 4.13833 7.48667 3.73667C7.465 3.28333 7.46 2.825 7.58 2.37333C7.92 1.1 8.84667 0.438333 10 0H11.25C13.1083 0.581667 13.9917 1.84167 13.865 3.78667C13.8383 4.18667 13.9883 4.27 14.36 4.26833C16.5 4.25333 18.6417 4.245 20.7817 4.27333C21.2767 4.28 21.385 4.10333 21.3517 3.66333C21.2817 2.72 21.485 1.855 22.1133 1.10667C22.5867 0.541667 23.245 0.3 23.8767 0.00166667H25.1267C26.9817 0.588333 27.86 1.85167 27.735 3.79167C27.7083 4.19833 27.8717 4.27 28.235 4.26833C30.3333 4.25333 32.4317 4.24167 34.5283 4.275C35.07 4.28333 35.265 4.155 35.2183 3.59167C35.1283 2.5 35.4567 1.54833 36.2933 0.793333C36.7183 0.408333 37.2533 0.243333 37.75 0.00166667H39C40.1417 0.373333 41.04 1.01167 41.4367 2.20667C41.61 2.73 41.6367 3.27167 41.6033 3.81167C41.58 4.17167 41.715 4.28 42.065 4.26667C42.6683 4.24333 43.2733 4.24 43.8767 4.27C45.625 4.35333 47.035 5.09333 48.0717 6.51333C48.8417 7.56667 49.0767 8.77 49.0733 10.0517C49.0633 15.1967 49.0733 20.3417 49.06 25.4867C49.06 25.9333 49.1817 26.1217 49.6317 26.25C56.5267 28.2217 61.0583 32.6383 63.2367 39.4717C63.6417 40.7433 63.7667 42.07 64 43.3767V46.2517C63.9633 46.4117 63.9067 46.57 63.8917 46.7333C63.1683 54.45 57.6383 61.0867 50.15 63.2483C48.87 63.6183 47.5517 63.7633 46.25 64.0033H43.25C43.1383 63.8817 42.9833 63.905 42.8417 63.8883C37.185 63.235 32.6567 60.6183 29.2733 56.0433C28.9667 55.63 28.67 55.4667 28.155 55.4683C20.8483 55.4867 13.5417 55.41 6.23833 55.5117C2.825 55.5583 0.555 53.7283 0.0283333 50.935C0.025 50.915 0.01 50.8983 0 50.88L0.00166667 50.875ZM24.5233 14.9283C17.275 14.9283 10.0267 14.93 2.77833 14.9217C2.35 14.9217 2.115 14.945 2.115 15.5067C2.13333 27.0033 2.12667 38.5 2.13167 49.9967C2.13167 51.94 3.47 53.3283 5.42 53.3333C12.6467 53.3533 19.875 53.34 27.1017 53.3483C27.5417 53.3483 27.585 53.245 27.4067 52.8567C25.2717 48.1967 25.0267 43.4333 26.6683 38.5767C26.7667 38.2867 26.7283 38.1383 26.4783 37.9617C25.9383 37.5817 25.6283 37.0417 25.6217 36.375C25.6067 34.875 25.595 33.375 25.6233 31.8767C25.645 30.8033 26.5017 29.9133 27.57 29.8867C29.09 29.8467 30.6117 29.8467 32.13 29.8983C32.5433 29.9117 32.8233 29.8167 33.135 29.5783C37.0283 26.6267 41.42 25.3167 46.29 25.68C46.8533 25.7217 46.9433 25.575 46.94 25.07C46.92 21.9467 46.91 18.8217 46.9467 15.6983C46.955 15.0433 46.755 14.915 46.1417 14.9167C38.935 14.9383 31.7283 14.93 24.5217 14.93L24.5233 14.9283ZM44.7883 27.74C35.3683 27.75 27.745 35.37 27.7433 44.78C27.7417 54.2017 35.3583 61.8567 44.7483 61.87C54.1983 61.8833 61.8717 54.2133 61.8717 44.7533C61.8717 35.3733 54.1983 27.7317 44.7883 27.74ZM24.5667 12.7917C31.0233 12.7917 37.48 12.7917 43.9367 12.7917C44.79 12.7917 45.645 12.78 46.4983 12.7967C46.8217 12.8017 46.94 12.69 46.935 12.365C46.9167 11.3867 46.96 10.405 46.9083 9.42833C46.82 7.73167 45.5417 6.49333 43.8383 6.39833C43.5067 6.38 43.1717 6.39167 42.8383 6.39167C41.675 6.39167 41.6883 6.39167 41.6 7.57333C41.495 8.97 40.7983 9.965 39.4833 10.4717C38.2633 10.94 36.8917 10.5667 36.0083 9.585C35.3517 8.855 35.1433 7.98167 35.2183 7.035C35.26 6.50667 35.0683 6.37167 34.5567 6.38C32.6833 6.40833 30.8083 6.39167 28.9333 6.39167C27.7917 6.39167 27.8033 6.39167 27.735 7.54667C27.66 8.81167 27.0767 9.78167 25.9283 10.335C24.81 10.8733 23.6933 10.7817 22.675 10.0583C21.675 9.34667 21.2567 8.33 21.3567 7.125C21.4083 6.50667 21.1917 6.36333 20.5967 6.37667C18.8067 6.41667 17.015 6.39167 15.2233 6.39167C14.3689 6.39167 13.9161 6.80611 13.865 7.635C13.7567 9.38 12.34 10.685 10.5883 10.6517C8.875 10.62 7.53667 9.28 7.48333 7.53833C7.475 7.28833 7.46667 7.03833 7.48167 6.78833C7.49833 6.49333 7.38 6.38 7.08333 6.38833C6.43833 6.405 5.79 6.36333 5.14667 6.40833C3.41167 6.53167 2.16167 7.88167 2.13333 9.635C2.12167 10.3633 2.13 11.0933 2.13 11.8217C2.13 12.4694 2.44389 12.7933 3.07167 12.7933C10.2367 12.7933 17.4017 12.7933 24.5667 12.7933V12.7917ZM25.61 5.35C25.61 4.665 25.625 3.98 25.605 3.295C25.585 2.61333 25.145 2.145 24.5533 2.13333C23.93 2.12167 23.4883 2.59167 23.4817 3.32C23.47 4.64833 23.4717 5.97667 23.4817 7.305C23.4867 8.07667 23.865 8.505 24.5167 8.515C25.18 8.525 25.595 8.065 25.6083 7.28C25.62 6.63667 25.61 5.99333 25.6083 5.35H25.61ZM9.61167 5.37667C9.61167 6.04167 9.60167 6.705 9.615 7.37C9.62833 8.08333 10.0233 8.50833 10.6517 8.51667C11.2733 8.525 11.725 8.09333 11.735 7.405C11.755 6.015 11.7567 4.62333 11.7333 3.23333C11.7217 2.56667 11.2233 2.11 10.625 2.13667C10.04 2.16333 9.63 2.605 9.61667 3.26C9.60167 3.965 9.61333 4.67167 9.61333 5.37667H9.61167ZM37.3483 5.37667C37.3483 6.06167 37.3317 6.74667 37.3533 7.43167C37.3733 8.10167 37.7783 8.50833 38.385 8.51667C38.98 8.525 39.45 8.11667 39.465 7.46667C39.495 6.05667 39.4933 4.645 39.4683 3.23333C39.455 2.56333 38.9533 2.11 38.3583 2.13667C37.7733 2.16333 37.3683 2.59833 37.3517 3.26C37.335 3.965 37.3483 4.67167 37.3483 5.37667ZM30.52 32.0017C29.6 32.0017 28.8367 32.0017 28.0717 32.0017C27.8917 32.0017 27.7417 32.0183 27.7417 32.2567C27.745 33.4233 27.7417 34.5917 27.7417 35.7583C28.575 34.465 29.4333 33.2533 30.5167 32.0017H30.52Z" fill="#65666D"/>
<path id="Vector_2" d="M19.1887 41.6141C19.8953 41.6141 20.6037 41.6024 21.3103 41.6158C22.522 41.6391 23.4203 42.4574 23.4603 43.6724C23.5087 45.1274 23.5053 46.5858 23.462 48.0408C23.4253 49.2824 22.5187 50.1158 21.272 50.1291C19.8787 50.1424 18.4837 50.1441 17.0903 50.1291C15.8987 50.1158 15.002 49.3174 14.957 48.1291C14.9003 46.6341 14.9003 45.1324 14.9537 43.6374C14.997 42.4141 15.887 41.6358 17.1287 41.6158C17.8153 41.6058 18.502 41.6141 19.1887 41.6158V41.6141ZM17.072 45.8158C17.072 46.3991 17.082 46.9808 17.067 47.5641C17.0603 47.8658 17.132 48.0158 17.4787 48.0091C18.6237 47.9908 19.767 47.9941 20.912 48.0091C21.2287 48.0124 21.3537 47.9224 21.3503 47.5874C21.3353 46.4424 21.3387 45.2991 21.3487 44.1541C21.3503 43.8774 21.282 43.7358 20.9687 43.7391C19.8037 43.7508 18.6387 43.7558 17.4737 43.7374C17.117 43.7324 17.0637 43.9024 17.0703 44.1941C17.082 44.7341 17.0737 45.2758 17.0737 45.8174L17.072 45.8158Z" fill="#65666D"/>
<path id="Vector_3" d="M19.1839 29.8712C19.8905 29.8712 20.5989 29.8612 21.3055 29.8728C22.5155 29.8945 23.4189 30.7162 23.4605 31.9295C23.5105 33.3845 23.5072 34.8428 23.4639 36.2978C23.4272 37.5428 22.5289 38.3728 21.2789 38.3845C19.8855 38.3978 18.4905 38.3995 17.0972 38.3845C15.8722 38.3695 14.9905 37.5595 14.9505 36.3328C14.9022 34.8578 14.9005 33.3778 14.9539 31.9028C14.9972 30.6828 15.8939 29.8912 17.1239 29.8728C17.8105 29.8628 18.4972 29.8712 19.1839 29.8728V29.8712ZM17.0722 34.0628C17.0722 34.6462 17.0889 35.2295 17.0655 35.8112C17.0505 36.1712 17.1889 36.2728 17.5355 36.2662C18.6589 36.2478 19.7822 36.2512 20.9055 36.2645C21.2155 36.2678 21.3539 36.1862 21.3505 35.8478C21.3355 34.7028 21.3355 33.5595 21.3505 32.4145C21.3555 32.0795 21.2272 31.9912 20.9122 31.9945C19.7889 32.0078 18.6639 32.0178 17.5422 31.9912C17.1305 31.9812 17.0522 32.1478 17.0672 32.5028C17.0889 33.0228 17.0722 33.5428 17.0739 34.0628H17.0722Z" fill="#65666D"/>
<path id="Vector_4" d="M19.2228 26.6548C18.4945 26.6548 17.7662 26.6731 17.0378 26.6515C15.8678 26.6165 15.0012 25.8398 14.9562 24.6715C14.8995 23.1548 14.8995 21.6331 14.9595 20.1181C15.0045 18.9631 15.8945 18.1615 17.0528 18.1415C18.4678 18.1181 19.8828 18.1215 21.2962 18.1398C22.5312 18.1565 23.4295 19.0148 23.4628 20.2581C23.5012 21.6931 23.5028 23.1298 23.4628 24.5631C23.4278 25.8081 22.5395 26.6281 21.2828 26.6565C20.5962 26.6715 19.9095 26.6598 19.2228 26.6598C19.2228 26.6598 19.2228 26.6581 19.2228 26.6565V26.6548ZM19.1962 24.5248C19.7578 24.5248 20.3195 24.5098 20.8795 24.5298C21.2262 24.5431 21.3562 24.4298 21.3495 24.0698C21.3312 22.9481 21.3362 21.8248 21.3478 20.7031C21.3512 20.3981 21.2795 20.2498 20.9328 20.2548C19.7895 20.2715 18.6462 20.2698 17.5028 20.2548C17.1795 20.2515 17.0628 20.3615 17.0662 20.6831C17.0778 21.8265 17.0812 22.9698 17.0662 24.1131C17.0612 24.4548 17.2062 24.5365 17.5145 24.5281C18.0745 24.5115 18.6362 24.5231 19.1978 24.5231L19.1962 24.5248Z" fill="#65666D"/>
<path id="Vector_5" d="M8.51146 38.3912C7.8048 38.3912 7.09646 38.4045 6.3898 38.3878C5.19146 38.3595 4.29813 37.4995 4.27313 36.2962C4.24146 34.8612 4.24313 33.4245 4.27313 31.9912C4.29813 30.7628 5.2048 29.8912 6.43813 29.8778C7.83146 29.8628 9.22646 29.8645 10.6198 29.8778C11.8748 29.8895 12.7581 30.7278 12.7848 31.9745C12.8165 33.4095 12.8148 34.8462 12.7848 36.2795C12.7598 37.5345 11.8898 38.3662 10.6348 38.3895C9.92813 38.4028 9.2198 38.3912 8.51313 38.3895L8.51146 38.3912ZM10.6581 34.1845C10.6581 33.5812 10.6515 32.9778 10.6615 32.3745C10.6648 32.1212 10.5948 31.9978 10.3115 32.0012C9.1248 32.0112 7.93813 32.0112 6.75313 32.0012C6.48646 31.9995 6.38813 32.0928 6.3898 32.3628C6.3998 33.5278 6.3998 34.6945 6.3898 35.8595C6.38646 36.1428 6.4648 36.2712 6.77313 36.2678C7.93813 36.2562 9.1048 36.2562 10.2698 36.2678C10.5698 36.2712 10.6715 36.1628 10.6631 35.8695C10.6481 35.3078 10.6581 34.7462 10.6581 34.1845Z" fill="#65666D"/>
<path id="Vector_6" d="M8.5546 26.6499C7.82627 26.6499 7.09794 26.6682 6.37127 26.6466C5.16627 26.6099 4.2946 25.7499 4.27127 24.5399C4.2446 23.1049 4.24127 21.6682 4.27127 20.2349C4.29794 19.0382 5.1946 18.1566 6.39127 18.1366C7.82627 18.1116 9.26294 18.1099 10.6979 18.1366C11.8779 18.1582 12.7513 19.0116 12.7779 20.1916C12.8129 21.6682 12.8146 23.1466 12.7779 24.6216C12.7496 25.7799 11.8963 26.6032 10.7396 26.6449C10.0129 26.6716 9.28294 26.6499 8.55627 26.6516L8.5546 26.6499ZM6.39293 22.3966C6.39293 22.9782 6.40127 23.5616 6.3896 24.1432C6.3846 24.3999 6.46127 24.5249 6.7396 24.5232C7.9246 24.5149 9.1096 24.5149 10.2946 24.5232C10.5613 24.5249 10.6613 24.4282 10.6596 24.1599C10.6513 22.9749 10.6513 21.7899 10.6596 20.6049C10.6613 20.3266 10.5379 20.2532 10.2796 20.2549C9.1146 20.2632 7.95127 20.2649 6.78627 20.2549C6.49127 20.2516 6.3796 20.3532 6.38793 20.6516C6.40293 21.2332 6.39293 21.8166 6.39293 22.3982V22.3966Z" fill="#65666D"/>
<path id="Vector_7" d="M8.57833 50.1268C7.85 50.1268 7.12167 50.1401 6.395 50.1234C5.20167 50.0968 4.3 49.2301 4.27333 48.0301C4.24167 46.5951 4.24333 45.1584 4.27167 43.7251C4.295 42.4918 5.19333 41.6268 6.43167 41.6134C7.825 41.5968 9.22 41.5984 10.6133 41.6134C11.9033 41.6268 12.7633 42.4668 12.7867 43.7634C12.8117 45.1568 12.81 46.5518 12.7867 47.9451C12.765 49.2701 11.895 50.1118 10.575 50.1284C9.91 50.1368 9.24333 50.1284 8.57833 50.1284V50.1268ZM6.39333 45.8734C6.39333 46.4151 6.41 46.9568 6.38667 47.4968C6.37167 47.8534 6.445 48.0201 6.85833 48.0101C7.98167 47.9818 9.10667 47.9901 10.23 48.0068C10.5483 48.0118 10.67 47.9218 10.665 47.5884C10.6483 46.4434 10.6483 45.2984 10.665 44.1551C10.67 43.8184 10.5433 43.7318 10.2267 43.7368C9.10333 43.7518 7.97833 43.7534 6.855 43.7368C6.51 43.7318 6.36833 43.8251 6.38667 44.1901C6.41333 44.7501 6.39333 45.3134 6.39333 45.8751V45.8734Z" fill="#65666D"/>
<path id="Vector_8" d="M25.6152 22.3626C25.6152 21.6559 25.6002 20.9476 25.6185 20.2409C25.6485 19.0443 26.5185 18.1576 27.7202 18.1359C29.1552 18.1109 30.5918 18.1109 32.0268 18.1359C33.2235 18.1576 34.1085 19.0559 34.1268 20.2476C34.1468 21.6826 34.1485 23.1193 34.1268 24.5543C34.1102 25.7309 33.2535 26.6176 32.0818 26.6409C30.6052 26.6726 29.1268 26.6726 27.6518 26.6409C26.4802 26.6159 25.6452 25.7309 25.6185 24.5459C25.6018 23.8176 25.6152 23.0893 25.6168 22.3609L25.6152 22.3626ZM32.0035 22.3759C32.0035 21.8143 31.9902 21.2509 32.0085 20.6893C32.0185 20.3759 31.9335 20.2476 31.5918 20.2526C30.4468 20.2709 29.3018 20.2709 28.1568 20.2526C27.8185 20.2476 27.7335 20.3743 27.7368 20.6893C27.7502 21.8343 27.7485 22.9793 27.7368 24.1243C27.7335 24.4126 27.8185 24.5309 28.1235 24.5276C29.2885 24.5143 30.4552 24.5143 31.6218 24.5276C31.9285 24.5309 32.0152 24.4143 32.0068 24.1243C31.9902 23.5426 32.0018 22.9593 32.0018 22.3759H32.0035Z" fill="#65666D"/>
<path id="Vector_9" d="M29.875 44.7872C29.875 36.5639 36.5517 29.8739 44.7633 29.8672C53.0417 29.8605 59.7433 36.5605 59.7417 44.8389C59.74 53.0222 53.005 59.7405 44.8083 59.7372C36.5617 59.7339 29.875 53.0405 29.875 44.7872ZM44.8733 31.9989C37.675 32.0189 31.995 37.7205 32.005 44.9139C32.015 51.8839 37.815 57.6122 44.8567 57.6055C51.84 57.5989 57.6433 51.7755 57.61 44.8055C57.5767 37.7472 51.8417 31.9805 44.8733 32.0005V31.9989Z" fill="#65666D"/>
<path id="Vector_10" d="M43.7379 42.6612C43.7379 42.0379 43.7346 41.4129 43.7379 40.7895C43.7429 39.9362 44.1262 39.4745 44.8112 39.4845C45.4862 39.4945 45.8612 39.9645 45.8646 40.8212C45.8679 41.7579 45.8862 42.6945 45.8562 43.6295C45.8429 44.0245 45.9746 44.2379 46.3329 44.3812C46.6979 44.5279 47.0496 44.7145 47.3896 44.9129C47.9562 45.2429 48.1396 45.8162 47.8712 46.3462C47.6129 46.8529 47.0496 47.0829 46.4879 46.8295C45.7296 46.4895 44.9912 46.1062 44.2596 45.7145C43.8812 45.5112 43.7279 45.1545 43.7346 44.7212C43.7446 44.0345 43.7379 43.3479 43.7362 42.6612H43.7379Z" fill="#65666D"/>
<path id="Vector_11" d="M50.8004 49.758C51.4904 49.743 52.662 50.9413 52.6287 51.628C52.592 52.3996 51.757 52.8946 51.092 52.5013C50.5904 52.203 50.1637 51.7846 49.8787 51.273C49.5087 50.608 50.037 49.7746 50.8004 49.758Z" fill="#65666D"/>
<path id="Vector_12" d="M38.0575 36.9771C38.6992 36.9937 39.8459 38.1221 39.8442 38.7587C39.8442 39.1837 39.6492 39.5237 39.2625 39.7204C38.8775 39.9171 38.4809 39.8987 38.1525 39.6171C37.8075 39.3221 37.4792 38.9971 37.1859 38.6504C36.9075 38.3204 36.9009 37.9204 37.0925 37.5387C37.2875 37.1521 37.6192 36.9654 38.0559 36.9771H38.0575Z" fill="#65666D"/>
<path id="Vector_13" d="M38.7889 49.7595C39.5789 49.7678 40.1122 50.6445 39.7006 51.3212C39.4089 51.8012 38.9956 52.2045 38.5222 52.5062C37.8456 52.9362 36.9689 52.4312 36.9456 51.6312C36.9256 50.9528 38.1072 49.7512 38.7889 49.7578V49.7595Z" fill="#65666D"/>
<path id="Vector_14" d="M35.7184 43.7492C35.9267 43.7492 36.135 43.7326 36.3417 43.7526C36.9 43.8042 37.3134 44.2392 37.3284 44.7759C37.3434 45.2809 36.98 45.7742 36.4567 45.8392C35.9867 45.8959 35.4984 45.8959 35.0267 45.8426C34.48 45.7809 34.1 45.2609 34.135 44.7359C34.1717 44.2009 34.5884 43.7926 35.1584 43.7492C35.345 43.7342 35.5317 43.7476 35.72 43.7492H35.7184Z" fill="#65666D"/>
<path id="Vector_15" d="M43.745 35.6884C43.7433 34.635 44.1066 34.1134 44.8283 34.1334C45.5216 34.1534 45.8716 34.6684 45.8716 35.68C45.8716 35.8884 45.8833 36.0967 45.8633 36.3034C45.8066 36.9017 45.36 37.3284 44.8066 37.3317C44.2283 37.335 43.7816 36.8817 43.7466 36.25C43.7366 36.0634 43.7466 35.8767 43.7466 35.6884H43.745Z" fill="#65666D"/>
<path id="Vector_16" d="M53.8473 45.8737C52.7956 45.8737 52.2656 45.5137 52.2656 44.8003C52.2656 44.0887 52.7856 43.7437 53.8523 43.7437C54.019 43.7437 54.1856 43.7387 54.3506 43.747C54.994 43.777 55.4473 44.197 55.4656 44.7753C55.484 45.3703 55.0156 45.832 54.3456 45.8703C54.1806 45.8803 54.0123 45.8703 53.8473 45.8737Z" fill="#65666D"/>
<path id="Vector_17" d="M45.8554 53.854C45.8554 54.0823 45.8838 54.3156 45.8504 54.539C45.7688 55.0873 45.2871 55.4856 44.7671 55.4673C44.2354 55.4473 43.7938 55.029 43.7521 54.4706C43.7254 54.119 43.7338 53.764 43.7454 53.4106C43.7654 52.734 44.2088 52.2623 44.8054 52.2656C45.3988 52.269 45.8371 52.7423 45.8688 53.4173C45.8754 53.5623 45.8688 53.709 45.8688 53.854C45.8638 53.854 45.8588 53.854 45.8554 53.854Z" fill="#65666D"/>
<path id="Vector_18" d="M52.6247 37.9039C52.6314 38.6756 51.4747 39.8506 50.8181 39.8273C50.3981 39.8123 50.0681 39.6156 49.8764 39.2223C49.6847 38.8273 49.7247 38.4423 50.0014 38.1189C50.2814 37.7889 50.5914 37.4789 50.9197 37.1973C51.2464 36.9189 51.6414 36.8973 52.0281 37.0756C52.4214 37.2573 52.6114 37.5839 52.6247 37.9039Z" fill="#65666D"/>
</g>
<defs>
<clipPath id="clip0_729_36671">
<rect width="64" height="64" fill="white"/>
</clipPath>
</defs>
</svg>
