<svg width="384" height="432" viewBox="0 0 384 432" fill="none" xmlns="http://www.w3.org/2000/svg">
<path d="M831.028 1.44929C793.694 -25.174 753.163 -48.1016 709.535 -56.1768C650.453 -67.1181 581.765 -45.6103 553.049 13.5441C519.999 81.653 507.442 143.763 432.051 172.227C378.892 192.299 307.503 186.389 263.491 143.904C237.371 118.697 217.896 86.4395 194.259 58.4448C137.571 -8.68361 72.5739 -10.3909 13.6496 50.1356C-14.5052 79.0421 -46.2148 112.233 -85.2623 108.894C-136.46 104.524 -173.651 38.2584 -224.744 41.5205C-252.659 43.301 -274.732 65.6917 -296.981 83.6764C-349.971 126.528 -390.75 76.4202 -443.396 98.7516C-456.605 104.348 -466.759 116.018 -479.127 123.514C-491.902 131.249 -520.138 134.84 -521.29 111.937" stroke="#B9BABD" stroke-linecap="round" stroke-linejoin="round"/>
<path d="M823.64 -15.4217C786.512 -41.9282 745.801 -62.8788 702.558 -68.9911C671.533 -73.4275 638.171 -68.8926 609.552 -54.9751C584.296 -42.6669 562.622 -23.1192 549.013 4.05496C524.026 54.0113 509.845 101.168 473.575 134.152C461.548 145.108 447.025 154.463 428.968 161.953C376.807 183.582 307.391 180.632 262.388 141.076C235.456 117.389 214.902 86.0297 190.794 58.213C178.432 43.9078 165.754 32.3439 152.844 23.5931C106.723 -7.55083 59.3178 0.251618 10.2427 41.2624C-5.29891 54.2487 -21.0491 70.5942 -37.5588 84.022C-59.0201 101.426 -83.6766 112.589 -110.393 110.42C-158.702 106.325 -194.501 45.5512 -242.946 48.0493C-269.374 49.4345 -290.522 69.5157 -311.733 85.8235C-361.976 124.44 -400.825 79.2008 -450.249 100.61C-462.676 106.005 -472.302 116.961 -483.914 124.216C-495.92 131.707 -521.945 135.523 -523.321 115.352" stroke="#B9BABD" stroke-linecap="round" stroke-linejoin="round"/>
<path d="M816.278 -32.29C779.371 -58.6839 738.469 -77.6388 695.597 -81.7841C664.954 -84.8411 632.345 -79.1244 604.503 -64.5688C579.896 -51.682 558.761 -32.0148 544.998 -5.39824C519.873 43.3167 504.771 89.8282 469.31 123.109C457.501 134.226 443.323 143.802 425.905 151.715C374.766 174.925 307.259 174.939 261.319 138.279C233.546 116.12 211.932 85.6705 187.366 58.0277C174.948 43.9751 162.265 32.3338 149.399 23.2864C103.844 -8.55126 57.5435 -3.15512 6.87066 32.4212C-12.3273 45.8974 -30.7058 65.3077 -49.955 81.3413C-74.7319 101.952 -104.253 114.492 -135.507 111.968C-180.95 108.296 -215.324 52.8465 -261.131 54.5994C-286.059 55.5853 -306.291 73.3757 -326.469 87.9919C-373.961 122.388 -410.898 82.0066 -457.083 102.504C-468.732 107.684 -477.82 117.954 -488.682 124.954C-499.899 132.211 -523.731 136.243 -525.321 118.785" stroke="#B9BABD" stroke-linecap="round" stroke-linejoin="round"/>
<path d="M808.915 -49.1497C772.217 -75.4121 731.127 -92.3085 688.633 -94.5683C658.359 -96.1791 626.516 -89.3475 599.433 -74.1643C575.476 -60.699 554.89 -40.931 540.958 -14.868C515.695 32.6056 499.672 78.4715 465.02 112.05C453.429 123.327 439.586 133.143 422.827 141.442C372.704 166.267 307.08 169.204 260.222 135.452C231.593 114.825 208.945 85.2615 183.892 57.8007C171.403 44.0047 158.754 32.2591 145.902 22.9232C100.982 -9.70594 54.9 -7.40328 3.46561 23.5341C-19.5867 37.4128 -40.4142 59.9646 -62.3653 78.6252C-90.4537 102.458 -124.83 116.294 -160.621 113.476C-203.168 110.109 -236.161 60.1066 -279.327 61.1289C-302.768 61.7195 -322.056 77.211 -341.212 90.1543C-385.919 120.337 -420.962 84.8025 -463.941 104.382C-474.798 109.343 -483.368 118.916 -493.47 125.691C-503.917 132.703 -525.539 136.961 -527.352 122.234" stroke="#B9BABD" stroke-linecap="round" stroke-linejoin="round"/>
<path d="M801.548 -66.0138C765.057 -92.1594 723.795 -107.049 681.668 -107.357C651.778 -107.574 620.671 -99.571 594.374 -83.7684C571.068 -69.7245 551.02 -49.8369 536.934 -24.3316C511.518 21.9047 494.584 67.1062 460.731 101.001C449.344 112.443 435.854 122.508 419.755 131.194C370.656 157.663 306.885 163.531 259.13 132.649C229.634 113.573 205.901 84.9416 180.437 57.5944C167.87 44.0885 155.256 32.2386 142.43 22.5955C98.0869 -10.7462 51.7965 -12.2244 0.0701365 14.6866C-27.0002 28.776 -50.0944 54.6717 -74.7808 75.9528C-106.185 102.994 -145.428 118.143 -185.759 115.017C-225.428 111.944 -257.018 67.4145 -297.536 67.6727C-319.475 67.8639 -337.83 81.0753 -355.961 92.2976C-397.88 118.281 -431.029 87.594 -470.791 106.236C-480.87 110.982 -488.907 119.855 -498.254 126.389C-507.932 133.157 -527.346 137.626 -529.383 125.631" stroke="#B9BABD" stroke-linecap="round" stroke-linejoin="round"/>
<path d="M794.161 -82.887C757.89 -108.92 716.437 -121.814 674.665 -120.151C645.158 -118.988 614.803 -109.804 589.265 -93.3735C566.612 -78.7364 547.11 -58.7626 532.844 -33.7921C507.291 11.2028 489.436 55.7586 456.391 89.9507C445.223 101.554 432.076 111.887 416.618 120.949C368.554 149.106 306.614 157.879 257.988 129.845C227.614 112.339 202.872 84.571 176.936 57.4018C164.298 44.1525 151.707 32.2171 138.91 22.2814C95.1341 -11.754 48.3907 -17.4984 -3.37216 5.85259C-34.5987 19.9383 -59.8401 49.3819 -87.2284 73.29C-121.944 103.553 -166.042 119.998 -210.925 116.582C-247.706 113.785 -277.908 74.7318 -315.768 74.2553C-336.222 74.0513 -353.632 84.9638 -370.741 94.5132C-409.837 116.304 -441.131 90.443 -477.668 108.177C-486.965 112.723 -494.469 120.896 -503.08 127.179C-511.988 133.702 -529.176 138.393 -531.438 129.129" stroke="#B9BABD" stroke-linecap="round" stroke-linejoin="round"/>
<path d="M786.798 -99.7375C750.734 -125.654 709.12 -136.56 667.699 -132.941C638.573 -130.399 608.972 -120.032 584.207 -102.979C562.204 -87.763 543.24 -67.6696 528.82 -43.2567C503.128 0.496755 484.353 44.4069 452.117 78.8965C441.167 90.6605 428.382 101.273 413.557 110.681C366.551 140.551 306.397 152.243 256.906 127.023C225.641 111.09 199.889 84.1857 173.492 57.1757C160.801 44.1937 148.204 32.1809 135.445 21.9193C92.2306 -12.8246 47.9989 -11.8866 -6.74652 -3.0335C-44.3118 3.04292 -69.4991 44.0504 -99.6228 70.579C-137.669 104.053 -186.608 121.79 -236.023 118.095C-269.919 115.559 -298.714 81.9929 -333.937 80.7711C-352.89 80.1677 -369.348 88.8108 -385.461 96.6473C-421.712 114.271 -451.187 93.2147 -484.504 110.027C-493.023 114.357 -500.008 121.834 -507.845 127.887C-515.98 134.181 -530.961 139.082 -533.45 132.536" stroke="#B9BABD" stroke-linecap="round" stroke-linejoin="round"/>
<path d="M779.435 -116.615C743.591 -142.419 701.782 -151.344 660.736 -145.743C631.991 -141.821 603.144 -130.273 579.155 -112.582C557.802 -96.7875 539.391 -76.5786 524.803 -52.7193C498.973 -10.2072 479.276 33.0573 447.835 67.8486C437.103 79.7733 424.679 90.6652 410.491 100.434C364.557 132.062 306.148 146.635 255.821 124.221C223.657 109.895 196.928 83.7985 170.048 56.9852C157.3 44.2558 144.717 32.1761 131.997 21.6032C89.3393 -13.8156 43.7183 -19.444 -10.1168 -11.8694C-51.6375 -6.04179 -79.1728 38.7586 -112.013 67.9183C-153.375 104.6 -207.173 123.617 -261.132 119.663C-292.129 117.383 -319.546 89.3124 -352.113 87.3559C-369.579 86.3573 -385.051 92.7373 -400.172 98.8463C-433.538 112.339 -461.221 96.0471 -491.317 111.937C-499.043 116.048 -505.506 122.843 -512.592 128.641C-519.957 134.69 -532.727 139.818 -535.426 135.999" stroke="#B9BABD" stroke-linecap="round" stroke-linejoin="round"/>
<path d="M772.061 -133.483C736.427 -159.155 694.434 -166.119 653.762 -158.535C625.395 -153.249 597.305 -140.505 574.075 -122.185C553.371 -105.813 535.495 -85.4989 520.756 -62.1825C494.789 -20.9118 474.167 21.6924 443.539 56.7958C433.025 68.8813 420.967 80.067 407.408 90.1671C362.581 123.574 305.892 141.052 254.718 121.4C221.641 108.685 193.984 83.3502 166.581 56.7605C153.803 44.2609 141.167 32.1641 128.499 21.2611C86.3207 -14.7644 39.523 -27.6181 -13.5426 -20.746C-58.9963 -14.8575 -88.8833 33.4367 -124.444 65.2128C-169.117 105.117 -227.769 125.381 -286.271 121.167C-314.383 119.148 -340.404 96.583 -370.323 93.8625C-386.287 92.4645 -400.785 96.6003 -414.933 100.971C-445.386 110.372 -471.304 98.8054 -498.175 113.788C-505.123 117.684 -511.053 123.778 -517.384 129.336C-523.964 135.137 -534.538 140.494 -537.465 139.392" stroke="#B9BABD" stroke-linecap="round" stroke-linejoin="round"/>
<path d="M764.689 -150.332C729.262 -175.887 687.079 -180.966 646.806 -171.313C618.804 -164.706 591.484 -150.721 569.026 -131.778C548.972 -114.827 531.65 -94.3976 516.742 -71.6348C490.622 -31.6014 469.093 10.353 439.27 45.7393C428.975 57.9856 417.286 69.4798 404.342 79.9156C360.65 115.141 305.632 135.522 253.646 118.59C219.65 107.519 191.026 82.9733 163.151 56.5615C150.302 44.3186 137.69 32.1361 125.061 20.9219C83.4498 -15.7973 35.5582 -36.2626 -16.8885 -29.6091C-66.2674 -23.3459 -98.5285 28.1323 -136.81 62.5249C-184.799 105.636 -248.304 127.148 -311.355 122.707C-336.573 120.93 -361.197 103.871 -388.474 100.42C-402.952 98.6268 -416.448 100.558 -429.635 103.147C-457.15 108.545 -481.328 101.615 -504.993 115.679C-511.159 119.374 -516.56 124.754 -522.136 130.071C-527.942 135.642 -536.309 141.21 -539.46 142.84" stroke="#B9BABD" stroke-linecap="round" stroke-linejoin="round"/>
<path d="M757.322 -167.209C722.116 -192.652 679.742 -195.735 639.839 -184.115C612.219 -176.129 585.652 -160.962 563.952 -141.391C544.548 -123.862 527.775 -103.332 512.702 -81.1076C486.444 -42.3156 463.994 -1.00686 434.985 34.6917C424.908 47.0988 413.603 58.8973 401.273 69.6687C358.757 106.749 305.378 130.025 252.558 115.789C217.664 106.388 188.047 82.5904 159.7 56.3566C146.793 44.3662 134.18 32.1211 121.592 20.5956C80.547 -16.8174 31.3491 -47.9476 -20.2809 -38.4554C-73.1428 -28.733 -108.21 22.826 -149.208 59.8497C-200.523 106.187 -268.852 128.765 -336.456 124.256C-358.787 122.691 -382.022 111.172 -406.646 106.972C-419.623 104.779 -432.115 104.569 -444.358 105.317C-468.933 106.837 -491.388 104.422 -511.817 117.56C-517.191 121.036 -522.07 125.734 -526.89 130.811C-531.927 136.137 -538.082 141.931 -541.447 146.274" stroke="#B9BABD" stroke-linecap="round" stroke-linejoin="round"/>
<path d="M749.953 -184.079C690.835 -226.857 610.145 -200.529 558.876 -150.997C507.607 -101.466 475.169 -33.1467 430.674 23.6262C386.175 80.3844 320.376 127.821 251.44 112.955C199.526 101.769 158.562 58.3622 118.079 20.2407C77.5964 -17.8807 28.1694 -54.5237 -23.7171 -47.33C-80.9018 -39.4136 -117.945 17.5101 -161.664 57.1502C-216.294 106.695 -289.483 130.554 -361.631 125.785C-421.611 121.821 -504.518 72.6063 -543.518 149.706" stroke="#B9BABD" stroke-linecap="round" stroke-linejoin="round"/>
<path d="M745.348 -193.976C680.126 -238.256 593.069 -209.646 538.75 -154.517C490.256 -105.294 458.67 -39.2643 414.929 15.1516C369.888 71.2067 303.278 113.481 235.401 96.5051C183.772 83.3763 142.352 41.5807 100.941 9.81355C59.9474 -21.6426 13.4348 -51.0037 -35.901 -40.4715C-89.9812 -28.9274 -126.311 26.8039 -170.012 64.7961C-223.763 111.523 -294.801 132.417 -364.704 127.138C-423.235 122.647 -511.805 72.55 -546.327 152.013" stroke="#B9BABD" stroke-linecap="round" stroke-linejoin="round"/>
<path d="M740.749 -203.866C669.424 -249.649 575.936 -218.866 518.616 -158.025C472.717 -109.299 442.105 -45.4028 399.165 6.70673C353.548 62.0522 286.099 99.4088 219.343 80.0851C167.94 65.2036 126.317 24.9016 83.779 -0.598636C42.4566 -25.3608 -1.29796 -47.4915 -48.1085 -33.598C-99.0669 -18.4783 -134.693 36.1421 -178.384 72.457C-231.232 116.391 -300.143 134.296 -367.791 128.488C-424.853 123.48 -519.1 72.5047 -549.154 154.302" stroke="#B9BABD" stroke-linecap="round" stroke-linejoin="round"/>
<path d="M736.151 -213.763C658.722 -261.049 558.728 -228.198 498.501 -161.53C455.076 -113.456 425.56 -51.5377 383.415 -1.74915C337.201 52.8613 268.958 85.1773 203.281 63.6437C152.13 46.8757 110.514 8.19883 66.6031 -11.0136C25.1905 -29.132 -16.0383 -44.0156 -60.3301 -26.7273C-108.142 -8.05488 -143.07 45.488 -186.77 80.1151C-238.697 121.267 -305.499 136.171 -370.902 129.853C-426.514 124.318 -526.425 72.4607 -552.02 156.611" stroke="#B9BABD" stroke-linecap="round" stroke-linejoin="round"/>
<path d="M731.564 -223.668C648.032 -272.457 541.418 -237.665 478.379 -165.053C437.314 -117.759 408.967 -57.7272 367.678 -10.2132C320.847 43.6517 251.85 70.9 187.25 47.2046C136.348 28.5354 94.9803 -8.61464 49.4688 -21.445C8.20589 -33.0808 -30.7348 -40.604 -72.5209 -19.8542C-117.201 2.31227 -151.383 54.8429 -195.139 87.7797C-246.108 126.171 -310.838 138.054 -373.997 131.225C-428.155 125.178 -533.729 72.4377 -554.851 158.937" stroke="#B9BABD" stroke-linecap="round" stroke-linejoin="round"/>
<path d="M726.963 -233.558C637.342 -283.854 523.988 -247.214 458.257 -168.566C419.45 -122.133 392.354 -63.9166 351.922 -18.6771C304.451 34.4169 234.715 56.5935 171.2 30.7656C120.557 10.1767 79.636 -25.6437 32.3194 -31.8615C-8.63708 -37.2476 -45.4542 -37.207 -84.7159 -12.985C-126.259 12.642 -159.697 64.2086 -203.499 95.4362C-253.501 131.096 -316.167 139.928 -377.071 132.571C-429.775 126.01 -541.016 72.3734 -557.665 161.221" stroke="#B9BABD" stroke-linecap="round" stroke-linejoin="round"/>
<path d="M722.358 -243.458C626.634 -295.257 506.42 -256.909 438.116 -172.084C401.47 -126.58 375.705 -70.1217 336.147 -27.1462C288.013 25.1517 217.587 42.2591 155.127 14.3069C104.768 -8.22472 64.3347 -43.0266 15.1286 -42.3084C-25.4395 -41.7202 -60.2273 -33.8845 -96.9524 -6.14625C-135.374 22.8827 -168.043 73.5732 -211.899 103.062C-260.897 136.011 -321.549 141.901 -380.197 133.904C-431.452 126.927 -548.351 72.312 -560.528 163.509" stroke="#B9BABD" stroke-linecap="round" stroke-linejoin="round"/>
<path d="M717.758 -253.349C615.931 -306.651 488.686 -266.706 418 -175.582C383.468 -131.059 359.053 -76.3479 320.416 -35.5857C271.586 15.9095 200.508 27.9209 139.102 -2.10765C89.0044 -26.6072 49.0208 -60.6963 -1.99607 -52.7005C-42.2343 -46.4062 -74.9652 -30.5617 -109.123 0.747399C-144.465 33.1424 -176.282 83.0285 -220.234 110.743C-268.219 141.011 -326.858 143.785 -383.256 135.293C-433.062 127.789 -555.625 72.2909 -563.342 165.84" stroke="#B9BABD" stroke-linecap="round" stroke-linejoin="round"/>
<path d="M713.157 -263.265C605.226 -318.07 470.754 -276.664 397.863 -179.117C365.352 -135.626 342.361 -82.6207 304.644 -44.0718C255.092 6.58067 183.405 13.5318 123.037 -18.5689C73.2303 -45.0444 34.658 -73.916 -19.1605 -63.1393C-60.1052 -54.9435 -89.7803 -27.3069 -121.333 7.59428C-153.637 43.3194 -184.556 92.4519 -228.604 118.392C-275.551 146.019 -332.183 145.537 -386.352 136.649C-434.684 128.532 -562.93 72.2523 -566.178 168.136" stroke="#B9BABD" stroke-linecap="round" stroke-linejoin="round"/>
<path d="M708.571 -273.159C594.537 -329.468 452.642 -286.735 377.756 -182.634C347.229 -140.197 325.677 -88.9007 288.904 -52.5398C238.601 -2.77001 166.338 -0.872372 107.002 -35.0119C57.5118 -63.4863 17.7458 -96.8457 -36.2985 -73.5746C-76.3394 -56.3404 -104.632 -24.0469 -133.531 14.4488C-162.827 53.5121 -192.788 101.937 -236.971 126.02C-282.866 151.049 -337.519 147.382 -389.429 137.98C-436.311 129.335 -570.22 72.1733 -568.992 170.421" stroke="#B9BABD" stroke-linecap="round" stroke-linejoin="round"/>
<path d="M703.968 -283.059C583.826 -340.885 434.27 -296.949 357.618 -186.152C329.018 -144.801 308.938 -95.2069 273.15 -60.9982C222.052 -12.1616 149.351 -15.3875 90.9502 -51.46C41.825 -82.0416 1.75301 -115.079 -53.4645 -83.9962C-93.6854 -61.3571 -119.549 -20.7945 -145.739 21.3276C-172.093 63.716 -201.021 111.477 -245.353 133.704C-290.174 156.163 -342.872 149.284 -392.541 139.357C-437.969 130.2 -577.527 72.152 -571.844 172.737" stroke="#B9BABD" stroke-linecap="round" stroke-linejoin="round"/>
<path d="M699.368 -292.955C573.137 -352.288 415.605 -307.316 337.501 -189.656C310.766 -149.39 292.199 -101.525 257.399 -69.4538C205.464 -21.5863 132.247 -29.7084 74.9056 -67.8906C26.0648 -100.415 -14.4354 -133.287 -70.6126 -94.4191C-111.164 -66.3492 -134.492 -17.5313 -157.933 28.1904C-181.374 73.9121 -209.235 121.077 -253.711 141.355C-297.457 161.304 -348.199 151.152 -395.624 140.715C-439.602 131.031 -584.823 72.1 -574.682 175.038" stroke="#B9BABD" stroke-linecap="round" stroke-linejoin="round"/>
<path d="M722.557 -283.65C649.809 -317.271 563.824 -317.914 492.319 -286.939C437.902 -263.359 389.014 -225.67 352.58 -181.742C343.824 -171.185 335.717 -160.223 327.764 -149.446C309.404 -124.543 292.305 -99.99 267.675 -82.1049C260.319 -76.769 252.619 -72.3332 244.567 -68.8269C194.781 -47.239 133.031 -58.3429 82.4192 -87.2179C69.3046 -94.6486 56.7195 -101.878 44.3524 -107.92C9.4717 -124.986 -23.9028 -132.263 -64.838 -103.124C-92.9009 -83.0258 -113.283 -53.5518 -131.198 -22.0115C-139.262 -7.80765 -146.821 6.79374 -154.363 21.1694C-178.537 67.2676 -206.444 114.951 -249.469 138.192C-261.358 144.56 -273.76 148.732 -286.451 151.405C-307.404 155.794 -329.178 155.955 -351.361 153.954C-363.753 152.848 -376.229 150.754 -388.572 148.228C-407.346 144.384 -440.987 131.746 -473.866 124.489C-524.096 113.391 -574.968 113.685 -573.082 173.348" stroke="#B9BABD" stroke-linecap="round" stroke-linejoin="round"/>
<path d="M745.769 -274.332C672.53 -307.612 583.053 -309.057 512.031 -275.594C457 -249.664 407.232 -211.385 367.675 -173.78C358.254 -164.824 349.386 -155.816 340.698 -147.126C320.813 -127.221 302.967 -108.115 277.959 -94.7384C270.514 -90.7522 262.763 -87.4714 254.647 -85.0532C204.185 -70.0234 141.905 -81.7864 89.936 -106.542C76.4363 -112.966 63.3844 -118.913 50.6515 -123.764C15.0486 -137.329 -18.8169 -141.469 -59.0599 -111.826C-87.254 -91.0597 -108.212 -61.2685 -126.749 -29.4615C-135.098 -15.1471 -142.963 -0.397759 -150.774 14.1471C-175.672 60.6031 -203.57 108.947 -245.219 135.046C-256.653 142.205 -268.597 147.293 -280.768 151.101C-300.967 157.414 -321.937 159.912 -343.86 159.767C-356.301 159.685 -368.955 158.145 -381.531 155.747C-401.579 151.924 -435.236 138.311 -467.541 129.932C-517.53 116.966 -569.145 114.227 -571.486 171.632" stroke="#B9BABD" stroke-linecap="round" stroke-linejoin="round"/>
<path d="M768.954 -265.033C695.225 -297.972 602.268 -300.177 531.712 -264.283C476.075 -235.975 425.531 -197.133 382.739 -165.853C372.684 -158.507 363.073 -151.441 353.62 -144.831C332.348 -129.943 313.635 -116.254 288.235 -107.381C280.715 -104.749 272.899 -102.619 264.724 -101.274C213.544 -92.8382 150.708 -105.127 97.4494 -125.861C83.5499 -131.274 70.0751 -135.951 56.9471 -139.603C20.666 -149.678 -13.6958 -150.585 -53.2855 -120.522C-81.5945 -99.0294 -103.141 -68.9649 -122.318 -36.902C-130.963 -22.4583 -139.113 -7.5984 -147.2 7.14907C-172.816 53.9776 -200.744 102.899 -240.984 131.925C-251.97 139.845 -263.447 145.878 -275.084 150.818C-294.526 159.07 -314.713 163.942 -336.339 165.61C-348.854 166.575 -361.643 165.578 -374.471 163.297C-395.778 159.491 -429.471 144.892 -461.208 135.424C-510.959 120.576 -563.31 114.834 -569.878 169.98" stroke="#B9BABD" stroke-linecap="round" stroke-linejoin="round"/>
<path d="M792.154 -255.708C717.934 -288.307 621.523 -291.231 551.426 -252.936C495.191 -222.219 443.996 -182.818 397.832 -157.903C387.176 -152.16 376.87 -147.036 366.557 -142.509C344.034 -132.599 324.351 -124.36 298.506 -120.009C290.913 -118.73 283.027 -117.765 274.796 -117.479C222.868 -115.692 159.481 -128.429 104.944 -145.161C90.6484 -149.548 76.7426 -152.984 63.2235 -155.422C26.2813 -162.061 -8.58966 -159.667 -47.5302 -129.2C-75.9396 -106.984 -98.0926 -76.6568 -117.905 -44.3231C-126.836 -29.7689 -135.293 -14.761 -143.65 0.155667C-169.988 47.342 -197.939 96.807 -236.776 128.794C-247.315 137.474 -258.321 144.467 -269.442 150.528C-288.137 160.738 -307.541 167.984 -328.865 171.433C-341.449 173.46 -354.391 172.995 -367.457 170.827C-390.03 167.07 -423.745 151.42 -454.925 140.881C-504.427 124.131 -557.544 115.395 -568.324 168.278" stroke="#B9BABD" stroke-linecap="round" stroke-linejoin="round"/>
<path d="M815.358 -246.413C740.634 -278.666 640.792 -282.284 571.127 -241.629C514.317 -208.478 462.543 -168.427 412.931 -149.983C401.7 -145.803 390.718 -142.608 379.499 -140.216C355.869 -135.166 335.085 -132.451 308.802 -132.654C301.139 -132.715 293.16 -132.941 284.888 -133.718C232.18 -138.634 168.278 -151.749 112.477 -164.483C97.7712 -167.84 83.4596 -170.059 69.5429 -171.249C31.961 -174.488 -3.42181 -168.747 -41.7319 -137.885C-70.2375 -114.931 -92.9973 -84.3415 -113.454 -51.7665C-122.681 -37.083 -131.438 -21.9606 -140.056 -6.84532C-167.127 40.7176 -195.106 90.7114 -232.506 125.666C-242.597 135.107 -253.147 143.064 -263.734 150.257C-281.664 162.434 -300.292 172.088 -321.325 177.273C-333.971 180.391 -347.07 180.444 -360.362 178.37C-384.201 174.663 -417.939 157.961 -448.542 146.363C-497.79 127.678 -551.659 115.99 -566.667 166.614" stroke="#B9BABD" stroke-linecap="round" stroke-linejoin="round"/>
<path d="M838.552 -237.109C763.333 -269.036 660.073 -273.304 590.821 -230.299C533.433 -194.666 481.145 -153.904 428.003 -142.051C416.217 -139.423 404.561 -138.095 392.429 -137.916C367.727 -137.545 345.812 -140.52 319.083 -145.307C311.353 -146.692 303.289 -148.142 294.983 -149.952C241.509 -161.639 177.068 -175.047 120.009 -183.815C104.893 -186.143 90.1717 -187.158 75.8573 -187.101C37.6421 -186.974 1.7451 -177.837 -35.9387 -146.595C-64.5217 -122.893 -87.8964 -92.0706 -109.004 -59.2208C-118.512 -44.4122 -127.57 -29.1751 -136.467 -13.8719C-164.257 34.0634 -192.297 84.5796 -228.256 122.516C-237.919 132.707 -247.975 141.649 -258.05 149.949C-275.214 164.095 -293.072 176.189 -313.804 183.092C-326.522 187.32 -339.783 187.875 -353.301 185.895C-378.407 182.239 -412.171 164.469 -442.213 151.816C-491.21 131.182 -545.847 116.547 -565.062 164.923" stroke="#B9BABD" stroke-linecap="round" stroke-linejoin="round"/>
<path d="M861.743 -227.793C786.034 -259.379 679.363 -264.268 610.522 -218.976C552.586 -180.869 499.751 -139.229 443.087 -134.111C430.739 -133.002 418.387 -133.504 405.357 -135.603C379.507 -139.78 356.518 -148.524 329.364 -157.932C321.553 -160.638 313.418 -163.317 305.061 -166.171C250.856 -184.669 185.844 -198.314 127.524 -203.132C112.001 -204.415 96.8806 -204.246 82.154 -202.938C43.2787 -199.484 6.90892 -186.914 -30.1631 -155.289C-58.8384 -130.835 -82.828 -99.7794 -104.572 -66.6589C-114.38 -51.7356 -123.729 -36.3547 -132.892 -20.8676C-161.404 27.4256 -189.52 78.4682 -224.023 119.382C-233.243 130.32 -242.805 140.247 -252.384 149.657C-268.775 165.801 -285.848 180.332 -306.32 188.916C-319.092 194.265 -332.517 195.308 -346.277 193.427C-372.659 189.839 -406.41 170.976 -435.902 157.285C-484.622 134.68 -540.033 117.131 -563.48 163.233" stroke="#B9BABD" stroke-linecap="round" stroke-linejoin="round"/>
<path d="M884.955 -218.489C808.756 -249.734 698.712 -255.223 630.23 -207.66C571.758 -167.036 518.315 -124.454 458.175 -126.193C445.243 -126.566 432.166 -128.889 418.288 -133.313C391.215 -141.97 367.198 -156.543 339.644 -170.595C331.757 -174.606 323.566 -178.518 315.142 -182.412C260.228 -207.759 194.628 -221.589 135.042 -222.471C119.113 -222.71 103.57 -221.381 88.4542 -218.796C48.9253 -212.051 12.0844 -195.986 -24.3882 -164.021C-53.1369 -138.804 -77.756 -107.511 -100.14 -74.1343C-110.229 -59.0859 -119.894 -43.5862 -129.321 -27.9152C-158.552 20.7504 -186.748 72.3047 -219.776 116.208C-228.567 127.896 -237.636 138.807 -246.7 149.339C-262.306 167.461 -278.597 184.477 -298.803 194.71C-311.624 201.194 -325.219 202.71 -339.221 200.927C-366.879 197.408 -400.624 177.422 -429.576 162.713C-478.014 138.102 -534.224 117.663 -561.894 161.521" stroke="#B9BABD" stroke-linecap="round" stroke-linejoin="round"/>
<path d="M908.142 -209.186C831.452 -240.09 718.039 -246.163 649.917 -196.331C590.927 -153.178 536.785 -109.581 473.259 -118.251C459.729 -120.101 445.902 -124.223 431.211 -131.013C402.813 -144.121 377.857 -164.547 349.922 -183.234C341.954 -188.565 333.702 -193.723 325.22 -198.628C269.641 -230.837 203.402 -244.807 142.542 -241.782C126.207 -240.976 110.242 -238.488 94.7364 -234.627C54.5313 -224.613 17.242 -205.028 -18.627 -172.709C-47.4344 -146.734 -72.7019 -115.214 -95.7221 -81.5664C-106.107 -66.3887 -116.053 -50.7638 -125.76 -34.9049C-155.725 14.1373 -183.993 66.17 -215.554 113.095C-223.921 125.518 -232.473 137.44 -241.029 149.064C-255.847 169.179 -271.327 188.673 -291.296 200.561C-304.144 208.206 -317.945 210.174 -332.174 208.486C-361.09 205.046 -394.834 183.922 -423.256 168.214C-471.396 141.593 -528.407 118.263 -560.303 159.862" stroke="#B9BABD" stroke-linecap="round" stroke-linejoin="round"/>
<path d="M931.353 -199.871C854.174 -230.435 737.51 -236.951 669.639 -185.008C610.246 -139.201 555.211 -94.6621 488.361 -110.327C474.221 -113.635 459.618 -119.596 444.17 -128.719C414.375 -146.307 388.475 -172.491 360.231 -195.894C352.157 -202.523 343.889 -208.94 335.34 -214.885C279.121 -253.978 212.257 -267.98 150.098 -261.136C133.355 -259.239 116.967 -255.654 101.08 -250.487C60.1647 -237.212 22.5059 -214.05 -12.805 -181.427C-41.6403 -154.638 -67.5829 -122.931 -91.2433 -89.0282C-101.914 -73.74 -112.171 -57.9818 -122.143 -41.939C-152.83 7.46105 -181.263 59.9817 -211.279 109.923C-219.236 123.086 -227.238 136.025 -235.321 148.734C-249.294 170.875 -264.015 192.828 -283.755 206.343C-296.615 215.144 -310.63 217.598 -325.093 215.975C-355.284 212.666 -389.009 190.352 -416.892 173.626C-464.713 144.959 -522.555 118.794 -558.663 158.13" stroke="#B9BABD" stroke-linecap="round" stroke-linejoin="round"/>
<path d="M954.543 -190.569C876.858 -220.787 756.782 -227.987 689.328 -173.68C616.742 -115.251 550.206 -60.5967 457.086 -126.401C416.945 -154.776 384.305 -199.616 345.391 -231.094C273.222 -289.471 183.719 -296.612 107.365 -266.317C31.0104 -236.023 -33.392 -171.597 -86.8079 -96.4651C-140.238 -21.3295 -183.863 64.8689 -229.633 148.454C-242.826 172.559 -256.69 197.039 -276.249 212.179C-316.64 243.459 -370.399 205.091 -410.573 179.111C-458.061 148.393 -516.738 119.379 -557.074 156.456" stroke="#B9BABD" stroke-linecap="round" stroke-linejoin="round"/>
</svg>
