<svg width="20" height="20" viewBox="0 0 20 20" fill="none" xmlns="http://www.w3.org/2000/svg">
<g id="vuesax/outline/notification-status">
<g id="notification-status">
<path id="Vector" d="M15.834 7.28906C14.109 7.28906 12.709 5.88906 12.709 4.16406C12.709 2.43906 14.109 1.03906 15.834 1.03906C17.559 1.03906 18.959 2.43906 18.959 4.16406C18.959 5.88906 17.559 7.28906 15.834 7.28906ZM15.834 2.28906C14.8007 2.28906 13.959 3.13073 13.959 4.16406C13.959 5.1974 14.8007 6.03906 15.834 6.03906C16.8673 6.03906 17.709 5.1974 17.709 4.16406C17.709 3.13073 16.8673 2.28906 15.834 2.28906Z" fill="#46474E"/>
<path id="Vector_2" d="M10.0007 11.4609H5.83398C5.49232 11.4609 5.20898 11.1776 5.20898 10.8359C5.20898 10.4943 5.49232 10.2109 5.83398 10.2109H10.0007C10.3423 10.2109 10.6257 10.4943 10.6257 10.8359C10.6257 11.1776 10.3423 11.4609 10.0007 11.4609Z" fill="#46474E"/>
<path id="Vector_3" d="M13.334 14.7891H5.83398C5.49232 14.7891 5.20898 14.5057 5.20898 14.1641C5.20898 13.8224 5.49232 13.5391 5.83398 13.5391H13.334C13.6757 13.5391 13.959 13.8224 13.959 14.1641C13.959 14.5057 13.6757 14.7891 13.334 14.7891Z" fill="#46474E"/>
<path id="Vector_4" d="M12.4993 18.9557H7.49935C2.97435 18.9557 1.04102 17.0224 1.04102 12.4974V7.4974C1.04102 2.9724 2.97435 1.03906 7.49935 1.03906H11.666C12.0077 1.03906 12.291 1.3224 12.291 1.66406C12.291 2.00573 12.0077 2.28906 11.666 2.28906H7.49935C3.65768 2.28906 2.29102 3.65573 2.29102 7.4974V12.4974C2.29102 16.3391 3.65768 17.7057 7.49935 17.7057H12.4993C16.341 17.7057 17.7077 16.3391 17.7077 12.4974V8.33073C17.7077 7.98906 17.991 7.70573 18.3327 7.70573C18.6744 7.70573 18.9577 7.98906 18.9577 8.33073V12.4974C18.9577 17.0224 17.0243 18.9557 12.4993 18.9557Z" fill="#46474E"/>
</g>
</g>
</svg>
