<svg width="24" height="24" viewBox="0 0 24 24" fill="none" xmlns="http://www.w3.org/2000/svg">
<g id="vuesax/outline/card-pos">
<g id="card-pos">
<path id="Vector" d="M3.92914 16.6272C3.73914 16.6272 3.54914 16.5572 3.39914 16.4072C3.10914 16.1172 3.10914 15.6372 3.39914 15.3472L15.3491 3.39719C15.6391 3.10719 16.1191 3.10719 16.4091 3.39719C16.6991 3.68719 16.6991 4.16719 16.4091 4.45719L4.45914 16.4172C4.31914 16.5572 4.11914 16.6272 3.92914 16.6272Z" fill="#FFA469"/>
<path id="Vector_2" d="M11.0991 19.0334C10.9091 19.0334 10.7191 18.9634 10.5691 18.8134C10.2791 18.5234 10.2791 18.0434 10.5691 17.7534L11.7691 16.5534C12.0591 16.2634 12.5391 16.2634 12.8291 16.5534C13.1191 16.8434 13.1191 17.3234 12.8291 17.6134L11.6291 18.8134C11.4891 18.9534 11.2991 19.0334 11.0991 19.0334Z" fill="#FFA469"/>
<path id="Vector_3" d="M13.7905 16.3406C13.6005 16.3406 13.4105 16.2706 13.2605 16.1206C12.9705 15.8306 12.9705 15.3506 13.2605 15.0606L15.6505 12.6706C15.9405 12.3806 16.4205 12.3806 16.7105 12.6706C17.0005 12.9606 17.0005 13.4406 16.7105 13.7306L14.3205 16.1206C14.1805 16.2606 13.9805 16.3406 13.7905 16.3406Z" fill="#FFA469"/>
<path id="Vector_4" d="M11.1009 22.7528C10.1209 22.7528 9.14089 22.1528 7.95089 20.9628L3.04089 16.0528C0.650891 13.6628 0.660891 12.1228 3.07089 9.71284L9.71089 3.07284C12.1209 0.662844 13.6609 0.652844 16.0509 3.04284L20.9609 7.95284C23.3509 10.3428 23.3409 11.8828 20.9309 14.2928L14.2909 20.9328C13.0809 22.1428 12.0909 22.7528 11.1009 22.7528ZM12.9009 2.75284C12.3809 2.75284 11.7209 3.18284 10.7709 4.13284L4.13089 10.7728C3.18089 11.7228 2.75089 12.3828 2.75089 12.8928C2.75089 13.4128 3.15089 14.0428 4.10089 14.9928L9.01089 19.9028C9.96089 20.8528 10.5809 21.2528 11.1009 21.2528C11.1009 21.2528 11.1009 21.2528 11.1109 21.2528C11.6309 21.2528 12.2809 20.8228 13.2309 19.8728L19.8709 13.2328C20.8209 12.2828 21.2509 11.6228 21.2509 11.1128C21.2509 10.5928 20.8509 9.96284 19.9009 9.01284L14.9909 4.10284C14.0509 3.15284 13.4209 2.75284 12.9009 2.75284Z" fill="#FFA469"/>
<path id="Vector_5" d="M22 22.75H2C1.59 22.75 1.25 22.41 1.25 22C1.25 21.59 1.59 21.25 2 21.25H22C22.41 21.25 22.75 21.59 22.75 22C22.75 22.41 22.41 22.75 22 22.75Z" fill="#FFA469"/>
</g>
</g>
</svg>
