<svg width="20" height="20" viewBox="0 0 20 20" fill="none" xmlns="http://www.w3.org/2000/svg">
<g id="vuesax/outline/star">
<g id="star">
<path id="Vector" d="M14.7161 18.8932C14.2744 18.8932 13.7078 18.7516 12.9994 18.3349L10.5078 16.8599C10.2494 16.7099 9.74945 16.7099 9.49945 16.8599L6.99945 18.3349C5.52445 19.2099 4.65778 18.8599 4.26611 18.5766C3.88278 18.2932 3.28278 17.5682 3.67445 15.9016L4.26611 13.3432C4.33278 13.0766 4.19945 12.6182 3.99945 12.4182L1.93278 10.3516C0.899447 9.31823 0.98278 8.4349 1.12445 8.00156C1.26611 7.56823 1.71611 6.80156 3.14945 6.5599L5.80778 6.11823C6.05778 6.07656 6.41611 5.8099 6.52445 5.5849L7.99945 2.64323C8.66611 1.30156 9.54111 1.10156 9.99945 1.10156C10.4578 1.10156 11.3328 1.30156 11.9994 2.64323L13.4661 5.57656C13.5828 5.80156 13.9411 6.06823 14.1911 6.1099L16.8494 6.55156C18.2911 6.79323 18.7411 7.5599 18.8744 7.99323C19.0078 8.42656 19.0911 9.3099 18.0661 10.3432L15.9994 12.4182C15.7994 12.6182 15.6744 13.0682 15.7328 13.3432L16.3244 15.9016C16.7078 17.5682 16.1161 18.2932 15.7328 18.5766C15.5244 18.7266 15.1911 18.8932 14.7161 18.8932ZM9.99945 15.4932C10.4078 15.4932 10.8161 15.5932 11.1411 15.7849L13.6328 17.2599C14.3578 17.6932 14.8161 17.6932 14.9911 17.5682C15.1661 17.4432 15.2911 17.0016 15.1078 16.1849L14.5161 13.6266C14.3578 12.9349 14.6161 12.0432 15.1161 11.5349L17.1828 9.46823C17.5911 9.0599 17.7744 8.6599 17.6911 8.3849C17.5994 8.1099 17.2161 7.8849 16.6494 7.79323L13.9911 7.35156C13.3494 7.24323 12.6494 6.72656 12.3578 6.14323L10.8911 3.2099C10.6244 2.67656 10.2911 2.3599 9.99945 2.3599C9.70778 2.3599 9.37445 2.67656 9.11611 3.2099L7.64111 6.14323C7.34945 6.72656 6.64945 7.24323 6.00778 7.35156L3.35778 7.79323C2.79111 7.8849 2.40778 8.1099 2.31611 8.3849C2.22445 8.6599 2.41611 9.06823 2.82445 9.46823L4.89111 11.5349C5.39111 12.0349 5.64945 12.9349 5.49111 13.6266L4.89945 16.1849C4.70778 17.0099 4.84111 17.4432 5.01611 17.5682C5.19111 17.6932 5.64111 17.6849 6.37445 17.2599L8.86611 15.7849C9.18278 15.5932 9.59111 15.4932 9.99945 15.4932Z" fill="#46474E"/>
</g>
</g>
</svg>
