<svg width="50" height="51" viewBox="0 0 50 51" fill="none" xmlns="http://www.w3.org/2000/svg">
<g id="socials">
<path id="Vector" fill-rule="evenodd" clip-rule="evenodd" d="M14.0781 34.6491C13.5878 34.5041 13.1404 34.246 12.7737 33.8967C12.407 33.5474 12.1318 33.1171 11.9712 32.6422C11.0537 30.1873 10.7818 19.9368 12.5489 17.9132C13.137 17.2549 13.9674 16.8496 14.8597 16.7853C19.6003 16.2877 34.2468 16.3541 35.929 16.9512C36.4021 17.101 36.8344 17.3534 37.1934 17.6895C37.5524 18.0256 37.8288 18.4366 38.0019 18.8918C39.0044 21.4296 39.0384 30.6518 37.866 33.09C37.555 33.7247 37.0343 34.2388 36.3878 34.5496C34.6207 35.4121 16.4229 35.3955 14.0781 34.6491V34.6491ZM21.6053 29.839L30.101 25.5265L21.6053 21.1808V29.839Z" fill="white"/>
</g>
</svg>
