<svg width="50" height="51" viewBox="0 0 50 51" fill="none" xmlns="http://www.w3.org/2000/svg">
<g id="socials">
<path id="Vector" d="M34.9085 15.9062C32.439 13.4453 29.1463 12.0781 25.6707 12.0781C18.4451 12.0781 12.5915 17.9115 12.5915 25.112C12.5915 27.3906 13.2317 29.6693 14.3293 31.5833L12.5 38.3281L19.4512 36.5052C21.372 37.5078 23.4756 38.0547 25.6707 38.0547C32.8963 38.0547 38.75 32.2214 38.75 25.0208C38.6585 21.6484 37.378 18.3672 34.9085 15.9062ZM31.9817 29.7604C31.7073 30.4896 30.4268 31.2187 29.7866 31.3099C29.2378 31.401 28.5061 31.401 27.7744 31.2188C27.3171 31.0365 26.6768 30.8542 25.9451 30.4896C22.6524 29.1224 20.5488 25.8411 20.3659 25.5677C20.1829 25.3854 18.9939 23.8359 18.9939 22.1953C18.9939 20.5547 19.8171 19.8255 20.0915 19.4609C20.3659 19.0964 20.7317 19.0964 21.0061 19.0964C21.189 19.0964 21.4634 19.0964 21.6463 19.0964C21.8293 19.0964 22.1037 19.0052 22.378 19.6432C22.6524 20.2812 23.2927 21.9219 23.3841 22.013C23.4756 22.1953 23.4756 22.3776 23.3841 22.5599C23.2927 22.7422 23.2012 22.9245 23.0183 23.1068C22.8354 23.2891 22.6524 23.5625 22.561 23.6536C22.378 23.8359 22.1951 24.0182 22.378 24.2917C22.561 24.6562 23.2012 25.6589 24.2073 26.5703C25.4878 27.6641 26.4939 28.0286 26.8598 28.2109C27.2256 28.3932 27.4085 28.3021 27.5915 28.1198C27.7744 27.9375 28.4146 27.2083 28.5976 26.8438C28.7805 26.4792 29.0549 26.5703 29.3293 26.6615C29.6037 26.7526 31.25 27.5729 31.5244 27.7552C31.8902 27.9375 32.0732 28.0286 32.1646 28.1198C32.2561 28.3932 32.2561 29.0312 31.9817 29.7604Z" fill="white"/>
</g>
</svg>
