<svg width="50" height="51" viewBox="0 0 50 51" fill="none" xmlns="http://www.w3.org/2000/svg">
<g id="socials">
<path id="Vector" d="M26.2281 34.5781C16.8324 34.5781 11.4733 28.0091 11.25 17.0781H15.9564C16.111 25.1011 19.5807 28.4995 22.329 29.2002V17.0781H26.7606V23.9975C29.4745 23.6997 32.3259 20.5466 33.2878 17.0781H37.7194C37.3569 18.877 36.6344 20.5802 35.597 22.0813C34.5596 23.5823 33.2297 24.8489 31.6904 25.8018C33.4086 26.6726 34.9262 27.905 36.1431 29.4178C37.36 30.9306 38.2485 32.6894 38.75 34.5781H33.8718C33.4216 32.9376 32.5067 31.4691 31.2417 30.3567C29.9767 29.2442 28.4179 28.5372 26.7606 28.3244V34.5781H26.2281V34.5781Z" fill="white"/>
</g>
</svg>
