<svg width="201" height="144" viewBox="0 0 201 144" fill="none" xmlns="http://www.w3.org/2000/svg">
<g clip-path="url(#clip0_4732_76167)">
<path d="M40.0622 85.8259C41.0322 87.9359 37.2122 103.136 36.0222 106.246C34.8322 109.356 30.6322 126.776 28.5922 127.526C26.5522 128.276 16.6622 128.066 15.2622 127.526C13.8622 126.986 15.2622 124.016 16.8722 122.976C18.4822 121.936 20.4022 120.336 20.4022 120.336C20.4022 120.336 17.5122 93.4459 18.0522 90.4359C18.5922 87.4259 37.4522 80.1159 40.0622 85.8159V85.8259Z" fill="#FCCD82"/>
<path opacity="0.5" d="M19.3811 126.354C19.4911 125.834 19.7111 125.304 20.0311 124.864C20.3511 124.424 20.7311 124.034 21.1711 123.714C21.5711 123.414 22.0811 123.114 22.5911 123.024C22.6611 123.014 22.7111 123.094 22.6611 123.144C22.4811 123.314 22.2811 123.444 22.1111 123.624C21.9311 123.794 21.7611 123.974 21.5911 124.154C21.2611 124.504 20.9911 124.894 20.7411 125.314C20.4911 125.734 20.2611 126.154 20.0511 126.584C19.8411 127.024 19.7111 127.494 19.5411 127.954C19.5111 128.044 19.3711 128.054 19.3511 127.954C19.2311 127.434 19.2911 126.884 19.4011 126.374L19.3811 126.354Z" fill="#FFA469"/>
<path opacity="0.5" d="M16.482 124.773C17.002 123.803 17.912 123.113 18.902 122.663C18.962 122.633 19.032 122.713 18.972 122.763C18.242 123.393 17.522 124.073 17.052 124.933C16.592 125.783 16.342 126.843 16.672 127.783C16.682 127.823 16.622 127.843 16.602 127.813C15.972 126.913 15.972 125.723 16.482 124.773Z" fill="#FFA469"/>
<path opacity="0.5" d="M18.9141 105.268L32.5041 118.128C34.0041 113.198 35.4041 107.838 36.0141 106.248C37.2141 103.128 41.0241 87.9377 40.0641 85.8177C37.4541 80.1277 18.5841 87.4377 18.0541 90.4477C17.8041 91.8677 18.3041 98.5677 18.9141 105.268Z" fill="#FFA469"/>
<path d="M91.3828 101.022C91.9328 101.542 97.2828 96.4816 98.1028 94.1116C98.9228 91.7416 95.5028 85.0516 96.1328 83.9116C96.7628 82.7716 99.6828 81.8616 101.193 83.6116C102.703 85.3616 106.583 94.9516 105.773 99.0516C104.963 103.152 96.7128 112.312 95.8528 112.262C94.9928 112.212 91.3828 101.012 91.3828 101.012V101.022Z" fill="#FCCD82"/>
<path opacity="0.5" d="M91.3811 101.019C91.3811 101.019 94.9911 112.219 95.8411 112.259C96.4711 112.289 101.051 107.409 103.781 103.179L96.2911 96.8594C94.4111 99.0894 91.7511 101.369 91.3711 101.019H91.3811Z" fill="#FFA469"/>
<path d="M61.1604 54.75H16.7604C16.7604 54.75 13.4604 83.99 13.8204 87.86C14.1804 91.73 33.6904 120.4 39.7504 124.1C45.8904 127.85 80.5804 127.98 89.0404 126.12C95.6204 124.67 101.11 116.28 98.3804 103.34C97.1904 97.69 81.7704 84.21 79.6204 81.63C77.4704 79.05 61.1604 54.76 61.1604 54.76V54.75Z" fill="#C7C7C7"/>
<path d="M13.8206 87.86C14.1806 91.73 33.6906 120.4 39.7506 124.1C45.8906 127.85 80.5706 127.98 89.0406 126.12C95.6106 124.67 101.111 116.27 98.3706 103.33C97.1806 97.68 81.7706 84.2 79.6206 81.62C78.3006 80.04 71.6806 70.32 66.7406 63.02C63.6106 58.4 61.1606 54.75 61.1606 54.75H16.7606C16.7606 54.75 15.9306 62.09 15.1506 69.9C14.3706 77.68 13.6406 85.93 13.8206 87.86Z" fill="#FCCD82"/>
<path opacity="0.5" d="M15.1523 69.9C39.0123 77.26 60.2323 66.79 66.7423 63.02C63.6123 58.4 61.1623 54.75 61.1623 54.75H16.7623C16.7623 54.75 15.9323 62.09 15.1523 69.9Z" fill="#FFA469"/>
<path d="M89.8891 101.933C89.8891 101.933 77.6691 94.2628 69.0991 95.6528C60.5291 97.0428 57.5091 114.633 61.6091 124.543C61.6091 124.543 53.7891 126.863 53.7891 130.643C53.7891 132.793 58.2591 133.483 64.6991 133.323C71.1491 133.173 83.9591 133.043 84.2391 131.423C84.5191 129.803 83.3991 127.573 83.3991 127.573C83.3991 127.573 94.9691 126.273 97.2391 118.613C99.5091 110.953 91.8191 103.243 89.8891 101.943V101.933Z" fill="#FCCD82"/>
<path opacity="0.5" d="M73.1997 125.404C76.4397 126.794 79.9797 127.464 83.4897 127.694C83.5597 127.694 83.5797 127.814 83.4997 127.814C79.8697 128.224 76.3097 127.314 73.1597 125.484C73.1097 125.454 73.1497 125.374 73.1997 125.394V125.404Z" fill="#FFA469"/>
<path opacity="0.5" d="M58.8086 133.36C59.1286 131.9 60.2686 130.74 61.4686 129.92C62.1686 129.44 62.9286 129.06 63.7286 128.78C64.6386 128.47 65.5986 128.3 66.5186 128.01C66.5986 127.99 66.6486 128.1 66.5686 128.12C65.7786 128.39 65.0086 128.79 64.2686 129.18C63.5286 129.57 62.7986 130 62.1086 130.47C60.9086 131.29 59.9986 132.34 59.1186 133.47C59.0286 133.59 58.7786 133.53 58.8186 133.36H58.8086Z" fill="#FFA469"/>
<path opacity="0.5" d="M60.4003 127.298C60.4803 127.288 60.5103 127.398 60.4303 127.418C58.0703 128.288 56.1803 130.368 55.1703 132.638C55.1303 132.738 54.9503 132.738 54.9703 132.608C55.2803 129.798 57.6703 127.698 60.4103 127.298H60.4003Z" fill="#FFA469"/>
<path opacity="0.5" d="M56.582 126.741C56.582 126.741 56.602 126.801 56.632 126.791C56.832 126.751 59.022 125.281 61.442 124.581C61.642 124.931 61.852 125.281 62.082 125.621C62.122 125.691 62.232 125.631 62.192 125.561C60.672 122.511 60.062 119.071 60.052 115.681C60.052 113.881 60.182 112.061 60.372 110.271C60.372 110.261 60.372 110.251 60.372 110.241C60.832 107.081 61.742 103.991 63.272 101.221C64.202 99.5008 65.402 97.8408 67.042 96.8808C68.682 95.9308 70.732 95.7808 72.692 95.8608C74.682 95.9608 76.662 96.3908 78.592 96.9508C80.532 97.4808 82.442 98.1808 84.312 98.9708C80.742 97.0508 76.872 95.5408 72.752 95.1008C70.702 94.9008 68.512 95.0408 66.592 96.0908C64.692 97.1808 63.402 98.9408 62.392 100.731C60.452 104.411 59.492 108.511 59.322 112.611C59.302 113.081 59.282 113.561 59.282 114.031V114.051C59.252 114.681 59.242 115.301 59.262 115.931C59.342 118.891 59.942 121.861 61.372 124.461C59.202 124.901 57.942 125.521 56.582 126.741Z" fill="#FFA469"/>
<path d="M54.4099 89.5759C55.3799 91.6859 51.5599 106.886 50.3699 109.996C49.1799 113.106 44.9799 130.526 42.9399 131.276C40.8999 132.026 31.0099 131.816 29.6099 131.276C28.2099 130.736 29.6099 127.766 31.2199 126.726C32.8299 125.686 34.7499 124.086 34.7499 124.086C34.7499 124.086 31.8599 97.1959 32.3999 94.1859C32.9399 91.1759 51.7999 83.8659 54.4099 89.5659V89.5759Z" fill="#FCCD82"/>
<path opacity="0.5" d="M47.7403 118.434C48.6503 115.694 49.8403 113.044 50.7503 110.304C50.7903 110.194 50.9603 110.244 50.9303 110.354C50.2303 112.554 49.6903 114.814 49.0403 117.034C49.1403 116.884 49.2203 116.734 49.3203 116.584C49.8903 115.704 50.6003 114.834 50.8903 113.814C50.9203 113.704 51.1003 113.754 51.0703 113.864C50.9403 114.344 50.7103 114.764 50.4803 115.204C50.2203 115.694 49.9503 116.184 49.6903 116.674C49.3503 117.314 48.9703 117.934 48.5903 118.544C48.5803 118.584 48.5703 118.634 48.5503 118.674C47.6403 121.424 46.7303 124.154 45.5203 126.794C45.4603 126.934 45.2503 126.874 45.2803 126.724C45.9103 123.904 46.8403 121.184 47.7503 118.434H47.7403Z" fill="#FFA469"/>
<path opacity="0.1" d="M32.0192 98.4919C32.0192 98.4319 32.1292 98.4119 32.1392 98.4819C32.4292 100.522 32.5492 102.582 32.7592 104.632C32.9692 106.762 33.2292 108.882 33.4692 111.012C33.9392 115.242 34.6392 119.462 34.9792 123.702C34.9892 123.882 34.6692 123.902 34.6292 123.732C33.5092 119.642 33.0192 115.432 32.5792 111.252C32.3592 109.172 32.2292 107.092 32.1292 105.012C32.0192 102.852 31.8992 100.662 32.0292 98.5019L32.0192 98.4919Z" fill="#46474E"/>
<path opacity="0.5" d="M33.2405 129.893C33.3505 129.363 33.5705 128.843 33.8905 128.403C34.2105 127.963 34.5905 127.573 35.0305 127.253C35.4305 126.953 35.9405 126.653 36.4505 126.563C36.5205 126.553 36.5705 126.633 36.5205 126.683C36.3405 126.853 36.1405 126.983 35.9705 127.163C35.7905 127.333 35.6205 127.513 35.4505 127.693C35.1205 128.043 34.8505 128.433 34.6005 128.853C34.3505 129.273 34.1205 129.693 33.9105 130.123C33.7005 130.563 33.5705 131.033 33.4005 131.493C33.3705 131.583 33.2305 131.593 33.2105 131.493C33.0905 130.973 33.1505 130.433 33.2605 129.913L33.2405 129.893Z" fill="#FFA469"/>
<path opacity="0.5" d="M30.3492 128.312C30.8692 127.342 31.7792 126.652 32.7692 126.202C32.8292 126.172 32.8992 126.252 32.8392 126.302C32.1092 126.932 31.3892 127.612 30.9192 128.472C30.4592 129.322 30.2092 130.382 30.5392 131.322C30.5492 131.362 30.4892 131.382 30.4692 131.352C29.8392 130.452 29.8292 129.262 30.3492 128.312Z" fill="#FFA469"/>
<path d="M33.7508 14.1003C34.2308 12.3503 29.8508 6.1403 28.1808 4.0503C26.5108 1.9603 17.3208 -1.1597 14.3908 0.440304C13.2408 1.0703 11.1008 5.4903 8.2108 9.3203C3.7308 15.2603 -1.4992 21.4903 0.400799 23.1703C5.0108 27.2403 15.5108 20.8203 18.9208 18.6703C22.3308 16.5103 25.4508 13.8903 26.2808 13.9903C27.3808 14.1103 29.6808 15.8503 30.6008 15.9503C32.7908 16.1903 33.7508 14.1103 33.7508 14.1103V14.1003Z" fill="#FCCD82"/>
<path opacity="0.5" d="M33.7508 14.1003C34.2308 12.3503 29.8508 6.1403 28.1808 4.0503C26.5108 1.9603 17.3208 -1.1597 14.3908 0.440304C13.2408 1.0703 11.1008 5.4903 8.2108 9.3203C3.7308 15.2603 -1.4992 21.4903 0.400799 23.1703C5.0108 27.2403 15.5108 20.8203 18.9208 18.6703C22.3308 16.5103 25.4508 13.8903 26.2808 13.9903C27.3808 14.1103 29.6808 15.8503 30.6008 15.9503C32.7908 16.1903 33.7508 14.1103 33.7508 14.1103V14.1003Z" fill="#FFA469"/>
<path d="M54.9318 7.89472C65.6618 14.3047 70.4218 31.3747 70.7118 34.1047C70.9518 36.3347 76.0618 44.2047 75.1518 52.6747C74.5618 58.1247 64.7818 65.3547 56.8218 65.2847C55.3618 65.2747 42.9618 69.7647 32.5018 69.0447C22.0418 68.3247 14.1118 60.8947 13.8018 60.2647C13.4918 59.6347 5.01178 58.4047 4.48178 49.6647C3.63178 35.7047 17.8818 11.9047 21.9618 8.65472C28.7118 3.27472 47.6518 3.54472 54.9418 7.90472L54.9318 7.89472Z" fill="#FCCD82"/>
<path d="M49.8808 15.251C49.6708 13.351 55.2508 7.64101 57.3208 5.75101C59.4008 3.86101 69.4608 2.14101 72.2408 4.30101C73.3308 5.15101 74.8208 10.081 77.1808 14.541C80.8308 21.441 85.2308 28.771 82.9808 30.201C77.5208 33.661 67.6908 25.251 64.5108 22.451C61.3308 19.651 58.5308 16.411 57.6608 16.371C56.5008 16.311 53.8208 17.731 52.8508 17.691C50.5308 17.581 49.8808 15.261 49.8808 15.261V15.251Z" fill="#FCCD82"/>
<path opacity="0.5" d="M49.8808 15.251C49.6708 13.351 55.2508 7.64101 57.3208 5.75101C59.4008 3.86101 69.4608 2.14101 72.2408 4.30101C73.3308 5.15101 74.8208 10.081 77.1808 14.541C80.8308 21.441 85.2308 28.771 82.9808 30.201C77.5208 33.661 67.6908 25.251 64.5108 22.451C61.3308 19.651 58.5308 16.411 57.6608 16.371C56.5008 16.311 53.8208 17.731 52.8508 17.691C50.5308 17.581 49.8808 15.261 49.8808 15.261V15.251Z" fill="#FFA469"/>
<path opacity="0.5" d="M30.2813 39.2212C36.8613 39.2812 39.8613 46.3312 40.6513 48.1612C41.4413 50.0012 45.5013 54.2012 45.6113 58.5912C45.7213 62.9812 37.3813 67.8912 28.5713 66.3312C19.8113 64.7912 15.1613 59.8512 15.2113 55.3812C15.2513 51.7912 18.6413 48.6812 19.0113 47.7412C19.3813 46.7912 24.2813 39.1612 30.2813 39.2112V39.2212Z" fill="#FFA469"/>
<path opacity="0.5" d="M46.4592 51.6016C47.3392 52.6016 48.0792 53.7116 48.6692 54.9116C49.2692 56.1116 49.7292 57.3816 49.9592 58.7316C50.1692 60.0716 50.1592 61.5416 49.5292 62.8316C49.2292 63.4716 48.7792 64.0316 48.2492 64.4816C47.6992 64.9016 47.0892 65.2116 46.4592 65.4016C47.5592 64.6616 48.4292 63.6916 48.8092 62.5316C49.2092 61.3816 49.1792 60.1216 48.9692 58.8916C48.7792 57.6516 48.3792 56.4316 47.9492 55.2216C47.4992 54.0116 46.9992 52.8116 46.4492 51.6016H46.4592Z" fill="#FFA469"/>
<path opacity="0.5" d="M16.311 48.9688C15.741 49.6787 15.201 50.3587 14.701 51.0687C14.221 51.7787 13.741 52.4887 13.431 53.2487C13.091 53.9987 12.891 54.7887 12.851 55.6087C12.811 56.4387 13.041 57.2487 13.311 58.1187C12.691 57.4787 12.181 56.6187 12.071 55.6587C11.951 54.6987 12.141 53.7187 12.511 52.8487C12.891 51.9787 13.451 51.2187 14.101 50.5687C14.741 49.9187 15.471 49.3587 16.301 48.9688H16.311Z" fill="#FFA469"/>
<path d="M119.122 143.151C108.342 143.151 96.4623 142.971 84.5123 142.751C78.3523 142.641 73.4823 142.551 70.4523 142.551C54.9323 142.551 50.4623 122.591 46.1423 103.291C45.5423 100.601 44.9323 97.9107 44.3023 95.2607C43.0723 90.1007 42.0523 84.8806 41.0623 79.8406C38.0223 64.2306 35.3823 50.7607 28.5123 50.0207C19.4223 49.0507 11.3323 62.6407 8.38234 83.8507L6.40234 83.5807C9.51234 61.2207 18.4823 46.9207 28.7223 48.0307C37.0623 48.9207 39.8223 63.0707 43.0223 79.4607C44.0023 84.4807 45.0123 89.6807 46.2423 94.8007C46.8723 97.4507 47.4823 100.161 48.0823 102.851C52.4223 122.231 56.5223 140.541 70.4423 140.541C73.5023 140.541 78.3723 140.631 84.5423 140.741C98.0623 140.991 116.572 141.341 132.242 141.031C157.662 140.531 160.672 138.531 160.982 137.921C160.972 133.761 134.142 128.751 124.042 126.871C113.832 124.971 113.432 124.891 113.552 123.641C113.652 122.521 114.902 122.521 116.792 122.521L153.51 122.911C170.5 122.911 170.02 58.898 172.56 47.598C173.29 44.358 173.86 41.788 174.49 40.468C177.43 34.348 184.87 35.238 185.18 35.278L184.92 37.258C184.66 37.228 178.6 36.518 176.29 41.328C175.75 42.438 175.18 45.028 174.5 48.028C171.84 59.918 173 124.911 154 124.911L122.302 124.521C122.982 124.651 123.682 124.781 124.392 124.911C148.812 129.471 162.952 133.071 162.952 138.001C162.952 138.361 162.842 138.901 162.302 139.431C159.322 142.351 141.652 143.151 119.092 143.151H119.122Z" fill="#F3F0F0"/>
<path d="M1.47219 81.6588L1.03125 89.0156L13.2893 89.7503L13.7302 82.3935L1.47219 81.6588Z" fill="#E8E8E8"/>
<path d="M3.92516 79.4689L3.78516 81.8047L11.4314 82.263L11.5714 79.9272L3.92516 79.4689Z" fill="#D7D7D7"/>
<path d="M3.64874 89.1791L3.3125 94.7891L4.74992 94.8752L5.08616 89.2653L3.64874 89.1791Z" fill="#F3F0F0"/>
<path d="M9.19952 89.5073L8.86328 95.1172L10.3007 95.2033L10.6369 89.5934L9.19952 89.5073Z" fill="#F3F0F0"/>
<path d="M194.71 30H189.34V42.28H194.71V30Z" fill="#F3F0F0"/>
<path d="M189.34 32.3125H185V39.9725H189.34V32.3125Z" fill="#E8E8E8"/>
<path d="M21.9297 49.9088C21.9297 49.9088 24.5397 52.9287 25.5497 52.2887C26.5597 51.6487 29.0897 45.6987 29.0897 45.6987C29.0897 45.6987 29.6897 53.2688 31.6497 53.4688C33.5997 53.6788 36.9397 50.6888 36.9397 50.6888L29.0497 45.2188L21.9297 49.8988V49.9088Z" fill="#FCCD82"/>
<path d="M21.9297 49.9088C21.9297 49.9088 24.5397 52.9287 25.5497 52.2887C26.5597 51.6487 29.0897 45.6987 29.0897 45.6987C29.0897 45.6987 29.6897 53.2688 31.6497 53.4688C33.5997 53.6788 36.9397 50.6888 36.9397 50.6888L29.0497 45.2188L21.9297 49.8988V49.9088Z" fill="#FDB976"/>
<path opacity="0.5" d="M60.632 40.5099C61.402 38.1099 61.682 35.5399 61.432 32.9699C61.322 31.6799 61.012 30.3899 60.522 29.1399C60.272 28.5199 59.952 27.9199 59.562 27.3499C59.182 26.7799 58.732 26.2399 58.222 25.7699C57.972 25.5299 57.692 25.3199 57.402 25.1099C57.112 24.9099 56.812 24.7499 56.522 24.5799L56.072 24.3299L55.602 24.1299C55.282 24.0099 54.982 23.8499 54.642 23.7699C53.332 23.3799 51.972 23.2699 50.662 23.3899C48.032 23.6199 45.582 24.6399 43.582 26.1799C45.942 25.3399 48.362 24.8099 50.712 24.8699C51.872 24.9299 53.032 25.0599 54.082 25.4699C54.352 25.5499 54.592 25.6999 54.852 25.7999L55.232 25.9699L55.592 26.1899C55.832 26.3399 56.082 26.4699 56.302 26.6299C56.522 26.7999 56.732 26.9599 56.932 27.1499C57.752 27.8699 58.392 28.8099 58.872 29.8499C59.382 30.8799 59.702 32.0199 59.972 33.1799C60.462 35.5299 60.612 37.9899 60.612 40.4999L60.632 40.5099Z" fill="#FFA469"/>
<path opacity="0.5" d="M11.8509 35.4037C12.0109 33.2637 12.3109 31.1837 12.9009 29.2537C13.5009 27.3337 14.4709 25.5737 15.9509 24.4937C16.3109 24.2137 16.7209 24.0037 17.1309 23.8037C17.5209 23.6337 17.9409 23.5137 18.3909 23.4537C19.3009 23.3237 20.2909 23.3837 21.2809 23.5137C23.2809 23.8237 25.2909 24.4237 27.3409 25.0837C26.5209 24.3737 25.6009 23.7937 24.6509 23.2737C24.1709 23.0237 23.6809 22.7837 23.1709 22.5737C22.6609 22.3737 22.1409 22.1837 21.6009 22.0337C20.5309 21.7237 19.3809 21.5537 18.1809 21.6537C17.5809 21.7137 16.9709 21.8437 16.3809 22.0937C15.8309 22.3437 15.3009 22.6237 14.8209 23.0037C13.8509 23.7237 13.0909 24.6837 12.5609 25.7137C12.0209 26.7437 11.6909 27.8437 11.5109 28.9437C11.1509 31.1337 11.2609 33.3537 11.8509 35.4237V35.4037Z" fill="#FFA469"/>
<path d="M44.3415 37.3702C44.3715 37.2602 44.5915 37.5202 44.5815 37.6502C44.3415 40.6602 44.6315 44.1502 47.5815 45.2902C47.6715 45.3302 47.6515 45.4802 47.5415 45.4602C43.9115 44.8302 43.5815 40.1902 44.3315 37.3802L44.3415 37.3702Z" fill="#46474E"/>
<path d="M47.4309 34.3452C52.7709 34.2052 52.7609 43.9552 47.8109 44.0852C42.9409 44.2052 42.9509 34.4552 47.4309 34.3452Z" fill="#46474E"/>
<path d="M23.7119 35.0015C23.7019 34.8815 23.4419 35.1215 23.4319 35.2415C23.2519 38.2615 22.4719 41.6715 19.4019 42.3815C19.3019 42.4015 19.3019 42.5515 19.4119 42.5515C23.0919 42.4415 24.0719 37.8915 23.7119 35.0015Z" fill="#46474E"/>
<path d="M21.072 31.5722C15.802 30.6922 14.452 40.3522 19.332 41.1622C24.132 41.9622 25.482 32.3022 21.072 31.5722Z" fill="#46474E"/>
<path d="M28.8906 45.4245C29.8406 45.7345 36.4206 43.6445 35.9206 41.6545C35.3806 39.4945 26.1106 38.9845 24.9506 40.3845C23.7906 41.7845 27.9006 45.0945 28.8906 45.4245Z" fill="#46474E"/>
<path d="M37.1019 50.5822C36.0419 51.3522 34.9519 52.1022 33.7519 52.6822C33.1619 52.9622 32.5019 53.2122 31.9319 53.2022C31.5519 53.2822 31.2319 52.7622 31.0219 52.2722C30.5819 51.2722 30.3719 50.1622 30.1819 49.0822C29.9819 47.9922 29.8719 46.8822 29.7619 45.7822L29.4519 42.7422L28.5419 45.6922C28.2619 46.6022 27.9319 47.5122 27.6019 48.4222C27.2519 49.3222 26.8919 50.2222 26.4219 51.0622C26.3019 51.2722 26.1719 51.4722 26.0319 51.6622C25.8919 51.8522 25.7319 52.0422 25.5719 52.1422C25.4619 52.2322 25.2519 52.2322 25.0119 52.2022C24.7819 52.1322 24.5319 52.0422 24.3019 51.9022C23.3719 51.3522 22.6219 50.5522 21.9219 49.7722C22.4119 50.6522 22.9919 51.5122 23.9319 52.2322C24.1619 52.4122 24.4619 52.5722 24.8019 52.6822C24.9919 52.7222 25.1719 52.7822 25.3919 52.7622C25.5819 52.7822 25.8619 52.7122 26.0319 52.6122C26.3719 52.4322 26.5719 52.2222 26.7719 52.0122C26.9619 51.8022 27.1219 51.5822 27.2719 51.3622C27.8719 50.4922 28.3019 49.5822 28.7019 48.6722C29.1119 47.7622 29.4419 46.8422 29.7519 45.9022L28.5319 45.8122C28.6019 46.9522 28.7819 48.0622 28.9919 49.1922C29.0919 49.7522 29.2419 50.3122 29.4119 50.8722C29.5919 51.4322 29.7719 51.9922 30.0719 52.5422C30.2319 52.8122 30.3919 53.0922 30.6619 53.3622C30.8019 53.4922 30.9619 53.6322 31.2019 53.7422C31.3219 53.7922 31.4519 53.8422 31.6119 53.8522C31.7719 53.8822 31.8519 53.8522 31.9819 53.8522C32.8919 53.7822 33.5319 53.4222 34.1419 53.0822C35.3219 52.3522 36.2819 51.5022 37.1219 50.5822H37.1019Z" fill="#46474E"/>
</g>
<defs>
<clipPath id="clip0_4732_76167">
<rect width="200.39" height="143.15" fill="white"/>
</clipPath>
</defs>
</svg>
