<svg width="123" height="57" viewBox="0 0 123 57" fill="none" xmlns="http://www.w3.org/2000/svg">
<g clip-path="url(#clip0_4732_76145)">
<path d="M89.06 56.14H6.4L0 0H82.66L89.06 56.14Z" fill="#D7D7D7"/>
<path d="M84.55 52.3656H10.05L4.5 3.76562H79.01L84.55 52.3656Z" fill="#65666D"/>
<path d="M38.5389 29.3388L37.3489 30.7588L25.6289 20.6388L26.8189 19.2188L38.5389 29.3388Z" fill="#FFA469"/>
<path d="M35.52 19.2188L37.16 20.6388L28.64 30.7588L27 29.3388L35.52 19.2188Z" fill="#FFA469"/>
<path d="M63.5997 29.3388L62.4097 30.7588L50.6797 20.6388L51.8797 19.2188L63.5997 29.3388Z" fill="#FFA469"/>
<path d="M60.5786 19.2188L62.2186 20.6388L53.6986 30.7588L52.0586 29.3388L60.5786 19.2188Z" fill="#FFA469"/>
<path d="M24.1286 39.0703L23.8086 37.0703H69.2386L69.5586 39.0703H24.1286Z" fill="#FFA469"/>
<path d="M113.32 52.375H6.98047V56.145H113.32V52.375Z" fill="#D7D7D7"/>
<path d="M122.29 52.375H30.0703V56.145H122.29V52.375Z" fill="#D7D7D7"/>
<path d="M79.28 6.11562L79.01 3.76562H4.5L4.77 6.11562H79.28Z" fill="#65666D"/>
<path d="M10.7822 4.94156C10.8222 5.26156 11.0822 5.53156 11.3722 5.53156C11.6622 5.53156 11.8722 5.27156 11.8322 4.94156C11.7922 4.62156 11.5322 4.35156 11.2422 4.35156C10.9522 4.35156 10.7422 4.61156 10.7822 4.94156Z" fill="#D7D7D7"/>
<path d="M8.62208 4.94156C8.66208 5.26156 8.92208 5.53156 9.21208 5.53156C9.50208 5.53156 9.71208 5.27156 9.67208 4.94156C9.63208 4.62156 9.37208 4.35156 9.08208 4.35156C8.79208 4.35156 8.58208 4.61156 8.62208 4.94156Z" fill="white"/>
<path d="M6.46192 4.94156C6.50192 5.26156 6.76192 5.53156 7.05192 5.53156C7.34192 5.53156 7.55192 5.27156 7.51192 4.94156C7.47192 4.62156 7.21192 4.35156 6.92192 4.35156C6.63192 4.35156 6.42192 4.61156 6.46192 4.94156Z" fill="#FFA469"/>
</g>
<defs>
<clipPath id="clip0_4732_76145">
<rect width="122.29" height="56.14" fill="white"/>
</clipPath>
</defs>
</svg>
