<svg width="64" height="64" viewBox="0 0 64 64" fill="none" xmlns="http://www.w3.org/2000/svg">
<rect width="64" height="64" rx="12" fill="#717278"/>
<path d="M46.1463 17.8333C42.3833 14.0833 37.3658 12 32.0697 12C21.0592 12 12.1394 20.8889 12.1394 31.8611C12.1394 35.3333 13.115 38.8056 14.7875 41.7222L12 52L22.5923 49.2222C25.5192 50.75 28.7247 51.5833 32.0697 51.5833C43.0801 51.5833 52 42.6944 52 31.7222C51.8606 26.5833 49.9094 21.5833 46.1463 17.8333ZM41.6864 38.9444C41.2683 40.0556 39.3171 41.1667 38.3415 41.3056C37.5052 41.4444 36.3902 41.4444 35.2753 41.1667C34.5784 40.8889 33.6028 40.6111 32.4878 40.0556C27.4704 37.9722 24.2648 32.9722 23.9861 32.5556C23.7073 32.2778 21.8955 29.9167 21.8955 27.4167C21.8955 24.9167 23.1498 23.8056 23.5679 23.25C23.9861 22.6944 24.5436 22.6944 24.9617 22.6944C25.2404 22.6944 25.6585 22.6944 25.9373 22.6944C26.216 22.6944 26.6341 22.5556 27.0523 23.5278C27.4704 24.5 28.446 27 28.5854 27.1389C28.7247 27.4167 28.7247 27.6944 28.5854 27.9722C28.446 28.25 28.3066 28.5278 28.0279 28.8056C27.7491 29.0833 27.4704 29.5 27.331 29.6389C27.0523 29.9167 26.7735 30.1944 27.0523 30.6111C27.331 31.1667 28.3066 32.6944 29.8397 34.0833C31.7909 35.75 33.324 36.3056 33.8815 36.5833C34.439 36.8611 34.7178 36.7222 34.9965 36.4444C35.2753 36.1667 36.2509 35.0556 36.5296 34.5C36.8084 33.9444 37.2265 34.0833 37.6446 34.2222C38.0627 34.3611 40.5714 35.6111 40.9895 35.8889C41.547 36.1667 41.8258 36.3056 41.9651 36.4444C42.1045 36.8611 42.1045 37.8333 41.6864 38.9444Z" fill="white"/>
</svg>
