<svg width="64" height="64" viewBox="0 0 64 64" fill="none" xmlns="http://www.w3.org/2000/svg">
<rect width="64" height="64" rx="12" fill="#717278"/>
<path d="M34.0543 46C18.3379 46 9.37352 35.4895 9 18H16.8726C17.1312 30.8368 22.935 36.2743 27.5322 37.3954V18H34.945V29.0711C39.4847 28.5946 44.2542 23.5495 45.8632 18H53.2761C52.6698 20.8782 51.4612 23.6033 49.7259 26.005C47.9906 28.4067 45.766 30.4333 43.1911 31.958C46.0653 33.3511 48.6039 35.323 50.6394 37.7435C52.675 40.164 54.1612 42.9781 55 46H46.8401C46.0871 43.3752 44.5567 41.0256 42.4407 39.2456C40.3247 37.4657 37.7172 36.3345 34.945 35.994V46H34.0543Z" fill="white"/>
</svg>
