<svg width="87" height="87" viewBox="0 0 87 87" fill="none" xmlns="http://www.w3.org/2000/svg">
<path d="M77.3543 49.4128C75.9546 57.2766 71.9865 64.0417 66.4501 68.9745C58.8664 75.7823 48.297 79.1575 37.452 77.2281C35.4218 76.8674 33.4621 76.3321 31.5817 75.6393C30.8826 75.399 30.2214 75.1288 29.5598 74.8161C24.0898 72.4264 19.4566 68.6723 15.9753 64.0645C15.3774 63.2932 14.8174 62.4918 14.3081 61.6646C13.5618 60.4787 12.8872 59.2456 12.2931 57.9821C9.34467 51.7706 8.2486 44.6359 9.53061 37.3543C12.8541 18.6529 30.7263 6.19417 49.4497 9.53034C68.1731 12.8665 80.6737 30.7241 77.3629 49.4297L77.3543 49.4128Z" fill="#FCCD82" style="fill:#FCCD82;fill:color(display-p3 0.9882 0.8039 0.5098);fill-opacity:1;"/>
<path d="M15.9524 64.0423C15.3503 63.2837 14.7944 62.4696 14.2852 61.6424C13.5388 60.4565 12.8642 59.2234 12.2701 57.9599C13.5882 57.16 14.8366 56.6194 15.9569 56.4743C16.1648 56.4429 16.3814 56.4284 16.5938 56.4266C16.5938 56.4266 16.6235 56.4222 16.6363 56.4263L15.9355 64.051L15.9524 64.0423Z" fill="#FCCD82" style="fill:#FCCD82;fill:color(display-p3 0.9882 0.8039 0.5098);fill-opacity:1;"/>
<path opacity="0.7" d="M15.9519 64.0444C15.3498 63.2858 14.794 62.4717 14.2847 61.6445C13.5384 60.4586 12.8638 59.2255 12.2697 57.962C13.5878 57.1621 14.8361 56.6215 15.9565 56.4764C16.1685 56.4322 16.3851 56.4177 16.5975 56.416C16.5975 56.416 16.6272 56.4115 16.6569 56.407L15.9433 64.0275L15.9519 64.0444Z" fill="white" style="fill:white;fill-opacity:1;"/>
<path d="M66.4307 68.9788C58.8471 75.7866 48.2777 79.1618 37.4327 77.2324C35.4024 76.8716 33.4428 76.3364 31.5624 75.6435C30.8632 75.4033 30.2021 75.133 29.5405 74.8203C24.0704 72.4307 19.4373 68.6766 15.956 64.0688C15.358 63.2974 14.798 62.4961 14.2888 61.6688C15.0321 59.8513 15.7972 58.0972 16.5888 56.4362C16.5888 56.4362 16.5888 56.4362 16.6271 56.4486C17.2525 56.524 22.8899 57.3045 30.7741 58.8682C31.123 58.9247 31.4934 59.0022 31.8469 59.0884C33.5327 59.4223 35.3039 59.7979 37.1477 60.2111C38.2164 60.444 39.3066 60.698 40.4224 60.9602C43.808 61.7594 47.3561 62.6675 50.9479 63.7026C51.8512 63.9666 52.7545 64.2306 53.6537 64.5074C58.0131 65.833 62.3486 67.32 66.4224 69.0043L66.4307 68.9788Z" fill="#FCCD82" style="fill:#FCCD82;fill:color(display-p3 0.9882 0.8039 0.5098);fill-opacity:1;"/>
<path opacity="0.7" d="M66.4344 68.9759C58.8507 75.7837 48.2814 79.1589 37.4364 77.2295C35.4061 76.8688 33.4465 76.3335 31.566 75.6407C30.8669 75.4004 30.2057 75.1302 29.5442 74.8175C24.0741 72.4278 19.441 68.6737 15.9597 64.0659C15.3617 63.2946 14.8017 62.4932 14.2924 61.666C15.0358 59.8484 15.8137 58.0984 16.6052 56.4375C16.6052 56.4375 16.6052 56.4375 16.6477 56.4371C17.2731 56.5125 22.9105 57.293 30.7947 58.8567C31.1436 58.9132 31.514 58.9907 31.8675 59.0769C33.5533 59.4108 35.3245 59.7864 37.1683 60.1996C38.237 60.4325 39.3272 60.6865 40.443 60.9488C43.8286 61.7479 47.3767 62.656 50.9685 63.6911C51.8718 63.9551 52.7751 64.2191 53.6743 64.4959C58.0337 65.8215 62.3692 67.3085 66.443 68.9928L66.4344 68.9759Z" fill="white" style="fill:white;fill-opacity:1;"/>
<path d="M41.0342 65.8836L37.5642 67.834L33.8574 69.9052C33.0869 71.5448 32.3193 73.4813 31.5623 75.6468C30.8631 75.4066 30.202 75.1363 29.5404 74.8236C31.0278 71.2734 32.0051 69.0382 32.0051 69.0382L31.9147 65.344L31.8489 62.8841L36.3751 63.432L41.03 65.8963L41.0342 65.8836Z" fill="#585960" style="fill:#585960;fill:color(display-p3 0.3451 0.3490 0.3765);fill-opacity:1;"/>
<path d="M51.0941 63.6023C46.2915 66.6159 36.3906 63.4272 36.3906 63.4272C36.3906 63.4272 30.3639 60.5755 32.0427 58.835C35.8843 58.8796 37.9954 57.4622 39.1355 55.3783C39.7995 54.1553 40.1257 52.7103 40.2642 51.1905C40.3543 50.388 40.3764 49.5775 40.3729 48.7588L54.5574 41.7182C51.8253 47.544 47.82 58.4413 51.0941 63.6023Z" fill="#F3F0F0" style="fill:#F3F0F0;fill:color(display-p3 0.9529 0.9412 0.9412);fill-opacity:1;"/>
<path opacity="0.2" d="M50.6131 47.0964C48.7758 54.5226 42.2329 55.4931 39.1215 55.3747C39.7855 54.1517 40.1117 52.7066 40.2502 51.1868L50.6003 47.0923L50.6131 47.0964Z" fill="#585960" style="fill:#585960;fill:color(display-p3 0.3451 0.3490 0.3765);fill-opacity:1;"/>
<path d="M50.0888 58.4975L37.1389 61.7652L37.2071 57.3189L32.5234 58.0873C30.8391 58.36 29.5692 59.7535 29.445 61.4471L29.0958 66.2818L35.7668 64.0419L38.0349 68.8633L53.6684 64.5044L50.0805 58.5231L50.0888 58.4975Z" fill="#FCCD82" style="fill:#FCCD82;fill:color(display-p3 0.9882 0.8039 0.5098);fill-opacity:1;"/>
<path opacity="0.6" d="M50.0888 58.4975L37.1389 61.7652L37.2071 57.3189L32.5234 58.0873C30.8391 58.36 29.5692 59.7535 29.445 61.4471L29.0958 66.2818L35.7668 64.0419L38.0349 68.8633L53.6684 64.5044L50.0805 58.5231L50.0888 58.4975Z" fill="white" style="fill:white;fill-opacity:1;"/>
<path d="M31.9185 19.7492C31.9185 19.7492 27.9126 31.4779 33.4829 37.2689C39.0533 43.06 43.102 20.6322 43.102 20.6322L31.9185 19.7492Z" fill="#585960" style="fill:#585960;fill:color(display-p3 0.3451 0.3490 0.3765);fill-opacity:1;"/>
<path d="M50.3695 50.2188C46.4549 54.1116 41.1757 54.3632 37.0206 52.1875C34.3517 50.7885 32.1532 48.3717 31.0698 45.2585C30.9173 44.8567 30.8027 44.425 30.7009 43.9974C28.8749 36.0627 30.1912 22.9988 38.8692 19.5756C45.0408 17.0895 52.0674 20.0814 54.5609 26.2585C55.2786 28.013 55.5558 29.907 55.3954 31.8003C54.799 40.5865 54.8696 45.7825 50.3526 50.2275L50.3695 50.2188Z" fill="#F3F0F0" style="fill:#F3F0F0;fill:color(display-p3 0.9529 0.9412 0.9412);fill-opacity:1;"/>
<path d="M42.004 34.1197C42.0447 34.8235 41.6168 35.404 41.1366 35.4037C40.6565 35.4035 40.2982 34.8083 40.3041 34.0913C40.31 33.3744 40.7082 32.7984 41.1715 32.8073C41.6347 32.8162 42.0141 33.3899 42.004 34.1197Z" fill="#585960" style="fill:#585960;fill:color(display-p3 0.3451 0.3490 0.3765);fill-opacity:1;"/>
<path d="M33.8795 34.0284C33.916 34.745 33.4753 35.3213 33.0121 35.3125C32.5489 35.3036 32.1736 34.717 32.1796 34.0001C32.1855 33.2831 32.5837 32.7071 33.0469 32.716C33.5102 32.7249 33.8899 33.3411 33.8795 34.0284Z" fill="#585960" style="fill:#585960;fill:color(display-p3 0.3451 0.3490 0.3765);fill-opacity:1;"/>
<path d="M36.4541 34.4113C35.5783 36.5948 34.408 38.6407 32.9684 40.5149C33.9611 41.2448 35.2254 41.4847 36.4208 41.1948L36.4669 34.4155L36.4541 34.4113Z" fill="#F3F0F0" style="fill:#F3F0F0;fill:color(display-p3 0.9529 0.9412 0.9412);fill-opacity:1;"/>
<path d="M30.8977 30.5393C31.03 30.6103 31.2 30.6089 31.3353 30.5399C32.2433 29.9597 33.3555 29.8402 34.3619 30.2221C34.571 30.3179 34.8251 30.231 34.9209 30.0223C35.0166 29.8137 34.9292 29.5599 34.7201 29.464C33.4576 28.957 32.0439 29.0917 30.9036 29.8223C30.6965 29.9385 30.6308 30.1851 30.7475 30.392C30.7863 30.4469 30.842 30.4931 30.8849 30.5351L30.8977 30.5393Z" fill="#585960" style="fill:#585960;fill:color(display-p3 0.3451 0.3490 0.3765);fill-opacity:1;"/>
<path d="M43.6418 30.8838C43.7268 30.8831 43.8072 30.8528 43.879 30.8055C44.0345 30.6303 44.0193 30.3716 43.8436 30.2161C42.8406 29.2997 41.4477 28.9337 40.1248 29.2246C39.9045 29.2943 39.7749 29.5202 39.8322 29.7361C39.9023 29.9561 40.1287 30.0857 40.3449 30.0288C41.4009 29.8206 42.4874 30.1298 43.2804 30.8656C43.3873 30.9284 43.5234 30.9442 43.6377 30.8966L43.6418 30.8838Z" fill="#585960" style="fill:#585960;fill:color(display-p3 0.3451 0.3490 0.3765);fill-opacity:1;"/>
<path d="M49.044 20.7341L48.3498 24.5833C49.5892 25.3366 50.2703 26.8114 49.5918 28.2976C48.1519 31.4826 49.7178 36.6408 52.1094 38.8099C52.1094 38.8099 52.2702 37.3959 53.4383 37.802C54.6064 38.2081 53.8602 45.5362 51.3428 48.9083C51.3428 48.9083 55.0452 45.9336 57.4757 38.3328C59.7205 31.3062 60.2885 25.3582 58.9741 22.5227L49.0482 20.7214L49.044 20.7341Z" fill="#585960" style="fill:#585960;fill:color(display-p3 0.3451 0.3490 0.3765);fill-opacity:1;"/>
<path d="M59.1969 39.0464C58.2003 41.0358 56.4596 42.5307 54.3545 43.2311C51.5588 44.1451 50.031 41.6634 50.6937 38.9599C51.3126 36.5665 53.4851 33.1251 56.3561 33.4194C59.2229 33.7266 60.3846 36.5974 59.1969 39.0464Z" fill="#F3F0F0" style="fill:#F3F0F0;fill:color(display-p3 0.9529 0.9412 0.9412);fill-opacity:1;"/>
<path d="M36.9456 43.4615C37.4829 44.5515 38.0422 46.6213 38.0422 46.6213C38.246 46.6026 38.4328 46.5926 38.6279 46.557C41.2936 46.2635 42.4228 45.2615 42.8718 44.2227C43.1129 43.6522 43.1584 43.0749 43.1242 42.6128C43.0893 42.0659 42.9413 41.6938 42.9413 41.6938C41.6293 42.6931 39.1649 43.1504 37.8453 43.3438C37.2938 43.4332 36.9456 43.4615 36.9456 43.4615Z" fill="#585960" style="fill:#585960;fill:color(display-p3 0.3451 0.3490 0.3765);fill-opacity:1;"/>
<path d="M37.8544 43.3493L38.2032 44.2796C40.7075 44.0044 42.436 43.464 43.1333 42.6183C43.0984 42.0714 42.9504 41.6993 42.9504 41.6993C41.6384 42.6986 39.174 43.1559 37.8544 43.3493Z" fill="white" style="fill:white;fill-opacity:1;"/>
<path d="M38.6303 46.5594C41.2959 46.2658 42.4252 45.2638 42.8742 44.225C41.9704 44.3555 40.8978 44.6147 39.9807 45.1356C39.2748 45.5275 38.8804 46.0483 38.6134 46.568L38.6303 46.5594Z" fill="#F3F0F0" style="fill:#F3F0F0;fill:color(display-p3 0.9529 0.9412 0.9412);fill-opacity:1;"/>
<path d="M51.8523 43.0567C51.9216 41.4017 51.8939 39.8281 51.8608 38.5769C51.8354 37.6948 51.7988 36.9782 51.7515 36.4695C51.7215 35.9946 51.7017 35.7063 51.7017 35.7063L50.6909 34.8578C50.6909 34.8578 50.6775 35.6851 50.5259 36.7214C50.323 38.1782 49.8775 40.0357 48.8932 40.6335C48.8932 40.6335 43.7057 40.2523 41.8548 40.4288C39.9952 40.5884 38.5638 42.4371 38.5638 42.4371C38.5638 42.4371 34.7333 40.8738 32.4813 43.5565C32.4813 43.5565 30.7237 41.4797 30.0466 38.6389C30.0202 38.5457 29.9979 38.4399 29.9843 38.3509C29.9843 38.3509 28.62 46.8041 32.5672 52.1546C34.1726 54.309 36.4526 55.4695 38.8826 55.8608C42.432 56.4593 46.3403 55.4682 48.8437 53.7548C49.9497 52.999 50.6654 51.3981 51.1356 49.464C51.6142 47.5044 51.8176 45.2162 51.8907 43.0691L51.8523 43.0567ZM38.8157 43.012C38.8157 43.012 40.3295 41.7819 42.7731 41.8253C42.8412 41.8332 42.9133 41.8284 42.9814 41.8363C43.2747 41.8466 43.5639 41.8697 43.8703 41.9265C45.7046 42.238 46.7949 43.8452 46.9592 45.4771C47.0546 46.5792 46.738 47.689 45.9631 48.4251C44.4048 49.8803 42.4389 49.5827 41.309 48.2728C41.0298 47.9569 40.7922 47.5559 40.6352 47.1245L38.8902 47.7159C38.8902 47.7159 40.3645 49.4896 38.8198 50.5969C37.2583 51.7128 33.2441 50.4988 33.5209 46.5429C33.7966 42.4596 38.8029 43.0078 38.8029 43.0078L38.8157 43.012Z" fill="#585960" style="fill:#585960;fill:color(display-p3 0.3451 0.3490 0.3765);fill-opacity:1;"/>
<path d="M48.3474 24.5847C48.3474 24.5847 27.9688 27.7188 32.4769 15.1799C32.4769 15.1799 43.926 10.9192 52.6681 14.2405C61.4103 17.5618 59.0376 26.7742 59.0376 26.7742L48.3474 24.5847Z" fill="#585960" style="fill:#585960;fill:color(display-p3 0.3451 0.3490 0.3765);fill-opacity:1;"/>
</svg>
