<svg width="69" height="69" viewBox="0 0 69 69" fill="none" xmlns="http://www.w3.org/2000/svg">
<path d="M60.2036 33.3626C60.4625 40.4384 57.8463 46.9665 53.3974 51.7964C53.0426 52.1962 52.6632 52.5851 52.2648 52.9508C51.6371 53.5666 50.9712 54.1361 50.2739 54.6769C49.7745 55.071 49.2506 55.4541 48.713 55.8018C44.8434 58.4084 40.2118 59.9851 35.2043 60.1608C35.072 60.1605 34.9342 60.1725 34.8073 60.16C34.1526 60.1764 33.5087 60.1684 32.8636 60.1304C32.0138 60.0892 31.1736 59.9936 30.3497 59.8613C29.0785 59.6763 27.8264 59.3823 26.6248 59.0082C25.4055 58.6407 24.2299 58.1753 23.0925 57.6242C22.1952 57.1947 21.3196 56.7163 20.4837 56.182C19.8155 55.7666 19.1514 55.309 18.5227 54.8378C17.5696 54.1045 16.6737 53.3086 15.8229 52.4447C11.412 47.9818 8.58825 41.9064 8.33736 35.1426C7.81817 20.8289 19.0166 8.84679 33.3367 8.34446C47.669 7.84761 59.7021 19.0422 60.209 33.3504L60.2036 33.3626Z" fill="#FCCD82" style="fill:#FCCD82;fill:color(display-p3 0.9882 0.8039 0.5098);fill-opacity:1;"/>
<path d="M20.4722 56.2033C19.804 55.7879 19.1399 55.3303 18.5113 54.8591C17.5581 54.1258 16.6623 53.3299 15.8115 52.466C17.4205 50.5402 18.7865 49.0935 19.6529 48.5693C19.6693 48.5326 19.6938 48.5435 19.6938 48.5435L20.4722 56.2033Z" fill="#585960" style="fill:#585960;fill:color(display-p3 0.3451 0.3490 0.3765);fill-opacity:1;"/>
<path opacity="0.3" d="M20.4722 56.2033C19.804 55.7879 19.1399 55.3303 18.5113 54.8591C17.5581 54.1258 16.6623 53.3299 15.8115 52.466C17.4205 50.5402 18.7865 49.0935 19.6529 48.5693C19.6693 48.5326 19.6938 48.5435 19.6938 48.5435L20.4722 56.2033Z" fill="white" style="fill:white;fill-opacity:1;"/>
<path d="M50.6996 50.094C50.6692 50.8881 50.6279 51.7067 50.558 52.5566C50.5594 52.5866 50.5553 52.6288 50.5512 52.671C50.499 53.382 50.4033 54.0588 50.2816 54.6947C49.7822 55.0888 49.2582 55.4719 48.7206 55.8196C44.8511 58.4262 40.2195 60.0029 35.212 60.1785C35.0796 60.1783 34.9419 60.1903 34.815 60.1778C34.1603 60.1942 33.5164 60.1862 32.8712 60.1481C32.0215 60.107 31.1812 60.0114 30.3574 59.879C29.0862 59.694 27.8341 59.4001 26.6325 59.0259C25.4132 58.6585 24.2376 58.1931 23.1002 57.6419C22.0414 55.0994 21.3239 51.8573 20.8793 48.3992C19.7617 39.619 20.3947 29.5195 21.7014 26.4898C22.2694 25.2159 24.1438 24.6419 26.681 24.4956C26.8488 24.4823 27.0166 24.469 27.1912 24.4734L27.4436 24.4684C30.6341 24.4078 34.6565 24.9237 38.2874 25.5586C38.5056 25.5972 38.7238 25.6358 38.9366 25.6866C39.6581 25.8174 40.3496 25.9495 41.0234 26.0883C42.0123 26.2796 42.9234 26.4802 43.7554 26.6603C44.5997 26.8458 45.3593 27.023 45.9854 27.17C47.2197 27.4707 47.9563 27.6669 47.9563 27.6669C47.9439 27.7935 47.9261 27.9324 47.9015 28.0536C47.6861 31.0119 51.137 37.9249 50.6818 50.1008L50.6996 50.094Z" fill="#585960" style="fill:#585960;fill:color(display-p3 0.3451 0.3490 0.3765);fill-opacity:1;"/>
<path d="M52.95 50.686C52.7083 51.4592 52.472 52.2202 52.2466 52.9568C51.6189 53.5726 50.953 54.1421 50.2557 54.6829C49.7563 55.077 49.2323 55.4601 48.6948 55.8078C44.8252 58.4144 40.1936 59.9911 35.1861 60.1667C35.0538 60.1665 34.916 60.1785 34.7891 60.166C34.1344 60.1824 33.4906 60.1744 32.8454 60.1364C31.9956 60.0952 31.1554 59.9996 30.3315 59.8672C29.0603 59.6823 27.8082 59.3883 26.6067 59.0141C25.3873 58.6467 24.2117 58.1813 23.0743 57.6302C22.1769 57.2007 21.3014 56.7223 20.4655 56.188C19.7973 55.7726 19.1332 55.315 18.5045 54.8438C18.5169 54.585 18.5238 54.3385 18.5499 54.1151C18.841 49.5019 19.4783 48.6995 19.653 48.5717C19.6694 48.535 19.6939 48.5459 19.6939 48.5459C19.6939 48.5459 20.1181 48.4855 20.8602 48.4052C22.6909 48.1935 26.3658 47.8055 29.836 47.6787L30.4785 47.6568C31.0378 47.6565 31.597 47.6562 32.1508 47.6681C34.7207 47.7126 37.3028 47.8946 39.8657 48.1856C40.6268 48.2607 41.3715 48.3724 42.1217 48.472C42.6782 48.5439 43.2347 48.6158 43.7803 48.7122C46.1113 49.0613 48.4055 49.5261 50.6805 50.0999C51.4402 50.2771 52.1958 50.4965 52.9446 50.6982L52.95 50.686Z" fill="#585960" style="fill:#585960;fill:color(display-p3 0.3451 0.3490 0.3765);fill-opacity:1;"/>
<path opacity="0.3" d="M52.95 50.686C52.7083 51.4592 52.472 52.2202 52.2466 52.9568C51.6189 53.5726 50.953 54.1421 50.2557 54.6829C49.7563 55.077 49.2323 55.4601 48.6948 55.8078C44.8252 58.4144 40.1936 59.9911 35.1861 60.1667C35.0538 60.1665 34.916 60.1785 34.7891 60.166C34.1344 60.1824 33.4906 60.1744 32.8454 60.1364C31.9956 60.0952 31.1554 59.9996 30.3315 59.8672C29.0603 59.6823 27.8082 59.3883 26.6067 59.0141C25.3873 58.6467 24.2117 58.1813 23.0743 57.6302C22.1769 57.2007 21.3014 56.7223 20.4655 56.188C19.7973 55.7726 19.1332 55.315 18.5045 54.8438C18.5169 54.585 18.5238 54.3385 18.5499 54.1151C18.841 49.5019 19.4783 48.6995 19.653 48.5717C19.6694 48.535 19.6939 48.5459 19.6939 48.5459C19.6939 48.5459 20.1181 48.4855 20.8602 48.4052C22.6909 48.1935 26.3658 47.8055 29.836 47.6787L30.4785 47.6568C31.0378 47.6565 31.597 47.6562 32.1508 47.6681C34.7207 47.7126 37.3028 47.8946 39.8657 48.1856C40.6268 48.2607 41.3715 48.3724 42.1217 48.472C42.6782 48.5439 43.2347 48.6158 43.7803 48.7122C46.1113 49.0613 48.4055 49.5261 50.6805 50.0999C51.4402 50.2771 52.1958 50.4965 52.9446 50.6982L52.95 50.686Z" fill="white" style="fill:white;fill-opacity:1;"/>
<path d="M40.6891 51.6642L44.0295 55.4589C44.0295 55.4589 38.8618 56.8847 34.8065 60.1721C34.1517 60.1885 33.5079 60.1805 32.8627 60.1424C32.0129 60.1013 31.1727 60.0057 30.3489 59.8733C29.0777 59.6884 27.8256 59.3944 26.624 59.0202C25.4611 57.5032 24.2627 56.1319 23.3627 55.5104C23.3627 55.5104 25.6772 52.9593 28.4509 51.5235C28.4509 51.5235 26.0124 50.5244 23.1753 50.1552C23.1753 50.1552 26.4278 48.6685 29.852 47.6548C30.7183 47.3949 31.5982 47.1705 32.4263 46.9964C33.4044 46.8157 34.3197 46.7099 35.1081 46.7236C36.3003 46.7559 37.7489 46.741 39.2875 46.9864C40.7715 47.2222 42.3386 47.7006 43.8018 48.676C44.7877 49.3359 45.7244 50.2381 46.5724 51.4385L40.6946 51.6519L40.6891 51.6642Z" fill="white" style="fill:white;fill-opacity:1;"/>
<path d="M40.9803 49.4597C40.9803 49.4597 40.9585 49.5086 40.8957 49.5834C40.8438 49.6337 40.7811 49.7085 40.7074 49.8078C40.7019 49.8201 40.6664 49.8336 40.65 49.8704C39.4873 51.2903 35.5063 56.2261 32.857 60.155C32.0072 60.1139 31.167 60.0182 30.3432 59.8859C29.9732 57.4155 29.7319 53.7984 30.5574 49.9668C30.6353 49.561 30.7432 49.1539 30.8511 48.7468L40.9926 49.4651L40.9803 49.4597Z" fill="#FCCD82" style="fill:#FCCD82;fill:color(display-p3 0.9882 0.8039 0.5098);fill-opacity:1;"/>
<path d="M32.8239 53.2682C39.1699 52.2356 40.9866 49.448 40.9866 49.448C36.8101 45.7797 39.9229 39.0619 39.9229 39.0619L32.308 40.7622C32.5571 42.0187 32.6767 43.0705 32.7296 43.9751C32.9513 48.6261 30.8574 48.7351 30.8574 48.7351C29.596 51.3004 32.8416 53.2615 32.8416 53.2615L32.8239 53.2682Z" fill="#F3F0F0" style="fill:#F3F0F0;fill:color(display-p3 0.9529 0.9412 0.9412);fill-opacity:1;"/>
<path opacity="0.2" d="M32.308 40.7622C32.5571 42.0187 32.6767 43.0705 32.7296 43.9751C37.9171 43.7917 39.9352 39.0673 39.9352 39.0673L32.3203 40.7677L32.308 40.7622Z" fill="#585960" style="fill:#585960;fill:color(display-p3 0.3451 0.3490 0.3765);fill-opacity:1;"/>
<path d="M35.7647 19.2061C29.0836 19.0761 26.8669 22.5958 26.2502 29.4574C25.4882 38.031 27.2685 44.1698 35.6608 42.5077C47.0448 40.2411 46.8516 19.4209 35.7647 19.2061Z" fill="#F3F0F0" style="fill:#F3F0F0;fill:color(display-p3 0.9529 0.9412 0.9412);fill-opacity:1;"/>
<path d="M30.5826 29.1851C30.5826 29.1851 29.6257 30.9024 28.5886 31.9084C28.5886 31.9084 29.1352 32.8276 30.3438 32.691L30.588 29.1729L30.5826 29.1851Z" fill="#F3F0F0" style="fill:#F3F0F0;fill:color(display-p3 0.9529 0.9412 0.9412);fill-opacity:1;"/>
<path d="M34.672 28.7202C34.6485 29.2678 34.928 29.7301 35.2895 29.7444C35.6509 29.7587 35.9744 29.3303 35.9978 28.7827C36.0212 28.2351 35.7418 27.7728 35.3803 27.7585C35.0188 27.7442 34.6954 28.1727 34.672 28.7202Z" fill="#585960" style="fill:#585960;fill:color(display-p3 0.3451 0.3490 0.3765);fill-opacity:1;"/>
<path d="M35.5332 27.7816L34.3672 27.2617C34.3672 27.2617 34.9192 28.3008 35.5332 27.7816Z" fill="#585960" style="fill:#585960;fill:color(display-p3 0.3451 0.3490 0.3765);fill-opacity:1;"/>
<path d="M27.8751 28.3022C27.8517 28.8498 28.1311 29.3121 28.4926 29.3264C28.854 29.3408 29.1775 28.9123 29.2009 28.3647C29.2243 27.8172 28.9449 27.3548 28.5834 27.3405C28.222 27.3262 27.8985 27.7547 27.8751 28.3022Z" fill="#585960" style="fill:#585960;fill:color(display-p3 0.3451 0.3490 0.3765);fill-opacity:1;"/>
<path d="M28.7285 27.3753L27.5625 26.8555C27.5625 26.8555 28.1145 27.8945 28.7285 27.3753Z" fill="#585960" style="fill:#585960;fill:color(display-p3 0.3451 0.3490 0.3765);fill-opacity:1;"/>
<path d="M34.8318 24.1036C34.8318 24.1036 36.717 23.9015 37.7123 25.1675" stroke="#585960" style="stroke:#585960;stroke:color(display-p3 0.3451 0.3490 0.3765);stroke-opacity:1;" stroke-width="0.44" stroke-linecap="round" stroke-linejoin="round"/>
<path d="M29.9795 23.7342C29.9795 23.7342 28.8039 23.2688 27.3016 24.229" stroke="#585960" style="stroke:#585960;stroke:color(display-p3 0.3451 0.3490 0.3765);stroke-opacity:1;" stroke-width="0.44" stroke-linecap="round" stroke-linejoin="round"/>
<path d="M31.2641 35.3469C31.6375 36.1595 32.0011 37.6872 32.0011 37.6872C32.1511 37.6807 32.2889 37.6687 32.4266 37.6567C34.38 37.4997 35.226 36.7903 35.5769 36.0363C35.7626 35.6198 35.7983 35.2098 35.7888 34.8679C35.7713 34.4783 35.6746 34.2002 35.6746 34.2002C34.7017 34.8971 32.8806 35.1865 31.9175 35.3004C31.511 35.3541 31.2586 35.3591 31.2586 35.3591L31.2641 35.3469Z" fill="#585960" style="fill:#585960;fill:color(display-p3 0.3451 0.3490 0.3765);fill-opacity:1;"/>
<path d="M31.9287 35.2761L32.1699 35.9563C34.0032 35.8045 35.2802 35.4487 35.8001 34.8435C35.7825 34.4539 35.6858 34.1758 35.6858 34.1758C34.7007 34.8673 32.8918 35.1621 31.9287 35.2761Z" fill="white" style="fill:white;fill-opacity:1;"/>
<path d="M32.4297 37.6444C34.383 37.4875 35.229 36.778 35.5799 36.024C34.9101 36.1072 34.1298 36.2733 33.4545 36.6329C32.9374 36.9017 32.6235 37.2757 32.4297 37.6444Z" fill="#F3F0F0" style="fill:#F3F0F0;fill:color(display-p3 0.9529 0.9412 0.9412);fill-opacity:1;"/>
<path d="M42.8588 30.5919C42.8588 30.5919 39.8425 25.0474 40.3858 20.8256C40.3858 20.8256 27.255 15.1622 26.3437 28.559C26.3437 28.559 25.2643 16.6241 36.7605 16.5808C48.2268 16.5389 47.8829 33.3164 41.8667 38.1965C41.8667 38.1965 44.7166 34.0486 42.852 30.5742L42.8588 30.5919Z" fill="#585960" style="fill:#585960;fill:color(display-p3 0.3451 0.3490 0.3765);fill-opacity:1;"/>
<path d="M41.7385 31.9876C41.8044 30.9156 42.9441 29.1184 44.9464 29.3797C47.0088 29.6384 47.9168 33.9052 42.7508 34.8324C42.0114 34.9727 41.6052 34.2336 41.733 31.9998L41.7385 31.9876Z" fill="#F3F0F0" style="fill:#F3F0F0;fill:color(display-p3 0.9529 0.9412 0.9412);fill-opacity:1;"/>
<path d="M38.589 20.2299C38.589 20.2299 37.8244 28.4793 43.0362 35.7662C46.9896 41.288 42.8599 46.3924 42.8599 46.3924C42.8599 46.3924 51.6444 43.0256 47.3106 30.5354C47.3106 30.5354 51.0897 19.122 42.751 16.3733C42.751 16.3733 42.5778 12.9334 35.1624 13.8563C27.7402 14.7615 21.9812 21.3422 21.1402 29.4988C20.2993 37.6554 24.8624 46.5621 24.8624 46.5621C24.8624 46.5621 19.3145 17.9506 38.5822 20.2122L38.589 20.2299Z" fill="#585960" style="fill:#585960;fill:color(display-p3 0.3451 0.3490 0.3765);fill-opacity:1;"/>
<path d="M39.0121 20.3424C38.5612 22.2119 38.5221 24.2796 38.6782 26.2728C38.8588 28.277 39.2671 30.2652 39.8597 32.2034C40.44 34.1361 41.2699 36.0039 42.299 37.755C43.3568 39.4747 44.6097 41.12 46.2529 42.3519C44.5824 41.1812 43.2408 39.5699 42.1176 37.865C41.0175 36.141 40.1098 34.2826 39.445 32.3415C38.7801 30.4005 38.2926 28.3917 38.0261 26.3492C37.8074 24.2987 37.7387 22.2416 38.1665 20.1269L39.0012 20.3669L39.0121 20.3424Z" fill="#585960" style="fill:#585960;fill:color(display-p3 0.3451 0.3490 0.3765);fill-opacity:1;"/>
<path d="M53.3927 51.8091C53.0378 52.2089 52.6585 52.5978 52.26 52.9635C51.6323 53.5793 50.9664 54.1488 50.2691 54.6896C49.7697 55.0837 49.2458 55.4669 48.7082 55.8145C49.1888 54.6045 49.7813 53.4736 50.5456 52.5515C51.2129 51.7477 52.0016 51.1008 52.9512 50.6872C52.9512 50.6872 53.1079 51.0948 53.3804 51.8037L53.3927 51.8091Z" fill="#585960" style="fill:#585960;fill:color(display-p3 0.3451 0.3490 0.3765);fill-opacity:1;"/>
<path opacity="0.3" d="M53.3927 51.8091C53.0378 52.2089 52.6585 52.5978 52.26 52.9635C51.6323 53.5793 50.9664 54.1488 50.2691 54.6896C49.7697 55.0837 49.2458 55.4669 48.7082 55.8145C49.1888 54.6045 49.7813 53.4736 50.5456 52.5515C51.2129 51.7477 52.0016 51.1008 52.9512 50.6872C52.9512 50.6872 53.1079 51.0948 53.3804 51.8037L53.3927 51.8091Z" fill="white" style="fill:white;fill-opacity:1;"/>
</svg>
