<svg width="47" height="47" viewBox="0 0 47 47" fill="none" xmlns="http://www.w3.org/2000/svg">
<path d="M45.4437 29.4309C43.522 36.2038 38.7781 41.4075 32.8381 44.1301C32.072 44.4788 31.2926 44.8006 30.4863 45.0555C30.0831 45.1896 29.6799 45.3103 29.2633 45.4176C25.3257 46.5039 21.0656 46.5576 16.8726 45.3773L16.7651 45.3505C15.9588 45.1225 15.1928 44.8543 14.4402 44.5458C14.037 44.3849 13.6473 44.2105 13.271 44.0228C13.2307 44.0228 13.2038 43.9959 13.1635 43.9691C12.5319 43.6741 11.9271 43.3522 11.3358 42.9901C11.188 42.923 11.0402 42.8291 10.9058 42.7218C10.3548 42.4 9.83067 42.0378 9.31999 41.6489C9.02433 41.4343 8.72868 41.2063 8.4599 40.9649C7.92235 40.5223 7.39822 40.0529 6.90099 39.5701C6.49782 39.1812 6.10809 38.7654 5.74524 38.3362C4.92547 37.3974 4.18634 36.405 3.52783 35.3455C3.33969 35.0638 3.16498 34.7688 3.00371 34.4603C2.8962 34.2994 2.81555 34.1384 2.73492 33.9775C0.00682405 28.9079 -0.812935 22.8056 0.880366 16.8374C4.36104 4.55237 17.1549 -2.59601 29.4649 0.877596C41.7615 4.35121 48.9244 17.1191 45.4437 29.4041V29.4309Z" fill="#FCCD82" style="fill:#FCCD82;fill:color(display-p3 0.9882 0.8039 0.5098);fill-opacity:1;"/>
<path d="M3.52729 35.3882C3.33914 35.1065 3.16444 34.8115 3.00317 34.503C2.89566 34.3421 2.81501 34.1811 2.73438 34.0202C3.08379 33.819 3.40632 33.6581 3.66166 33.5776C3.71542 33.5508 3.74229 33.5508 3.74229 33.5508L3.51383 35.3882H3.52729Z" fill="#FCCD82" style="fill:#FCCD82;fill:color(display-p3 0.9882 0.8039 0.5098);fill-opacity:1;"/>
<path opacity="0.5" d="M3.52729 35.3882C3.33914 35.1065 3.16444 34.8115 3.00317 34.503C2.89566 34.3421 2.81501 34.1811 2.73438 34.0202C3.08379 33.819 3.40632 33.6581 3.66166 33.5776C3.71542 33.5508 3.74229 33.5508 3.74229 33.5508L3.51383 35.3882H3.52729Z" fill="white" style="fill:white;fill-opacity:1;"/>
<path d="M32.2833 41.8923C32.2833 41.8923 32.2833 41.8923 32.2699 41.9057C31.6248 43.0055 31.0335 44.065 30.4825 45.0708C30.0794 45.205 29.6762 45.3257 29.2596 45.433C25.322 46.5193 21.0619 46.5729 16.8689 45.3927L16.7614 45.3659C15.9551 45.1379 15.1891 44.8697 14.4365 44.5612C14.0333 44.4003 13.6436 44.2259 13.2673 44.0382C13.227 44.0382 13.2001 44.0113 13.1598 43.9845C12.5282 43.6894 11.9234 43.3676 11.3321 43.0055C11.1843 42.9384 11.0364 42.8445 10.9021 42.7372C10.3511 42.4153 9.82695 42.0532 9.31628 41.6643C9.02062 41.4497 8.72497 41.2217 8.45619 40.9803C7.91863 40.5377 7.39451 40.0683 6.89727 39.5855C6.4941 39.1966 6.10438 38.7808 5.74153 38.3516C4.92175 37.4128 4.18262 36.4204 3.52412 35.3608C3.33597 35.0792 3.16127 34.7841 3 34.4757C3.32253 33.8319 3.55098 33.6173 3.65849 33.5503C3.71225 33.5234 3.73912 33.5234 3.73912 33.5234C3.73912 33.5234 8.69808 33.9526 13.0254 34.7841C13.1195 34.7975 13.2136 34.8244 13.3076 34.8378C13.7914 34.9451 14.2752 35.0658 14.7456 35.1865C17.0571 35.7364 19.3417 36.4203 21.5725 37.2116C22.137 37.3994 22.7149 37.614 23.2793 37.8286C23.4674 37.8956 23.6556 37.9627 23.8437 38.0297C26.7331 39.1161 29.5418 40.4036 32.2699 41.8655L32.2833 41.8923Z" fill="#FCCD82" style="fill:#FCCD82;fill:color(display-p3 0.9882 0.8039 0.5098);fill-opacity:1;"/>
<path opacity="0.5" d="M32.2833 41.8923C32.2833 41.8923 32.2833 41.8923 32.2699 41.9057C31.6248 43.0055 31.0335 44.065 30.4825 45.0708C30.0794 45.205 29.6762 45.3257 29.2596 45.433C25.322 46.5193 21.0619 46.5729 16.8689 45.3927L16.7614 45.3659C15.9551 45.1379 15.1891 44.8697 14.4365 44.5612C14.0333 44.4003 13.6436 44.2259 13.2673 44.0382C13.227 44.0382 13.2001 44.0113 13.1598 43.9845C12.5282 43.6894 11.9234 43.3676 11.3321 43.0055C11.1843 42.9384 11.0364 42.8445 10.9021 42.7372C10.3511 42.4153 9.82695 42.0532 9.31628 41.6643C9.02062 41.4497 8.72497 41.2217 8.45619 40.9803C7.91863 40.5377 7.39451 40.0683 6.89727 39.5855C6.4941 39.1966 6.10438 38.7808 5.74153 38.3516C4.92175 37.4128 4.18262 36.4204 3.52412 35.3608C3.33597 35.0792 3.16127 34.7841 3 34.4757C3.32253 33.8319 3.55098 33.6173 3.65849 33.5503C3.71225 33.5234 3.73912 33.5234 3.73912 33.5234C3.73912 33.5234 8.69808 33.9526 13.0254 34.7841C13.1195 34.7975 13.2136 34.8244 13.3076 34.8378C13.7914 34.9451 14.2752 35.0658 14.7456 35.1865C17.0571 35.7364 19.3417 36.4203 21.5725 37.2116C22.137 37.3994 22.7149 37.614 23.2793 37.8286C23.4674 37.8956 23.6556 37.9627 23.8437 38.0297C26.7331 39.1161 29.5418 40.4036 32.2699 41.8655L32.2833 41.8923Z" fill="white" style="fill:white;fill-opacity:1;"/>
<path d="M8.6222 38.4431L10.9068 42.7482C10.3558 42.4264 9.8317 42.0642 9.32103 41.6753C9.02537 41.4607 8.72972 41.2327 8.46094 40.9913L8.50125 40.4012L8.6222 38.4297V38.4431Z" fill="#585960" style="fill:#585960;fill:color(display-p3 0.3451 0.3490 0.3765);fill-opacity:1;"/>
<path d="M19.7491 41.7869L18.4993 43.2755L16.7657 45.3543C15.9593 45.1263 15.1933 44.8581 14.4408 44.5496C14.0376 44.3887 13.6479 44.2144 13.2716 44.0266C13.2313 44.0266 13.2044 43.9998 13.1641 43.9729L16.5507 42.8464L19.7491 41.7734V41.7869Z" fill="#585960" style="fill:#585960;fill:color(display-p3 0.3451 0.3490 0.3765);fill-opacity:1;"/>
<path d="M24.6238 44.1417L21.8151 42.5859C21.8151 42.5859 20.4443 42.7871 18.4957 43.2833C17.2996 43.5918 15.8886 44.0075 14.4372 44.5708C14.034 44.4099 13.6443 44.2355 13.268 44.0478C13.2277 44.0478 13.2008 44.0209 13.1605 43.9941C12.5288 43.6991 11.9241 43.3772 11.3328 43.0151C11.1849 42.948 11.0371 42.8541 10.9027 42.7469C10.3517 42.425 9.82762 42.0629 9.31694 41.6739C9.04816 41.2179 8.77939 40.7887 8.48373 40.4132C8.26871 40.1316 8.04025 39.8768 7.81179 39.6756L6.89793 39.6085C6.49477 39.2196 6.10504 38.8038 5.74219 38.3747C7.07264 37.1944 9.59916 35.3705 13.0395 34.8072C13.7115 34.6999 14.4237 34.6328 15.1628 34.6462C16.9637 34.6462 18.9392 35.0352 21.1029 35.9874C22.3258 36.5373 23.2262 37.2481 23.8578 38.0662C25.2555 39.8633 25.3361 42.1567 24.6373 44.1551L24.6238 44.1417Z" fill="#585960" style="fill:#585960;fill:color(display-p3 0.3451 0.3490 0.3765);fill-opacity:1;"/>
<path opacity="0.1" d="M24.6238 44.1417L21.8151 42.5859C21.8151 42.5859 20.4443 42.7871 18.4957 43.2833C17.2996 43.5918 15.8886 44.0075 14.4372 44.5708C14.034 44.4099 13.6443 44.2355 13.268 44.0478C13.2277 44.0478 13.2008 44.0209 13.1605 43.9941C12.5288 43.6991 11.9241 43.3772 11.3328 43.0151C11.1849 42.948 11.0371 42.8541 10.9027 42.7469C10.3517 42.425 9.82762 42.0629 9.31694 41.6739C9.04816 41.2179 8.77939 40.7887 8.48373 40.4132C8.26871 40.1316 8.04025 39.8768 7.81179 39.6756L6.89793 39.6085C6.49477 39.2196 6.10504 38.8038 5.74219 38.3747C7.07264 37.1944 9.59916 35.3705 13.0395 34.8072C13.7115 34.6999 14.4237 34.6328 15.1628 34.6462C16.9637 34.6462 18.9392 35.0352 21.1029 35.9874C22.3258 36.5373 23.2262 37.2481 23.8578 38.0662C25.2555 39.8633 25.3361 42.1567 24.6373 44.1551L24.6238 44.1417Z" fill="white" style="fill:white;fill-opacity:1;"/>
<path d="M22.1027 38.4828C21.498 40.3604 18.9581 41.8491 16.5525 42.8684C15.343 43.378 14.1469 43.7804 13.2734 44.0486C13.2331 44.0486 13.2062 44.0218 13.1659 43.995C12.5343 43.6999 11.9295 43.378 11.3382 43.0159C10.7603 40.8567 10.1959 36.9271 13.3943 35.8809C13.6228 35.8139 13.8647 35.7602 14.1335 35.72C14.3216 35.6261 14.5366 35.4652 14.7517 35.2104C14.8861 35.0628 15.0204 34.8751 15.1548 34.6471C15.4774 34.0838 15.773 33.2791 15.9746 32.1123C16.0418 31.7904 16.0821 31.4283 16.1224 31.0528C16.1493 30.9186 16.1493 30.7711 16.1762 30.637C16.1762 30.4626 16.2031 30.2615 16.2165 30.0603C16.23 29.8055 16.2434 29.5372 16.2568 29.2422H23.2182C23.2182 29.2422 23.2047 29.2824 23.1644 29.3227C23.03 29.5104 22.6538 30.0335 22.264 30.7711C21.5921 32.072 20.8261 34.0301 21.1083 35.9882C21.162 36.3504 21.2427 36.6991 21.3636 37.0478C21.4577 37.1014 21.5249 37.1685 21.6055 37.2355C22.049 37.611 22.264 38.0268 22.1162 38.4828H22.1027Z" fill="#F3F0F0" style="fill:#F3F0F0;fill:color(display-p3 0.9529 0.9412 0.9412);fill-opacity:1;"/>
<path opacity="0.2" d="M16.2532 29.2305C16.2263 30.3705 16.1188 31.3227 15.9844 32.1006C20.5267 32.9589 23.2145 29.2439 23.2145 29.2439H16.2532V29.2305Z" fill="#585960" style="fill:#585960;fill:color(display-p3 0.3451 0.3490 0.3765);fill-opacity:1;"/>
<path d="M23.4376 7.65114C23.4376 7.65114 15.7371 5.17 13.0896 11.232C10.4422 17.2941 14.6754 21.7468 14.6754 21.7468L23.4376 7.65114Z" fill="#585960" style="fill:#585960;fill:color(display-p3 0.3451 0.3490 0.3765);fill-opacity:1;"/>
<path d="M23.521 11.1668C17.7289 9.74516 15.1083 12.3872 13.2134 18.2347C10.8482 25.544 11.1976 31.2306 18.8309 31.4183C29.1923 31.6732 33.1298 13.5272 23.521 11.1668Z" fill="#F3F0F0" style="fill:#F3F0F0;fill:color(display-p3 0.9529 0.9412 0.9412);fill-opacity:1;"/>
<path d="M17.0446 18.8242C17.0446 18.8242 15.8754 20.1386 14.7734 20.8091C14.7734 20.8091 15.0825 21.7211 16.1442 21.8418L17.058 18.8376L17.0446 18.8242Z" fill="#F3F0F0" style="fill:#F3F0F0;fill:color(display-p3 0.9529 0.9412 0.9412);fill-opacity:1;"/>
<path d="M20.6962 19.2141C20.5618 19.6835 20.723 20.1395 21.0321 20.2199C21.3412 20.3004 21.7041 19.9919 21.8384 19.5225C21.9728 19.0531 21.8116 18.5971 21.5025 18.5167C21.1934 18.4362 20.8305 18.7447 20.6962 19.2141Z" fill="#585960" style="fill:#585960;fill:color(display-p3 0.3451 0.3490 0.3765);fill-opacity:1;"/>
<path d="M21.6248 18.5824L20.7109 17.8984C20.7109 17.8984 20.9932 18.9043 21.6248 18.5824Z" fill="#585960" style="fill:#585960;fill:color(display-p3 0.3451 0.3490 0.3765);fill-opacity:1;"/>
<path d="M14.8524 17.5344C14.718 18.0038 14.8793 18.4598 15.1884 18.5403C15.4975 18.6207 15.8603 18.3122 15.9947 17.8428C16.1291 17.3734 15.9678 16.9174 15.6587 16.837C15.3497 16.7565 14.9868 17.065 14.8524 17.5344Z" fill="#585960" style="fill:#585960;fill:color(display-p3 0.3451 0.3490 0.3765);fill-opacity:1;"/>
<path d="M15.781 16.891L14.8672 16.207C14.8672 16.207 15.1494 17.2129 15.781 16.891Z" fill="#585960" style="fill:#585960;fill:color(display-p3 0.3451 0.3490 0.3765);fill-opacity:1;"/>
<path d="M21.7344 15.2422C21.7344 15.2422 23.4142 15.43 24.0324 16.7309" stroke="#585960" style="stroke:#585960;stroke:color(display-p3 0.3451 0.3490 0.3765);stroke-opacity:1;" stroke-width="0.39" stroke-linecap="round" stroke-linejoin="round"/>
<path d="M17.5987 13.9664C17.5987 13.9664 16.6714 13.3361 15.1797 13.8726" stroke="#585960" style="stroke:#585960;stroke:color(display-p3 0.3451 0.3490 0.3765);stroke-opacity:1;" stroke-width="0.39" stroke-linecap="round" stroke-linejoin="round"/>
<path d="M27.4452 22.4449C27.4452 22.4449 25.9132 17.04 27.2167 13.4725C27.2167 13.4725 16.8957 5.98883 13.4688 17.4558C13.4688 17.4558 14.8933 6.86059 24.8918 9.07351C34.8769 11.2864 31.2753 25.7978 25.0665 28.869C25.0665 28.869 28.3725 25.8112 27.4318 22.4449H27.4452Z" fill="#585960" style="fill:#585960;fill:color(display-p3 0.3451 0.3490 0.3765);fill-opacity:1;"/>
<path d="M22.5302 7.00793C22.5302 7.00793 17.9475 4.92912 16.3483 5.93499C14.749 6.94086 22.7586 17.7238 27.6638 19.588C27.6638 19.588 28.3223 25.5294 26.4677 27.8898C26.4677 27.8898 32.5556 26.9778 34.4639 18.3407C36.3857 9.70366 27.8385 4.72795 22.5167 7.00793H22.5302Z" fill="#585960" style="fill:#585960;fill:color(display-p3 0.3451 0.3490 0.3765);fill-opacity:1;"/>
<path d="M26.1931 23.4383C26.4618 22.5129 27.8057 21.1851 29.499 21.7886C31.2461 22.419 31.1923 26.3084 26.5156 26.0938C25.8437 26.0669 25.6421 25.3427 26.1931 23.4249V23.4383Z" fill="#F3F0F0" style="fill:#F3F0F0;fill:color(display-p3 0.9529 0.9412 0.9412);fill-opacity:1;"/>
<path d="M30.9531 12.158C30.9531 12.158 33.9097 7.46396 39.1912 8.83194C44.4727 10.1999 43.7201 18.6761 39.7422 24.309C35.7643 29.9284 37.2963 32.2889 37.2963 32.2889C37.2963 32.2889 34.3666 31.3635 35.4148 25.8379C35.4148 25.8379 34.7967 27.5948 34.5682 29.3383C34.5682 29.3383 33.1034 26.1598 36.0196 21.1706C38.9359 16.1949 32.3911 17.4958 32.3911 17.4958L30.9531 12.1714V12.158Z" fill="#585960" style="fill:#585960;fill:color(display-p3 0.3451 0.3490 0.3765);fill-opacity:1;"/>
<path d="M16.7188 6.48438C16.7188 6.48438 17.7132 15.108 24.0564 18.8365" stroke="#585960" style="stroke:#585960;stroke:color(display-p3 0.3451 0.3490 0.3765);stroke-opacity:1;" stroke-width="0.39" stroke-linecap="round" stroke-linejoin="round"/>
<path d="M20.3104 24.7773C20.3104 24.7773 18.6708 25.971 16.6953 25.5016" stroke="#585960" style="stroke:#585960;stroke:color(display-p3 0.3451 0.3490 0.3765);stroke-opacity:1;" stroke-width="0.39" stroke-linecap="round" stroke-linejoin="round"/>
<path d="M17.5434 19.4808C17.3956 20.2586 17.8525 20.9963 18.5648 21.1304C19.277 21.2645 19.9758 20.7414 20.1237 19.9636C20.2715 19.1857 19.8146 18.4481 19.1023 18.3139C18.3901 18.1798 17.6912 18.7029 17.5434 19.4808Z" stroke="#585960" style="stroke:#585960;stroke:color(display-p3 0.3451 0.3490 0.3765);stroke-opacity:1;" stroke-width="0.29" stroke-linecap="round" stroke-linejoin="round"/>
<path d="M13.0122 18.3831C12.8643 19.161 13.3212 19.8986 14.0335 20.0327C14.7458 20.1668 15.4446 19.6438 15.5924 18.8659C15.7402 18.088 15.2833 17.3504 14.5711 17.2163C13.8588 17.0822 13.16 17.6052 13.0122 18.3831Z" stroke="#585960" style="stroke:#585960;stroke:color(display-p3 0.3451 0.3490 0.3765);stroke-opacity:1;" stroke-width="0.29" stroke-linecap="round" stroke-linejoin="round"/>
<path d="M17.5424 19.4817C17.5424 19.4817 17.1392 17.8992 15.5938 18.8782" stroke="#585960" style="stroke:#585960;stroke:color(display-p3 0.3451 0.3490 0.3765);stroke-opacity:1;" stroke-width="0.29" stroke-linecap="round" stroke-linejoin="round"/>
<path d="M20.1328 19.9609C20.1328 19.9609 27.4301 21.1009 28.2768 21.3021" stroke="#585960" style="stroke:#585960;stroke:color(display-p3 0.3451 0.3490 0.3765);stroke-opacity:1;" stroke-width="0.29" stroke-linecap="round" stroke-linejoin="round"/>
<path d="M32.8326 44.1438C32.0665 44.4925 31.2871 44.8144 30.4808 45.0692C30.0776 45.2033 29.6744 45.324 29.2578 45.4313C30.7764 43.4061 32.0934 42.065 32.2547 41.904L32.2681 41.8906C32.2681 41.8906 32.4832 42.7221 32.8191 44.1438H32.8326Z" fill="#FCCD82" style="fill:#FCCD82;fill:color(display-p3 0.9882 0.8039 0.5098);fill-opacity:1;"/>
<path opacity="0.5" d="M32.8326 44.1438C32.0665 44.4925 31.2871 44.8144 30.4808 45.0692C30.0776 45.2033 29.6744 45.324 29.2578 45.4313C30.7764 43.4061 32.0934 42.065 32.2547 41.904L32.2681 41.8906C32.2681 41.8906 32.4832 42.7221 32.8191 44.1438H32.8326Z" fill="white" style="fill:white;fill-opacity:1;"/>
</svg>
