<svg width="1004" height="513" viewBox="0 0 1004 513" fill="none" xmlns="http://www.w3.org/2000/svg">
<path d="M313.47 197.514L315.964 181.214C316.065 180.556 316.673 180.109 317.331 180.21L324.205 181.262L321.348 199.933L314.475 198.881C313.816 198.78 313.37 198.173 313.47 197.514Z" fill="#FCCD82" stroke="#585960" style="fill:#FCCD82;fill:color(display-p3 0.9882 0.8039 0.5098);fill-opacity:1;stroke:#585960;stroke:color(display-p3 0.3469 0.3504 0.3750);stroke-opacity:1;" stroke-linecap="round" stroke-linejoin="round"/>
<path d="M356.185 163.178L372.483 165.672C373.141 165.773 373.588 166.381 373.487 167.039L372.435 173.914L353.767 171.057L354.819 164.182C354.919 163.524 355.527 163.077 356.185 163.178Z" fill="#FCCD82" stroke="#585960" style="fill:#FCCD82;fill:color(display-p3 0.9882 0.8039 0.5098);fill-opacity:1;stroke:#585960;stroke:color(display-p3 0.3469 0.3504 0.3750);stroke-opacity:1;" stroke-linecap="round" stroke-linejoin="round"/>
<path d="M378.381 166.573L394.678 169.067C395.337 169.168 395.783 169.775 395.682 170.434L394.63 177.308L375.962 174.451L377.014 167.577C377.115 166.918 377.722 166.472 378.381 166.573Z" fill="#FCCD82" stroke="#585960" style="fill:#FCCD82;fill:color(display-p3 0.9882 0.8039 0.5098);fill-opacity:1;stroke:#585960;stroke:color(display-p3 0.3469 0.3504 0.3750);stroke-opacity:1;" stroke-linecap="round" stroke-linejoin="round"/>
<path d="M284.537 399.182L317.377 184.579C319.485 170.84 332.326 161.402 346.063 163.51L661.399 211.778C675.136 213.886 684.572 226.729 682.465 240.468L649.624 455.072C647.516 468.811 634.675 478.249 620.938 476.141L305.603 427.872C291.865 425.764 282.429 412.922 284.537 399.182Z" fill="#FCCD82" stroke="#585960" style="fill:#FCCD82;fill:color(display-p3 0.9882 0.8039 0.5098);fill-opacity:1;stroke:#585960;stroke:color(display-p3 0.3469 0.3504 0.3750);stroke-opacity:1;" stroke-linecap="round" stroke-linejoin="round"/>
<path d="M622.186 473.499L305.215 424.976C293.465 423.171 285.385 412.182 287.19 400.43L320.285 184.191C322.09 172.439 333.077 164.358 344.827 166.163L661.798 214.686C673.549 216.491 681.629 227.48 679.824 239.232L646.729 455.471C644.924 467.223 633.937 475.305 622.186 473.499Z" fill="#585960" stroke="#585960" style="fill:#585960;fill:color(display-p3 0.3469 0.3504 0.3750);fill-opacity:1;stroke:#585960;stroke:color(display-p3 0.3469 0.3504 0.3750);stroke-opacity:1;" stroke-linecap="round" stroke-linejoin="round"/>
<path d="M309.052 293.125C308.943 293.803 308.313 294.264 307.647 294.155C306.969 294.046 306.509 293.416 306.618 292.749C306.727 292.071 307.356 291.611 308.023 291.72C308.701 291.829 309.161 292.459 309.052 293.125Z" fill="#585960" stroke="#585960" style="fill:#585960;fill:color(display-p3 0.3469 0.3504 0.3750);fill-opacity:1;stroke:#585960;stroke:color(display-p3 0.3469 0.3504 0.3750);stroke-opacity:1;" stroke-linecap="round" stroke-linejoin="round"/>
<path d="M308.472 304.404C308.278 305.689 307.067 306.573 305.782 306.379C304.498 306.185 303.614 304.974 303.808 303.689C304.002 302.405 305.213 301.521 306.497 301.715C307.781 301.908 308.666 303.12 308.472 304.404Z" fill="#585960" style="fill:#585960;fill:color(display-p3 0.3469 0.3504 0.3750);fill-opacity:1;"/>
<path d="M312.628 277.252C312.434 278.536 311.223 279.421 309.939 279.227C308.655 279.033 307.77 277.821 307.964 276.537C308.158 275.253 309.369 274.368 310.653 274.562C311.937 274.756 312.822 275.968 312.628 277.252Z" fill="#585960" style="fill:#585960;fill:color(display-p3 0.3469 0.3504 0.3750);fill-opacity:1;"/>
<path d="M306.659 312.027C306.514 312.972 305.641 313.614 304.696 313.468C303.752 313.323 303.11 312.451 303.255 311.506C303.4 310.561 304.272 309.919 305.217 310.064C306.162 310.209 306.804 311.082 306.659 312.027Z" fill="#585960" style="fill:#585960;fill:color(display-p3 0.3469 0.3504 0.3750);fill-opacity:1;"/>
<path d="M671.867 235.504L638.033 456.638C637.137 462.441 631.722 466.427 625.919 465.543L360.372 424.895L354.617 424.011L332.97 420.691L322.492 419.092L307.349 416.778L304.042 416.269C298.24 415.384 294.254 409.957 295.138 404.153L328.985 183.019C329.869 177.216 335.296 173.23 341.098 174.126L440.226 189.295L455.223 191.597L469.554 193.79L487.967 196.601L494.629 197.619L662.976 223.388C668.778 224.285 672.752 229.701 671.867 235.504Z" fill="#585960" style="fill:#585960;fill:color(display-p3 0.3469 0.3504 0.3750);fill-opacity:1;"/>
<path opacity="0.4" d="M356.188 372.203L381.409 386.512C383.02 383.555 384.158 380.284 384.691 376.759C385.903 368.811 383.856 361.117 379.543 355.047L356.188 372.203Z" fill="#FCCD82" style="fill:#FCCD82;fill:color(display-p3 0.9882 0.8039 0.5098);fill-opacity:1;"/>
<path opacity="0.6" d="M356.434 370.806L378.966 354.256C375.962 350.306 371.976 347.095 367.3 345.036L362.854 355.564L356.422 370.806H356.434Z" fill="#FCCD82" style="fill:#FCCD82;fill:color(display-p3 0.9882 0.8039 0.5098);fill-opacity:1;"/>
<path d="M360.268 342.93L356.367 368.434L366.397 344.651C364.459 343.875 362.412 343.294 360.268 342.93Z" fill="#FCCD82" style="fill:#FCCD82;fill:color(display-p3 0.9882 0.8039 0.5098);fill-opacity:1;"/>
<path opacity="0.1" d="M354.856 371.899L359.314 342.785C343.263 340.592 328.351 351.678 325.892 367.755C325.092 372.989 325.71 378.114 327.455 382.742L354.844 371.911L354.856 371.899Z" fill="#65666D" style="fill:#65666D;fill:color(display-p3 0.3952 0.3994 0.4292);fill-opacity:1;"/>
<path opacity="0.2" d="M350.785 401.657C363.165 403.547 374.915 397.514 380.912 387.349L355.243 372.786L327.805 383.641C331.657 392.922 340.124 400.022 350.785 401.657Z" fill="#FCCD82" style="fill:#FCCD82;fill:color(display-p3 0.9882 0.8039 0.5098);fill-opacity:1;"/>
<path d="M402.048 354.717L398.708 354.206C398.291 354.142 397.901 354.428 397.838 354.845L397.326 358.186C397.263 358.603 397.549 358.992 397.965 359.056L401.306 359.567C401.723 359.631 402.112 359.345 402.176 358.928L402.687 355.587C402.751 355.17 402.465 354.781 402.048 354.717Z" fill="#FCCD82" style="fill:#FCCD82;fill:color(display-p3 0.9882 0.8039 0.5098);fill-opacity:1;"/>
<path d="M420.217 359.308L405.62 357.079C405.317 357.03 405.099 356.74 405.147 356.437C405.196 356.134 405.487 355.916 405.789 355.964L420.387 358.194C420.689 358.242 420.908 358.533 420.859 358.836C420.811 359.139 420.52 359.357 420.217 359.308Z" fill="#FCCD82" style="fill:#FCCD82;fill:color(display-p3 0.9882 0.8039 0.5098);fill-opacity:1;"/>
<path d="M415.384 361.052L405.245 359.501C404.942 359.452 404.724 359.162 404.772 358.859C404.821 358.556 405.112 358.338 405.414 358.386L415.554 359.937C415.857 359.985 416.075 360.276 416.026 360.579C415.978 360.882 415.687 361.1 415.384 361.052Z" fill="#FCCD82" style="fill:#FCCD82;fill:color(display-p3 0.9882 0.8039 0.5098);fill-opacity:1;"/>
<path opacity="0.6" d="M400.392 365.561L397.051 365.05C396.635 364.986 396.245 365.272 396.181 365.689L395.67 369.03C395.606 369.447 395.893 369.836 396.309 369.9L399.65 370.411C400.067 370.475 400.456 370.189 400.52 369.772L401.031 366.431C401.095 366.014 400.809 365.625 400.392 365.561Z" fill="#FCCD82" style="fill:#FCCD82;fill:color(display-p3 0.9882 0.8039 0.5098);fill-opacity:1;"/>
<path d="M418.537 370.164L403.94 367.934C403.637 367.886 403.419 367.595 403.468 367.292C403.516 366.989 403.807 366.771 404.11 366.82L418.707 369.049C419.01 369.097 419.228 369.388 419.179 369.691C419.131 369.994 418.84 370.212 418.537 370.164Z" fill="#FCCD82" style="fill:#FCCD82;fill:color(display-p3 0.9882 0.8039 0.5098);fill-opacity:1;"/>
<path d="M413.72 371.895L403.581 370.345C403.278 370.296 403.06 370.005 403.108 369.702C403.157 369.4 403.447 369.181 403.75 369.23L413.89 370.781C414.193 370.829 414.411 371.12 414.362 371.423C414.314 371.726 414.023 371.944 413.72 371.895Z" fill="#FCCD82" style="fill:#FCCD82;fill:color(display-p3 0.9882 0.8039 0.5098);fill-opacity:1;"/>
<path opacity="0.4" d="M398.736 376.416L395.395 375.905C394.978 375.841 394.589 376.127 394.525 376.544L394.014 379.885C393.95 380.302 394.236 380.692 394.653 380.755L397.994 381.267C398.41 381.33 398.8 381.044 398.864 380.628L399.375 377.286C399.439 376.87 399.153 376.48 398.736 376.416Z" fill="#FCCD82" style="fill:#FCCD82;fill:color(display-p3 0.9882 0.8039 0.5098);fill-opacity:1;"/>
<path d="M416.881 381.023L402.284 378.794C401.981 378.745 401.763 378.454 401.811 378.152C401.86 377.849 402.151 377.631 402.453 377.679L417.051 379.908C417.354 379.957 417.572 380.248 417.523 380.551C417.475 380.853 417.184 381.071 416.881 381.023Z" fill="#FCCD82" style="fill:#FCCD82;fill:color(display-p3 0.9882 0.8039 0.5098);fill-opacity:1;"/>
<path d="M412.064 382.755L401.925 381.204C401.622 381.155 401.404 380.865 401.452 380.562C401.501 380.259 401.791 380.041 402.094 380.089L412.233 381.64C412.536 381.689 412.754 381.979 412.706 382.282C412.657 382.585 412.367 382.803 412.064 382.755Z" fill="#FCCD82" style="fill:#FCCD82;fill:color(display-p3 0.9882 0.8039 0.5098);fill-opacity:1;"/>
<path opacity="0.2" d="M397.072 387.272L393.731 386.76C393.314 386.697 392.925 386.983 392.861 387.399L392.35 390.741C392.286 391.158 392.572 391.547 392.989 391.611L396.33 392.122C396.746 392.186 397.136 391.9 397.2 391.483L397.711 388.142C397.775 387.725 397.488 387.336 397.072 387.272Z" fill="#FCCD82" style="fill:#FCCD82;fill:color(display-p3 0.9882 0.8039 0.5098);fill-opacity:1;"/>
<path d="M415.217 391.875L400.62 389.645C400.317 389.597 400.099 389.306 400.147 389.003C400.196 388.7 400.487 388.482 400.789 388.531L415.387 390.76C415.689 390.808 415.908 391.099 415.859 391.402C415.811 391.705 415.52 391.923 415.217 391.875Z" fill="#FCCD82" style="fill:#FCCD82;fill:color(display-p3 0.9882 0.8039 0.5098);fill-opacity:1;"/>
<path d="M410.4 393.606L400.26 392.055C399.958 392.007 399.74 391.716 399.788 391.413C399.836 391.11 400.127 390.892 400.43 390.941L410.569 392.492C410.872 392.54 411.09 392.831 411.042 393.134C410.993 393.437 410.703 393.655 410.4 393.606Z" fill="#FCCD82" style="fill:#FCCD82;fill:color(display-p3 0.9882 0.8039 0.5098);fill-opacity:1;"/>
<path opacity="0.1" d="M395.416 398.127L392.075 397.616C391.658 397.552 391.269 397.838 391.205 398.255L390.694 401.596C390.63 402.013 390.916 402.403 391.333 402.466L394.673 402.978C395.09 403.041 395.48 402.755 395.543 402.339L396.055 398.997C396.118 398.581 395.832 398.191 395.416 398.127Z" fill="#65666D" style="fill:#65666D;fill:color(display-p3 0.3952 0.3994 0.4292);fill-opacity:1;"/>
<path d="M413.561 402.718L398.964 400.489C398.661 400.441 398.443 400.15 398.491 399.847C398.54 399.544 398.83 399.326 399.133 399.374L413.73 401.604C414.033 401.652 414.251 401.943 414.203 402.246C414.154 402.549 413.864 402.767 413.561 402.718Z" fill="#FCCD82" style="fill:#FCCD82;fill:color(display-p3 0.9882 0.8039 0.5098);fill-opacity:1;"/>
<path d="M408.743 404.462L398.604 402.911C398.301 402.862 398.083 402.572 398.132 402.269C398.18 401.966 398.471 401.748 398.774 401.796L408.913 403.347C409.216 403.396 409.434 403.686 409.386 403.989C409.337 404.292 409.046 404.51 408.743 404.462Z" fill="#FCCD82" style="fill:#FCCD82;fill:color(display-p3 0.9882 0.8039 0.5098);fill-opacity:1;"/>
<path opacity="0.5" d="M644.381 326.391L638.918 362.108C638.736 363.271 637.658 364.059 636.495 363.877L324.357 316.093C323.194 315.911 322.407 314.833 322.589 313.682L323.315 308.909C323.315 308.909 337.985 297.084 347.168 298.489C358.022 300.149 359.936 306.304 369.59 307.782C379.233 309.26 389.893 286.822 398.639 288.167C403.364 288.894 404.575 292.528 406.901 295.872C408.621 298.368 410.983 300.682 415.865 301.518C415.974 301.542 416.108 301.566 416.217 301.579C428.088 303.396 444.151 240.358 460.493 242.866C467.713 243.969 470.632 257.89 472.8 273.24C475.55 292.649 477.101 314.373 484.672 315.536C498.215 317.608 502.818 290.129 515.405 292.068C523.315 293.279 526.198 307.951 532.861 319.558C536.798 326.44 542.067 332.243 550.511 333.527C558.179 334.703 563.303 332.922 567.288 330.123C575.102 324.659 578.591 315.33 588.354 316.832C594.133 317.717 596.253 322.175 598.397 326.379C600.274 330.05 602.188 333.527 606.646 334.218C611.892 335.018 616.35 327.518 621.086 320.854C624.975 315.378 629.033 310.459 633.866 311.198C638.796 311.95 641.704 317.874 643.17 322.102C644.005 324.538 644.369 326.403 644.369 326.403L644.381 326.391Z" fill="#FCCD82" style="fill:#FCCD82;fill:color(display-p3 0.9882 0.8039 0.5098);fill-opacity:1;"/>
<path opacity="0.5" d="M651.892 277.313L638.918 362.11C638.736 363.273 637.658 364.061 636.495 363.879L324.357 316.095C323.194 315.914 322.407 314.835 322.589 313.684L323.315 308.911C336.277 310.898 343.194 301.193 351.892 302.526C360.59 303.859 365.096 309.928 373.237 311.176C381.389 312.424 393.927 293.366 402.843 294.735C404.381 294.966 405.714 295.378 406.901 295.874C410.329 297.304 412.691 299.618 415.865 301.52C418.021 302.804 420.541 303.919 424.018 304.452C434.448 306.051 455.32 268.287 467.422 270.141C469.53 270.468 471.274 271.595 472.8 273.242C479.947 281.033 481.789 300.515 491.868 302.053C504.09 303.919 510.632 284.037 522.479 285.855C534.327 287.672 537.84 308.099 551.577 310.207C565.326 312.315 580.19 274.781 594.448 276.974C608.694 279.155 612.776 298.431 625.168 300.321C638.748 302.405 651.879 277.313 651.879 277.313H651.892Z" fill="#FCCD82" style="fill:#FCCD82;fill:color(display-p3 0.9882 0.8039 0.5098);fill-opacity:1;"/>
<path d="M645.859 316.736L638.918 362.109C638.736 363.272 637.658 364.06 636.495 363.878L324.357 316.094C323.194 315.912 322.407 314.834 322.589 313.683L322.952 311.345C323.4 310.909 330.753 303.966 338.215 305.117C345.932 306.293 345.944 313.211 356.713 314.858C367.47 316.506 370.608 307.989 385.871 310.327C401.147 312.665 401.074 323.339 416.859 325.75C432.643 328.161 435.902 315.379 447.107 317.088C458.3 318.796 457.573 325.338 463.933 326.308C470.293 327.277 474.012 317.294 481.849 318.493C489.687 319.692 495.683 336.121 504.514 337.478C510.717 338.423 521.692 326.15 532.873 319.547C537.609 316.76 542.382 314.992 546.852 315.682C556.071 317.088 561.45 324.284 567.301 330.112C570.983 333.783 574.847 336.897 579.96 337.684C587.264 338.799 592.812 332.196 598.421 326.368C602.976 321.631 607.567 317.415 613.151 318.275C616.713 318.82 619.196 319.753 621.122 320.843C625.944 323.557 627.24 327.216 633.042 328.101C640.032 329.167 645.883 316.736 645.883 316.736H645.859Z" fill="#FCCD82" style="fill:#FCCD82;fill:color(display-p3 0.9882 0.8039 0.5098);fill-opacity:1;"/>
<path d="M361.215 192.974L344.461 190.406C342.826 190.151 341.711 188.637 341.966 187.001C342.22 185.366 343.734 184.251 345.37 184.505L362.123 187.074C363.759 187.328 364.873 188.843 364.619 190.478C364.364 192.114 362.85 193.229 361.215 192.974Z" fill="#FCCD82" style="fill:#FCCD82;fill:color(display-p3 0.9882 0.8039 0.5098);fill-opacity:1;"/>
<path d="M370.472 189.595C370.557 189.595 370.653 189.595 370.738 189.619L387.492 192.188C387.964 192.26 388.376 192.515 388.655 192.89C388.933 193.278 389.054 193.738 388.982 194.211C388.848 195.071 388.097 195.713 387.225 195.713C387.14 195.713 387.043 195.713 386.959 195.689L370.205 193.121C369.236 192.975 368.57 192.066 368.715 191.097C368.848 190.237 369.6 189.595 370.472 189.595ZM370.472 188.383C369.018 188.383 367.746 189.437 367.528 190.915C367.274 192.551 368.4 194.066 370.024 194.32L386.789 196.888C386.947 196.913 387.092 196.925 387.249 196.925C388.703 196.925 389.975 195.871 390.193 194.393C390.447 192.757 389.321 191.243 387.698 190.988L370.944 188.42C370.787 188.395 370.641 188.383 370.484 188.383H370.472Z" fill="#FCCD82" style="fill:#FCCD82;fill:color(display-p3 0.9882 0.8039 0.5098);fill-opacity:1;"/>
<path d="M396.031 193.505C396.116 193.505 396.212 193.505 396.297 193.529L413.051 196.098C413.523 196.17 413.935 196.425 414.214 196.8C414.492 197.188 414.613 197.649 414.541 198.121C414.407 198.981 413.656 199.623 412.784 199.623C412.699 199.623 412.602 199.623 412.518 199.599L395.752 197.031C395.28 196.958 394.868 196.704 394.589 196.328C394.311 195.94 394.189 195.48 394.262 195.007C394.395 194.147 395.146 193.505 396.019 193.505M396.019 192.293C394.565 192.293 393.293 193.348 393.075 194.826C392.821 196.461 393.947 197.976 395.57 198.23L412.336 200.799C412.493 200.823 412.639 200.835 412.796 200.835C414.25 200.835 415.522 199.781 415.74 198.303C415.994 196.667 414.868 195.153 413.245 194.898L396.491 192.33C396.334 192.306 396.188 192.293 396.031 192.293H396.019Z" fill="#FCCD82" style="fill:#FCCD82;fill:color(display-p3 0.9882 0.8039 0.5098);fill-opacity:1;"/>
<path d="M657.051 235.563L657.257 234.255L656.288 234.024C656.263 233.806 656.215 233.6 656.13 233.394L656.881 232.74L656.094 231.674L655.246 232.195C655.076 232.062 654.894 231.953 654.701 231.868L654.761 230.874L653.453 230.668L653.223 231.638C653.005 231.662 652.799 231.71 652.593 231.795L651.939 231.044L650.873 231.832L651.394 232.68C651.26 232.849 651.151 233.031 651.066 233.225L650.073 233.164L649.867 234.473L650.836 234.703C650.861 234.921 650.909 235.127 650.994 235.333L650.243 235.987L651.03 237.053L651.878 236.532C652.048 236.666 652.229 236.775 652.423 236.86L652.363 237.853L653.671 238.059L653.901 237.09C654.119 237.065 654.325 237.017 654.531 236.932L655.185 237.683L656.251 236.896L655.73 236.048C655.864 235.878 655.973 235.696 656.057 235.503L657.051 235.563ZM653.32 235.878C652.484 235.745 651.902 234.97 652.036 234.121C652.169 233.273 652.944 232.704 653.792 232.837C654.64 232.97 655.209 233.746 655.076 234.594C654.943 235.442 654.168 236.011 653.32 235.878Z" fill="#FCCD82" style="fill:#FCCD82;fill:color(display-p3 0.9882 0.8039 0.5098);fill-opacity:1;"/>
<path opacity="0.2" d="M468.647 379.726L465.078 379.18L461.157 404.809L464.725 405.355L468.647 379.726Z" fill="#FCCD82" style="fill:#FCCD82;fill:color(display-p3 0.9882 0.8039 0.5098);fill-opacity:1;"/>
<path d="M468.045 383.59L464.477 383.043L462.631 395.103L466.2 395.65L468.045 383.59Z" fill="#FCCD82" style="fill:#FCCD82;fill:color(display-p3 0.9882 0.8039 0.5098);fill-opacity:1;"/>
<path opacity="0.2" d="M459.639 384.976L456.07 384.43L452.149 410.059L455.717 410.605L459.639 384.976Z" fill="#FCCD82" style="fill:#FCCD82;fill:color(display-p3 0.9882 0.8039 0.5098);fill-opacity:1;"/>
<path d="M455.011 391.167L453.164 403.239L456.732 403.785L458.579 391.713L455.011 391.167Z" fill="#FCCD82" style="fill:#FCCD82;fill:color(display-p3 0.9882 0.8039 0.5098);fill-opacity:1;"/>
<path opacity="0.2" d="M452.35 378.82L448.781 378.274L444.86 403.903L448.428 404.449L452.35 378.82Z" fill="#FCCD82" style="fill:#FCCD82;fill:color(display-p3 0.9882 0.8039 0.5098);fill-opacity:1;"/>
<path d="M450.881 388.48L447.312 387.934L445.465 400.006L449.034 400.552L450.881 388.48Z" fill="#FCCD82" style="fill:#FCCD82;fill:color(display-p3 0.9882 0.8039 0.5098);fill-opacity:1;"/>
<path opacity="0.2" d="M475.881 386.023L472.312 385.477L468.391 411.106L471.96 411.652L475.881 386.023Z" fill="#FCCD82" style="fill:#FCCD82;fill:color(display-p3 0.9882 0.8039 0.5098);fill-opacity:1;"/>
<path d="M475.303 389.886L471.734 389.34L469.887 401.412L473.456 401.958L475.303 389.886Z" fill="#FCCD82" style="fill:#FCCD82;fill:color(display-p3 0.9882 0.8039 0.5098);fill-opacity:1;"/>
<path opacity="0.2" d="M485.068 379.664L481.5 379.118L477.579 404.747L481.147 405.293L485.068 379.664Z" fill="#FCCD82" style="fill:#FCCD82;fill:color(display-p3 0.9882 0.8039 0.5098);fill-opacity:1;"/>
<path d="M484.623 382.554L481.055 382.008L479.208 394.08L482.776 394.626L484.623 382.554Z" fill="#FCCD82" style="fill:#FCCD82;fill:color(display-p3 0.9882 0.8039 0.5098);fill-opacity:1;"/>
<path opacity="0.2" d="M492.084 387.508L488.516 386.961L484.594 412.59L488.163 413.137L492.084 387.508Z" fill="#FCCD82" style="fill:#FCCD82;fill:color(display-p3 0.9882 0.8039 0.5098);fill-opacity:1;"/>
<path d="M491.92 388.476L488.352 387.93L486.505 400.002L490.073 400.548L491.92 388.476Z" fill="#FCCD82" style="fill:#FCCD82;fill:color(display-p3 0.9882 0.8039 0.5098);fill-opacity:1;"/>
<path opacity="0.2" d="M502.154 375.347L498.586 374.801L494.665 400.43L498.233 400.976L502.154 375.347Z" fill="#FCCD82" style="fill:#FCCD82;fill:color(display-p3 0.9882 0.8039 0.5098);fill-opacity:1;"/>
<path d="M502.006 376.308L498.438 375.762L496.592 387.822L500.161 388.368L502.006 376.308Z" fill="#FCCD82" style="fill:#FCCD82;fill:color(display-p3 0.9882 0.8039 0.5098);fill-opacity:1;"/>
<path opacity="0.2" d="M507.701 392.703L504.133 392.157L500.212 417.786L503.78 418.332L507.701 392.703Z" fill="#FCCD82" style="fill:#FCCD82;fill:color(display-p3 0.9882 0.8039 0.5098);fill-opacity:1;"/>
<path d="M507.107 396.566L503.539 396.02L501.692 408.092L505.26 408.638L507.107 396.566Z" fill="#FCCD82" style="fill:#FCCD82;fill:color(display-p3 0.9882 0.8039 0.5098);fill-opacity:1;"/>
<path opacity="0.2" d="M515.498 395.429L511.93 394.883L508.008 420.512L511.577 421.058L515.498 395.429Z" fill="#FCCD82" style="fill:#FCCD82;fill:color(display-p3 0.9882 0.8039 0.5098);fill-opacity:1;"/>
<path d="M514.022 405.074L510.453 404.528L508.606 416.6L512.175 417.146L514.022 405.074Z" fill="#FCCD82" style="fill:#FCCD82;fill:color(display-p3 0.9882 0.8039 0.5098);fill-opacity:1;"/>
<path opacity="0.2" d="M525.99 380.566L522.422 380.02L518.501 405.649L522.069 406.195L525.99 380.566Z" fill="#FCCD82" style="fill:#FCCD82;fill:color(display-p3 0.9882 0.8039 0.5098);fill-opacity:1;"/>
<path d="M524.357 391.199L520.789 390.653L518.944 402.713L522.512 403.259L524.357 391.199Z" fill="#FCCD82" style="fill:#FCCD82;fill:color(display-p3 0.9882 0.8039 0.5098);fill-opacity:1;"/>
<path opacity="0.2" d="M532.279 393.066L528.711 392.52L524.79 418.149L528.358 418.695L532.279 393.066Z" fill="#FCCD82" style="fill:#FCCD82;fill:color(display-p3 0.9882 0.8039 0.5098);fill-opacity:1;"/>
<path d="M531.545 397.89L527.977 397.344L526.131 409.404L529.7 409.95L531.545 397.89Z" fill="#FCCD82" style="fill:#FCCD82;fill:color(display-p3 0.9882 0.8039 0.5098);fill-opacity:1;"/>
<path opacity="0.2" d="M541.326 387.605L537.758 387.059L533.837 412.688L537.405 413.234L541.326 387.605Z" fill="#FCCD82" style="fill:#FCCD82;fill:color(display-p3 0.9882 0.8039 0.5098);fill-opacity:1;"/>
<path d="M540.732 391.48L537.164 390.934L535.317 403.006L538.885 403.552L540.732 391.48Z" fill="#FCCD82" style="fill:#FCCD82;fill:color(display-p3 0.9882 0.8039 0.5098);fill-opacity:1;"/>
<path opacity="0.2" d="M551.115 377.332L547.547 376.786L543.626 402.415L547.194 402.961L551.115 377.332Z" fill="#FCCD82" style="fill:#FCCD82;fill:color(display-p3 0.9882 0.8039 0.5098);fill-opacity:1;"/>
<path d="M551.107 377.316L547.539 376.77L545.692 388.842L549.26 389.388L551.107 377.316Z" fill="#FCCD82" style="fill:#FCCD82;fill:color(display-p3 0.9882 0.8039 0.5098);fill-opacity:1;"/>
<path opacity="0.2" d="M556.654 394.781L553.086 394.235L549.165 419.864L552.733 420.41L556.654 394.781Z" fill="#FCCD82" style="fill:#FCCD82;fill:color(display-p3 0.9882 0.8039 0.5098);fill-opacity:1;"/>
<path d="M556.209 397.683L552.641 397.137L550.794 409.209L554.362 409.755L556.209 397.683Z" fill="#FCCD82" style="fill:#FCCD82;fill:color(display-p3 0.9882 0.8039 0.5098);fill-opacity:1;"/>
<path opacity="0.2" d="M562.951 407.281L559.383 406.735L555.462 432.364L559.03 432.91L562.951 407.281Z" fill="#FCCD82" style="fill:#FCCD82;fill:color(display-p3 0.9882 0.8039 0.5098);fill-opacity:1;"/>
<path d="M562.522 410.172L558.953 409.625L557.106 421.697L560.675 422.244L562.522 410.172Z" fill="#FCCD82" style="fill:#FCCD82;fill:color(display-p3 0.9882 0.8039 0.5098);fill-opacity:1;"/>
<path opacity="0.2" d="M573.045 394.949L569.477 394.403L565.555 420.032L569.124 420.578L573.045 394.949Z" fill="#FCCD82" style="fill:#FCCD82;fill:color(display-p3 0.9882 0.8039 0.5098);fill-opacity:1;"/>
<path d="M571.576 404.582L568.008 404.036L566.161 416.108L569.729 416.654L571.576 404.582Z" fill="#FCCD82" style="fill:#FCCD82;fill:color(display-p3 0.9882 0.8039 0.5098);fill-opacity:1;"/>
<path opacity="0.2" d="M583.287 381.672L579.719 381.125L575.798 406.755L579.366 407.301L583.287 381.672Z" fill="#FCCD82" style="fill:#FCCD82;fill:color(display-p3 0.9882 0.8039 0.5098);fill-opacity:1;"/>
<path d="M581.506 393.265L577.938 392.719L576.09 404.791L579.659 405.337L581.506 393.265Z" fill="#FCCD82" style="fill:#FCCD82;fill:color(display-p3 0.9882 0.8039 0.5098);fill-opacity:1;"/>
<path opacity="0.2" d="M589.1 397.39L585.531 396.844L581.61 422.473L585.178 423.019L589.1 397.39Z" fill="#FCCD82" style="fill:#FCCD82;fill:color(display-p3 0.9882 0.8039 0.5098);fill-opacity:1;"/>
<path d="M588.521 401.242L584.953 400.696L583.106 412.768L586.674 413.314L588.521 401.242Z" fill="#FCCD82" style="fill:#FCCD82;fill:color(display-p3 0.9882 0.8039 0.5098);fill-opacity:1;"/>
<path opacity="0.2" d="M596.451 402.886L592.883 402.34L588.962 427.969L592.53 428.516L596.451 402.886Z" fill="#FCCD82" style="fill:#FCCD82;fill:color(display-p3 0.9882 0.8039 0.5098);fill-opacity:1;"/>
<path d="M594.834 413.508L591.266 412.961L589.419 425.033L592.987 425.58L594.834 413.508Z" fill="#FCCD82" style="fill:#FCCD82;fill:color(display-p3 0.9882 0.8039 0.5098);fill-opacity:1;"/>
<path opacity="0.2" d="M605.709 396.117L602.141 395.571L598.219 421.2L601.788 421.746L605.709 396.117Z" fill="#FCCD82" style="fill:#FCCD82;fill:color(display-p3 0.9882 0.8039 0.5098);fill-opacity:1;"/>
<path d="M605.709 396.129L602.141 395.583L600.294 407.655L603.862 408.201L605.709 396.129Z" fill="#FCCD82" style="fill:#FCCD82;fill:color(display-p3 0.9882 0.8039 0.5098);fill-opacity:1;"/>
<path opacity="0.2" d="M612.498 405.347L608.93 404.801L605.008 430.43L608.577 430.976L612.498 405.347Z" fill="#FCCD82" style="fill:#FCCD82;fill:color(display-p3 0.9882 0.8039 0.5098);fill-opacity:1;"/>
<path d="M612.201 407.265L608.633 406.719L606.786 418.791L610.354 419.337L612.201 407.265Z" fill="#FCCD82" style="fill:#FCCD82;fill:color(display-p3 0.9882 0.8039 0.5098);fill-opacity:1;"/>
<path opacity="0.2" d="M621.061 403.117L617.492 402.571L613.571 428.2L617.139 428.746L621.061 403.117Z" fill="#FCCD82" style="fill:#FCCD82;fill:color(display-p3 0.9882 0.8039 0.5098);fill-opacity:1;"/>
<path d="M620.904 404.074L617.336 403.528L615.489 415.6L619.057 416.146L620.904 404.074Z" fill="#FCCD82" style="fill:#FCCD82;fill:color(display-p3 0.9882 0.8039 0.5098);fill-opacity:1;"/>
<path opacity="0.2" d="M628.568 407.636L625 407.09L621.079 432.719L624.647 433.266L628.568 407.636Z" fill="#FCCD82" style="fill:#FCCD82;fill:color(display-p3 0.9882 0.8039 0.5098);fill-opacity:1;"/>
<path d="M626.67 420.176L623.102 419.629L621.255 431.701L624.823 432.248L626.67 420.176Z" fill="#FCCD82" style="fill:#FCCD82;fill:color(display-p3 0.9882 0.8039 0.5098);fill-opacity:1;"/>
<path d="M499.013 443.23L431.812 432.946L431.494 435.03L498.694 445.314L499.013 443.23Z" fill="#585960" stroke="#585960" style="fill:#585960;fill:color(display-p3 0.3469 0.3504 0.3750);fill-opacity:1;stroke:#585960;stroke:color(display-p3 0.3469 0.3504 0.3750);stroke-opacity:1;" stroke-linecap="round" stroke-linejoin="round"/>
<path d="M802.891 462.105C802.891 462.105 743.17 501.335 743.158 501.335C743.121 501.347 743.097 501.359 743.061 501.359C742.952 501.359 742.855 501.286 742.806 501.177C742.54 500.475 716.12 429.95 709.796 424.449C705.084 420.354 703.024 415.011 702.261 412.406C702.261 412.406 702.249 412.406 702.249 412.382C702.237 412.358 702.237 412.322 702.225 412.285C701.995 411.51 701.886 411.001 701.861 410.868C701.631 410.31 697.295 400.594 686.271 393.349C682.116 390.61 677.282 388.648 672.17 386.564C664.66 383.523 656.931 380.385 651.468 374.581C650.547 373.6 649.687 372.546 648.912 371.395C640.226 358.674 626.816 344.632 622.346 341.748C617.707 338.743 609.687 339.252 609.614 339.264C609.469 339.277 609.348 339.18 609.324 339.046C608.972 336.999 609.663 334.806 611.286 332.88C613.515 330.226 616.968 328.639 620.529 328.639C627.434 328.639 636.943 332.31 641.74 336.841C646.428 341.264 657.634 344.765 658.906 345.153C660.711 344.086 664.914 346.376 666.525 347.346C664.672 340.743 665.423 338.198 665.714 337.556C661.74 332.407 641.05 317.166 630.063 309.521H630.051C627.022 307.4 624.745 305.874 623.751 305.292C618.627 302.276 614.387 292.837 615.211 286.247C615.478 284.102 616.301 282.563 617.646 281.667C618.809 280.891 620.129 280.746 621.098 280.782C621.922 280.807 622.504 280.952 622.564 280.964C622.613 280.988 622.661 281.013 622.697 281.049C622.794 281.182 633.079 293.383 636.64 295.297C638.385 296.23 647.664 300.919 656.483 305.28C657.828 305.947 659.16 306.613 660.456 307.243C660.481 305.365 660.565 297.999 661.062 295.745C661.401 294.243 663.8 292.098 666.525 290.85C667.797 290.269 670.196 289.433 671.892 290.354C672.558 290.729 674.133 291.699 676.313 293.056C677.379 293.71 678.615 294.485 679.972 295.309C680.432 294.643 681.874 292.68 682.782 292.147C683.691 291.614 688.718 290.681 690.511 291.311C692.073 291.88 697.089 295.067 702.394 298.435C703.146 298.907 703.909 299.392 704.684 299.877C704.963 299.356 705.617 298.265 706.235 298.023C708.597 297.066 712.425 296.872 714.411 297.587C716.204 298.241 722.358 302.784 728.318 307.182C731.589 309.605 734.726 311.92 736.786 313.313C736.858 313.337 736.919 313.373 736.955 313.434C737.549 313.834 738.046 314.149 738.421 314.367C742.806 316.875 753.588 373.43 753.697 374C754.399 377.792 756.967 381.705 759.681 385.849C762.334 389.896 765.338 394.487 767.143 399.77C770.595 409.862 778.457 424.631 789.978 442.683C791.019 444.319 792.098 445.979 793.2 447.663C796.313 452.436 799.632 457.355 802.891 462.105Z" fill="#F3F0F0" style="fill:#F3F0F0;fill:color(display-p3 0.9529 0.9412 0.9412);fill-opacity:1;"/>
<path d="M747.814 261.14C747.802 261.031 747.802 261.007 747.814 261.055C747.826 261.091 747.826 261.116 747.814 261.14Z" fill="#FCCD82" style="fill:#FCCD82;fill:color(display-p3 0.9882 0.8039 0.5098);fill-opacity:1;"/>
<path d="M743.057 501.092C743.057 501.092 716.419 429.864 709.974 424.255C703.53 418.645 702.125 410.794 702.125 410.794C702.125 410.794 697.921 400.702 686.425 393.13C674.929 385.558 657.546 383.595 649.126 371.261C640.719 358.927 627.261 344.619 622.488 341.529C617.727 338.44 609.587 339.009 609.587 339.009C608.751 334.236 614.069 328.917 620.526 328.917C626.982 328.917 636.504 332.285 641.555 337.047C646.607 341.808 658.939 345.455 658.939 345.455C660.901 344.049 666.97 347.939 666.97 347.939C664.547 339.736 666.025 337.531 666.025 337.531C661.264 331.086 628.666 307.872 623.893 305.074C619.12 302.275 614.638 293.019 615.486 286.282C616.322 279.546 622.5 281.23 622.5 281.23C622.5 281.23 632.87 293.564 636.516 295.526C640.162 297.489 668.763 311.798 672.966 313.47C677.17 315.154 680.259 312.912 680.259 312.912" stroke="#585960" style="stroke:#585960;stroke:color(display-p3 0.3469 0.3504 0.3750);stroke-opacity:1;" stroke-linecap="round" stroke-linejoin="round"/>
<path d="M660.719 307.669C660.719 307.669 660.755 298.34 661.312 295.808C661.87 293.288 668.665 288.902 671.754 290.586C674.843 292.27 697.557 307.209 703.481 307.863" stroke="#585960" style="stroke:#585960;stroke:color(display-p3 0.3469 0.3504 0.3750);stroke-opacity:1;" stroke-linecap="round" stroke-linejoin="round"/>
<path d="M680.031 295.685C680.031 295.685 681.873 292.984 682.914 292.366C683.75 291.869 688.729 290.96 690.413 291.554C693.78 292.765 713.611 306.456 716.979 307.292" stroke="#585960" style="stroke:#585960;stroke:color(display-p3 0.3469 0.3504 0.3750);stroke-opacity:1;" stroke-linecap="round" stroke-linejoin="round"/>
<path d="M704.781 300.265C704.781 300.265 705.641 298.544 706.332 298.266C708.73 297.296 712.449 297.163 714.327 297.842C717.416 298.968 734.375 312.356 738.3 314.597C742.225 316.839 752.037 366.476 753.443 374.049C754.848 381.621 763.255 389.193 766.901 399.855C770.547 410.517 779.233 426.776 792.982 447.808C795.393 451.504 797.925 455.284 800.456 458.991" stroke="#585960" style="stroke:#585960;stroke:color(display-p3 0.3469 0.3504 0.3750);stroke-opacity:1;" stroke-linecap="round" stroke-linejoin="round"/>
<path d="M678.008 327.429C678.008 327.429 679.268 321.746 682.635 319.226C686.003 316.706 690.63 320.704 693.986 321.116" stroke="#585960" style="stroke:#585960;stroke:color(display-p3 0.3469 0.3504 0.3750);stroke-opacity:1;" stroke-linecap="round" stroke-linejoin="round"/>
<path d="M700.93 318.404C700.93 318.404 702.819 311.874 706.187 310.395C709.555 308.917 714.739 313.34 716.981 313.546" stroke="#585960" style="stroke:#585960;stroke:color(display-p3 0.3469 0.3504 0.3750);stroke-opacity:1;" stroke-linecap="round" stroke-linejoin="round"/>
<path d="M723.008 312.5C723.008 312.5 725.527 310.114 726.581 310.102C727.635 310.089 732.045 314.718 732.99 315.033C733.934 315.348 735.097 313.615 736.721 313.591" stroke="#585960" style="stroke:#585960;stroke:color(display-p3 0.3469 0.3504 0.3750);stroke-opacity:1;" stroke-linecap="round" stroke-linejoin="round"/>
<path d="M715.344 306.574C715.344 306.574 718.384 306.295 720.589 307.87" stroke="#585960" style="stroke:#585960;stroke:color(display-p3 0.3469 0.3504 0.3750);stroke-opacity:1;" stroke-linecap="round" stroke-linejoin="round"/>
<path d="M666.012 337.53C666.012 337.53 664.328 333.217 665.176 331.012" stroke="#585960" style="stroke:#585960;stroke:color(display-p3 0.3469 0.3504 0.3750);stroke-opacity:1;" stroke-linecap="round" stroke-linejoin="round"/>
<path d="M669.273 305.871C669.273 305.871 671.272 308.222 671.381 310.087C671.49 311.953 676.275 314.243 676.275 314.243" stroke="#585960" style="stroke:#585960;stroke:color(display-p3 0.3469 0.3504 0.3750);stroke-opacity:1;" stroke-linecap="round" stroke-linejoin="round"/>
<path d="M701.336 307.299C701.336 307.299 704.074 306.318 705.552 307.299" stroke="#585960" style="stroke:#585960;stroke:color(display-p3 0.3469 0.3504 0.3750);stroke-opacity:1;" stroke-linecap="round" stroke-linejoin="round"/>
<path d="M666.013 343.2C666.013 343.2 665.456 338.85 669.271 335.906" stroke="#585960" style="stroke:#585960;stroke:color(display-p3 0.3469 0.3504 0.3750);stroke-opacity:1;" stroke-linecap="round" stroke-linejoin="round"/>
<path d="M666.953 347.938C666.953 347.938 663.828 350.639 663.828 352.323" stroke="#585960" style="stroke:#585960;stroke:color(display-p3 0.3469 0.3504 0.3750);stroke-opacity:1;" stroke-linecap="round" stroke-linejoin="round"/>
<path d="M652.578 343.199C656.285 344.58 659.362 350.347 661.603 351.329" stroke="#585960" style="stroke:#585960;stroke:color(display-p3 0.3469 0.3504 0.3750);stroke-opacity:1;" stroke-linecap="round" stroke-linejoin="round"/>
<path d="M697.5 324.832C699.741 328.055 704.793 351.474 709.832 358.901" stroke="#585960" style="stroke:#585960;stroke:color(display-p3 0.3469 0.3504 0.3750);stroke-opacity:1;" stroke-linecap="round" stroke-linejoin="round"/>
<path d="M716.281 318.219C716.705 318.497 719.649 327.608 719.649 327.608" stroke="#585960" style="stroke:#585960;stroke:color(display-p3 0.3469 0.3504 0.3750);stroke-opacity:1;" stroke-linecap="round" stroke-linejoin="round"/>
<path d="M753.922 375.949C755.109 383.594 757.919 389.482 757.919 389.482" stroke="#585960" style="stroke:#585960;stroke:color(display-p3 0.3469 0.3504 0.3750);stroke-opacity:1;" stroke-linecap="round" stroke-linejoin="round"/>
<path d="M702.498 412.319C702.11 410.781 700.487 400.688 698.5 397.32" stroke="#585960" style="stroke:#585960;stroke:color(display-p3 0.3469 0.3504 0.3750);stroke-opacity:1;" stroke-linecap="round" stroke-linejoin="round"/>
<path d="M244.602 512.211C244.432 512.163 244.239 512.09 244.008 512.017C244.481 512.284 244.772 512.454 244.856 512.49C244.82 512.441 244.735 512.357 244.602 512.211ZM340.423 349.608C335.516 347.342 325.959 336.717 324.759 335.384C330.84 325.183 336.801 315.345 338.872 312.982C343.172 308.088 348.418 293.997 346.286 287.164C344.335 280.888 337.951 281.894 337.079 282.063C337.019 282.075 336.982 282.087 336.982 282.087C336.91 282.087 336.861 282.136 336.825 282.197C336.691 282.427 323.693 304.344 319.659 309.59C317.733 312.086 313.3 317.768 308.805 323.462C308.575 323.426 308.091 323.341 307.461 323.256C305.377 323.002 301.549 322.687 298.921 323.499C298.836 323.523 298.739 323.559 298.642 323.596C297.709 323.947 296.243 324.734 294.487 325.801C294.317 325.728 293.978 325.583 293.53 325.401C291.616 324.601 287.655 323.062 285.777 322.978C283.487 322.856 275.42 326.6 270.598 329.641C269.847 329.399 265.28 328.03 260.398 328.224C256.704 328.381 249.169 331.446 243.112 333.906C240.423 334.996 238.097 335.941 236.74 336.365C236.328 336.499 235.941 336.608 235.565 336.729C231.955 337.807 229.968 338.413 227.449 343.453C224.929 348.493 222.01 368.205 220.653 377.583L220.471 378.855C219.95 382.441 220.035 388.862 220.12 395.659C220.253 405.109 220.386 414.875 218.981 418.703C216.885 424.385 213.784 428.892 211.519 432.176C211.119 432.745 210.756 433.278 210.417 433.787C208.285 436.949 207.243 439.736 205.922 443.249C204.905 445.939 203.633 448.895 202.397 451.597C200.12 456.601 198 460.732 198 460.732C198 460.732 240.859 508.056 244.602 512.211C244.978 512.345 245.196 512.405 245.22 512.405C245.365 512.163 253.288 498.618 261.683 485.254C268.914 473.72 276.498 462.319 279.732 459.702C285.038 455.401 287.703 449.477 289.011 445.26C290.756 439.651 301.888 432.733 312.658 426.045C324.566 418.655 336.861 411.01 337.297 404.685C337.527 401.414 338.278 395.998 339.151 389.71C341.513 372.676 344.444 351.461 340.423 349.608ZM320.023 376.844L314.729 382.029C313.978 377.789 308.83 372.155 308.018 371.295C308.454 369.429 308.636 367.2 308.805 365.116C308.999 362.753 309.205 360.306 309.787 359.87C310.368 359.434 313.045 355.06 317.406 347.742C317.77 352.867 322.203 358.513 322.857 359.324L320.023 376.844Z" fill="#F3F0F0" style="fill:#F3F0F0;fill:color(display-p3 0.9529 0.9412 0.9412);fill-opacity:1;"/>
<path opacity="0.4" d="M304.297 390.391L306.15 391.19C305.024 395.685 304.297 390.391 304.297 390.391Z" fill="#FCCD82" style="fill:#FCCD82;fill:color(display-p3 0.9882 0.8039 0.5098);fill-opacity:1;"/>
<path d="M288.773 342.896C288.773 342.896 293.68 342.072 297.362 337.989C301.045 333.906 315.775 315.078 319.858 309.759C323.952 304.441 337.035 282.342 337.035 282.342C337.035 282.342 343.988 280.706 346.036 287.249C348.083 293.791 343.177 307.7 338.67 312.813C334.176 317.925 311.257 358.44 309.621 359.664C307.986 360.887 309.21 372.361 305.939 374.808" stroke="#585960" style="stroke:#585960;stroke:color(display-p3 0.3469 0.3504 0.3750);stroke-opacity:1;" stroke-linecap="round" stroke-linejoin="round"/>
<path d="M307.727 371.37C307.727 371.37 314.135 378.082 314.535 382.577L320.264 376.967L323.123 359.254C323.123 359.254 317.466 352.433 317.636 346.848" stroke="#585960" style="stroke:#585960;stroke:color(display-p3 0.3469 0.3504 0.3750);stroke-opacity:1;" stroke-linecap="round" stroke-linejoin="round"/>
<path d="M324.439 335.422C324.439 335.422 334.99 347.392 340.308 349.852C345.626 352.311 337.849 392.813 337.038 404.675C336.214 416.536 292.446 433.292 288.764 445.177C287.298 449.902 284.536 455.463 279.557 459.498C272.459 465.253 244.984 512.273 244.984 512.273" stroke="#585960" style="stroke:#585960;stroke:color(display-p3 0.3469 0.3504 0.3750);stroke-opacity:1;" stroke-linecap="round" stroke-linejoin="round"/>
<path d="M308.912 323.742C308.912 323.742 302.673 322.591 298.991 323.742C295.308 324.893 279.766 335.93 276.083 337.978C272.401 340.025 267.083 340.437 265.859 342.885" stroke="#585960" style="stroke:#585960;stroke:color(display-p3 0.3469 0.3504 0.3750);stroke-opacity:1;" stroke-linecap="round" stroke-linejoin="round"/>
<path d="M294.511 326.092C294.511 326.092 288.223 323.354 285.776 323.233C283.317 323.112 273.505 327.752 268.999 331.023C264.505 334.294 260.131 335.93 257.539 336.621" stroke="#585960" style="stroke:#585960;stroke:color(display-p3 0.3469 0.3504 0.3750);stroke-opacity:1;" stroke-linecap="round" stroke-linejoin="round"/>
<path d="M270.623 329.919C270.623 329.919 265.716 328.259 260.398 328.477C255.08 328.695 241.174 335.249 236.813 336.606C232.452 337.975 230.405 338.109 227.679 343.561C224.953 349.013 221.949 370.433 220.726 378.89C219.502 387.346 221.683 412.099 219.223 418.786C216.764 425.474 212.973 430.442 210.635 433.931C205.971 440.861 206.492 446.095 198 460.743" stroke="#585960" style="stroke:#585960;stroke:color(display-p3 0.3469 0.3504 0.3750);stroke-opacity:1;" stroke-linecap="round" stroke-linejoin="round"/>
<path d="M260.749 344.738C255.431 349.439 256.424 358.453 257.175 361.106C257.926 363.772 254.619 374.397 253.602 380.128" stroke="#585960" style="stroke:#585960;stroke:color(display-p3 0.3469 0.3504 0.3750);stroke-opacity:1;" stroke-linecap="round" stroke-linejoin="round"/>
<path d="M294.512 349.234C284.894 349.44 281.817 355.983 281.211 360.284" stroke="#585960" style="stroke:#585960;stroke:color(display-p3 0.3469 0.3504 0.3750);stroke-opacity:1;" stroke-linecap="round" stroke-linejoin="round"/>
<path d="M253.591 339.624C250.732 339.418 243.367 343.925 241.938 351.279" stroke="#585960" style="stroke:#585960;stroke:color(display-p3 0.3469 0.3504 0.3750);stroke-opacity:1;" stroke-linecap="round" stroke-linejoin="round"/>
<path d="M323.133 359.264C323.133 359.264 324.562 355.169 325.992 354.77" stroke="#585960" style="stroke:#585960;stroke:color(display-p3 0.3469 0.3504 0.3750);stroke-opacity:1;" stroke-linecap="round" stroke-linejoin="round"/>
<path d="M320.267 376.977C320.267 376.977 318.898 381.556 317.638 384.016C316.378 386.475 317.638 390.304 317.638 390.304" stroke="#585960" style="stroke:#585960;stroke:color(display-p3 0.3469 0.3504 0.3750);stroke-opacity:1;" stroke-linecap="round" stroke-linejoin="round"/>
<path d="M314.551 382.586C314.345 386.681 309.85 391.067 308.93 390.304" stroke="#585960" style="stroke:#585960;stroke:color(display-p3 0.3469 0.3504 0.3750);stroke-opacity:1;" stroke-linecap="round" stroke-linejoin="round"/>
<path d="M276.025 375.617C275.88 380.112 267.703 413.054 267.703 413.054" stroke="#585960" style="stroke:#585960;stroke:color(display-p3 0.3469 0.3504 0.3750);stroke-opacity:1;" stroke-linecap="round" stroke-linejoin="round"/>
<path d="M11.2492 410.213L98.0429 252.717L108.976 242.136L105.876 257.03L19.0818 414.526C18.4817 415.622 17.1114 416.009 16.0253 415.415L12.1481 413.276C11.0517 412.676 10.6658 411.305 11.2595 410.219L11.2492 410.213Z" fill="#FCCD82" style="fill:#FCCD82;fill:color(display-p3 0.9882 0.8039 0.5098);fill-opacity:1;"/>
<path d="M11.2492 410.213L98.0429 252.717L108.976 242.136L105.876 257.03L19.0818 414.526C18.4817 415.622 17.1114 416.009 16.0253 415.415L12.1481 413.276C11.0517 412.676 10.6658 411.305 11.2595 410.219L11.2492 410.213Z" stroke="#585960" style="stroke:#585960;stroke:color(display-p3 0.3469 0.3504 0.3750);stroke-opacity:1;" stroke-linecap="round" stroke-linejoin="round"/>
<path d="M16.9609 412.414L102.168 257.798C102.576 257.054 102.311 256.13 101.566 255.722L100.63 255.208" fill="#FCCD82" style="fill:#FCCD82;fill:color(display-p3 0.9882 0.8039 0.5098);fill-opacity:1;"/>
<path d="M16.9609 412.414L102.168 257.798C102.576 257.054 102.311 256.13 101.566 255.722L100.63 255.208" stroke="#585960" style="stroke:#585960;stroke:color(display-p3 0.3469 0.3504 0.3750);stroke-opacity:1;" stroke-linecap="round" stroke-linejoin="round"/>
<path d="M977.041 175.996L879 199.211L902.212 297.266L1000.25 274.051L977.041 175.996Z" fill="#FCCD82" style="fill:#FCCD82;fill:color(display-p3 0.9882 0.8039 0.5098);fill-opacity:1;"/>
<path d="M977.041 175.996L879 199.211L902.212 297.266L1000.25 274.051L977.041 175.996Z" stroke="#585960" style="stroke:#585960;stroke:color(display-p3 0.3469 0.3504 0.3750);stroke-opacity:1;" stroke-linecap="round" stroke-linejoin="round"/>
<path d="M1003.32 267.796C978.822 273.6 944.115 279.052 923.183 282.129C912.232 283.728 905.036 284.674 905.036 284.674C895.757 267.663 879.016 199.21 879.016 199.21L977.053 175.997C977.235 176.833 977.416 177.669 977.598 178.492C989.3 231.474 1003.32 267.796 1003.32 267.796Z" fill="#F3F0F0" style="fill:#F3F0F0;fill:color(display-p3 0.9529 0.9412 0.9412);fill-opacity:1;"/>
<path d="M1003.32 267.796C978.822 273.6 944.115 279.052 923.183 282.129C912.232 283.728 905.036 284.674 905.036 284.674C895.757 267.663 879.016 199.21 879.016 199.21L977.053 175.997C977.235 176.833 977.416 177.669 977.598 178.492C989.3 231.474 1003.32 267.796 1003.32 267.796Z" stroke="#585960" style="stroke:#585960;stroke:color(display-p3 0.3469 0.3504 0.3750);stroke-opacity:1;" stroke-linecap="round" stroke-linejoin="round"/>
<path d="M895.547 214.035C896.879 212.497 898.478 211.188 900.259 210.195C900.744 211.442 901.228 212.678 901.713 213.926C903.409 213.308 905.105 212.69 906.789 212.085C908.484 211.467 910.362 210.679 911.016 208.995C911.949 211.212 915.159 210.837 917.449 210.098C933.294 204.997 949.502 201.011 965.904 198.188" stroke="#585960" style="stroke:#585960;stroke:color(display-p3 0.3469 0.3504 0.3750);stroke-opacity:1;" stroke-linecap="round" stroke-linejoin="round"/>
<path d="M898.004 227.606C896.95 227.061 897.822 225.171 899.01 225.256C900.197 225.341 900.96 226.637 901.057 227.825C902.087 227.716 902.995 226.88 903.201 225.85C903.758 226.237 904.316 226.625 904.885 227.025C904.303 226.189 904.594 224.893 905.466 224.384C906.339 223.875 907.623 224.263 908.059 225.171C907.938 223.802 908.471 221.803 909.815 222.13C910.251 222.239 910.578 222.603 910.954 222.869C912.553 224.02 915.194 222.918 915.509 220.979C916.829 222.482 919.191 222.276 921.166 221.936C927.041 220.931 932.928 219.937 938.804 218.932C938.961 217.817 939.53 216.387 940.633 216.533C941.275 216.618 941.699 217.248 942.268 217.575C943.068 218.035 944.073 217.866 944.97 217.672C952.904 215.951 960.718 213.613 968.289 210.657" stroke="#585960" style="stroke:#585960;stroke:color(display-p3 0.3469 0.3504 0.3750);stroke-opacity:1;" stroke-linecap="round" stroke-linejoin="round"/>
<path d="M904.086 243.078C906.436 243.284 908.835 242.957 911.039 242.121C910.203 240.498 910.712 238.305 912.178 237.214C912.893 237.675 913.595 238.123 914.31 238.583C922.887 238.39 931.427 237.214 939.737 235.082C943.468 234.125 947.139 232.974 950.821 231.835C957.787 229.666 964.764 227.486 971.73 225.317" stroke="#585960" style="stroke:#585960;stroke:color(display-p3 0.3469 0.3504 0.3750);stroke-opacity:1;" stroke-linecap="round" stroke-linejoin="round"/>
<path d="M150.491 20.4559L45.8426 60.7254C40.8473 62.6471 36.8996 66.5974 34.9723 71.5954L24.6753 98.4008C24.2687 99.4578 24.96 100.625 26.0928 100.777C28.4727 101.09 30.7625 99.7307 31.6209 97.4937L41.1495 72.7292C42.3027 69.7487 44.6491 67.3788 47.6188 66.205L151.994 24.9544L150.491 20.4559Z" fill="#585960" style="fill:#585960;fill:color(display-p3 0.3469 0.3504 0.3750);fill-opacity:1;"/>
<path d="M6.85123 64.5168L115.424 36.55C120.611 35.2178 126.114 36.1396 130.585 39.091L154.535 54.9474C155.484 55.5793 155.595 56.9233 154.762 57.7088C153.001 59.3525 150.349 59.5655 148.349 58.239L126.212 43.6045C123.546 41.8397 120.257 41.2709 117.153 42.0409L8.2278 69.0582L6.83946 64.5197L6.85123 64.5168Z" fill="#585960" style="fill:#585960;fill:color(display-p3 0.3469 0.3504 0.3750);fill-opacity:1;"/>
<path d="M74.5922 55.5949C75.9972 55.5317 78.1299 64.6761 75.843 68.5393C73.5679 72.3997 68.6164 65.5766 68.767 62.6747C68.9176 59.7728 70.1947 55.8031 74.5894 55.5831L74.5922 55.5949Z" fill="#FCCD82" stroke="#585960" style="fill:#FCCD82;fill:color(display-p3 0.9882 0.8039 0.5098);fill-opacity:1;stroke:#585960;stroke:color(display-p3 0.3469 0.3504 0.3750);stroke-opacity:1;" stroke-linecap="round" stroke-linejoin="round"/>
<path d="M93.2485 49.8716C92.0518 50.5949 95.4189 59.3807 99.4674 61.2996C103.516 63.2185 103.786 54.7933 102.047 52.4818C100.309 50.1704 97.0103 47.5856 93.2485 49.8716Z" fill="#FCCD82" stroke="#585960" style="fill:#FCCD82;fill:color(display-p3 0.9882 0.8039 0.5098);fill-opacity:1;stroke:#585960;stroke:color(display-p3 0.3469 0.3504 0.3750);stroke-opacity:1;" stroke-linecap="round" stroke-linejoin="round"/>
<path opacity="0.5" d="M20.8448 45.7934C25.3753 39.5476 35.4555 28.344 50.5665 33.065C65.6803 37.7977 72.3064 45.2655 72.382 57.57C72.4577 69.8745 67.8685 87.3979 47.6174 89.393C27.3663 91.3881 6.77425 65.1815 20.8448 45.7934Z" fill="#FCCD82" style="fill:#FCCD82;fill:color(display-p3 0.9882 0.8039 0.5098);fill-opacity:1;"/>
<path opacity="0.5" d="M97.0089 23.5278C101.539 17.282 111.62 6.07837 126.731 10.7993C141.844 15.5321 148.47 22.9998 148.546 35.3044C148.622 47.6089 144.033 65.1323 123.781 67.1274C103.53 69.1225 82.9383 42.9159 97.0089 23.5278Z" fill="#FCCD82" style="fill:#FCCD82;fill:color(display-p3 0.9882 0.8039 0.5098);fill-opacity:1;"/>
<path d="M152.338 18.234L150.47 18.807C148.578 19.3857 146.512 18.8225 145.227 17.3117C137.531 8.34401 124.127 5.4934 112.037 9.20527C101.14 12.5435 92.5093 21.7919 90.0339 32.2916C89.3697 35.1299 87.3471 37.4469 84.5625 38.3022L75.2922 41.1503C72.5076 42.0056 69.5269 41.2134 67.3829 39.2361C59.4507 31.9323 47.1221 29.0977 36.2282 32.4477C24.1498 36.1567 14.6434 46.014 13.2904 57.7644C13.0634 59.7252 11.6731 61.3547 9.78131 61.9334L7.91312 62.5064C7.06737 62.7717 6.58305 63.6605 6.8512 64.5181L8.23956 69.0566C8.45635 69.7522 9.11601 70.2168 9.84492 70.1914L12.4769 70.2574C14.5449 70.3092 16.4316 71.526 17.2483 73.4232C23.2632 87.4793 39.082 95.0456 54.0158 90.4643C68.4279 86.0456 77.1702 71.8115 75.1786 57.3378C74.8539 54.9986 76.0802 52.6858 78.1708 51.5859C80.6481 50.2811 83.9925 48.955 87.9221 48.5102C90.2987 48.2388 92.6584 49.4541 93.7107 51.6063C100.154 64.7496 115.404 71.6552 129.827 67.2337C144.761 62.6524 153.612 47.5201 150.732 32.512C150.343 30.4749 151.22 28.4203 152.897 27.2078L155.045 25.6706C155.662 25.2856 155.955 24.5302 155.738 23.8347L154.349 19.2962C154.084 18.4503 153.195 17.9659 152.338 18.234ZM52.847 86.6332C38.9683 90.8865 24.2067 83.0539 19.9531 69.1731C15.6994 55.2923 23.53 40.5294 37.4087 36.276C51.2875 32.0227 66.049 39.8553 70.3027 53.7361C74.5564 67.6169 66.7258 82.3799 52.847 86.6332ZM73.171 49.9078C72.8491 49.1378 72.5066 48.3852 72.1315 47.6529C71.8256 47.0535 72.1469 46.316 72.7952 46.1105L89.4115 41.0133C90.0627 40.8196 90.7492 41.2404 90.8251 41.9199C90.9203 42.7319 91.0509 43.5353 91.2196 44.3421C82.9033 44.1578 76.4211 47.6699 73.1592 49.9106L73.171 49.9078ZM128.656 63.3908C114.777 67.6441 100.016 59.8115 95.7619 45.9307C91.5082 32.0499 99.3388 17.2869 113.218 13.0336C127.096 8.78031 141.858 16.6129 146.112 30.4937C150.365 44.3745 142.535 59.1374 128.656 63.3908Z" fill="#585960" stroke="#585960" style="fill:#585960;fill:color(display-p3 0.3469 0.3504 0.3750);fill-opacity:1;stroke:#585960;stroke:color(display-p3 0.3469 0.3504 0.3750);stroke-opacity:1;" stroke-linecap="round" stroke-linejoin="round"/>
</svg>
