<svg width="167" height="104" viewBox="0 0 167 104" fill="none" xmlns="http://www.w3.org/2000/svg">
<g id="Glasses">
<g id="Group">
<path id="Vector" d="M150.491 20.4559L45.8426 60.7254C40.8473 62.6471 36.8996 66.5974 34.9723 71.5954L24.6753 98.4008C24.2687 99.4578 24.96 100.625 26.0928 100.777C28.4727 101.09 30.7625 99.7307 31.6209 97.4937L41.1495 72.7292C42.3027 69.7487 44.6491 67.3788 47.6188 66.205L151.994 24.9544L150.491 20.4559Z" fill="#585960" style="fill:#585960;fill:color(display-p3 0.3469 0.3504 0.3750);fill-opacity:1;"/>
<path id="Vector_2" d="M6.85123 64.5168L115.424 36.55C120.611 35.2178 126.114 36.1396 130.585 39.091L154.535 54.9474C155.484 55.5793 155.595 56.9233 154.762 57.7088C153.001 59.3525 150.349 59.5655 148.349 58.239L126.212 43.6045C123.546 41.8397 120.257 41.2709 117.153 42.0409L8.2278 69.0582L6.83946 64.5197L6.85123 64.5168Z" fill="#585960" style="fill:#585960;fill:color(display-p3 0.3469 0.3504 0.3750);fill-opacity:1;"/>
<g id="Group_2">
<path id="Vector_3" d="M74.5922 55.5949C75.9972 55.5317 78.1299 64.6761 75.843 68.5393C73.5679 72.3997 68.6164 65.5766 68.767 62.6747C68.9176 59.7728 70.1947 55.8031 74.5894 55.5831L74.5922 55.5949Z" fill="#FCCD82" stroke="#585960" style="fill:#FCCD82;fill:color(display-p3 0.9882 0.8039 0.5098);fill-opacity:1;stroke:#585960;stroke:color(display-p3 0.3469 0.3504 0.3750);stroke-opacity:1;" stroke-linecap="round" stroke-linejoin="round"/>
<path id="Vector_4" d="M93.2485 49.8716C92.0518 50.5949 95.4189 59.3807 99.4674 61.2996C103.516 63.2185 103.786 54.7933 102.047 52.4818C100.309 50.1704 97.0103 47.5856 93.2485 49.8716Z" fill="#FCCD82" stroke="#585960" style="fill:#FCCD82;fill:color(display-p3 0.9882 0.8039 0.5098);fill-opacity:1;stroke:#585960;stroke:color(display-p3 0.3469 0.3504 0.3750);stroke-opacity:1;" stroke-linecap="round" stroke-linejoin="round"/>
</g>
<path id="Vector_5" opacity="0.5" d="M20.8448 45.7934C25.3753 39.5476 35.4555 28.344 50.5665 33.065C65.6803 37.7977 72.3064 45.2655 72.382 57.57C72.4577 69.8745 67.8685 87.3979 47.6174 89.393C27.3663 91.3881 6.77425 65.1815 20.8448 45.7934Z" fill="#FCCD82" style="fill:#FCCD82;fill:color(display-p3 0.9882 0.8039 0.5098);fill-opacity:1;"/>
<path id="Vector_6" opacity="0.5" d="M97.0089 23.5278C101.539 17.282 111.62 6.07837 126.731 10.7993C141.844 15.5321 148.47 22.9998 148.546 35.3044C148.622 47.6089 144.033 65.1323 123.781 67.1274C103.53 69.1225 82.9383 42.9159 97.0089 23.5278Z" fill="#FCCD82" style="fill:#FCCD82;fill:color(display-p3 0.9882 0.8039 0.5098);fill-opacity:1;"/>
<path id="Vector_7" d="M152.338 18.234L150.47 18.807C148.578 19.3857 146.512 18.8225 145.227 17.3117C137.531 8.34401 124.127 5.4934 112.037 9.20527C101.14 12.5435 92.5093 21.7919 90.0339 32.2916C89.3697 35.1299 87.3471 37.4469 84.5625 38.3022L75.2922 41.1503C72.5076 42.0056 69.5269 41.2134 67.3829 39.2361C59.4507 31.9323 47.1221 29.0977 36.2282 32.4477C24.1498 36.1567 14.6434 46.014 13.2904 57.7644C13.0634 59.7252 11.6731 61.3547 9.78131 61.9334L7.91312 62.5064C7.06737 62.7717 6.58305 63.6605 6.8512 64.5181L8.23956 69.0566C8.45635 69.7522 9.11601 70.2168 9.84492 70.1914L12.4769 70.2574C14.5449 70.3092 16.4316 71.526 17.2483 73.4232C23.2632 87.4793 39.082 95.0456 54.0158 90.4643C68.4279 86.0456 77.1702 71.8115 75.1786 57.3378C74.8539 54.9986 76.0802 52.6858 78.1708 51.5859C80.6481 50.2811 83.9925 48.955 87.9221 48.5102C90.2987 48.2388 92.6584 49.4541 93.7107 51.6063C100.154 64.7496 115.404 71.6552 129.827 67.2337C144.761 62.6524 153.612 47.5201 150.732 32.512C150.343 30.4749 151.22 28.4203 152.897 27.2078L155.045 25.6706C155.662 25.2856 155.955 24.5302 155.738 23.8347L154.349 19.2962C154.084 18.4503 153.195 17.9659 152.338 18.234ZM52.847 86.6332C38.9683 90.8865 24.2067 83.0539 19.9531 69.1731C15.6994 55.2923 23.53 40.5294 37.4087 36.276C51.2875 32.0227 66.049 39.8553 70.3027 53.7361C74.5564 67.6169 66.7258 82.3799 52.847 86.6332ZM73.171 49.9078C72.8491 49.1378 72.5066 48.3852 72.1315 47.6529C71.8256 47.0535 72.1469 46.316 72.7952 46.1105L89.4115 41.0133C90.0627 40.8196 90.7492 41.2404 90.8251 41.9199C90.9203 42.7319 91.0509 43.5353 91.2196 44.3421C82.9033 44.1578 76.4211 47.6699 73.1592 49.9106L73.171 49.9078ZM128.656 63.3908C114.777 67.6441 100.016 59.8115 95.7619 45.9307C91.5082 32.0499 99.3388 17.2869 113.218 13.0336C127.096 8.78031 141.858 16.6129 146.112 30.4937C150.365 44.3745 142.535 59.1374 128.656 63.3908Z" fill="#585960" stroke="#585960" style="fill:#585960;fill:color(display-p3 0.3469 0.3504 0.3750);fill-opacity:1;stroke:#585960;stroke:color(display-p3 0.3469 0.3504 0.3750);stroke-opacity:1;" stroke-linecap="round" stroke-linejoin="round"/>
</g>
</g>
</svg>
