<svg width="755" height="392" viewBox="0 0 755 392" fill="none" xmlns="http://www.w3.org/2000/svg">
<g clip-path="url(#clip0_4732_76093)">
<mask id="mask0_4732_76093" style="mask-type:luminance" maskUnits="userSpaceOnUse" x="1" y="1" width="746" height="340">
<path d="M2.42537 290.695H140.646V337.745V338.452H141.353H203.581H204.288V337.745V290.695H230.595H231.301V289.988V234.996V234.289H230.595H204.288V139.966V139.259H203.581H141.353H140.646V139.966V234.289H72.0167L174.8 5.66997L175.248 4.6736H174.155H109.033H108.578L108.39 5.08822L1.78191 240.01L1.71875 240.149V240.302V289.988V290.695H2.42537ZM468.625 291.794L468.629 291.786C475.131 280.408 478.37 267.096 478.37 251.88V91.7274C478.37 76.5102 475.131 63.2001 468.629 51.8211C462.151 40.4845 453.886 31.0832 443.835 23.6258C433.795 16.1771 422.464 10.674 409.847 7.11435C397.247 3.23826 384.959 1.29688 372.985 1.29688C361.011 1.29688 348.722 3.23846 336.122 7.11501C323.827 10.6749 312.5 16.1768 302.144 23.6194L302.136 23.6258C292.085 31.0832 283.82 40.4845 277.342 51.8211C270.839 63.2001 267.601 76.5102 267.601 91.7274V251.88C267.601 267.096 270.839 280.408 277.342 291.786L277.346 291.794C283.825 302.808 292.089 312.044 302.136 319.499L302.142 319.504L302.148 319.508C312.184 326.63 323.352 331.971 335.645 335.53L335.65 335.531C348.25 339.085 360.696 340.863 372.985 340.863C384.955 340.863 397.24 339.084 409.839 335.531C422.453 331.973 433.783 326.633 443.823 319.508L443.829 319.504L443.835 319.499C453.882 312.044 462.146 302.808 468.625 291.794ZM401.472 72.0066L401.485 72.0172L401.498 72.0273C405.577 75.1652 408.887 79.4123 411.419 84.7925C413.937 90.1431 415.211 96.6274 415.211 104.269V239.337C415.211 246.979 413.937 253.465 411.419 258.815C408.888 264.195 405.574 268.609 401.485 272.073C397.379 275.229 392.799 277.598 387.743 279.18C382.984 280.447 378.066 281.082 372.985 281.082C368.231 281.082 363.31 280.449 358.222 279.178C353.168 277.596 348.591 275.228 344.486 272.073C340.396 268.609 337.083 264.195 334.551 258.815C332.033 253.465 330.76 246.979 330.76 239.337V104.269C330.76 96.6274 332.033 90.1431 334.551 84.7925C337.083 79.4123 340.394 75.1652 344.473 72.0273L344.486 72.0172L344.499 72.0066C348.608 68.5291 353.188 66.0028 358.242 64.4234C363.327 62.8343 368.241 62.0437 372.985 62.0437C378.056 62.0437 382.965 62.8357 387.716 64.4195L387.729 64.4234C392.783 66.0028 397.362 68.5291 401.472 72.0066ZM517.788 290.695H656.009V337.745V338.452H656.715H718.943H719.65V337.745V290.695H745.957H746.664V289.988V234.996V234.289H745.957H719.65V139.966V139.259H718.943H656.715H656.009V139.966V234.289H587.379L690.162 5.66997L690.61 4.6736H689.518H624.396H623.94L623.752 5.08822L517.145 240.01L517.081 240.149V240.302V289.988V290.695H517.788Z" fill="white"/>
</mask>
<g mask="url(#mask0_4732_76093)">
<path d="M203.155 289.985V337.741H140.927V289.985H2V240.299L108.607 5.37672H173.73L70.4989 234.993H140.927V139.963H203.155V234.993H230.169V289.985H203.155Z" fill="url(#paint0_radial_4732_76093)"/>
<path d="M477.237 251.876C477.237 266.991 474.022 280.176 467.59 291.432C461.158 302.366 452.957 311.531 442.988 318.928C433.019 326.003 421.763 331.309 409.221 334.847C396.679 338.384 384.458 340.153 372.56 340.153C360.339 340.153 347.958 338.384 335.416 334.847C323.195 331.309 312.1 326.003 302.131 318.928C292.162 311.531 283.961 302.366 277.529 291.432C271.098 280.176 267.882 266.991 267.882 251.876V91.7239C267.882 76.6091 271.098 63.4239 277.529 52.1682C283.961 40.9125 292.162 31.5864 302.131 24.1898C312.422 16.7932 323.678 11.3261 335.898 7.78865C348.44 3.92955 360.661 2 372.56 2C384.458 2 396.679 3.92955 409.221 7.78865C421.763 11.3261 433.019 16.7932 442.988 24.1898C452.957 31.5864 461.158 40.9125 467.59 52.1682C474.022 63.4239 477.237 76.6091 477.237 91.7239V251.876ZM415.492 104.266C415.492 96.5478 414.206 89.9552 411.633 84.4881C409.06 79.0211 405.683 74.6796 401.503 71.4637C397.322 67.9262 392.659 65.3534 387.514 63.7455C382.69 62.1375 377.705 61.3336 372.56 61.3336C367.736 61.3336 362.751 62.1375 357.606 63.7455C352.46 65.3534 347.797 67.9262 343.616 71.4637C339.436 74.6796 336.059 79.0211 333.486 84.4881C330.914 89.9552 329.627 96.5478 329.627 104.266V239.334C329.627 247.052 330.914 253.645 333.486 259.112C336.059 264.579 339.436 269.081 343.616 272.619C347.797 275.835 352.46 278.247 357.606 279.855C362.751 281.141 367.736 281.784 372.56 281.784C377.705 281.784 382.69 281.141 387.514 279.855C392.659 278.247 397.322 275.835 401.503 272.619C405.683 269.081 409.06 264.579 411.633 259.112C414.206 253.645 415.492 247.052 415.492 239.334V104.266Z" fill="url(#paint1_radial_4732_76093)"/>
<path d="M718.518 289.985V337.741H656.29V289.985H517.362V240.299L623.97 5.37672H689.092L585.861 234.993H656.29V139.963H718.518V234.993H745.531V289.985H718.518Z" fill="url(#paint2_radial_4732_76093)"/>
<g opacity="0.6">
<path opacity="0.0512" d="M714.663 -119.523C416.844 -114.551 69.2232 -168.169 -3.55106 171.258C-164.517 922.02 559.29 1015.65 559.29 780.397C559.29 343.175 658.729 563.497 1012.36 308.685C1365.98 53.8737 1086.94 -125.738 714.663 -119.523Z" stroke="#717278" stroke-width="0.979384"/>
<path opacity="0.0925" d="M710.509 -97.1382C419.194 -96.866 80.08 -154.657 3.68246 176.151C-165.298 907.85 541.074 1010.57 544.7 780.511C551.438 352.945 645.284 569.933 995.027 326.2C1344.77 82.4662 1074.65 -97.4784 710.509 -97.1382Z" stroke="#717278" stroke-width="0.979384"/>
<path opacity="0.1338" d="M706.178 -75.2728C421.439 -79.4941 90.8748 -141.204 11.107 180.957C-165.327 893.53 523.507 1004.81 530.594 780.003C543.767 362.196 632.151 575.73 977.748 342.888C1323.34 110.046 1062.1 -69.9961 706.178 -75.2728Z" stroke="#717278" stroke-width="0.979384"/>
<path opacity="0.175" d="M701.69 -53.9298C423.595 -62.4373 101.617 -127.812 18.7324 185.68C-164.597 879.079 506.611 998.391 516.996 778.889C536.296 370.935 619.351 580.897 960.548 358.754C1301.75 136.61 1049.31 -43.2953 701.69 -53.9298Z" stroke="#717278" stroke-width="0.979384"/>
<path opacity="0.2163" d="M697.052 -33.0947C425.662 -45.6802 112.304 -114.463 26.5551 190.344C-163.11 864.532 490.392 991.351 503.908 777.197C529.03 379.183 606.89 585.46 943.439 373.818C1279.99 162.175 1036.29 -17.3628 697.052 -33.0947Z" stroke="#717278" stroke-width="0.979384"/>
<path opacity="0.2575" d="M692.279 -12.7832C427.654 -29.2375 122.94 -101.175 34.5785 194.936C-160.862 849.89 474.867 983.689 491.35 774.926C521.985 386.932 594.787 589.414 926.443 388.069C1258.1 186.724 1023.06 7.78476 692.279 -12.7832Z" stroke="#717278" stroke-width="0.979384"/>
<path opacity="0.2988" d="M687.38 6.99755C429.572 -13.1156 133.522 -87.9517 42.8025 199.458C-157.857 835.167 460.046 975.418 479.329 772.086C515.167 394.183 583.052 592.763 909.575 401.508C1236.1 210.253 1009.64 32.139 687.38 6.99755Z" stroke="#717278" stroke-width="0.979384"/>
<path opacity="0.34" d="M682.379 26.2437C431.435 2.68241 144.063 -74.7981 51.2356 203.913C-154.086 820.379 445.95 966.555 467.866 768.688C508.598 400.942 571.705 595.517 892.863 414.139C1214.02 232.761 996.058 55.6955 682.379 26.2437Z" stroke="#717278" stroke-width="0.979384"/>
<path opacity="0.3812" d="M677.274 44.9665C433.238 18.1682 154.553 -61.7023 59.8688 208.315C-149.56 805.554 432.58 957.127 456.961 764.756C502.275 407.226 560.749 597.695 876.313 425.976C1191.88 254.257 982.318 78.4645 677.274 44.9665Z" stroke="#717278" stroke-width="0.979384"/>
<path opacity="0.4225" d="M672.087 63.1665C434.998 33.3428 165 -48.6637 68.7095 212.673C-144.271 790.711 419.954 947.155 446.633 760.308C496.217 413.044 550.205 599.311 859.952 437.029C1169.7 274.747 968.449 100.446 672.087 63.1665Z" stroke="#717278" stroke-width="0.979384"/>
<path opacity="0.4638" d="M666.823 80.8327C436.713 48.1958 175.4 -35.6933 77.7526 216.981C-138.23 775.859 408.076 936.648 436.885 755.348C490.429 418.393 540.076 600.365 843.789 447.293C1147.5 294.22 954.461 121.629 666.823 80.8327Z" stroke="#717278" stroke-width="0.979384"/>
<path opacity="0.505" d="M661.503 97.9732C438.401 62.7353 185.762 -22.7836 87.0059 221.252C-131.428 761.024 396.966 925.632 427.737 749.899C484.927 423.29 530.383 600.878 827.852 456.783C1125.32 312.689 940.382 142.021 661.503 97.9732Z" stroke="#717278" stroke-width="0.979384"/>
<path opacity="0.5462" d="M656.133 114.583C440.061 76.9562 196.082 -9.94049 96.4648 225.487C-123.873 746.216 386.627 914.121 419.192 743.97C479.717 427.736 521.132 600.854 812.151 465.501C1103.17 330.148 926.223 161.616 656.133 114.583Z" stroke="#717278" stroke-width="0.979384"/>
<path opacity="0.5875" d="M650.724 130.658C441.701 90.8556 206.36 2.83206 106.128 229.686C-115.572 731.452 377.067 902.131 411.258 737.574C474.804 431.736 512.332 600.302 796.702 473.452C1081.07 346.602 912.003 180.411 650.724 130.658Z" stroke="#717278" stroke-width="0.979384"/>
<path opacity="0.6288" d="M645.288 146.214C443.327 104.448 216.598 15.5473 115.995 233.868C-106.524 716.761 368.296 889.695 403.945 730.739C470.201 435.312 503.995 599.248 781.522 480.656C1059.05 362.063 897.739 198.421 645.288 146.214Z" stroke="#717278" stroke-width="0.979384"/>
<path opacity="0.67" d="M639.844 161.234C444.954 117.717 226.803 28.1889 126.073 238.023C-96.7268 702.145 360.329 876.815 397.269 723.465C465.923 438.456 496.138 597.687 766.635 487.105C1037.13 376.523 883.457 215.63 639.844 161.234Z" stroke="#717278" stroke-width="0.979384"/>
<path opacity="0.7113" d="M634.403 175.721C446.587 130.665 236.977 40.7564 136.361 242.155C-86.1854 687.621 353.173 863.513 391.236 715.768C461.976 441.176 488.771 595.633 752.055 492.808C1015.34 389.984 869.173 232.04 634.403 175.721Z" stroke="#717278" stroke-width="0.979384"/>
<path opacity="0.7525" d="M628.969 189.685C448.225 143.302 247.112 53.2591 146.851 246.281C-74.9115 673.218 346.828 849.818 385.846 707.674C458.363 443.493 481.895 593.107 737.792 497.785C993.689 402.464 854.898 247.663 628.969 189.685Z" stroke="#717278" stroke-width="0.979384"/>
<path opacity="0.7937" d="M623.569 203.13C449.892 155.632 257.225 65.6985 157.557 250.407C-62.8948 658.953 341.317 835.753 381.124 699.202C455.107 445.417 475.534 590.125 723.876 502.047C972.218 413.968 840.666 262.504 623.569 203.13Z" stroke="#717278" stroke-width="0.979384"/>
<path opacity="0.835" d="M618.203 216.037C451.58 167.633 267.306 78.0542 168.466 254.516C-50.1518 644.823 336.634 821.314 377.064 690.345C452.203 446.934 469.688 586.678 710.312 505.58C950.935 424.482 826.481 276.542 618.203 216.037Z" stroke="#717278" stroke-width="0.979384"/>
<path opacity="0.8763" d="M612.882 228.436C453.298 179.337 277.355 90.3526 179.578 258.642C-36.6888 630.873 332.786 806.552 373.672 681.15C449.661 448.084 464.364 582.807 697.114 508.424C929.863 434.041 812.362 289.809 612.882 228.436Z" stroke="#717278" stroke-width="0.979384"/>
<path opacity="0.9175" d="M607.626 240.309C455.06 190.724 287.382 102.574 190.901 262.77C-22.5021 617.1 329.786 791.466 370.964 671.611C447.495 448.854 459.58 578.506 684.306 510.568C909.031 442.631 798.334 302.289 607.626 240.309Z" stroke="#717278" stroke-width="0.979384"/>
<path opacity="0.9588" d="M602.437 251.663C456.863 201.801 297.378 114.723 202.422 266.909C-7.60835 603.524 327.629 776.082 368.935 661.751C445.704 449.26 455.334 573.792 671.892 512.028C888.451 450.265 784.405 313.99 602.437 251.663Z" stroke="#717278" stroke-width="0.979384"/>
<path d="M597.34 262.506C458.727 212.574 307.358 126.803 214.154 271.07C8.00006 590.167 326.336 760.425 367.606 651.59C444.309 449.316 451.648 568.684 659.903 512.819C868.158 456.954 770.607 324.92 597.34 262.506Z" stroke="#717278" stroke-width="0.979384"/>
<path d="M592.337 272.831C460.649 223.037 317.314 138.805 226.087 275.247C24.3071 577.037 325.9 744.505 366.972 641.137C443.306 449.022 448.52 563.186 648.341 512.943C848.163 462.699 756.946 335.075 592.337 272.831Z" stroke="#717278" stroke-width="0.979384"/>
<path d="M587.446 282.654C462.644 233.202 327.255 150.742 238.228 279.458C41.313 564.16 326.334 728.356 367.046 630.42C442.711 448.4 445.965 557.325 637.231 512.422C828.496 467.519 743.449 344.47 587.446 282.654Z" stroke="#717278" stroke-width="0.979384"/>
<path d="M582.672 291.963C464.71 243.056 337.174 162.596 250.567 283.692C59.0032 551.538 327.633 711.982 367.825 619.439C442.523 447.443 443.985 551.098 626.577 511.253C809.17 471.409 730.124 353.096 582.672 291.963Z" stroke="#717278" stroke-width="0.979384"/>
<path d="M578.031 300.772C466.86 252.615 347.078 174.38 263.107 287.965C77.3757 539.198 329.807 695.419 369.319 608.228C442.754 446.178 442.589 544.532 616.4 509.46C790.21 474.389 716.995 360.969 578.031 300.772Z" stroke="#717278" stroke-width="0.979384"/>
<path d="M573.537 309.072C469.102 261.864 356.972 186.079 275.852 292.267C96.4249 527.141 332.861 678.669 371.535 596.784C443.414 444.596 441.79 537.625 606.715 507.04C771.64 476.455 704.081 368.082 573.537 309.072Z" stroke="#717278" stroke-width="0.979384"/>
<path d="M569.2 316.903C471.443 270.845 366.855 197.729 288.797 296.641C116.142 515.42 336.796 661.792 374.476 585.163C444.506 442.745 441.591 530.431 597.535 504.042C753.479 477.654 691.397 374.476 569.2 316.903Z" stroke="#717278" stroke-width="0.979384"/>
<path d="M565.023 324.222C473.88 279.511 376.721 209.283 301.932 301.043C136.509 504.002 341.607 644.76 378.137 573.335C446.029 440.589 441.991 522.914 588.865 500.431C735.739 477.949 678.953 380.11 565.023 324.222Z" stroke="#717278" stroke-width="0.979384"/>
<path d="M561.029 331.063C476.43 287.896 386.583 220.77 315.268 305.507C157.53 492.932 347.306 627.624 382.532 561.347C447.999 438.168 443.007 515.12 580.729 496.25C718.452 477.381 666.777 385.021 561.029 331.063Z" stroke="#717278" stroke-width="0.979384"/>
<path d="M557.224 337.424C479.099 295.996 396.438 232.184 328.799 310.031C179.193 482.217 353.892 610.398 387.661 549.209C450.421 435.485 444.643 507.056 573.138 491.506C701.633 475.955 654.881 389.209 557.224 337.424Z" stroke="#717278" stroke-width="0.979384"/>
<path d="M553.618 343.308C481.887 303.811 406.286 243.522 342.521 314.618C201.484 471.871 361.362 593.102 393.523 536.936C453.295 432.55 446.899 498.736 566.099 486.208C685.299 473.681 643.28 392.679 553.618 343.308Z" stroke="#717278" stroke-width="0.979384"/>
<path d="M550.222 348.714C484.806 311.338 416.13 254.778 356.435 319.266C224.397 461.902 369.72 575.75 400.124 524.541C456.631 429.369 449.784 490.168 559.628 480.366C669.471 470.565 631.993 395.434 550.222 348.714Z" stroke="#717278" stroke-width="0.979384"/>
<path d="M547.054 353.67C487.865 318.604 425.977 265.974 370.542 324.001C247.927 452.347 378.97 558.384 407.469 512.063C460.436 425.972 453.307 481.389 553.741 474.016C654.175 466.642 621.039 397.503 547.054 353.67Z" stroke="#717278" stroke-width="0.979384"/>
<path d="M544.122 358.15C491.07 325.58 435.828 277.079 384.84 328.796C272.063 443.186 389.112 540.995 415.561 499.487C464.716 422.341 457.473 472.383 548.45 467.138C639.427 461.893 610.436 398.862 544.122 358.15Z" stroke="#717278" stroke-width="0.979384"/>
<path d="M541.429 362.191C494.42 332.301 445.676 288.124 399.32 333.687C296.786 434.467 400.136 523.635 424.39 486.862C469.468 418.518 462.277 463.197 543.757 459.78C625.238 456.364 600.19 399.554 541.429 362.191Z" stroke="#717278" stroke-width="0.979384"/>
<path d="M538.984 365.775C497.919 338.747 455.523 299.085 413.978 338.655C322.086 426.179 412.04 506.301 433.958 474.183C474.693 414.491 467.723 453.822 539.674 451.933C611.625 450.044 590.316 399.561 538.984 365.775Z" stroke="#717278" stroke-width="0.979384"/>
<path d="M536.811 368.919C501.586 344.93 465.381 309.972 428.823 343.714C347.963 418.344 424.836 489.023 444.277 461.476C480.41 410.28 473.826 444.282 536.223 443.62C598.619 442.958 580.842 398.904 536.811 368.919Z" stroke="#717278" stroke-width="0.979384"/>
<path d="M534.909 371.635C505.417 350.863 475.243 320.792 443.845 348.873C374.396 410.982 438.51 471.828 455.338 448.766C486.612 405.903 480.581 434.6 533.404 434.863C586.226 435.127 571.774 397.599 534.909 371.635Z" stroke="#717278" stroke-width="0.979384"/>
</g>
</g>
</g>
<path d="M2 290.735H140.177V337.741V338.491H140.927H203.155H203.905V337.741V290.735H230.169H230.919V289.985V234.993V234.243H230.169H203.905V139.963V139.213H203.155H140.927H140.177V139.963V234.243H71.6584L174.414 5.68425L174.889 4.62672H173.73H108.607H108.124L107.924 5.06679L1.31703 239.989L1.25 240.137V240.299V289.985V290.735H2ZM468.236 291.812L468.241 291.804C474.748 280.418 477.987 267.1 477.987 251.876V91.7239C477.987 76.5005 474.748 63.1827 468.241 51.7961C461.76 40.4545 453.491 31.0486 443.435 23.5875C433.391 16.1356 422.055 10.6303 409.433 7.06922C396.83 3.1921 384.538 1.25 372.56 1.25C360.581 1.25 348.288 3.19228 335.684 7.06982C323.384 10.6311 312.053 16.1352 301.693 23.5807L301.684 23.5875C291.628 31.0486 283.359 40.4545 276.878 51.7961C270.372 63.1827 267.132 76.5005 267.132 91.7239V251.876C267.132 267.1 270.372 280.418 276.878 291.804L276.883 291.812C283.365 302.831 291.632 312.073 301.684 319.53L301.691 319.535L301.697 319.54C311.738 326.665 322.909 332.007 335.207 335.567L335.212 335.569C347.816 339.124 360.266 340.903 372.56 340.903C384.534 340.903 396.823 339.123 409.425 335.569C422.044 332.009 433.378 326.667 443.422 319.54L443.429 319.535L443.435 319.53C453.487 312.073 461.755 302.831 468.236 291.812ZM401.018 72.0362L401.032 72.0475L401.046 72.0581C405.119 75.1913 408.425 79.4326 410.954 84.8075C413.469 90.1509 414.742 96.6286 414.742 104.266V239.334C414.742 246.972 413.469 253.449 410.954 258.793C408.425 264.167 405.116 268.576 401.031 272.035C396.93 275.188 392.356 277.554 387.305 279.134C382.551 280.4 377.636 281.034 372.56 281.034C367.809 281.034 362.893 280.402 357.808 279.132C352.759 277.552 348.187 275.186 344.088 272.035C340.003 268.576 336.694 264.167 334.165 258.793C331.65 253.449 330.377 246.972 330.377 239.334V104.266C330.377 96.6286 331.65 90.1509 334.165 84.8075C336.694 79.4326 340.001 75.1913 344.074 72.0581L344.088 72.0475L344.101 72.0362C348.206 68.5624 352.781 66.0389 357.829 64.4613C362.911 62.8734 367.82 62.0836 372.56 62.0836C377.625 62.0836 382.53 62.8749 387.276 64.457L387.283 64.4592L387.29 64.4613C392.338 66.0389 396.913 68.5624 401.018 72.0362ZM517.362 290.735H655.54V337.741V338.491H656.29H718.518H719.268V337.741V290.735H745.531H746.281V289.985V234.993V234.243H745.531H719.268V139.963V139.213H718.518H656.29H655.54V139.963V234.243H587.021L689.776 5.68425L690.251 4.62672H689.092H623.97H623.486L623.287 5.06679L516.679 239.989L516.612 240.137V240.299V289.985V290.735H517.362Z" stroke="url(#paint3_linear_4732_76093)" stroke-width="1.5"/>
<g clip-path="url(#clip1_4732_76093)">
<path d="M721.06 140.14H638.4L632 84H714.66L721.06 140.14Z" fill="#D7D7D7"/>
<path d="M716.55 136.366H642.05L636.5 87.7656H711.01L716.55 136.366Z" fill="#65666D"/>
<path d="M670.539 113.339L669.349 114.759L657.629 104.639L658.819 103.219L670.539 113.339Z" fill="#FFA469"/>
<path d="M667.52 103.219L669.16 104.639L660.64 114.759L659 113.339L667.52 103.219Z" fill="#FFA469"/>
<path d="M695.6 113.339L694.41 114.759L682.68 104.639L683.88 103.219L695.6 113.339Z" fill="#FFA469"/>
<path d="M692.579 103.219L694.219 104.639L685.699 114.759L684.059 113.339L692.579 103.219Z" fill="#FFA469"/>
<path d="M656.129 123.07L655.809 121.07H701.239L701.559 123.07H656.129Z" fill="#FFA469"/>
<path d="M745.32 136.375H638.98V140.145H745.32V136.375Z" fill="#D7D7D7"/>
<path d="M754.29 136.375H662.07V140.145H754.29V136.375Z" fill="#D7D7D7"/>
<path d="M711.28 90.1156L711.01 87.7656H636.5L636.77 90.1156H711.28Z" fill="#65666D"/>
<path d="M642.782 88.9416C642.822 89.2616 643.082 89.5316 643.372 89.5316C643.662 89.5316 643.872 89.2716 643.832 88.9416C643.792 88.6216 643.532 88.3516 643.242 88.3516C642.952 88.3516 642.742 88.6116 642.782 88.9416Z" fill="#D7D7D7"/>
<path d="M640.622 88.9416C640.662 89.2616 640.922 89.5316 641.212 89.5316C641.502 89.5316 641.712 89.2716 641.672 88.9416C641.632 88.6216 641.372 88.3516 641.082 88.3516C640.792 88.3516 640.582 88.6116 640.622 88.9416Z" fill="white"/>
<path d="M638.462 88.9416C638.502 89.2616 638.762 89.5316 639.052 89.5316C639.342 89.5316 639.552 89.2716 639.512 88.9416C639.472 88.6216 639.212 88.3516 638.922 88.3516C638.632 88.3516 638.422 88.6116 638.462 88.9416Z" fill="#FFA469"/>
</g>
<g clip-path="url(#clip2_4732_76093)">
<path d="M362.062 333.826C363.032 335.936 359.212 351.136 358.022 354.246C356.832 357.356 352.632 374.776 350.592 375.526C348.552 376.276 338.662 376.066 337.262 375.526C335.862 374.986 337.262 372.016 338.872 370.976C340.482 369.936 342.402 368.336 342.402 368.336C342.402 368.336 339.512 341.446 340.052 338.436C340.592 335.426 359.452 328.116 362.062 333.816V333.826Z" fill="#FCCD82"/>
<path opacity="0.5" d="M341.381 374.354C341.491 373.834 341.711 373.304 342.031 372.864C342.351 372.424 342.731 372.034 343.171 371.714C343.571 371.414 344.081 371.114 344.591 371.024C344.661 371.014 344.711 371.094 344.661 371.144C344.481 371.314 344.281 371.444 344.111 371.624C343.931 371.794 343.761 371.974 343.591 372.154C343.261 372.504 342.991 372.894 342.741 373.314C342.491 373.734 342.261 374.154 342.051 374.584C341.841 375.024 341.711 375.494 341.541 375.954C341.511 376.044 341.371 376.054 341.351 375.954C341.231 375.434 341.291 374.884 341.401 374.374L341.381 374.354Z" fill="#FFA469"/>
<path opacity="0.5" d="M338.482 372.773C339.002 371.803 339.912 371.113 340.902 370.663C340.962 370.633 341.032 370.713 340.972 370.763C340.242 371.393 339.522 372.073 339.052 372.933C338.592 373.783 338.342 374.843 338.672 375.783C338.682 375.823 338.622 375.843 338.602 375.813C337.972 374.913 337.972 373.723 338.482 372.773Z" fill="#FFA469"/>
<path opacity="0.5" d="M340.914 353.268L354.504 366.128C356.004 361.198 357.404 355.838 358.014 354.248C359.214 351.128 363.024 335.938 362.064 333.818C359.454 328.128 340.584 335.438 340.054 338.448C339.804 339.868 340.304 346.568 340.914 353.268Z" fill="#FFA469"/>
<path d="M413.383 349.022C413.933 349.542 419.283 344.482 420.103 342.112C420.923 339.742 417.503 333.052 418.133 331.912C418.763 330.772 421.683 329.862 423.193 331.612C424.703 333.362 428.583 342.952 427.773 347.052C426.963 351.152 418.713 360.312 417.853 360.262C416.993 360.212 413.383 349.012 413.383 349.012V349.022Z" fill="#FCCD82"/>
<path opacity="0.5" d="M413.381 349.019C413.381 349.019 416.991 360.219 417.841 360.259C418.471 360.289 423.051 355.409 425.781 351.179L418.291 344.859C416.411 347.089 413.751 349.369 413.371 349.019H413.381Z" fill="#FFA469"/>
<path d="M383.16 302.75H338.76C338.76 302.75 335.46 331.99 335.82 335.86C336.18 339.73 355.69 368.4 361.75 372.1C367.89 375.85 402.58 375.98 411.04 374.12C417.62 372.67 423.11 364.28 420.38 351.34C419.19 345.69 403.77 332.21 401.62 329.63C399.47 327.05 383.16 302.76 383.16 302.76V302.75Z" fill="#C7C7C7"/>
<path d="M335.821 335.86C336.181 339.73 355.691 368.4 361.751 372.1C367.891 375.85 402.571 375.98 411.041 374.12C417.611 372.67 423.111 364.27 420.371 351.33C419.181 345.68 403.771 332.2 401.621 329.62C400.301 328.04 393.681 318.32 388.741 311.02C385.611 306.4 383.161 302.75 383.161 302.75H338.761C338.761 302.75 337.931 310.09 337.151 317.9C336.371 325.68 335.641 333.93 335.821 335.86Z" fill="#FCCD82"/>
<path opacity="0.5" d="M337.152 317.9C361.012 325.26 382.232 314.79 388.742 311.02C385.612 306.4 383.162 302.75 383.162 302.75H338.762C338.762 302.75 337.932 310.09 337.152 317.9Z" fill="#FFA469"/>
<path d="M411.889 349.933C411.889 349.933 399.669 342.263 391.099 343.653C382.529 345.043 379.509 362.633 383.609 372.543C383.609 372.543 375.789 374.863 375.789 378.643C375.789 380.793 380.259 381.483 386.699 381.323C393.149 381.173 405.959 381.043 406.239 379.423C406.519 377.803 405.399 375.573 405.399 375.573C405.399 375.573 416.969 374.273 419.239 366.613C421.509 358.953 413.819 351.243 411.889 349.943V349.933Z" fill="#FCCD82"/>
<path opacity="0.5" d="M395.2 373.404C398.44 374.794 401.98 375.464 405.49 375.694C405.56 375.694 405.58 375.814 405.5 375.814C401.87 376.224 398.31 375.314 395.16 373.484C395.11 373.454 395.15 373.374 395.2 373.394V373.404Z" fill="#FFA469"/>
<path opacity="0.5" d="M380.809 381.36C381.129 379.9 382.269 378.74 383.469 377.92C384.169 377.44 384.929 377.06 385.729 376.78C386.639 376.47 387.599 376.3 388.519 376.01C388.599 375.99 388.649 376.1 388.569 376.12C387.779 376.39 387.009 376.79 386.269 377.18C385.529 377.57 384.799 378 384.109 378.47C382.909 379.29 381.999 380.34 381.119 381.47C381.029 381.59 380.779 381.53 380.819 381.36H380.809Z" fill="#FFA469"/>
<path opacity="0.5" d="M382.4 375.298C382.48 375.288 382.51 375.398 382.43 375.418C380.07 376.288 378.18 378.368 377.17 380.638C377.13 380.738 376.95 380.738 376.97 380.608C377.28 377.798 379.67 375.698 382.41 375.298H382.4Z" fill="#FFA469"/>
<path opacity="0.5" d="M378.582 374.741C378.582 374.741 378.602 374.801 378.632 374.791C378.832 374.751 381.022 373.281 383.442 372.581C383.642 372.931 383.852 373.281 384.082 373.621C384.122 373.691 384.232 373.631 384.192 373.561C382.672 370.511 382.062 367.071 382.052 363.681C382.052 361.881 382.182 360.061 382.372 358.271C382.372 358.261 382.372 358.251 382.372 358.241C382.832 355.081 383.742 351.991 385.272 349.221C386.202 347.501 387.402 345.841 389.042 344.881C390.682 343.931 392.732 343.781 394.692 343.861C396.682 343.961 398.662 344.391 400.592 344.951C402.532 345.481 404.442 346.181 406.312 346.971C402.742 345.051 398.872 343.541 394.752 343.101C392.702 342.901 390.512 343.041 388.592 344.091C386.692 345.181 385.402 346.941 384.392 348.731C382.452 352.411 381.492 356.511 381.322 360.611C381.302 361.081 381.282 361.561 381.282 362.031V362.051C381.252 362.681 381.242 363.301 381.262 363.931C381.342 366.891 381.942 369.861 383.372 372.461C381.202 372.901 379.942 373.521 378.582 374.741Z" fill="#FFA469"/>
<path d="M376.41 337.576C377.38 339.686 373.56 354.886 372.37 357.996C371.18 361.106 366.98 378.526 364.94 379.276C362.9 380.026 353.01 379.816 351.61 379.276C350.21 378.736 351.61 375.766 353.22 374.726C354.83 373.686 356.75 372.086 356.75 372.086C356.75 372.086 353.86 345.196 354.4 342.186C354.94 339.176 373.8 331.866 376.41 337.566V337.576Z" fill="#FCCD82"/>
<path opacity="0.5" d="M369.74 366.434C370.65 363.694 371.84 361.044 372.75 358.304C372.79 358.194 372.96 358.244 372.93 358.354C372.23 360.554 371.69 362.814 371.04 365.034C371.14 364.884 371.22 364.734 371.32 364.584C371.89 363.704 372.6 362.834 372.89 361.814C372.92 361.704 373.1 361.754 373.07 361.864C372.94 362.344 372.71 362.764 372.48 363.204C372.22 363.694 371.95 364.184 371.69 364.674C371.35 365.314 370.97 365.934 370.59 366.544C370.58 366.584 370.57 366.634 370.55 366.674C369.64 369.424 368.73 372.154 367.52 374.794C367.46 374.934 367.25 374.874 367.28 374.724C367.91 371.904 368.84 369.184 369.75 366.434H369.74Z" fill="#FFA469"/>
<path opacity="0.1" d="M354.019 346.492C354.019 346.432 354.129 346.412 354.139 346.482C354.429 348.522 354.549 350.582 354.759 352.632C354.969 354.762 355.229 356.882 355.469 359.012C355.939 363.242 356.639 367.462 356.979 371.702C356.989 371.882 356.669 371.902 356.629 371.732C355.509 367.642 355.019 363.432 354.579 359.252C354.359 357.172 354.229 355.092 354.129 353.012C354.019 350.852 353.899 348.662 354.029 346.502L354.019 346.492Z" fill="#46474E"/>
<path opacity="0.5" d="M355.241 377.893C355.351 377.363 355.571 376.843 355.891 376.403C356.211 375.963 356.591 375.573 357.031 375.253C357.431 374.953 357.941 374.653 358.451 374.563C358.521 374.553 358.571 374.633 358.521 374.683C358.341 374.853 358.141 374.983 357.971 375.163C357.791 375.333 357.621 375.513 357.451 375.693C357.121 376.043 356.851 376.433 356.601 376.853C356.351 377.273 356.121 377.693 355.911 378.123C355.701 378.563 355.571 379.033 355.401 379.493C355.371 379.583 355.231 379.593 355.211 379.493C355.091 378.973 355.151 378.433 355.261 377.913L355.241 377.893Z" fill="#FFA469"/>
<path opacity="0.5" d="M352.349 376.312C352.869 375.342 353.779 374.652 354.769 374.202C354.829 374.172 354.899 374.252 354.839 374.302C354.109 374.932 353.389 375.612 352.919 376.472C352.459 377.322 352.209 378.382 352.539 379.322C352.549 379.362 352.489 379.382 352.469 379.352C351.839 378.452 351.829 377.262 352.349 376.312Z" fill="#FFA469"/>
<path d="M355.751 262.1C356.231 260.35 351.851 254.14 350.181 252.05C348.511 249.96 339.321 246.84 336.391 248.44C335.241 249.07 333.101 253.49 330.211 257.32C325.731 263.26 320.501 269.49 322.401 271.17C327.011 275.24 337.511 268.82 340.921 266.67C344.331 264.51 347.451 261.89 348.281 261.99C349.381 262.11 351.681 263.85 352.601 263.95C354.791 264.19 355.751 262.11 355.751 262.11V262.1Z" fill="#FCCD82"/>
<path opacity="0.5" d="M355.751 262.1C356.231 260.35 351.851 254.14 350.181 252.05C348.511 249.96 339.321 246.84 336.391 248.44C335.241 249.07 333.101 253.49 330.211 257.32C325.731 263.26 320.501 269.49 322.401 271.17C327.011 275.24 337.511 268.82 340.921 266.67C344.331 264.51 347.451 261.89 348.281 261.99C349.381 262.11 351.681 263.85 352.601 263.95C354.791 264.19 355.751 262.11 355.751 262.11V262.1Z" fill="#FFA469"/>
<path d="M376.932 255.895C387.662 262.305 392.422 279.375 392.712 282.105C392.952 284.335 398.062 292.205 397.152 300.675C396.562 306.125 386.782 313.355 378.822 313.285C377.362 313.275 364.962 317.765 354.502 317.045C344.042 316.325 336.112 308.895 335.802 308.265C335.492 307.635 327.012 306.405 326.482 297.665C325.632 283.705 339.882 259.905 343.962 256.655C350.712 251.275 369.652 251.545 376.942 255.905L376.932 255.895Z" fill="#FCCD82"/>
<path d="M371.881 263.251C371.671 261.351 377.251 255.641 379.321 253.751C381.401 251.861 391.461 250.141 394.241 252.301C395.331 253.151 396.821 258.081 399.181 262.541C402.831 269.441 407.231 276.771 404.981 278.201C399.521 281.661 389.691 273.251 386.511 270.451C383.331 267.651 380.531 264.411 379.661 264.371C378.501 264.311 375.821 265.731 374.851 265.691C372.531 265.581 371.881 263.261 371.881 263.261V263.251Z" fill="#FCCD82"/>
<path opacity="0.5" d="M371.881 263.251C371.671 261.351 377.251 255.641 379.321 253.751C381.401 251.861 391.461 250.141 394.241 252.301C395.331 253.151 396.821 258.081 399.181 262.541C402.831 269.441 407.231 276.771 404.981 278.201C399.521 281.661 389.691 273.251 386.511 270.451C383.331 267.651 380.531 264.411 379.661 264.371C378.501 264.311 375.821 265.731 374.851 265.691C372.531 265.581 371.881 263.261 371.881 263.261V263.251Z" fill="#FFA469"/>
<path opacity="0.5" d="M352.281 287.221C358.861 287.281 361.861 294.331 362.651 296.161C363.441 298.001 367.501 302.201 367.611 306.591C367.721 310.981 359.381 315.891 350.571 314.331C341.811 312.791 337.161 307.851 337.211 303.381C337.251 299.791 340.641 296.681 341.011 295.741C341.381 294.791 346.281 287.161 352.281 287.211V287.221Z" fill="#FFA469"/>
<path opacity="0.5" d="M368.459 299.602C369.339 300.602 370.079 301.712 370.669 302.912C371.269 304.112 371.729 305.382 371.959 306.732C372.169 308.072 372.159 309.542 371.529 310.832C371.229 311.472 370.779 312.032 370.249 312.482C369.699 312.902 369.089 313.212 368.459 313.402C369.559 312.662 370.429 311.692 370.809 310.532C371.209 309.382 371.179 308.122 370.969 306.892C370.779 305.652 370.379 304.432 369.949 303.222C369.499 302.012 368.999 300.812 368.449 299.602H368.459Z" fill="#FFA469"/>
<path opacity="0.5" d="M338.311 296.969C337.741 297.679 337.201 298.359 336.701 299.069C336.221 299.779 335.741 300.489 335.431 301.249C335.091 301.999 334.891 302.789 334.851 303.609C334.811 304.439 335.041 305.249 335.311 306.119C334.691 305.479 334.181 304.619 334.071 303.659C333.951 302.699 334.141 301.719 334.511 300.849C334.891 299.979 335.451 299.219 336.101 298.569C336.741 297.919 337.471 297.359 338.301 296.969H338.311Z" fill="#FFA469"/>
<path d="M441.122 391.151C430.342 391.151 418.462 390.971 406.512 390.751C400.352 390.641 395.482 390.551 392.452 390.551C376.932 390.551 372.462 370.591 368.142 351.291C367.542 348.601 366.932 345.911 366.302 343.261C365.072 338.101 364.052 332.881 363.062 327.841C360.022 312.231 357.382 298.761 350.512 298.021C341.422 297.051 333.332 310.641 330.382 331.851L328.402 331.581C331.512 309.221 340.482 294.921 350.722 296.031C359.062 296.921 361.822 311.071 365.022 327.461C366.002 332.481 367.012 337.681 368.242 342.801C368.872 345.451 369.482 348.161 370.082 350.851C374.422 370.231 378.522 388.541 392.442 388.541C395.502 388.541 400.372 388.631 406.542 388.741C420.062 388.991 438.572 389.341 454.242 389.031C479.662 388.531 482.672 386.531 482.982 385.921C482.972 381.761 456.142 376.751 446.042 374.871C435.832 372.971 435.432 372.891 435.552 371.641C435.652 370.521 436.902 370.521 438.792 370.521L475.51 370.911C492.5 370.911 492.02 306.898 494.56 295.598C495.29 292.358 495.86 289.788 496.49 288.468C499.43 282.348 506.87 283.238 507.18 283.278L506.92 285.258C506.66 285.228 500.6 284.518 498.29 289.328C497.75 290.438 497.18 293.028 496.5 296.028C493.84 307.918 495 372.911 476 372.911L444.302 372.521C444.982 372.651 445.682 372.781 446.392 372.911C470.812 377.471 484.952 381.071 484.952 386.001C484.952 386.361 484.842 386.901 484.302 387.431C481.322 390.351 463.652 391.151 441.092 391.151H441.122Z" fill="#F3F0F0"/>
<path d="M323.472 329.659L323.031 337.016L335.289 337.75L335.73 330.394L323.472 329.659Z" fill="#E8E8E8"/>
<path d="M325.925 327.469L325.785 329.805L333.431 330.263L333.571 327.927L325.925 327.469Z" fill="#D7D7D7"/>
<path d="M325.649 337.179L325.312 342.789L326.75 342.875L327.086 337.265L325.649 337.179Z" fill="#F3F0F0"/>
<path d="M331.2 337.507L330.863 343.117L332.301 343.203L332.637 337.593L331.2 337.507Z" fill="#F3F0F0"/>
<path d="M516.71 278H511.34V290.28H516.71V278Z" fill="#F3F0F0"/>
<path d="M511.34 280.312H507V287.973H511.34V280.312Z" fill="#E8E8E8"/>
<path d="M343.93 297.909C343.93 297.909 346.54 300.929 347.55 300.289C348.56 299.649 351.09 293.699 351.09 293.699C351.09 293.699 351.69 301.269 353.65 301.469C355.6 301.679 358.94 298.689 358.94 298.689L351.05 293.219L343.93 297.899V297.909Z" fill="#FCCD82"/>
<path d="M343.93 297.909C343.93 297.909 346.54 300.929 347.55 300.289C348.56 299.649 351.09 293.699 351.09 293.699C351.09 293.699 351.69 301.269 353.65 301.469C355.6 301.679 358.94 298.689 358.94 298.689L351.05 293.219L343.93 297.899V297.909Z" fill="#FDB976"/>
<path opacity="0.5" d="M382.632 288.51C383.402 286.11 383.682 283.54 383.432 280.97C383.322 279.68 383.012 278.39 382.522 277.14C382.272 276.52 381.952 275.92 381.562 275.35C381.182 274.78 380.732 274.24 380.222 273.77C379.972 273.53 379.692 273.32 379.402 273.11C379.112 272.91 378.812 272.75 378.522 272.58L378.072 272.33L377.602 272.13C377.282 272.01 376.982 271.85 376.642 271.77C375.332 271.38 373.972 271.27 372.662 271.39C370.032 271.62 367.582 272.64 365.582 274.18C367.942 273.34 370.362 272.81 372.712 272.87C373.872 272.93 375.032 273.06 376.082 273.47C376.352 273.55 376.592 273.7 376.852 273.8L377.232 273.97L377.592 274.19C377.832 274.34 378.082 274.47 378.302 274.63C378.522 274.8 378.732 274.96 378.932 275.15C379.752 275.87 380.392 276.81 380.872 277.85C381.382 278.88 381.702 280.02 381.972 281.18C382.462 283.53 382.612 285.99 382.612 288.5L382.632 288.51Z" fill="#FFA469"/>
<path opacity="0.5" d="M333.851 283.404C334.011 281.264 334.311 279.184 334.901 277.254C335.501 275.334 336.471 273.574 337.951 272.494C338.311 272.214 338.721 272.004 339.131 271.804C339.521 271.634 339.941 271.514 340.391 271.454C341.301 271.324 342.291 271.384 343.281 271.514C345.281 271.824 347.291 272.424 349.341 273.084C348.521 272.374 347.601 271.794 346.651 271.274C346.171 271.024 345.681 270.784 345.171 270.574C344.661 270.374 344.141 270.184 343.601 270.034C342.531 269.724 341.381 269.554 340.181 269.654C339.581 269.714 338.971 269.844 338.381 270.094C337.831 270.344 337.301 270.624 336.821 271.004C335.851 271.724 335.091 272.684 334.561 273.714C334.021 274.744 333.691 275.844 333.511 276.944C333.151 279.134 333.261 281.354 333.851 283.424V283.404Z" fill="#FFA469"/>
<path d="M366.342 285.37C366.372 285.26 366.592 285.52 366.582 285.65C366.342 288.66 366.632 292.15 369.582 293.29C369.672 293.33 369.652 293.48 369.542 293.46C365.912 292.83 365.582 288.19 366.332 285.38L366.342 285.37Z" fill="#46474E"/>
<path d="M369.431 282.345C374.771 282.205 374.761 291.955 369.811 292.085C364.941 292.205 364.951 282.455 369.431 282.345Z" fill="#46474E"/>
<path d="M345.712 283.001C345.702 282.881 345.442 283.121 345.432 283.241C345.252 286.261 344.472 289.671 341.402 290.381C341.302 290.401 341.302 290.551 341.412 290.551C345.092 290.441 346.072 285.891 345.712 283.001Z" fill="#46474E"/>
<path d="M343.072 279.572C337.802 278.692 336.452 288.352 341.332 289.162C346.132 289.962 347.482 280.302 343.072 279.572Z" fill="#46474E"/>
<path d="M350.891 293.424C351.841 293.734 358.421 291.644 357.921 289.654C357.381 287.494 348.111 286.984 346.951 288.384C345.791 289.784 349.901 293.094 350.891 293.424Z" fill="#46474E"/>
<path d="M359.102 298.582C358.042 299.352 356.952 300.102 355.752 300.682C355.162 300.962 354.502 301.212 353.932 301.202C353.552 301.282 353.232 300.762 353.022 300.272C352.582 299.272 352.372 298.162 352.182 297.082C351.982 295.992 351.872 294.882 351.762 293.782L351.452 290.742L350.542 293.692C350.262 294.602 349.932 295.512 349.602 296.422C349.252 297.322 348.892 298.222 348.422 299.062C348.302 299.272 348.172 299.472 348.032 299.662C347.892 299.852 347.732 300.042 347.572 300.142C347.462 300.232 347.252 300.232 347.012 300.202C346.782 300.132 346.532 300.042 346.302 299.902C345.372 299.352 344.622 298.552 343.922 297.772C344.412 298.652 344.992 299.512 345.932 300.232C346.162 300.412 346.462 300.572 346.802 300.682C346.992 300.722 347.172 300.782 347.392 300.762C347.582 300.782 347.862 300.712 348.032 300.612C348.372 300.432 348.572 300.222 348.772 300.012C348.962 299.802 349.122 299.582 349.272 299.362C349.872 298.492 350.302 297.582 350.702 296.672C351.112 295.762 351.442 294.842 351.752 293.902L350.532 293.812C350.602 294.952 350.782 296.062 350.992 297.192C351.092 297.752 351.242 298.312 351.412 298.872C351.592 299.432 351.772 299.992 352.072 300.542C352.232 300.812 352.392 301.092 352.662 301.362C352.802 301.492 352.962 301.632 353.202 301.742C353.322 301.792 353.452 301.842 353.612 301.852C353.772 301.882 353.852 301.852 353.982 301.852C354.892 301.782 355.532 301.422 356.142 301.082C357.322 300.352 358.282 299.502 359.122 298.582H359.102Z" fill="#46474E"/>
</g>
<defs>
<radialGradient id="paint0_radial_4732_76093" cx="0" cy="0" r="1" gradientUnits="userSpaceOnUse" gradientTransform="translate(374 291) rotate(90) scale(381.5 381.5)">
<stop stop-color="#62646F"/>
<stop offset="1" stop-color="#46474E"/>
</radialGradient>
<radialGradient id="paint1_radial_4732_76093" cx="0" cy="0" r="1" gradientUnits="userSpaceOnUse" gradientTransform="translate(374 291) rotate(90) scale(381.5 381.5)">
<stop stop-color="#62646F"/>
<stop offset="1" stop-color="#46474E"/>
</radialGradient>
<radialGradient id="paint2_radial_4732_76093" cx="0" cy="0" r="1" gradientUnits="userSpaceOnUse" gradientTransform="translate(374 291) rotate(90) scale(381.5 381.5)">
<stop stop-color="#62646F"/>
<stop offset="1" stop-color="#46474E"/>
</radialGradient>
<linearGradient id="paint3_linear_4732_76093" x1="404.5" y1="312" x2="374" y2="2.00001" gradientUnits="userSpaceOnUse">
<stop stop-color="#46474E"/>
<stop offset="1" stop-color="#636571"/>
<stop offset="1" stop-color="#62646F"/>
</linearGradient>
<clipPath id="clip0_4732_76093">
<rect width="744" height="339" fill="white" transform="translate(2 2)"/>
</clipPath>
<clipPath id="clip1_4732_76093">
<rect width="122.29" height="56.14" fill="white" transform="translate(632 84)"/>
</clipPath>
<clipPath id="clip2_4732_76093">
<rect width="200.39" height="143.15" fill="white" transform="translate(322 248)"/>
</clipPath>
</defs>
</svg>
