<svg width="748" height="342" viewBox="0 0 748 342" fill="none" xmlns="http://www.w3.org/2000/svg">
<path d="M2 290.735H140.177V337.741V338.491H140.927H203.155H203.905V337.741V290.735H230.169H230.919V289.985V234.993V234.243H230.169H203.905V139.963V139.213H203.155H140.927H140.177V139.963V234.243H71.6584L174.414 5.68425L174.889 4.62672H173.73H108.607H108.124L107.924 5.06679L1.31703 239.989L1.25 240.137V240.299V289.985V290.735H2ZM468.236 291.812L468.241 291.804C474.748 280.418 477.987 267.1 477.987 251.876V91.7239C477.987 76.5005 474.748 63.1827 468.241 51.7961C461.76 40.4545 453.491 31.0486 443.435 23.5875C433.391 16.1356 422.055 10.6303 409.433 7.06922C396.83 3.1921 384.538 1.25 372.56 1.25C360.581 1.25 348.288 3.19228 335.684 7.06982C323.384 10.6311 312.053 16.1352 301.693 23.5807L301.684 23.5875C291.628 31.0486 283.359 40.4545 276.878 51.7961C270.372 63.1827 267.132 76.5005 267.132 91.7239V251.876C267.132 267.1 270.372 280.418 276.878 291.804L276.883 291.812C283.365 302.831 291.632 312.073 301.684 319.53L301.691 319.535L301.697 319.54C311.738 326.665 322.909 332.007 335.207 335.567L335.212 335.569C347.816 339.124 360.266 340.903 372.56 340.903C384.534 340.903 396.823 339.123 409.425 335.569C422.044 332.009 433.378 326.667 443.422 319.54L443.429 319.535L443.435 319.53C453.487 312.073 461.755 302.831 468.236 291.812ZM401.018 72.0362L401.032 72.0475L401.046 72.0581C405.119 75.1913 408.425 79.4326 410.954 84.8075C413.469 90.1509 414.742 96.6286 414.742 104.266V239.334C414.742 246.972 413.469 253.449 410.954 258.793C408.425 264.167 405.116 268.576 401.031 272.035C396.93 275.188 392.356 277.554 387.305 279.134C382.551 280.4 377.636 281.034 372.56 281.034C367.809 281.034 362.893 280.402 357.808 279.132C352.759 277.552 348.187 275.186 344.088 272.035C340.003 268.576 336.694 264.167 334.165 258.793C331.65 253.449 330.377 246.972 330.377 239.334V104.266C330.377 96.6286 331.65 90.1509 334.165 84.8075C336.694 79.4326 340.001 75.1913 344.074 72.0581L344.088 72.0475L344.101 72.0362C348.206 68.5624 352.781 66.0389 357.829 64.4613C362.911 62.8734 367.82 62.0836 372.56 62.0836C377.625 62.0836 382.53 62.8749 387.276 64.457L387.283 64.4592L387.29 64.4613C392.338 66.0389 396.913 68.5624 401.018 72.0362ZM517.362 290.735H655.54V337.741V338.491H656.29H718.518H719.268V337.741V290.735H745.531H746.281V289.985V234.993V234.243H745.531H719.268V139.963V139.213H718.518H656.29H655.54V139.963V234.243H587.021L689.776 5.68425L690.251 4.62672H689.092H623.97H623.486L623.287 5.06679L516.679 239.989L516.612 240.137V240.299V289.985V290.735H517.362Z" stroke="url(#paint0_linear_4732_76144)" stroke-width="1.5"/>
<defs>
<linearGradient id="paint0_linear_4732_76144" x1="404.5" y1="312" x2="374" y2="2.00001" gradientUnits="userSpaceOnUse">
<stop stop-color="#46474E"/>
<stop offset="1" stop-color="#636571"/>
<stop offset="1" stop-color="#62646F"/>
</linearGradient>
</defs>
</svg>
