<svg width="172" height="26" viewBox="0 0 172 26" fill="none" xmlns="http://www.w3.org/2000/svg">
<g id="_&#208;&#161;&#208;&#187;&#208;&#190;&#208;&#185;_1" clip-path="url(#clip0_1078_34381)">
<g id="Vector">
<path d="M5.67761 9.75308L3.80927 11.9042V16.4722H0.046875V0.162837H3.80927V6.53062L9.2086 0.162837H13.6566L8.16302 6.78773L13.9394 16.4637H9.53428L5.66904 9.74451L5.67761 9.75308Z" fill="#46474E"/>
<path d="M19.5873 0.162837V16.4722H15.8249V0.162837H19.5873Z" fill="#46474E"/>
<path d="M35.3225 11.69C35.3397 12.4356 35.1597 13.1727 34.7997 13.8326C34.4483 14.4411 33.9684 14.9639 33.3942 15.3581C32.76 15.7866 32.0572 16.1037 31.3116 16.2837C30.4888 16.4894 29.6404 16.5922 28.7919 16.5922C28.2091 16.5922 27.6263 16.558 27.0521 16.498C26.5036 16.438 25.9551 16.318 25.4323 16.1551C24.8924 15.9837 24.3696 15.7523 23.8811 15.4695C23.3326 15.1524 22.8269 14.7839 22.3556 14.3725L24.4639 11.6043C25.0895 12.1185 25.8008 12.5299 26.555 12.8213C27.2321 13.0784 27.952 13.2069 28.6719 13.2155C29.109 13.2241 29.5461 13.1812 29.9746 13.0698C30.2746 13.0013 30.5574 12.8727 30.8145 12.7013C31.0031 12.5813 31.1573 12.4099 31.2602 12.2213C31.3459 12.0671 31.3887 11.8957 31.3887 11.7243C31.3887 11.5014 31.3287 11.2872 31.2087 11.0986C31.0545 10.8844 30.8488 10.713 30.6088 10.593C30.2489 10.4044 29.8718 10.2416 29.4861 10.1216C29.0233 9.96734 28.4405 9.78736 27.7463 9.59881C27.0607 9.41884 26.3836 9.18744 25.7323 8.90461C25.1923 8.67321 24.6953 8.35611 24.2496 7.96187C23.8554 7.60192 23.5383 7.14769 23.3411 6.65061C23.1183 6.06782 23.0155 5.45076 23.0326 4.82512C23.024 4.13092 23.1697 3.44529 23.4697 2.82822C23.7611 2.23687 24.181 1.72264 24.7038 1.31127C25.2695 0.874178 25.9123 0.548504 26.5979 0.351385C27.3864 0.111415 28.192 0 29.0062 0C29.9489 0 30.8831 0.0857037 31.8087 0.257111C32.8457 0.479941 33.8227 0.908459 34.6797 1.50839L33 4.53373C32.3572 4.09664 31.6373 3.7881 30.8831 3.60813C30.2489 3.47957 29.6061 3.41958 28.9547 3.41958C28.4491 3.40244 27.952 3.49671 27.4978 3.71954C27.1293 3.90809 26.915 4.29376 26.9407 4.70513C26.9407 4.90225 27.0007 5.09937 27.1207 5.26221C27.2835 5.4679 27.4892 5.63073 27.7206 5.75072C28.0806 5.93927 28.4491 6.09353 28.8348 6.21352C29.289 6.36778 29.8546 6.53062 30.5145 6.71917C31.3887 6.93343 32.2286 7.2591 33.0257 7.67905C33.5827 7.97044 34.0713 8.36468 34.4826 8.83605C34.8083 9.23029 35.0397 9.69309 35.1597 10.1816C35.2711 10.6701 35.3311 11.1758 35.3225 11.6814V11.69Z" fill="#46474E"/>
<path d="M37.5765 0.162837H48.958V3.49671H41.3389V6.57347H47.8438V9.90735H41.3389V13.1212H48.958V16.4551H37.5765V0.162837Z" fill="#46474E"/>
<path d="M51.4434 16.4722V0.162837H55.1544V13.1298H62.8934V16.4637H51.4434V16.4722Z" fill="#46474E"/>
<path d="M64.4275 0.162837H75.809V3.49671H68.1899V6.57347H74.6948V9.90735H68.1899V13.1212H75.809V16.4551H64.4275V0.162837Z" fill="#46474E"/>
<path d="M84.3793 10.9786L86.0334 5.08223L87.4561 0.162837H91.3813L86.1963 16.4637H82.3396L77.1117 0.162837H81.1312L82.5967 5.1765L84.2336 10.9701H84.3708L84.3793 10.9786Z" fill="#46474E"/>
<path d="M109.876 15.3667C109.431 15.6666 108.951 15.9152 108.445 16.1123C107.974 16.3008 107.476 16.4294 106.979 16.5151C105.771 16.7208 104.537 16.6608 103.363 16.3266C102.626 16.1294 101.931 15.8123 101.306 15.3838C100.689 14.9639 100.183 14.4068 99.806 13.764C99.4032 13.0527 99.2061 12.2471 99.2232 11.4329V5.34791C99.2061 4.53373 99.3946 3.72811 99.7803 3.0082C100.14 2.35685 100.646 1.78264 101.246 1.33698C101.863 0.882748 102.557 0.539933 103.294 0.334244C104.04 0.111415 104.82 0 105.608 0C106.585 0 107.562 0.145696 108.505 0.411378C109.396 0.642778 110.228 1.07987 110.93 1.67979L109.105 4.59372C108.616 4.1652 108.025 3.8481 107.391 3.68526C106.834 3.53956 106.268 3.46243 105.702 3.46243C105.385 3.46243 105.068 3.51385 104.76 3.60813C104.443 3.7024 104.151 3.8481 103.885 4.04521C103.611 4.2509 103.388 4.51659 103.234 4.82512C103.054 5.20221 102.968 5.60502 102.986 6.02497V10.6358C102.968 11.0472 103.054 11.4586 103.226 11.8357C103.371 12.1356 103.577 12.4099 103.843 12.6156C104.091 12.8127 104.374 12.9584 104.683 13.0527C104.983 13.1469 105.3 13.1984 105.617 13.1984C105.917 13.1984 106.217 13.1555 106.508 13.0784C106.825 12.9927 107.125 12.8384 107.374 12.6327V10.4301H105.128V7.2591H111.136V14.244C110.785 14.6896 110.356 15.0753 109.885 15.3838L109.876 15.3667Z" fill="#46474E"/>
<path d="M121.172 0.162837C121.96 0.137126 122.749 0.291393 123.469 0.608496C124.069 0.882748 124.6 1.28556 125.02 1.79121C125.423 2.27972 125.723 2.84536 125.894 3.46243C126.074 4.07093 126.168 4.70513 126.168 5.33934C126.168 5.77643 126.1 6.21352 125.98 6.6249C125.851 7.05341 125.68 7.47336 125.449 7.85903C125.217 8.25327 124.934 8.62179 124.609 8.94747C124.283 9.28171 123.906 9.5731 123.495 9.81307L126.408 16.4637H122.389L119.929 10.4559H117.607V16.4637H113.844V0.162837H121.181H121.172ZM117.598 7.16483H120.392C120.949 7.21625 121.498 7.01913 121.892 6.63347C122.2 6.27351 122.363 5.81071 122.355 5.33934C122.406 4.37089 121.669 3.54813 120.701 3.49671C120.598 3.49671 120.495 3.49671 120.383 3.50528H117.59V7.1734L117.598 7.16483Z" fill="#46474E"/>
<path d="M140.79 11.3129C140.807 12.1271 140.635 12.9241 140.267 13.6526C139.932 14.3039 139.453 14.8696 138.87 15.3067C138.261 15.7609 137.576 16.0952 136.839 16.3008C136.05 16.5237 135.227 16.6351 134.405 16.6351C133.582 16.6351 132.768 16.5237 131.988 16.3008C131.259 16.0952 130.565 15.7609 129.957 15.3067C129.365 14.8696 128.885 14.3039 128.551 13.6526C128.191 12.9241 128.011 12.1185 128.028 11.3129V5.18507C128.003 4.37946 128.2 3.57384 128.594 2.8625C128.962 2.2283 129.468 1.67979 130.068 1.25127C130.685 0.822756 131.379 0.497081 132.108 0.308533C132.853 0.102844 133.625 0 134.396 0C135.176 0 135.947 0.111415 136.701 0.334244C137.439 0.539933 138.133 0.874178 138.758 1.31984C139.367 1.74836 139.864 2.314 140.224 2.96535C140.61 3.68526 140.798 4.49087 140.781 5.30506V11.3129H140.79ZM137.027 6.00783C137.036 5.59645 136.959 5.18507 136.787 4.80798C136.65 4.50801 136.444 4.24233 136.187 4.02807C135.939 3.83096 135.656 3.67669 135.347 3.59099C135.047 3.49671 134.739 3.45386 134.422 3.44529C134.105 3.44529 133.788 3.49671 133.488 3.59099C133.179 3.68526 132.896 3.83096 132.648 4.02807C132.382 4.23376 132.176 4.50801 132.031 4.80798C131.859 5.18507 131.782 5.59645 131.791 6.00783V10.6187C131.773 11.0301 131.859 11.4414 132.031 11.8185C132.176 12.1185 132.382 12.3928 132.648 12.5984C132.896 12.7956 133.179 12.9413 133.488 13.0355C133.788 13.1298 134.105 13.1812 134.422 13.1812C134.739 13.1812 135.047 13.1298 135.347 13.0355C135.656 12.9498 135.939 12.7956 136.187 12.5984C136.444 12.3842 136.65 12.1185 136.787 11.8185C136.959 11.4414 137.036 11.0301 137.027 10.6187V6.00783Z" fill="#46474E"/>
<path d="M155.745 13.6269C155.393 14.2782 154.896 14.8525 154.305 15.2981C153.688 15.7523 153.002 16.0952 152.265 16.3008C151.502 16.5237 150.714 16.6351 149.917 16.6351C149.12 16.6351 148.331 16.5322 147.569 16.318C146.832 16.1209 146.146 15.7952 145.529 15.3495C144.938 14.921 144.441 14.3639 144.089 13.7212C143.712 13.0013 143.523 12.2042 143.549 11.39V0.162837H147.312V10.6701C147.303 11.0815 147.38 11.4929 147.552 11.8614C147.697 12.1614 147.903 12.4356 148.169 12.6413C148.417 12.8384 148.7 12.9841 149.008 13.0784C149.308 13.1727 149.626 13.2241 149.943 13.2241C150.26 13.2241 150.568 13.1727 150.868 13.0784C151.177 12.9927 151.46 12.8384 151.708 12.6413C151.965 12.427 152.171 12.1614 152.308 11.8614C152.48 11.4843 152.557 11.0815 152.548 10.6701V0.162837H156.31V11.2872C156.328 12.1014 156.148 12.907 155.771 13.6269H155.745Z" fill="#46474E"/>
<path d="M166.286 0.162837C167.092 0.137126 167.889 0.291393 168.635 0.599926C169.243 0.865607 169.792 1.26841 170.22 1.77407C170.632 2.26258 170.932 2.81965 171.12 3.42815C171.309 4.04521 171.403 4.69656 171.403 5.34791C171.403 5.99926 171.291 6.65061 171.06 7.26767C170.589 8.53609 169.629 9.55596 168.395 10.0959C167.692 10.3959 166.929 10.5501 166.166 10.533H162.918V16.4722H159.156V0.162837H166.286ZM162.91 7.19054H165.678C166.235 7.25053 166.792 7.05341 167.195 6.65061C167.495 6.28208 167.658 5.81928 167.641 5.34791C167.649 4.87654 167.495 4.41374 167.203 4.04521C166.801 3.64241 166.244 3.44529 165.678 3.50528H162.91V7.19911V7.19054Z" fill="#46474E"/>
</g>
<g id="&#208;&#161;&#208;&#179;&#209;&#128;&#209;&#131;&#208;&#191;&#208;&#191;&#208;&#184;&#209;&#128;&#208;&#190;&#208;&#178;&#208;&#176;&#209;&#130;&#209;&#140; 11383">
<path id="&#208;&#154;&#208;&#190;&#208;&#189;&#209;&#130;&#209;&#131;&#209;&#128; 8382" d="M89.8509 25.0404C89.9366 24.989 90.0051 24.9205 90.0651 24.8433C90.1337 24.7576 90.1851 24.6633 90.2194 24.5605C90.2622 24.4234 90.2965 24.2862 90.3137 24.1491C90.3394 23.9863 90.3565 23.7977 90.3651 23.5749L90.4508 22.1094H92.9362V25.0319H93.219V26.4374H92.6534V25.5547H90.1594V26.4374H89.5938V25.049L89.8337 25.0319L89.8509 25.0404ZM90.9822 22.6407L90.9393 23.5492C90.9307 23.8492 90.8964 24.1491 90.8536 24.4405C90.8193 24.6462 90.7508 24.8519 90.6393 25.0319H92.3534V22.6407H90.9822Z" fill="#46474E"/>
<path id="&#208;&#154;&#208;&#190;&#208;&#189;&#209;&#130;&#209;&#131;&#209;&#128; 8383" d="M94.8619 22.6478V23.582C94.8619 23.8819 94.8362 24.1819 94.7762 24.4733C94.7334 24.679 94.6562 24.8761 94.5448 25.0561C94.4506 25.2018 94.3306 25.3303 94.1934 25.4246C94.0563 25.5189 93.902 25.596 93.7478 25.6646L93.5078 25.1846C93.6278 25.1332 93.7392 25.0646 93.8506 24.9961C93.9535 24.9275 94.0306 24.8332 94.0906 24.7304C94.1592 24.5933 94.2106 24.439 94.2277 24.2847C94.262 24.0448 94.2791 23.7962 94.2706 23.5563V22.125H96.6617V25.5703H96.0618V22.6564H94.8619V22.6478Z" fill="#46474E"/>
<path id="&#208;&#154;&#208;&#190;&#208;&#189;&#209;&#130;&#209;&#131;&#209;&#128; 8384" d="M97.3919 23.1721C97.3919 23.0264 97.4176 22.8893 97.469 22.7522C97.5205 22.6236 97.589 22.5122 97.6833 22.4179C97.7776 22.3236 97.8976 22.2465 98.0175 22.1951C98.1547 22.1351 98.3089 22.1094 98.4632 22.1094H100.092V25.5547H99.4916V24.132H98.746C98.6089 24.132 98.4718 24.1663 98.3518 24.2348C98.2147 24.3377 98.129 24.4834 98.1118 24.6462L97.9061 25.5547H97.2891L97.5119 24.6205C97.5462 24.4834 97.5976 24.3548 97.6662 24.2348C97.7347 24.1148 97.8376 24.0291 97.9661 23.9949C97.7861 23.9434 97.6319 23.832 97.529 23.6778C97.4348 23.5321 97.3833 23.3521 97.3833 23.1807L97.3919 23.1721ZM97.9661 23.155C97.949 23.3007 98.0175 23.4378 98.1375 23.5149C98.2661 23.5835 98.4118 23.6178 98.5575 23.6092H99.5002V22.6236H98.5403C98.3946 22.6236 98.2575 22.6664 98.1461 22.7522C98.0261 22.8464 97.9576 22.9921 97.9661 23.1464V23.155Z" fill="#46474E"/>
<path id="&#208;&#154;&#208;&#190;&#208;&#189;&#209;&#130;&#209;&#131;&#209;&#128; 8385" d="M104.582 25.221C104.368 25.3496 104.145 25.4438 103.914 25.521C103.76 25.5638 103.605 25.581 103.442 25.5895C103.151 25.6067 102.86 25.5038 102.645 25.3067C102.44 25.1096 102.328 24.8354 102.345 24.544C102.345 24.3726 102.388 24.2097 102.474 24.064C102.56 23.9355 102.663 23.8326 102.791 23.7469C102.92 23.6698 103.057 23.6098 103.203 23.5755C103.331 23.5412 103.46 23.5241 103.597 23.5241H104.608V23.2584C104.634 23.0699 104.557 22.8727 104.402 22.7528C104.231 22.6499 104.025 22.5985 103.828 22.6071C103.682 22.6071 103.528 22.6242 103.391 22.6585C103.194 22.7013 103.014 22.7956 102.868 22.9242L102.577 22.4699C102.774 22.3071 103.005 22.1957 103.254 22.1357C103.46 22.0843 103.674 22.0586 103.888 22.0586C104.248 22.0328 104.608 22.1357 104.891 22.3585C105.122 22.5985 105.242 22.9327 105.217 23.267V25.5467H104.685L104.617 25.2296L104.599 25.2124L104.582 25.221ZM104.599 24.0212H103.691C103.614 24.0212 103.528 24.0212 103.451 24.0383C103.365 24.0469 103.288 24.0726 103.211 24.1069C103.134 24.1412 103.074 24.2011 103.031 24.2697C102.98 24.3554 102.954 24.4497 102.954 24.5525C102.945 24.6982 103.005 24.8354 103.125 24.9296C103.254 25.0153 103.408 25.0582 103.562 25.0582C103.657 25.0582 103.751 25.041 103.837 25.0239C103.931 24.9982 104.025 24.9725 104.111 24.9296C104.197 24.8953 104.282 24.8525 104.368 24.8096L104.599 24.6897V24.0383V24.0212Z" fill="#46474E"/>
<path id="&#208;&#154;&#208;&#190;&#208;&#189;&#209;&#130;&#209;&#131;&#209;&#128; 8386" d="M108.613 24.5098C108.613 24.6384 108.587 24.7669 108.544 24.8869C108.501 25.0155 108.433 25.1269 108.338 25.2212C108.244 25.324 108.124 25.4097 107.996 25.4611C107.841 25.5211 107.679 25.5554 107.516 25.5469H105.836V22.1016H107.499C107.661 22.1016 107.816 22.1273 107.961 22.1787C108.081 22.2215 108.193 22.2987 108.287 22.3844C108.373 22.4701 108.441 22.5729 108.476 22.6843C108.518 22.7958 108.536 22.9243 108.536 23.0443C108.536 23.1814 108.501 23.31 108.441 23.43C108.261 23.43 108.116 23.5842 108.116 23.7642C108.116 23.9442 108.27 24.0899 108.45 24.0899C108.467 24.0899 108.476 24.0899 108.493 24.0899C108.561 24.2184 108.596 24.3641 108.604 24.5098H108.613ZM107.944 23.0614C107.953 22.9329 107.893 22.8043 107.773 22.7358C107.661 22.6672 107.533 22.6329 107.404 22.6329H106.436V23.4814H107.439C107.567 23.4814 107.696 23.4471 107.807 23.37C107.901 23.2928 107.953 23.1729 107.944 23.0529V23.0614ZM108.004 24.5098C108.004 24.3727 107.953 24.2356 107.841 24.1499C107.739 24.0642 107.61 24.0213 107.473 24.0213H106.436V25.0241H107.413C107.576 25.0412 107.739 24.9898 107.867 24.8869C107.961 24.7841 108.013 24.647 108.004 24.5098Z" fill="#46474E"/>
<path id="&#208;&#154;&#208;&#190;&#208;&#189;&#209;&#130;&#209;&#131;&#209;&#128; 8387" d="M110.641 22.6407V25.5547H110.024V22.6407H108.961V22.1094H111.721V22.6407H110.649H110.641Z" fill="#46474E"/>
<path id="&#208;&#154;&#208;&#190;&#208;&#189;&#209;&#130;&#209;&#131;&#209;&#128; 8388" d="M114.986 24.3407C114.986 24.5207 114.952 24.7092 114.875 24.8721C114.797 25.0263 114.695 25.1635 114.557 25.2663C114.42 25.3777 114.266 25.4549 114.103 25.5063C113.923 25.5663 113.743 25.592 113.555 25.592C113.366 25.592 113.178 25.5663 112.998 25.5063C112.835 25.4549 112.681 25.3691 112.552 25.2663C112.423 25.1549 112.321 25.0263 112.252 24.8721C112.175 24.7092 112.141 24.5207 112.141 24.3407V23.338C112.141 23.158 112.175 22.9694 112.261 22.8066C112.338 22.6523 112.441 22.5238 112.569 22.4124C112.706 22.301 112.852 22.2152 113.023 22.1638C113.203 22.1038 113.392 22.0781 113.58 22.0781C113.778 22.0781 113.966 22.1038 114.155 22.1638C114.317 22.2152 114.472 22.301 114.609 22.4124C114.737 22.5238 114.84 22.6523 114.909 22.8066C114.977 22.978 115.02 23.158 115.012 23.338V24.3407H114.986ZM114.386 23.4494C114.386 23.3208 114.36 23.1923 114.309 23.0723C114.266 22.9694 114.198 22.8837 114.112 22.8152C114.035 22.7552 113.94 22.7038 113.846 22.678C113.752 22.6523 113.658 22.6352 113.563 22.6352C113.46 22.6352 113.366 22.6523 113.272 22.678C113.178 22.7038 113.083 22.7552 113.006 22.8152C112.921 22.8837 112.852 22.9694 112.809 23.0723C112.758 23.1923 112.732 23.3208 112.732 23.4494V24.2207C112.732 24.3493 112.749 24.4778 112.801 24.5978C112.843 24.6921 112.903 24.7778 112.981 24.8464C113.058 24.9149 113.143 24.9578 113.246 24.9835C113.349 25.0092 113.46 25.0263 113.572 25.0263C113.666 25.0263 113.76 25.0092 113.855 24.9835C113.949 24.9578 114.043 24.9063 114.12 24.8464C114.206 24.7778 114.275 24.6921 114.317 24.5978C114.369 24.4778 114.395 24.3493 114.395 24.2207V23.4494H114.386Z" fill="#46474E"/>
<path id="&#208;&#154;&#208;&#190;&#208;&#189;&#209;&#130;&#209;&#131;&#209;&#128; 8389" d="M118.517 23.3778L118.14 24.0891L117.592 25.0662H117.18L116.726 24.252L116.298 23.4292H116.272V25.5547H115.672V22.1094H116.22L116.915 23.4206L117.395 24.3548L117.883 23.4292L118.603 22.1094H119.143V25.5547H118.543V23.3778H118.509H118.517Z" fill="#46474E"/>
<path id="&#208;&#154;&#208;&#190;&#208;&#189;&#209;&#130;&#209;&#131;&#209;&#128; 8390" d="M122.02 25.221C121.806 25.3496 121.583 25.4438 121.351 25.521C121.197 25.5638 121.043 25.581 120.88 25.5895C120.589 25.6067 120.297 25.5038 120.083 25.3067C119.877 25.1096 119.766 24.8354 119.783 24.544C119.783 24.3726 119.826 24.2097 119.912 24.064C119.997 23.9355 120.1 23.8326 120.229 23.7469C120.357 23.6698 120.494 23.6098 120.64 23.5755C120.769 23.5412 120.897 23.5241 121.034 23.5241H122.046V23.2584C122.071 23.0699 121.994 22.8813 121.84 22.7528C121.668 22.6499 121.463 22.5985 121.266 22.6071C121.12 22.6071 120.966 22.6242 120.82 22.6585C120.623 22.7013 120.443 22.7956 120.297 22.9242L120.006 22.4699C120.203 22.3071 120.434 22.1957 120.683 22.1357C120.889 22.0843 121.103 22.0586 121.317 22.0586C121.677 22.0328 122.037 22.1357 122.32 22.3585C122.551 22.5985 122.671 22.9327 122.645 23.267V25.5467H122.123L122.054 25.2296L122.037 25.2124L122.02 25.221ZM122.037 24.0212H121.129C121.051 24.0212 120.966 24.0212 120.889 24.0383C120.803 24.0469 120.726 24.0726 120.649 24.1069C120.571 24.1412 120.511 24.2011 120.46 24.2697C120.409 24.3554 120.383 24.4497 120.391 24.5525C120.383 24.6982 120.443 24.8354 120.563 24.9296C120.691 25.0153 120.846 25.0582 121 25.0582C121.094 25.0582 121.189 25.041 121.274 25.0239C121.368 24.9982 121.463 24.9725 121.548 24.9296C121.634 24.8953 121.72 24.8525 121.806 24.8096L122.037 24.6897V24.0383V24.0212Z" fill="#46474E"/>
<path id="&#208;&#154;&#208;&#190;&#208;&#189;&#209;&#130;&#209;&#131;&#209;&#128; 8391" d="M124.734 22.6407V25.5547H124.117V22.6407H123.055V22.1094H125.814V22.6407H124.743H124.734Z" fill="#46474E"/>
<path id="&#208;&#154;&#208;&#190;&#208;&#189;&#209;&#130;&#209;&#131;&#209;&#128; 8392" d="M126.852 24.5955L127.366 23.8071L128.523 22.1101H129.089V25.5554H128.472V23.0614H128.438L127.915 23.8585L126.775 25.5469H126.227V22.1016H126.826V24.587H126.861L126.852 24.5955Z" fill="#46474E"/>
<path id="&#208;&#154;&#208;&#190;&#208;&#189;&#209;&#130;&#209;&#131;&#209;&#128; 8393" d="M129.886 24.7443C130.015 24.8557 130.161 24.9328 130.315 24.9757C130.461 25.0271 130.615 25.0528 130.761 25.0528C130.889 25.0528 131.009 25.0442 131.138 25.0099C131.223 24.9842 131.309 24.95 131.378 24.89C131.438 24.8471 131.481 24.7871 131.515 24.7186C131.541 24.6586 131.558 24.59 131.558 24.53C131.558 24.3843 131.498 24.2472 131.369 24.1615C131.232 24.0758 131.069 24.0329 130.906 24.0329H130.435V23.5358H130.923C131.078 23.5444 131.232 23.5016 131.352 23.3987C131.455 23.313 131.506 23.193 131.506 23.0645C131.506 22.9188 131.429 22.7902 131.301 22.7302C131.155 22.6617 131.001 22.6188 130.838 22.6274C130.692 22.6274 130.555 22.6445 130.418 22.6874C130.272 22.7302 130.135 22.8074 130.015 22.9102L129.646 22.4988C129.809 22.3446 130.006 22.2332 130.221 22.1646C130.435 22.096 130.658 22.0703 130.872 22.0703C131.052 22.0703 131.232 22.096 131.395 22.1474C131.532 22.1903 131.66 22.2589 131.772 22.3531C131.866 22.4388 131.943 22.5417 131.995 22.6531C132.046 22.7645 132.072 22.8931 132.072 23.0216C132.072 23.0816 132.072 23.1416 132.055 23.2016C132.046 23.2702 132.02 23.3387 131.986 23.4073C131.952 23.4844 131.9 23.5444 131.84 23.6044C131.763 23.673 131.678 23.7244 131.583 23.7587C131.678 23.793 131.772 23.8529 131.849 23.9215C131.969 24.0329 132.055 24.1872 132.089 24.35C132.098 24.41 132.106 24.47 132.106 24.53C132.106 24.6757 132.08 24.8214 132.02 24.95C131.96 25.0785 131.875 25.1899 131.772 25.2842C131.652 25.387 131.506 25.4642 131.352 25.507C131.163 25.567 130.966 25.5927 130.769 25.5842C130.546 25.5842 130.324 25.5499 130.101 25.4899C129.878 25.4213 129.664 25.3099 129.492 25.1471L129.861 24.7357L129.886 24.7443Z" fill="#46474E"/>
<path id="&#208;&#154;&#208;&#190;&#208;&#189;&#209;&#130;&#209;&#131;&#209;&#128; 8394" d="M134.887 25.221C134.673 25.3496 134.45 25.4438 134.219 25.521C134.064 25.5638 133.91 25.581 133.747 25.5895C133.456 25.6067 133.164 25.5038 132.95 25.3067C132.744 25.1096 132.633 24.8354 132.65 24.544C132.65 24.3726 132.693 24.2097 132.779 24.064C132.864 23.9355 132.967 23.824 133.096 23.7469C133.224 23.6698 133.362 23.6098 133.507 23.5755C133.636 23.5412 133.764 23.5241 133.901 23.5241H134.913V23.2584C134.938 23.0699 134.861 22.8727 134.707 22.7528C134.536 22.6499 134.33 22.5985 134.133 22.6071C133.987 22.6071 133.833 22.6242 133.696 22.6585C133.499 22.7013 133.319 22.7956 133.173 22.9242L132.882 22.4699C133.079 22.3071 133.31 22.1957 133.559 22.1357C133.764 22.0843 133.979 22.0586 134.193 22.0586C134.553 22.0328 134.913 22.1357 135.196 22.3585C135.427 22.5985 135.547 22.9327 135.521 23.267V25.5467H134.99L134.921 25.2296L134.896 25.2124L134.887 25.221ZM134.904 24.0212H133.996C133.919 24.0212 133.833 24.0212 133.756 24.0383C133.67 24.0469 133.593 24.0726 133.516 24.1069C133.439 24.1412 133.379 24.2011 133.327 24.2697C133.276 24.3554 133.25 24.4497 133.25 24.5525C133.242 24.6982 133.302 24.8354 133.421 24.9296C133.55 25.0153 133.704 25.0582 133.859 25.0582C133.953 25.0582 134.047 25.041 134.133 25.0239C134.227 24.9982 134.321 24.9639 134.407 24.9296C134.493 24.8953 134.579 24.8525 134.664 24.8096L134.896 24.6897V24.0383L134.904 24.0212Z" fill="#46474E"/>
<path id="&#208;&#154;&#208;&#190;&#208;&#189;&#209;&#130;&#209;&#131;&#209;&#128; 8395" d="M138.703 25.5554H136.234V22.1016H136.817V25.0241H138.403V22.1016H138.977V25.0326H139.26V26.4382H138.694V25.5554H138.703Z" fill="#46474E"/>
<path id="&#208;&#154;&#208;&#190;&#208;&#189;&#209;&#130;&#209;&#131;&#209;&#128; 8396" d="M140.423 24.5955L140.937 23.8071L142.094 22.1101H142.659V25.5554H142.042V23.0614H142.008L141.485 23.8585L140.345 25.5469H139.797V22.1016H140.397V24.587H140.423V24.5955Z" fill="#46474E"/>
<path id="&#208;&#154;&#208;&#190;&#208;&#189;&#209;&#130;&#209;&#131;&#209;&#128; 8397" d="M143.977 24.5955L144.491 23.8071L145.648 22.1101H146.214V25.5554H145.597V23.0614H145.563L145.04 23.8585L143.9 25.5469H143.352V22.1016H143.951V24.587H143.986L143.977 24.5955Z" fill="#46474E"/>
<path id="&#208;&#154;&#208;&#190;&#208;&#189;&#209;&#130;&#209;&#131;&#209;&#128; 8398" d="M149.239 22.5755C149.299 22.5156 149.367 22.4641 149.453 22.4213C149.53 22.3784 149.607 22.3441 149.693 22.3184C149.77 22.2927 149.839 22.2756 149.916 22.267C150.336 22.207 150.764 22.327 151.098 22.5841C151.338 22.8327 151.458 23.1755 151.441 23.5183V24.2982C151.441 24.4867 151.407 24.6667 151.321 24.8381C151.244 24.9924 151.141 25.1381 151.013 25.2495C150.876 25.3609 150.721 25.4466 150.559 25.5066C150.379 25.5666 150.199 25.5923 150.01 25.5923C149.633 25.618 149.256 25.4895 148.964 25.2495C148.707 25.0095 148.57 24.6581 148.587 24.3068V23.3212C148.587 23.1155 148.596 22.9184 148.622 22.7127C148.639 22.5156 148.682 22.3099 148.742 22.1213C148.802 21.9328 148.887 21.7614 148.999 21.5985C149.11 21.4357 149.264 21.29 149.436 21.1871C149.59 21.0929 149.753 21.0072 149.924 20.9472L150.43 20.7415L150.576 20.6815L150.696 20.6301L150.833 20.5701C150.884 20.5444 150.944 20.5187 151.021 20.4844L151.236 20.9815C151.099 21.0414 150.987 21.0929 150.901 21.1272C150.816 21.1614 150.747 21.1871 150.687 21.2129C150.627 21.2386 150.576 21.2557 150.533 21.2728C150.49 21.29 150.43 21.3071 150.37 21.3414C150.173 21.4271 150.01 21.5042 149.882 21.5728C149.762 21.6328 149.65 21.7185 149.556 21.8128C149.47 21.8985 149.402 22.0099 149.35 22.1213C149.299 22.267 149.264 22.4127 149.239 22.5584V22.5841V22.5755ZM150.841 23.6297C150.867 23.3983 150.781 23.1669 150.619 22.9955C150.447 22.8669 150.233 22.7984 150.01 22.8155C149.907 22.8155 149.813 22.8327 149.719 22.8669C149.624 22.9012 149.53 22.9526 149.453 23.0126C149.367 23.0812 149.299 23.1669 149.256 23.2697C149.204 23.3897 149.179 23.5183 149.179 23.6554V24.2125C149.179 24.341 149.196 24.4696 149.247 24.5896C149.29 24.6839 149.35 24.7696 149.427 24.8381C149.504 24.9067 149.59 24.9495 149.693 24.9752C149.796 25.001 149.907 25.0181 150.019 25.0181C150.121 25.0181 150.224 25.001 150.327 24.9752C150.421 24.9495 150.516 24.8981 150.593 24.8381C150.67 24.7696 150.739 24.6839 150.781 24.5896C150.833 24.4696 150.859 24.341 150.85 24.2125V23.6297H150.841Z" fill="#46474E"/>
<path id="&#208;&#154;&#208;&#190;&#208;&#189;&#209;&#130;&#209;&#131;&#209;&#128; 8399" d="M152.735 24.5955L153.249 23.8071L154.406 22.1101H154.972V25.5554H154.355V23.0614H154.321L153.798 23.8585L152.658 25.5469H152.109V22.1016H152.709V24.587H152.744L152.735 24.5955Z" fill="#46474E"/>
<path id="&#208;&#154;&#208;&#190;&#208;&#189;&#209;&#130;&#209;&#131;&#209;&#128; 8400" d="M155.769 24.7443C155.898 24.8557 156.043 24.9328 156.198 24.9757C156.343 25.0271 156.498 25.0528 156.643 25.0528C156.772 25.0528 156.892 25.0442 157.021 25.0099C157.106 24.9842 157.192 24.95 157.26 24.89C157.32 24.8471 157.363 24.7871 157.398 24.7186C157.423 24.6586 157.44 24.59 157.44 24.53C157.44 24.3843 157.38 24.2472 157.252 24.1615C157.115 24.0758 156.952 24.0329 156.789 24.0329H156.318V23.5358H156.806C156.961 23.5444 157.115 23.5016 157.235 23.3987C157.338 23.313 157.389 23.193 157.389 23.0645C157.389 22.9188 157.312 22.7902 157.183 22.7302C157.038 22.6617 156.883 22.6188 156.721 22.6274C156.575 22.6274 156.438 22.6445 156.301 22.6874C156.155 22.7302 156.018 22.8074 155.898 22.9102L155.529 22.4988C155.692 22.3446 155.889 22.2332 156.103 22.1646C156.318 22.096 156.541 22.0703 156.755 22.0703C156.935 22.0703 157.115 22.096 157.278 22.1474C157.415 22.1903 157.543 22.2589 157.655 22.3531C157.749 22.4388 157.826 22.5417 157.878 22.6531C157.929 22.7645 157.955 22.8931 157.955 23.0216C157.955 23.0816 157.955 23.1416 157.938 23.2016C157.929 23.2702 157.903 23.3387 157.869 23.4073C157.835 23.4844 157.783 23.5444 157.723 23.6044C157.646 23.673 157.56 23.7244 157.466 23.7587C157.56 23.793 157.655 23.8529 157.732 23.9215C157.8 23.9815 157.852 24.0501 157.895 24.1272C157.929 24.1958 157.955 24.2643 157.972 24.3415C157.98 24.4015 157.989 24.4614 157.989 24.5214C157.989 24.6671 157.963 24.8128 157.903 24.9414C157.843 25.0699 157.758 25.1814 157.655 25.2756C157.535 25.3785 157.389 25.4556 157.235 25.4985C157.046 25.5585 156.849 25.5842 156.652 25.5756C156.429 25.5756 156.206 25.5413 155.984 25.4813C155.761 25.4128 155.546 25.3013 155.375 25.1385L155.744 24.7357L155.769 24.7443Z" fill="#46474E"/>
<path id="&#208;&#154;&#208;&#190;&#208;&#189;&#209;&#130;&#209;&#131;&#209;&#128; 8401" d="M160.855 25.5547V24.0891H159.209V25.5547H158.609V22.1094H159.209V23.5406H160.855V22.1094H161.455V25.5547H160.855Z" fill="#46474E"/>
<path id="&#208;&#154;&#208;&#190;&#208;&#189;&#209;&#130;&#209;&#131;&#209;&#128; 8402" d="M162.742 24.0564V24.2878C162.742 24.4078 162.76 24.5277 162.811 24.6392C162.854 24.7334 162.922 24.8106 163 24.8791C163.085 24.9391 163.179 24.9905 163.274 25.0162C163.377 25.042 163.488 25.0591 163.599 25.0591C163.737 25.0591 163.874 25.0334 164.002 24.9905C164.174 24.9391 164.319 24.8448 164.448 24.7163L164.825 25.1277C164.662 25.2991 164.465 25.4276 164.234 25.5048C164.019 25.5733 163.805 25.6076 163.582 25.6076C163.394 25.6076 163.205 25.5819 163.025 25.5305C162.854 25.479 162.7 25.4019 162.562 25.2905C162.425 25.1877 162.322 25.0505 162.245 24.8963C162.168 24.7249 162.125 24.5363 162.134 24.3478V23.4393C162.134 23.2508 162.168 23.0622 162.237 22.8822C162.297 22.7194 162.4 22.5737 162.528 22.4537C162.657 22.3337 162.802 22.248 162.965 22.188C163.145 22.128 163.334 22.0938 163.522 22.0938C163.711 22.0938 163.908 22.1195 164.088 22.188C164.251 22.2394 164.396 22.3337 164.525 22.4451C164.645 22.5566 164.748 22.6937 164.808 22.8565C164.876 23.0279 164.911 23.2079 164.911 23.3964V24.0735H162.734L162.742 24.0564ZM164.319 23.4393C164.319 23.3107 164.302 23.1908 164.259 23.0708C164.225 22.9765 164.165 22.8822 164.088 22.8137C164.019 22.7451 163.934 22.6937 163.839 22.668C163.745 22.6337 163.642 22.6251 163.539 22.6251C163.437 22.6251 163.334 22.6423 163.239 22.6765C163.145 22.7108 163.059 22.7622 162.991 22.8222C162.914 22.8908 162.854 22.9765 162.82 23.0708C162.777 23.1822 162.751 23.3022 162.76 23.4222V23.5764H164.328V23.4479L164.319 23.4393Z" fill="#46474E"/>
<path id="&#208;&#154;&#208;&#190;&#208;&#189;&#209;&#130;&#209;&#131;&#209;&#128; 8403" d="M166.861 22.0703C167.067 22.0703 167.273 22.096 167.47 22.1474C167.684 22.2074 167.872 22.3274 168.027 22.4988L167.675 22.9531C167.555 22.8331 167.41 22.7388 167.247 22.6874C167.135 22.6531 167.015 22.636 166.895 22.636C166.801 22.636 166.707 22.6531 166.621 22.6788C166.527 22.7045 166.441 22.7559 166.364 22.8159C166.287 22.8845 166.218 22.9702 166.176 23.073C166.124 23.193 166.098 23.3216 166.107 23.4501V24.2215C166.107 24.35 166.124 24.4786 166.176 24.5986C166.218 24.6928 166.278 24.7786 166.356 24.8471C166.433 24.9157 166.518 24.9585 166.613 24.9842C166.707 25.01 166.801 25.0271 166.904 25.0271C167.033 25.0271 167.153 25.0014 167.281 24.9671C167.427 24.9242 167.555 24.8471 167.658 24.7443L168.027 25.1642C167.881 25.3185 167.692 25.4385 167.487 25.507C167.298 25.567 167.093 25.6013 166.895 25.6013C166.707 25.6013 166.518 25.5756 166.338 25.5156C166.176 25.4642 166.03 25.3785 165.901 25.2671C165.781 25.1642 165.678 25.0271 165.618 24.8814C165.55 24.7271 165.516 24.5557 165.516 24.3843V23.3644C165.516 23.0045 165.661 22.6702 165.927 22.4303C166.056 22.3189 166.201 22.2331 166.364 22.1732C166.527 22.1132 166.707 22.0875 166.878 22.0875L166.861 22.0703Z" fill="#46474E"/>
<path id="&#208;&#154;&#208;&#190;&#208;&#189;&#209;&#130;&#209;&#131;&#209;&#128; 8404" d="M170.668 25.221C170.454 25.3496 170.231 25.4438 170 25.521C169.846 25.5638 169.691 25.581 169.528 25.5895C169.237 25.6067 168.946 25.5038 168.731 25.3067C168.526 25.1096 168.414 24.8354 168.431 24.544C168.431 24.3726 168.474 24.2097 168.56 24.064C168.646 23.9355 168.749 23.8326 168.877 23.7469C169.006 23.6698 169.143 23.6098 169.288 23.5755C169.417 23.5412 169.546 23.5241 169.683 23.5241H170.694V23.2584C170.72 23.0699 170.643 22.8813 170.488 22.7528C170.317 22.6499 170.111 22.5985 169.914 22.6071C169.768 22.6071 169.614 22.6242 169.468 22.6585C169.271 22.7013 169.091 22.7956 168.946 22.9242L168.654 22.4699C168.851 22.3071 169.083 22.1957 169.331 22.1357C169.537 22.0843 169.751 22.0586 169.966 22.0586C170.325 22.0328 170.685 22.1357 170.968 22.3585C171.208 22.5985 171.328 22.9327 171.294 23.267V25.5467H170.763L170.694 25.2296L170.668 25.2124V25.221ZM170.685 24.0212H169.777C169.7 24.0212 169.614 24.0212 169.537 24.0383C169.451 24.0469 169.374 24.0726 169.297 24.1069C169.22 24.1412 169.16 24.2011 169.108 24.2697C169.057 24.3554 169.031 24.4497 169.031 24.5525C169.023 24.6982 169.083 24.8354 169.203 24.9296C169.331 25.0153 169.486 25.0582 169.64 25.0582C169.734 25.0582 169.828 25.041 169.914 25.0239C170.008 24.9982 170.103 24.9725 170.188 24.9296C170.274 24.8953 170.36 24.8525 170.445 24.8096L170.677 24.6897V24.0383L170.685 24.0212Z" fill="#46474E"/>
</g>
<path id="&#208;&#159;&#209;&#128;&#209;&#143;&#208;&#188;&#208;&#190;&#209;&#131;&#208;&#179;&#208;&#190;&#208;&#187;&#209;&#140;&#208;&#189;&#208;&#184;&#208;&#186; 3167" d="M83.8354 22.0703H0V25.5499H83.8354V22.0703Z" fill="#46474E"/>
</g>
<defs>
<clipPath id="clip0_1078_34381">
<rect width="171.407" height="26" fill="white"/>
</clipPath>
</defs>
</svg>
