<svg width="76" height="65" viewBox="0 0 76 65" fill="none" xmlns="http://www.w3.org/2000/svg">
<path fill-rule="evenodd" clip-rule="evenodd" d="M36.817 64.7357L32.6285 63.7604V47.3004L36.817 46.5223V64.7357ZM66.1152 60.8548C63.0773 60.8647 60.6149 58.471 60.5945 55.506V55.4764C60.5945 52.5609 63.047 50.1671 66.105 50.1671C69.1629 50.1671 71.6155 52.5609 71.6155 55.4764C71.6256 58.4415 69.1629 60.8448 66.1353 60.8548H66.1152ZM75.6121 55.4764C75.6121 60.5985 71.3631 64.7456 66.1152 64.7456C60.8673 64.7456 56.6183 60.5985 56.6183 55.4764C56.6183 50.3544 60.8771 46.2763 66.1254 46.2763C71.3736 46.2763 75.6121 50.4234 75.6121 55.4764ZM21.729 63.7703L25.8467 64.6075V53.5259C25.8467 48.2066 21.5977 46.3351 18.6711 46.3351C16.7433 46.3351 15.1489 46.7882 13.7561 48.1475C12.2926 46.7882 10.5669 46.266 9.17414 46.266C7.11544 46.266 5.38939 47.1032 4.18846 48.5316V46.6501L0 47.4285V63.7604L4.18846 64.5976V53.3977C4.18846 51.5853 5.52067 50.354 7.56949 50.354C9.49724 50.354 10.89 51.5853 10.89 53.3977V63.77L15.0077 64.6072V53.3974C15.0077 51.585 16.4005 50.3537 18.3986 50.3537C20.3968 50.3537 21.7191 51.585 21.7191 53.3974L21.7293 63.7697L21.729 63.7703ZM53.4896 46.276L51.0272 46.601C46.4452 47.6353 43.458 49.0634 43.458 53.9886V63.77L47.6465 64.5481V54.5696C47.6465 52.304 48.9787 51.26 51.0374 50.8756L53.4998 50.4915L53.4896 46.2757V46.276ZM32.8306 39.5283C31.8313 40.5232 31.8313 42.0993 32.8306 43.0942C33.8499 44.1186 35.5355 44.1286 36.5748 43.1337L36.6153 43.0942C37.6145 42.1093 37.6145 40.5133 36.6153 39.5283C35.5457 38.5531 33.8903 38.5531 32.8306 39.5283Z" fill="white"/>
<path d="M24.5513 0.75H43.8781C47.9557 0.75 51.266 3.98092 51.266 7.9604V26.8238C51.266 30.8033 47.9557 34.0342 43.8784 34.0342H24.5516C20.4744 34.0342 17.1641 30.8033 17.1641 26.8238V7.9604C17.1637 3.98092 20.474 0.75 24.5513 0.75Z" fill="#FFD02F"/>
<path d="M40.862 4.90625H37.1177L40.2362 10.255L33.3735 4.90625H29.6292L33.0606 11.4468L25.8849 4.90625H22.1406L25.8849 13.2297L22.1406 29.8769H25.8849L33.0606 12.038L29.6292 29.8769H33.3735L40.2362 10.8559L37.1177 29.8769H40.862L47.7248 9.063L40.862 4.90625Z" fill="#46474E"/>
</svg>
