<svg width="57" height="64" viewBox="0 0 57 64" fill="none" xmlns="http://www.w3.org/2000/svg">
<g clip-path="url(#clip0_4291_62493)">
<path d="M4.01003 0H38.0808L56.1404 17.944V60C56.1404 62.2096 54.3439 64 52.1303 64H4.01003C1.79649 64 0 62.2096 0 60V4C0 1.7904 1.79649 0 4.01003 0Z" fill="#E2574C"/>
<path d="M56.0811 17.9991H42.1038C39.8902 17.9991 38.0938 16.2071 38.0938 13.9991V0.0390625L56.0803 17.9991H56.0811Z" fill="#B53629"/>
<path d="M41.0983 30.3266C41.7704 30.3266 42.0992 29.7426 42.0992 29.177C42.0992 28.6114 41.7559 28.025 41.0983 28.025H37.2727C36.5245 28.025 36.1082 28.6426 36.1082 29.325V38.7026C36.1082 39.5386 36.5854 40.0026 37.231 40.0026C37.8766 40.0026 38.3522 39.5386 38.3522 38.7026V36.129H40.666C41.3838 36.129 41.7431 35.5426 41.7431 34.961C41.7431 34.3794 41.3838 33.825 40.666 33.825H38.3522V30.3274H41.0991L41.0983 30.3266ZM28.1676 28.0242H25.3686C24.6083 28.0242 24.0693 28.5442 24.0693 29.3162V38.7106C24.0693 39.6682 24.8449 39.9682 25.4007 39.9682H28.3384C31.8151 39.9682 34.1104 37.6866 34.1104 34.1642C34.1088 30.4402 31.9474 28.0242 28.1676 28.0242ZM28.3023 37.6522H26.5956V30.3402H28.1339C30.4621 30.3402 31.4742 31.8986 31.4742 34.0482C31.4742 36.0602 30.4797 37.6522 28.3023 37.6522ZM18.0487 28.0242H15.2761C14.4918 28.0242 14.0547 28.5402 14.0547 29.3242V38.7018C14.0547 39.5378 14.5559 40.0018 15.2296 40.0018C15.9033 40.0018 16.4046 39.5378 16.4046 38.7018V35.9634H18.1425C20.2879 35.9634 22.0587 34.4474 22.0587 32.009C22.0587 29.6234 20.3504 28.0234 18.0487 28.0234V28.0242ZM18.003 33.7642H16.4046V30.2258H18.003C18.9894 30.2258 19.6174 30.9938 19.6174 31.9954C19.615 32.9954 18.9902 33.7634 18.003 33.7634V33.7642Z" fill="white"/>
</g>
<defs>
<clipPath id="clip0_4291_62493">
<rect width="56.1404" height="64" fill="white"/>
</clipPath>
</defs>
</svg>
