<svg width="24" height="25" viewBox="0 0 24 25" fill="none" xmlns="http://www.w3.org/2000/svg">
<path d="M12 14.7188C11.59 14.7188 11.25 14.3787 11.25 13.9688V8.96875C11.25 8.55875 11.59 8.21875 12 8.21875C12.41 8.21875 12.75 8.55875 12.75 8.96875V13.9688C12.75 14.3787 12.41 14.7188 12 14.7188Z" fill="white"/>
<path d="M12 23.7188C6.76 23.7188 2.5 19.4587 2.5 14.2188C2.5 8.97875 6.76 4.71875 12 4.71875C17.24 4.71875 21.5 8.97875 21.5 14.2188C21.5 14.6287 21.16 14.9688 20.75 14.9688C20.34 14.9688 20 14.6287 20 14.2188C20 9.80875 16.41 6.21875 12 6.21875C7.59 6.21875 4 9.80875 4 14.2188C4 18.6287 7.59 22.2188 12 22.2188C12.41 22.2188 12.75 22.5588 12.75 22.9688C12.75 23.3787 12.41 23.7188 12 23.7188Z" fill="white"/>
<path d="M15 3.71875H9C8.59 3.71875 8.25 3.37875 8.25 2.96875C8.25 2.55875 8.59 2.21875 9 2.21875H15C15.41 2.21875 15.75 2.55875 15.75 2.96875C15.75 3.37875 15.41 3.71875 15 3.71875Z" fill="white"/>
<path d="M16.1484 22.9895C15.7984 22.9895 15.4784 22.9095 15.1884 22.7395C14.5284 22.3595 14.1484 21.5895 14.1484 20.6295V18.3195C14.1484 17.3595 14.5284 16.5895 15.1884 16.2095C15.8484 15.8295 16.6984 15.8895 17.5284 16.3595L19.5284 17.5195C20.3584 17.9995 20.8384 18.7095 20.8384 19.4695C20.8384 20.2295 20.3584 20.9395 19.5284 21.4195L17.5284 22.5795C17.0684 22.8495 16.5984 22.9895 16.1484 22.9895ZM16.1584 17.4495C16.0784 17.4495 15.9984 17.4695 15.9384 17.4995C15.7584 17.5995 15.6484 17.9095 15.6484 18.3095V20.6195C15.6484 21.0195 15.7584 21.3295 15.9384 21.4295C16.1184 21.5295 16.4384 21.4795 16.7784 21.2795L18.7784 20.1195C19.1284 19.9195 19.3384 19.6695 19.3384 19.4695C19.3384 19.2695 19.1284 19.0195 18.7784 18.8195L16.7784 17.6595C16.5484 17.5195 16.3284 17.4495 16.1584 17.4495Z" fill="white"/>
</svg>
