<svg width="24" height="25" viewBox="0 0 24 25" fill="none" xmlns="http://www.w3.org/2000/svg">
<path d="M12 13.5781C8.83 13.5781 6.25 10.9981 6.25 7.82812C6.25 4.65812 8.83 2.07812 12 2.07812C15.17 2.07812 17.75 4.65812 17.75 7.82812C17.75 10.9981 15.17 13.5781 12 13.5781ZM12 3.57812C9.66 3.57812 7.75 5.48813 7.75 7.82812C7.75 10.1681 9.66 12.0781 12 12.0781C14.34 12.0781 16.25 10.1681 16.25 7.82812C16.25 5.48813 14.34 3.57812 12 3.57812Z" fill="white"/>
<path d="M3.40625 23.5781C2.99625 23.5781 2.65625 23.2381 2.65625 22.8281C2.65625 18.5581 6.84625 15.0781 11.9962 15.0781C13.0062 15.0781 13.9962 15.2081 14.9562 15.4781C15.3562 15.5881 15.5863 15.9981 15.4763 16.3981C15.3663 16.7981 14.9562 17.0282 14.5562 16.9182C13.7362 16.6882 12.8762 16.5781 11.9962 16.5781C7.67625 16.5781 4.15625 19.3781 4.15625 22.8281C4.15625 23.2381 3.81625 23.5781 3.40625 23.5781Z" fill="white"/>
<path d="M18 23.5781C16.82 23.5781 15.7 23.1381 14.83 22.3481C14.48 22.0481 14.17 21.6781 13.93 21.2681C13.49 20.5481 13.25 19.6981 13.25 18.8281C13.25 17.5781 13.73 16.4081 14.59 15.5181C15.49 14.5881 16.7 14.0781 18 14.0781C19.36 14.0781 20.65 14.6581 21.53 15.6581C22.31 16.5281 22.75 17.6481 22.75 18.8281C22.75 19.2081 22.7 19.5881 22.6 19.9481C22.5 20.3981 22.31 20.8681 22.05 21.2781C21.22 22.6981 19.66 23.5781 18 23.5781ZM18 15.5781C17.11 15.5781 16.29 15.9281 15.67 16.5581C15.08 17.1681 14.75 17.9681 14.75 18.8281C14.75 19.4181 14.91 19.9981 15.22 20.4981C15.38 20.7781 15.59 21.0281 15.83 21.2381C16.43 21.7881 17.2 22.0881 18 22.0881C19.13 22.0881 20.2 21.4881 20.78 20.5181C20.95 20.2381 21.08 19.9182 21.15 19.6082C21.22 19.3482 21.25 19.0981 21.25 18.8381C21.25 18.0381 20.95 17.2682 20.41 16.6682C19.81 15.9682 18.93 15.5781 18 15.5781Z" fill="white"/>
<path d="M19.4978 19.5625H16.5078C16.0978 19.5625 15.7578 19.2225 15.7578 18.8125C15.7578 18.4025 16.0978 18.0625 16.5078 18.0625H19.4978C19.9078 18.0625 20.2478 18.4025 20.2478 18.8125C20.2478 19.2225 19.9078 19.5625 19.4978 19.5625Z" fill="white"/>
<path d="M18 21.0837C17.59 21.0837 17.25 20.7437 17.25 20.3337V17.3438C17.25 16.9338 17.59 16.5938 18 16.5938C18.41 16.5938 18.75 16.9338 18.75 17.3438V20.3337C18.75 20.7537 18.41 21.0837 18 21.0837Z" fill="white"/>
</svg>
