<svg width="81" height="81" viewBox="0 0 81 81" fill="none" xmlns="http://www.w3.org/2000/svg">
<path d="M79.5805 49.2399C77.1078 59.9961 70.5362 68.7404 61.8949 74.2124C60.7258 74.95 59.5431 75.6206 58.3202 76.2375C57.9708 76.3985 57.6079 76.5862 57.2451 76.7472C57.0704 76.8276 56.8957 76.9081 56.721 77.002C54.4229 78.0213 52.0308 78.826 49.5446 79.4027C48.4157 79.6843 47.3003 79.8989 46.1446 80.0599C44.1153 80.3683 42.0591 80.5158 39.9761 80.4756C39.4923 80.4756 38.9951 80.4756 38.5113 80.4354C36.1192 80.3415 33.7001 80.0196 31.2811 79.4697C30.1926 79.2149 29.1175 78.9333 28.0827 78.5846C27.5451 78.437 27.0345 78.2627 26.5372 78.0615C24.0376 77.1764 21.6723 76.0364 19.4818 74.6952C19.3608 74.6416 19.2533 74.5745 19.1458 74.494C18.5411 74.1185 17.9363 73.7296 17.3584 73.3138C16.1086 72.4689 14.8991 71.5301 13.7837 70.5376C12.6414 69.5451 11.5663 68.4856 10.5584 67.359C10.5046 67.3188 10.4509 67.2652 10.4105 67.1847C10.0611 66.8092 9.71172 66.4202 9.37575 66.0313C8.79788 65.3205 8.23344 64.6097 7.70932 63.8586C1.11082 54.8058 -1.68446 43.0438 1.0302 31.2416C6.00259 9.5952 27.6258 -3.93713 49.3162 1.02517C71.02 5.98747 84.5798 27.5668 79.6074 49.2265L79.5805 49.2399Z" fill="#FCCD82" style="fill:#FCCD82;fill:color(display-p3 0.9882 0.8039 0.5098);fill-opacity:1;"/>
<path d="M10.811 62.2892L10.3809 67.1844C10.0315 66.8089 9.68208 66.42 9.34611 66.031C8.76824 65.3202 8.2038 64.6094 7.67969 63.8583C9.13109 62.9464 10.2196 62.3965 10.811 62.2892Z" fill="#F3F0F0" style="fill:#F3F0F0;fill:color(display-p3 0.9529 0.9412 0.9412);fill-opacity:1;"/>
<path d="M47.4696 76.2767C47.2815 77.2825 47.0127 78.2348 46.6095 79.1199C46.4617 79.4418 46.3004 79.7637 46.1123 80.0587C44.083 80.3672 42.0269 80.5147 39.9438 80.4745C39.46 80.4745 38.9628 80.4745 38.479 80.4343C36.0869 80.3404 33.6679 80.0185 31.2489 79.4686C30.1603 79.2138 29.0852 78.9322 28.0504 78.5835C27.5129 78.4359 27.0022 78.2616 26.505 78.0604C24.0053 77.1752 21.6401 76.0352 19.4495 74.6941C19.3689 74.4929 19.3151 74.3051 19.2748 74.104C19.1001 73.4602 19.0195 72.7896 19.006 72.1325C18.9389 70.2146 19.4361 68.2699 20.2827 66.4057C20.3634 66.2179 20.4574 66.0436 20.5515 65.8558C20.6993 65.5742 20.8472 65.306 20.9816 65.0377C21.0084 64.9707 21.0353 64.917 21.0756 64.8634C21.9626 63.2942 23.078 61.8323 24.2875 60.5582C24.6235 60.1961 24.9729 59.8474 25.3492 59.5255C26.6528 58.2917 28.0235 57.3529 29.2868 56.7493C29.3002 56.7493 29.3137 56.7493 29.3137 56.7493C30.0931 56.3872 30.8995 56.1726 31.7596 56.0788C35.079 55.6764 38.7209 57.0578 41.4087 58.399C41.4356 58.399 41.4624 58.399 41.4893 58.4258C41.7447 58.5599 42.0134 58.6806 42.2553 58.8147C43.868 59.6597 44.9969 60.4241 45.2925 60.5582C45.2925 60.5582 45.7091 61.6177 46.1929 63.2808C46.3408 63.7904 46.502 64.3537 46.6499 64.9707C46.9321 66.0838 47.2009 67.3311 47.389 68.632C47.604 70 47.7518 71.4351 47.7518 72.8835C47.7518 74.0235 47.6847 75.1635 47.4831 76.2632L47.4696 76.2767Z" fill="#585960" style="fill:#585960;fill:color(display-p3 0.3451 0.3490 0.3765);fill-opacity:1;"/>
<path d="M59.8648 31.9122C59.8648 31.9122 62.8885 48.1134 57.1367 52.6063C51.3848 57.0858 21.1876 54.7254 17.2769 48.4085C13.3796 42.105 24.7086 23.2617 24.7086 23.2617L59.8648 31.9122Z" fill="#585960" style="fill:#585960;fill:color(display-p3 0.3451 0.3490 0.3765);fill-opacity:1;"/>
<path d="M58.1531 71.4358L56.7017 76.9882C54.4036 78.0075 52.0115 78.8122 49.5253 79.3889C48.3964 79.6705 47.281 79.8851 46.1253 80.046C44.096 80.3545 42.0398 80.5021 39.9568 80.4618C39.473 80.4618 38.9758 80.4618 38.492 80.4216C36.0998 80.3277 33.6808 80.0058 31.2618 79.4559C30.1733 79.2011 29.0982 78.9195 28.0634 78.5708C27.5258 78.4232 27.0151 78.2489 26.5179 78.0477C24.0183 77.1626 21.653 76.0226 19.4625 74.6814C19.3415 74.6278 19.234 74.5607 19.1265 74.4802C18.5218 74.1047 17.917 73.7158 17.3392 73.3C16.0893 72.4551 14.8798 71.5163 13.7644 70.5238C12.6221 69.5313 11.547 68.4718 10.5391 67.3452C11.3857 65.4006 12.3802 63.6034 13.5091 62.0074C13.5091 62.0074 14.1273 61.7526 15.2696 61.3905H15.3233C16.4925 61.0284 18.1589 60.559 20.2151 60.1834C21.5052 59.942 22.9835 59.714 24.5558 59.5665C24.8246 59.5397 25.0799 59.5263 25.3622 59.4994C25.5503 59.4994 25.7116 59.4726 25.9132 59.4592C26.2223 59.4324 26.5448 59.419 26.8673 59.419C27.8887 59.3653 28.9369 59.3385 30.0389 59.3787C30.3346 59.3787 30.6302 59.3787 30.9259 59.4056C32.6595 59.486 34.4469 59.6604 36.288 59.9823C37.2556 60.1432 38.1963 60.3712 39.1236 60.5992C40.4809 60.9747 41.7845 61.4173 43.0612 61.9135C43.545 62.0879 44.0154 62.2757 44.4723 62.4902C44.7679 62.6244 45.0905 62.7585 45.3861 62.906C45.6549 63.0267 45.8968 63.1474 46.1521 63.2681C46.5284 63.4425 46.8778 63.6302 47.2407 63.818C49.3775 64.9177 51.2589 66.098 52.8447 67.2111C56.1507 69.5045 58.1128 71.4224 58.1128 71.4224L58.1531 71.4358Z" fill="#585960" style="fill:#585960;fill:color(display-p3 0.3451 0.3490 0.3765);fill-opacity:1;"/>
<path d="M23.2656 28.1161C23.2656 28.1161 23.4403 2.01705 45.8967 9.74215C74.0781 19.4387 54.8739 52.713 41.0587 47.2679C27.2301 41.8227 23.2656 28.1161 23.2656 28.1161Z" fill="#585960" style="fill:#585960;fill:color(display-p3 0.3451 0.3490 0.3765);fill-opacity:1;"/>
<path opacity="0.2" d="M47.3813 68.6431L41.0381 77.4679L39.4389 79.7077L38.9282 78.903L33.4048 69.9172C30.9186 73.203 29.185 76.2877 28.0696 78.5811C27.532 78.4336 27.0213 78.2592 26.5241 78.058C26.7526 71.4059 27.2364 67.597 27.2364 67.597L20.5303 71.2986L19.0252 72.1301L17.4663 73.0018L17.2109 73.136L20.3825 62.4737C21.4442 61.7897 22.5193 61.2533 23.5675 60.8509C23.8094 60.757 24.0648 60.6632 24.3067 60.5827C24.7367 60.4352 25.1668 60.301 25.6102 60.1938C25.9059 60.1267 26.215 60.0596 26.5107 60.006C27.5723 59.7914 28.634 59.7109 29.6688 59.7109C30.072 59.7109 30.4751 59.7243 30.8649 59.7646C33.4586 59.9523 35.8776 60.7302 38.0278 61.7495C39.0491 62.2323 40.0167 62.7688 40.9037 63.3321C41.8579 63.9222 42.718 64.5391 43.4974 65.1426C43.9409 65.4779 44.3575 65.8266 44.7472 66.1485C45.0698 66.4302 45.3654 66.685 45.6476 66.9264C46.7765 67.9591 47.3947 68.6699 47.3947 68.6699L47.3813 68.6431Z" fill="#585960" style="fill:#585960;fill:color(display-p3 0.3451 0.3490 0.3765);fill-opacity:1;"/>
<path d="M28.8357 73.6344L35.3266 64.4072L43.7394 62.7442C38.0413 56.548 43.8469 46.9453 43.8469 46.9453L32.1013 48.2731C32.2626 50.2043 32.276 51.8271 32.1954 53.1817C31.7788 60.2094 28.5938 60.0485 28.5938 60.0485L30.0048 63.5623L28.8625 73.6478L28.8357 73.6344Z" fill="#F3F0F0" style="fill:#F3F0F0;fill:color(display-p3 0.9529 0.9412 0.9412);fill-opacity:1;"/>
<path opacity="0.2" d="M32.0703 48.2731C32.2316 50.2043 32.245 51.8271 32.1644 53.1817C37.849 52.2965 43.8159 46.9453 43.8159 46.9453L32.0703 48.2731Z" fill="#585960" style="fill:#585960;fill:color(display-p3 0.3451 0.3490 0.3765);fill-opacity:1;"/>
<path d="M39.154 15.7486C29.1286 14.3404 25.1507 19.249 22.9602 29.4553C20.2321 42.2097 21.8044 51.7588 34.7192 50.7663C52.2704 49.4118 55.7914 18.0822 39.154 15.7486Z" fill="#F3F0F0" style="fill:#F3F0F0;fill:color(display-p3 0.9529 0.9412 0.9412);fill-opacity:1;"/>
<path d="M29.5175 29.793C29.5175 29.793 27.7571 32.2071 26.0234 33.5348C26.0234 33.5348 26.6954 35.0101 28.5096 35.0369L29.531 29.793H29.5175Z" fill="#F3F0F0" style="fill:#F3F0F0;fill:color(display-p3 0.9529 0.9412 0.9412);fill-opacity:1;"/>
<path d="M35.764 29.8476C35.6296 30.6657 35.9656 31.4033 36.5031 31.4972C37.0407 31.5911 37.6051 31.001 37.7395 30.1829C37.8739 29.3648 37.5379 28.6271 37.0004 28.5333C36.4494 28.4394 35.8984 29.0295 35.764 29.8476Z" fill="#585960" style="fill:#585960;fill:color(display-p3 0.3451 0.3490 0.3765);fill-opacity:1;"/>
<path d="M37.2133 28.5979L35.5469 27.6055C35.5469 27.6055 36.1919 29.2551 37.2133 28.5979Z" fill="#585960" style="fill:#585960;fill:color(display-p3 0.3451 0.3490 0.3765);fill-opacity:1;"/>
<path d="M25.5921 27.9999C25.4577 28.818 25.7937 29.5557 26.3313 29.6496C26.8688 29.7434 27.4333 29.1533 27.5677 28.3352C27.702 27.5171 27.3661 26.7795 26.8285 26.6856C26.2775 26.5917 25.7265 27.1818 25.5921 27.9999Z" fill="#585960" style="fill:#585960;fill:color(display-p3 0.3451 0.3490 0.3765);fill-opacity:1;"/>
<path d="M27.0414 26.7503L25.375 25.7578C25.375 25.7578 26.0201 27.4074 27.0414 26.7503Z" fill="#585960" style="fill:#585960;fill:color(display-p3 0.3451 0.3490 0.3765);fill-opacity:1;"/>
<path d="M36.8359 22.9531C36.8359 22.9531 39.6984 22.98 40.9751 25.0722" stroke="#585960" style="stroke:#585960;stroke:color(display-p3 0.3451 0.3490 0.3765);stroke-opacity:1;" stroke-width="0.74" stroke-linecap="round" stroke-linejoin="round"/>
<path d="M29.6123 21.5052C29.6123 21.5052 27.9324 20.6067 25.5 21.7601" stroke="#585960" style="stroke:#585960;stroke:color(display-p3 0.3451 0.3490 0.3765);stroke-opacity:1;" stroke-width="0.74" stroke-linecap="round" stroke-linejoin="round"/>
<path d="M47.7244 34.136C47.7244 34.136 44.2034 25.2575 45.8027 19.0077C45.8027 19.0077 27.0823 8.11749 23.2656 28.1008C23.2656 28.1008 23.8435 9.9683 41.1259 11.98C58.3815 13.9918 54.7933 39.152 44.8351 45.3884C44.8351 45.3884 49.9015 39.6616 47.7244 34.1226V34.136Z" fill="#585960" style="fill:#585960;fill:color(display-p3 0.3451 0.3490 0.3765);fill-opacity:1;"/>
<path d="M45.7893 36.0318C46.085 34.4358 48.1277 31.9412 51.0843 32.6923C54.1483 33.4702 54.7262 40.0419 46.7838 40.4844C45.6415 40.5515 45.1712 39.3847 45.7893 36.0318Z" fill="#F3F0F0" style="fill:#F3F0F0;fill:color(display-p3 0.9529 0.9412 0.9412);fill-opacity:1;"/>
<path d="M27.0312 38.9146C27.4882 40.1887 27.8241 42.5357 27.8241 42.5357C28.0392 42.5357 28.2542 42.5357 28.4827 42.5357C31.4392 42.5491 32.8234 41.5835 33.455 40.5106C33.8045 39.9205 33.912 39.2901 33.9388 38.7671C33.9657 38.1635 33.8582 37.7344 33.8582 37.7344C32.2859 38.6598 29.5174 38.8475 28.0392 38.9012C27.421 38.928 27.0312 38.9012 27.0312 38.9012V38.9146Z" fill="#585960" style="fill:#585960;fill:color(display-p3 0.3451 0.3490 0.3765);fill-opacity:1;"/>
<path d="M28.0391 38.9012L28.3078 39.9607C31.0897 39.9607 33.0652 39.612 33.9387 38.7671C33.9656 38.1635 33.8581 37.7344 33.8581 37.7344C32.2858 38.6598 29.5173 38.8475 28.0391 38.9012Z" fill="white" style="fill:white;fill-opacity:1;"/>
<path d="M28.4844 42.5369C31.4409 42.5503 32.8251 41.5846 33.4568 40.5117C32.4488 40.5385 31.2393 40.6995 30.1642 41.1421C29.3445 41.4774 28.8338 42.0004 28.4844 42.5369Z" fill="#F3F0F0" style="fill:#F3F0F0;fill:color(display-p3 0.9529 0.9412 0.9412);fill-opacity:1;"/>
<path d="M39.2457 16.5293C39.2457 16.5293 40.9659 33.5487 51.3811 34.7959C61.7962 36.0432 48.7067 12.9484 48.7067 12.9484C48.7067 12.9484 32.6607 4.19063 23.0384 11.9962C13.4162 19.8018 23.2669 28.1035 23.2669 28.1035C23.2669 28.1035 24.4226 15.2686 39.2457 16.5159V16.5293Z" fill="#585960" style="fill:#585960;fill:color(display-p3 0.3451 0.3490 0.3765);fill-opacity:1;"/>
<path d="M39.5106 15.375C39.5106 15.375 36.7018 26.4396 44.362 31.536" stroke="#585960" style="stroke:#585960;stroke:color(display-p3 0.3451 0.3490 0.3765);stroke-opacity:1;" stroke-width="0.51" stroke-linecap="round" stroke-linejoin="round"/>
<path d="M41.6982 58.1055L35.3281 64.4089L38.8491 75.9429L46.1061 63.8456L41.6982 58.1055Z" fill="#585960" style="fill:#585960;fill:color(display-p3 0.3451 0.3490 0.3765);fill-opacity:1;"/>
<path d="M31.4298 57.2305L29.9784 63.5607L21.2969 69.6094L26.0811 59.1617L31.4298 57.2305Z" fill="#585960" style="fill:#585960;fill:color(display-p3 0.3451 0.3490 0.3765);fill-opacity:1;"/>
<path d="M59.743 71.1412L58.305 76.2377C57.9556 76.3986 57.5928 76.5864 57.2299 76.7473C57.0552 76.8278 56.8805 76.9082 56.7058 77.0021C54.4078 78.0214 52.0156 78.8261 49.5294 79.4028C48.4006 79.6844 47.2851 79.899 46.1294 80.06C44.1001 80.3684 42.044 80.516 39.9609 80.4757C40.3103 79.4296 40.6732 78.4372 41.0361 77.4715C42.7562 72.8579 44.4227 69.277 45.6322 66.9032C46.0219 66.1387 46.3579 65.495 46.6401 64.9853C46.9223 64.4757 47.1373 64.1001 47.2717 63.8453C47.4061 63.6307 47.4733 63.5234 47.4733 63.5234L52.2978 66.5276C52.2978 66.5276 52.2978 66.5411 52.3247 66.5411L59.743 71.1412Z" fill="#F3F0F0" style="fill:#F3F0F0;fill:color(display-p3 0.9529 0.9412 0.9412);fill-opacity:1;"/>
<path d="M24.5622 59.5938C24.5622 59.5938 24.1993 59.9693 23.5543 60.841C22.9495 61.6725 22.0894 62.9869 21.0815 64.8779C21.0412 64.9316 21.0143 64.9852 20.9875 65.0523C20.8396 65.3205 20.7052 65.5887 20.5574 65.8704C20.4768 66.0581 20.3827 66.2325 20.2886 66.4203C19.4151 68.204 18.4475 70.3767 17.453 73.0054C17.3993 73.0992 17.359 73.2065 17.3321 73.3272C16.0823 72.4823 14.8728 71.5435 13.7573 70.551C12.615 69.5586 11.5399 68.4991 10.532 67.3725C10.4379 67.5334 10.3707 67.6944 10.3035 67.8687L10.3707 67.1981C10.0213 66.8226 9.67191 66.4337 9.33594 66.0447C9.77942 64.6902 10.2767 63.4295 10.8008 62.3029L15.249 61.4177H15.3028L19.4151 60.613L24.5353 59.5938H24.5622Z" fill="#F3F0F0" style="fill:#F3F0F0;fill:color(display-p3 0.9529 0.9412 0.9412);fill-opacity:1;"/>
<path d="M29.3327 56.75C28.7413 57.1792 28.1232 57.8229 27.4647 58.6545C27.2631 58.8959 27.0749 59.1507 26.8868 59.4457C26.7524 59.6067 26.6314 59.781 26.5105 59.9822C24.9381 62.289 23.2448 65.481 21.5919 68.9814C21.4978 69.196 21.4037 69.4106 21.3096 69.6252C21.0409 70.175 20.799 70.7249 20.5436 71.3016C20.127 72.227 19.7104 73.1658 19.3072 74.1046C19.2535 74.2253 19.1863 74.3729 19.146 74.4936C18.5412 74.118 17.9365 73.7291 17.3586 73.3134C16.1088 72.4684 14.8993 71.5296 13.7839 70.5371L15.4234 69.035L12.6953 65.0518C14.6843 63.2815 17.0898 61.8062 19.4551 60.6125C19.7239 60.465 19.9792 60.3309 20.2345 60.2102C24.7634 58.0107 28.9161 56.8573 29.3192 56.7634C29.3327 56.7634 29.3461 56.7634 29.3461 56.7634L29.3327 56.75Z" fill="#585960" style="fill:#585960;fill:color(display-p3 0.3451 0.3490 0.3765);fill-opacity:1;"/>
<path opacity="0.7" d="M29.3327 56.75C28.7413 57.1792 28.1232 57.8229 27.4647 58.6545C27.2631 58.8959 27.0749 59.1507 26.8868 59.4457C26.7524 59.6067 26.6314 59.781 26.5105 59.9822C24.9381 62.289 23.2448 65.481 21.5919 68.9814C21.4978 69.196 21.4037 69.4106 21.3096 69.6252C21.0409 70.175 20.799 70.7249 20.5436 71.3016C20.127 72.227 19.7104 73.1658 19.3072 74.1046C19.2535 74.2253 19.1863 74.3729 19.146 74.4936C18.5412 74.118 17.9365 73.7291 17.3586 73.3134C16.1088 72.4684 14.8993 71.5296 13.7839 70.5371L15.4234 69.035L12.6953 65.0518C14.6843 63.2815 17.0898 61.8062 19.4551 60.6125C19.7239 60.465 19.9792 60.3309 20.2345 60.2102C24.7634 58.0107 28.9161 56.8573 29.3192 56.7634C29.3327 56.7634 29.3461 56.7634 29.3461 56.7634L29.3327 56.75Z" fill="white" style="fill:white;fill-opacity:1;"/>
<path d="M47.4694 76.2926L49.5255 79.4041C48.3967 79.6858 47.2812 79.9004 46.1255 80.0613C44.0962 80.3698 42.0401 80.5173 39.957 80.4771C39.4732 80.4771 38.976 80.4771 38.4922 80.4368C38.64 79.9272 38.7744 79.4175 38.9222 78.9079C39.5673 76.6547 40.2392 74.5223 40.8843 72.5508C41.8385 69.6539 42.7389 67.1191 43.4915 65.1208C43.8812 64.1015 44.2172 63.2297 44.4859 62.5323C44.5666 62.3446 44.6338 62.1836 44.6875 62.0093C45.0638 61.0973 45.2788 60.5742 45.2788 60.5742C48.3026 62.2775 50.6813 64.6111 52.2939 66.529C52.2939 66.529 52.2939 66.5424 52.3208 66.5424C52.509 66.7838 52.7105 66.9984 52.8718 67.2398C54.1351 68.809 54.7936 69.9489 54.7936 69.9489L47.7247 72.8995L45.7761 73.7176L47.4694 76.2792V76.2926Z" fill="#585960" style="fill:#585960;fill:color(display-p3 0.3451 0.3490 0.3765);fill-opacity:1;"/>
<path opacity="0.7" d="M47.4694 76.2926L49.5255 79.4041C48.3967 79.6858 47.2812 79.9004 46.1255 80.0613C44.0962 80.3698 42.0401 80.5173 39.957 80.4771C39.4732 80.4771 38.976 80.4771 38.4922 80.4368C38.64 79.9272 38.7744 79.4175 38.9222 78.9079C39.5673 76.6547 40.2392 74.5223 40.8843 72.5508C41.8385 69.6539 42.7389 67.1191 43.4915 65.1208C43.8812 64.1015 44.2172 63.2297 44.4859 62.5323C44.5666 62.3446 44.6338 62.1836 44.6875 62.0093C45.0638 61.0973 45.2788 60.5742 45.2788 60.5742C48.3026 62.2775 50.6813 64.6111 52.2939 66.529C52.2939 66.529 52.2939 66.5424 52.3208 66.5424C52.509 66.7838 52.7105 66.9984 52.8718 67.2398C54.1351 68.809 54.7936 69.9489 54.7936 69.9489L47.7247 72.8995L45.7761 73.7176L47.4694 76.2792V76.2926Z" fill="white" style="fill:white;fill-opacity:1;"/>
<path d="M61.892 74.2119C60.7229 74.9495 59.5402 75.6201 58.3173 76.237C57.9679 76.398 57.605 76.5857 57.2422 76.7467L59.7553 71.1406C60.575 71.9319 61.2873 72.9646 61.9055 74.2119H61.892Z" fill="#F3F0F0" style="fill:#F3F0F0;fill:color(display-p3 0.9529 0.9412 0.9412);fill-opacity:1;"/>
</svg>
