<svg width="384" height="250" viewBox="0 0 384 250" fill="none" xmlns="http://www.w3.org/2000/svg">
<path d="M138.141 185.715V110.513H78.8417V185.715H35.9844V0H78.8417V71.968H138.141V0H181.538V185.715H138.141Z" fill="#65666D" style="fill:#65666D;fill:color(display-p3 0.3961 0.4000 0.4275);fill-opacity:1;"/>
<path d="M324.438 0C334.68 0 343.395 1.70711 350.583 5.12132C357.771 8.53553 363.611 13.0279 368.104 18.5985C372.776 24.169 376.1 30.5482 378.077 37.736C380.233 44.7442 381.311 51.8421 381.311 59.03C381.311 63.8817 380.593 68.8234 379.155 73.8549C377.717 78.7066 375.651 83.3787 372.955 87.8711C370.44 92.1838 367.295 96.3168 363.522 100.27C359.748 104.044 355.525 107.278 350.853 109.974L384.007 185.715H338.184L310.152 117.251H283.737V185.715H240.879V0H324.438ZM283.737 79.7848H315.543C323.449 79.7848 329.11 77.8082 332.524 73.8549C336.118 69.7219 337.915 64.7802 337.915 59.03C337.915 53.2797 336.118 48.4279 332.524 44.4746C328.93 40.3416 323.27 38.2751 315.543 38.2751H283.737V79.7848Z" fill="#65666D" style="fill:#65666D;fill:color(display-p3 0.3961 0.4000 0.4275);fill-opacity:1;"/>
<path d="M120.618 185.715V110.513H61.3183V185.715H18.4609V0H61.3183V71.968H120.618V0H164.014V185.715H120.618Z" fill="#FFA469" style="fill:#FFA469;fill:color(display-p3 1.0000 0.6431 0.4118);fill-opacity:1;"/>
<path d="M306.914 0C317.157 0 325.872 1.70711 333.06 5.12132C340.248 8.53553 346.088 13.0279 350.58 18.5985C355.252 24.169 358.577 30.5482 360.553 37.736C362.71 44.7442 363.788 51.8421 363.788 59.03C363.788 63.8817 363.069 68.8234 361.632 73.8549C360.194 78.7066 358.127 83.3787 355.432 87.8711C352.916 92.1838 349.772 96.3168 345.998 100.27C342.225 104.044 338.002 107.278 333.33 109.974L366.483 185.715H320.661L292.629 117.251H266.213V185.715H223.356V0H306.914ZM266.213 79.7848H298.019C305.926 79.7848 311.586 77.8082 315.001 73.8549C318.595 69.7219 320.392 64.7802 320.392 59.03C320.392 53.2797 318.595 48.4279 315.001 44.4746C311.407 40.3416 305.746 38.2751 298.019 38.2751H266.213V79.7848Z" fill="#FFA469" style="fill:#FFA469;fill:color(display-p3 1.0000 0.6431 0.4118);fill-opacity:1;"/>
<path d="M102.157 185.715V110.513H42.8573V185.715H0V0H42.8573V71.968H102.157V0H145.553V185.715H102.157Z" fill="#FCCD82" style="fill:#FCCD82;fill:color(display-p3 0.9882 0.8039 0.5098);fill-opacity:1;"/>
<path d="M288.453 0C298.696 0 307.411 1.70711 314.599 5.12132C321.787 8.53553 327.627 13.0279 332.119 18.5985C336.791 24.169 340.116 30.5482 342.092 37.736C344.249 44.7442 345.327 51.8421 345.327 59.03C345.327 63.8817 344.608 68.8234 343.171 73.8549C341.733 78.7066 339.666 83.3787 336.971 87.8711C334.455 92.1838 331.311 96.3168 327.537 100.27C323.764 104.044 319.541 107.278 314.869 109.974L348.022 185.715H302.2L274.168 117.251H247.752V185.715H204.895V0H288.453ZM247.752 79.7848H279.558C287.465 79.7848 293.126 77.8082 296.54 73.8549C300.134 69.7219 301.931 64.7802 301.931 59.03C301.931 53.2797 300.134 48.4279 296.54 44.4746C292.946 40.3416 287.285 38.2751 279.558 38.2751H247.752V79.7848Z" fill="#FCCD82" style="fill:#FCCD82;fill:color(display-p3 0.9882 0.8039 0.5098);fill-opacity:1;"/>
<path d="M17.1503 237.908H8.37758L6.75739 243.298H0L9.60261 215.992H16.0834L25.5279 243.298H18.81L17.1503 237.908ZM9.95826 232.756H15.5697L15.0164 230.893L12.843 223.363H12.6849L10.5115 230.893L9.95826 232.756Z" fill="#65666D" style="fill:#65666D;fill:color(display-p3 0.3961 0.4000 0.4275);fill-opacity:1;"/>
<path d="M53.3944 235.134C53.3944 236.296 53.2232 237.379 52.8807 238.383C52.5382 239.361 52.0245 240.22 51.3396 240.959C50.6809 241.699 49.8511 242.28 48.85 242.703C47.8752 243.099 46.7424 243.298 45.4515 243.298H32.2134V215.992H44.9378C46.3604 215.992 47.5723 216.204 48.5734 216.626C49.5745 217.023 50.3912 217.564 51.0234 218.251C51.682 218.938 52.1562 219.731 52.446 220.629C52.7358 221.527 52.8807 222.478 52.8807 223.482C52.8807 223.958 52.8017 224.46 52.6436 224.988C52.5119 225.517 52.3011 226.032 52.0113 226.534C51.7479 227.036 51.4054 227.498 50.9839 227.921C50.5624 228.344 50.075 228.687 49.5218 228.951C50.1804 229.268 50.7468 229.678 51.221 230.18C51.7216 230.655 52.1299 231.184 52.446 231.765C52.7622 232.32 52.9993 232.901 53.1573 233.509C53.3154 234.09 53.3944 234.632 53.3944 235.134ZM46.3604 224.196C46.3604 223.43 46.1365 222.809 45.6886 222.333C45.2408 221.831 44.4241 221.58 43.2386 221.58H38.4966V226.534H43.2386C44.3451 226.534 45.1354 226.323 45.6096 225.9C46.1102 225.451 46.3604 224.883 46.3604 224.196ZM46.6371 234.896C46.6371 234.05 46.3868 233.337 45.8862 232.756C45.412 232.175 44.6217 231.884 43.5152 231.884H38.4966V237.71H43.5152C44.5427 237.71 45.3198 237.459 45.8467 236.957C46.3736 236.428 46.6371 235.741 46.6371 234.896Z" fill="#65666D" style="fill:#65666D;fill:color(display-p3 0.3961 0.4000 0.4275);fill-opacity:1;"/>
<path d="M72.6262 221.659V243.298H66.343V221.659H59.4276V215.992H79.5021V221.659H72.6262Z" fill="#65666D" style="fill:#65666D;fill:color(display-p3 0.3961 0.4000 0.4275);fill-opacity:1;"/>
<path d="M107.374 234.658C107.374 236.164 107.084 237.472 106.505 238.582C105.925 239.691 105.148 240.616 104.173 241.356C103.199 242.095 102.066 242.65 100.775 243.02C99.484 243.39 98.1273 243.575 96.7047 243.575C95.2821 243.575 93.9253 243.39 92.6344 243.02C91.3699 242.65 90.2371 242.095 89.236 241.356C88.2612 240.616 87.484 239.691 86.9045 238.582C86.3249 237.472 86.0351 236.164 86.0351 234.658V224.394C86.0351 222.888 86.3512 221.593 86.9835 220.51C87.6158 219.427 88.4325 218.529 89.4335 217.815C90.461 217.102 91.607 216.574 92.8715 216.23C94.1361 215.887 95.4138 215.715 96.7047 215.715C97.9955 215.715 99.2733 215.9 100.538 216.27C101.829 216.64 102.975 217.194 103.976 217.934C105.003 218.647 105.82 219.559 106.426 220.669C107.058 221.778 107.374 223.086 107.374 224.592V234.658ZM101.052 225.781C101.052 224.988 100.92 224.328 100.656 223.799C100.393 223.245 100.05 222.809 99.6289 222.492C99.2337 222.148 98.7727 221.897 98.2458 221.739C97.7189 221.58 97.2052 221.501 96.7047 221.501C96.1778 221.501 95.6509 221.58 95.124 221.739C94.6234 221.897 94.1624 222.148 93.7409 222.492C93.3194 222.809 92.9769 223.245 92.7135 223.799C92.45 224.328 92.3183 224.988 92.3183 225.781V233.509C92.3183 234.301 92.45 234.975 92.7135 235.53C92.9769 236.058 93.3194 236.494 93.7409 236.838C94.1624 237.155 94.6234 237.393 95.124 237.551C95.6509 237.71 96.1778 237.789 96.7047 237.789C97.2052 237.789 97.7189 237.71 98.2458 237.551C98.7727 237.393 99.2337 237.155 99.6289 236.838C100.05 236.494 100.393 236.058 100.656 235.53C100.92 234.975 101.052 234.301 101.052 233.509V225.781Z" fill="#65666D" style="fill:#65666D;fill:color(display-p3 0.3961 0.4000 0.4275);fill-opacity:1;"/>
<path d="M136.593 230.576L134.024 235.49L131.653 239.652H127.188L124.777 235.332L122.327 230.616H122.169V243.298H115.886V215.992H121.655L126.16 224.869L129.361 231.369H129.598L132.918 224.632L137.225 215.992H142.994V243.298H136.711V230.576H136.593Z" fill="#65666D" style="fill:#65666D;fill:color(display-p3 0.3961 0.4000 0.4275);fill-opacity:1;"/>
<path d="M166.612 237.908H157.839L156.219 243.298H149.462L159.064 215.992H165.545L174.99 243.298H168.272L166.612 237.908ZM159.42 232.756H165.032L164.478 230.893L162.305 223.363H162.147L159.973 230.893L159.42 232.756Z" fill="#65666D" style="fill:#65666D;fill:color(display-p3 0.3961 0.4000 0.4275);fill-opacity:1;"/>
<path d="M192.898 221.659V243.298H186.615V221.659H179.699V215.992H199.774V221.659H192.898Z" fill="#65666D" style="fill:#65666D;fill:color(display-p3 0.3961 0.4000 0.4275);fill-opacity:1;"/>
<path d="M222.548 227.168L212.116 243.298H206.505V215.992H212.748V232.36H212.867L223.378 215.992H229.029V243.298H222.746V227.168H222.548Z" fill="#65666D" style="fill:#65666D;fill:color(display-p3 0.3961 0.4000 0.4275);fill-opacity:1;"/>
<path d="M245.999 215.754C247.29 215.754 248.515 215.9 249.674 216.19C250.859 216.455 251.9 216.891 252.796 217.498C253.692 218.106 254.403 218.898 254.93 219.876C255.483 220.854 255.76 222.056 255.76 223.482C255.76 224.803 255.417 225.953 254.732 226.93C254.074 227.908 253.217 228.674 252.164 229.229C253.375 229.731 254.311 230.497 254.969 231.527C255.654 232.531 255.997 233.681 255.997 234.975C255.997 236.534 255.707 237.855 255.127 238.938C254.574 240.021 253.823 240.906 252.875 241.593C251.926 242.28 250.833 242.782 249.595 243.099C248.357 243.416 247.066 243.575 245.722 243.575C244.774 243.575 243.825 243.509 242.877 243.377C241.929 243.271 241.02 243.113 240.15 242.901C239.281 242.663 238.464 242.373 237.7 242.029C236.963 241.659 236.317 241.237 235.764 240.761L239.004 236.085C239.4 236.402 239.861 236.679 240.387 236.917C240.914 237.155 241.454 237.353 242.008 237.512C242.587 237.67 243.141 237.789 243.667 237.868C244.221 237.947 244.708 237.987 245.13 237.987C246.684 237.987 247.83 237.696 248.568 237.115C249.331 236.508 249.714 235.741 249.714 234.817C249.714 233.76 249.345 232.994 248.607 232.518C247.869 232.016 246.855 231.765 245.564 231.765H241.692V226.851H245.406C246.592 226.851 247.54 226.587 248.251 226.058C248.963 225.53 249.318 224.803 249.318 223.879C249.318 223.35 249.187 222.914 248.923 222.571C248.686 222.227 248.37 221.95 247.975 221.739C247.606 221.527 247.171 221.382 246.671 221.303C246.196 221.197 245.722 221.144 245.248 221.144C244.405 221.144 243.47 221.29 242.442 221.58C241.441 221.871 240.546 222.36 239.755 223.046L236.752 218.568C237.937 217.644 239.347 216.943 240.98 216.468C242.614 215.992 244.286 215.754 245.999 215.754Z" fill="#65666D" style="fill:#65666D;fill:color(display-p3 0.3961 0.4000 0.4275);fill-opacity:1;"/>
<path d="M279.012 237.908H270.239L268.619 243.298H261.861L271.464 215.992H277.945L287.389 243.298H280.671L279.012 237.908ZM271.819 232.756H277.431L276.878 230.893L274.704 223.363H274.546L272.373 230.893L271.819 232.756Z" fill="#65666D" style="fill:#65666D;fill:color(display-p3 0.3961 0.4000 0.4275);fill-opacity:1;"/>
<path d="M315.414 215.992V237.829H317.864V249.559H312.252V243.298H294.075V215.992H300.358V237.71H309.052V215.992H315.414Z" fill="#65666D" style="fill:#65666D;fill:color(display-p3 0.3961 0.4000 0.4275);fill-opacity:1;"/>
<path d="M341.122 227.168L330.69 243.298H325.078V215.992H331.322V232.36H331.441L341.952 215.992H347.603V243.298H341.32V227.168H341.122Z" fill="#65666D" style="fill:#65666D;fill:color(display-p3 0.3961 0.4000 0.4275);fill-opacity:1;"/>
<path d="M376.902 215.992V243.298H370.619V232.954H368.524C367.365 232.954 366.456 233.165 365.798 233.588C365.139 233.984 364.625 234.856 364.257 236.204L362.281 243.298H355.207L357.539 236.006C357.829 235.054 358.158 234.183 358.527 233.39C358.922 232.597 359.541 231.963 360.384 231.488C359.567 231.223 358.869 230.84 358.29 230.338C357.736 229.81 357.289 229.216 356.946 228.555C356.604 227.895 356.353 227.208 356.195 226.494C356.063 225.755 355.998 225.054 355.998 224.394C355.998 223.39 356.156 222.386 356.472 221.382C356.814 220.378 357.328 219.48 358.013 218.687C358.698 217.895 359.58 217.247 360.661 216.745C361.741 216.243 363.018 215.992 364.494 215.992H376.902ZM370.619 221.62H365.798C364.612 221.62 363.756 221.91 363.229 222.492C362.729 223.046 362.478 223.786 362.478 224.711C362.478 225.556 362.729 226.23 363.229 226.732C363.756 227.208 364.573 227.445 365.679 227.445H370.619V221.62Z" fill="#65666D" style="fill:#65666D;fill:color(display-p3 0.3961 0.4000 0.4275);fill-opacity:1;"/>
</svg>
