<svg width="254" height="247" viewBox="0 0 254 247" fill="none" xmlns="http://www.w3.org/2000/svg">
<path opacity="0.1" d="M60.5186 80.7748C64.6677 80.5399 68.0146 83.4921 69.2735 91.6313C70.5066 99.6745 69.2524 111.993 68.2581 115.232L60.6494 116.083C60.6494 116.083 55.4152 88.8458 60.5064 80.7678L60.5186 80.7748Z" fill="#585960" style="fill:#585960;fill:color(display-p3 0.3451 0.3490 0.3765);fill-opacity:1;"/>
<path d="M151.226 187.467L117.923 187.483L85.4266 187.51C84.2731 187.51 83.1284 187.466 81.9857 187.391C81.9786 187.403 81.9786 187.403 81.9472 187.401C68.623 187.374 58.3533 184.338 50.4442 179.777C26.6073 166.029 24.252 138.505 24.252 138.505C23.2778 134.455 22.7301 130.23 22.7258 125.88C22.7011 96.0655 46.9476 71.7977 76.8091 71.7758L109.854 71.7568L142.609 71.7328L151.106 79.326L151.118 88.6936L151.132 107.422L117.557 107.459L85.3254 107.477C70.9906 107.483 59.3432 119.145 59.3562 133.46C59.3605 139.076 61.1868 144.266 64.2351 148.522C67.9872 150.605 72.3084 151.815 76.9033 151.821L108.411 151.791L142.71 151.766L151.2 159.371L151.216 173.429L151.226 187.467Z" fill="#585960" style="fill:#585960;fill:color(display-p3 0.3451 0.3490 0.3765);fill-opacity:1;"/>
<path d="M151.128 107.434L117.552 107.472L109.175 99.8667L109.849 71.7685L142.604 71.7446L151.101 79.3379L151.114 88.7057L151.128 107.434Z" fill="#FCCD82" style="fill:#FCCD82;fill:color(display-p3 0.9882 0.8039 0.5098);fill-opacity:1;"/>
<path d="M151.239 187.474L117.936 187.49L108.02 179.905L108.423 151.797L142.723 151.772L151.213 159.377L151.229 173.435L151.239 187.474Z" fill="#FCCD82" style="fill:#FCCD82;fill:color(display-p3 0.9882 0.8039 0.5098);fill-opacity:1;"/>
<g opacity="0.2">
<path d="M22.7392 125.886C22.7024 96.0652 46.9679 71.7924 76.8223 71.7827L142.622 71.7397L142.661 99.8423L76.8611 99.8854C62.5264 99.8912 50.8668 111.546 50.885 125.881C50.8981 140.196 62.5747 151.846 76.9287 151.835L142.728 151.792L142.767 179.894L76.9675 179.937C47.106 179.959 22.7881 155.714 22.7635 125.9L22.7392 125.886Z" fill="white" style="fill:white;fill-opacity:1;"/>
</g>
<path opacity="0.4" d="M142.595 71.7461L151.091 79.3392L151.123 107.454L142.634 99.8485L142.595 71.7461Z" fill="white" style="fill:white;fill-opacity:1;"/>
<path opacity="0.4" d="M142.72 151.785L151.216 159.378L151.255 187.481L142.759 179.888L142.72 151.785Z" fill="white" style="fill:white;fill-opacity:1;"/>
<path d="M109.962 66.7578L109.935 67.7318L109.294 67.9135L109.962 66.7578Z" fill="#FCCD82" style="fill:#FCCD82;fill:color(display-p3 0.9882 0.8039 0.5098);fill-opacity:1;"/>
<path d="M157.857 81.7363L173.366 74.4114L169.588 66.4418L194.271 62.5582L178.944 69.7933L182.721 77.763L157.857 81.7363Z" fill="#FCCD82" style="fill:#FCCD82;fill:color(display-p3 0.9882 0.8039 0.5098);fill-opacity:1;"/>
<path d="M159.482 100.831L176.612 101.951L177.184 93.1463L200.663 101.724L183.741 100.611L183.169 109.415L159.482 100.831Z" fill="#FCCD82" style="fill:#FCCD82;fill:color(display-p3 0.9882 0.8039 0.5098);fill-opacity:1;"/>
<path d="M158.161 180.203L174.211 186.231L177.321 177.982L197.315 192.986L181.438 187.025L178.328 195.274L158.161 180.203Z" fill="#FCCD82" style="fill:#FCCD82;fill:color(display-p3 0.9882 0.8039 0.5098);fill-opacity:1;"/>
<path d="M156.231 164.898L172.677 160.059L170.189 151.6L195.184 151.562L178.919 156.343L181.419 164.809L156.231 164.898Z" fill="#FCCD82" style="fill:#FCCD82;fill:color(display-p3 0.9882 0.8039 0.5098);fill-opacity:1;"/>
<g opacity="0.5">
<path d="M157.857 81.7363L173.366 74.4114L169.588 66.4417L194.271 62.5582L178.944 69.7933L182.721 77.763L157.857 81.7363Z" fill="white" style="fill:white;fill-opacity:1;"/>
<path d="M159.482 100.827L176.612 101.947L177.184 93.1424L200.663 101.72L183.741 100.607L183.169 109.411L159.482 100.827Z" fill="white" style="fill:white;fill-opacity:1;"/>
<path d="M158.169 180.2L174.218 186.227L177.328 177.978L197.323 192.982L181.446 187.021L178.336 195.27L158.169 180.2Z" fill="white" style="fill:white;fill-opacity:1;"/>
<path d="M156.231 164.898L172.677 160.059L170.189 151.6L195.184 151.562L178.919 156.343L181.419 164.809L156.231 164.898Z" fill="white" style="fill:white;fill-opacity:1;"/>
</g>
</svg>
