<svg width="121" height="177" viewBox="0 0 121 177" fill="none" xmlns="http://www.w3.org/2000/svg">
<g id="Pen">
<g id="Group">
<g id="Group_2">
<g id="Group_3">
<path id="Vector" d="M10.2492 170.213L97.0429 12.717L107.976 2.13572L104.876 17.0303L18.0818 174.526C17.4817 175.622 16.1114 176.009 15.0253 175.415L11.1481 173.276C10.0517 172.676 9.66576 171.305 10.2595 170.219L10.2492 170.213Z" fill="#FCCD82" style="fill:#FCCD82;fill:color(display-p3 0.9882 0.8039 0.5098);fill-opacity:1;"/>
<path id="Vector_2" d="M10.2492 170.213L97.0429 12.717L107.976 2.13572L104.876 17.0303L18.0818 174.526C17.4817 175.622 16.1114 176.009 15.0253 175.415L11.1481 173.276C10.0517 172.676 9.66576 171.305 10.2595 170.219L10.2492 170.213Z" stroke="#585960" style="stroke:#585960;stroke:color(display-p3 0.3469 0.3504 0.3750);stroke-opacity:1;" stroke-linecap="round" stroke-linejoin="round"/>
</g>
<g id="Vector_3">
<path d="M15.9609 172.414L101.168 17.7984C101.576 17.0537 101.311 16.1303 100.566 15.7217L99.6303 15.2077" fill="#FCCD82" style="fill:#FCCD82;fill:color(display-p3 0.9882 0.8039 0.5098);fill-opacity:1;"/>
<path d="M15.9609 172.414L101.168 17.7984C101.576 17.0537 101.311 16.1303 100.566 15.7217L99.6303 15.2077" stroke="#585960" style="stroke:#585960;stroke:color(display-p3 0.3469 0.3504 0.3750);stroke-opacity:1;" stroke-linecap="round" stroke-linejoin="round"/>
</g>
</g>
</g>
</g>
</svg>
