<svg width="383" height="350" viewBox="0 0 383 350" fill="none" xmlns="http://www.w3.org/2000/svg">
<path d="M81.4856 226.212C81.6941 226.396 82.0149 226.366 82.1822 226.184C82.3662 225.976 82.341 225.677 82.1547 225.487C81.9461 225.303 81.6254 225.333 81.4581 225.514C81.274 225.723 81.3046 226.044 81.4856 226.212Z" fill="#D7D7D7"/>
<path d="M90.4684 216.191C90.4684 216.191 90.5183 216.202 90.5352 216.175C90.5352 216.175 90.5245 216.13 90.5191 216.108C90.5191 216.108 90.4692 216.096 90.4523 216.124C90.4523 216.124 90.4408 216.174 90.4684 216.191Z" fill="#D7D7D7"/>
<path d="M118.227 301.781C118.348 301.893 118.531 301.873 118.642 301.752C118.754 301.631 118.733 301.448 118.612 301.337C118.492 301.225 118.309 301.246 118.198 301.366C118.086 301.487 118.107 301.67 118.227 301.781Z" fill="#D7D7D7"/>
<path d="M175.673 319.75C175.793 319.862 175.976 319.841 176.087 319.721C176.199 319.6 176.178 319.417 176.058 319.305C175.937 319.194 175.754 319.214 175.643 319.335C175.531 319.456 175.552 319.639 175.673 319.75Z" fill="#D7D7D7"/>
<path d="M196.162 320.466C196.375 320.672 196.718 320.636 196.925 320.422C197.131 320.208 197.095 319.865 196.881 319.659C196.667 319.452 196.319 319.466 196.118 319.702C195.912 319.916 195.948 320.259 196.162 320.466Z" fill="#D7D7D7"/>
<path d="M186.639 330.061C186.902 330.279 187.3 330.277 187.518 330.014C187.741 329.772 187.733 329.352 187.47 329.134C187.206 328.916 186.808 328.918 186.591 329.181C186.373 329.445 186.375 329.843 186.639 330.061Z" fill="#D7D7D7"/>
<path d="M151.558 354.379C152.88 355.586 154.937 355.465 156.136 354.12C157.336 352.775 157.22 350.738 155.875 349.537C154.553 348.331 152.496 348.451 151.319 349.791C150.12 351.136 150.236 353.173 151.58 354.374L151.558 354.379Z" fill="#D7D7D7"/>
<path d="M204.853 309.735C204.853 309.735 205.03 309.786 205.085 309.725C205.141 309.665 205.136 309.549 205.076 309.493C205.016 309.437 204.9 309.442 204.844 309.502C204.788 309.562 204.793 309.679 204.853 309.735Z" fill="#D7D7D7"/>
<path d="M186.907 349.637C187.598 350.268 188.687 350.217 189.312 349.503C189.942 348.811 189.868 347.726 189.177 347.095C188.485 346.464 187.402 346.537 186.771 347.229C186.141 347.921 186.193 349.011 186.907 349.637Z" fill="#D7D7D7"/>
<path d="M173.533 360.079C175.717 362.04 179.073 361.864 181.031 359.679C182.988 357.494 182.811 354.135 180.627 352.174C178.444 350.213 175.088 350.389 173.13 352.574C171.172 354.759 171.349 358.118 173.533 360.079Z" fill="#D7D7D7"/>
<path d="M208.821 134.411C209.633 135.153 210.905 135.081 211.641 134.247C212.383 133.435 212.311 132.162 211.476 131.424C210.665 130.681 209.393 130.753 208.656 131.588C207.915 132.4 207.987 133.673 208.821 134.411Z" fill="#D7D7D7"/>
<path d="M217.056 145.028C217.89 145.765 219.139 145.699 219.876 144.864C220.617 144.052 220.545 142.779 219.711 142.041C218.899 141.298 217.627 141.37 216.891 142.205C216.149 143.017 216.222 144.29 217.056 145.028Z" fill="#D7D7D7"/>
<path d="M225.288 155.268C225.502 155.474 225.845 155.439 226.051 155.225C226.258 155.011 226.222 154.667 226.008 154.461C225.794 154.254 225.451 154.29 225.245 154.504C225.039 154.718 225.052 155.067 225.288 155.268Z" fill="#D7D7D7"/>
<path d="M231.532 167.157C231.741 167.341 232.062 167.311 232.229 167.13C232.413 166.921 232.383 166.6 232.202 166.432C231.993 166.248 231.672 166.278 231.505 166.46C231.321 166.668 231.346 166.967 231.532 167.157Z" fill="#D7D7D7"/>
<path d="M236.568 179.679C236.832 179.897 237.23 179.895 237.448 179.631C237.665 179.367 237.663 178.969 237.399 178.751C237.136 178.533 236.738 178.535 236.52 178.799C236.303 179.062 236.305 179.461 236.568 179.679Z" fill="#D7D7D7"/>
<path d="M240.919 192.113C240.919 192.113 240.997 192.141 241.03 192.086C241.07 192.053 241.059 192.008 241.004 191.975C240.971 191.935 240.904 191.952 240.892 192.001C240.853 192.034 240.864 192.079 240.919 192.113Z" fill="#D7D7D7"/>
<path d="M243.74 205.261C243.74 205.261 243.817 205.29 243.851 205.234C243.89 205.201 243.879 205.157 243.824 205.123C243.791 205.084 243.746 205.095 243.713 205.15C243.674 205.183 243.684 205.227 243.74 205.261Z" fill="#D7D7D7"/>
<path d="M245.834 232.022C245.834 232.022 245.884 232.033 245.878 232.011C245.878 232.011 245.89 231.962 245.862 231.945C245.862 231.945 245.813 231.933 245.796 231.961C245.796 231.961 245.785 232.01 245.812 232.027L245.834 232.022Z" fill="#D7D7D7"/>
<path d="M245.06 245.435C245.06 245.435 245.11 245.447 245.127 245.419C245.127 245.419 245.116 245.375 245.111 245.353C245.111 245.353 245.061 245.341 245.044 245.369C245.044 245.369 245.055 245.413 245.06 245.435Z" fill="#D7D7D7"/>
<path d="M243.009 258.813C243.009 258.813 243.186 258.864 243.242 258.804C243.297 258.743 243.293 258.627 243.232 258.571C243.172 258.515 243.056 258.52 243 258.58C242.944 258.641 242.949 258.757 243.009 258.813Z" fill="#D7D7D7"/>
<path d="M235.168 285.013C235.464 285.271 235.906 285.258 236.163 284.961C236.42 284.665 236.407 284.222 236.11 283.965C235.814 283.708 235.372 283.721 235.115 284.017C234.858 284.314 234.871 284.756 235.168 285.013Z" fill="#D7D7D7"/>
<path d="M229.689 297.364C230.018 297.66 230.505 297.637 230.8 297.307C231.096 296.978 231.072 296.491 230.743 296.195C230.414 295.899 229.927 295.922 229.632 296.252C229.336 296.581 229.36 297.068 229.689 297.364Z" fill="#D7D7D7"/>
<path d="M223.173 309.122C223.503 309.418 223.989 309.394 224.285 309.065C224.58 308.736 224.557 308.249 224.227 307.953C223.898 307.657 223.412 307.68 223.116 308.009C222.821 308.339 222.844 308.826 223.173 309.122Z" fill="#D7D7D7"/>
<path d="M216.022 319.81C216.022 319.81 216.225 319.879 216.298 319.791C216.371 319.703 216.366 319.587 216.273 319.492C216.185 319.419 216.069 319.424 215.974 319.517C215.902 319.605 215.912 319.743 215.999 319.816L216.022 319.81Z" fill="#D7D7D7"/>
<path d="M218.076 340.872C218.52 341.257 219.195 341.236 219.602 340.785C220.009 340.335 219.965 339.666 219.515 339.258C219.065 338.85 218.396 338.894 217.989 339.344C217.604 339.789 217.626 340.464 218.076 340.872Z" fill="#D7D7D7"/>
<path d="M204.847 354.835C207.684 357.366 212.035 357.138 214.584 354.295C217.133 351.451 216.881 347.1 214.044 344.57C211.202 342.017 206.856 342.267 204.307 345.111C201.78 347.949 202.01 352.305 204.847 354.835Z" fill="#D7D7D7"/>
<path d="M207.952 110.288C208.336 110.618 208.917 110.596 209.246 110.211C209.575 109.827 209.552 109.246 209.168 108.916C208.806 108.581 208.203 108.609 207.874 108.993C207.545 109.378 207.562 109.936 207.952 110.288Z" fill="#D7D7D7"/>
<path d="M215.164 122.324C216.898 123.877 219.585 123.745 221.135 122.01C222.686 120.276 222.553 117.586 220.819 116.033C219.08 114.458 216.398 114.611 214.848 116.346C213.297 118.081 213.43 120.771 215.164 122.324Z" fill="#D7D7D7"/>
<path d="M224.089 132.3C225.642 133.686 228.025 133.557 229.43 131.998C230.813 130.444 230.684 128.059 229.126 126.651C227.573 125.266 225.19 125.394 223.784 126.953C222.401 128.507 222.531 130.893 224.089 132.3Z" fill="#D7D7D7"/>
<path d="M233.235 141.743C233.926 142.374 235.01 142.3 235.64 141.609C236.271 140.917 236.219 139.827 235.505 139.201C234.814 138.57 233.725 138.621 233.1 139.335C232.47 140.026 232.544 141.111 233.235 141.743Z" fill="#D7D7D7"/>
<path d="M240.128 153.236C240.786 153.828 241.804 153.77 242.417 153.106C243.008 152.448 242.95 151.429 242.287 150.815C241.628 150.223 240.589 150.286 239.997 150.944C239.406 151.603 239.47 152.644 240.128 153.236Z" fill="#D7D7D7"/>
<path d="M245.87 165.49C246.616 166.154 247.777 166.109 248.463 165.357C249.127 164.611 249.081 163.448 248.335 162.784C247.589 162.119 246.428 162.164 245.742 162.916C245.078 163.663 245.124 164.825 245.876 165.512L245.87 165.49Z" fill="#D7D7D7"/>
<path d="M251.335 177.359C251.719 177.688 252.299 177.666 252.629 177.281C252.958 176.897 252.94 176.338 252.551 175.986C252.167 175.656 251.586 175.679 251.257 176.063C250.928 176.448 250.951 177.029 251.335 177.359Z" fill="#D7D7D7"/>
<path d="M255.163 190.234C255.525 190.569 256.105 190.546 256.457 190.156C256.786 189.772 256.763 189.191 256.379 188.861C255.995 188.531 255.414 188.554 255.085 188.938C254.75 189.301 254.773 189.882 255.163 190.234Z" fill="#D7D7D7"/>
<path d="M258.25 203.045C258.431 203.212 258.729 203.187 258.897 203.006C259.064 202.825 259.039 202.526 258.858 202.358C258.677 202.191 258.378 202.216 258.211 202.397C258.043 202.578 258.069 202.877 258.25 203.045Z" fill="#D7D7D7"/>
<path d="M259.372 217.022C259.91 217.502 260.717 217.449 261.197 216.911C261.677 216.373 261.623 215.564 261.085 215.084C260.547 214.604 259.74 214.657 259.26 215.195C258.781 215.733 258.835 216.542 259.372 217.022Z" fill="#D7D7D7"/>
<path d="M260.558 229.806C260.734 229.952 260.988 229.937 261.139 229.784C261.284 229.608 261.269 229.353 261.116 229.203C260.94 229.057 260.686 229.072 260.535 229.225C260.39 229.401 260.405 229.656 260.558 229.806Z" fill="#D7D7D7"/>
<path d="M259.463 243.915C260.001 244.396 260.858 244.353 261.338 243.815C261.839 243.272 261.774 242.419 261.237 241.939C260.694 241.436 259.842 241.501 259.362 242.039C258.883 242.577 258.925 243.435 259.463 243.915Z" fill="#D7D7D7"/>
<path d="M258.313 256.763C258.582 257.003 259.002 256.996 259.264 256.722C259.504 256.453 259.496 256.032 259.2 255.775C258.931 255.535 258.511 255.542 258.255 255.839C258.015 256.108 258.022 256.528 258.319 256.785L258.313 256.763Z" fill="#D7D7D7"/>
<path d="M255.389 270.212C255.811 270.603 256.48 270.559 256.848 270.142C257.239 269.719 257.194 269.049 256.777 268.681C256.355 268.29 255.686 268.334 255.318 268.751C254.927 269.173 254.972 269.843 255.389 270.212Z" fill="#D7D7D7"/>
<path d="M251.788 282.976C252.118 283.272 252.654 283.26 252.966 282.903C253.284 282.568 253.249 282.037 252.893 281.724C252.558 281.405 252.027 281.44 251.715 281.796C251.397 282.131 251.432 282.663 251.788 282.976Z" fill="#D7D7D7"/>
<path d="M226.4 354.024C228.584 355.985 231.94 355.809 233.898 353.624C235.855 351.44 235.678 348.08 233.495 346.119C231.311 344.158 227.955 344.334 225.997 346.519C224.039 348.704 224.217 352.064 226.4 354.024Z" fill="#D7D7D7"/>
<path d="M205.532 87.8049C205.653 87.9166 205.835 87.8961 205.947 87.7753C206.058 87.6546 206.038 87.4719 205.917 87.3602C205.796 87.2485 205.614 87.269 205.502 87.3898C205.391 87.5105 205.411 87.6932 205.532 87.8049Z" fill="#D7D7D7"/>
<path d="M248.893 138.945C249.672 139.649 250.877 139.593 251.574 138.792C252.277 138.012 252.221 136.806 251.419 136.107C250.64 135.403 249.435 135.459 248.715 136.266C248.013 137.046 248.069 138.252 248.876 138.973L248.893 138.945Z" fill="#D7D7D7"/>
<path d="M265.453 175.736C266.348 176.53 267.713 176.458 268.505 175.564C269.297 174.669 269.226 173.301 268.331 172.508C267.437 171.715 266.071 171.786 265.279 172.681C264.487 173.576 264.559 174.943 265.453 175.736Z" fill="#D7D7D7"/>
<path d="M270.3 187.384C270.476 187.53 270.73 187.515 270.881 187.362C271.026 187.186 271.011 186.931 270.858 186.781C270.682 186.635 270.428 186.65 270.277 186.803C270.132 186.979 270.147 187.234 270.3 187.384Z" fill="#D7D7D7"/>
<path d="M273.255 200.3C273.255 200.3 273.333 200.329 273.366 200.273C273.405 200.24 273.395 200.196 273.339 200.162C273.306 200.123 273.262 200.134 273.228 200.189C273.189 200.222 273.2 200.266 273.255 200.3Z" fill="#D7D7D7"/>
<path d="M274.982 213.628C274.982 213.628 275.059 213.657 275.093 213.602C275.127 213.546 275.121 213.524 275.066 213.49C275.011 213.456 274.989 213.462 274.955 213.517C274.916 213.55 274.926 213.595 274.982 213.628Z" fill="#D7D7D7"/>
<path d="M255.807 309.251C257.99 311.212 261.346 311.036 263.304 308.851C265.262 306.666 265.085 303.306 262.901 301.346C260.717 299.385 257.361 299.561 255.403 301.746C253.446 303.93 253.623 307.29 255.807 309.251Z" fill="#D7D7D7"/>
<path d="M249.744 321.227C251.928 323.188 255.284 323.013 257.242 320.828C259.199 318.643 259.022 315.283 256.838 313.322C254.655 311.362 251.298 311.537 249.341 313.722C247.383 315.907 247.56 319.267 249.744 321.227Z" fill="#D7D7D7"/>
<path d="M242.783 332.735C244.967 334.696 248.323 334.52 250.281 332.335C252.238 330.151 252.061 326.791 249.877 324.83C247.694 322.869 244.338 323.045 242.38 325.23C240.422 327.415 240.599 330.774 242.783 332.735Z" fill="#D7D7D7"/>
<path d="M234.994 343.688C237.178 345.649 240.534 345.473 242.492 343.289C244.449 341.104 244.272 337.744 242.088 335.783C239.905 333.822 236.548 333.998 234.591 336.183C232.633 338.368 232.81 341.728 234.994 343.688Z" fill="#D7D7D7"/>
<path d="M211.934 75.6565C212.653 76.3044 213.742 76.253 214.389 75.5339C215.036 74.8147 214.979 73.7023 214.265 73.0765C213.547 72.4285 212.435 72.4852 211.81 73.199C211.163 73.9181 211.221 75.0307 211.956 75.6511L211.934 75.6565Z" fill="#D7D7D7"/>
<path d="M222.361 84.1005C223.08 84.7485 224.191 84.6917 224.816 83.9779C225.463 83.2588 225.406 82.1463 224.692 81.5205C223.974 80.8725 222.862 80.9293 222.238 81.6431C221.591 82.3622 221.648 83.4747 222.361 84.1005Z" fill="#D7D7D7"/>
<path d="M232.202 93.2459C232.921 93.8939 234.032 93.8372 234.657 93.1234C235.304 92.4042 235.246 91.2917 234.533 90.6659C233.814 90.018 232.703 90.0747 232.056 90.7939C231.409 91.513 231.488 92.6201 232.18 93.2513L232.202 93.2459Z" fill="#D7D7D7"/>
<path d="M241.416 103.069C242.135 103.717 243.246 103.66 243.871 102.947C244.518 102.228 244.46 101.115 243.747 100.489C243.028 99.8413 241.917 99.8981 241.292 100.612C240.645 101.331 240.703 102.443 241.416 103.069Z" fill="#D7D7D7"/>
<path d="M249.898 113.478C250.617 114.126 251.729 114.069 252.353 113.355C253 112.636 252.943 111.524 252.23 110.898C251.511 110.25 250.4 110.307 249.775 111.02C249.128 111.74 249.207 112.847 249.898 113.478Z" fill="#D7D7D7"/>
<path d="M284.757 185.249C285.141 185.579 285.721 185.556 286.051 185.172C286.38 184.788 286.362 184.229 285.973 183.877C285.611 183.542 285.008 183.57 284.679 183.954C284.35 184.339 284.367 184.897 284.757 185.249Z" fill="#D7D7D7"/>
<path d="M289.299 226.042C290.161 226.796 291.46 226.741 292.235 225.874C293.01 225.006 292.933 223.711 292.066 222.935C291.204 222.18 289.905 222.235 289.129 223.103C288.371 223.943 288.432 225.265 289.299 226.042Z" fill="#D7D7D7"/>
<path d="M285.824 255.578C288.156 257.667 291.744 257.482 293.852 255.144C295.961 252.805 295.747 249.197 293.415 247.107C291.078 244.996 287.472 245.208 285.386 247.541C283.3 249.874 283.492 253.489 285.824 255.578Z" fill="#D7D7D7"/>
<path d="M283.91 268.898C286.242 270.987 289.83 270.803 291.938 268.464C294.024 266.131 293.833 262.517 291.501 260.428C289.164 258.316 285.558 258.528 283.472 260.861C281.386 263.195 281.578 266.809 283.91 268.898Z" fill="#D7D7D7"/>
<path d="M280.925 282.197C283.35 284.381 287.072 284.164 289.252 281.738C291.433 279.312 291.215 275.586 288.79 273.402C286.364 271.218 282.643 271.435 280.462 273.861C278.282 276.288 278.5 280.013 280.925 282.197Z" fill="#D7D7D7"/>
<path d="M277.58 294.665C279.764 296.626 283.12 296.45 285.078 294.265C287.035 292.08 286.858 288.721 284.674 286.76C282.491 284.799 279.134 284.975 277.177 287.16C275.219 289.344 275.396 292.704 277.58 294.665Z" fill="#D7D7D7"/>
<path d="M272.955 307.298C275.139 309.258 278.495 309.083 280.453 306.898C282.41 304.713 282.233 301.353 280.049 299.393C277.866 297.432 274.509 297.607 272.552 299.792C270.594 301.977 270.771 305.337 272.955 307.298Z" fill="#D7D7D7"/>
<path d="M267.478 319.556C269.662 321.516 273.018 321.341 274.976 319.156C276.934 316.971 276.756 313.611 274.573 311.65C272.389 309.69 269.033 309.865 267.075 312.05C265.118 314.235 265.295 317.595 267.478 319.556Z" fill="#D7D7D7"/>
<path d="M261.174 331.423C263.357 333.383 266.714 333.208 268.671 331.023C270.629 328.838 270.452 325.478 268.268 323.518C266.084 321.557 262.728 321.732 260.77 323.917C258.813 326.102 258.99 329.462 261.174 331.423Z" fill="#D7D7D7"/>
<path d="M254.057 342.829C256.24 344.79 259.596 344.614 261.554 342.429C263.512 340.244 263.335 336.885 261.151 334.924C258.967 332.963 255.611 333.139 253.653 335.324C251.696 337.509 251.873 340.868 254.057 342.829Z" fill="#D7D7D7"/>
<path d="M246.174 353.712C248.357 355.672 251.714 355.497 253.671 353.312C255.629 351.127 255.452 347.767 253.268 345.807C251.084 343.846 247.728 344.022 245.77 346.206C243.813 348.391 243.99 351.751 246.174 353.712Z" fill="#D7D7D7"/>
<path d="M208.725 54.2103C209.087 54.5454 209.69 54.5174 210.019 54.133C210.348 53.7486 210.331 53.1896 209.941 52.8377C209.557 52.508 208.977 52.5306 208.647 52.915C208.318 53.2994 208.341 53.8806 208.725 54.2103Z" fill="#D7D7D7"/>
<path d="M219.524 62.1435C220.067 62.6461 220.897 62.5869 221.399 62.0436C221.9 61.5002 221.836 60.6477 221.298 60.1672C220.755 59.6646 219.903 59.7292 219.423 60.2672C218.944 60.8052 218.987 61.6631 219.524 62.1435Z" fill="#D7D7D7"/>
<path d="M229.807 70.7646C230.525 71.4125 231.637 71.3558 232.261 70.642C232.908 69.9229 232.851 68.8104 232.138 68.1846C231.419 67.5366 230.308 67.5933 229.683 68.3071C229.036 69.0263 229.093 70.1388 229.807 70.7646Z" fill="#D7D7D7"/>
<path d="M239.797 79.7513C240.516 80.3993 241.627 80.3425 242.252 79.6287C242.899 78.9096 242.841 77.7971 242.128 77.1713C241.409 76.5233 240.298 76.5801 239.673 77.2938C239.026 78.013 239.106 79.1201 239.797 79.7513Z" fill="#D7D7D7"/>
<path d="M249.213 89.3349C249.932 89.9828 251.043 89.9261 251.668 89.2123C252.315 88.4932 252.257 87.3807 251.544 86.7549C250.825 86.1069 249.736 86.1583 249.089 86.8774C248.442 87.5966 248.499 88.7091 249.213 89.3349Z" fill="#D7D7D7"/>
<path d="M258.002 99.538C258.721 100.186 259.832 100.129 260.457 99.4154C261.104 98.6963 261.046 97.5838 260.333 96.958C259.614 96.31 258.503 96.3668 257.878 97.0806C257.231 97.7997 257.288 98.9122 258.002 99.538Z" fill="#D7D7D7"/>
<path d="M266.096 110.257C266.814 110.905 267.926 110.848 268.55 110.134C269.197 109.415 269.14 108.303 268.427 107.677C267.708 107.029 266.597 107.086 265.972 107.799C265.325 108.518 265.382 109.631 266.096 110.257Z" fill="#D7D7D7"/>
<path d="M273.023 122.005C274.038 122.91 275.564 122.823 276.473 121.83C277.377 120.814 277.284 119.264 276.297 118.376C275.282 117.471 273.733 117.563 272.824 118.556C271.921 119.572 272.013 121.122 273.028 122.027L273.023 122.005Z" fill="#D7D7D7"/>
<path d="M280.174 133.163C280.892 133.811 282.004 133.754 282.629 133.04C283.276 132.321 283.218 131.209 282.505 130.583C281.786 129.935 280.675 129.992 280.05 130.706C279.403 131.425 279.46 132.537 280.174 133.163Z" fill="#D7D7D7"/>
<path d="M286.161 145.148C286.82 145.74 287.859 145.677 288.45 145.018C289.041 144.359 288.983 143.341 288.32 142.727C287.661 142.134 286.644 142.192 286.031 142.856C285.439 143.515 285.475 144.539 286.161 145.148Z" fill="#D7D7D7"/>
<path d="M291.749 157.054C292.133 157.384 292.714 157.361 293.043 156.977C293.372 156.592 293.349 156.011 292.965 155.681C292.581 155.352 292 155.374 291.671 155.759C291.342 156.143 291.359 156.702 291.749 157.054Z" fill="#D7D7D7"/>
<path d="M296.077 169.781C296.461 170.11 297.042 170.088 297.371 169.703C297.7 169.319 297.682 168.76 297.293 168.408C296.931 168.073 296.35 168.096 295.999 168.485C295.67 168.87 295.693 169.451 296.077 169.781Z" fill="#D7D7D7"/>
<path d="M299.561 182.765C299.946 183.095 300.526 183.072 300.855 182.688C301.184 182.303 301.167 181.744 300.777 181.392C300.415 181.057 299.835 181.08 299.483 181.47C299.149 181.832 299.172 182.413 299.561 182.765Z" fill="#D7D7D7"/>
<path d="M302.218 195.945C302.602 196.274 303.182 196.252 303.511 195.867C303.841 195.483 303.823 194.924 303.434 194.572C303.049 194.242 302.469 194.265 302.14 194.649C301.81 195.034 301.828 195.593 302.218 195.945Z" fill="#D7D7D7"/>
<path d="M304.03 209.281C304.392 209.616 304.995 209.588 305.324 209.203C305.653 208.819 305.63 208.238 305.246 207.908C304.862 207.578 304.281 207.601 303.952 207.985C303.623 208.37 303.641 208.929 304.03 209.281Z" fill="#D7D7D7"/>
<path d="M304.968 222.687C305.33 223.022 305.932 222.994 306.261 222.61C306.591 222.225 306.573 221.666 306.184 221.314C305.799 220.985 305.219 221.007 304.89 221.392C304.56 221.776 304.583 222.357 304.968 222.687Z" fill="#D7D7D7"/>
<path d="M302.759 238.71C304.553 240.318 307.307 240.171 308.913 238.376C310.52 236.581 310.371 233.824 308.577 232.215C306.782 230.606 304.029 230.754 302.422 232.549C300.816 234.344 300.965 237.101 302.759 238.71Z" fill="#D7D7D7"/>
<path d="M300.972 253.267C303.397 255.451 307.118 255.235 309.299 252.808C311.48 250.382 311.261 246.657 308.836 244.473C306.411 242.288 302.69 242.505 300.509 244.932C298.329 247.358 298.547 251.083 300.972 253.267Z" fill="#D7D7D7"/>
<path d="M299.339 266.611C301.764 268.795 305.486 268.578 307.666 266.152C309.847 263.726 309.629 260 307.204 257.816C304.778 255.632 301.057 255.849 298.877 258.275C296.696 260.702 296.914 264.427 299.339 266.611Z" fill="#D7D7D7"/>
<path d="M296.855 279.838C299.28 282.022 303.001 281.805 305.182 279.379C307.363 276.952 307.144 273.227 304.719 271.043C302.294 268.859 298.573 269.075 296.392 271.502C294.211 273.928 294.43 277.653 296.855 279.838Z" fill="#D7D7D7"/>
<path d="M293.908 292.415C296.092 294.376 299.448 294.2 301.406 292.015C303.363 289.83 303.186 286.471 301.002 284.51C298.819 282.549 295.463 282.725 293.505 284.91C291.547 287.094 291.724 290.454 293.908 292.415Z" fill="#D7D7D7"/>
<path d="M289.775 305.212C291.959 307.173 295.315 306.997 297.273 304.812C299.231 302.627 299.053 299.267 296.87 297.307C294.686 295.346 291.33 295.522 289.372 297.706C287.414 299.891 287.592 303.251 289.775 305.212Z" fill="#D7D7D7"/>
<path d="M284.814 317.696C286.998 319.657 290.354 319.481 292.312 317.296C294.27 315.111 294.092 311.752 291.909 309.791C289.725 307.83 286.369 308.006 284.411 310.191C282.453 312.376 282.631 315.735 284.814 317.696Z" fill="#D7D7D7"/>
<path d="M279.08 329.852C281.264 331.813 284.62 331.637 286.578 329.453C288.535 327.268 288.358 323.908 286.174 321.947C283.991 319.987 280.634 320.162 278.677 322.347C276.719 324.532 276.896 327.892 279.08 329.852Z" fill="#D7D7D7"/>
<path d="M272.564 341.61C274.748 343.571 278.104 343.395 280.062 341.21C282.02 339.026 281.842 335.666 279.659 333.705C277.475 331.744 274.119 331.92 272.161 334.105C270.203 336.29 270.381 339.649 272.564 341.61Z" fill="#D7D7D7"/>
<path d="M265.307 352.931C267.49 354.891 270.846 354.716 272.804 352.531C274.762 350.346 274.585 346.986 272.401 345.025C270.217 343.065 266.861 343.24 264.903 345.425C262.946 347.61 263.123 350.97 265.307 352.931Z" fill="#D7D7D7"/>
<path d="M204.46 34.1869C204.822 34.5219 205.424 34.4939 205.754 34.1095C206.083 33.7251 206.06 33.144 205.676 32.8143C205.314 32.4792 204.711 32.5072 204.382 32.8916C204.053 33.276 204.07 33.8349 204.46 34.1869Z" fill="#D7D7D7"/>
<path d="M216.014 41.0696C216.399 41.3994 216.979 41.3768 217.308 40.9923C217.638 40.6079 217.615 40.0268 217.23 39.6971C216.846 39.3674 216.266 39.39 215.937 39.7744C215.607 40.1588 215.625 40.7177 216.014 41.0696Z" fill="#D7D7D7"/>
<path d="M227.116 48.6243C227.5 48.9541 228.081 48.9314 228.41 48.547C228.739 48.1626 228.722 47.6037 228.332 47.2518C227.948 46.922 227.367 46.9447 227.038 47.3291C226.709 47.7135 226.732 48.2946 227.116 48.6243Z" fill="#D7D7D7"/>
<path d="M237.764 56.8275C238.149 57.1572 238.729 57.1346 239.058 56.7502C239.388 56.3657 239.37 55.8068 238.98 55.4549C238.618 55.1199 238.016 55.1478 237.687 55.5322C237.357 55.9166 237.38 56.4977 237.764 56.8275Z" fill="#D7D7D7"/>
<path d="M247.265 66.3921C248.039 67.0737 249.222 67.0231 249.902 66.249C250.583 65.4748 250.532 64.2904 249.758 63.6088C248.984 62.9272 247.801 62.9777 247.121 63.7519C246.44 64.5261 246.491 65.7104 247.265 66.3921Z" fill="#D7D7D7"/>
<path d="M256.484 76.225C257.499 77.1301 259.047 77.0384 259.951 76.0227C260.854 75.0071 260.762 73.4572 259.769 72.5469C258.754 71.6418 257.206 71.7335 256.302 72.7492C255.398 73.7648 255.491 75.3147 256.478 76.2029L256.484 76.225Z" fill="#D7D7D7"/>
<path d="M265.476 86.2173C266.491 87.1223 268.017 87.0359 268.921 86.0202C269.824 85.0046 269.732 83.4548 268.744 82.5666C267.729 81.6616 266.181 81.7533 265.3 82.7636C264.396 83.7792 264.488 85.3291 265.476 86.2173Z" fill="#D7D7D7"/>
<path d="M274.167 96.39C275.006 97.1496 276.3 97.0723 277.036 96.2378C277.795 95.3979 277.717 94.1027 276.883 93.3652C276.043 92.6055 274.772 92.6775 274.013 93.5174C273.255 94.3572 273.333 95.6525 274.167 96.39Z" fill="#D7D7D7"/>
<path d="M281.937 107.351C282.749 108.093 284.021 108.021 284.735 107.192C285.477 106.38 285.404 105.107 284.57 104.369C283.758 103.627 282.487 103.698 281.75 104.533C281.009 105.345 281.081 106.618 281.915 107.356L281.937 107.351Z" fill="#D7D7D7"/>
<path d="M289.422 118.336C289.992 118.855 290.894 118.802 291.412 118.231C291.931 117.661 291.878 116.758 291.307 116.239C290.736 115.719 289.835 115.773 289.317 116.343C288.798 116.914 288.851 117.816 289.422 118.336Z" fill="#D7D7D7"/>
<path d="M296.147 129.804C296.531 130.134 297.09 130.116 297.441 129.727C297.776 129.364 297.753 128.783 297.363 128.431C296.979 128.102 296.399 128.124 296.069 128.509C295.74 128.893 295.758 129.452 296.147 129.804Z" fill="#D7D7D7"/>
<path d="M301.368 142.515C302.026 143.107 303.049 143.072 303.657 142.386C304.248 141.727 304.212 140.703 303.526 140.094C302.868 139.502 301.828 139.565 301.237 140.224C300.646 140.882 300.704 141.901 301.368 142.515Z" fill="#D7D7D7"/>
<path d="M306.757 154.492C307.119 154.827 307.721 154.799 308.051 154.414C308.38 154.03 308.362 153.471 307.973 153.119C307.588 152.789 307.008 152.812 306.679 153.196C306.35 153.581 306.372 154.162 306.757 154.492Z" fill="#D7D7D7"/>
<path d="M310.944 167.273C311.306 167.608 311.909 167.58 312.238 167.195C312.567 166.811 312.55 166.252 312.16 165.9C311.798 165.565 311.195 165.593 310.866 165.978C310.537 166.362 310.555 166.921 310.944 167.273Z" fill="#D7D7D7"/>
<path d="M314.358 180.281C314.72 180.616 315.323 180.588 315.652 180.203C315.981 179.819 315.964 179.26 315.574 178.908C315.19 178.578 314.61 178.601 314.28 178.985C313.951 179.37 313.969 179.929 314.358 180.281Z" fill="#D7D7D7"/>
<path d="M316.197 194.331C317.059 195.085 318.358 195.03 319.134 194.163C319.909 193.295 319.831 192 318.964 191.224C318.102 190.469 316.803 190.525 316.028 191.392C315.275 192.254 315.331 193.555 316.197 194.331Z" fill="#D7D7D7"/>
<path d="M318.804 206.796C319.166 207.131 319.768 207.103 320.097 206.719C320.427 206.334 320.409 205.776 320.02 205.424C319.657 205.089 319.055 205.117 318.726 205.501C318.396 205.885 318.414 206.444 318.804 206.796Z" fill="#D7D7D7"/>
<path d="M319.858 220.202C320.22 220.538 320.823 220.51 321.152 220.125C321.481 219.741 321.458 219.16 321.074 218.83C320.712 218.495 320.11 218.523 319.78 218.907C319.446 219.269 319.469 219.851 319.858 220.202Z" fill="#D7D7D7"/>
<path d="M320.077 233.64C320.461 233.97 321.042 233.947 321.371 233.563C321.7 233.178 321.682 232.619 321.293 232.267C320.931 231.932 320.328 231.96 319.999 232.345C319.665 232.707 319.693 233.31 320.077 233.64Z" fill="#D7D7D7"/>
<path d="M318.52 248.194C319.508 249.082 321.034 248.995 321.921 248.007C322.807 247.019 322.72 245.491 321.733 244.603C320.745 243.715 319.219 243.801 318.332 244.79C317.445 245.778 317.533 247.305 318.52 248.194Z" fill="#D7D7D7"/>
<path d="M314.8 264.173C317.225 266.358 320.947 266.141 323.127 263.714C325.308 261.288 325.09 257.563 322.665 255.379C320.239 253.195 316.518 253.411 314.337 255.838C312.157 258.264 312.375 261.989 314.8 264.173Z" fill="#D7D7D7"/>
<path d="M312.63 277.433C315.055 279.617 318.777 279.4 320.957 276.974C323.138 274.547 322.92 270.822 320.494 268.638C318.069 266.454 314.348 266.671 312.167 269.097C310.009 271.518 310.205 275.249 312.63 277.433Z" fill="#D7D7D7"/>
<path d="M309.997 290.205C312.236 292.199 315.664 292.03 317.677 289.785C319.669 287.545 319.498 284.113 317.254 282.097C315.01 280.08 311.587 280.272 309.574 282.517C307.56 284.762 307.753 288.188 309.997 290.205Z" fill="#D7D7D7"/>
<path d="M306.338 303.032C308.522 304.993 311.878 304.817 313.835 302.632C315.793 300.447 315.616 297.088 313.432 295.127C311.248 293.166 307.892 293.342 305.935 295.527C303.977 297.712 304.154 301.071 306.338 303.032Z" fill="#D7D7D7"/>
<path d="M301.838 315.681C304.022 317.641 307.378 317.466 309.335 315.281C311.293 313.096 311.116 309.736 308.932 307.775C306.748 305.815 303.392 305.99 301.435 308.175C299.477 310.36 299.654 313.72 301.838 315.681Z" fill="#D7D7D7"/>
<path d="M296.58 328.071C298.764 330.032 302.12 329.856 304.078 327.671C306.035 325.486 305.858 322.127 303.674 320.166C301.491 318.205 298.134 318.381 296.177 320.566C294.219 322.751 294.396 326.11 296.58 328.071Z" fill="#D7D7D7"/>
<path d="M290.596 340.095C292.779 342.055 296.136 341.88 298.093 339.695C300.051 337.51 299.874 334.15 297.69 332.189C295.506 330.229 292.15 330.404 290.192 332.589C288.235 334.774 288.412 338.134 290.596 340.095Z" fill="#D7D7D7"/>
<path d="M283.908 351.751C286.092 353.712 289.448 353.536 291.406 351.351C293.363 349.166 293.186 345.806 291.002 343.846C288.819 341.885 285.463 342.061 283.505 344.246C281.547 346.43 281.724 349.79 283.908 351.751Z" fill="#D7D7D7"/>
<path d="M211.718 21.1087C212.102 21.4385 212.682 21.4158 213.011 21.0314C213.341 20.647 213.323 20.0881 212.934 19.7362C212.549 19.4064 211.969 19.4291 211.64 19.8135C211.31 20.1979 211.328 20.7568 211.718 21.1087Z" fill="#D7D7D7"/>
<path d="M223.288 27.9603C223.65 28.2954 224.23 28.2727 224.582 27.883C224.911 27.4986 224.893 26.9396 224.504 26.5877C224.12 26.258 223.539 26.2807 223.21 26.6651C222.881 27.0495 222.904 27.6306 223.288 27.9603Z" fill="#D7D7D7"/>
<path d="M234.436 35.4525C234.821 35.7822 235.401 35.7596 235.73 35.3752C236.059 34.9908 236.037 34.4096 235.652 34.0799C235.268 33.7502 234.688 33.7728 234.358 34.1572C234.029 34.5416 234.047 35.1005 234.436 35.4525Z" fill="#D7D7D7"/>
<path d="M245.155 43.5462C245.517 43.8813 246.12 43.8533 246.449 43.4689C246.778 43.0845 246.761 42.5256 246.371 42.1737C246.009 41.8386 245.406 41.8666 245.077 42.251C244.743 42.6132 244.771 43.2165 245.155 43.5462Z" fill="#D7D7D7"/>
<path d="M254.861 52.8739C255.58 53.5219 256.669 53.4705 257.316 52.7514C257.963 52.0322 257.906 50.9197 257.192 50.294C256.474 49.646 255.362 49.7027 254.738 50.4165C254.091 51.1357 254.148 52.2481 254.861 52.8739Z" fill="#D7D7D7"/>
<path d="M264.13 62.652C265.145 63.557 266.693 63.4653 267.58 62.4772C268.483 61.4615 268.391 59.9117 267.398 59.0013C266.383 58.0963 264.835 58.188 263.931 59.2036C263.028 60.2193 263.12 61.7691 264.108 62.6573L264.13 62.652Z" fill="#D7D7D7"/>
<path d="M273.337 72.4413C274.352 73.3464 275.9 73.2547 276.804 72.239C277.707 71.2234 277.615 69.6735 276.627 68.7853C275.612 67.8803 274.064 67.972 273.182 68.9823C272.279 69.998 272.371 71.5478 273.359 72.436L273.337 72.4413Z" fill="#D7D7D7"/>
<path d="M282.02 82.6936C283.008 83.5818 284.534 83.4954 285.421 82.5073C286.307 81.5192 286.22 79.9915 285.233 79.1033C284.245 78.2151 282.719 78.3015 281.832 79.2896C280.945 80.2778 281.033 81.8054 282.02 82.6936Z" fill="#D7D7D7"/>
<path d="M291.093 92.3353C291.477 92.665 292.057 92.6424 292.387 92.258C292.716 91.8736 292.698 91.3147 292.309 90.9627C291.947 90.6277 291.366 90.6503 291.015 91.04C290.685 91.4244 290.703 91.9834 291.093 92.3353Z" fill="#D7D7D7"/>
<path d="M298.53 103.538C298.892 103.873 299.495 103.845 299.824 103.461C300.153 103.077 300.13 102.496 299.746 102.166C299.384 101.831 298.781 101.859 298.452 102.243C298.123 102.628 298.141 103.187 298.53 103.538Z" fill="#D7D7D7"/>
<path d="M305.335 115.132C305.719 115.462 306.299 115.439 306.629 115.055C306.958 114.67 306.94 114.112 306.551 113.76C306.167 113.43 305.586 113.453 305.257 113.837C304.928 114.221 304.945 114.78 305.335 115.132Z" fill="#D7D7D7"/>
<path d="M311.499 127.093C311.861 127.428 312.464 127.4 312.793 127.016C313.127 126.654 313.104 126.072 312.715 125.721C312.353 125.385 311.75 125.413 311.421 125.798C311.092 126.182 311.115 126.763 311.499 127.093Z" fill="#D7D7D7"/>
<path d="M316.408 139.983C317.127 140.631 318.238 140.575 318.863 139.861C319.51 139.142 319.453 138.029 318.739 137.403C318.021 136.755 316.909 136.812 316.284 137.526C315.637 138.245 315.695 139.358 316.408 139.983Z" fill="#D7D7D7"/>
<path d="M321.725 151.937C322.11 152.267 322.69 152.244 323.019 151.86C323.348 151.475 323.331 150.916 322.941 150.564C322.579 150.229 321.977 150.257 321.648 150.642C321.318 151.026 321.336 151.585 321.725 151.937Z" fill="#D7D7D7"/>
<path d="M325.804 164.749C326.166 165.084 326.746 165.062 327.097 164.672C327.427 164.288 327.409 163.729 327.02 163.377C326.635 163.047 326.055 163.07 325.726 163.454C325.396 163.839 325.414 164.397 325.804 164.749Z" fill="#D7D7D7"/>
<path d="M329.139 177.796C329.502 178.131 330.082 178.109 330.433 177.719C330.763 177.334 330.745 176.776 330.355 176.424C329.971 176.094 329.391 176.117 329.062 176.501C328.727 176.863 328.75 177.444 329.139 177.796Z" fill="#D7D7D7"/>
<path d="M330.955 191.854C331.817 192.609 333.116 192.554 333.891 191.686C334.645 190.824 334.589 189.524 333.722 188.747C332.86 187.993 331.561 188.048 330.786 188.915C330.033 189.777 330.088 191.078 330.955 191.854Z" fill="#D7D7D7"/>
<path d="M332.736 205.27C333.636 206.086 335.023 206.009 335.838 205.109C336.652 204.209 336.575 202.82 335.675 202.004C334.775 201.188 333.387 201.265 332.573 202.165C331.759 203.065 331.836 204.455 332.736 205.27Z" fill="#D7D7D7"/>
<path d="M333.861 218.661C334.761 219.476 336.149 219.4 336.963 218.5C337.777 217.599 337.7 216.21 336.8 215.395C335.9 214.579 334.512 214.656 333.698 215.556C332.884 216.456 332.961 217.845 333.861 218.661Z" fill="#D7D7D7"/>
<path d="M335.061 231.156C335.423 231.491 336.026 231.463 336.355 231.078C336.69 230.716 336.667 230.135 336.277 229.783C335.893 229.453 335.313 229.476 334.983 229.86C334.654 230.245 334.677 230.826 335.061 231.156Z" fill="#D7D7D7"/>
<path d="M334.336 244.961C334.907 245.48 335.808 245.427 336.326 244.856C336.845 244.286 336.792 243.383 336.221 242.864C335.651 242.344 334.749 242.398 334.231 242.968C333.712 243.539 333.765 244.441 334.336 244.961Z" fill="#D7D7D7"/>
<path d="M333.514 257.968C333.899 258.298 334.479 258.275 334.808 257.891C335.138 257.506 335.12 256.947 334.73 256.596C334.346 256.266 333.766 256.288 333.437 256.673C333.107 257.057 333.13 257.638 333.514 257.968Z" fill="#D7D7D7"/>
<path d="M328.8 274.456C330.923 276.361 334.163 276.19 336.065 274.066C337.967 271.941 337.794 268.698 335.671 266.793C333.548 264.888 330.308 265.059 328.406 267.184C326.504 269.308 326.676 272.552 328.8 274.456Z" fill="#D7D7D7"/>
<path d="M326.159 287.621C328.283 289.525 331.523 289.354 333.425 287.23C335.326 285.105 335.154 281.862 333.031 279.957C330.907 278.052 327.645 278.228 325.765 280.348C323.863 282.472 324.036 285.716 326.159 287.621Z" fill="#D7D7D7"/>
<path d="M322.666 300.759C324.85 302.719 328.206 302.544 330.163 300.359C332.121 298.174 331.944 294.814 329.76 292.854C327.577 290.893 324.22 291.068 322.263 293.253C320.305 295.438 320.482 298.798 322.666 300.759Z" fill="#D7D7D7"/>
<path d="M318.58 313.571C320.764 315.532 324.12 315.356 326.078 313.171C328.035 310.986 327.858 307.627 325.674 305.666C323.491 303.705 320.134 303.881 318.177 306.066C316.219 308.251 316.396 311.61 318.58 313.571Z" fill="#D7D7D7"/>
<path d="M313.783 326.134C315.967 328.094 319.323 327.919 321.281 325.734C323.238 323.549 323.061 320.189 320.877 318.229C318.694 316.268 315.338 316.443 313.38 318.628C311.422 320.813 311.599 324.173 313.783 326.134Z" fill="#D7D7D7"/>
<path d="M308.275 338.391C310.459 340.352 313.815 340.177 315.773 337.992C317.731 335.807 317.553 332.447 315.37 330.486C313.186 328.526 309.83 328.701 307.872 330.886C305.914 333.071 306.092 336.431 308.275 338.391Z" fill="#D7D7D7"/>
<path d="M302.08 350.321C304.264 352.282 307.62 352.106 309.578 349.921C311.535 347.736 311.358 344.377 309.174 342.416C306.991 340.455 303.634 340.631 301.677 342.816C299.719 345.001 299.896 348.36 302.08 350.321Z" fill="#D7D7D7"/>
<path d="M207.061 1.79621C207.423 2.13128 208.004 2.10866 208.355 1.71891C208.684 1.3345 208.667 0.775589 208.277 0.42368C207.915 0.0886065 207.313 0.116566 206.983 0.500976C206.654 0.885386 206.677 1.46647 207.061 1.79621Z" fill="#D7D7D7"/>
<path d="M218.991 7.99935C219.353 8.33443 219.956 8.30644 220.285 7.92203C220.614 7.53762 220.591 6.95653 220.207 6.62679C219.823 6.29706 219.242 6.31968 218.913 6.70409C218.584 7.0885 218.601 7.64745 218.991 7.99935Z" fill="#D7D7D7"/>
<path d="M230.664 14.7128C230.966 14.992 231.452 14.9685 231.726 14.6445C232.005 14.3426 231.981 13.8556 231.657 13.5817C231.355 13.3025 230.869 13.3259 230.595 13.6499C230.317 13.9518 230.34 14.4389 230.664 14.7128Z" fill="#D7D7D7"/>
<path d="M241.733 22.265C242.095 22.6001 242.698 22.5721 243.027 22.1876C243.356 21.8032 243.339 21.2443 242.949 20.8924C242.565 20.5627 242.007 20.58 241.655 20.9698C241.326 21.3542 241.344 21.9131 241.733 22.265Z" fill="#D7D7D7"/>
<path d="M252.538 30.2962C252.922 30.626 253.48 30.6087 253.832 30.2189C254.161 29.8345 254.138 29.2534 253.754 28.9237C253.392 28.5886 252.789 28.6166 252.46 29.001C252.131 29.3854 252.148 29.9443 252.538 30.2962Z" fill="#D7D7D7"/>
<path d="M262.322 39.4833C263.041 40.1313 264.152 40.0745 264.777 39.3607C265.424 38.6416 265.367 37.5291 264.653 36.9033C263.935 36.2553 262.845 36.3068 262.198 37.0259C261.552 37.745 261.609 38.8575 262.322 39.4833Z" fill="#D7D7D7"/>
<path d="M272.205 48.5927C272.924 49.2406 274.013 49.1893 274.66 48.4701C275.307 47.751 275.255 46.6606 274.536 46.0127C273.817 45.3647 272.706 45.4215 272.081 46.1353C271.434 46.8544 271.492 47.9669 272.205 48.5927Z" fill="#D7D7D7"/>
<path d="M281.584 58.2529C282.308 58.9231 283.442 58.861 284.105 58.1143C284.769 57.3677 284.712 56.2552 283.966 55.5904C283.219 54.9256 282.108 54.9823 281.444 55.729C280.781 56.4756 280.838 57.5881 281.584 58.2529Z" fill="#D7D7D7"/>
<path d="M290.486 68.3114C291.205 68.9594 292.316 68.9027 292.941 68.1889C293.588 67.4697 293.531 66.3572 292.817 65.7314C292.099 65.0835 290.987 65.1402 290.363 65.854C289.716 66.5731 289.773 67.6856 290.486 68.3114Z" fill="#D7D7D7"/>
<path d="M299.237 78.38C299.687 78.7877 300.356 78.7438 300.763 78.2936C301.17 77.8435 301.126 77.1737 300.676 76.766C300.226 76.3582 299.557 76.4022 299.15 76.8523C298.742 77.3024 298.787 77.9722 299.237 78.38Z" fill="#D7D7D7"/>
<path d="M307.108 89.2415C307.47 89.5766 308.073 89.5486 308.402 89.1642C308.731 88.7798 308.714 88.2209 308.324 87.869C307.962 87.5339 307.36 87.5619 307.03 87.9463C306.701 88.3307 306.719 88.8896 307.108 89.2415Z" fill="#D7D7D7"/>
<path d="M314.28 100.609C314.642 100.944 315.245 100.916 315.574 100.531C315.903 100.147 315.88 99.5659 315.496 99.2361C315.112 98.9064 314.531 98.9291 314.202 99.3135C313.873 99.6979 313.891 100.257 314.28 100.609Z" fill="#D7D7D7"/>
<path d="M320.835 112.359C321.219 112.688 321.777 112.671 322.129 112.281C322.458 111.897 322.44 111.338 322.051 110.986C321.689 110.651 321.086 110.679 320.757 111.063C320.428 111.448 320.445 112.007 320.835 112.359Z" fill="#D7D7D7"/>
<path d="M326.764 124.413C327.127 124.748 327.729 124.721 328.058 124.336C328.388 123.952 328.365 123.371 327.98 123.041C327.618 122.706 327.016 122.734 326.687 123.118C326.357 123.503 326.375 124.061 326.764 124.413Z" fill="#D7D7D7"/>
<path d="M332.069 136.773C332.453 137.103 333.034 137.08 333.363 136.695C333.692 136.311 333.675 135.752 333.285 135.4C332.923 135.065 332.32 135.093 331.991 135.478C331.662 135.862 331.685 136.443 332.069 136.773Z" fill="#D7D7D7"/>
<path d="M336.686 149.406C337.071 149.735 337.651 149.713 337.98 149.328C338.315 148.966 338.292 148.385 337.902 148.033C337.54 147.698 336.938 147.726 336.608 148.11C336.279 148.495 336.302 149.076 336.686 149.406Z" fill="#D7D7D7"/>
<path d="M340.646 162.256C341.03 162.585 341.61 162.563 341.939 162.178C342.269 161.794 342.251 161.235 341.862 160.883C341.499 160.548 340.919 160.571 340.568 160.96C340.216 161.35 340.261 161.926 340.646 162.256Z" fill="#D7D7D7"/>
<path d="M343.064 176.262C343.964 177.078 345.352 177.001 346.166 176.101C346.98 175.201 346.903 173.812 346.003 172.996C345.103 172.181 343.716 172.257 342.901 173.157C342.087 174.058 342.164 175.447 343.064 176.262Z" fill="#D7D7D7"/>
<path d="M345.634 189.466C346.534 190.281 347.922 190.205 348.736 189.304C349.55 188.404 349.473 187.015 348.573 186.199C347.674 185.384 346.286 185.46 345.472 186.361C344.657 187.261 344.735 188.65 345.634 189.466Z" fill="#D7D7D7"/>
<path d="M347.517 202.786C348.417 203.601 349.805 203.525 350.619 202.625C351.433 201.724 351.356 200.335 350.456 199.52C349.557 198.704 348.169 198.781 347.354 199.681C346.54 200.581 346.617 201.97 347.517 202.786Z" fill="#D7D7D7"/>
<path d="M348.705 216.177C349.604 216.992 350.992 216.916 351.806 216.015C352.621 215.115 352.544 213.726 351.644 212.91C350.744 212.095 349.356 212.171 348.542 213.071C347.728 213.972 347.805 215.361 348.705 216.177Z" fill="#D7D7D7"/>
<path d="M349.173 229.598C350.073 230.414 351.461 230.337 352.275 229.437C353.089 228.537 353.012 227.148 352.113 226.332C351.213 225.517 349.825 225.593 349.011 226.493C348.196 227.394 348.274 228.783 349.173 229.598Z" fill="#D7D7D7"/>
<path d="M348.923 243.059C349.823 243.875 351.211 243.798 352.025 242.898C352.839 241.998 352.762 240.609 351.863 239.793C350.963 238.978 349.575 239.054 348.761 239.954C347.946 240.855 348.024 242.244 348.923 243.059Z" fill="#D7D7D7"/>
<path d="M348.679 255.671C349.129 256.079 349.848 256.047 350.255 255.597C350.662 255.146 350.629 254.427 350.179 254.019C349.729 253.611 349.011 253.644 348.603 254.094C348.196 254.544 348.229 255.264 348.684 255.694L348.679 255.671Z" fill="#D7D7D7"/>
<path d="M347.171 268.851C347.555 269.181 348.113 269.163 348.465 268.774C348.794 268.389 348.771 267.808 348.387 267.478C348.025 267.143 347.422 267.171 347.093 267.556C346.764 267.94 346.781 268.499 347.171 268.851Z" fill="#D7D7D7"/>
<path d="M332.767 321.762C333.667 322.578 335.055 322.501 335.869 321.601C336.683 320.701 336.606 319.312 335.706 318.496C334.807 317.681 333.419 317.757 332.604 318.657C331.79 319.558 331.867 320.947 332.767 321.762Z" fill="#D7D7D7"/>
<path d="M325.619 336.509C327.803 338.469 331.159 338.294 333.117 336.109C335.074 333.924 334.897 330.564 332.713 328.604C330.53 326.643 327.173 326.818 325.216 329.003C323.258 331.188 323.435 334.548 325.619 336.509Z" fill="#D7D7D7"/>
<path d="M270.343 25.5071C270.705 25.8422 271.307 25.8143 271.636 25.4298C271.966 25.0454 271.948 24.4865 271.559 24.1346C271.197 23.7995 270.594 23.8275 270.265 24.2119C269.935 24.5963 269.958 25.1774 270.343 25.5071Z" fill="#D7D7D7"/>
<path d="M280.335 34.4993C280.719 34.8291 281.299 34.8064 281.629 34.422C281.958 34.0376 281.935 33.4565 281.551 33.1268C281.167 32.7971 280.586 32.8197 280.257 33.2041C279.928 33.5885 279.945 34.1474 280.335 34.4993Z" fill="#D7D7D7"/>
<path d="M289.882 43.9603C290.266 44.29 290.846 44.2674 291.176 43.883C291.505 43.4986 291.482 42.9175 291.098 42.5877C290.713 42.258 290.133 42.2806 289.804 42.665C289.475 43.0494 289.497 43.6306 289.882 43.9603Z" fill="#D7D7D7"/>
<path d="M298.944 53.9056C299.328 54.2353 299.909 54.2127 300.238 53.8283C300.567 53.4439 300.544 52.8628 300.16 52.533C299.776 52.2033 299.195 52.226 298.866 52.6104C298.537 52.9948 298.555 53.5537 298.944 53.9056Z" fill="#D7D7D7"/>
<path d="M307.246 64.5481C307.784 65.0285 308.591 64.9747 309.076 64.4588C309.556 63.9208 309.502 63.1126 308.964 62.6322C308.426 62.1518 307.619 62.2056 307.139 62.7436C306.66 63.2816 306.714 64.0898 307.252 64.5703L307.246 64.5481Z" fill="#D7D7D7"/>
<path d="M315.416 75.1847C315.866 75.5924 316.535 75.5484 316.942 75.0983C317.35 74.6482 317.305 73.9784 316.855 73.5707C316.405 73.1629 315.736 73.2069 315.329 73.657C314.922 74.1071 314.966 74.7769 315.416 75.1847Z" fill="#D7D7D7"/>
<path d="M323.022 86.2337C323.384 86.5688 323.987 86.5408 324.316 86.1564C324.645 85.772 324.622 85.1909 324.238 84.8612C323.876 84.5261 323.274 84.5541 322.944 84.9385C322.61 85.3007 322.633 85.8818 323.022 86.2337Z" fill="#D7D7D7"/>
<path d="M329.929 97.7571C330.313 98.0869 330.893 98.0643 331.222 97.6798C331.552 97.2954 331.529 96.7143 331.145 96.3846C330.782 96.0495 330.18 96.0775 329.851 96.4619C329.521 96.8463 329.539 97.4052 329.929 97.7571Z" fill="#D7D7D7"/>
<path d="M336.257 109.624C336.641 109.954 337.221 109.931 337.551 109.547C337.88 109.163 337.857 108.582 337.473 108.252C337.088 107.922 336.508 107.945 336.179 108.329C335.85 108.713 335.867 109.272 336.257 109.624Z" fill="#D7D7D7"/>
<path d="M341.999 121.781C342.383 122.11 342.964 122.088 343.293 121.703C343.622 121.319 343.604 120.76 343.215 120.408C342.853 120.073 342.25 120.101 341.921 120.485C341.592 120.87 341.615 121.451 341.999 121.781Z" fill="#D7D7D7"/>
<path d="M347.124 134.195C347.486 134.53 348.066 134.507 348.418 134.117C348.747 133.733 348.724 133.152 348.34 132.822C347.978 132.487 347.375 132.515 347.046 132.899C346.711 133.262 346.734 133.843 347.124 134.195Z" fill="#D7D7D7"/>
<path d="M351.616 146.89C351.978 147.225 352.581 147.197 352.91 146.813C353.239 146.428 353.216 145.847 352.832 145.517C352.448 145.188 351.867 145.21 351.538 145.595C351.209 145.979 351.226 146.538 351.616 146.89Z" fill="#D7D7D7"/>
<path d="M355.362 159.88C355.812 160.288 356.481 160.244 356.888 159.794C357.295 159.344 357.251 158.674 356.801 158.266C356.356 157.88 355.682 157.902 355.275 158.352C354.867 158.802 354.912 159.472 355.362 159.88Z" fill="#D7D7D7"/>
<path d="M357.837 173.778C358.737 174.594 360.125 174.517 360.939 173.617C361.753 172.717 361.676 171.327 360.777 170.512C359.877 169.696 358.489 169.773 357.675 170.673C356.861 171.573 356.938 172.963 357.837 173.778Z" fill="#D7D7D7"/>
<path d="M360.392 186.989C361.292 187.805 362.68 187.728 363.494 186.828C364.308 185.928 364.231 184.538 363.331 183.723C362.432 182.907 361.044 182.984 360.229 183.884C359.415 184.784 359.492 186.174 360.392 186.989Z" fill="#D7D7D7"/>
<path d="M362.291 200.302C363.19 201.117 364.578 201.041 365.392 200.14C366.207 199.24 366.129 197.851 365.23 197.035C364.33 196.22 362.942 196.296 362.128 197.196C361.314 198.097 361.391 199.486 362.291 200.302Z" fill="#D7D7D7"/>
<path d="M363.541 213.677C364.44 214.492 365.828 214.416 366.642 213.515C367.457 212.615 367.379 211.226 366.48 210.41C365.58 209.595 364.192 209.671 363.378 210.571C362.564 211.472 362.641 212.861 363.541 213.677Z" fill="#D7D7D7"/>
<path d="M364.087 227.106C364.987 227.922 366.375 227.845 367.189 226.945C368.003 226.045 367.926 224.655 367.027 223.84C366.127 223.024 364.739 223.101 363.925 224.001C363.111 224.901 363.188 226.291 364.087 227.106Z" fill="#D7D7D7"/>
<path d="M364.24 240.288C364.986 240.953 366.147 240.907 366.811 240.161C367.497 239.409 367.429 238.252 366.683 237.587C365.936 236.922 364.775 236.967 364.112 237.714C363.448 238.461 363.494 239.623 364.267 240.305L364.24 240.288Z" fill="#D7D7D7"/>
<path d="M363.731 253.426C364.329 253.962 365.252 253.904 365.788 253.305C366.323 252.707 366.264 251.783 365.666 251.246C365.068 250.71 364.145 250.768 363.609 251.367C363.074 251.965 363.133 252.89 363.731 253.426Z" fill="#D7D7D7"/>
<path d="M362.639 266.39C363.024 266.72 363.604 266.697 363.933 266.313C364.263 265.928 364.245 265.369 363.855 265.017C363.493 264.682 362.891 264.71 362.562 265.095C362.232 265.479 362.25 266.038 362.639 266.39Z" fill="#D7D7D7"/>
<path d="M297.561 30.3822C297.946 30.7119 298.526 30.6892 298.855 30.3048C299.19 29.9426 299.167 29.3615 298.777 29.0096C298.393 28.6799 297.813 28.7025 297.483 29.0869C297.154 29.4713 297.177 30.0524 297.561 30.3822Z" fill="#D7D7D7"/>
<path d="M306.78 40.1634C307.142 40.4985 307.745 40.4705 308.074 40.0861C308.409 39.7239 308.38 39.1206 307.996 38.7909C307.634 38.4558 307.031 38.4838 306.702 38.8682C306.373 39.2526 306.396 39.8337 306.78 40.1634Z" fill="#D7D7D7"/>
<path d="M315.824 50.0488C316.033 50.2331 316.354 50.2027 316.521 50.0216C316.705 49.813 316.68 49.514 316.493 49.3243C316.285 49.1399 315.986 49.165 315.797 49.3514C315.613 49.5601 315.638 49.859 315.846 50.0434L315.824 50.0488Z" fill="#D7D7D7"/>
<path d="M323.796 60.9603C324.158 61.2954 324.738 61.2727 325.09 60.883C325.419 60.4986 325.401 59.9396 325.012 59.5877C324.628 59.258 324.047 59.2807 323.718 59.6651C323.389 60.0495 323.412 60.6306 323.796 60.9603Z" fill="#D7D7D7"/>
<path d="M331.554 71.9446C331.916 72.2797 332.518 72.2518 332.847 71.8673C333.177 71.4829 333.159 70.924 332.77 70.5721C332.407 70.237 331.805 70.265 331.476 70.6494C331.146 71.0338 331.169 71.6149 331.554 71.9446Z" fill="#D7D7D7"/>
<path d="M338.78 83.2728C339.164 83.6025 339.745 83.5799 340.074 83.1955C340.403 82.8111 340.386 82.2521 339.996 81.9002C339.612 81.5705 339.054 81.5878 338.702 81.9775C338.368 82.3398 338.391 82.9209 338.78 83.2728Z" fill="#D7D7D7"/>
<path d="M345.491 94.9368C345.853 95.2719 346.456 95.2439 346.785 94.8595C347.114 94.4751 347.097 93.9162 346.707 93.5643C346.323 93.2346 345.742 93.2572 345.413 93.6416C345.084 94.026 345.107 94.6071 345.491 94.9368Z" fill="#D7D7D7"/>
<path d="M351.616 106.913C351.978 107.248 352.581 107.22 352.91 106.836C353.239 106.452 353.222 105.893 352.832 105.541C352.448 105.211 351.867 105.234 351.538 105.618C351.209 106.003 351.232 106.584 351.616 106.913Z" fill="#D7D7D7"/>
<path d="M357.163 119.156C357.547 119.485 358.128 119.463 358.457 119.078C358.786 118.694 358.768 118.135 358.379 117.783C357.995 117.453 357.414 117.476 357.085 117.86C356.756 118.245 356.773 118.804 357.163 119.156Z" fill="#D7D7D7"/>
<path d="M362.147 131.656C362.509 131.991 363.09 131.968 363.441 131.578C363.776 131.216 363.753 130.635 363.363 130.283C363.001 129.948 362.399 129.976 362.069 130.36C361.74 130.745 361.758 131.304 362.147 131.656Z" fill="#D7D7D7"/>
<path d="M366.522 144.351C366.906 144.681 367.465 144.663 367.816 144.274C368.145 143.889 368.128 143.33 367.738 142.978C367.376 142.643 366.774 142.671 366.444 143.056C366.115 143.44 366.133 143.999 366.522 144.351Z" fill="#D7D7D7"/>
<path d="M369.811 157.822C370.497 158.431 371.537 158.368 372.15 157.704C372.758 157.018 372.717 155.972 372.031 155.363C371.345 154.754 370.305 154.817 369.692 155.481C369.084 156.167 369.125 157.213 369.811 157.822Z" fill="#D7D7D7"/>
<path d="M372.619 171.302C373.518 172.117 374.906 172.041 375.721 171.14C376.535 170.24 376.458 168.851 375.558 168.035C374.658 167.22 373.27 167.296 372.456 168.196C371.642 169.097 371.719 170.486 372.619 171.302Z" fill="#D7D7D7"/>
<path d="M375.166 184.505C376.065 185.32 377.453 185.244 378.267 184.343C379.082 183.443 379.004 182.054 378.105 181.238C377.205 180.423 375.817 180.499 375.003 181.4C374.189 182.3 374.266 183.689 375.166 184.505Z" fill="#D7D7D7"/>
<path d="M377.087 197.809C377.987 198.625 379.375 198.548 380.189 197.648C381.003 196.748 380.926 195.359 380.027 194.543C379.127 193.728 377.739 193.804 376.925 194.704C376.111 195.605 376.188 196.994 377.087 197.809Z" fill="#D7D7D7"/>
<path d="M378.369 211.184C379.268 212 380.656 211.923 381.471 211.023C382.285 210.123 382.208 208.734 381.308 207.918C380.408 207.103 379.02 207.179 378.206 208.079C377.392 208.98 377.469 210.369 378.369 211.184Z" fill="#D7D7D7"/>
<path d="M379.528 224.066C380.126 224.603 381.049 224.544 381.584 223.946C382.12 223.348 382.061 222.423 381.463 221.887C380.865 221.351 379.942 221.409 379.406 222.007C378.871 222.606 378.929 223.53 379.528 224.066Z" fill="#D7D7D7"/>
<path d="M379.535 237.512C380.133 238.048 381.057 237.99 381.592 237.391C382.128 236.793 382.069 235.868 381.471 235.332C380.873 234.796 379.949 234.854 379.414 235.453C378.878 236.051 378.937 236.975 379.535 237.512Z" fill="#D7D7D7"/>
<path d="M378.934 250.941C379.532 251.478 380.455 251.419 380.991 250.821C381.526 250.223 381.467 249.298 380.869 248.762C380.271 248.226 379.348 248.284 378.812 248.882C378.277 249.481 378.336 250.405 378.934 250.941Z" fill="#D7D7D7"/>
<path d="M376.632 276.714C376.632 276.714 376.836 276.782 376.931 276.689C377.003 276.601 376.999 276.485 376.906 276.39C376.818 276.317 376.68 276.327 376.607 276.415C376.534 276.503 376.539 276.619 376.632 276.714Z" fill="#D7D7D7"/>
<path d="M332.544 46.2948C332.544 46.2948 332.594 46.3063 332.611 46.2787C332.611 46.2787 332.601 46.2342 332.595 46.2119L332.551 46.2227C332.551 46.2227 332.539 46.2726 332.561 46.2672L332.544 46.2948Z" fill="#D7D7D7"/>
<path d="M339.598 58.1602C340.196 58.6965 341.119 58.6381 341.655 58.0397C342.19 57.4413 342.131 56.5169 341.533 55.9807C340.935 55.4444 340.012 55.5028 339.476 56.1011C338.941 56.6995 339 57.6239 339.598 58.1602Z" fill="#D7D7D7"/>
<path d="M347.113 69.3008C347.712 69.8371 348.635 69.7787 349.17 69.1803C349.706 68.582 349.647 67.6576 349.049 67.1213C348.451 66.585 347.527 66.6434 346.992 67.2418C346.457 67.8401 346.515 68.7645 347.113 69.3008Z" fill="#D7D7D7"/>
<path d="M366.897 104.226C367.259 104.561 367.862 104.533 368.191 104.149C368.52 103.764 368.503 103.205 368.113 102.853C367.729 102.524 367.149 102.546 366.819 102.931C366.49 103.315 366.513 103.896 366.897 104.226Z" fill="#D7D7D7"/>
<path d="M372.304 116.538C372.666 116.873 373.268 116.846 373.597 116.461C373.932 116.099 373.909 115.518 373.52 115.166C373.135 114.836 372.555 114.859 372.226 115.243C371.896 115.628 371.914 116.186 372.304 116.538Z" fill="#D7D7D7"/>
<path d="M377.163 129.093C377.547 129.423 378.128 129.4 378.457 129.016C378.786 128.631 378.768 128.072 378.379 127.721C378.017 127.385 377.414 127.413 377.085 127.798C376.756 128.182 376.773 128.741 377.163 129.093Z" fill="#D7D7D7"/>
<path d="M381.429 141.835C381.791 142.17 382.393 142.142 382.722 141.758C383.057 141.396 383.029 140.792 382.645 140.463C382.282 140.128 381.68 140.156 381.351 140.54C381.021 140.924 381.039 141.483 381.429 141.835Z" fill="#D7D7D7"/>
<path d="M348.834 43.0057C348.834 43.0057 348.883 43.0173 348.9 42.9896C348.9 42.9896 348.89 42.9451 348.884 42.9229C348.884 42.9229 348.834 42.9114 348.817 42.939L348.828 42.9835L348.834 43.0057Z" fill="#D7D7D7"/>
<path d="M356.594 53.9922C356.594 53.9922 356.638 53.9815 356.661 53.9761C356.661 53.9761 356.672 53.9262 356.644 53.9093C356.644 53.9093 356.595 53.8978 356.6 53.9201C356.6 53.9201 356.588 53.9699 356.611 53.9646L356.594 53.9922Z" fill="#D7D7D7"/>
<path d="M363.865 65.3026C363.865 65.3026 363.915 65.3141 363.932 65.2865C363.932 65.2865 363.921 65.242 363.915 65.2198C363.915 65.2198 363.866 65.2082 363.849 65.2359C363.849 65.2359 363.859 65.2804 363.865 65.3026Z" fill="#D7D7D7"/>
<path d="M370.63 76.9331C370.63 76.9331 370.708 76.9616 370.741 76.9063C370.78 76.8733 370.77 76.8287 370.714 76.7949C370.682 76.7557 370.615 76.7718 370.603 76.8217C370.564 76.8547 370.575 76.8993 370.63 76.9331Z" fill="#D7D7D7"/>
<path d="M376.958 88.7803C376.958 88.7803 377.002 88.7696 377.024 88.7643C377.024 88.7643 377.035 88.7149 377.013 88.7202C377.013 88.7202 376.964 88.7088 376.947 88.7362C376.947 88.7362 376.936 88.7856 376.963 88.8023L376.958 88.7803Z" fill="#D7D7D7"/>
<path d="M382.724 100.935C382.724 100.935 382.774 100.947 382.791 100.919C382.791 100.919 382.802 100.869 382.775 100.853C382.775 100.853 382.725 100.841 382.73 100.863C382.73 100.863 382.719 100.913 382.746 100.93L382.724 100.935Z" fill="#D7D7D7"/>
</svg>
