<svg width="25" height="24" viewBox="0 0 25 24" fill="none" xmlns="http://www.w3.org/2000/svg">
<g id="vuesax/outline/calendar">
<g id="calendar">
<path id="Vector" d="M8.5 5.75C8.09 5.75 7.75 5.41 7.75 5V2C7.75 1.59 8.09 1.25 8.5 1.25C8.91 1.25 9.25 1.59 9.25 2V5C9.25 5.41 8.91 5.75 8.5 5.75Z" fill="#FCCD82"/>
<path id="Vector_2" d="M16.5 5.75C16.09 5.75 15.75 5.41 15.75 5V2C15.75 1.59 16.09 1.25 16.5 1.25C16.91 1.25 17.25 1.59 17.25 2V5C17.25 5.41 16.91 5.75 16.5 5.75Z" fill="#FCCD82"/>
<path id="Vector_3" d="M9 14.5023C8.87 14.5023 8.74 14.4723 8.62 14.4223C8.49 14.3723 8.39 14.3023 8.29 14.2123C8.11 14.0223 8 13.7723 8 13.5023C8 13.3723 8.03 13.2423 8.08 13.1223C8.13 13.0023 8.2 12.8923 8.29 12.7923C8.39 12.7023 8.49 12.6323 8.62 12.5823C8.98 12.4323 9.43 12.5123 9.71 12.7923C9.89 12.9823 10 13.2423 10 13.5023C10 13.5623 9.99 13.6323 9.98 13.7023C9.97 13.7623 9.95 13.8223 9.92 13.8823C9.9 13.9423 9.87 14.0023 9.83 14.0623C9.8 14.1123 9.75 14.1623 9.71 14.2123C9.52 14.3923 9.26 14.5023 9 14.5023Z" fill="#FCCD82"/>
<path id="Vector_4" d="M12.5 14.4989C12.37 14.4989 12.24 14.4689 12.12 14.4189C11.99 14.3689 11.89 14.2989 11.79 14.2089C11.61 14.0189 11.5 13.7689 11.5 13.4989C11.5 13.3689 11.53 13.2389 11.58 13.1189C11.63 12.9989 11.7 12.8889 11.79 12.7889C11.89 12.6989 11.99 12.6289 12.12 12.5789C12.48 12.4189 12.93 12.5089 13.21 12.7889C13.39 12.9789 13.5 13.2389 13.5 13.4989C13.5 13.5589 13.49 13.6289 13.48 13.6989C13.47 13.7589 13.45 13.8189 13.42 13.8789C13.4 13.9389 13.37 13.9989 13.33 14.0589C13.3 14.1089 13.25 14.1589 13.21 14.2089C13.02 14.3889 12.76 14.4989 12.5 14.4989Z" fill="#FCCD82"/>
<path id="Vector_5" d="M16 14.4989C15.87 14.4989 15.74 14.4689 15.62 14.4189C15.49 14.3689 15.39 14.2989 15.29 14.2089C15.25 14.1589 15.21 14.1089 15.17 14.0589C15.13 13.9989 15.1 13.9389 15.08 13.8789C15.05 13.8189 15.03 13.7589 15.02 13.6989C15.01 13.6289 15 13.5589 15 13.4989C15 13.2389 15.11 12.9789 15.29 12.7889C15.39 12.6989 15.49 12.6289 15.62 12.5789C15.99 12.4189 16.43 12.5089 16.71 12.7889C16.89 12.9789 17 13.2389 17 13.4989C17 13.5589 16.99 13.6289 16.98 13.6989C16.97 13.7589 16.95 13.8189 16.92 13.8789C16.9 13.9389 16.87 13.9989 16.83 14.0589C16.8 14.1089 16.75 14.1589 16.71 14.2089C16.52 14.3889 16.26 14.4989 16 14.4989Z" fill="#FCCD82"/>
<path id="Vector_6" d="M9 18.0031C8.87 18.0031 8.74 17.9731 8.62 17.9231C8.5 17.8731 8.39 17.8031 8.29 17.7131C8.11 17.5231 8 17.2631 8 17.0031C8 16.8731 8.03 16.7431 8.08 16.6231C8.13 16.4931 8.2 16.3831 8.29 16.2931C8.66 15.9231 9.34 15.9231 9.71 16.2931C9.89 16.4831 10 16.7431 10 17.0031C10 17.2631 9.89 17.5231 9.71 17.7131C9.52 17.8931 9.26 18.0031 9 18.0031Z" fill="#FCCD82"/>
<path id="Vector_7" d="M12.5 18.0031C12.24 18.0031 11.98 17.8931 11.79 17.7131C11.61 17.5231 11.5 17.2631 11.5 17.0031C11.5 16.8731 11.53 16.7431 11.58 16.6231C11.63 16.4931 11.7 16.3831 11.79 16.2931C12.16 15.9231 12.84 15.9231 13.21 16.2931C13.3 16.3831 13.37 16.4931 13.42 16.6231C13.47 16.7431 13.5 16.8731 13.5 17.0031C13.5 17.2631 13.39 17.5231 13.21 17.7131C13.02 17.8931 12.76 18.0031 12.5 18.0031Z" fill="#FCCD82"/>
<path id="Vector_8" d="M16 18.0009C15.74 18.0009 15.48 17.8909 15.29 17.7109C15.2 17.6209 15.13 17.5109 15.08 17.3809C15.03 17.2609 15 17.1309 15 17.0009C15 16.8709 15.03 16.7409 15.08 16.6209C15.13 16.4909 15.2 16.3809 15.29 16.2909C15.52 16.0609 15.87 15.9509 16.19 16.0209C16.26 16.0309 16.32 16.0509 16.38 16.0809C16.44 16.1009 16.5 16.1309 16.56 16.1709C16.61 16.2009 16.66 16.2509 16.71 16.2909C16.89 16.4809 17 16.7409 17 17.0009C17 17.2609 16.89 17.5209 16.71 17.7109C16.52 17.8909 16.26 18.0009 16 18.0009Z" fill="#FCCD82"/>
<path id="Vector_9" d="M21 9.84375H4C3.59 9.84375 3.25 9.50375 3.25 9.09375C3.25 8.68375 3.59 8.34375 4 8.34375H21C21.41 8.34375 21.75 8.68375 21.75 9.09375C21.75 9.50375 21.41 9.84375 21 9.84375Z" fill="#FCCD82"/>
<path id="Vector_10" d="M16.5 22.75H8.5C4.85 22.75 2.75 20.65 2.75 17V8.5C2.75 4.85 4.85 2.75 8.5 2.75H16.5C20.15 2.75 22.25 4.85 22.25 8.5V17C22.25 20.65 20.15 22.75 16.5 22.75ZM8.5 4.25C5.64 4.25 4.25 5.64 4.25 8.5V17C4.25 19.86 5.64 21.25 8.5 21.25H16.5C19.36 21.25 20.75 19.86 20.75 17V8.5C20.75 5.64 19.36 4.25 16.5 4.25H8.5Z" fill="#FCCD82"/>
</g>
</g>
</svg>
