<svg width="383" height="333" viewBox="0 0 383 333" fill="none" xmlns="http://www.w3.org/2000/svg">
<g opacity="0.6">
<path d="M171.92 56.0525L181.065 61.3498C166.396 52.838 146.113 54.0151 123.701 66.9639C118.087 70.2237 112.745 73.9363 107.764 78.0111L98.6641 72.7139C103.69 68.5938 109.032 64.9265 114.601 61.6667C137.012 48.7179 157.341 47.5408 171.965 56.0525H171.92Z" fill="url(#paint0_linear_729_23041)" stroke="#8F8F92" stroke-linecap="round" stroke-linejoin="round"/>
<path d="M80.6656 44.6099L89.7659 49.9071C84.5592 46.9642 78.7187 45.4248 72.7424 45.4701C62.1932 45.787 51.9157 48.911 42.9059 54.4799C32.5831 60.6374 23.2563 68.4247 15.2879 77.4345L6.1875 72.1373C14.156 63.0822 23.4827 55.3401 33.8055 49.1827C42.77 43.6138 53.0928 40.4898 63.642 40.1729C69.6183 40.1276 75.5042 41.6217 80.6656 44.6099Z" fill="url(#paint1_linear_729_23041)" stroke="#8F8F92" stroke-linecap="round" stroke-linejoin="round"/>
<path d="M-67.4787 58.6158C-31.53 37.8797 2.24548 43.9013 15.3301 77.4957C23.2986 68.4406 32.6253 60.6985 42.9481 54.5411C51.9126 48.9722 62.2354 45.8482 72.7846 45.5312C90.8042 45.6218 103.662 57.6198 107.692 78.0843C112.717 73.9642 118.06 70.2969 123.629 67.0371C168.18 41.3206 204.4 61.9662 204.536 113.127C204.672 164.289 168.678 226.633 124.172 252.349L-147.073 408.866C-187.051 431.866 -219.74 413.756 -220.464 368.164C-221.189 322.572 -189.722 266.339 -149.744 241.8C-166.451 198.924 -143.043 127.389 -97.4963 81.978C-88.5317 72.9229 -78.4806 65.045 -67.5239 58.5706L-67.4787 58.6158Z" fill="url(#paint2_linear_729_23041)" stroke="#8F8F92" stroke-linecap="round" stroke-linejoin="round"/>
<path d="M410.058 356.639C423.233 364.245 423.278 376.56 410.193 384.166L134.466 545.573C119.525 553.179 101.868 553.179 86.9721 545.573L-19.3346 483.998C-32.5097 476.392 -32.555 464.077 -19.4704 456.471L256.257 295.064C271.198 287.458 288.855 287.458 303.751 295.064L410.058 356.639Z" fill="url(#paint3_linear_729_23041)" stroke="#8F8F92" stroke-linecap="round" stroke-linejoin="round"/>
<path d="M410.058 311.678C423.233 319.284 423.278 331.599 410.193 339.205L134.466 500.612C119.525 508.218 101.868 508.218 86.9721 500.612L-19.3346 439.037C-32.5097 431.431 -32.555 419.116 -19.4704 411.51L256.257 250.103C271.198 242.497 288.855 242.497 303.751 250.103L410.058 311.678Z" fill="url(#paint4_linear_729_23041)" stroke="#8F8F92" stroke-linecap="round" stroke-linejoin="round"/>
<path d="M370.092 316.538C378.966 321.654 378.966 329.939 370.183 335.01L132.17 472.466C122.119 477.582 110.257 477.582 100.251 472.466L28.8062 431.084C19.9775 425.968 19.9322 417.683 28.7156 412.567L266.729 275.111C276.78 269.994 288.642 269.994 298.648 275.111L370.092 316.492V316.538Z" fill="url(#paint5_linear_729_23041)" stroke="#8F8F92" stroke-linecap="round" stroke-linejoin="round"/>
<path d="M370.084 316.539L298.639 275.157C288.633 270.041 276.771 270.041 266.765 275.157L28.7524 412.614C25.0851 414.289 22.5497 417.775 22.1875 421.804V422.257C22.7308 426.151 25.2662 429.456 28.7977 431.086L35.4985 434.98L266.675 301.508C276.726 296.392 288.588 296.392 298.594 301.508L363.338 338.996L370.174 335.011C378.958 329.941 378.913 321.655 370.084 316.539Z" fill="url(#paint6_linear_729_23041)" stroke="#8F8F92" stroke-linecap="round" stroke-linejoin="round"/>
<path d="M132.267 156.612L65.5312 118.082L268.32 1L335.056 39.5294L132.267 156.612Z" fill="url(#paint7_linear_729_23041)" stroke="#8F8F92" stroke-linecap="round" stroke-linejoin="round"/>
<path d="M335.171 350.06L132.383 467.142V156.598L335.171 39.5156V350.06Z" fill="url(#paint8_linear_729_23041)" stroke="#8F8F92" stroke-linecap="round" stroke-linejoin="round"/>
<path d="M221.39 322.434C194.541 357.658 164.705 390.528 132.242 420.636V339.819C179.691 320.668 227.909 284.9 276.761 235.641C276.761 235.641 265.533 264.436 221.39 322.388V322.434Z" fill="url(#paint9_linear_729_23041)" stroke="#8F8F92" stroke-linecap="round" stroke-linejoin="round"/>
<mask id="path-11-inside-1_729_23041" fill="white">
<path d="M224.37 166.017C224.37 166.515 224.37 166.605 224.461 166.696L223.917 167.013C223.917 167.013 223.827 166.877 223.827 166.333C223.827 166.062 223.827 165.745 223.193 166.107L222.785 166.333V167.692L222.242 168.009V164.749L223.51 164.024C223.782 163.843 224.461 163.572 224.461 164.432C224.461 164.839 224.28 165.202 223.963 165.473C224.37 165.383 224.37 165.7 224.37 166.062V166.017ZM223.419 165.473C223.736 165.337 223.917 165.02 223.963 164.658C223.963 164.251 223.691 164.296 223.329 164.477L222.785 164.794V165.835L223.419 165.473Z"/>
</mask>
<path d="M224.37 166.017C224.37 166.515 224.37 166.605 224.461 166.696L223.917 167.013C223.917 167.013 223.827 166.877 223.827 166.333C223.827 166.062 223.827 165.745 223.193 166.107L222.785 166.333V167.692L222.242 168.009V164.749L223.51 164.024C223.782 163.843 224.461 163.572 224.461 164.432C224.461 164.839 224.28 165.202 223.963 165.473C224.37 165.383 224.37 165.7 224.37 166.062V166.017ZM223.419 165.473C223.736 165.337 223.917 165.02 223.963 164.658C223.963 164.251 223.691 164.296 223.329 164.477L222.785 164.794V165.835L223.419 165.473Z" fill="url(#paint10_linear_729_23041)"/>
<path d="M225.37 166.017C225.37 165.464 224.922 165.017 224.37 165.017C223.818 165.017 223.37 165.464 223.37 166.017H225.37ZM224.461 166.696L224.965 167.559C225.232 167.403 225.413 167.132 225.452 166.824C225.492 166.516 225.387 166.208 225.168 165.989L224.461 166.696ZM223.917 167.013L223.085 167.567C223.379 168.007 223.964 168.143 224.421 167.876L223.917 167.013ZM223.193 166.107L223.679 166.981L223.689 166.975L223.193 166.107ZM222.785 166.333L222.3 165.459C221.982 165.636 221.785 165.97 221.785 166.333H222.785ZM222.785 167.692L223.289 168.555C223.597 168.376 223.785 168.047 223.785 167.692H222.785ZM222.242 168.009H221.242C221.242 168.367 221.434 168.697 221.744 168.876C222.055 169.054 222.437 169.053 222.746 168.872L222.242 168.009ZM222.242 164.749L221.746 163.881C221.434 164.059 221.242 164.39 221.242 164.749H222.242ZM223.51 164.024L224.006 164.893C224.026 164.881 224.045 164.869 224.065 164.856L223.51 164.024ZM223.963 165.473L223.312 164.714C222.963 165.013 222.863 165.51 223.068 165.92C223.273 166.331 223.732 166.549 224.18 166.449L223.963 165.473ZM223.37 166.062C223.37 166.614 223.818 167.062 224.37 167.062C224.922 167.062 225.37 166.614 225.37 166.062H223.37ZM223.419 165.473L223.025 164.554C222.99 164.569 222.956 164.586 222.923 164.605L223.419 165.473ZM223.963 164.658L224.955 164.782C224.96 164.741 224.963 164.7 224.963 164.658H223.963ZM223.329 164.477L222.882 163.583C222.862 163.592 222.843 163.603 222.825 163.613L223.329 164.477ZM222.785 164.794L222.282 163.93C221.974 164.11 221.785 164.438 221.785 164.794H222.785ZM222.785 165.835H221.785C221.785 166.192 221.975 166.521 222.284 166.7C222.592 166.879 222.972 166.881 223.282 166.704L222.785 165.835ZM223.37 166.017C223.37 166.231 223.368 166.455 223.388 166.626C223.4 166.727 223.425 166.87 223.493 167.023C223.566 167.191 223.665 167.314 223.754 167.403L225.168 165.989C225.186 166.007 225.214 166.037 225.244 166.079C225.275 166.122 225.302 166.17 225.324 166.219C225.366 166.315 225.374 166.387 225.375 166.392C225.375 166.395 225.373 166.375 225.371 166.302C225.37 166.233 225.37 166.144 225.37 166.017H223.37ZM223.957 165.832L223.413 166.149L224.421 167.876L224.965 167.559L223.957 165.832ZM223.917 167.013C224.749 166.458 224.75 166.459 224.75 166.459C224.751 166.46 224.751 166.46 224.751 166.461C224.752 166.462 224.753 166.463 224.753 166.464C224.755 166.466 224.756 166.468 224.757 166.47C224.76 166.474 224.762 166.478 224.765 166.481C224.769 166.489 224.774 166.497 224.778 166.504C224.787 166.519 224.795 166.532 224.801 166.545C224.815 166.571 224.825 166.594 224.832 166.612C224.846 166.647 224.849 166.665 224.848 166.66C224.845 166.647 224.827 166.553 224.827 166.333H222.827C222.827 166.658 222.854 166.903 222.896 167.094C222.917 167.19 222.944 167.276 222.975 167.354C222.99 167.393 223.007 167.43 223.026 167.466C223.035 167.484 223.044 167.501 223.054 167.518C223.059 167.526 223.064 167.535 223.07 167.543C223.072 167.547 223.075 167.551 223.077 167.555C223.079 167.557 223.08 167.559 223.081 167.561C223.082 167.562 223.083 167.563 223.083 167.564C223.084 167.565 223.084 167.565 223.084 167.566C223.085 167.566 223.085 167.567 223.917 167.013ZM224.827 166.333C224.827 166.285 224.829 166.131 224.804 165.975C224.782 165.834 224.709 165.49 224.398 165.223C224.046 164.921 223.635 164.919 223.372 164.969C223.124 165.016 222.893 165.127 222.697 165.239L223.689 166.975C223.81 166.906 223.817 166.92 223.747 166.934C223.662 166.95 223.37 166.976 223.097 166.742C222.865 166.543 222.832 166.307 222.829 166.29C222.824 166.259 222.827 166.246 222.827 166.333H224.827ZM222.707 165.233L222.3 165.459L223.271 167.208L223.679 166.981L222.707 165.233ZM221.785 166.333V167.692H223.785V166.333H221.785ZM222.282 166.828L221.738 167.145L222.746 168.872L223.289 168.555L222.282 166.828ZM223.242 168.009V164.749H221.242V168.009H223.242ZM222.738 165.617L224.006 164.893L223.014 163.156L221.746 163.881L222.738 165.617ZM224.065 164.856C224.076 164.849 224.099 164.836 224.118 164.829C224.147 164.819 224.103 164.842 224.004 164.834C223.948 164.829 223.865 164.813 223.774 164.767C223.68 164.718 223.601 164.649 223.544 164.571C223.437 164.426 223.461 164.329 223.461 164.432H225.461C225.461 164.105 225.399 163.719 225.157 163.389C224.888 163.022 224.506 162.869 224.17 162.841C223.868 162.816 223.603 162.888 223.428 162.952C223.243 163.02 223.08 163.109 222.955 163.192L224.065 164.856ZM223.461 164.432C223.461 164.519 223.429 164.613 223.312 164.714L224.613 166.232C225.13 165.79 225.461 165.159 225.461 164.432H223.461ZM224.18 166.449C224.177 166.45 224.03 166.485 223.831 166.406C223.597 166.314 223.465 166.136 223.407 166.008C223.363 165.909 223.364 165.846 223.367 165.884C223.369 165.916 223.37 165.961 223.37 166.062H225.37C225.37 165.981 225.371 165.851 225.361 165.724C225.351 165.604 225.326 165.399 225.231 165.187C225.123 164.946 224.914 164.684 224.566 164.546C224.252 164.422 223.952 164.451 223.746 164.497L224.18 166.449ZM225.37 166.062V166.017H223.37V166.062H225.37ZM223.813 166.392C224.557 166.074 224.881 165.374 224.955 164.782L222.97 164.534C222.967 164.562 222.962 164.582 222.957 164.596C222.952 164.609 222.949 164.614 222.951 164.612C222.952 164.609 222.959 164.599 222.973 164.587C222.988 164.574 223.006 164.563 223.025 164.554L223.813 166.392ZM224.963 164.658C224.963 164.468 224.935 164.18 224.765 163.906C224.564 163.582 224.248 163.406 223.93 163.358C223.661 163.318 223.428 163.373 223.288 163.415C223.137 163.462 222.996 163.526 222.882 163.583L223.776 165.372C223.807 165.356 223.831 165.345 223.849 165.337C223.867 165.33 223.875 165.328 223.873 165.328C223.872 165.328 223.852 165.335 223.816 165.339C223.782 165.344 223.717 165.349 223.633 165.336C223.546 165.323 223.436 165.29 223.324 165.22C223.21 165.148 223.124 165.055 223.065 164.959C223.008 164.868 222.984 164.787 222.973 164.739C222.963 164.69 222.963 164.66 222.963 164.658H224.963ZM222.825 163.613L222.282 163.93L223.289 165.658L223.833 165.341L222.825 163.613ZM221.785 164.794V165.835H223.785V164.794H221.785ZM223.282 166.704L223.915 166.341L222.923 164.605L222.289 164.967L223.282 166.704Z" fill="#8F8F92" mask="url(#path-11-inside-1_729_23041)"/>
<mask id="path-13-inside-2_729_23041" fill="white">
<path d="M223.248 162.482C224.877 161.531 226.145 162.255 226.145 164.066C226.055 166.104 224.968 167.96 223.248 169.092C221.663 169.998 220.35 169.273 220.305 167.417C220.441 165.379 221.482 163.568 223.202 162.437L223.248 162.482ZM223.248 168.549C224.696 167.643 225.602 166.059 225.692 164.338C225.692 162.799 224.561 162.255 223.248 162.98C221.844 163.885 220.939 165.425 220.803 167.145C220.803 168.775 221.935 169.273 223.248 168.549Z"/>
</mask>
<path d="M223.248 162.482C224.877 161.531 226.145 162.255 226.145 164.066C226.055 166.104 224.968 167.96 223.248 169.092C221.663 169.998 220.35 169.273 220.305 167.417C220.441 165.379 221.482 163.568 223.202 162.437L223.248 162.482ZM223.248 168.549C224.696 167.643 225.602 166.059 225.692 164.338C225.692 162.799 224.561 162.255 223.248 162.98C221.844 163.885 220.939 165.425 220.803 167.145C220.803 168.775 221.935 169.273 223.248 168.549Z" fill="url(#paint11_linear_729_23041)"/>
<path d="M223.248 162.482L222.54 163.189C222.862 163.51 223.359 163.575 223.751 163.346L223.248 162.482ZM226.145 164.066L227.144 164.111C227.145 164.096 227.145 164.081 227.145 164.066H226.145ZM223.248 169.092L223.744 169.96C223.762 169.95 223.78 169.939 223.797 169.927L223.248 169.092ZM220.305 167.417L219.307 167.35C219.305 167.381 219.304 167.411 219.305 167.441L220.305 167.417ZM223.202 162.437L223.91 161.73C223.574 161.394 223.049 161.34 222.653 161.601L223.202 162.437ZM223.248 168.549L223.731 169.424C223.747 169.416 223.762 169.406 223.778 169.397L223.248 168.549ZM225.692 164.338L226.691 164.391C226.692 164.373 226.692 164.356 226.692 164.338H225.692ZM223.248 162.98L222.764 162.104C222.744 162.115 222.725 162.127 222.705 162.14L223.248 162.98ZM220.803 167.145L219.806 167.066C219.804 167.093 219.803 167.119 219.803 167.145H220.803ZM223.751 163.346C224.4 162.967 224.729 163.061 224.823 163.113C224.909 163.161 225.145 163.368 225.145 164.066H227.145C227.145 162.954 226.748 161.893 225.792 161.364C224.845 160.839 223.725 161.046 222.744 161.618L223.751 163.346ZM225.146 164.022C225.07 165.727 224.161 167.294 222.698 168.257L223.797 169.927C225.775 168.626 227.039 166.481 227.144 164.111L225.146 164.022ZM222.751 168.224C222.144 168.571 221.811 168.487 221.69 168.419C221.57 168.351 221.322 168.109 221.304 167.392L219.305 167.441C219.333 168.581 219.764 169.629 220.708 170.161C221.651 170.693 222.767 170.519 223.744 169.96L222.751 168.224ZM221.302 167.483C221.418 165.755 222.296 164.23 223.752 163.272L222.653 161.601C220.668 162.907 219.463 165.004 219.307 167.35L221.302 167.483ZM222.495 163.143L222.54 163.189L223.955 161.775L223.91 161.73L222.495 163.143ZM223.778 169.397C225.513 168.312 226.584 166.424 226.691 164.391L224.694 164.286C224.62 165.693 223.879 166.975 222.718 167.701L223.778 169.397ZM226.692 164.338C226.692 163.334 226.31 162.394 225.432 161.927C224.582 161.475 223.596 161.645 222.764 162.104L223.731 163.855C224.212 163.59 224.448 163.669 224.493 163.693C224.509 163.701 224.692 163.802 224.692 164.338H226.692ZM222.705 162.14C221.031 163.22 219.965 165.046 219.806 167.066L221.8 167.224C221.912 165.803 222.657 164.551 223.79 163.82L222.705 162.14ZM219.803 167.145C219.803 168.171 220.17 169.138 221.063 169.613C221.924 170.07 222.914 169.875 223.731 169.424L222.764 167.673C222.268 167.947 222.036 167.865 222.002 167.847C222.001 167.846 221.803 167.749 221.803 167.145H219.803Z" fill="#8F8F92" mask="url(#path-13-inside-2_729_23041)"/>
<path d="M210.658 187.646C210.429 184.186 209.04 181.645 206.806 180.405C204.397 179.067 201.179 179.338 197.761 181.315C197.754 181.319 197.746 181.324 197.738 181.329C190.451 186.079 185.885 194.012 185.424 202.683C185.423 202.692 185.423 202.701 185.423 202.71C185.423 205.599 186.18 207.922 187.529 209.503C188.885 211.092 190.801 211.885 193.002 211.767C193.098 211.765 193.226 211.749 193.339 211.733C193.471 211.714 193.624 211.689 193.773 211.664C194.072 211.612 194.371 211.554 194.488 211.531C194.497 211.529 194.506 211.527 194.514 211.525C195.959 211.152 197.35 210.595 198.643 209.949C198.686 209.927 198.726 209.899 198.762 209.865C199.137 209.669 200.166 209.092 200.798 208.738C200.996 208.628 201.154 208.539 201.243 208.49L201.243 208.49L201.25 208.486L230.608 191.533V195.404L200.659 212.69L200.657 212.691C200.105 213.014 198.228 214.085 197.666 214.345L197.666 214.344L197.657 214.349C196.102 215.104 194.507 215.725 192.872 216.168C192.007 216.34 191.143 216.426 190.28 216.426C187.846 216.317 185.804 215.275 184.36 213.411C182.908 211.538 182.033 208.797 182.031 205.259C182.66 193.837 188.683 183.398 198.273 177.148C202.705 174.604 206.614 174.401 209.398 175.953C212.128 177.476 213.944 180.78 214.077 185.673L210.658 187.646Z" fill="url(#paint12_linear_729_23041)" stroke="#8F8F92" stroke-linecap="round" stroke-linejoin="round"/>
<path d="M200.041 201.194C200.41 200.988 200.779 200.78 201.011 200.648C201.078 200.64 201.143 200.619 201.202 200.584L230.56 183.632V187.322L200.566 204.653L200.552 204.662C200.205 204.879 198.499 205.822 198.148 205.997L198.148 205.997L198.14 206.002C197.231 206.478 196.271 206.828 195.25 207.14C194.732 207.269 194.255 207.343 193.795 207.305C193.781 207.304 193.767 207.303 193.754 207.303C192.358 207.303 191.202 206.755 190.385 205.74C189.561 204.718 189.049 203.18 189.047 201.161C189.404 194.719 192.802 188.807 198.226 185.275C200.711 183.839 202.855 183.749 204.355 184.578C205.802 185.379 206.811 187.124 206.919 189.772L203.642 191.674C203.438 190.374 202.827 189.376 201.87 188.857C200.725 188.236 199.253 188.393 197.758 189.26C197.751 189.264 197.745 189.269 197.738 189.273C194.525 191.352 192.492 194.849 192.303 198.678C192.303 198.686 192.303 198.694 192.303 198.703C192.303 199.913 192.605 200.936 193.177 201.674C193.757 202.423 194.588 202.843 195.551 202.87L195.551 202.87H195.565C196.087 202.87 196.548 202.764 197.021 202.622C197.033 202.619 197.045 202.615 197.057 202.61L197.069 202.606C197.645 202.384 198.252 202.151 198.863 201.823C199.069 201.731 199.575 201.453 200.041 201.194Z" fill="url(#paint13_linear_729_23041)" stroke="#8F8F92" stroke-linecap="round" stroke-linejoin="round"/>
<path d="M178.4 225.499L174.961 227.464L174.873 195.363C174.872 195.185 174.777 195.02 174.623 194.931C174.469 194.842 174.279 194.842 174.124 194.93L168.444 198.188V194.339L178.312 188.624L178.4 225.499Z" fill="url(#paint14_linear_729_23041)" stroke="#8F8F92" stroke-linecap="round" stroke-linejoin="round"/>
<path d="M171.846 229.308L168.588 231.18L168.501 206.459C168.5 206.281 168.404 206.116 168.25 206.028C168.095 205.939 167.904 205.939 167.75 206.029L163.656 208.401V204.713L171.759 200.036L171.846 229.308Z" fill="url(#paint15_linear_729_23041)" stroke="#8F8F92" stroke-linecap="round" stroke-linejoin="round"/>
<mask id="path-19-inside-3_729_23041" fill="white">
<path d="M248.928 176.707C250.603 176.48 251.645 176.978 251.645 179.287C251.373 182.638 249.29 185.535 246.257 186.939L239.375 190.923V174.352L246.03 170.504C247.706 169.553 248.973 169.327 249.788 169.779C250.513 170.277 250.92 171.183 250.784 172.088C250.739 173.809 250.06 175.484 248.883 176.752L248.928 176.707ZM246.257 183.724C247.525 183.181 248.385 181.959 248.521 180.6C248.521 179.468 247.796 179.197 246.166 180.147L242.499 182.275V185.943L246.257 183.77M242.454 175.756V179.287L245.397 177.612C246.664 177.069 247.525 175.846 247.66 174.488C247.66 173.401 246.891 173.22 245.578 173.99L242.454 175.801"/>
</mask>
<path d="M248.928 176.707C250.603 176.48 251.645 176.978 251.645 179.287C251.373 182.638 249.29 185.535 246.257 186.939L239.375 190.923V174.352L246.03 170.504C247.706 169.553 248.973 169.327 249.788 169.779C250.513 170.277 250.92 171.183 250.784 172.088C250.739 173.809 250.06 175.484 248.883 176.752L248.928 176.707ZM246.257 183.724C247.525 183.181 248.385 181.959 248.521 180.6C248.521 179.468 247.796 179.197 246.166 180.147L242.499 182.275V185.943L246.257 183.77M242.454 175.756V179.287L245.397 177.612C246.664 177.069 247.525 175.846 247.66 174.488C247.66 173.401 246.891 173.22 245.578 173.99L242.454 175.801" fill="url(#paint16_linear_729_23041)"/>
<path d="M248.928 176.707L248.794 175.716C248.577 175.745 248.376 175.845 248.221 175.999L248.928 176.707ZM251.645 179.287L252.641 179.368C252.644 179.341 252.645 179.314 252.645 179.287H251.645ZM246.257 186.939L245.837 186.031C245.809 186.044 245.782 186.058 245.756 186.073L246.257 186.939ZM239.375 190.923H238.375C238.375 191.281 238.566 191.611 238.876 191.789C239.185 191.968 239.567 191.968 239.876 191.788L239.375 190.923ZM239.375 174.352L238.874 173.487C238.565 173.665 238.375 173.995 238.375 174.352H239.375ZM246.03 170.504L245.537 169.634L245.53 169.638L246.03 170.504ZM249.788 169.779L250.355 168.955C250.329 168.937 250.302 168.921 250.274 168.905L249.788 169.779ZM250.784 172.088L249.795 171.94C249.789 171.981 249.786 172.021 249.785 172.062L250.784 172.088ZM248.883 176.752L248.15 176.071C247.779 176.471 247.796 177.094 248.189 177.472C248.581 177.85 249.204 177.844 249.59 177.459L248.883 176.752ZM245.863 182.805C245.355 183.023 245.12 183.611 245.338 184.118C245.555 184.626 246.143 184.861 246.651 184.643L245.863 182.805ZM248.521 180.6L249.516 180.7C249.519 180.667 249.521 180.633 249.521 180.6H248.521ZM246.166 180.147L246.668 181.012L246.67 181.011L246.166 180.147ZM242.499 182.275L241.997 181.411C241.689 181.589 241.499 181.919 241.499 182.275H242.499ZM242.499 185.943H241.499C241.499 186.3 241.69 186.63 241.999 186.809C242.309 186.988 242.69 186.987 243 186.808L242.499 185.943ZM246.757 184.635C247.236 184.359 247.399 183.747 247.123 183.269C246.846 182.791 246.234 182.627 245.756 182.904L246.757 184.635ZM243.454 175.756C243.454 175.203 243.006 174.756 242.454 174.756C241.901 174.756 241.454 175.203 241.454 175.756H243.454ZM242.454 179.287H241.454C241.454 179.643 241.643 179.973 241.951 180.152C242.259 180.331 242.639 180.333 242.948 180.156L242.454 179.287ZM245.397 177.612L245.003 176.693C244.968 176.708 244.935 176.724 244.902 176.743L245.397 177.612ZM247.66 174.488L248.655 174.588C248.659 174.555 248.66 174.521 248.66 174.488H247.66ZM245.578 173.99L246.079 174.855L246.083 174.853L245.578 173.99ZM241.952 174.936C241.474 175.213 241.312 175.825 241.589 176.303C241.866 176.78 242.477 176.943 242.955 176.666L241.952 174.936ZM249.062 177.698C249.829 177.594 250.145 177.709 250.281 177.82C250.402 177.919 250.645 178.238 250.645 179.287H252.645C252.645 178.028 252.367 176.943 251.548 176.273C250.744 175.614 249.702 175.593 248.794 175.716L249.062 177.698ZM250.648 179.206C250.406 182.187 248.553 184.775 245.837 186.031L246.677 187.846C250.028 186.296 252.34 183.089 252.641 179.368L250.648 179.206ZM245.756 186.073L238.874 190.058L239.876 191.788L246.758 187.804L245.756 186.073ZM240.375 190.923V174.352H238.375V190.923H240.375ZM239.876 175.218L246.531 171.37L245.53 169.638L238.874 173.487L239.876 175.218ZM246.524 171.374C247.306 170.93 247.935 170.689 248.418 170.598C248.898 170.507 249.162 170.575 249.303 170.654L250.274 168.905C249.6 168.531 248.823 168.486 248.046 168.633C247.272 168.779 246.43 169.127 245.537 169.634L246.524 171.374ZM249.222 170.603C249.633 170.886 249.874 171.416 249.795 171.94L251.773 172.237C251.966 170.95 251.392 169.668 250.355 168.955L249.222 170.603ZM249.785 172.062C249.746 173.54 249.161 174.983 248.15 176.071L249.616 177.432C250.959 175.986 251.732 174.078 251.784 172.115L249.785 172.062ZM249.59 177.459L249.635 177.414L248.221 175.999L248.176 176.045L249.59 177.459ZM246.651 184.643C248.267 183.951 249.345 182.405 249.516 180.7L247.526 180.501C247.424 181.512 246.782 182.411 245.863 182.805L246.651 184.643ZM249.521 180.6C249.521 180.228 249.464 179.81 249.258 179.436C249.031 179.024 248.658 178.731 248.184 178.619C247.754 178.518 247.317 178.583 246.93 178.701C246.534 178.822 246.11 179.023 245.662 179.284L246.67 181.011C247.038 180.797 247.315 180.675 247.513 180.615C247.72 180.551 247.771 180.577 247.726 180.566C247.696 180.559 247.647 180.541 247.597 180.503C247.548 180.465 247.519 180.424 247.506 180.4C247.487 180.366 247.521 180.407 247.521 180.6H249.521ZM245.664 179.283L241.997 181.411L243.001 183.14L246.668 181.012L245.664 179.283ZM241.499 182.275V185.943H243.499V182.275H241.499ZM243 186.808L246.757 184.635L245.756 182.904L241.998 185.077L243 186.808ZM241.454 175.756V179.287H243.454V175.756H241.454ZM242.948 180.156L245.891 178.481L244.902 176.743L241.959 178.418L242.948 180.156ZM245.791 178.531C247.406 177.839 248.485 176.293 248.655 174.588L246.665 174.389C246.564 175.399 245.922 176.299 245.003 176.693L245.791 178.531ZM248.66 174.488C248.66 174.113 248.596 173.702 248.382 173.337C248.149 172.941 247.783 172.675 247.343 172.57C246.938 172.474 246.533 172.528 246.179 172.63C245.819 172.734 245.447 172.908 245.072 173.127L246.083 174.853C246.365 174.687 246.582 174.595 246.735 174.551C246.895 174.505 246.928 174.527 246.88 174.516C246.85 174.509 246.804 174.491 246.755 174.456C246.706 174.42 246.675 174.38 246.657 174.35C246.629 174.301 246.66 174.32 246.66 174.488H248.66ZM245.076 173.125L241.952 174.936L242.955 176.666L246.079 174.855L245.076 173.125Z" fill="#8F8F92" mask="url(#path-19-inside-3_729_23041)"/>
<path d="M254.898 165.88L257.022 164.649V180.064L254.898 181.295V165.88Z" fill="url(#paint17_linear_729_23041)" stroke="#8F8F92" stroke-linecap="round" stroke-linejoin="round"/>
<path d="M267.163 174.212L265.039 175.474V163.133C265.039 162.954 264.944 162.79 264.789 162.7C264.635 162.611 264.445 162.61 264.29 162.699L260.602 164.807V162.606L271.554 156.258V158.452L267.413 160.843C267.258 160.933 267.163 161.098 267.163 161.276V174.212Z" fill="url(#paint18_linear_729_23041)" stroke="#8F8F92" stroke-linecap="round" stroke-linejoin="round"/>
<path d="M282.996 159.464C282.996 159.588 283.042 159.707 283.125 159.799L286.239 163.233L283.415 164.852L280.515 161.663C280.357 161.489 280.1 161.448 279.896 161.565L277.452 162.969C277.296 163.058 277.201 163.223 277.201 163.402V168.41L275.031 169.649V154.228L281.345 150.57C281.346 150.57 281.346 150.57 281.346 150.57C282.222 150.066 282.982 149.766 283.615 149.649C284.245 149.533 284.716 149.605 285.059 149.801L285.059 149.801L285.064 149.804C285.628 150.117 286.029 150.904 286.029 152.491C286.029 154.972 284.96 157.334 283.151 159.056C283.052 159.151 282.996 159.281 282.996 159.418V159.464ZM283.859 154.556C283.86 154.547 283.86 154.538 283.86 154.528C283.86 153.69 283.596 152.94 282.854 152.686C282.517 152.571 282.149 152.589 281.785 152.681C281.42 152.774 281.029 152.95 280.619 153.19L277.452 155C277.297 155.089 277.201 155.255 277.201 155.434V160.188C277.201 160.367 277.296 160.532 277.451 160.621C277.605 160.71 277.796 160.71 277.951 160.621L281.155 158.77C282.711 157.963 283.759 156.358 283.859 154.556Z" fill="url(#paint19_linear_729_23041)" stroke="#8F8F92" stroke-linecap="round" stroke-linejoin="round"/>
<path d="M290.156 145.563L292.28 144.301V159.708L290.156 160.97V145.563Z" fill="url(#paint20_linear_729_23041)" stroke="#8F8F92" stroke-linecap="round" stroke-linejoin="round"/>
<path d="M305.691 136.589L307.784 135.386L303.617 144.82C303.537 145.001 303.571 145.213 303.704 145.359L308.356 150.467L305.543 152.08L302.552 148.591C302.44 148.459 302.267 148.395 302.096 148.422C301.925 148.448 301.78 148.561 301.712 148.72L298.563 156.127L296.414 157.363L300.818 147.444C300.899 147.263 300.865 147.052 300.732 146.905L296.305 142.023L299.115 140.412L301.88 143.713C301.992 143.847 302.165 143.913 302.337 143.887C302.509 143.861 302.655 143.748 302.723 143.588L305.691 136.589Z" fill="url(#paint21_linear_729_23041)" stroke="#8F8F92" stroke-linecap="round" stroke-linejoin="round"/>
<path d="M132.275 467.152L65.5391 428.622V118.078L132.275 156.607V467.152Z" fill="url(#paint22_linear_729_23041)" stroke="#8F8F92" stroke-linecap="round" stroke-linejoin="round"/>
<path d="M65.4922 382.082L132.228 420.612V339.795L65.4922 301.266V382.082Z" fill="url(#paint23_linear_729_23041)" stroke="#8F8F92" stroke-linecap="round" stroke-linejoin="round"/>
</g>
<defs>
<linearGradient id="paint0_linear_729_23041" x1="99.827" y1="47.5278" x2="130.94" y2="130.242" gradientUnits="userSpaceOnUse">
<stop stop-color="#46474E"/>
<stop offset="1" stop-color="#636571"/>
<stop offset="1" stop-color="#62646F"/>
</linearGradient>
<linearGradient id="paint1_linear_729_23041" x1="7.36703" y1="35.9814" x2="58.9895" y2="138.342" gradientUnits="userSpaceOnUse">
<stop stop-color="#46474E"/>
<stop offset="1" stop-color="#636571"/>
<stop offset="1" stop-color="#62646F"/>
</linearGradient>
<linearGradient id="paint2_linear_729_23041" x1="-214.478" y1="3.54963" x2="428.656" y2="650.859" gradientUnits="userSpaceOnUse">
<stop stop-color="#46474E"/>
<stop offset="1" stop-color="#636571"/>
<stop offset="1" stop-color="#62646F"/>
</linearGradient>
<linearGradient id="paint3_linear_729_23041" x1="-22.9102" y1="259.904" x2="391.878" y2="888.828" gradientUnits="userSpaceOnUse">
<stop stop-color="#46474E"/>
<stop offset="1" stop-color="#636571"/>
<stop offset="1" stop-color="#62646F"/>
</linearGradient>
<linearGradient id="paint4_linear_729_23041" x1="-22.9102" y1="214.943" x2="391.878" y2="843.867" gradientUnits="userSpaceOnUse">
<stop stop-color="#46474E"/>
<stop offset="1" stop-color="#636571"/>
<stop offset="1" stop-color="#62646F"/>
</linearGradient>
<linearGradient id="paint5_linear_729_23041" x1="27.1607" y1="248.216" x2="350.781" y2="743.023" gradientUnits="userSpaceOnUse">
<stop stop-color="#46474E"/>
<stop offset="1" stop-color="#636571"/>
<stop offset="1" stop-color="#62646F"/>
</linearGradient>
<linearGradient id="paint6_linear_729_23041" x1="27.1912" y1="252.915" x2="258.559" y2="696.024" gradientUnits="userSpaceOnUse">
<stop stop-color="#46474E"/>
<stop offset="1" stop-color="#636571"/>
<stop offset="1" stop-color="#62646F"/>
</linearGradient>
<linearGradient id="paint7_linear_729_23041" x1="69.335" y1="-16.4999" x2="314.81" y2="359.371" gradientUnits="userSpaceOnUse">
<stop stop-color="#46474E"/>
<stop offset="1" stop-color="#636571"/>
<stop offset="1" stop-color="#62646F"/>
</linearGradient>
<linearGradient id="paint8_linear_729_23041" x1="135.245" y1="-8.57466" x2="660.627" y2="211.682" gradientUnits="userSpaceOnUse">
<stop stop-color="#46474E"/>
<stop offset="1" stop-color="#636571"/>
<stop offset="1" stop-color="#62646F"/>
</linearGradient>
<linearGradient id="paint9_linear_729_23041" x1="134.282" y1="214.836" x2="432.344" y2="420.684" gradientUnits="userSpaceOnUse">
<stop stop-color="#46474E"/>
<stop offset="1" stop-color="#636571"/>
<stop offset="1" stop-color="#62646F"/>
</linearGradient>
<linearGradient id="paint10_linear_729_23041" x1="222.273" y1="163.367" x2="227.809" y2="165.968" gradientUnits="userSpaceOnUse">
<stop stop-color="#46474E"/>
<stop offset="1" stop-color="#636571"/>
<stop offset="1" stop-color="#62646F"/>
</linearGradient>
<linearGradient id="paint11_linear_729_23041" x1="220.387" y1="161.228" x2="232.372" y2="169.57" gradientUnits="userSpaceOnUse">
<stop stop-color="#46474E"/>
<stop offset="1" stop-color="#636571"/>
<stop offset="1" stop-color="#62646F"/>
</linearGradient>
<linearGradient id="paint12_linear_729_23041" x1="182.231" y1="169.694" x2="255.342" y2="245.164" gradientUnits="userSpaceOnUse">
<stop stop-color="#46474E"/>
<stop offset="1" stop-color="#636571"/>
<stop offset="1" stop-color="#62646F"/>
</linearGradient>
<linearGradient id="paint13_linear_729_23041" x1="189.147" y1="179.949" x2="228.978" y2="239.713" gradientUnits="userSpaceOnUse">
<stop stop-color="#46474E"/>
<stop offset="1" stop-color="#636571"/>
<stop offset="1" stop-color="#62646F"/>
</linearGradient>
<linearGradient id="paint14_linear_729_23041" x1="168.054" y1="183.196" x2="199.745" y2="190.794" gradientUnits="userSpaceOnUse">
<stop stop-color="#46474E"/>
<stop offset="1" stop-color="#636571"/>
<stop offset="1" stop-color="#62646F"/>
</linearGradient>
<linearGradient id="paint15_linear_729_23041" x1="163.286" y1="195.475" x2="189.67" y2="201.997" gradientUnits="userSpaceOnUse">
<stop stop-color="#46474E"/>
<stop offset="1" stop-color="#636571"/>
<stop offset="1" stop-color="#62646F"/>
</linearGradient>
<linearGradient id="paint16_linear_729_23041" x1="239.548" y1="167.152" x2="269.266" y2="182.237" gradientUnits="userSpaceOnUse">
<stop stop-color="#46474E"/>
<stop offset="1" stop-color="#636571"/>
<stop offset="1" stop-color="#62646F"/>
</linearGradient>
<linearGradient id="paint17_linear_729_23041" x1="254.443" y1="161.714" x2="263.749" y2="163.112" gradientUnits="userSpaceOnUse">
<stop stop-color="#46474E"/>
<stop offset="1" stop-color="#636571"/>
<stop offset="1" stop-color="#62646F"/>
</linearGradient>
<linearGradient id="paint18_linear_729_23041" x1="260.27" y1="153.033" x2="289.303" y2="167.668" gradientUnits="userSpaceOnUse">
<stop stop-color="#46474E"/>
<stop offset="1" stop-color="#636571"/>
<stop offset="1" stop-color="#62646F"/>
</linearGradient>
<linearGradient id="paint19_linear_729_23041" x1="274.708" y1="146.685" x2="304.773" y2="162.193" gradientUnits="userSpaceOnUse">
<stop stop-color="#46474E"/>
<stop offset="1" stop-color="#636571"/>
<stop offset="1" stop-color="#62646F"/>
</linearGradient>
<linearGradient id="paint20_linear_729_23041" x1="289.7" y1="141.35" x2="299.007" y2="142.744" gradientUnits="userSpaceOnUse">
<stop stop-color="#46474E"/>
<stop offset="1" stop-color="#636571"/>
<stop offset="1" stop-color="#62646F"/>
</linearGradient>
<linearGradient id="paint21_linear_729_23041" x1="295.531" y1="131.412" x2="329.175" y2="148.242" gradientUnits="userSpaceOnUse">
<stop stop-color="#46474E"/>
<stop offset="1" stop-color="#636571"/>
<stop offset="1" stop-color="#62646F"/>
</linearGradient>
<linearGradient id="paint22_linear_729_23041" x1="66.4809" y1="78.8218" x2="264.122" y2="112.226" gradientUnits="userSpaceOnUse">
<stop stop-color="#46474E"/>
<stop offset="1" stop-color="#636571"/>
<stop offset="1" stop-color="#62646F"/>
</linearGradient>
<linearGradient id="paint23_linear_729_23041" x1="66.434" y1="287.844" x2="229.799" y2="368.602" gradientUnits="userSpaceOnUse">
<stop stop-color="#46474E"/>
<stop offset="1" stop-color="#636571"/>
<stop offset="1" stop-color="#62646F"/>
</linearGradient>
</defs>
</svg>
