<svg width="568" height="543" viewBox="0 0 568 543" fill="none" xmlns="http://www.w3.org/2000/svg">
<g opacity="0.6">
<path opacity="0.0512" d="M477.549 1.71126C89.35 9.78065 -363.766 -77.2411 -458.625 473.645C-668.441 1692.13 275.025 1844.08 275.025 1462.27C275.024 752.665 404.641 1110.25 865.587 696.689C1326.53 283.132 962.798 -8.37548 477.549 1.71126Z" stroke="#8F8F92"/>
<path opacity="0.0925" d="M472.13 38.014C92.4073 38.4558 -349.62 -55.3389 -449.203 481.559C-669.465 1669.1 251.275 1835.81 256.001 1462.43C264.784 768.495 387.111 1120.67 842.992 725.088C1298.87 329.51 946.783 37.4618 472.13 38.014Z" stroke="#8F8F92"/>
<path opacity="0.1338" d="M466.471 73.5295C95.3196 66.6784 -335.564 -33.4764 -439.539 489.388C-669.518 1645.89 228.363 1826.49 237.601 1461.64C254.771 783.539 369.978 1130.1 820.455 752.202C1270.93 374.3 930.409 82.0935 466.471 73.5295Z" stroke="#8F8F92"/>
<path opacity="0.175" d="M460.619 108.183C98.1279 94.3756 -321.562 -11.7258 -429.601 497.069C-668.566 1622.45 206.337 1816.09 219.874 1459.84C245.032 797.736 353.291 1138.5 798.034 777.966C1242.78 417.428 913.733 125.443 460.619 108.183Z" stroke="#8F8F92"/>
<path opacity="0.2163" d="M454.568 141.96C100.818 121.534 -307.637 9.89965 -419.409 504.598C-666.633 1598.8 185.191 1804.63 202.81 1457.06C235.556 811.083 337.044 1145.87 775.727 802.375C1214.41 458.88 896.755 167.493 454.568 141.96Z" stroke="#8F8F92"/>
<path opacity="0.2575" d="M448.372 174.919C103.439 148.214 -293.748 31.4605 -408.925 512.046C-663.677 1575.03 164.981 1792.18 186.466 1453.36C226.398 823.653 321.294 1152.28 753.598 825.499C1185.9 498.718 879.538 208.3 448.372 174.919Z" stroke="#8F8F92"/>
<path opacity="0.2988" d="M441.977 207.033C105.93 174.39 -279.964 52.9317 -398.215 519.396C-659.77 1551.15 145.652 1778.77 170.787 1448.77C217.501 835.433 305.987 1157.73 731.602 847.322C1157.22 536.916 862.036 247.838 441.977 207.033Z" stroke="#8F8F92"/>
<path opacity="0.34" d="M435.462 238.286C108.363 200.046 -266.219 74.2959 -387.218 526.64C-654.85 1527.16 127.283 1764.4 155.85 1443.27C208.942 846.418 291.202 1162.21 709.823 867.836C1128.44 573.46 844.336 286.086 435.462 238.286Z" stroke="#8F8F92"/>
<path opacity="0.3812" d="M428.788 268.663C110.693 225.169 -252.567 95.5402 -375.986 533.776C-648.97 1503.09 109.835 1749.09 141.615 1436.88C200.681 856.607 276.901 1165.74 688.231 887.038C1099.56 608.339 826.406 323.03 428.788 268.663Z" stroke="#8F8F92"/>
<path opacity="0.4225" d="M422.049 298.209C113.008 249.805 -238.928 116.71 -364.44 540.857C-642.056 1479.01 93.3987 1732.92 128.174 1429.66C192.807 866.058 263.178 1168.37 666.926 904.984C1070.67 641.601 808.349 358.713 422.049 298.209Z" stroke="#8F8F92"/>
<path opacity="0.4638" d="M415.175 326.888C115.232 273.919 -225.384 137.768 -352.665 547.856C-634.193 1454.91 77.9039 1715.87 115.456 1421.62C185.249 874.747 249.962 1170.09 645.846 921.65C1041.73 673.214 790.104 393.1 415.175 326.888Z" stroke="#8F8F92"/>
<path opacity="0.505" d="M408.237 354.716C117.428 297.525 -211.881 158.729 -340.607 554.797C-625.33 1430.84 63.4186 1698 103.528 1412.79C178.074 882.703 237.325 1170.93 625.069 937.062C1012.81 703.197 771.749 426.204 408.237 354.716Z" stroke="#8F8F92"/>
<path opacity="0.5462" d="M401.236 381.656C119.591 320.588 -198.43 179.556 -328.279 561.652C-615.485 1406.79 49.9405 1679.3 92.3886 1403.15C171.28 889.901 225.265 1170.87 604.601 951.194C983.938 731.518 753.292 457.99 401.236 381.656Z" stroke="#8F8F92"/>
<path opacity="0.5875" d="M394.172 407.786C121.715 343.188 -185.046 200.326 -315.697 568.507C-604.676 1382.87 37.4663 1659.88 82.0339 1392.8C164.865 896.433 213.781 1170.01 584.451 964.138C955.12 758.261 734.743 488.535 394.172 407.786Z" stroke="#8F8F92"/>
<path opacity="0.6288" d="M387.092 433.003C123.841 365.218 -171.696 220.933 -302.829 575.265C-592.877 1359 26.0394 1639.67 72.5074 1381.68C158.87 902.207 202.92 1168.27 564.67 975.799C926.419 783.325 716.156 517.735 387.092 433.003Z" stroke="#8F8F92"/>
<path opacity="0.67" d="M380.021 457.404C125.985 386.777 -158.369 241.473 -289.668 582.032C-580.082 1335.3 15.6793 1618.79 63.8291 1369.9C153.318 907.332 192.703 1165.76 545.289 986.29C897.875 806.816 697.565 545.688 380.021 457.404Z" stroke="#8F8F92"/>
<path opacity="0.7113" d="M372.926 480.87C128.112 407.745 -145.11 261.823 -276.26 588.693C-566.344 1311.68 6.34973 1597.15 55.963 1357.36C148.172 911.702 183.098 1162.38 526.283 995.501C869.468 828.618 678.944 572.276 372.926 480.87Z" stroke="#8F8F92"/>
<path opacity="0.7525" d="M365.84 503.558C130.245 428.279 -131.901 282.14 -262.589 595.413C-551.651 1288.33 -1.92295 1574.95 48.9359 1344.25C143.459 915.487 174.132 1158.31 507.688 1003.6C841.245 848.896 660.334 597.657 365.84 503.558Z" stroke="#8F8F92"/>
<path opacity="0.7937" d="M358.811 525.362C132.426 448.272 -118.71 302.312 -248.625 602.091C-535.979 1265.16 -9.09762 1552.1 42.7895 1330.48C139.224 918.591 165.851 1153.45 489.559 1010.5C813.266 867.55 641.792 621.725 358.811 525.362Z" stroke="#8F8F92"/>
<path opacity="0.835" d="M351.791 546.327C134.602 467.768 -105.595 322.382 -234.43 608.778C-519.395 1242.24 -15.2273 1528.69 37.4713 1316.13C135.414 921.071 158.205 1147.87 471.852 1016.25C785.5 884.632 623.277 644.526 351.791 546.327Z" stroke="#8F8F92"/>
<path opacity="0.8763" d="M344.874 566.444C136.86 486.757 -92.4776 342.336 -219.927 615.468C-501.826 1219.6 -20.225 1504.72 33.0692 1301.19C132.119 922.93 151.284 1141.59 454.668 1020.86C758.051 900.139 604.891 666.053 344.874 566.444Z" stroke="#8F8F92"/>
<path opacity="0.9175" d="M338.021 585.737C139.155 505.262 -79.4095 362.194 -205.171 622.191C-483.336 1197.27 -24.1375 1480.26 29.5373 1285.74C129.294 924.204 145.046 1134.63 437.971 1024.37C730.895 914.104 586.605 686.331 338.021 585.737Z" stroke="#8F8F92"/>
<path opacity="0.9588" d="M331.264 604.146C141.512 523.221 -66.3729 381.893 -190.147 628.891C-463.916 1175.21 -26.9412 1455.27 26.9001 1269.71C126.967 924.845 139.519 1126.96 421.798 1026.72C704.076 926.475 568.456 705.302 331.264 604.146Z" stroke="#8F8F92"/>
<path d="M324.611 621.735C143.932 540.696 -53.3734 401.49 -174.863 635.634C-443.58 1153.53 -28.6367 1429.85 25.158 1253.21C125.138 924.926 134.704 1118.66 406.16 1027.99C677.616 937.323 550.46 723.032 324.611 621.735Z" stroke="#8F8F92"/>
<path d="M318.077 638.515C146.425 557.699 -40.4088 420.992 -159.321 642.436C-422.337 1132.24 -29.2175 1404.04 24.3189 1236.27C123.819 924.471 130.614 1109.76 391.078 1028.21C651.541 946.668 532.641 739.535 318.077 638.515Z" stroke="#8F8F92"/>
<path d="M311.7 654.453C149.023 574.192 -27.4533 440.36 -143.498 649.266C-400.172 1111.33 -28.6543 1377.82 24.413 1218.87C123.041 923.457 127.283 1100.24 376.593 1027.36C625.903 954.487 515.046 754.779 311.7 654.453Z" stroke="#8F8F92"/>
<path d="M305.504 669.519C151.743 590.144 -14.4969 459.558 -127.388 656.095C-377.086 1090.81 -26.9335 1351.21 25.4556 1201.01C122.823 921.865 124.728 1090.09 362.733 1025.43C600.739 960.759 497.704 768.738 305.504 669.519Z" stroke="#8F8F92"/>
<path d="M299.441 683.832C154.532 605.673 -1.59982 478.699 -111.054 663.046C-353.151 1070.8 -24.1131 1324.34 27.3902 1182.83C123.111 919.825 122.896 1079.45 349.454 1022.53C576.012 965.611 480.577 781.532 299.441 683.832Z" stroke="#8F8F92"/>
<path d="M293.582 697.325C157.454 620.707 11.295 497.708 -94.4437 670.051C-328.322 1051.25 -20.1336 1297.18 30.2776 1164.28C123.969 917.279 121.853 1068.27 336.829 1018.63C551.805 968.986 463.743 793.097 293.582 697.325Z" stroke="#8F8F92"/>
<path d="M287.934 710.011C160.509 635.259 24.1819 516.593 -77.566 677.126C-302.617 1032.2 -14.9994 1269.76 34.1152 1145.39C125.397 914.252 121.598 1056.56 324.868 1013.74C528.137 970.908 447.214 803.451 287.934 710.011Z" stroke="#8F8F92"/>
<path d="M282.472 721.897C163.668 649.332 37.0241 535.353 -60.4618 684.278C-276.086 1013.68 -8.74632 1242.13 38.8691 1126.21C127.365 910.76 122.102 1044.37 313.549 1007.88C504.996 971.395 430.976 812.603 282.472 721.897Z" stroke="#8F8F92"/>
<path d="M277.281 732.999C167.009 662.94 49.8944 553.996 -43.0626 691.522C-248.67 995.711 -1.30144 1214.32 44.614 1106.75C129.95 906.83 123.443 1031.72 302.96 1001.1C482.478 970.473 415.121 820.573 277.281 732.999Z" stroke="#8F8F92"/>
</g>
</svg>
