<svg width="1600" height="877" viewBox="0 0 1600 877" fill="none" xmlns="http://www.w3.org/2000/svg">
<path d="M2901.26 948.265C2840.74 873.707 2771.71 804.823 2688.13 764.181C2574.94 709.13 2424.24 714.199 2333.23 817.541C2228.46 936.535 2168.42 1054.86 2000.31 1070.22C1881.76 1081.06 1740.92 1029.29 1675.78 919.003C1637.11 853.561 1615.8 777.6 1583.71 707.919C1506.73 540.825 1376.45 501.107 1223.67 590.36C1150.68 632.979 1068.12 682.259 991.146 653.73C890.21 616.339 852.121 461.868 747.134 439.937C689.776 427.951 632.705 460.816 577.739 484.691C446.817 541.59 392.457 417.719 273.689 433.402C243.893 437.323 216.873 455.206 187.716 463.43C157.601 471.909 98.5839 463.398 109.047 416.54" stroke="#717278" stroke-linecap="round" stroke-linejoin="round"/>
<path d="M2895.76 910.107C2835.59 835.899 2765.09 770.904 2681.19 734.437C2621.03 708.171 2551.13 698.704 2485.57 710.817C2427.7 721.559 2373.03 748.909 2330.37 796.15C2252.02 883.012 2197.06 970.257 2105.41 1016.57C2075.01 1031.97 2040.46 1042.74 1999.81 1047.78C1882.42 1062.32 1743.9 1017.62 1675.12 912.689C1633.97 849.861 1609.98 775.111 1576.84 705.526C1559.87 669.761 1540.73 639.351 1519.54 614.488C1443.81 525.904 1343.74 515.194 1221.75 570.562C1183.11 588.094 1142.18 612.288 1101.35 630.171C1048.3 653.313 992.281 662.079 939.549 642.794C844.292 607.571 805.946 464.957 706.734 442.962C652.597 431.009 598.685 459.729 546.75 480.799C423.739 530.685 370.56 417.717 258.81 433.336C230.705 437.289 205.152 454.023 177.653 462.184C149.23 470.599 94.551 463.778 103.037 422.307" stroke="#717278" stroke-linecap="round" stroke-linejoin="round"/>
<path d="M2890.32 871.961C2830.54 798.104 2758.54 737.03 2674.29 704.739C2614.12 681.47 2545.09 674.808 2480.74 688.642C2423.86 700.914 2370.2 728.806 2327.55 774.835C2249.62 859.115 2193.15 944.543 2102.97 991.911C2072.92 1007.75 2038.94 1019.17 1999.35 1025.41C1883.14 1043.71 1746.82 1006.06 1674.54 906.451C1630.83 846.237 1604.19 772.731 1570.03 703.241C1552.8 667.954 1533.69 637.385 1512.77 611.948C1438.56 522.281 1342.06 507.331 1219.88 550.841C1173.59 567.321 1125.65 596.233 1077.83 617.845C1016.29 645.609 949.679 654.439 887.982 631.903C798.276 599.134 759.835 468.059 666.365 446.033C615.482 434.111 564.696 458.72 515.791 476.953C400.692 519.858 348.661 417.759 243.962 433.346C217.548 437.299 193.462 452.95 167.622 461.015C140.921 469.398 90.5491 464.234 97.0889 428.119" stroke="#717278" stroke-linecap="round" stroke-linejoin="round"/>
<path d="M2884.87 833.832C2825.44 760.358 2751.9 703.331 2667.37 675.057C2607.14 654.912 2539.03 650.927 2475.86 666.451C2419.97 680.253 2367.37 708.655 2324.68 753.473C2247.16 835.171 2189.2 918.782 2100.48 967.202C2070.78 983.491 2037.35 995.572 1998.88 1002.97C1883.81 1025.09 1749.67 994.392 1673.9 900.135C1627.61 842.535 1598.39 770.24 1563.14 700.845C1545.63 666.037 1526.64 635.276 1505.91 609.265C1433.43 518.355 1339.1 497.284 1217.97 531.009C1163.67 546.15 1109.03 580.035 1054.28 605.44C984.261 637.858 907.125 646.592 836.432 620.932C752.404 590.395 713.708 471.082 625.98 449.056C578.32 437.166 530.723 457.663 484.817 473.091C377.693 509.047 326.779 417.785 229.066 433.309C204.374 437.262 181.725 451.797 157.544 459.83C132.533 468.15 86.4997 464.675 91.0615 433.947" stroke="#717278" stroke-linecap="round" stroke-linejoin="round"/>
<path d="M2879.42 795.673C2820.34 722.55 2745.34 669.476 2660.45 645.346C2600.22 628.228 2532.94 627.017 2471.02 644.23C2416.12 659.563 2364.53 688.506 2321.85 732.113C2244.71 811.229 2185.28 892.991 2098 942.495C2068.62 959.23 2035.76 972.012 1998.4 980.555C1884.49 1006.57 1752.45 982.818 1673.27 893.852C1624.36 838.898 1592.43 767.878 1556.29 698.483C1538.45 664.217 1519.6 633.265 1499.09 606.648C1428.17 514.622 1335.53 485.806 1216.06 511.243C1153.53 524.567 1092.44 563.934 1030.72 593.101C952.207 630.141 864.51 638.811 784.821 609.995C706.44 581.657 667.521 474.171 585.567 452.081C541.16 440.223 496.722 456.639 453.847 469.167C354.698 498.206 304.901 417.782 214.206 433.21C191.205 437.163 170.023 450.583 147.5 458.552C124.181 466.808 82.4861 464.991 85.07 439.649" stroke="#717278" stroke-linecap="round" stroke-linejoin="round"/>
<path d="M2873.92 757.512C2815.22 684.739 2738.72 635.586 2653.45 615.632C2593.22 601.511 2526.81 603.105 2466.07 622.007C2412.15 638.901 2361.62 668.323 2318.87 710.75C2242.15 787.285 2181.22 867.23 2095.41 917.785C2066.38 934.967 2034.06 948.482 1997.79 958.141C1885.02 988.136 1755.05 971.274 1672.53 887.567C1620.97 835.29 1586.52 765.45 1549.32 696.151C1531.2 662.362 1512.45 631.251 1492.16 604.061C1422.77 510.951 1331.6 473.273 1214.04 491.506C1143.13 502.504 1075.72 547.832 1007.07 580.791C920.073 622.485 821.85 631.06 733.132 599.12C660.43 572.95 621.255 477.29 545.075 455.2C503.891 443.374 462.643 455.678 422.766 465.4C331.657 487.554 282.912 417.905 199.235 433.301C177.925 437.285 158.21 449.589 137.315 457.463C115.686 465.655 78.3617 465.527 78.9678 445.573" stroke="#717278" stroke-linecap="round" stroke-linejoin="round"/>
<path d="M2868.46 719.397C2810.12 646.975 2732.18 601.743 2646.53 585.932C2586.3 574.807 2520.74 579.206 2461.21 599.798C2408.29 618.223 2358.78 648.186 2316.03 689.402C2239.73 763.354 2177.29 841.483 2092.95 893.09C2064.27 910.718 2032.53 924.998 1997.34 935.709C1885.75 969.752 1757.76 959.775 1671.92 881.264C1617.69 831.665 1580.71 763.004 1542.49 693.769C1524.12 660.49 1505.39 629.22 1485.36 601.392C1417.51 507.166 1327.67 484.375 1212.19 471.688C1132.95 462.986 1059.19 531.679 983.555 568.4C888.043 614.716 779.324 623.195 681.611 588.164C614.586 564.129 575.188 480.327 504.751 458.205C466.82 446.41 428.762 454.666 391.853 461.488C308.814 476.82 261.058 417.881 184.399 433.214C164.78 437.198 146.501 448.387 127.296 456.228C107.358 464.389 74.3724 465.919 73.0007 451.319" stroke="#717278" stroke-linecap="round" stroke-linejoin="round"/>
<path d="M2863.01 681.243C2805.05 609.171 2725.61 567.828 2639.61 556.225C2579.38 548.096 2514.68 555.3 2456.37 577.614C2404.43 597.568 2355.98 628.073 2313.2 668.078C2237.3 739.449 2173.37 815.76 2090.46 868.419C2062.13 886.493 2030.97 901.539 1996.86 913.333C1886.45 951.52 1760.38 948.333 1671.28 875.018C1614.34 828.16 1574.94 760.582 1535.64 691.475C1517.01 658.675 1498.34 627.277 1478.57 598.843C1412.21 503.565 1323.24 466.749 1210.31 451.99C1123.22 440.578 1042.61 515.615 960.013 556.129C856.015 607.067 736.769 615.419 630.028 577.327C568.714 555.428 529.029 483.484 464.365 461.362C429.657 449.599 394.853 453.839 360.91 457.728C286.006 466.334 239.207 418.01 169.567 433.279C151.67 437.263 134.827 447.368 117.281 455.114C99.0335 463.21 70.3863 466.43 67.0686 457.218" stroke="#717278" stroke-linecap="round" stroke-linejoin="round"/>
<path d="M2857.55 643.085C2799.93 571.396 2719.03 533.91 2632.68 526.514C2572.45 521.35 2508.61 531.391 2451.48 555.394C2400.53 576.879 2353.09 607.894 2310.31 646.719C2234.84 715.508 2169.41 789.97 2087.96 843.714C2059.99 862.234 2029.39 878.076 1996.38 890.89C1887.21 933.286 1762.99 936.919 1670.63 868.705C1610.95 824.588 1569.25 758.031 1528.77 689.083C1509.95 656.728 1491.19 625.267 1471.7 596.196C1406.65 499.962 1319.34 447.908 1208.35 432.161C1113.29 418.678 1025.98 499.452 936.429 543.728C823.945 599.32 694.203 607.48 578.434 566.328C522.799 546.565 482.858 486.51 423.969 464.324C392.514 452.594 360.932 452.849 329.924 453.773C263.187 455.75 217.313 417.945 154.691 433.181C138.486 437.166 123.109 446.155 107.223 453.837C90.6977 461.87 66.3572 466.779 61.0617 462.922" stroke="#717278" stroke-linecap="round" stroke-linejoin="round"/>
<path d="M2852.07 604.96C2794.8 533.621 2712.47 499.833 2625.76 496.836C2565.53 494.541 2502.56 507.515 2446.63 533.207C2396.68 556.222 2350.29 587.779 2307.48 625.393C2232.39 691.6 2165.49 764.245 2085.51 819.008C2057.89 837.975 2027.87 854.646 1995.9 868.48C1888.01 915.179 1765.55 925.602 1670.03 862.424C1607.57 821.112 1563.48 755.607 1521.95 686.754C1502.84 654.878 1484.18 623.257 1464.94 593.581C1401.43 496.263 1316.15 428.239 1206.54 412.397C1103.34 397.479 1009.46 483.353 912.956 531.39C791.987 591.604 651.75 599.573 526.92 555.425C476.995 537.766 436.8 489.601 383.653 467.415C355.42 455.717 327.092 452.083 299.019 449.947C240.448 445.484 195.5 418.007 139.864 433.18C125.349 437.196 111.44 445.038 97.2123 452.656C82.3783 460.657 62.3763 467.224 55.1028 468.754" stroke="#717278" stroke-linecap="round" stroke-linejoin="round"/>
<path d="M2846.62 566.807C2789.74 495.819 2705.9 465.951 2618.84 467.13C2558.61 467.832 2496.5 483.61 2441.76 510.992C2392.79 535.536 2347.46 567.604 2304.62 604.038C2229.94 667.663 2161.54 738.492 2083.03 794.339C2055.76 813.751 2026.34 831.251 1995.43 846.105C1888.88 897.203 1768.1 914.384 1669.4 856.178C1604.2 817.736 1557.68 753.187 1515.1 684.43C1495.73 653.032 1477.1 621.283 1458.12 591.001C1396.14 492.599 1314.18 402.326 1204.63 392.668C1092.47 382.786 992.874 467.258 889.419 519.088C759.932 583.956 609.359 591.383 475.374 544.557C431.159 528.938 390.676 492.727 343.303 470.509C318.325 458.843 293.219 451.447 268.081 446.124C217.613 435.478 173.621 418.073 125.036 433.182C112.243 437.199 99.7701 443.957 87.2011 451.511C74.0578 459.448 58.3944 467.704 49.175 474.59" stroke="#717278" stroke-linecap="round" stroke-linejoin="round"/>
<path d="M2841.16 528.658C2745.68 409.346 2568.06 417.443 2436.88 488.781C2305.7 560.12 2202.06 679.879 2080.51 769.61C1958.97 859.309 1799.62 918.312 1668.73 849.842C1570.16 798.299 1511.68 687.848 1451.23 588.331C1390.78 488.813 1311.44 387.288 1202.66 372.848C1082.77 356.91 976.192 451.104 865.782 506.696C727.81 576.186 566.709 583.485 423.697 533.599C304.801 492.129 164.883 346.55 43.0842 480.366" stroke="#717278" stroke-linecap="round" stroke-linejoin="round"/>
<path d="M2837.39 506.108C2730.43 380.356 2538.67 389.505 2398.21 470.438C2272.8 542.701 2172.16 658.316 2053.45 743.712C1931.21 831.69 1773.1 879.823 1645.53 807.688C1548.62 752.383 1488.32 644.928 1422.45 557.715C1357.24 471.363 1279.72 386.158 1174.22 379.878C1058.58 372.993 954.107 465.179 844.654 517.456C710.032 581.75 554.928 584.268 416.732 534.605C301.059 492.879 150.198 342.36 36.12 483.444" stroke="#717278" stroke-linecap="round" stroke-linejoin="round"/>
<path d="M2833.62 483.575C2715.18 351.385 2509.22 361.33 2359.51 452.113C2239.63 524.822 2142.14 636.676 2026.33 717.864C1903.32 804.089 1746.27 841.83 1622.28 765.583C1526.8 706.867 1465.26 602.313 1393.61 527.118C1324 454.089 1248.01 385.014 1145.74 386.927C1034.4 388.998 931.967 479.335 823.471 528.233C692.23 587.395 543.092 585.068 409.745 535.597C297.325 493.648 135.491 338.188 29.1326 486.476" stroke="#717278" stroke-linecap="round" stroke-linejoin="round"/>
<path d="M2829.87 461.042C2699.93 322.413 2479.69 332.9 2320.85 433.82C2206.33 506.593 2112.16 615.068 1999.26 692.017C1875.45 776.424 1719.61 803.551 1599.03 723.446C1505.11 661.065 1442.68 559.794 1364.74 496.52C1291.24 436.848 1216.31 383.806 1117.22 393.975C1010.26 404.972 909.834 493.524 802.263 539.011C674.435 593.073 531.231 585.869 402.702 536.621C293.504 494.417 120.728 334.016 22.0575 489.54" stroke="#717278" stroke-linecap="round" stroke-linejoin="round"/>
<path d="M2826.12 438.503C2684.71 293.435 2450.01 304.145 2282.18 415.488C2172.85 488.006 2082.09 593.325 1972.2 666.162C1847.56 748.721 1693.03 765.201 1575.82 681.335C1483.47 615.256 1420.69 517.205 1335.96 465.916C1259.14 419.409 1184.72 382.497 1088.76 401.049C986.163 420.844 887.812 507.77 781.071 549.814C656.721 598.84 519.386 586.695 395.674 537.67C289.698 495.242 105.979 329.901 15.0292 492.661" stroke="#717278" stroke-linecap="round" stroke-linejoin="round"/>
<path d="M2822.37 415.974C2669.5 264.467 2420.16 275.146 2243.52 397.167C2139.24 469.207 2052.02 571.562 1945.12 640.287C1819.62 720.933 1666.43 726.766 1552.61 639.203C1461.85 569.394 1399.23 474.276 1307.16 435.323C1227.47 401.598 1153.11 381.134 1060.31 408.101C962.116 436.63 865.807 522.026 759.927 560.596C639.054 604.649 507.589 587.5 388.725 538.666C285.972 496.015 91.3113 325.701 8.0813 495.697" stroke="#717278" stroke-linecap="round" stroke-linejoin="round"/>
<path d="M2818.59 393.429C2654.24 235.483 2390.1 245.779 2204.82 378.83C2105.41 450.2 2021.86 549.749 1917.99 614.394C1791.6 693.064 1639.85 688.283 1529.34 597.022C1440.24 523.452 1378.03 430.66 1278.28 404.65C1196.04 383.197 1121.42 379.595 1031.78 415.073C937.99 452.209 843.722 536.266 738.704 571.298C621.371 610.442 495.617 588.479 381.666 539.613C282.071 496.931 76.5319 321.485 1.02195 498.716" stroke="#717278" stroke-linecap="round" stroke-linejoin="round"/>
<path d="M2814.83 370.891C2638.99 206.505 2359.76 216.1 2166.15 360.531C2071.56 431.105 1991.72 527.88 1890.94 588.573C1763.59 665.235 1613.37 649.807 1506.15 554.943C1418.67 477.548 1356.98 386.446 1249.5 374.11C1164.74 364.356 1089.81 378.063 1003.35 422.179C913.903 467.826 821.805 550.736 717.584 582.134C603.792 616.432 483.844 589.306 374.71 540.695C278.337 497.758 61.8559 317.371 -5.96592 501.838" stroke="#717278" stroke-linecap="round" stroke-linejoin="round"/>
<path d="M2811.08 348.329C2623.75 177.505 2329.12 186.016 2127.47 342.177C2037.54 411.795 1961.52 505.925 1863.84 562.664C1735.5 637.223 1586.87 611.243 1482.91 512.778C1397.12 431.558 1335.36 351.772 1220.68 343.484C1133.43 337.173 1058.08 376.38 974.881 429.199C889.705 483.261 799.839 565.151 696.416 592.915C586.197 622.464 472.119 589.887 367.706 541.722C274.651 498.37 47.1318 313.234 -12.9699 504.905" stroke="#717278" stroke-linecap="round" stroke-linejoin="round"/>
<path d="M2807.34 325.793C2608.54 148.53 2298.17 155.574 2088.83 323.848C2003.5 392.446 1931.34 483.93 1836.78 536.781C1707.42 609.14 1560.46 572.641 1459.71 470.638C1375.68 385.561 1314.02 296.052 1191.9 312.851C1101.43 325.283 1026.27 374.659 946.423 436.212C865.458 498.689 777.921 579.686 675.263 603.625C568.618 628.52 460.313 590.62 360.75 542.678C270.916 499.071 32.4553 308.994 -19.9263 507.933" stroke="#717278" stroke-linecap="round" stroke-linejoin="round"/>
<path d="M2803.58 303.26C2593.29 119.526 2266.78 124.722 2050.14 305.524C1969.3 373.005 1901.06 461.876 1809.7 510.933C1679.25 580.965 1534.26 533.884 1436.49 428.502C1354.37 339.376 1291.91 250.346 1163.06 282.254C1069.21 305.492 994.337 372.91 917.934 443.292C841.052 514.121 755.972 594.353 654.048 614.467C551.007 634.772 448.445 591.484 353.698 543.734C267.087 499.904 17.7156 304.886 -26.9779 511.029" stroke="#717278" stroke-linecap="round" stroke-linejoin="round"/>
<path d="M2799.81 280.71C2578.06 90.5374 2234.87 93.3745 2011.47 287.213C1935 353.547 1870.78 439.772 1782.61 485.068C1651.02 552.677 1507.72 495.428 1413.26 386.38C1332.8 293.493 1269.38 204.558 1134.25 251.639C1036.7 285.651 962.335 371.143 889.473 450.323C816.611 529.503 734.019 609.13 632.892 625.227C533.424 641.07 436.636 592.268 346.707 544.74C263.317 500.656 3.00434 300.697 -34.001 514.076" stroke="#717278" stroke-linecap="round" stroke-linejoin="round"/>
<path d="M2841.43 312.429C2713.32 203.986 2540.06 154.706 2378.39 177.306C2255.35 194.519 2135.59 243.29 2037.49 311.6C2013.92 328.016 1991.43 345.612 1969.35 362.921C1918.37 402.925 1870.14 442.93 1810.42 465.275C1792.59 471.937 1774.56 476.591 1756.35 479.173C1643.77 494.952 1525.29 438.085 1439.22 351.573C1416.89 329.26 1395.51 307.648 1373.92 288.554C1313.02 234.651 1249.69 201.341 1150.77 237.297C1082.88 262.192 1025.27 310.293 971.485 363.941C947.272 388.103 923.856 413.349 900.6 438.148C826.048 517.679 743.073 598.326 643.222 621.213C615.66 627.429 588.289 628.927 561.173 627.238C516.415 624.401 472.36 612.575 428.687 596.158C404.283 587.01 380.261 575.821 356.75 563.836C320.989 545.603 260.121 501.327 197.787 468.335C102.562 417.907 -0.319516 390.111 -29.8281 511.559" stroke="#717278" stroke-linecap="round" stroke-linejoin="round"/>
<path d="M2883.12 344.19C2753.82 236.162 2573.96 183.311 2411.87 211.203C2286.28 232.815 2164.42 282.287 2063.55 336.093C2039.52 348.908 2016.59 362.136 1994.19 374.823C1942.93 403.894 1896.22 432.487 1838.26 445.524C1821 449.413 1803.52 451.708 1785.78 452.059C1675.5 454.226 1556.32 395.734 1465.21 316.777C1441.54 296.28 1418.5 276.995 1395.5 260.101C1331.19 212.86 1265.12 185.606 1167.32 222.965C1098.79 249.136 1039.84 297.555 984.649 351.394C959.798 375.62 935.681 400.993 911.787 425.984C835.575 505.834 752.249 587.819 653.579 617.241C626.495 625.306 599.539 628.908 572.837 629.8C528.527 631.266 484.79 624.604 440.607 612.077C415.533 604.969 390.842 594.8 366.788 582.942C328.443 564.04 268.086 517.787 207.538 482.851C113.844 428.789 11.1543 394.459 -25.6277 508.99" stroke="#717278" stroke-linecap="round" stroke-linejoin="round"/>
<path d="M2924.72 375.897C2794.25 268.283 2607.78 211.958 2445.28 245.014C2317.13 271.088 2193.39 321.262 2089.52 360.501C2065.11 369.713 2041.76 378.607 2018.99 386.671C1967.72 404.841 1922.29 422.022 1866.05 425.751C1849.4 426.867 1832.43 426.803 1815.17 424.955C1707.12 413.415 1587.11 353.552 1491.15 281.99C1466.11 263.311 1441.51 246.353 1417.04 231.658C1349.41 191.08 1280.54 170.073 1183.81 208.643C1114.65 236.216 1054.36 284.859 997.735 338.857C972.214 363.179 947.458 388.616 922.895 413.862C845.024 494.062 761.316 577.195 663.858 613.311C637.252 623.16 610.71 628.93 584.456 632.404C540.592 638.206 497.11 636.771 452.513 628.069C426.705 623.033 401.439 613.884 376.811 602.122C335.914 582.55 276.035 534.29 217.242 497.473C125.079 439.745 22.5807 398.944 -21.4747 506.558" stroke="#717278" stroke-linecap="round" stroke-linejoin="round"/>
<path d="M2966.37 407.658C2834.72 300.459 2641.69 240.755 2478.77 278.911C2348.07 309.512 2222.7 360.45 2115.57 384.963C2090.85 390.605 2067.18 395.195 2043.83 398.574C1992.82 406.001 1948.47 411.643 1893.86 406.001C1877.81 404.343 1861.35 401.889 1844.57 397.872C1738.72 372.499 1617.85 311.424 1517.07 247.226C1490.66 230.395 1464.5 215.7 1438.57 203.237C1367.68 169.225 1295.94 154.594 1200.3 194.343C1130.53 223.319 1068.86 272.153 1010.8 326.342C984.645 350.728 959.188 376.292 933.986 401.729C854.456 482.248 770.397 566.465 674.119 609.339C647.992 620.973 621.865 628.942 596.025 634.967C552.576 645.135 509.35 648.929 464.369 643.988C437.827 641.055 411.955 632.895 386.785 621.228C343.304 601.051 283.968 550.655 226.897 511.989C136.298 450.564 33.9269 403.291 -17.3701 503.988" stroke="#717278" stroke-linecap="round" stroke-linejoin="round"/>
<path d="M3008.02 439.368C2875.15 332.583 2675.58 269.564 2512.21 312.724C2378.99 347.916 2252.09 399.842 2141.62 409.373C2116.61 411.54 2092.65 411.859 2068.66 410.425C2018.13 407.428 1974.65 401.308 1921.69 386.231C1906.25 381.832 1890.27 376.923 1874 370.739C1770.32 331.404 1648.62 269.277 1543.06 212.442C1515.24 197.46 1487.58 184.997 1460.14 174.829C1386.07 147.319 1311.42 139.159 1216.83 180.056C1146.46 210.466 1083.42 259.491 1023.93 313.808C997.1 338.289 970.973 363.918 945.133 389.61C863.913 470.479 779.502 555.748 684.469 605.411C658.82 618.831 633.076 628.999 607.683 637.606C564.68 652.173 521.677 661.258 476.314 659.983C449.038 659.218 422.56 652.014 396.88 640.411C350.815 619.628 292.021 567.096 236.704 526.613C147.7 461.427 45.4569 407.779 -13.1136 501.559" stroke="#717278" stroke-linecap="round" stroke-linejoin="round"/>
<path d="M3049.67 471.079C2915.62 364.677 2709.51 298.438 2545.66 346.571C2409.89 386.448 2281.55 439.522 2167.63 433.784C2142.37 432.509 2118.09 428.684 2093.5 422.277C2043.41 409.24 2000.82 391.007 1949.53 366.43C1934.69 359.322 1919.22 351.895 1903.46 343.607C1802.01 290.182 1679.39 227.163 1569.07 177.628C1539.85 164.495 1510.69 154.231 1481.76 146.357C1404.53 125.287 1326.94 123.693 1233.41 165.706C1162.46 197.582 1098.05 246.735 1037.09 301.243C1009.62 325.82 982.825 351.512 956.316 377.427C873.436 458.648 788.611 544.936 694.822 601.421C669.62 616.594 644.322 629.026 619.344 640.15C576.788 659.117 533.976 673.557 488.262 675.915C460.221 677.35 433.137 671.07 406.946 659.531C358.297 638.142 300.045 583.443 246.451 541.143C159.042 472.163 56.895 412.14 -8.91704 499.035" stroke="#717278" stroke-linecap="round" stroke-linejoin="round"/>
<path d="M3091.29 502.835C2956.06 396.847 2743.4 327.453 2579.11 380.431C2440.85 424.994 2310.92 479.534 2193.65 458.241C2168.1 453.587 2143.44 445.682 2118.3 434.174C2068.44 411.319 2026.9 380.846 1977.33 346.706C1963.07 336.888 1948.14 326.943 1932.86 316.52C1833.74 248.942 1710.09 185.126 1595.03 142.859C1564.4 131.606 1533.78 123.51 1503.31 117.931C1422.89 103.205 1342.43 108.273 1249.92 151.401C1178.37 184.744 1112.59 234.024 1050.19 288.724C1022.05 313.364 994.583 339.184 967.435 365.322C882.897 446.861 797.626 534.17 705.112 597.476C680.389 614.402 655.538 629.097 630.942 642.74C588.833 666.169 546.245 685.964 500.116 691.861C471.341 695.527 443.651 690.14 416.917 678.664C365.652 656.702 308.039 599.803 256.136 555.718C170.385 482.913 68.3018 416.579 -4.78369 496.524" stroke="#717278" stroke-linecap="round" stroke-linejoin="round"/>
<path d="M3132.96 534.544C2996.56 428.97 2777.43 356.484 2612.59 414.243C2471.85 463.587 2340.16 519.689 2219.7 482.617C2193.8 474.648 2168.69 462.663 2143.14 445.992C2093.31 413.414 2052.95 370.605 2005.16 326.871C1991.48 314.375 1977.12 301.912 1962.29 289.353C1865.56 207.558 1740.83 143.041 1621.01 108.009C1588.98 98.6379 1556.86 92.6451 1524.89 89.4257C1441.31 80.9785 1357.95 92.8364 1266.46 136.985C1194.33 171.825 1127.15 221.233 1063.32 276.092C1034.54 300.828 1006.37 326.712 978.586 353.073C892.389 434.963 806.671 523.26 715.466 593.419C691.189 612.098 666.784 629.056 642.603 645.249C600.972 673.109 558.576 698.355 512.064 707.727C482.555 713.656 454.259 709.129 426.984 697.718C373.103 675.181 316.127 616.019 265.883 570.181C181.824 493.487 79.7399 420.874 -0.619064 493.934" stroke="#717278" stroke-linecap="round" stroke-linejoin="round"/>
<path d="M3174.57 566.264C3036.98 461.105 2811.38 385.559 2646 448.1C2502.8 502.257 2369.13 560.017 2245.7 507.071C2219.42 495.786 2193.8 479.753 2167.93 457.854C2117.91 415.554 2078.93 360.409 2032.96 307.112C2019.84 291.907 2006.06 276.893 1991.68 262.262C1897.44 166.251 1771.49 101.096 1646.92 73.2366C1613.49 65.7458 1579.86 61.857 1546.4 60.9963C1459.63 58.765 1373.4 77.4762 1282.93 122.677C1210.26 159.015 1141.64 208.519 1076.37 263.569C1046.92 288.401 1018.12 314.38 989.661 340.964C901.774 423.205 815.641 512.426 725.711 589.502C701.881 609.903 677.956 629.188 654.189 647.867C613.037 680.19 570.895 710.887 523.937 723.733C493.726 731.989 464.76 728.259 436.974 716.911C380.509 693.833 324.172 632.376 275.555 584.817C193.218 504.234 91.1342 425.34 3.50183 491.483" stroke="#717278" stroke-linecap="round" stroke-linejoin="round"/>
<path d="M3216.25 598.016C3077.48 493.271 2845.56 415.015 2679.52 481.955C2534.02 541.244 2398.02 600.407 2271.79 531.49C2245.09 516.923 2218.93 496.745 2192.83 469.715C2142.49 417.597 2104.82 350.307 2060.86 287.319C2048.26 269.437 2035.15 251.873 2021.21 235.106C1929.52 124.847 1802.33 59.2776 1673 38.3988C1638.14 32.8842 1603.05 30.9718 1568.08 32.5337C1478.06 36.4864 1389.08 62.2103 1299.57 108.335C1226.39 146.299 1156.3 195.803 1089.6 251.013C1059.51 275.908 1030.01 301.982 1000.91 328.79C911.365 411.349 824.626 501.463 736.132 585.489C712.717 607.611 689.333 629.255 665.918 650.388C625.34 687.269 583.358 723.353 535.953 739.61C505.073 750.193 475.405 747.324 447.108 735.976C387.995 712.451 332.36 648.603 285.401 599.291C204.851 514.756 102.672 429.678 7.79767 488.904" stroke="#717278" stroke-linecap="round" stroke-linejoin="round"/>
<path d="M3257.87 629.726C3117.89 525.396 2879.46 443.857 2712.94 515.801C2533.75 593.196 2368.89 666.352 2217.61 481.598C2152.4 401.94 2111.54 293.242 2050.54 208.005C1937.42 49.9318 1760.69 -14.4261 1589.61 4.09392C1418.52 22.614 1252.51 116.68 1102.7 238.479C952.859 360.278 816.641 509.872 677.552 652.996C637.452 694.276 595.789 735.938 547.842 755.573C448.821 796.152 361.699 688.729 295.089 613.884C216.357 525.396 114.082 434.103 11.9347 486.412" stroke="#717278" stroke-linecap="round" stroke-linejoin="round"/>
</svg>
