<svg width="295" height="189" viewBox="0 0 295 189" fill="none" xmlns="http://www.w3.org/2000/svg">
<path d="M67.4321 110.44L46.1092 133.261C45.3305 134.094 44.8973 135.192 44.8973 136.333L44.8973 181.99C44.8973 183.923 43.3303 185.49 41.3973 185.49H4C2.067 185.49 0.5 183.923 0.5 181.99L0.5 7.0625C0.5 5.1295 2.067 3.5625 4 3.5625L41.3973 3.5625C43.3303 3.5625 44.8973 5.1295 44.8973 7.0625L44.8973 64.1635C44.8973 68.2729 49.9525 70.2322 52.7219 67.1961L109.726 4.70379C110.389 3.97676 111.327 3.5625 112.312 3.5625L155.288 3.5625C158.311 3.5625 159.912 7.13665 157.899 9.39242L99.5797 74.7675C98.2346 76.2753 98.0594 78.4947 99.1513 80.1948L163.251 180.003C164.747 182.332 163.074 185.394 160.306 185.394H116.704C115.492 185.394 114.366 184.767 113.728 183.736L68.4244 110.53C68.4043 110.426 68.3523 110.327 68.2689 110.25M68.2689 110.25C68.269 110.25 68.269 110.25 68.2691 110.25L67.9285 110.616L68.2689 110.25Z" fill="#46474E" stroke="#6E6F73"/>
<path d="M261.507 181.774L261.503 181.775C255.791 183.883 249.76 185.323 243.721 186.283C229.046 188.587 214.062 187.915 199.809 184.172L199.802 184.17C190.861 181.964 182.443 178.416 174.858 173.624L174.857 173.623C167.396 168.939 161.281 162.725 156.72 155.554C151.858 147.633 149.48 138.663 149.687 129.598H149.687V129.587L149.687 61.1133H149.687L149.687 61.1019C149.48 52.033 151.756 43.0594 156.413 35.0387C160.765 27.7757 166.88 21.3673 174.141 16.3915C181.621 11.3125 190.036 7.47905 198.97 5.17902L198.97 5.17909L198.978 5.17683C208.029 2.6817 217.498 1.43359 227.072 1.43359C238.945 1.43359 250.821 3.06687 262.282 6.0467L262.282 6.04679L262.292 6.04904C271.866 8.34198 280.868 12.4412 288.72 18.0122C290.197 19.0604 290.522 21.1134 289.486 22.6389L271.757 48.7469C270.611 50.4332 268.245 50.7975 266.511 49.6247C261.263 46.0743 255.272 43.4187 248.934 41.9173C242.103 40.2693 235.164 39.3961 228.222 39.3961C224.305 39.3961 220.392 39.982 216.589 41.0539C212.669 42.1291 209.064 43.7916 205.777 46.0415L205.774 46.0429C202.367 48.4002 199.595 51.4481 197.674 54.9921L197.674 54.992L197.669 55.0006C195.437 59.3148 194.371 63.9303 194.582 68.7432L194.582 120.607C194.371 125.323 195.437 130.031 197.561 134.341L197.56 134.341L197.567 134.353C199.375 137.787 201.932 140.936 205.243 143.301C208.326 145.556 211.829 147.22 215.644 148.295C219.346 149.368 223.26 149.954 227.177 149.954C230.88 149.954 234.579 149.466 238.168 148.59L238.17 148.589C241.427 147.777 244.538 146.427 247.265 144.648C248.468 143.864 249.108 142.505 249.108 141.11L249.108 122.303C249.108 119.818 247.094 117.803 244.608 117.803H225.218C223.285 117.803 221.718 116.236 221.718 114.303V86.6198C221.718 84.6868 223.285 83.1198 225.218 83.1198H290.503C292.436 83.1198 294.003 84.6868 294.003 86.6198V159.743C294.003 160.58 293.709 161.384 293.158 161.995C289.179 166.415 284.454 170.274 279.293 173.429C279.128 173.372 278.939 173.387 278.778 173.487L279.042 173.912L278.778 173.487C273.4 176.817 267.609 179.579 261.507 181.774Z" fill="#46474E" stroke="#6E6F73"/>
</svg>
