<svg width="172" height="27" viewBox="0 0 172 27" fill="none" xmlns="http://www.w3.org/2000/svg">
<g opacity="0.6" clip-path="url(#clip0_214_1143)">
<path d="M5.67761 10.5812L3.80927 12.7324V17.3004H0.046875V0.990962H3.80927V7.35875L9.2086 0.990962H13.6566L8.16302 7.61586L13.9394 17.2918H9.53428L5.66904 10.5726L5.67761 10.5812Z" fill="#46474E"/>
<path d="M19.5873 0.990962V17.3004H15.8249V0.990962H19.5873Z" fill="#46474E"/>
<path d="M35.3225 12.5181C35.3397 13.2637 35.1597 14.0008 34.7997 14.6607C34.4483 15.2692 33.9684 15.792 33.3942 16.1862C32.76 16.6147 32.0572 16.9319 31.3116 17.1118C30.4888 17.3175 29.6404 17.4204 28.7919 17.4204C28.2091 17.4204 27.6263 17.3861 27.0521 17.3261C26.5036 17.2661 25.9551 17.1461 25.4323 16.9833C24.8924 16.8119 24.3696 16.5805 23.8811 16.2976C23.3326 15.9805 22.8269 15.612 22.3556 15.2006L24.4639 12.4324C25.0895 12.9466 25.8008 13.358 26.555 13.6494C27.2321 13.9065 27.952 14.0351 28.6719 14.0436C29.109 14.0522 29.5461 14.0094 29.9746 13.8979C30.2746 13.8294 30.5574 13.7008 30.8145 13.5294C31.0031 13.4094 31.1573 13.238 31.2602 13.0495C31.3459 12.8952 31.3887 12.7238 31.3887 12.5524C31.3887 12.3296 31.3287 12.1153 31.2087 11.9268C31.0545 11.7125 30.8488 11.5411 30.6088 11.4211C30.2489 11.2326 29.8718 11.0697 29.4861 10.9497C29.0233 10.7955 28.4405 10.6155 27.7463 10.4269C27.0607 10.247 26.3836 10.0156 25.7323 9.73274C25.1923 9.50134 24.6953 9.18424 24.2496 8.79C23.8554 8.43004 23.5383 7.97581 23.3411 7.47873C23.1183 6.89595 23.0155 6.27888 23.0326 5.65324C23.024 4.95904 23.1697 4.27341 23.4697 3.65635C23.7611 3.06499 24.181 2.55077 24.7038 2.13939C25.2695 1.7023 25.9123 1.37663 26.5979 1.17951C27.3864 0.93954 28.192 0.828125 29.0062 0.828125C29.9489 0.828125 30.8831 0.913829 31.8087 1.08524C32.8457 1.30807 33.8227 1.73658 34.6797 2.33651L33 5.36185C32.3572 4.92476 31.6373 4.61623 30.8831 4.43625C30.2489 4.3077 29.6061 4.2477 28.9547 4.2477C28.4491 4.23056 27.952 4.32484 27.4978 4.54767C27.1293 4.73621 26.915 5.12188 26.9407 5.53326C26.9407 5.73038 27.0007 5.9275 27.1207 6.09033C27.2835 6.29602 27.4892 6.45886 27.7206 6.57884C28.0806 6.76739 28.4491 6.92166 28.8348 7.04164C29.289 7.19591 29.8546 7.35875 30.5145 7.5473C31.3887 7.76155 32.2286 8.08723 33.0257 8.50718C33.5827 8.79857 34.0713 9.19281 34.4826 9.66418C34.8083 10.0584 35.0397 10.5212 35.1597 11.0097C35.2711 11.4982 35.3311 12.0039 35.3225 12.5095V12.5181Z" fill="#46474E"/>
<path d="M37.5765 0.990962H48.958V4.32484H41.3389V7.4016H47.8438V10.7355H41.3389V13.9494H48.958V17.2832H37.5765V0.990962Z" fill="#46474E"/>
<path d="M51.4434 17.3004V0.990962H55.1544V13.9579H62.8934V17.2918H51.4434V17.3004Z" fill="#46474E"/>
<path d="M64.4275 0.990962H75.809V4.32484H68.1899V7.4016H74.6948V10.7355H68.1899V13.9494H75.809V17.2832H64.4275V0.990962Z" fill="#46474E"/>
<path d="M84.3793 11.8068L86.0334 5.91035L87.4561 0.990962H91.3813L86.1963 17.2918H82.3396L77.1117 0.990962H81.1312L82.5967 6.00463L84.2336 11.7982H84.3708L84.3793 11.8068Z" fill="#46474E"/>
<path d="M109.876 16.1948C109.431 16.4948 108.951 16.7433 108.445 16.9404C107.974 17.129 107.476 17.2575 106.979 17.3432C105.771 17.5489 104.537 17.4889 103.363 17.1547C102.626 16.9576 101.931 16.6405 101.306 16.2119C100.689 15.792 100.183 15.2349 99.806 14.5921C99.4032 13.8808 99.2061 13.0752 99.2232 12.261V6.17604C99.2061 5.36185 99.3946 4.55624 99.7803 3.83632C100.14 3.18498 100.646 2.61076 101.246 2.1651C101.863 1.71087 102.557 1.36806 103.294 1.16237C104.04 0.93954 104.82 0.828125 105.608 0.828125C106.585 0.828125 107.562 0.973821 108.505 1.2395C109.396 1.4709 110.228 1.90799 110.93 2.50792L109.105 5.42184C108.616 4.99332 108.025 4.67622 107.391 4.51338C106.834 4.36769 106.268 4.29055 105.702 4.29055C105.385 4.29055 105.068 4.34198 104.76 4.43625C104.443 4.53052 104.151 4.67622 103.885 4.87334C103.611 5.07903 103.388 5.34471 103.234 5.65324C103.054 6.03034 102.968 6.43315 102.986 6.8531V11.464C102.968 11.8753 103.054 12.2867 103.226 12.6638C103.371 12.9638 103.577 13.238 103.843 13.4437C104.091 13.6408 104.374 13.7865 104.683 13.8808C104.983 13.9751 105.3 14.0265 105.617 14.0265C105.917 14.0265 106.217 13.9836 106.508 13.9065C106.825 13.8208 107.125 13.6665 107.374 13.4609V11.2583H105.128V8.08723H111.136V15.0721C110.785 15.5177 110.356 15.9034 109.885 16.2119L109.876 16.1948Z" fill="#46474E"/>
<path d="M121.172 0.990962C121.96 0.965251 122.749 1.11952 123.469 1.43662C124.069 1.71087 124.6 2.11368 125.02 2.61933C125.423 3.10784 125.723 3.67349 125.894 4.29055C126.074 4.89905 126.168 5.53326 126.168 6.16747C126.168 6.60455 126.1 7.04164 125.98 7.45302C125.851 7.88154 125.68 8.30149 125.449 8.68715C125.217 9.08139 124.934 9.44992 124.609 9.77559C124.283 10.1098 123.906 10.4012 123.495 10.6412L126.408 17.2918H122.389L119.929 11.284H117.607V17.2918H113.844V0.990962H121.181H121.172ZM117.598 7.99295H120.392C120.949 8.04438 121.498 7.84726 121.892 7.46159C122.2 7.10164 122.363 6.63884 122.355 6.16747C122.406 5.19901 121.669 4.37626 120.701 4.32484C120.598 4.32484 120.495 4.32484 120.383 4.33341H117.59V8.00152L117.598 7.99295Z" fill="#46474E"/>
<path d="M140.79 12.141C140.807 12.9552 140.635 13.7522 140.267 14.4807C139.932 15.1321 139.453 15.6977 138.87 16.1348C138.261 16.589 137.576 16.9233 136.839 17.129C136.05 17.3518 135.227 17.4632 134.405 17.4632C133.582 17.4632 132.768 17.3518 131.988 17.129C131.259 16.9233 130.565 16.589 129.957 16.1348C129.365 15.6977 128.885 15.1321 128.551 14.4807C128.191 13.7522 128.011 12.9466 128.028 12.141V6.0132C128.003 5.20758 128.2 4.40197 128.594 3.69063C128.962 3.05642 129.468 2.50792 130.068 2.0794C130.685 1.65088 131.379 1.32521 132.108 1.13666C132.853 0.930969 133.625 0.828125 134.396 0.828125C135.176 0.828125 135.947 0.93954 136.701 1.16237C137.439 1.36806 138.133 1.7023 138.758 2.14796C139.367 2.57648 139.864 3.14212 140.224 3.79347C140.61 4.51338 140.798 5.319 140.781 6.13318V12.141H140.79ZM137.027 6.83595C137.036 6.42458 136.959 6.0132 136.787 5.6361C136.65 5.33614 136.444 5.07046 136.187 4.8562C135.939 4.65908 135.656 4.50481 135.347 4.41911C135.047 4.32484 134.739 4.28198 134.422 4.27341C134.105 4.27341 133.788 4.32484 133.488 4.41911C133.179 4.51338 132.896 4.65908 132.648 4.8562C132.382 5.06189 132.176 5.33614 132.031 5.6361C131.859 6.0132 131.782 6.42458 131.791 6.83595V11.4468C131.773 11.8582 131.859 12.2696 132.031 12.6467C132.176 12.9466 132.382 13.2209 132.648 13.4266C132.896 13.6237 133.179 13.7694 133.488 13.8637C133.788 13.9579 134.105 14.0094 134.422 14.0094C134.739 14.0094 135.047 13.9579 135.347 13.8637C135.656 13.778 135.939 13.6237 136.187 13.4266C136.444 13.2123 136.65 12.9466 136.787 12.6467C136.959 12.2696 137.036 11.8582 137.027 11.4468V6.83595Z" fill="#46474E"/>
<path d="M155.745 14.455C155.393 15.1064 154.896 15.6806 154.305 16.1262C153.688 16.5805 153.002 16.9233 152.265 17.129C151.502 17.3518 150.714 17.4632 149.917 17.4632C149.12 17.4632 148.331 17.3604 147.569 17.1461C146.832 16.949 146.146 16.6233 145.529 16.1777C144.938 15.7491 144.441 15.1921 144.089 14.5493C143.712 13.8294 143.523 13.0323 143.549 12.2181V0.990962H147.312V11.4982C147.303 11.9096 147.38 12.321 147.552 12.6895C147.697 12.9895 147.903 13.2637 148.169 13.4694C148.417 13.6665 148.7 13.8122 149.009 13.9065C149.308 14.0008 149.626 14.0522 149.943 14.0522C150.26 14.0522 150.568 14.0008 150.868 13.9065C151.177 13.8208 151.46 13.6665 151.708 13.4694C151.965 13.2552 152.171 12.9895 152.308 12.6895C152.48 12.3124 152.557 11.9096 152.548 11.4982V0.990962H156.31V12.1153C156.328 12.9295 156.148 13.7351 155.771 14.455H155.745Z" fill="#46474E"/>
<path d="M166.286 0.990962C167.092 0.965251 167.889 1.11952 168.635 1.42805C169.243 1.69373 169.792 2.09654 170.22 2.60219C170.632 3.0907 170.932 3.64778 171.12 4.25627C171.309 4.87334 171.403 5.52469 171.403 6.17604C171.403 6.82738 171.291 7.47873 171.06 8.0958C170.589 9.36421 169.629 10.3841 168.395 10.924C167.692 11.224 166.929 11.3783 166.166 11.3611H162.918V17.3004H159.156V0.990962H166.286ZM162.91 8.01867H165.678C166.235 8.07866 166.792 7.88154 167.195 7.47873C167.495 7.11021 167.658 6.64741 167.64 6.17604C167.649 5.70467 167.495 5.24187 167.203 4.87334C166.801 4.47053 166.244 4.27341 165.678 4.33341H162.91V8.02724V8.01867Z" fill="#46474E"/>
<path d="M89.8509 25.8686C89.9366 25.8171 90.0051 25.7486 90.0651 25.6715C90.1337 25.5857 90.1851 25.4915 90.2194 25.3886C90.2622 25.2515 90.2965 25.1144 90.3137 24.9772C90.3394 24.8144 90.3565 24.6259 90.3651 24.403L90.4508 22.9375H92.9362V25.86H93.219V27.2655H92.6534V26.3828H90.1594V27.2655H89.5938V25.8771L89.8337 25.86L89.8509 25.8686ZM90.9822 23.4689L90.9393 24.3773C90.9307 24.6773 90.8964 24.9772 90.8536 25.2686C90.8193 25.4743 90.7508 25.68 90.6393 25.86H92.3534V23.4689H90.9822Z" fill="#46474E"/>
<path d="M94.8619 23.4759V24.4101C94.8619 24.7101 94.8362 25.01 94.7762 25.3014C94.7334 25.5071 94.6562 25.7042 94.5448 25.8842C94.4506 26.0299 94.3306 26.1584 94.1934 26.2527C94.0563 26.347 93.902 26.4241 93.7478 26.4927L93.5078 26.0127C93.6278 25.9613 93.7392 25.8928 93.8506 25.8242C93.9535 25.7556 94.0306 25.6614 94.0906 25.5585C94.1592 25.4214 94.2106 25.2671 94.2277 25.1129C94.262 24.8729 94.2791 24.6243 94.2706 24.3844V22.9531H96.6617V26.3984H96.0618V23.4845H94.8619V23.4759Z" fill="#46474E"/>
<path d="M97.3919 24.0002C97.3919 23.8545 97.4176 23.7174 97.469 23.5803C97.5205 23.4517 97.589 23.3403 97.6833 23.246C97.7776 23.1518 97.8976 23.0746 98.0175 23.0232C98.1547 22.9632 98.3089 22.9375 98.4632 22.9375H100.092V26.3828H99.4916V24.9601H98.746C98.6089 24.9601 98.4718 24.9944 98.3518 25.063C98.2147 25.1658 98.129 25.3115 98.1118 25.4743L97.9061 26.3828H97.2891L97.5119 25.4486C97.5462 25.3115 97.5976 25.1829 97.6662 25.063C97.7347 24.943 97.8376 24.8573 97.9661 24.823C97.7861 24.7716 97.6319 24.6601 97.529 24.5059C97.4348 24.3602 97.3833 24.1802 97.3833 24.0088L97.3919 24.0002ZM97.9661 23.9831C97.949 24.1288 98.0175 24.2659 98.1375 24.343C98.2661 24.4116 98.4118 24.4459 98.5575 24.4373H99.5002V23.4517H98.5403C98.3946 23.4517 98.2575 23.4946 98.1461 23.5803C98.0261 23.6746 97.9576 23.8203 97.9661 23.9745V23.9831Z" fill="#46474E"/>
<path d="M104.582 26.0491C104.368 26.1777 104.145 26.272 103.914 26.3491C103.76 26.392 103.605 26.4091 103.442 26.4177C103.151 26.4348 102.86 26.332 102.645 26.1348C102.44 25.9377 102.328 25.6635 102.345 25.3721C102.345 25.2007 102.388 25.0378 102.474 24.8921C102.56 24.7636 102.663 24.6607 102.791 24.575C102.92 24.4979 103.057 24.4379 103.203 24.4036C103.331 24.3694 103.46 24.3522 103.597 24.3522H104.608V24.0865C104.634 23.898 104.557 23.7009 104.402 23.5809C104.231 23.478 104.025 23.4266 103.828 23.4352C103.682 23.4352 103.528 23.4523 103.391 23.4866C103.194 23.5295 103.014 23.6237 102.868 23.7523L102.577 23.2981C102.774 23.1352 103.005 23.0238 103.254 22.9638C103.46 22.9124 103.674 22.8867 103.888 22.8867C104.248 22.861 104.608 22.9638 104.891 23.1866C105.122 23.4266 105.242 23.7609 105.217 24.0951V26.3748H104.685L104.617 26.0577L104.599 26.0406L104.582 26.0491ZM104.599 24.8493H103.691C103.614 24.8493 103.528 24.8493 103.451 24.8664C103.365 24.875 103.288 24.9007 103.211 24.935C103.134 24.9693 103.074 25.0293 103.031 25.0978C102.98 25.1835 102.954 25.2778 102.954 25.3807C102.945 25.5264 103.005 25.6635 103.125 25.7578C103.254 25.8435 103.408 25.8863 103.562 25.8863C103.657 25.8863 103.751 25.8692 103.837 25.852C103.931 25.8263 104.025 25.8006 104.111 25.7578C104.197 25.7235 104.282 25.6806 104.368 25.6378L104.599 25.5178V24.8664V24.8493Z" fill="#46474E"/>
<path d="M108.613 25.338C108.613 25.4665 108.587 25.5951 108.544 25.7151C108.501 25.8436 108.433 25.955 108.338 26.0493C108.244 26.1521 108.124 26.2378 107.996 26.2893C107.841 26.3493 107.679 26.3835 107.516 26.375H105.836V22.9297H107.499C107.661 22.9297 107.816 22.9554 107.961 23.0068C108.081 23.0497 108.193 23.1268 108.287 23.2125C108.373 23.2982 108.441 23.4011 108.476 23.5125C108.518 23.6239 108.536 23.7524 108.536 23.8724C108.536 24.0096 108.501 24.1381 108.441 24.2581C108.261 24.2581 108.116 24.4124 108.116 24.5923C108.116 24.7723 108.27 24.918 108.45 24.918C108.467 24.918 108.476 24.918 108.493 24.918C108.561 25.0466 108.596 25.1923 108.604 25.338H108.613ZM107.944 23.8896C107.953 23.761 107.893 23.6325 107.773 23.5639C107.661 23.4953 107.533 23.461 107.404 23.461H106.436V24.3095H107.439C107.567 24.3095 107.696 24.2752 107.807 24.1981C107.901 24.121 107.953 24.001 107.944 23.881V23.8896ZM108.004 25.338C108.004 25.2008 107.953 25.0637 107.841 24.978C107.739 24.8923 107.61 24.8494 107.473 24.8494H106.436V25.8522H107.413C107.576 25.8693 107.739 25.8179 107.867 25.7151C107.961 25.6122 108.013 25.4751 108.004 25.338Z" fill="#46474E"/>
<path d="M110.641 23.4689V26.3828H110.024V23.4689H108.961V22.9375H111.721V23.4689H110.649H110.641Z" fill="#46474E"/>
<path d="M114.986 25.1688C114.986 25.3488 114.952 25.5374 114.875 25.7002C114.797 25.8545 114.695 25.9916 114.557 26.0944C114.42 26.2058 114.266 26.283 114.103 26.3344C113.923 26.3944 113.743 26.4201 113.555 26.4201C113.366 26.4201 113.178 26.3944 112.998 26.3344C112.835 26.283 112.681 26.1973 112.552 26.0944C112.423 25.983 112.321 25.8545 112.252 25.7002C112.175 25.5374 112.141 25.3488 112.141 25.1688V24.1661C112.141 23.9861 112.175 23.7976 112.261 23.6347C112.338 23.4805 112.441 23.3519 112.569 23.2405C112.706 23.1291 112.852 23.0434 113.023 22.992C113.203 22.932 113.392 22.9062 113.58 22.9062C113.778 22.9062 113.966 22.932 114.155 22.992C114.317 23.0434 114.472 23.1291 114.609 23.2405C114.737 23.3519 114.84 23.4805 114.909 23.6347C114.977 23.8061 115.02 23.9861 115.012 24.1661V25.1688H114.986ZM114.386 24.2775C114.386 24.149 114.36 24.0204 114.309 23.9004C114.266 23.7976 114.198 23.7119 114.112 23.6433C114.035 23.5833 113.94 23.5319 113.846 23.5062C113.752 23.4805 113.658 23.4633 113.563 23.4633C113.46 23.4633 113.366 23.4805 113.272 23.5062C113.178 23.5319 113.083 23.5833 113.006 23.6433C112.921 23.7119 112.852 23.7976 112.809 23.9004C112.758 24.0204 112.732 24.149 112.732 24.2775V25.0488C112.732 25.1774 112.749 25.306 112.801 25.4259C112.843 25.5202 112.903 25.6059 112.981 25.6745C113.058 25.743 113.143 25.7859 113.246 25.8116C113.349 25.8373 113.46 25.8545 113.572 25.8545C113.666 25.8545 113.76 25.8373 113.855 25.8116C113.949 25.7859 114.043 25.7345 114.12 25.6745C114.206 25.6059 114.275 25.5202 114.317 25.4259C114.369 25.306 114.395 25.1774 114.395 25.0488V24.2775H114.386Z" fill="#46474E"/>
<path d="M118.517 24.2059L118.14 24.9173L117.592 25.8943H117.18L116.726 25.0801L116.298 24.2573H116.272V26.3828H115.672V22.9375H116.22L116.915 24.2488L117.395 25.1829L117.883 24.2573L118.603 22.9375H119.143V26.3828H118.543V24.2059H118.509H118.517Z" fill="#46474E"/>
<path d="M122.024 26.0491C121.809 26.1777 121.587 26.272 121.355 26.3491C121.201 26.392 121.047 26.4091 120.884 26.4177C120.592 26.4348 120.301 26.332 120.087 26.1348C119.881 25.9377 119.77 25.6635 119.787 25.3721C119.787 25.2007 119.83 25.0378 119.915 24.8921C120.001 24.7636 120.104 24.6607 120.233 24.575C120.361 24.4979 120.498 24.4379 120.644 24.4036C120.772 24.3694 120.901 24.3522 121.038 24.3522H122.049V24.0865C122.075 23.898 121.998 23.7094 121.844 23.5809C121.672 23.478 121.467 23.4266 121.27 23.4352C121.124 23.4352 120.97 23.4523 120.824 23.4866C120.627 23.5295 120.447 23.6237 120.301 23.7523L120.01 23.2981C120.207 23.1352 120.438 23.0238 120.687 22.9638C120.892 22.9124 121.107 22.8867 121.321 22.8867C121.681 22.861 122.041 22.9638 122.324 23.1866C122.555 23.4266 122.675 23.7609 122.649 24.0951V26.3748H122.127L122.058 26.0577L122.041 26.0406L122.024 26.0491ZM122.041 24.8493H121.132C121.055 24.8493 120.97 24.8493 120.892 24.8664C120.807 24.875 120.73 24.9007 120.652 24.935C120.575 24.9693 120.515 25.0293 120.464 25.0978C120.413 25.1835 120.387 25.2778 120.395 25.3807C120.387 25.5264 120.447 25.6635 120.567 25.7578C120.695 25.8435 120.85 25.8863 121.004 25.8863C121.098 25.8863 121.192 25.8692 121.278 25.852C121.372 25.8263 121.467 25.8006 121.552 25.7578C121.638 25.7235 121.724 25.6806 121.809 25.6378L122.041 25.5178V24.8664V24.8493Z" fill="#46474E"/>
<path d="M124.734 23.4689V26.3828H124.117V23.4689H123.055V22.9375H125.814V23.4689H124.743H124.734Z" fill="#46474E"/>
<path d="M126.848 25.4237L127.363 24.6352L128.52 22.9383H129.085V26.3835H128.468V23.8896H128.434L127.911 24.6866L126.771 26.375H126.223V22.9297H126.823V25.4151H126.857L126.848 25.4237Z" fill="#46474E"/>
<path d="M129.883 25.5724C130.011 25.6838 130.157 25.7609 130.311 25.8038C130.457 25.8552 130.611 25.8809 130.757 25.8809C130.885 25.8809 131.005 25.8724 131.134 25.8381C131.219 25.8124 131.305 25.7781 131.374 25.7181C131.434 25.6752 131.477 25.6152 131.511 25.5467C131.537 25.4867 131.554 25.4181 131.554 25.3581C131.554 25.2124 131.494 25.0753 131.365 24.9896C131.228 24.9039 131.065 24.8611 130.902 24.8611H130.431V24.364H130.92C131.074 24.3725 131.228 24.3297 131.348 24.2268C131.451 24.1411 131.502 24.0212 131.502 23.8926C131.502 23.7469 131.425 23.6183 131.297 23.5584C131.151 23.4898 130.997 23.4469 130.834 23.4555C130.688 23.4555 130.551 23.4727 130.414 23.5155C130.268 23.5584 130.131 23.6355 130.011 23.7383L129.643 23.327C129.805 23.1727 130.003 23.0613 130.217 22.9927C130.431 22.9241 130.654 22.8984 130.868 22.8984C131.048 22.8984 131.228 22.9241 131.391 22.9756C131.528 23.0184 131.657 23.087 131.768 23.1813C131.862 23.267 131.939 23.3698 131.991 23.4812C132.042 23.5926 132.068 23.7212 132.068 23.8497C132.068 23.9097 132.068 23.9697 132.051 24.0297C132.042 24.0983 132.017 24.1669 131.982 24.2354C131.948 24.3125 131.897 24.3725 131.837 24.4325C131.759 24.5011 131.674 24.5525 131.579 24.5868C131.674 24.6211 131.768 24.6811 131.845 24.7496C131.965 24.8611 132.051 25.0153 132.085 25.1782C132.094 25.2381 132.102 25.2981 132.102 25.3581C132.102 25.5038 132.077 25.6495 132.017 25.7781C131.957 25.9066 131.871 26.0181 131.768 26.1123C131.648 26.2152 131.502 26.2923 131.348 26.3352C131.16 26.3952 130.962 26.4209 130.765 26.4123C130.542 26.4123 130.32 26.378 130.097 26.318C129.874 26.2495 129.66 26.138 129.488 25.9752L129.857 25.5638L129.883 25.5724Z" fill="#46474E"/>
<path d="M134.887 26.0491C134.673 26.1777 134.45 26.272 134.219 26.3491C134.064 26.392 133.91 26.4091 133.747 26.4177C133.456 26.4348 133.164 26.332 132.95 26.1348C132.744 25.9377 132.633 25.6635 132.65 25.3721C132.65 25.2007 132.693 25.0378 132.779 24.8921C132.864 24.7636 132.967 24.6522 133.096 24.575C133.224 24.4979 133.362 24.4379 133.507 24.4036C133.636 24.3694 133.764 24.3522 133.901 24.3522H134.913V24.0865C134.938 23.898 134.861 23.7009 134.707 23.5809C134.536 23.478 134.33 23.4266 134.133 23.4352C133.987 23.4352 133.833 23.4523 133.696 23.4866C133.499 23.5295 133.319 23.6237 133.173 23.7523L132.882 23.2981C133.079 23.1352 133.31 23.0238 133.559 22.9638C133.764 22.9124 133.979 22.8867 134.193 22.8867C134.553 22.861 134.913 22.9638 135.196 23.1866C135.427 23.4266 135.547 23.7609 135.521 24.0951V26.3748H134.99L134.921 26.0577L134.896 26.0406L134.887 26.0491ZM134.904 24.8493H133.996C133.919 24.8493 133.833 24.8493 133.756 24.8664C133.67 24.875 133.593 24.9007 133.516 24.935C133.439 24.9693 133.379 25.0293 133.327 25.0978C133.276 25.1835 133.25 25.2778 133.25 25.3807C133.242 25.5264 133.302 25.6635 133.421 25.7578C133.55 25.8435 133.704 25.8863 133.859 25.8863C133.953 25.8863 134.047 25.8692 134.133 25.852C134.227 25.8263 134.321 25.792 134.407 25.7578C134.493 25.7235 134.579 25.6806 134.664 25.6378L134.896 25.5178V24.8664L134.904 24.8493Z" fill="#46474E"/>
<path d="M138.703 26.3835H136.234V22.9297H136.817V25.8522H138.403V22.9297H138.977V25.8608H139.26V27.2663H138.694V26.3835H138.703Z" fill="#46474E"/>
<path d="M140.426 25.4237L140.941 24.6352L142.098 22.9383H142.663V26.3835H142.046V23.8896H142.012L141.489 24.6866L140.349 26.375H139.801V22.9297H140.401V25.4151H140.426V25.4237Z" fill="#46474E"/>
<path d="M143.981 25.4237L144.495 24.6352L145.652 22.9383H146.218V26.3835H145.601V23.8896H145.567L145.044 24.6866L143.904 26.375H143.355V22.9297H143.955V25.4151H143.99L143.981 25.4237Z" fill="#46474E"/>
<path d="M149.235 23.4037C149.295 23.3437 149.363 23.2923 149.449 23.2494C149.526 23.2066 149.603 23.1723 149.689 23.1466C149.766 23.1208 149.835 23.1037 149.912 23.0951C150.332 23.0351 150.76 23.1551 151.095 23.4122C151.335 23.6608 151.455 24.0036 151.437 24.3464V25.1263C151.437 25.3149 151.403 25.4948 151.317 25.6662C151.24 25.8205 151.137 25.9662 151.009 26.0776C150.872 26.189 150.717 26.2747 150.555 26.3347C150.375 26.3947 150.195 26.4204 150.006 26.4204C149.629 26.4462 149.252 26.3176 148.961 26.0776C148.703 25.8377 148.566 25.4863 148.583 25.1349V24.1493C148.583 23.9436 148.592 23.7465 148.618 23.5408C148.635 23.3437 148.678 23.138 148.738 22.9494C148.798 22.7609 148.883 22.5895 148.995 22.4266C149.106 22.2638 149.261 22.1181 149.432 22.0153C149.586 21.921 149.749 21.8353 149.92 21.7753L150.426 21.5696L150.572 21.5096L150.692 21.4582L150.829 21.3982C150.88 21.3725 150.94 21.3468 151.017 21.3125L151.232 21.8096C151.095 21.8696 150.983 21.921 150.897 21.9553C150.812 21.9896 150.743 22.0153 150.683 22.041C150.623 22.0667 150.572 22.0838 150.529 22.101C150.486 22.1181 150.426 22.1353 150.366 22.1695C150.169 22.2552 150.006 22.3324 149.878 22.4009C149.758 22.4609 149.646 22.5466 149.552 22.6409C149.466 22.7266 149.398 22.838 149.346 22.9494C149.295 23.0951 149.261 23.2408 149.235 23.3865V23.4122V23.4037ZM150.837 24.4578C150.863 24.2264 150.777 23.995 150.615 23.8236C150.443 23.6951 150.229 23.6265 150.006 23.6436C149.903 23.6436 149.809 23.6608 149.715 23.6951C149.62 23.7293 149.526 23.7808 149.449 23.8408C149.363 23.9093 149.295 23.995 149.252 24.0979C149.201 24.2179 149.175 24.3464 149.175 24.4835V25.0406C149.175 25.1692 149.192 25.2977 149.243 25.4177C149.286 25.512 149.346 25.5977 149.423 25.6662C149.501 25.7348 149.586 25.7777 149.689 25.8034C149.792 25.8291 149.903 25.8462 150.015 25.8462C150.118 25.8462 150.22 25.8291 150.323 25.8034C150.418 25.7777 150.512 25.7262 150.589 25.6662C150.666 25.5977 150.735 25.512 150.777 25.4177C150.829 25.2977 150.855 25.1692 150.846 25.0406V24.4578H150.837Z" fill="#46474E"/>
<path d="M152.731 25.4237L153.245 24.6352L154.402 22.9383H154.968V26.3835H154.351V23.8896H154.317L153.794 24.6866L152.654 26.375H152.105V22.9297H152.705V25.4151H152.74L152.731 25.4237Z" fill="#46474E"/>
<path d="M155.765 25.5724C155.894 25.6838 156.04 25.7609 156.194 25.8038C156.34 25.8552 156.494 25.8809 156.64 25.8809C156.768 25.8809 156.888 25.8724 157.017 25.8381C157.102 25.8124 157.188 25.7781 157.257 25.7181C157.317 25.6752 157.359 25.6152 157.394 25.5467C157.419 25.4867 157.437 25.4181 157.437 25.3581C157.437 25.2124 157.377 25.0753 157.248 24.9896C157.111 24.9039 156.948 24.8611 156.785 24.8611H156.314V24.364H156.802C156.957 24.3725 157.111 24.3297 157.231 24.2268C157.334 24.1411 157.385 24.0212 157.385 23.8926C157.385 23.7469 157.308 23.6183 157.179 23.5584C157.034 23.4898 156.879 23.4469 156.717 23.4555C156.571 23.4555 156.434 23.4727 156.297 23.5155C156.151 23.5584 156.014 23.6355 155.894 23.7383L155.525 23.327C155.688 23.1727 155.885 23.0613 156.1 22.9927C156.314 22.9241 156.537 22.8984 156.751 22.8984C156.931 22.8984 157.111 22.9241 157.274 22.9756C157.411 23.0184 157.539 23.087 157.651 23.1813C157.745 23.267 157.822 23.3698 157.874 23.4812C157.925 23.5926 157.951 23.7212 157.951 23.8497C157.951 23.9097 157.951 23.9697 157.934 24.0297C157.925 24.0983 157.899 24.1669 157.865 24.2354C157.831 24.3125 157.779 24.3725 157.719 24.4325C157.642 24.5011 157.557 24.5525 157.462 24.5868C157.557 24.6211 157.651 24.6811 157.728 24.7496C157.797 24.8096 157.848 24.8782 157.891 24.9553C157.925 25.0239 157.951 25.0925 157.968 25.1696C157.976 25.2296 157.985 25.2896 157.985 25.3496C157.985 25.4953 157.959 25.641 157.899 25.7695C157.839 25.8981 157.754 26.0095 157.651 26.1038C157.531 26.2066 157.385 26.2837 157.231 26.3266C157.042 26.3866 156.845 26.4123 156.648 26.4037C156.425 26.4037 156.202 26.3694 155.98 26.3094C155.757 26.2409 155.543 26.1295 155.371 25.9666L155.74 25.5638L155.765 25.5724Z" fill="#46474E"/>
<path d="M160.855 26.3828V24.9173H159.209V26.3828H158.609V22.9375H159.209V24.3688H160.855V22.9375H161.455V26.3828H160.855Z" fill="#46474E"/>
<path d="M162.742 24.8845V25.1159C162.742 25.2359 162.76 25.3559 162.811 25.4673C162.854 25.5616 162.922 25.6387 163 25.7072C163.085 25.7672 163.179 25.8187 163.274 25.8444C163.377 25.8701 163.488 25.8872 163.599 25.8872C163.737 25.8872 163.874 25.8615 164.002 25.8187C164.174 25.7672 164.319 25.673 164.448 25.5444L164.825 25.9558C164.662 26.1272 164.465 26.2558 164.234 26.3329C164.019 26.4014 163.805 26.4357 163.582 26.4357C163.394 26.4357 163.205 26.41 163.025 26.3586C162.854 26.3072 162.7 26.23 162.562 26.1186C162.425 26.0158 162.322 25.8787 162.245 25.7244C162.168 25.553 162.125 25.3644 162.134 25.1759V24.2674C162.134 24.0789 162.168 23.8903 162.237 23.7104C162.297 23.5475 162.4 23.4018 162.528 23.2818C162.657 23.1618 162.802 23.0761 162.965 23.0161C163.145 22.9562 163.334 22.9219 163.522 22.9219C163.711 22.9219 163.908 22.9476 164.088 23.0161C164.251 23.0676 164.396 23.1618 164.525 23.2733C164.645 23.3847 164.748 23.5218 164.808 23.6846C164.876 23.856 164.911 24.036 164.911 24.2246V24.9016H162.734L162.742 24.8845ZM164.319 24.2674C164.319 24.1389 164.302 24.0189 164.259 23.8989C164.225 23.8046 164.165 23.7103 164.088 23.6418C164.019 23.5732 163.934 23.5218 163.839 23.4961C163.745 23.4618 163.642 23.4532 163.539 23.4532C163.437 23.4532 163.334 23.4704 163.239 23.5047C163.145 23.5389 163.059 23.5904 162.991 23.6504C162.914 23.7189 162.854 23.8046 162.82 23.8989C162.777 24.0103 162.751 24.1303 162.76 24.2503V24.4046H164.328V24.276L164.319 24.2674Z" fill="#46474E"/>
<path d="M166.861 22.8984C167.067 22.8984 167.273 22.9241 167.47 22.9756C167.684 23.0356 167.872 23.1555 168.027 23.327L167.675 23.7812C167.555 23.6612 167.41 23.5669 167.247 23.5155C167.135 23.4812 167.015 23.4641 166.895 23.4641C166.801 23.4641 166.707 23.4812 166.621 23.5069C166.527 23.5326 166.441 23.5841 166.364 23.6441C166.287 23.7126 166.218 23.7983 166.176 23.9012C166.124 24.0212 166.098 24.1497 166.107 24.2783V25.0496C166.107 25.1782 166.124 25.3067 166.176 25.4267C166.218 25.521 166.278 25.6067 166.356 25.6752C166.433 25.7438 166.518 25.7867 166.613 25.8124C166.707 25.8381 166.801 25.8552 166.904 25.8552C167.033 25.8552 167.153 25.8295 167.281 25.7952C167.427 25.7524 167.555 25.6752 167.658 25.5724L168.027 25.9923C167.881 26.1466 167.692 26.2666 167.487 26.3352C167.298 26.3952 167.093 26.4294 166.895 26.4294C166.707 26.4294 166.518 26.4037 166.338 26.3437C166.176 26.2923 166.03 26.2066 165.901 26.0952C165.781 25.9923 165.678 25.8552 165.618 25.7095C165.55 25.5553 165.516 25.3838 165.516 25.2124V24.1926C165.516 23.8326 165.661 23.4984 165.927 23.2584C166.056 23.147 166.201 23.0613 166.364 23.0013C166.527 22.9413 166.707 22.9156 166.878 22.9156L166.861 22.8984Z" fill="#46474E"/>
<path d="M170.668 26.0491C170.454 26.1777 170.231 26.272 170 26.3491C169.846 26.392 169.691 26.4091 169.528 26.4177C169.237 26.4348 168.946 26.332 168.731 26.1348C168.526 25.9377 168.414 25.6635 168.431 25.3721C168.431 25.2007 168.474 25.0378 168.56 24.8921C168.646 24.7636 168.749 24.6607 168.877 24.575C169.006 24.4979 169.143 24.4379 169.288 24.4036C169.417 24.3694 169.546 24.3522 169.683 24.3522H170.694V24.0865C170.72 23.898 170.643 23.7094 170.488 23.5809C170.317 23.478 170.111 23.4266 169.914 23.4352C169.768 23.4352 169.614 23.4523 169.468 23.4866C169.271 23.5295 169.091 23.6237 168.946 23.7523L168.654 23.2981C168.851 23.1352 169.083 23.0238 169.331 22.9638C169.537 22.9124 169.751 22.8867 169.966 22.8867C170.325 22.861 170.685 22.9638 170.968 23.1866C171.208 23.4266 171.328 23.7609 171.294 24.0951V26.3748H170.763L170.694 26.0577L170.668 26.0406V26.0491ZM170.685 24.8493H169.777C169.7 24.8493 169.614 24.8493 169.537 24.8664C169.451 24.875 169.374 24.9007 169.297 24.935C169.22 24.9693 169.16 25.0293 169.108 25.0978C169.057 25.1835 169.031 25.2778 169.031 25.3807C169.023 25.5264 169.083 25.6635 169.203 25.7578C169.331 25.8435 169.486 25.8863 169.64 25.8863C169.734 25.8863 169.828 25.8692 169.914 25.852C170.008 25.8263 170.103 25.8006 170.188 25.7578C170.274 25.7235 170.36 25.6806 170.445 25.6378L170.677 25.5178V24.8664L170.685 24.8493Z" fill="#46474E"/>
<path d="M83.8354 22.8984H0V26.378H83.8354V22.8984Z" fill="#46474E"/>
</g>
<defs>
<clipPath id="clip0_214_1143">
<rect width="171.407" height="26" fill="white" transform="translate(0 0.828125)"/>
</clipPath>
</defs>
</svg>
