<svg width="40" height="34" viewBox="0 0 40 34" fill="none" xmlns="http://www.w3.org/2000/svg">
<path id="&#226;&#128;&#156;" d="M9.57467 18.0221L9.51438 18.828H10.3226H10.4839C12.1865 18.828 13.5919 19.4951 14.7465 20.8802C15.9133 22.28 16.5081 23.9848 16.5081 26.039C16.5081 27.9404 15.8338 29.6435 14.4446 31.174L14.4434 31.1754C13.2142 32.5365 11.4975 33.25 9.19355 33.25C6.29147 33.25 4.23503 32.1877 2.88738 30.1091L2.26816 30.5105L2.88738 30.1091C1.46394 27.9135 0.75 25.4579 0.75 22.722C0.75 20.3682 1.11393 18.069 1.84248 15.8215L1.84255 15.8215L1.84552 15.8119C2.57933 13.4404 3.57266 11.2925 4.82286 9.3641C6.07827 7.4277 7.54104 5.70917 9.21132 4.20632C10.719 2.84975 12.3051 1.76177 13.9693 0.93732L16.8606 4.68598C14.815 6.37567 13.1713 8.21995 11.9416 10.2221C10.5788 12.4408 9.79714 15.0482 9.57467 18.0221ZM31.6714 18.0221L31.6111 18.828H32.4193H32.5806C34.2832 18.828 35.6887 19.4951 36.8433 20.8802C38.01 22.28 38.6048 23.9848 38.6048 26.039C38.6048 27.9404 37.9306 29.6435 36.5414 31.174L36.5401 31.1754C35.311 32.5365 33.5943 33.25 31.2903 33.25C28.3882 33.25 26.3318 32.1877 24.9842 30.1091C23.5607 27.9135 22.8468 25.4579 22.8468 22.722C22.8468 20.3682 23.2107 18.069 23.9393 15.8215L23.9393 15.8215L23.9423 15.8119C24.6761 13.4404 25.6694 11.2925 26.9196 9.3641C28.175 7.4277 29.6378 5.70917 31.3081 4.20632C32.8158 2.84975 34.4019 1.76176 36.0661 0.93732L38.9574 4.68598C36.9118 6.37567 35.2681 8.21995 34.0383 10.2221C32.6756 12.4408 31.8939 15.0482 31.6714 18.0221Z" stroke="#FFA469" stroke-width="1.5"/>
</svg>
