<svg width="24" height="24" viewBox="0 0 24 24" fill="none" xmlns="http://www.w3.org/2000/svg">
<g id="vuesax/outline/arrow-right">
<g id="arrow-right">
<path id="Vector" d="M14.4291 18.8211C14.2391 18.8211 14.0491 18.7511 13.8991 18.6011C13.6091 18.3111 13.6091 17.8311 13.8991 17.5411L19.4391 12.0011L13.8991 6.46109C13.6091 6.17109 13.6091 5.69109 13.8991 5.40109C14.1891 5.11109 14.6691 5.11109 14.9591 5.40109L21.0291 11.4711C21.3191 11.7611 21.3191 12.2411 21.0291 12.5311L14.9591 18.6011C14.8091 18.7511 14.6191 18.8211 14.4291 18.8211Z" fill="#46474E"/>
<path id="Vector_2" d="M20.33 12.75H3.5C3.09 12.75 2.75 12.41 2.75 12C2.75 11.59 3.09 11.25 3.5 11.25H20.33C20.74 11.25 21.08 11.59 21.08 12C21.08 12.41 20.74 12.75 20.33 12.75Z" fill="#46474E"/>
</g>
</g>
</svg>
