<svg width="64" height="64" viewBox="0 0 64 64" fill="none" xmlns="http://www.w3.org/2000/svg">
<g id="_&#208;&#161;&#208;&#187;&#208;&#190;&#208;&#185;_1" clip-path="url(#clip0_729_36647)">
<path id="Vector" d="M35.0969 0C35.8886 0.238333 36.7136 0.333333 37.5003 0.605C43.3274 2.625 46.4159 8.99 44.3808 14.8167C44.2096 15.3078 44.3941 15.5539 44.9341 15.555C46.0592 15.555 47.1842 15.5433 48.3093 15.5583C49.6461 15.5767 50.2611 16.1917 50.2811 17.515C50.2928 18.2233 50.2978 18.9317 50.2761 19.64C50.2561 20.3 49.9044 20.6667 49.3477 20.6667C48.791 20.6667 48.4393 20.2983 48.416 19.6417C48.396 19.0583 48.3943 18.475 48.4127 17.8917C48.4243 17.5367 48.286 17.42 47.9376 17.4233C46.4375 17.435 44.9374 17.4333 43.4374 17.4233C43.154 17.4217 42.9807 17.5317 42.819 17.7533C41.8706 19.05 40.6889 20.0883 39.2821 20.8633C39.0104 21.0133 38.8988 21.185 38.9004 21.4983C38.9138 23.1433 38.9154 24.79 38.9004 26.435C38.8971 26.8167 39.0288 26.9367 39.4055 26.935C42.239 26.9233 45.0725 26.9233 47.906 26.935C48.2793 26.935 48.426 26.8267 48.4143 26.44C48.391 25.7117 48.396 24.9817 48.4143 24.2533C48.431 23.59 48.771 23.2167 49.3227 23.205C49.8994 23.1917 50.2628 23.5767 50.2761 24.2717C50.2944 25.1883 50.3028 26.105 50.2744 27.0217C50.2394 28.1617 49.6027 28.7933 48.456 28.7983C45.2691 28.8133 42.0806 28.8133 38.8938 28.7983C37.6837 28.7933 37.057 28.155 37.0403 26.9283C37.0203 25.4917 37.0353 24.0533 37.0337 22.6167C37.0337 22.1067 36.7953 21.9039 36.3186 22.0083C34.7502 22.3533 33.1768 22.39 31.61 22.0367C31.155 21.935 31.0266 22.0717 30.9883 22.5C30.8766 23.75 30.5633 24.9583 30.1132 26.1283C29.8532 26.8033 29.3615 27.065 28.8115 26.84C28.3098 26.635 28.1231 26.11 28.3665 25.4667C28.8032 24.31 29.0449 23.1117 29.2015 21.89C29.2549 21.47 29.1632 21.2283 28.7482 21.0133C24.5796 18.855 22.2578 14.4383 22.8378 9.76167C22.9028 9.24 22.7378 8.99 22.3045 8.74C14.179 4.04333 3.59003 9.06667 2.08161 18.345C0.956547 25.2667 5.08512 31.8533 11.7338 33.7833C12.2772 33.9417 12.4139 33.8483 12.4072 33.2867C12.3822 31.1417 12.3789 28.995 12.4105 26.85C12.4189 26.305 12.2322 26.18 11.7322 26.21C11.1521 26.2433 10.5688 26.2433 9.98707 26.1517C8.07196 25.85 6.69522 24.11 6.86023 22.1817C7.02357 20.285 8.64033 18.7883 10.5438 18.775C12.4756 18.7633 14.1106 20.27 14.2457 22.2083C14.2823 22.7267 14.2973 23.2517 14.2623 23.77C14.229 24.2567 14.4207 24.39 14.8757 24.3533C15.3307 24.3183 15.7957 24.31 16.2491 24.355C16.7708 24.4083 16.8675 24.1833 16.8575 23.7167C16.8425 23.0333 16.7841 22.345 16.9458 21.6633C17.3758 19.86 19.1009 18.5917 20.876 18.7917C22.8128 19.0083 24.2229 20.5233 24.2546 22.4217C24.2862 24.3167 22.9545 25.8783 21.0794 26.1583C20.436 26.255 19.7893 26.2183 19.1459 26.2133C18.8259 26.2117 18.7143 26.3083 18.7159 26.6383C18.7276 28.93 18.7343 31.2217 18.7126 33.5133C18.7076 34.0433 18.9809 33.8967 19.2576 33.8167C21.9128 33.0583 24.1412 31.63 25.948 29.5433C26.043 29.4333 26.128 29.3133 26.228 29.2083C26.623 28.7933 27.1764 28.7367 27.5681 29.0633C27.9615 29.3917 28.0181 29.9483 27.6564 30.405C26.558 31.7883 25.253 32.945 23.7445 33.8633C23.4029 34.0717 23.2012 34.3267 23.0712 34.7033C22.6828 35.8233 22.2678 36.9333 21.8428 38.04C21.7244 38.3467 21.7444 38.4883 22.0744 38.6483C22.8245 39.0133 23.2478 39.6483 23.2645 40.49C23.2895 41.7817 23.3029 43.0733 23.2629 44.3633C23.2345 45.2783 22.7462 45.9483 21.8794 46.26C21.4861 46.4017 21.3827 46.6017 21.4027 46.985C21.4311 47.525 21.4244 48.0683 21.4027 48.61C21.3694 49.4617 21.0127 49.995 20.2427 50.185C19.8476 50.2833 19.821 50.4783 19.8393 50.7883C19.886 51.61 19.6926 52.3617 19.1426 52.9917C18.5592 53.66 17.8042 53.96 16.9275 53.9667C16.0741 53.9733 15.219 53.9717 14.3657 53.9667C12.4672 53.9583 11.3122 52.8417 11.2972 50.955C11.2938 50.5067 11.2271 50.2617 10.7321 50.125C10.0954 49.9483 9.76873 49.4283 9.72706 48.7617C9.70706 48.45 9.70539 48.1367 9.72206 47.825C9.7654 47.0383 9.8204 46.3433 8.80201 45.9967C8.13363 45.7683 7.86028 45.025 7.85195 44.29C7.83695 43.04 7.83362 41.79 7.85195 40.54C7.86362 39.7 8.25864 39.045 9.00368 38.6733C9.39037 38.4817 9.38704 38.3067 9.25036 37.9583C8.81201 36.835 8.40032 35.7017 8.00029 34.5633C7.89695 34.2683 7.73528 34.0733 7.47526 33.9067C2.76499 30.8917 0.256506 26.5867 0.0131588 21.0017C-0.308527 13.6233 5.3068 6.67 12.5806 5.375C16.2341 4.72333 19.7076 5.215 22.9795 6.99167C23.2678 7.14833 23.4295 7.24 23.6179 6.82167C25.3563 2.97667 28.3081 0.716667 32.4984 0.0966667C32.5751 0.085 32.6467 0.0333333 32.7201 0C33.5118 0 34.3035 0 35.0952 0L35.0969 0ZM43.1257 11.17C43.1407 6.05667 39.0088 1.88833 33.9118 1.875C28.8015 1.86167 24.6196 5.99667 24.5996 11.0833C24.5796 16.2283 28.7198 20.3933 33.8568 20.3983C38.9821 20.4033 43.1107 16.2933 43.1257 11.17ZM15.5907 40.26C13.8823 40.26 12.1739 40.2783 10.4654 40.25C9.9054 40.24 9.67372 40.3933 9.70206 40.99C9.74539 41.905 9.71206 42.8233 9.71373 43.74C9.71373 44.2833 9.99541 44.5561 10.5588 44.5583C11.6622 44.5633 12.7672 44.545 13.8706 44.585C14.4423 44.605 14.7674 44.995 14.764 45.5117C14.759 46.0283 14.419 46.38 13.8523 46.4233C13.5623 46.445 13.2689 46.4333 12.9772 46.4333C11.5722 46.4333 11.5988 46.4333 11.5738 47.8333C11.5638 48.3433 11.7588 48.3967 12.1872 48.3933C14.354 48.375 16.5208 48.39 18.6876 48.3817C19.606 48.3783 19.5243 48.5367 19.531 47.565C19.5376 46.465 19.5326 46.465 18.4176 46.4333C17.7042 46.4133 17.3158 46.1 17.3008 45.5317C17.2842 44.9383 17.6842 44.58 18.4226 44.565C19.2143 44.5483 20.006 44.5433 20.7977 44.565C21.2644 44.5783 21.4227 44.385 21.4144 43.9367C21.3961 42.9367 21.3911 41.9367 21.4161 40.9367C21.4294 40.4167 21.2277 40.2483 20.716 40.255C19.0076 40.2783 17.2992 40.2633 15.5907 40.2633V40.26ZM16.8441 30.3133C16.8441 29.1483 16.8158 27.9817 16.8575 26.8183C16.8758 26.305 16.6975 26.1733 16.2258 26.2117C15.7707 26.2483 15.3074 26.2517 14.854 26.2117C14.374 26.17 14.2573 26.355 14.2623 26.8117C14.2857 28.685 14.2723 30.5567 14.2723 32.43C14.2723 34.5133 14.2723 34.5033 16.4041 34.295C16.7475 34.2617 16.8575 34.1567 16.8525 33.8117C16.8325 32.6467 16.8458 31.4817 16.8458 30.3167L16.8441 30.3133ZM19.7943 24.345C20.1877 24.3317 20.5827 24.37 20.9727 24.2717C21.8578 24.0467 22.4195 23.2983 22.3745 22.39C22.3311 21.5083 21.6728 20.8 20.771 20.6667C19.9577 20.545 19.1259 21.0833 18.8243 21.905C18.6609 22.3517 18.7259 22.81 18.7209 23.2633C18.7109 24.3467 18.7176 24.3467 19.7926 24.3467L19.7943 24.345ZM12.4122 23.135C12.3922 22.8033 12.4039 22.4683 12.3489 22.1417C12.1772 21.1317 11.1471 20.4667 10.1671 20.7083C9.08702 20.975 8.48532 22.0267 8.82701 23.05C9.13702 23.9767 9.80206 24.3433 11.1821 24.3433C11.9922 24.3433 12.4022 23.9406 12.4122 23.135ZM15.6024 50.255C14.939 50.255 14.2757 50.25 13.6123 50.2583C13.4423 50.26 13.2473 50.195 13.1656 50.4633C12.8922 51.3533 13.3889 52.0783 14.3157 52.0917C15.0824 52.1033 15.8507 52.0967 16.6175 52.0933C17.6892 52.09 18.0092 51.73 17.9775 50.655C17.9675 50.3083 17.8342 50.2417 17.5325 50.25C16.8908 50.2667 16.2474 50.255 15.6041 50.255H15.6024ZM15.5124 36.2033C15.3707 36.1967 15.1357 36.2183 14.914 36.1717C14.3673 36.055 14.2523 36.2833 14.259 36.7967C14.279 38.3867 14.259 38.3867 15.8441 38.3867C16.5108 38.3867 16.8441 38.0661 16.8441 37.425C16.8441 36.6072 16.3997 36.2006 15.5107 36.205L15.5124 36.2033ZM20.831 35.365C19.421 35.5906 18.717 36.3639 18.7193 37.685C18.7193 37.7467 18.7076 37.8117 18.7209 37.8717C18.7643 38.0617 18.5826 38.3917 18.9743 38.3733C19.2893 38.3583 19.6826 38.5633 19.8527 38.05C20.1477 37.1683 20.486 36.3 20.8294 35.3633L20.831 35.365ZM10.2721 35.3167C10.6538 36.355 10.9705 37.2883 11.3472 38.1967C11.5005 38.5667 11.8972 38.3567 12.1805 38.3667C12.4656 38.3767 12.3905 38.1117 12.3939 37.9433C12.4039 37.3833 12.3872 36.8233 12.4022 36.265C12.4089 35.9933 12.3189 35.845 12.0472 35.78C11.5055 35.65 10.9688 35.4983 10.2754 35.3167H10.2721Z" fill="#65666D"/>
<path id="Vector_2" d="M43.6692 64.0039C43.5692 63.8656 43.4092 63.8956 43.2725 63.8622C40.254 63.1056 38.5239 60.0739 39.4089 57.0889C39.4556 56.9322 39.5023 56.7756 39.5556 56.6006C39.3806 56.4556 39.1889 56.5122 39.0172 56.5122C37.6422 56.5072 36.2687 56.5122 34.8937 56.5089C33.5553 56.5072 33.0119 55.9606 33.0069 54.6056C33.0019 53.2522 33.0002 51.8989 33.0069 50.5456C33.0136 49.2089 33.5736 48.6689 34.927 48.6822C36.5754 48.6972 37.9605 47.6806 38.3805 46.1472C38.7906 44.6506 38.1605 43.0672 36.8254 42.2589C36.2221 41.8939 35.5654 41.7456 34.8587 41.7572C33.5936 41.7789 33.0152 41.2139 33.0069 39.9572C32.9986 38.3956 32.9969 36.8339 33.0069 35.2722C33.0152 34.0939 33.6053 33.5056 34.772 33.4989C36.2721 33.4922 37.7705 33.4906 39.2706 33.4989C40.414 33.5056 41.0007 34.0806 41.0407 35.2122C41.1107 37.1389 42.5341 38.6056 44.3826 38.6506C46.336 38.6989 47.8111 37.3322 47.9611 35.3322C48.0644 33.9556 48.5561 33.4972 49.9362 33.4956C51.373 33.4939 52.8097 33.4889 54.2465 33.4956C55.4099 33.5022 56.0182 34.1039 56.0266 35.2672C56.0366 36.8456 56.0299 38.4256 56.0299 40.0472C58.7717 39.1922 61.0652 39.7472 62.652 42.1439C63.892 44.0139 63.8737 46.0456 62.6186 47.9022C61.0252 50.2606 58.7451 50.8039 56.0299 49.9539C56.0299 51.4922 56.0299 52.9872 56.0299 54.4839C56.0299 55.9689 55.4882 56.5056 53.9948 56.5056C52.4964 56.5056 50.9979 56.5056 49.4362 56.5056C49.8229 57.5789 49.9862 58.6456 49.7362 59.7189C49.2212 61.9272 47.8411 63.3156 45.6376 63.8772C45.521 63.9072 45.4093 63.9589 45.2943 64.0022H43.6692V64.0039ZM54.1548 38.4489C54.1548 37.5739 54.1398 36.6989 54.1615 35.8239C54.1698 35.4672 54.0531 35.3572 53.6998 35.3622C52.5964 35.3806 51.4913 35.3872 50.3879 35.3606C49.9662 35.3506 49.8345 35.4739 49.7845 35.9056C49.4345 38.9372 46.4243 41.0689 43.4458 40.4272C41.1574 39.9339 39.5756 38.2389 39.2106 35.8322C39.1539 35.4572 39.0489 35.3539 38.6822 35.3622C37.5572 35.3856 36.4321 35.3806 35.307 35.3656C34.9853 35.3606 34.8687 35.4589 34.872 35.7889C34.887 37.0172 34.8887 38.2472 34.872 39.4756C34.867 39.8156 35.0037 39.8856 35.312 39.8956C35.9621 39.9156 36.5871 40.0772 37.1821 40.3422C39.4539 41.3522 40.6873 43.6606 40.289 46.1656C39.919 48.4956 37.9155 50.3306 35.477 50.5206C34.9837 50.5589 34.8503 50.7239 34.867 51.1956C34.9003 52.1522 34.8937 53.1122 34.8687 54.0689C34.8587 54.4789 34.9403 54.6556 35.4054 54.6472C37.0505 54.6189 38.6972 54.6306 40.3423 54.6389C41.6757 54.6456 42.2474 55.6489 41.5841 56.7939C40.659 58.3906 40.9324 60.1689 42.2741 61.3122C43.5608 62.4072 45.4459 62.4022 46.7494 61.2989C48.0528 60.1972 48.3328 58.3822 47.4411 56.8256C46.7594 55.6356 47.3261 54.6422 48.6995 54.6372C50.3246 54.6306 51.9497 54.6172 53.5731 54.6472C54.0464 54.6556 54.1681 54.5189 54.1615 54.0539C54.1331 52.3672 54.1415 50.6789 54.1548 48.9922C54.1615 48.2056 54.6898 47.6639 55.4115 47.6322C55.8382 47.6139 56.1582 47.8556 56.5033 48.0422C57.82 48.7572 59.4051 48.5622 60.5085 47.5556C61.5769 46.5806 61.9236 45.0006 61.3602 43.6622C60.5252 41.6739 58.235 40.9656 56.2832 42.0906C55.1582 42.7389 54.1648 42.1822 54.1515 40.8872C54.1431 40.0756 54.1515 39.2622 54.1498 38.4506L54.1548 38.4489Z" fill="#65666D"/>
<path id="Vector_3" d="M39.9671 8.24723C39.9688 8.61057 39.8038 8.8439 39.6054 9.06723C37.657 11.2622 35.7135 13.4639 33.7601 15.6539C33.1301 16.3622 32.6217 16.3472 32.0017 15.6172C30.7082 14.0939 29.4215 12.5656 28.1381 11.0322C27.6547 10.4556 27.6464 9.93057 28.0864 9.54723C28.5381 9.15223 29.0915 9.26057 29.5898 9.85057C30.5849 11.0272 31.59 12.1939 32.5567 13.3939C32.855 13.7639 33 13.7139 33.2834 13.3889C34.8002 11.6456 36.3402 9.92223 37.8737 8.1939C38.067 7.97557 38.252 7.74557 38.477 7.56223C38.7771 7.31723 39.1254 7.29723 39.4704 7.48557C39.7888 7.6589 39.9505 7.93557 39.9655 8.24723H39.9671Z" fill="#65666D"/>
</g>
<defs>
<clipPath id="clip0_729_36647">
<rect width="64" height="64" fill="white"/>
</clipPath>
</defs>
</svg>
