<svg width="384" height="438" viewBox="0 0 384 438" fill="none" xmlns="http://www.w3.org/2000/svg">
<path d="M1129.2 119.422C1092.48 91.9643 1052.47 68.1292 1009.04 59.0728C950.219 46.8029 881.063 66.7573 851.021 125.249C816.446 192.596 802.491 254.408 726.478 281.165C672.88 300.034 601.642 292.516 558.599 249.051C533.054 223.262 514.311 190.573 491.311 162.053C436.15 93.6642 371.208 90.4926 310.934 149.676C282.135 177.94 249.686 210.409 210.724 206.19C159.637 200.667 123.949 133.581 72.7952 135.691C44.8473 136.841 22.2755 158.729 -0.372742 176.208C-54.3148 217.854 -93.9551 166.84 -147.09 187.98C-160.422 193.276 -170.837 204.715 -183.37 211.93C-196.317 219.375 -224.627 222.329 -225.262 199.406" stroke="#FFA469" stroke-linecap="round" stroke-linejoin="round"/>
<path d="M1122.2 102.395C1085.68 75.0587 1045.45 53.1959 1002.36 46.1107C971.441 40.9762 937.985 44.7582 909.06 58.0271C883.533 69.7631 861.424 88.8173 847.206 115.678C821.099 165.058 805.859 211.884 768.855 244.042C756.585 254.724 741.854 263.75 723.633 270.831C670.998 291.278 601.666 286.765 557.566 246.204C531.174 221.916 511.332 190.102 487.857 161.749C475.821 147.169 463.407 135.323 450.697 126.283C405.29 94.1076 357.721 100.84 307.734 140.734C291.904 153.367 275.789 169.353 258.981 182.406C237.133 199.321 212.231 209.926 185.571 207.156C137.366 201.973 102.946 140.408 54.4568 141.814C28.0038 142.603 6.40936 162.202 -15.1642 178.028C-66.2645 215.503 -104.084 169.399 -153.978 189.689C-166.524 194.803 -176.394 205.539 -188.167 212.531C-200.339 219.749 -226.443 222.978 -227.363 202.781" stroke="#FFA469" stroke-linecap="round" stroke-linejoin="round"/>
<path d="M1115.22 85.3613C1078.92 58.1424 1038.45 38.2706 995.683 33.1601C965.117 29.4133 932.387 34.3937 904.224 48.3182C879.334 60.6471 857.76 79.8331 843.401 106.133C817.184 154.269 801.038 200.428 764.836 232.902C752.78 243.749 738.39 253.004 720.797 260.522C669.149 282.574 601.659 281.066 556.557 243.381C529.29 220.601 508.368 189.672 484.431 161.483C472.333 147.154 459.915 135.23 447.256 125.895C402.431 93.0387 356.02 97.39 304.558 131.815C285.061 144.855 266.25 163.847 246.645 179.442C221.409 199.49 191.613 211.361 160.424 208.133C115.075 203.438 81.9599 147.228 36.1246 147.948C11.1813 148.372 -9.44705 165.702 -29.9496 179.86C-78.2044 213.177 -114.222 171.973 -160.857 191.425C-172.62 196.341 -181.937 206.403 -192.954 213.157C-204.332 220.159 -228.249 223.653 -229.444 206.164" stroke="#FFA469" stroke-linecap="round" stroke-linejoin="round"/>
<path d="M1108.24 68.3425C1072.14 41.2598 1031.44 23.4417 989.011 20.2248C958.781 17.9321 926.792 24.0444 899.373 38.6134C875.119 51.5354 854.093 70.8345 839.577 96.5769C813.25 143.469 796.198 188.962 760.798 221.751C748.956 232.764 734.895 242.265 717.954 250.185C667.284 273.874 601.61 275.331 555.525 240.532C527.368 219.265 505.392 189.199 480.964 161.18C468.789 147.106 456.408 135.079 443.77 125.455C399.597 91.8223 353.474 93.0859 301.356 122.856C277.997 136.212 256.666 158.289 234.3 176.45C205.682 199.644 171.002 212.701 135.284 209.077C92.8238 204.753 60.9659 154.019 17.7882 154.069C-5.66012 154.131 -25.2927 169.184 -44.7354 181.692C-90.1114 210.859 -124.345 174.544 -167.754 193.15C-178.72 197.865 -187.503 207.243 -197.756 213.788C-208.359 220.563 -230.07 224.332 -231.551 209.569" stroke="#FFA469" stroke-linecap="round" stroke-linejoin="round"/>
<path d="M1101.25 51.3094C1065.36 24.348 1024.44 8.53191 982.329 7.2751C952.452 6.38482 921.172 13.6845 894.526 28.8905C870.909 42.4055 850.418 61.8363 835.761 87.0177C809.31 132.669 791.362 177.478 756.753 210.601C745.111 221.784 731.398 231.542 715.108 239.863C665.424 265.219 601.537 269.648 554.49 237.698C525.432 217.962 502.35 188.803 477.509 160.889C465.249 147.103 452.905 134.972 440.3 125.042C396.719 90.7098 350.474 88.1888 298.154 113.927C270.773 127.403 247.102 152.772 221.942 173.491C189.936 199.817 150.362 214.078 110.111 210.044C70.5218 206.078 39.943 160.848 -0.569812 160.193C-22.5084 159.89 -41.1562 172.684 -59.5353 183.495C-102.029 208.527 -134.478 177.101 -174.651 194.842C-184.834 199.36 -193.069 208.05 -202.561 214.372C-212.389 220.919 -231.898 224.949 -233.665 212.912" stroke="#FFA469" stroke-linecap="round" stroke-linejoin="round"/>
<path d="M1094.25 34.2806C1058.58 7.43689 1017.43 -6.38834 975.627 -5.66659C946.1 -5.16924 915.547 3.32887 889.645 19.1793C866.667 33.3022 846.72 52.8314 831.895 77.4741C805.334 121.882 786.48 166.024 752.673 199.462C741.246 210.811 727.869 220.846 712.211 229.556C663.525 256.623 601.403 263.999 553.421 234.876C523.45 216.689 499.339 188.371 474.022 160.624C461.686 147.093 449.367 134.877 436.798 124.656C393.8 89.6424 347.198 82.846 294.922 105.025C263.385 118.403 237.487 147.27 209.567 170.555C174.178 200.028 129.72 215.475 84.9259 211.049C48.2178 207.423 18.9035 167.699 -18.9369 166.37C-39.3805 165.705 -57.0326 176.222 -74.3518 185.384C-113.93 206.288 -144.632 179.728 -181.56 196.635C-190.957 200.97 -198.643 208.971 -207.393 215.059C-216.446 221.38 -233.736 225.681 -235.788 216.37" stroke="#FFA469" stroke-linecap="round" stroke-linejoin="round"/>
<path d="M1087.27 17.2646C1051.79 -9.45769 1010.44 -21.2995 968.945 -18.614C939.769 -16.729 909.942 -7.03243 884.799 9.45878C862.458 24.1746 843.046 43.8355 828.08 67.9173C801.409 111.081 781.648 154.557 748.644 188.311C737.431 199.825 724.41 210.147 709.377 219.218C661.71 248.022 601.308 258.355 552.398 232.026C521.5 215.392 496.361 187.915 470.579 160.317C458.184 147.052 445.861 134.758 433.336 124.212C390.916 88.5028 346.674 88.4437 291.743 96.0608C254.05 101.289 227.945 141.719 197.231 167.562C158.441 200.17 109.114 216.799 59.7949 211.992C25.9647 208.692 -2.0667 174.486 -37.2532 172.471C-56.1871 171.44 -72.8361 179.71 -89.1213 187.182C-125.761 203.984 -154.754 182.269 -188.441 198.326C-197.055 202.463 -204.207 209.78 -212.179 215.655C-220.453 221.764 -235.541 226.327 -237.882 219.726" stroke="#FFA469" stroke-linecap="round" stroke-linejoin="round"/>
<path d="M1080.28 0.234269C1045.03 -26.3704 1003.43 -36.2361 962.269 -31.5609C933.443 -28.2883 904.342 -17.3933 879.961 -0.246596C858.257 15.0623 839.396 34.8511 824.274 58.3757C797.492 100.295 776.825 143.104 744.608 177.178C733.61 188.858 720.944 199.467 706.54 208.914C659.904 239.498 601.181 252.752 551.373 229.209C519.54 214.162 493.405 187.47 467.136 160.058C454.679 147.044 442.371 134.684 429.893 123.827C388.044 87.4558 342.561 80.8008 288.569 87.1603C246.928 92.0507 218.39 136.219 184.901 164.631C142.723 200.372 88.5094 218.172 34.6538 213.002C3.71614 210.024 -23.0618 181.343 -55.5759 178.653C-73.0149 177.261 -88.6274 183.291 -103.882 189.058C-137.543 201.795 -164.853 184.883 -195.299 200.091C-203.116 204.027 -209.73 210.674 -216.945 216.312C-224.444 222.193 -237.326 227.031 -239.939 223.153" stroke="#FFA469" stroke-linecap="round" stroke-linejoin="round"/>
<path d="M1073.29 -16.7964C1038.25 -43.2649 996.423 -51.1729 955.591 -44.5082C927.112 -39.8627 898.742 -27.7545 875.104 -9.96334C854.037 5.9386 835.708 25.8444 820.448 48.8227C793.556 89.4977 771.979 131.626 740.568 166.031C729.785 177.876 717.478 188.787 703.694 198.579C658.126 230.967 601.058 247.164 550.339 226.363C517.557 212.906 490.479 186.954 463.682 159.754C451.188 146.969 438.829 134.591 426.409 123.405C385.053 86.4384 338.557 72.5333 285.35 78.2077C239.776 83.0704 208.808 130.679 172.54 161.645C126.979 200.533 67.8851 219.47 9.49342 213.938C-18.5665 211.286 -44.0726 188.141 -73.9217 184.747C-89.851 182.989 -104.438 186.797 -118.681 190.848C-149.338 199.561 -174.989 187.413 -202.191 201.785C-209.225 205.524 -215.291 211.484 -221.746 216.897C-228.455 222.548 -239.146 227.665 -242.048 226.498" stroke="#FFA469" stroke-linecap="round" stroke-linejoin="round"/>
<path d="M1066.3 -33.8106C1031.46 -60.1578 989.398 -66.1857 948.918 -57.4428C920.774 -51.4687 893.145 -38.1031 870.266 -19.6711C849.835 -3.17616 832.057 16.8576 816.64 39.2787C789.624 78.7133 767.156 120.172 736.543 154.877C725.974 166.888 714.03 178.116 700.853 188.258C656.378 222.489 600.916 241.625 549.324 223.526C515.586 211.692 487.523 186.507 460.25 159.474C447.68 146.945 435.346 134.481 422.973 122.985C382.2 85.3373 334.781 63.7979 282.198 69.2678C232.691 74.4167 199.278 125.155 160.231 158.676C111.283 200.695 47.309 220.77 -15.6262 214.909C-40.7973 212.564 -65.0315 194.955 -92.223 190.89C-106.657 188.771 -120.193 190.398 -133.436 192.689C-161.065 197.465 -185.081 189.992 -209.056 203.519C-215.305 207.075 -220.825 212.331 -226.52 217.522C-232.45 222.96 -240.94 228.338 -244.127 229.896" stroke="#FFA469" stroke-linecap="round" stroke-linejoin="round"/>
<path d="M1059.32 -50.8485C1024.69 -77.078 982.398 -81.115 942.244 -70.3973C914.45 -63.0356 887.548 -48.4715 865.413 -29.3951C845.619 -12.3071 828.387 7.83987 812.818 29.7185C785.692 67.9089 762.317 108.701 732.51 143.737C722.156 155.914 710.589 167.455 698.019 177.945C654.678 214.058 600.788 236.126 548.302 220.702C513.629 210.517 484.556 186.059 456.807 159.193C444.174 146.914 431.84 134.388 419.515 122.582C379.323 84.2533 330.84 52.0224 279.009 60.3487C225.941 68.8772 189.721 119.633 147.899 155.723C95.5531 200.893 26.7325 221.925 -40.7532 215.893C-63.0429 213.826 -86.0126 201.786 -110.535 197.032C-123.46 194.547 -135.944 194.056 -148.201 194.527C-172.803 195.493 -195.199 192.573 -215.919 205.247C-221.37 208.601 -226.353 213.188 -231.287 218.155C-236.442 223.367 -242.726 229.02 -246.188 233.286" stroke="#FFA469" stroke-linecap="round" stroke-linejoin="round"/>
<path d="M1052.33 -67.8812C994.193 -111.98 912.93 -87.4775 860.558 -39.1138C808.186 9.24981 774.217 76.8204 728.454 132.576C682.687 188.317 615.836 234.259 547.252 217.843C495.603 205.49 455.628 161.171 416.014 122.147C376.401 83.1229 327.813 45.3754 275.777 51.3979C218.428 58.0236 180.112 114.098 135.511 152.743C79.7776 201.044 6.06967 223.247 -65.9521 216.853C-125.828 211.539 -207.605 160.468 -248.332 236.67" stroke="#FFA469" stroke-linecap="round" stroke-linejoin="round"/>
<path d="M1047.95 -77.879C983.746 -123.618 896.065 -96.9772 840.518 -43.0855C790.927 5.0316 757.86 70.3328 712.905 123.749C666.612 178.775 599.066 219.538 531.589 201.036C480.268 186.747 439.801 144.029 399.116 111.336C358.842 78.9645 313.003 48.5626 263.443 57.9803C209.116 68.3028 171.539 123.201 126.993 160.199C72.2031 205.703 0.711915 224.99 -69.0543 218.137C-127.469 212.329 -214.887 160.248 -251.192 238.913" stroke="#FFA469" stroke-linecap="round" stroke-linejoin="round"/>
<path d="M1043.58 -87.8725C973.306 -135.252 879.148 -106.583 820.471 -47.0492C773.486 0.629811 741.442 63.8201 697.338 114.949C650.486 169.252 582.212 205.079 515.908 184.256C464.853 168.22 424.149 126.99 382.197 100.538C341.443 74.8506 298.198 51.7395 251.086 64.5746C199.8 78.542 162.952 132.346 118.454 167.667C64.629 210.399 -4.66755 226.746 -72.1672 219.415C-129.102 213.123 -222.177 160.036 -254.066 241.136" stroke="#FFA469" stroke-linecap="round" stroke-linejoin="round"/>
<path d="M1039.2 -97.8746C962.857 -146.894 862.148 -116.305 800.434 -51.0104C755.936 -3.92801 725.033 57.3099 681.777 106.136C634.343 159.691 565.389 190.461 500.214 167.453C449.454 149.536 408.721 109.931 365.254 89.7342C324.26 70.6871 283.377 54.8782 238.707 71.164C190.487 88.7541 154.36 141.496 109.892 175.13C57.0499 215.101 -10.0706 228.496 -75.3147 220.706C-130.788 213.919 -229.505 159.823 -256.99 243.375" stroke="#FFA469" stroke-linecap="round" stroke-linejoin="round"/>
<path d="M1034.84 -107.871C952.429 -158.531 845.058 -126.15 780.398 -54.9773C738.277 -8.62056 708.584 50.7571 666.236 97.3285C618.202 150.124 548.609 175.811 484.559 150.666C434.091 130.854 393.571 92.7812 348.36 78.9285C307.37 66.3657 268.609 57.9668 226.366 77.7697C181.197 98.9236 145.84 150.671 101.353 182.613C49.5318 219.846 -15.4497 230.267 -78.4382 222.017C-132.446 214.75 -236.805 159.644 -259.871 245.646" stroke="#FFA469" stroke-linecap="round" stroke-linejoin="round"/>
<path d="M1030.46 -117.871C942 -170.174 827.848 -136.097 760.361 -58.9507C720.518 -13.4043 692.117 44.1867 650.676 88.5035C602.02 140.514 531.802 161.114 468.885 133.861C418.719 112.136 378.616 75.4025 331.451 68.1199C290.627 61.8122 253.818 61.023 214.02 84.3541C171.91 109.038 137.319 159.838 92.8246 190.071C42.0316 224.594 -20.8182 232.012 -81.5402 223.284C-134.083 215.538 -244.088 159.408 -262.735 247.858" stroke="#FFA469" stroke-linecap="round" stroke-linejoin="round"/>
<path d="M1026.08 -127.866C931.552 -181.81 810.505 -146.18 740.307 -62.9162C702.644 -18.25 675.613 37.6133 635.097 79.6865C585.797 130.886 515.003 146.402 453.189 117.05C403.351 93.3888 363.712 57.6845 314.502 57.2936C273.931 56.9674 238.975 64.0172 201.634 90.9208C162.568 119.076 128.765 169.018 84.2557 197.511C34.5277 229.348 -26.242 233.869 -84.694 224.552C-135.779 216.422 -251.418 159.186 -265.646 250.086" stroke="#FFA469" stroke-linecap="round" stroke-linejoin="round"/>
<path d="M1021.7 -137.863C921.103 -193.447 792.99 -156.379 720.269 -66.8722C684.743 -23.138 659.1 31.0087 619.554 70.8898C569.576 121.271 498.246 131.678 437.532 100.273C388 74.651 348.794 39.6695 297.61 46.5134C257.24 51.8994 224.161 67.0023 189.306 97.5336C153.243 129.124 120.31 178.28 75.7446 204.998C27.089 234.177 -31.5972 235.628 -87.7899 225.867C-137.413 217.242 -258.695 158.997 -268.519 252.349" stroke="#FFA469" stroke-linecap="round" stroke-linejoin="round"/>
<path d="M1017.33 -147.872C910.659 -205.096 775.288 -166.73 700.217 -70.851C666.734 -28.1037 642.555 24.3705 603.979 62.0596C553.297 111.582 481.472 116.916 421.843 83.4633C372.645 55.8721 334.734 26.1385 280.686 35.6997C239.567 42.9706 209.277 69.9315 176.945 104.113C143.844 139.101 111.826 187.524 67.2046 212.465C19.6474 239.027 -36.9594 237.269 -90.9147 227.162C-139.051 217.958 -265.996 158.803 -271.405 254.589" stroke="#FFA469" stroke-linecap="round" stroke-linejoin="round"/>
<path d="M1012.97 -157.875C900.23 -216.739 757.408 -177.215 680.195 -74.8284C648.72 -33.0903 626.017 17.7077 588.434 53.2305C537.022 101.854 464.735 102.123 406.183 66.6547C357.347 37.0722 318.343 2.82508 263.788 24.8724C223.369 41.1999 194.356 72.8475 164.596 110.682C134.428 149.075 103.383 196.813 58.6687 219.894C12.2211 243.883 -42.3356 238.984 -94.0207 228.415C-140.696 218.716 -273.282 158.551 -274.269 256.801" stroke="#FFA469" stroke-linecap="round" stroke-linejoin="round"/>
<path d="M1008.59 -167.875C889.78 -228.393 739.271 -187.84 660.142 -78.7979C630.617 -38.1019 609.426 11.0271 572.875 44.4205C520.69 92.0932 448.08 87.2298 390.507 49.8503C342.083 18.1694 302.766 -15.7631 246.862 14.0678C206.141 35.7948 179.37 75.7642 152.237 117.285C124.935 159.069 94.9375 206.166 50.116 227.389C4.80013 248.831 -47.7288 240.767 -97.162 229.723C-142.372 219.545 -280.586 158.366 -277.172 259.054" stroke="#FFA469" stroke-linecap="round" stroke-linejoin="round"/>
<path d="M1004.21 -177.865C879.35 -240.028 720.844 -198.617 640.108 -82.7473C612.473 -43.0934 592.832 4.34072 557.318 35.6195C504.318 82.3045 431.302 72.5344 374.836 33.0697C326.74 -0.54692 286.991 -34.3233 229.952 3.26858C188.778 30.4174 164.357 78.6973 139.891 123.879C115.426 169.061 86.5089 215.586 41.587 234.856C-2.597 253.814 -53.0982 242.522 -100.276 231.019C-144.024 220.346 -287.88 158.157 -280.062 261.298" stroke="#FFA469" stroke-linecap="round" stroke-linejoin="round"/>
<path d="M1027.18 -168.042C955.211 -203.294 869.264 -205.874 797.079 -176.518C742.144 -154.171 692.419 -117.593 655.004 -74.4968C646.012 -64.14 637.66 -53.3637 629.466 -42.7687C610.549 -18.2862 592.902 5.8756 567.875 23.2011C560.401 28.3699 552.603 32.631 544.474 35.955C494.214 56.4154 432.73 43.9227 382.782 13.9145C369.838 6.19012 357.419 -1.32135 345.191 -7.6405C310.704 -25.4879 277.502 -33.5157 235.92 -5.30614C207.412 14.1545 186.37 43.1617 167.749 74.2902C159.367 88.3088 151.481 102.736 143.617 116.938C118.41 162.48 89.4355 209.522 45.8979 231.787C33.868 237.886 21.3751 241.778 8.62768 244.164C-12.4187 248.079 -34.1912 247.75 -56.3232 245.25C-68.6876 243.864 -81.1133 241.49 -93.396 238.686C-112.079 234.42 -145.426 221.027 -178.133 213.031C-228.101 200.804 -278.966 199.951 -278.425 259.642" stroke="#FFA469" stroke-linecap="round" stroke-linejoin="round"/>
<path d="M1050.18 -158.212C977.71 -193.134 888.289 -196.596 816.531 -164.741C760.929 -140.059 710.312 -102.91 669.916 -66.2064C660.297 -57.4655 651.228 -48.6594 642.346 -40.1676C622.018 -20.7151 603.745 -2.01688 578.442 10.7931C570.909 14.6105 563.086 17.7158 554.918 19.9505C504.13 33.8392 442.132 20.6757 390.733 -5.24503C377.382 -11.9714 364.467 -18.2115 351.847 -23.348C316.559 -37.7114 282.795 -42.6139 241.894 -13.8852C213.239 6.24042 191.615 35.5518 172.366 66.9329C163.697 81.0556 155.501 95.6239 147.364 109.989C121.426 155.872 92.4458 203.576 50.2185 228.729C38.6262 235.628 26.5712 240.446 14.3175 243.979C-6.01908 249.835 -27.0402 251.86 -48.9537 251.22C-61.3897 250.858 -74.0062 249.034 -86.525 246.353C-106.482 242.079 -139.824 227.711 -171.931 218.606C-221.615 204.516 -273.156 200.615 -276.79 257.953" stroke="#FFA469" stroke-linecap="round" stroke-linejoin="round"/>
<path d="M1073.16 -148.381C1000.19 -182.974 907.308 -187.273 835.961 -152.978C779.7 -125.931 728.294 -88.2376 684.808 -57.9298C674.59 -50.8123 664.822 -43.9654 655.222 -37.5694C633.62 -23.1654 614.604 -9.90114 589.01 -1.60294C581.433 0.859321 573.571 2.81267 565.367 3.97288C514.01 11.253 451.467 -2.44841 398.689 -24.3778C384.915 -30.1025 371.549 -35.0823 358.507 -39.0288C322.462 -49.9193 288.13 -51.6004 247.872 -22.4375C219.086 -1.58778 196.868 27.9834 176.973 59.6061C168.005 73.8513 159.521 88.5237 151.104 103.085C124.44 149.325 95.4162 197.604 54.5325 225.716C43.3703 233.386 31.7607 239.159 20.0156 243.835C0.392493 251.647 -19.8993 256.063 -41.5576 257.243C-54.091 257.926 -66.8541 256.642 -79.6275 254.072C-100.844 249.786 -134.199 234.432 -165.714 224.251C-215.118 208.285 -267.327 201.365 -275.136 256.349" stroke="#FFA469" stroke-linecap="round" stroke-linejoin="round"/>
<path d="M1096.14 -138.544C1022.67 -172.807 926.349 -177.903 855.407 -141.198C798.494 -111.756 746.424 -73.5186 699.71 -49.6507C688.927 -44.1493 678.508 -39.258 668.096 -34.9649C645.355 -25.5656 625.492 -17.7719 599.555 -14.0039C591.935 -12.8967 584.03 -12.1101 575.794 -12.0097C523.839 -11.3934 460.755 -25.5552 406.609 -43.5117C392.416 -48.22 378.591 -51.9689 365.13 -54.7107C328.347 -62.18 293.431 -60.5733 253.814 -30.9909C224.911 -9.42088 202.08 20.3992 181.544 52.2782C172.288 66.6274 163.494 81.4409 154.804 96.1655C127.409 142.746 98.3497 191.569 58.8023 222.672C48.0703 231.113 36.9097 237.856 25.6547 243.665C6.7341 253.451 -12.8285 260.258 -34.2242 263.225C-46.8512 264.968 -59.7793 264.212 -72.7925 261.749C-95.2756 257.485 -128.629 241.079 -159.564 229.841C-208.676 211.979 -261.582 202.048 -273.552 254.674" stroke="#FFA469" stroke-linecap="round" stroke-linejoin="round"/>
<path d="M1119.12 -128.723C1045.15 -162.652 945.411 -168.519 874.847 -129.445C817.304 -97.5827 764.641 -58.7086 714.626 -41.3875C703.304 -37.4615 692.253 -34.5148 680.982 -32.3762C657.245 -27.86 636.405 -25.6141 610.133 -26.4094C602.473 -26.6426 594.502 -27.0487 586.249 -28.0117C533.665 -34.1147 470.075 -48.6667 414.575 -62.6541C399.949 -66.3422 385.691 -68.8826 371.804 -70.3863C334.305 -74.4714 298.802 -69.5289 259.806 -39.5381C230.79 -17.2329 207.347 12.836 186.161 44.9418C176.606 59.4136 167.51 74.3348 158.554 89.2521C130.418 136.193 101.319 185.543 63.1411 219.646C52.8392 228.857 42.1129 236.574 31.3665 243.527C13.1668 255.297 -5.67379 264.529 -26.8181 269.238C-39.5313 272.071 -52.6281 271.828 -65.87 269.455C-89.6198 265.212 -122.972 247.754 -153.307 235.469C-202.121 215.68 -255.713 202.781 -271.858 253.054" stroke="#FFA469" stroke-linecap="round" stroke-linejoin="round"/>
<path d="M1142.1 -118.9C1067.62 -152.514 964.482 -159.108 894.278 -117.674C836.102 -83.3442 782.908 -43.7709 729.513 -33.1183C717.671 -30.7569 705.988 -29.6919 693.855 -29.7854C669.15 -29.9714 647.308 -33.4394 620.693 -38.8277C612.997 -40.3865 604.968 -42.0183 596.705 -44.0152C543.508 -56.9039 479.386 -71.7612 422.539 -81.8128C407.479 -84.4807 392.784 -85.8274 378.472 -86.093C340.264 -86.8272 304.17 -78.5008 265.792 -48.1163C236.682 -25.065 212.618 5.2233 190.775 37.589C180.936 52.1797 171.538 67.2087 162.298 82.3076C133.435 129.604 104.263 179.476 67.4587 216.592C57.5685 226.563 47.3136 235.276 37.0535 243.347C19.5748 257.102 1.44876 268.791 -19.4332 275.225C-32.2436 279.165 -45.5128 279.421 -58.9836 277.138C-84.0001 272.916 -117.355 254.39 -147.105 241.063C-195.624 219.33 -249.917 203.468 -270.218 251.398" stroke="#FFA469" stroke-linecap="round" stroke-linejoin="round"/>
<path d="M1165.08 -109.059C1090.1 -142.343 983.569 -149.634 913.725 -105.905C854.945 -69.1139 801.185 -28.6752 744.421 -24.8351C732.05 -24.0049 719.713 -24.7847 706.733 -27.1768C680.984 -31.9356 658.198 -41.1953 631.263 -51.2134C623.515 -54.094 615.443 -56.9554 607.152 -59.9973C553.378 -79.7125 488.69 -94.8195 430.493 -100.95C415.003 -102.583 399.883 -102.754 385.13 -101.778C346.187 -99.202 309.543 -87.4549 271.768 -56.673C242.549 -32.8718 217.865 -2.36423 195.381 30.2578C185.239 44.9563 175.545 60.1226 166.036 75.3993C136.442 123.038 107.184 173.434 71.7672 213.56C62.3034 224.287 52.5197 233.996 42.7311 243.188C25.9809 258.958 8.58428 273.101 -12.0759 281.221C-24.9651 286.281 -38.4106 287.021 -52.1248 284.83C-78.4192 280.649 -111.736 261.03 -140.912 246.678C-189.11 222.98 -244.112 204.188 -268.592 249.75" stroke="#FFA469" stroke-linecap="round" stroke-linejoin="round"/>
<path d="M1188.07 -99.2388C1112.6 -132.193 1002.71 -140.16 933.169 -94.1528C873.797 -54.8568 819.407 -13.4898 759.322 -16.5841C746.401 -17.2482 733.381 -19.8654 719.605 -24.6005C692.734 -33.8654 669.052 -48.9759 641.822 -63.6461C634.027 -67.8338 625.926 -71.9286 617.592 -76.0117C563.264 -102.59 497.992 -117.895 438.44 -120.119C422.521 -120.717 406.952 -119.739 391.782 -117.496C352.111 -111.642 314.917 -96.4118 277.734 -65.2768C248.424 -40.7147 223.106 -9.98405 199.975 22.8795C189.55 37.6968 179.538 52.9747 169.76 68.4293C139.44 116.424 110.09 167.33 76.0799 210.477C67.0278 221.964 57.7153 232.669 48.4169 242.993C32.406 260.759 15.7353 277.404 -4.69586 287.178C-17.66 293.372 -31.2853 294.581 -45.2432 292.483C-72.8153 288.342 -106.101 267.6 -134.714 252.243C-182.585 226.546 -238.321 204.845 -266.972 248.069" stroke="#FFA469" stroke-linecap="round" stroke-linejoin="round"/>
<path d="M1211.05 -89.421C1135.07 -122.046 1021.82 -130.673 952.597 -82.388C892.65 -40.5759 837.539 1.78979 774.224 -8.30946C760.739 -10.464 747.009 -14.8964 732.475 -22.0152C704.379 -35.7601 679.889 -56.7439 652.383 -76.0551C644.537 -81.5647 636.403 -86.9075 628.034 -92.0023C573.195 -125.455 507.287 -140.914 446.375 -139.262C430.026 -138.824 414.009 -136.697 398.42 -133.186C358 -124.081 320.279 -105.341 283.69 -73.8383C254.305 -48.5191 228.333 -17.5764 204.561 15.5434C193.836 30.4833 183.541 45.88 173.479 61.5162C142.417 109.871 112.983 161.253 80.3721 207.455C71.7279 219.686 62.909 231.413 54.0932 242.84C38.8255 262.617 22.9101 281.757 2.67841 293.192C-10.3385 300.545 -24.1808 302.202 -38.3674 300.193C-67.1988 296.103 -100.458 274.224 -128.519 257.879C-176.047 230.18 -232.517 205.571 -265.343 246.441" stroke="#FFA469" stroke-linecap="round" stroke-linejoin="round"/>
<path d="M1234.04 -79.5839C1157.57 -111.879 1041.09 -121.023 972.061 -70.6225C911.651 -26.1654 855.626 17.122 789.146 -0.0450415C775.085 -3.67164 760.619 -9.95972 745.381 -19.4291C715.99 -37.6835 690.686 -64.4444 662.977 -88.4781C655.054 -95.2874 646.933 -101.889 638.52 -108.025C583.197 -148.375 516.665 -163.881 454.368 -158.44C437.586 -156.92 421.121 -153.705 405.122 -148.897C363.918 -136.549 325.747 -114.24 289.71 -82.4213C260.278 -56.2896 233.627 -25.1755 209.209 8.18596C198.196 23.2298 187.587 38.7528 177.256 54.5669C145.464 103.263 115.854 155.129 84.7198 204.381C76.4688 217.362 68.1766 230.117 59.8101 242.64C45.3411 264.461 30.1293 286.077 10.0897 299.144C-2.96525 307.653 -17.0317 309.791 -31.4545 307.841C-61.5635 303.853 -94.7773 280.785 -122.276 263.435C-169.439 233.697 -226.676 206.235 -263.662 244.748" stroke="#FFA469" stroke-linecap="round" stroke-linejoin="round"/>
<path d="M1257.02 -69.7601C1180.03 -101.721 1060.15 -111.626 991.487 -58.8518C917.603 -2.07392 849.852 51.0671 758.239 -16.8194C718.747 -46.0913 687.126 -91.6553 648.932 -124.003C578.096 -183.991 488.777 -193.147 411.759 -164.581C334.742 -136.016 268.904 -73.0565 213.808 0.852109C158.698 74.7645 113.142 159.958 65.5003 242.49C51.7671 266.292 37.355 290.454 17.4594 305.149C-23.6261 335.51 -76.5066 295.941 -116.085 269.062C-162.869 237.281 -220.877 206.952 -262.038 243.111" stroke="#FFA469" stroke-linecap="round" stroke-linejoin="round"/>
</svg>
