<svg width="384" height="300" viewBox="0 0 384 300" fill="none" xmlns="http://www.w3.org/2000/svg">
<path d="M749.382 198.125C728.679 157.474 702.233 120.099 666.692 94.7185C641.217 76.464 609.528 65.0892 577.716 64.2271C549.63 63.4894 521.38 70.8273 496.766 88.6533C451.542 121.438 417.198 156.727 369.799 169.248C354.073 173.416 336.871 175.013 317.395 173.323C261.14 168.436 200.921 133.782 179.254 77.9198C166.294 44.4765 162.534 7.17111 153.985 -28.6326C149.621 -47.0283 143.712 -63.1381 136.297 -76.86C109.756 -125.775 64.1013 -140.732 1.6378 -127C-18.1431 -122.653 -39.6595 -115.422 -60.503 -111.129C-87.5741 -105.595 -114.6 -107.072 -137.299 -121.326C-178.266 -147.255 -181.974 -217.692 -226.104 -237.835C-250.189 -248.803 -278.217 -240.749 -304.561 -236.072C-366.955 -225.003 -380.539 -283.066 -434.266 -286.885C-447.78 -287.834 -461.376 -282.557 -475.026 -281.481C-489.134 -280.377 -513.982 -289.002 -505.893 -307.531" stroke="#B9BABD" stroke-linecap="round" stroke-linejoin="round"/>
<path d="M750.631 179.754C730.071 139.305 702.535 103.613 666.415 80.1481C640.641 63.2933 609.075 53.3146 577.658 53.3772C549.881 53.4526 522.054 61.1451 497.561 78.4053C452.787 110.025 417.924 144.316 371.105 157.474C355.499 161.886 338.501 163.838 319.397 162.818C263.319 159.806 203.425 128.662 179.591 74.9374C165.179 42.4613 160.059 5.47326 151.024 -30.3873C146.494 -48.5851 140.615 -64.7661 133.376 -78.7306C107.658 -127.999 64.0933 -144.582 2.72056 -136.408C-20.5301 -133.314 -45.7926 -124.577 -70.269 -119.237C-101.762 -112.388 -133.738 -114.889 -160.299 -131.553C-198.919 -155.784 -203.82 -220.839 -245.266 -240.426C-267.835 -251.056 -293.994 -244.612 -318.641 -240.958C-376.647 -232.363 -390.777 -285.234 -441.208 -288.367C-453.934 -289.148 -466.736 -284.232 -479.602 -283.035C-492.903 -281.774 -515.906 -289.197 -509.258 -305.418" stroke="#B9BABD" stroke-linecap="round" stroke-linejoin="round"/>
<path d="M751.875 161.404C731.441 121.169 702.787 87.2155 666.133 65.5986C640.019 50.1968 608.618 41.5609 577.584 42.5302C550.117 43.4187 522.73 51.4542 498.342 68.1453C454.02 98.6002 418.637 131.894 372.399 145.689C356.912 150.344 340.101 152.662 321.403 152.29C265.481 151.179 205.909 123.497 179.918 71.9281C164.04 40.416 157.593 3.73679 148.042 -32.187C143.33 -50.1899 137.529 -66.4476 130.437 -80.6611C105.647 -130.339 63.7041 -149.565 3.79687 -145.858C-23.0589 -144.186 -51.9439 -133.792 -80.0296 -127.369C-115.947 -119.19 -152.829 -122.782 -183.279 -141.801C-219.47 -164.424 -225.661 -224.01 -264.426 -243.026C-285.493 -253.32 -309.754 -248.48 -332.722 -245.839C-386.313 -239.697 -401 -287.394 -448.164 -289.861C-460.085 -290.47 -472.106 -285.933 -484.195 -284.586C-496.699 -283.187 -517.845 -289.389 -512.657 -303.29" stroke="#B9BABD" stroke-linecap="round" stroke-linejoin="round"/>
<path d="M753.124 143.037C732.819 103.001 703.086 70.7476 665.856 51.0317C639.441 37.0445 608.151 29.7866 577.53 31.6688C550.372 33.3705 523.408 41.7606 499.141 57.8859C455.254 87.1727 419.37 119.457 373.694 133.901C358.312 138.796 341.699 141.499 323.409 141.774C267.635 142.594 208.354 118.367 180.243 68.931C162.881 38.3947 155.041 2.04148 145.073 -33.9712C140.158 -51.7527 134.436 -68.0871 127.509 -82.5613C103.559 -132.605 63.1765 -155.281 4.86857 -155.281C-25.6489 -155.276 -58.088 -142.962 -89.8098 -135.477C-130.149 -125.982 -171.954 -130.655 -206.291 -152.043C-240.064 -173.077 -247.536 -227.16 -283.599 -245.631C-303.151 -255.588 -325.531 -252.339 -346.795 -250.751C-395.974 -247.048 -411.219 -289.57 -455.096 -291.384C-466.228 -291.826 -477.453 -287.663 -488.761 -286.181C-500.47 -284.644 -519.755 -289.64 -516.026 -301.221" stroke="#B9BABD" stroke-linecap="round" stroke-linejoin="round"/>
<path d="M754.365 124.663C734.204 84.829 703.381 54.2582 665.557 36.4549C638.843 23.8675 607.676 18.0057 577.438 20.7945C550.586 23.3242 524.067 32.0424 499.887 47.6104C456.451 75.7323 420.047 107.018 374.952 122.1C359.689 127.238 343.257 130.338 325.361 131.242C269.727 134.038 210.729 113.233 180.531 65.921C161.666 36.3722 152.532 0.319223 142.063 -35.7535C136.966 -53.3402 131.305 -69.7395 124.539 -84.4595C101.413 -134.857 62.5968 -161.527 5.8995 -164.702C-28.3033 -166.619 -64.2847 -152.148 -99.616 -143.579C-144.38 -132.755 -191.091 -138.519 -229.331 -162.264C-260.669 -181.721 -269.437 -230.305 -302.804 -248.202C-320.855 -257.823 -341.337 -256.178 -360.921 -255.603C-405.662 -254.316 -421.488 -291.701 -462.086 -292.831C-472.431 -293.09 -482.86 -289.303 -493.399 -287.703C-504.312 -286.027 -521.725 -289.799 -519.456 -299.061" stroke="#B9BABD" stroke-linecap="round" stroke-linejoin="round"/>
<path d="M755.614 106.315C735.582 66.6793 703.698 37.7972 665.283 21.8917C638.271 10.704 607.227 6.2383 577.386 9.93692C550.844 13.2798 524.747 22.3526 500.688 37.3547C457.702 64.3117 420.78 94.5997 376.265 110.319C361.121 115.701 344.881 119.215 327.388 120.718C271.902 125.522 213.142 108.131 180.877 62.916C160.495 34.3515 150.067 -1.40118 139.115 -37.5456C133.848 -54.9195 128.218 -71.39 121.635 -86.3825C99.3339 -137.149 59.6622 -156.732 7.01023 -174.145C-29.1192 -186.092 -70.3898 -161.338 -109.357 -151.707C-158.558 -139.571 -210.159 -146.423 -252.291 -172.508C-281.19 -190.402 -291.243 -233.469 -321.927 -250.809C-338.461 -260.092 -357.051 -260.021 -374.962 -260.505C-415.255 -261.602 -431.685 -293.885 -469 -294.348C-478.556 -294.438 -488.204 -291.029 -497.95 -289.276C-508.071 -287.447 -523.623 -290.014 -522.81 -296.97" stroke="#B9BABD" stroke-linecap="round" stroke-linejoin="round"/>
<path d="M756.86 87.9482C736.971 48.5143 704.001 21.2998 665.003 7.32494C637.693 -2.46299 606.772 -5.53258 577.326 -0.909277C551.093 3.24671 525.434 12.6774 501.48 27.1105C458.945 52.9026 421.503 82.1927 377.554 98.5457C362.53 104.171 346.481 108.1 329.386 110.217C274.039 117.075 215.497 103.046 181.196 59.9341C159.275 32.3805 147.607 -3.10704 136.136 -39.2998C130.703 -56.4757 125.115 -72.9995 118.711 -88.2495C97.2153 -139.358 59.3415 -165.407 8.0873 -183.534C-31.4363 -197.528 -76.5404 -170.493 -119.132 -159.781C-172.755 -146.33 -229.258 -154.289 -275.3 -182.701C-301.746 -199.03 -313.113 -236.586 -341.101 -253.352C-356.134 -262.299 -372.805 -263.78 -389.039 -265.34C-424.866 -268.77 -441.905 -295.999 -475.937 -295.793C-484.689 -295.712 -493.558 -292.667 -502.521 -290.794C-511.846 -288.826 -525.54 -290.172 -526.172 -294.805" stroke="#B9BABD" stroke-linecap="round" stroke-linejoin="round"/>
<path d="M758.115 69.5775C738.352 30.3572 704.313 4.79854 664.732 -7.24564C637.127 -15.6487 606.326 -17.3073 577.263 -11.7774C551.34 -6.80828 526.106 2.96226 502.27 16.8443C460.185 41.4715 422.228 69.7488 378.856 86.7541C363.951 92.623 348.091 96.9808 331.401 99.6829C276.216 108.63 217.859 97.9712 181.531 56.9186C158.056 30.3727 145.215 -4.86675 133.177 -41.1025C127.61 -58.0889 121.984 -74.652 115.777 -90.1713C94.9869 -141.597 59.4041 -174.598 9.15671 -192.994C-33.884 -208.748 -82.6869 -179.699 -128.9 -167.923C-186.947 -153.141 -248.331 -162.234 -298.284 -192.973C-322.291 -207.739 -334.961 -239.766 -360.246 -255.988C-373.764 -264.596 -388.534 -267.619 -403.103 -270.271C-434.457 -275.986 -452.111 -298.209 -482.863 -297.32C-490.826 -297.071 -498.899 -294.401 -507.081 -292.392C-515.595 -290.284 -527.447 -290.411 -529.536 -292.74" stroke="#B9BABD" stroke-linecap="round" stroke-linejoin="round"/>
<path d="M759.349 51.2271C739.715 12.2055 704.637 -11.7685 664.455 -21.7927C636.564 -28.8556 605.873 -29.0586 577.208 -22.6189C551.594 -16.8366 526.798 -6.70819 503.068 6.60487C461.419 30.064 422.957 57.3465 380.169 74.9743C365.383 81.0865 349.709 85.8886 333.409 89.1719C278.391 100.256 220.177 92.9437 181.874 53.9298C156.824 28.4182 142.761 -6.56779 130.222 -42.8635C124.473 -59.6552 118.908 -76.2832 112.881 -92.06C92.9133 -143.84 59.873 -184.099 10.2755 -202.402C-36.4203 -219.636 -88.7988 -188.858 -138.633 -176.016C-201.102 -159.919 -267.367 -170.145 -321.251 -203.185C-342.802 -216.401 -356.774 -242.899 -379.379 -258.549C-391.395 -266.822 -404.259 -271.338 -417.153 -275.128C-444.053 -283.038 -462.304 -300.345 -489.788 -298.791C-496.964 -298.358 -504.238 -296.078 -511.639 -293.935C-519.361 -291.673 -529.353 -290.595 -532.901 -290.603" stroke="#B9BABD" stroke-linecap="round" stroke-linejoin="round"/>
<path d="M760.597 32.8568C741.107 -5.96286 704.939 -28.2545 664.178 -36.3628C635.989 -42.0259 605.421 -40.8329 577.138 -33.4865C551.834 -26.8912 527.479 -16.4198 503.85 -3.66088C462.652 18.6333 423.671 44.918 381.46 63.198C366.794 69.5536 351.32 74.8031 335.41 78.6676C280.58 91.9398 222.483 87.9528 182.196 50.9445C155.58 26.5003 140.289 -8.28024 127.249 -44.636C121.334 -61.2297 115.796 -77.9141 109.948 -93.9485C90.8035 -146.082 61.5265 -196.405 11.3434 -211.813C-40.0388 -227.586 -94.9435 -198.031 -148.402 -184.109C-215.311 -166.685 -286.347 -178.192 -344.24 -213.394C-363.328 -225.088 -378.624 -246.031 -398.529 -261.122C-409.03 -269.057 -420.015 -275.009 -431.221 -279.996C-453.723 -289.989 -472.529 -302.495 -496.716 -300.269C-503.088 -299.666 -509.584 -297.749 -516.204 -295.47C-523.13 -293.07 -531.264 -290.771 -536.254 -288.472" stroke="#B9BABD" stroke-linecap="round" stroke-linejoin="round"/>
<path d="M761.848 14.4885C729.147 -50.7453 645.414 -64.6306 577.071 -44.3523C508.729 -24.074 448.421 21.562 382.746 51.3906C317.074 81.2043 236.809 92.918 182.515 47.9132C141.624 14.0298 125.317 -43.3835 106.998 -95.886C88.6797 -148.388 61.7439 -203.708 12.3941 -221.273C-41.9896 -240.643 -101.124 -207.242 -158.203 -192.254C-229.534 -173.515 -305.472 -186.129 -367.275 -223.658C-418.656 -254.857 -469.49 -336.781 -539.672 -286.384" stroke="#B9BABD" stroke-linecap="round" stroke-linejoin="round"/>
<path d="M762.33 3.5879C724.907 -65.7961 634.472 -80.5957 560.841 -56.7586C495.102 -35.4742 436.606 8.52429 372.688 36.6102C306.86 65.55 228.257 72.3096 175.877 25.9224C136.135 -9.55319 118.681 -65.7477 96.6059 -113.042C74.7578 -159.867 47.0467 -207.381 -1.58126 -220.808C-54.885 -235.527 -112.836 -202.854 -169.139 -189.319C-238.389 -172.675 -311.052 -186.926 -370.628 -223.872C-420.479 -254.869 -475.93 -340.19 -543.23 -285.629" stroke="#B9BABD" stroke-linecap="round" stroke-linejoin="round"/>
<path d="M762.818 -7.31209C720.675 -80.8464 623.533 -96.6858 544.602 -69.1675C481.396 -47.1257 424.749 -4.57019 362.605 21.8388C296.594 49.8835 219.517 51.8933 169.214 3.94052C130.481 -32.9856 112.158 -87.9487 86.1908 -130.203C60.9613 -171.242 32.3597 -211.069 -15.5793 -220.348C-67.7639 -230.454 -124.578 -198.442 -180.097 -186.391C-247.258 -171.807 -316.653 -187.728 -373.985 -224.103C-422.294 -254.881 -482.377 -343.601 -546.79 -284.907" stroke="#B9BABD" stroke-linecap="round" stroke-linejoin="round"/>
<path d="M763.305 -18.2154C716.441 -95.8999 612.572 -112.908 528.373 -81.5616C467.663 -58.9569 412.901 -17.6499 352.534 7.06737C286.332 34.1839 210.877 31.3557 162.552 -18.0594C124.914 -56.5425 105.846 -110.061 75.7588 -147.371C47.383 -182.558 17.6772 -214.79 -29.5941 -219.895C-80.6266 -225.397 -136.325 -194.019 -191.073 -183.469C-256.132 -170.928 -322.272 -188.537 -377.376 -224.328C-424.157 -254.905 -488.856 -347.022 -550.4 -284.183" stroke="#B9BABD" stroke-linecap="round" stroke-linejoin="round"/>
<path d="M763.805 -29.1164C712.22 -110.951 601.583 -129.292 512.146 -93.9715C453.889 -70.9687 401.035 -30.7964 342.477 -7.7018C276.071 18.4686 202.287 10.7969 155.915 -40.039C119.375 -80.094 99.823 -132.143 65.3704 -164.53C34.1354 -193.897 3.06252 -218.543 -43.5836 -219.421C-93.4513 -220.379 -148.019 -189.554 -202.038 -180.53C-264.972 -169.996 -327.88 -189.329 -380.758 -224.537C-426.011 -254.898 -495.327 -350.41 -553.988 -283.424" stroke="#B9BABD" stroke-linecap="round" stroke-linejoin="round"/>
<path d="M764.292 -40.0154C708.002 -125.997 590.531 -145.81 495.921 -106.376C440.064 -83.0955 389.158 -43.9558 332.41 -22.4839C265.793 2.70737 193.693 -9.80462 149.268 -62.0315C113.844 -103.67 94.0746 -154.333 54.9687 -181.688C21.1212 -205.368 -11.5588 -222.325 -57.568 -218.958C-106.25 -215.397 -159.713 -185.083 -212.983 -177.597C-273.799 -169.04 -333.468 -190.128 -384.101 -224.764C-427.829 -254.908 -501.758 -353.832 -557.534 -282.697" stroke="#B9BABD" stroke-linecap="round" stroke-linejoin="round"/>
<path d="M764.778 -50.921C703.766 -141.053 579.423 -162.516 479.679 -118.791C426.168 -95.3372 377.254 -57.143 322.327 -37.2757C255.489 -13.0965 185.116 -30.4244 142.608 -84.0487C108.332 -127.279 88.5251 -176.814 44.5418 -198.887C8.28142 -217.089 -26.196 -226.194 -71.5779 -218.536C-119.061 -210.517 -171.437 -180.626 -223.953 -174.707C-282.627 -168.091 -339.152 -190.859 -387.488 -225.021C-429.738 -254.867 -508.235 -357.27 -561.127 -281.987" stroke="#B9BABD" stroke-linecap="round" stroke-linejoin="round"/>
<path d="M765.258 -61.8238C699.526 -156.106 568.208 -179.398 463.444 -131.184C412.261 -107.624 365.351 -70.3572 312.262 -52.0286C245.177 -28.8828 176.579 -51.0319 135.963 -106.012C102.828 -150.868 83.0905 -199.563 34.1419 -216.016C-4.45941 -229.003 -40.8085 -230.053 -85.5607 -218.043C-131.865 -205.617 -183.115 -176.046 -234.897 -171.745C-291.435 -167.041 -344.735 -191.644 -390.848 -225.207C-431.568 -254.851 -514.682 -360.651 -564.705 -281.223" stroke="#B9BABD" stroke-linecap="round" stroke-linejoin="round"/>
<path d="M765.747 -72.7407C695.293 -171.173 556.89 -196.504 447.206 -143.61C398.292 -120.033 353.432 -83.6217 302.181 -66.8317C234.844 -44.767 168.041 -71.6865 129.303 -128.026C97.3374 -174.5 76.4443 -217.915 23.7269 -233.194C-16.3787 -244.821 -55.4594 -234 -99.5586 -217.601C-144.705 -200.818 -194.81 -171.501 -245.858 -168.818C-300.256 -165.977 -350.273 -192.543 -394.226 -225.428C-433.356 -254.936 -521.151 -364.053 -568.286 -280.492" stroke="#B9BABD" stroke-linecap="round" stroke-linejoin="round"/>
<path d="M766.248 -83.6401C691.074 -186.223 545.473 -213.803 430.994 -156.015C384.327 -132.458 341.533 -96.8985 292.128 -81.6143C224.533 -60.6786 159.551 -92.347 122.67 -150.019C91.9075 -198.12 72.0267 -246.068 13.3423 -250.367C-30.133 -253.558 -70.1364 -237.968 -113.541 -217.155C-157.559 -196.022 -206.488 -166.891 -256.798 -165.919C-309.065 -164.897 -355.856 -193.375 -397.567 -225.674C-435.168 -254.98 -527.579 -367.493 -571.834 -279.769" stroke="#B9BABD" stroke-linecap="round" stroke-linejoin="round"/>
<path d="M766.734 -94.5368C686.842 -201.285 533.89 -231.334 414.754 -168.421C370.297 -144.937 329.595 -110.209 282.057 -96.3791C214.188 -76.6383 151.182 -113.054 116.022 -172.009C86.5564 -221.811 66.2557 -269.614 2.92508 -267.525C-43.2044 -266.004 -84.8695 -241.957 -127.544 -216.677C-170.487 -191.237 -218.193 -162.219 -267.78 -162.961C-317.907 -163.724 -361.481 -194.147 -400.963 -225.878C-437.037 -254.968 -534.05 -370.875 -575.432 -279.02" stroke="#B9BABD" stroke-linecap="round" stroke-linejoin="round"/>
<path d="M767.217 -105.442C682.619 -216.338 522.112 -249.148 398.521 -180.817C356.219 -157.435 317.656 -123.543 271.983 -111.153C203.818 -92.6581 142.614 -133.656 109.367 -193.993C81.0506 -245.388 60.2935 -293.241 -7.48129 -284.689C-56.4108 -278.503 -99.6362 -245.962 -141.534 -216.22C-183.431 -186.478 -229.915 -157.496 -278.73 -160.035C-326.745 -162.527 -367.074 -194.952 -404.329 -226.1C-438.873 -254.988 -540.503 -374.291 -579.016 -278.292" stroke="#B9BABD" stroke-linecap="round" stroke-linejoin="round"/>
<path d="M783.498 -86.4816C734.478 -149.884 658.496 -190.138 580.766 -195.661C521.609 -199.859 460.844 -188.987 408.248 -166.833C395.608 -161.509 383.357 -155.526 371.328 -149.636C343.546 -136.019 317.046 -122.128 286.941 -117.63C277.953 -116.291 269.075 -115.91 260.314 -116.516C206.184 -120.342 156.529 -158.693 124.957 -207.667C116.752 -220.312 108.924 -232.534 100.741 -243.602C77.6744 -274.84 51.426 -296.7 1.66257 -289.742C-32.5086 -284.865 -64.1935 -268.125 -94.6434 -248.413C-108.352 -239.534 -121.797 -230.07 -135.122 -220.798C-177.844 -191.06 -224.609 -161.639 -273.503 -160.879C-286.99 -160.717 -299.918 -162.74 -312.409 -166.226C-333.022 -172.003 -352.413 -181.91 -371.169 -193.922C-381.652 -200.624 -391.753 -208.24 -401.537 -216.177C-416.418 -228.252 -440.428 -254.989 -466.246 -276.602C-505.684 -309.631 -550.95 -332.849 -576.814 -279.049" stroke="#B9BABD" stroke-linecap="round" stroke-linejoin="round"/>
<path d="M799.789 -67.5085C750.178 -130.834 671.468 -173.413 593.018 -176.506C532.231 -178.902 470.414 -167.913 417.965 -152.81C405.475 -149.213 393.45 -145.315 381.732 -141.616C354.905 -133.134 330.255 -124.422 301.896 -124.097C293.452 -123.997 285.062 -124.664 276.746 -126.265C225.043 -136.221 175.223 -175.401 140.545 -221.348C131.534 -233.277 122.7 -244.577 113.643 -254.757C88.3196 -283.222 60.1877 -302.525 10.8059 -294.802C-23.79 -289.392 -56.1323 -272.637 -87.2565 -252.975C-101.27 -244.13 -115.055 -234.676 -128.697 -225.378C-172.225 -195.656 -219.286 -165.645 -268.28 -161.715C-281.728 -160.641 -294.671 -161.64 -307.226 -163.879C-328.059 -167.601 -347.815 -175.064 -367.196 -185.311C-378.194 -191.125 -388.71 -198.331 -398.76 -206.263C-414.78 -218.908 -438.356 -246.518 -463.146 -268.861C-501.508 -303.435 -546.034 -329.687 -574.605 -279.842" stroke="#B9BABD" stroke-linecap="round" stroke-linejoin="round"/>
<path d="M816.072 -48.5499C765.867 -111.8 684.42 -156.658 605.263 -157.38C542.841 -157.945 480.075 -146.815 427.676 -138.816C415.366 -136.94 403.579 -135.108 392.142 -133.606C366.4 -130.218 343.481 -126.71 316.853 -130.562C308.968 -131.697 301.051 -133.415 293.177 -135.995C243.881 -152.133 193.81 -192.035 156.132 -235.01C146.3 -246.227 136.505 -256.595 126.544 -265.893C99.0083 -291.577 68.9439 -308.24 19.948 -299.843C-15.0854 -293.841 -48.0755 -277.115 -79.8857 -257.522C-94.2212 -248.699 -108.31 -239.278 -122.291 -229.928C-166.628 -200.207 -213.983 -169.698 -263.077 -162.52C-276.478 -160.565 -289.444 -160.51 -302.047 -161.498C-323.103 -163.151 -343.26 -168.146 -363.215 -176.647C-374.763 -181.567 -385.648 -188.354 -395.975 -196.298C-413.121 -209.509 -436.273 -238.01 -460.057 -261.057C-497.339 -297.191 -541.131 -326.447 -572.41 -280.557" stroke="#B9BABD" stroke-linecap="round" stroke-linejoin="round"/>
<path d="M832.345 -29.579C781.548 -92.7525 697.37 -139.843 617.511 -138.224C553.446 -136.929 489.845 -125.603 437.393 -124.807C425.289 -124.63 413.781 -124.841 402.543 -125.585C377.989 -127.189 356.725 -128.964 331.789 -137.032C324.463 -139.402 317.022 -142.186 309.588 -145.731C262.696 -168.113 212.343 -208.667 171.684 -248.681C161.027 -259.17 150.277 -268.637 139.409 -277.039C109.701 -299.978 77.6612 -313.949 29.0543 -304.893C-6.40167 -298.297 -40.0511 -281.617 -72.5506 -262.078C-87.1903 -253.288 -101.62 -243.878 -115.917 -234.501C-161.061 -204.797 -208.687 -173.816 -257.903 -163.364C-271.258 -160.528 -284.249 -159.404 -296.913 -159.16C-318.21 -158.731 -338.768 -161.259 -359.276 -168.041C-371.376 -172.051 -382.642 -178.436 -393.232 -186.39C-411.524 -200.141 -434.21 -229.585 -457.006 -253.325C-493.19 -291.031 -536.279 -323.296 -570.25 -281.358" stroke="#B9BABD" stroke-linecap="round" stroke-linejoin="round"/>
<path d="M848.641 -10.6236C797.237 -73.724 710.335 -123.014 629.77 -119.101C564.072 -115.912 499.657 -104.277 447.133 -110.813C435.24 -112.288 424.024 -114.522 412.966 -117.579C389.673 -124.004 369.982 -131.188 346.76 -143.499C339.989 -147.09 333.016 -150.973 326.036 -155.48C281.547 -184.168 230.911 -225.295 187.285 -262.346C175.789 -272.111 164.117 -280.685 152.32 -288.164C120.475 -308.382 86.4368 -319.619 38.2071 -309.922C2.32541 -302.716 -31.9835 -286.084 -65.1659 -266.628C-80.1278 -257.86 -94.8764 -248.486 -109.497 -239.054C-155.465 -209.355 -203.36 -177.917 -252.67 -164.17C-265.98 -160.452 -279.011 -158.262 -291.723 -156.768C-313.249 -154.24 -334.23 -154.273 -355.282 -159.381C-367.94 -162.451 -379.584 -168.45 -390.419 -176.425C-409.856 -190.715 -432.077 -221.104 -453.873 -245.517C-488.938 -284.822 -531.333 -320.053 -568.011 -282.07" stroke="#B9BABD" stroke-linecap="round" stroke-linejoin="round"/>
<path d="M864.922 8.33359C812.93 -54.7056 723.295 -106.15 642.011 -99.9616C574.656 -94.8376 509.457 -82.8094 456.843 -96.8208C445.174 -99.9295 434.221 -104.131 423.376 -109.571C401.29 -120.643 383.222 -133.396 361.719 -149.98C355.501 -154.776 349.017 -159.784 342.485 -165.223C300.44 -200.271 249.462 -241.908 202.89 -276.021C190.555 -285.062 177.963 -292.757 165.238 -299.313C131.278 -316.838 95.2158 -325.3 47.3666 -314.977C11.0709 -307.143 -23.8911 -290.587 -57.7776 -271.187C-73.047 -262.439 -88.1146 -253.102 -103.07 -243.632C-149.847 -213.934 -198.037 -182.061 -247.446 -165.003C-260.722 -160.422 -273.77 -157.131 -286.539 -154.418C-308.294 -149.791 -329.718 -147.304 -351.296 -150.749C-364.53 -152.868 -376.549 -158.495 -387.629 -166.491C-408.212 -181.322 -429.964 -212.668 -450.775 -237.759C-484.718 -278.678 -526.433 -316.877 -565.807 -282.831" stroke="#B9BABD" stroke-linecap="round" stroke-linejoin="round"/>
<path d="M881.2 27.313C828.615 -35.65 736.241 -89.2192 654.267 -80.8118C585.283 -73.7463 519.193 -61.1918 466.564 -82.8031C455.097 -87.5188 444.372 -93.6645 433.781 -101.54C412.777 -117.177 396.418 -135.544 376.672 -156.423C370.991 -162.428 365.011 -168.559 358.914 -174.948C319.366 -216.375 267.99 -258.486 218.476 -289.677C205.298 -297.979 191.806 -304.808 178.138 -310.444C142.057 -325.323 103.991 -330.958 56.5072 -320.012C19.7825 -311.553 -15.8326 -295.075 -50.4084 -275.728C-65.9968 -267.016 -81.3899 -257.687 -96.6658 -248.176C-144.249 -218.494 -192.749 -186.189 -242.241 -165.818C-255.468 -160.37 -268.532 -155.977 -281.373 -152.05C-303.364 -145.294 -325.217 -140.282 -347.34 -142.116C-361.139 -143.265 -373.531 -148.536 -384.869 -156.556C-406.617 -171.915 -427.852 -204.226 -447.696 -229.983C-480.484 -272.523 -521.541 -313.664 -563.619 -283.587" stroke="#B9BABD" stroke-linecap="round" stroke-linejoin="round"/>
<path d="M897.488 46.2691C844.311 -16.6177 749.221 -72.2754 666.518 -61.6883C595.897 -52.6366 528.833 -39.527 476.284 -68.8267C464.984 -75.1259 454.455 -83.2221 444.185 -93.5517C424.164 -113.727 409.584 -137.739 391.626 -162.923C386.48 -170.121 381.019 -177.371 375.343 -184.714C338.327 -232.545 286.514 -275.091 234.061 -303.374C220.04 -310.938 205.639 -316.932 191.036 -321.616C152.856 -333.875 112.759 -336.627 65.6501 -325.103C28.5083 -316.002 -7.7749 -299.603 -43.0367 -280.325C-58.9326 -271.632 -74.6596 -262.342 -90.2556 -252.791C-138.648 -223.11 -187.455 -190.388 -237.018 -166.685C-250.211 -160.374 -263.293 -154.879 -276.193 -149.72C-298.402 -140.846 -320.708 -133.269 -343.356 -133.518C-357.722 -133.683 -370.483 -138.612 -382.081 -146.656C-404.993 -162.543 -425.705 -195.848 -444.6 -222.259C-476.211 -266.447 -516.644 -310.523 -561.432 -284.385" stroke="#B9BABD" stroke-linecap="round" stroke-linejoin="round"/>
<path d="M913.773 65.2289C860.003 2.41827 762.195 -55.3131 678.762 -42.5462C606.515 -31.4904 538.363 -17.8032 486.009 -54.8136C474.86 -62.6996 464.496 -72.7377 454.597 -85.5411C435.454 -110.277 422.742 -139.916 406.585 -169.386C401.977 -177.793 397.038 -186.177 391.777 -194.443C357.337 -248.668 305.022 -291.632 249.635 -317.038C234.772 -323.862 219.462 -329.024 203.924 -332.754C163.636 -342.427 121.516 -342.263 74.7796 -330.146C37.2355 -320.399 0.272629 -304.099 -35.6785 -284.874C-51.8966 -276.203 -67.9311 -266.932 -83.862 -257.343C-133.079 -227.666 -182.171 -194.554 -231.827 -167.493C-244.983 -160.333 -258.072 -153.703 -271.027 -147.341C-293.457 -136.335 -316.186 -126.187 -339.388 -124.856C-354.314 -124.005 -367.466 -128.628 -379.309 -136.693C-403.374 -153.09 -423.559 -187.404 -441.523 -214.457C-471.943 -260.291 -511.751 -307.299 -559.246 -285.117" stroke="#B9BABD" stroke-linecap="round" stroke-linejoin="round"/>
<path d="M930.06 84.1997C875.698 21.4653 775.211 -38.1601 691.028 -23.405C617.197 -10.1801 547.818 3.93069 495.743 -40.8193C484.727 -50.2803 474.523 -62.3082 465.03 -77.5313C446.715 -106.885 435.823 -142.067 421.569 -175.864C417.466 -185.471 413.092 -194.98 408.253 -204.2C376.422 -264.827 323.568 -308.109 265.267 -330.726C249.538 -336.77 233.345 -341.154 216.866 -343.902C174.443 -351.01 130.345 -347.842 83.9632 -335.199C46.019 -324.743 8.37096 -308.588 -28.2662 -289.432C-44.7885 -280.794 -61.1601 -271.549 -77.4111 -261.919C-127.434 -232.259 -176.898 -198.789 -226.576 -168.339C-239.709 -160.334 -252.78 -152.549 -265.816 -145.005C-288.431 -131.812 -311.622 -119.131 -335.372 -116.252C-350.842 -114.38 -364.407 -118.671 -376.488 -126.787C-401.745 -143.656 -421.365 -179.016 -438.38 -206.723C-467.573 -254.226 -506.809 -304.133 -556.997 -285.903" stroke="#B9BABD" stroke-linecap="round" stroke-linejoin="round"/>
<path d="M946.339 103.164C891.369 40.5024 788.17 -21.3041 703.266 -4.25863C611.906 14.0735 527.655 31.8498 475.418 -69.5048C452.904 -113.203 444.643 -168.046 424.65 -213.931C387.57 -299.027 311.465 -346.67 229.748 -355.036C148.031 -363.401 61.1631 -335.971 -20.8991 -293.973C-102.976 -251.979 -181.46 -195.645 -260.641 -142.619C-283.47 -127.324 -307.068 -112.005 -331.407 -107.602C-381.675 -98.4945 -411.658 -157.343 -435.306 -198.932C-463.257 -248.1 -501.919 -300.921 -554.815 -286.645" stroke="#B9BABD" stroke-linecap="round" stroke-linejoin="round"/>
</svg>
