<svg width="237" height="315" viewBox="0 0 237 315" fill="none" xmlns="http://www.w3.org/2000/svg">
<g filter="url(#filter0_d_5042_89210)">
<path d="M34 27.0883C34 21.5167 38.5167 17 44.0883 17H326.912C332.483 17 337 21.5167 337 27.0883V33H34V27.0883Z" fill="#E8E8E8"/>
<rect x="42.4141" y="22.4648" width="5.04415" height="5.04415" rx="2.52208" fill="#ED695E"/>
<rect x="50.8203" y="22.4648" width="5.04415" height="5.04415" rx="2.52208" fill="#F5BF4F"/>
<rect x="59.2305" y="22.4648" width="5.04415" height="5.04415" rx="2.52208" fill="#61C454"/>
<path d="M34 33H337V253.912C337 259.483 332.483 264 326.912 264H44.0883C38.5167 264 34 259.483 34 253.912V33Z" fill="#E8E8E8"/>
<g clip-path="url(#clip0_5042_89210)">
<rect width="293.72" height="227.429" transform="translate(38.5234 33)" fill="#F3F0F0"/>
<path d="M63.8526 55.6013C63.8526 55.952 63.7942 56.2938 63.6772 56.6265C63.5693 56.9503 63.4029 57.2426 63.1781 57.5034C62.9532 57.7553 62.6744 57.9576 62.3417 58.1105C62.0089 58.2634 61.6267 58.3398 61.195 58.3398H57.0129V49.0449H61.0331C61.4738 49.0449 61.8605 49.1123 62.1933 49.2472C62.535 49.3821 62.8138 49.5665 63.0297 49.8003C63.2545 50.0252 63.4209 50.286 63.5288 50.5828C63.6458 50.8796 63.7042 51.1944 63.7042 51.5271C63.7042 51.8869 63.6143 52.2466 63.4344 52.6064C63.2545 52.9571 62.9622 53.2449 62.5575 53.4698C63.0072 53.6946 63.3355 54.0094 63.5423 54.4141C63.7492 54.8098 63.8526 55.2055 63.8526 55.6013ZM62.1393 51.6351C62.1393 51.2213 62.0089 50.9201 61.7481 50.7312C61.4963 50.5333 61.141 50.4344 60.6823 50.4344H58.5643V52.8222H60.7498C61.1545 52.8222 61.4873 52.7188 61.7481 52.5119C62.0089 52.3051 62.1393 52.0128 62.1393 51.6351ZM62.2742 55.5743C62.2742 55.1426 62.1258 54.8008 61.829 54.549C61.5412 54.2972 61.195 54.1713 60.7903 54.1713H58.5643V56.9638H60.8038C61.2894 56.9638 61.6537 56.8424 61.8965 56.5996C62.1483 56.3477 62.2742 56.006 62.2742 55.5743ZM69.3217 53.9419L68.2559 55.6148L66.3942 58.3398H65.1126V51.662H66.5561V56.0465H66.6101L67.5949 54.576L69.5375 51.662H70.8326V58.3398H69.3891V53.9419H69.3217ZM74.5211 52.8897L74.4401 54.4276C74.4042 55.0122 74.3502 55.5248 74.2783 55.9655C74.2153 56.4062 74.0894 56.7839 73.9005 57.0987H76.855V52.8897H74.5211ZM71.6746 57.1257C71.7555 57.1257 71.8365 57.1257 71.9174 57.1257C72.0074 57.1257 72.0883 57.1212 72.1602 57.1122C72.475 56.8874 72.6999 56.5726 72.8348 56.1679C72.9697 55.7542 73.0596 55.1876 73.1046 54.4681L73.28 51.662H78.2715V57.0987C78.3704 57.0987 78.4693 57.1032 78.5682 57.1122C78.6672 57.1122 78.7661 57.1122 78.865 57.1122V60.0666H77.5565V58.3398H72.9832V60.0666H71.6746V57.1257ZM81.3361 55.4664V55.8036C81.3361 56.0375 81.3766 56.2398 81.4575 56.4107C81.5385 56.5726 81.6419 56.7075 81.7678 56.8154C81.9027 56.9143 82.0556 56.9908 82.2265 57.0448C82.4064 57.0897 82.5907 57.1122 82.7796 57.1122C82.9865 57.1122 83.2338 57.0762 83.5216 57.0043C83.8184 56.9323 84.1107 56.7659 84.3985 56.5051C84.5424 56.676 84.6818 56.8424 84.8167 57.0043C84.9606 57.1572 85.1 57.3191 85.2349 57.4899C84.8572 57.8587 84.4569 58.106 84.0342 58.2319C83.6205 58.3488 83.2023 58.4073 82.7796 58.4073C82.3929 58.4073 82.0241 58.3578 81.6734 58.2589C81.3316 58.16 81.0258 58.0116 80.756 57.8137C80.4952 57.6069 80.2884 57.3505 80.1355 57.0448C79.9826 56.739 79.9061 56.3792 79.9061 55.9655V54.2117C79.9061 53.807 79.9736 53.4428 80.1085 53.119C80.2524 52.7952 80.4502 52.5209 80.7021 52.2961C80.9539 52.0712 81.2462 51.9004 81.579 51.7834C81.9117 51.6575 82.276 51.5946 82.6717 51.5946C83.0764 51.5946 83.4496 51.653 83.7914 51.77C84.1332 51.8869 84.4255 52.0578 84.6683 52.2826C84.9201 52.4984 85.1135 52.7638 85.2484 53.0785C85.3833 53.3933 85.4507 53.7531 85.4507 54.1578V55.4664H81.3361ZM84.0072 54.2387C84.0072 53.7711 83.8768 53.4338 83.616 53.2269C83.3552 53.0111 83.0449 52.9032 82.6852 52.9032C82.3254 52.9032 82.0107 53.0156 81.7408 53.2404C81.48 53.4563 81.3496 53.7845 81.3496 54.2252V54.4411H84.0072V54.2387ZM92.2515 55.979C92.2515 56.3747 92.1706 56.7255 92.0087 57.0313C91.8558 57.337 91.6445 57.5934 91.3747 57.8002C91.1138 57.9981 90.8125 58.151 90.4708 58.2589C90.129 58.3578 89.7738 58.4073 89.405 58.4073C89.0273 58.4073 88.6631 58.3578 88.3123 58.2589C87.9705 58.151 87.6693 57.9981 87.4084 57.8002C87.1566 57.5934 86.9543 57.337 86.8014 57.0313C86.6485 56.7255 86.572 56.3747 86.572 55.979V54.0364C86.572 53.6406 86.6485 53.2899 86.8014 52.9841C86.9633 52.6783 87.1746 52.422 87.4354 52.2151C87.6962 52.0083 87.9975 51.8509 88.3393 51.743C88.681 51.6351 89.0408 51.5811 89.4185 51.5811C89.8232 51.5811 90.1965 51.6351 90.5382 51.743C90.88 51.8509 91.1768 52.0128 91.4286 52.2286C91.6894 52.4355 91.8918 52.6918 92.0357 52.9976C92.1796 53.3034 92.2515 53.6541 92.2515 54.0499V55.979ZM90.835 54.2927C90.835 54.0409 90.7901 53.8295 90.7001 53.6586C90.6192 53.4788 90.5113 53.3349 90.3764 53.2269C90.2415 53.119 90.0886 53.0426 89.9177 52.9976C89.7468 52.9436 89.5804 52.9167 89.4185 52.9167C89.2566 52.9167 89.0903 52.9436 88.9194 52.9976C88.7485 53.0426 88.5956 53.119 88.4607 53.2269C88.3258 53.3349 88.2134 53.4788 88.1234 53.6586C88.0425 53.8295 88.002 54.0409 88.002 54.2927V55.7092C88.002 56.2128 88.1414 56.5681 88.4202 56.7749C88.699 56.9818 89.0318 57.0852 89.4185 57.0852C89.5804 57.0852 89.7468 57.0627 89.9177 57.0178C90.0886 56.9638 90.2415 56.8829 90.3764 56.7749C90.5113 56.667 90.6192 56.5276 90.7001 56.3567C90.7901 56.1769 90.835 55.961 90.835 55.7092V54.2927ZM97.6314 61.0379L98.6432 58.2049L98.1575 57.8137L96.3363 51.6485H97.8473L98.5623 54.3871L99.2233 56.8289H99.2638L100.114 54.3736L101.018 51.6485H102.528L99.1154 61.0379H97.6314ZM108.919 56.0195C108.919 56.7659 108.712 57.355 108.298 57.7867C107.893 58.2094 107.318 58.4208 106.571 58.4208C106.337 58.4208 106.059 58.3983 105.735 58.3533C105.411 58.3084 105.056 58.1959 104.669 58.0161V61.011H103.239V51.662H104.534L104.669 52.3231C105.128 52.0443 105.519 51.8554 105.843 51.7565C106.167 51.6485 106.445 51.5946 106.679 51.5946C107.372 51.5946 107.916 51.7924 108.312 52.1882C108.716 52.5749 108.919 53.182 108.919 54.0094V56.0195ZM107.475 54.1308C107.475 53.6811 107.376 53.3753 107.178 53.2134C106.99 53.0426 106.747 52.9571 106.45 52.9571C106.333 52.9571 106.198 52.9751 106.045 53.0111C105.901 53.0471 105.748 53.0965 105.586 53.1595C105.425 53.2224 105.263 53.2944 105.101 53.3753C104.948 53.4563 104.804 53.5417 104.669 53.6317V56.6805C105.029 56.8334 105.335 56.9368 105.586 56.9908C105.847 57.0448 106.099 57.0717 106.342 57.0717C106.495 57.0717 106.639 57.0537 106.774 57.0178C106.918 56.9818 107.039 56.9188 107.138 56.8289C107.246 56.73 107.327 56.6041 107.381 56.4512C107.444 56.2983 107.475 56.1094 107.475 55.8846V54.1308ZM115.781 55.979C115.781 56.3747 115.7 56.7255 115.538 57.0313C115.385 57.337 115.174 57.5934 114.904 57.8002C114.643 57.9981 114.342 58.151 114 58.2589C113.658 58.3578 113.303 58.4073 112.934 58.4073C112.557 58.4073 112.192 58.3578 111.842 58.2589C111.5 58.151 111.199 57.9981 110.938 57.8002C110.686 57.5934 110.484 57.337 110.331 57.0313C110.178 56.7255 110.101 56.3747 110.101 55.979V54.0364C110.101 53.6406 110.178 53.2899 110.331 52.9841C110.493 52.6783 110.704 52.422 110.965 52.2151C111.226 52.0083 111.527 51.8509 111.869 51.743C112.21 51.6351 112.57 51.5811 112.948 51.5811C113.353 51.5811 113.726 51.6351 114.068 51.743C114.409 51.8509 114.706 52.0128 114.958 52.2286C115.219 52.4355 115.421 52.6918 115.565 52.9976C115.709 53.3034 115.781 53.6541 115.781 54.0499V55.979ZM114.364 54.2927C114.364 54.0409 114.319 53.8295 114.229 53.6586C114.149 53.4788 114.041 53.3349 113.906 53.2269C113.771 53.119 113.618 53.0426 113.447 52.9976C113.276 52.9436 113.11 52.9167 112.948 52.9167C112.786 52.9167 112.62 52.9436 112.449 52.9976C112.278 53.0426 112.125 53.119 111.99 53.2269C111.855 53.3349 111.743 53.4788 111.653 53.6586C111.572 53.8295 111.531 54.0409 111.531 54.2927V55.7092C111.531 56.2128 111.671 56.5681 111.95 56.7749C112.228 56.9818 112.561 57.0852 112.948 57.0852C113.11 57.0852 113.276 57.0627 113.447 57.0178C113.618 56.9638 113.771 56.8829 113.906 56.7749C114.041 56.667 114.149 56.5276 114.229 56.3567C114.319 56.1769 114.364 55.961 114.364 55.7092V54.2927ZM117.072 58.3398V51.6485H118.502V54.3197H119.352C119.622 54.3197 119.865 54.2657 120.081 54.1578C120.296 54.0499 120.476 53.798 120.62 53.4023L121.227 51.6485H122.738L122.05 53.5912C121.942 53.915 121.812 54.1848 121.659 54.4006C121.515 54.6075 121.313 54.7559 121.052 54.8458C121.367 54.9357 121.596 55.0976 121.74 55.3315C121.884 55.5563 122.01 55.8351 122.118 56.1679L122.86 58.3398H121.295L120.742 56.5321C120.679 56.3253 120.602 56.1589 120.512 56.033C120.431 55.9071 120.337 55.8126 120.229 55.7497C120.121 55.6777 120 55.6327 119.865 55.6148C119.739 55.5878 119.595 55.5743 119.433 55.5743H118.502V58.3398H117.072ZM128.079 53.9419L127.013 55.6148L125.152 58.3398H123.87V51.662H125.314V56.0465H125.368L126.352 54.576L128.295 51.662H129.59V58.3398H128.147V53.9419H128.079Z" fill="#46474E"/>
<g filter="url(#filter1_d_5042_89210)">
<g clip-path="url(#clip1_5042_89210)">
<path d="M60.4159 76H89.4392L104.823 91.2856V127.111C104.823 128.993 103.293 130.519 101.407 130.519H60.4159C58.5303 130.519 57 128.993 57 127.111V79.4074C57 77.5252 58.5303 76 60.4159 76Z" fill="#FFA469"/>
<path fill-rule="evenodd" clip-rule="evenodd" d="M71.4682 117.498C71.0402 117.366 70.6498 117.132 70.3298 116.816C70.0097 116.499 69.7695 116.109 69.6294 115.678C68.8286 113.452 68.5914 104.159 70.1336 102.324C70.6468 101.727 71.3715 101.36 72.1503 101.301C76.2875 100.85 89.07 100.91 90.538 101.452C90.9509 101.587 91.3282 101.816 91.6415 102.121C91.9548 102.426 92.196 102.798 92.3471 103.211C93.222 105.512 93.2517 113.873 92.2285 116.084C91.9571 116.66 91.5027 117.126 90.9384 117.407C89.3962 118.189 73.5145 118.174 71.4682 117.498ZM78.0373 111.479C78.0373 112.232 78.8379 112.714 79.5038 112.363L83.7809 110.108C84.491 109.733 84.4926 108.717 83.7837 108.34L79.5066 106.067C78.8405 105.713 78.0373 106.196 78.0373 106.95V111.479Z" fill="white"/>
<path d="M104.772 91.3344H92.8652C90.9796 91.3344 89.4492 89.8079 89.4492 87.927V76.0352L104.771 91.3344H104.772Z" fill="#EB9055"/>
</g>
</g>
<rect x="60" y="140" width="42" height="4" rx="2" fill="#A4A4A4"/>
<rect x="60" y="146" width="32" height="4" rx="2" fill="#A4A4A4"/>
<g filter="url(#filter2_d_5042_89210)">
<g clip-path="url(#clip2_5042_89210)">
<path d="M60.4159 169H89.4392L104.823 184.286V220.111C104.823 221.993 103.293 223.519 101.407 223.519H60.4159C58.5303 223.519 57 221.993 57 220.111V172.407C57 170.525 58.5303 169 60.4159 169Z" fill="#FFA469"/>
<path fill-rule="evenodd" clip-rule="evenodd" d="M71.4682 210.498C71.0402 210.366 70.6498 210.132 70.3298 209.816C70.0097 209.499 69.7695 209.109 69.6294 208.678C68.8286 206.452 68.5914 197.159 70.1336 195.324C70.6468 194.727 71.3715 194.36 72.1503 194.301C76.2875 193.85 89.07 193.91 90.538 194.452C90.9509 194.587 91.3282 194.816 91.6415 195.121C91.9548 195.426 92.196 195.798 92.3471 196.211C93.222 198.512 93.2517 206.873 92.2285 209.084C91.9571 209.66 91.5027 210.126 90.9384 210.407C89.3962 211.189 73.5145 211.174 71.4682 210.498ZM78.0373 204.479C78.0373 205.232 78.8379 205.714 79.5038 205.363L83.7809 203.108C84.491 202.733 84.4926 201.717 83.7837 201.34L79.5066 199.067C78.8405 198.713 78.0373 199.196 78.0373 199.95V204.479Z" fill="white"/>
<path d="M104.772 184.334H92.8652C90.9796 184.334 89.4492 182.808 89.4492 180.927V169.035L104.771 184.334H104.772Z" fill="#EB9055"/>
</g>
</g>
<rect x="60" y="233" width="42" height="4" rx="2" fill="#A4A4A4"/>
<rect x="60" y="239" width="32" height="4" rx="2" fill="#A4A4A4"/>
<g filter="url(#filter3_d_5042_89210)">
<g clip-path="url(#clip3_5042_89210)">
<path d="M128.416 76H157.439L172.823 91.2856V127.111C172.823 128.993 171.293 130.519 169.407 130.519H128.416C126.53 130.519 125 128.993 125 127.111V79.4074C125 77.5252 126.53 76 128.416 76Z" fill="#FFA469"/>
<path fill-rule="evenodd" clip-rule="evenodd" d="M139.468 117.498C139.04 117.366 138.65 117.132 138.33 116.816C138.01 116.499 137.77 116.109 137.629 115.678C136.829 113.452 136.591 104.159 138.134 102.324C138.647 101.727 139.372 101.36 140.15 101.301C144.288 100.85 157.07 100.91 158.538 101.452C158.951 101.587 159.328 101.816 159.641 102.121C159.955 102.426 160.196 102.798 160.347 103.211C161.222 105.512 161.252 113.873 160.229 116.084C159.957 116.66 159.503 117.126 158.938 117.407C157.396 118.189 141.515 118.174 139.468 117.498ZM146.037 111.479C146.037 112.232 146.838 112.714 147.504 112.363L151.781 110.108C152.491 109.733 152.493 108.717 151.784 108.34L147.507 106.067C146.841 105.713 146.037 106.196 146.037 106.95V111.479Z" fill="white"/>
<path d="M172.772 91.3344H160.865C158.98 91.3344 157.449 89.8079 157.449 87.927V76.0352L172.771 91.3344H172.772Z" fill="#EB9055"/>
</g>
</g>
<rect x="128" y="140" width="42" height="4" rx="2" fill="#A4A4A4"/>
<rect x="128" y="146" width="32" height="4" rx="2" fill="#A4A4A4"/>
<g filter="url(#filter4_d_5042_89210)">
<g clip-path="url(#clip4_5042_89210)">
<path d="M128.416 169H157.439L172.823 184.286V220.111C172.823 221.993 171.293 223.519 169.407 223.519H128.416C126.53 223.519 125 221.993 125 220.111V172.407C125 170.525 126.53 169 128.416 169Z" fill="#FFA469"/>
<path fill-rule="evenodd" clip-rule="evenodd" d="M139.468 210.498C139.04 210.366 138.65 210.132 138.33 209.816C138.01 209.499 137.77 209.109 137.629 208.678C136.829 206.452 136.591 197.159 138.134 195.324C138.647 194.727 139.372 194.36 140.15 194.301C144.288 193.85 157.07 193.91 158.538 194.452C158.951 194.587 159.328 194.816 159.641 195.121C159.955 195.426 160.196 195.798 160.347 196.211C161.222 198.512 161.252 206.873 160.229 209.084C159.957 209.66 159.503 210.126 158.938 210.407C157.396 211.189 141.515 211.174 139.468 210.498ZM146.037 204.479C146.037 205.232 146.838 205.714 147.504 205.363L151.781 203.108C152.491 202.733 152.493 201.717 151.784 201.34L147.507 199.067C146.841 198.713 146.037 199.196 146.037 199.95V204.479Z" fill="white"/>
<path d="M172.772 184.334H160.865C158.98 184.334 157.449 182.808 157.449 180.927V169.035L172.771 184.334H172.772Z" fill="#EB9055"/>
</g>
</g>
<rect x="128" y="233" width="42" height="4" rx="2" fill="#A4A4A4"/>
<rect x="128" y="239" width="32" height="4" rx="2" fill="#A4A4A4"/>
<g filter="url(#filter5_d_5042_89210)">
<g clip-path="url(#clip5_5042_89210)">
<path d="M196.416 76H225.439L240.823 91.2856V127.111C240.823 128.993 239.293 130.519 237.407 130.519H196.416C194.53 130.519 193 128.993 193 127.111V79.4074C193 77.5252 194.53 76 196.416 76Z" fill="#FFA469"/>
<path fill-rule="evenodd" clip-rule="evenodd" d="M207.468 117.498C207.04 117.366 206.65 117.132 206.33 116.816C206.01 116.499 205.77 116.109 205.629 115.678C204.829 113.452 204.591 104.159 206.134 102.324C206.647 101.727 207.372 101.36 208.15 101.301C212.288 100.85 225.07 100.91 226.538 101.452C226.951 101.587 227.328 101.816 227.641 102.121C227.955 102.426 228.196 102.798 228.347 103.211C229.222 105.512 229.252 113.873 228.229 116.084C227.957 116.66 227.503 117.126 226.938 117.407C225.396 118.189 209.515 118.174 207.468 117.498ZM214.037 111.479C214.037 112.232 214.838 112.714 215.504 112.363L219.781 110.108C220.491 109.733 220.493 108.717 219.784 108.34L215.507 106.067C214.841 105.713 214.037 106.196 214.037 106.95V111.479Z" fill="white"/>
<path d="M240.772 91.3344H228.865C226.98 91.3344 225.449 89.8079 225.449 87.927V76.0352L240.771 91.3344H240.772Z" fill="#EB9055"/>
</g>
</g>
<rect x="196" y="140" width="42" height="4" rx="2" fill="#A4A4A4"/>
<rect x="196" y="146" width="32" height="4" rx="2" fill="#A4A4A4"/>
<g filter="url(#filter6_d_5042_89210)">
<g clip-path="url(#clip6_5042_89210)">
<path d="M196.416 169H225.439L240.823 184.286V220.111C240.823 221.993 239.293 223.519 237.407 223.519H196.416C194.53 223.519 193 221.993 193 220.111V172.407C193 170.525 194.53 169 196.416 169Z" fill="#FFA469"/>
<path fill-rule="evenodd" clip-rule="evenodd" d="M207.468 210.498C207.04 210.366 206.65 210.132 206.33 209.816C206.01 209.499 205.77 209.109 205.629 208.678C204.829 206.452 204.591 197.159 206.134 195.324C206.647 194.727 207.372 194.36 208.15 194.301C212.288 193.85 225.07 193.91 226.538 194.452C226.951 194.587 227.328 194.816 227.641 195.121C227.955 195.426 228.196 195.798 228.347 196.211C229.222 198.512 229.252 206.873 228.229 209.084C227.957 209.66 227.503 210.126 226.938 210.407C225.396 211.189 209.515 211.174 207.468 210.498ZM214.037 204.479C214.037 205.232 214.838 205.714 215.504 205.363L219.781 203.108C220.491 202.733 220.493 201.717 219.784 201.34L215.507 199.067C214.841 198.713 214.037 199.196 214.037 199.95V204.479Z" fill="white"/>
<path d="M240.772 184.334H228.865C226.98 184.334 225.449 182.808 225.449 180.927V169.035L240.771 184.334H240.772Z" fill="#EB9055"/>
</g>
</g>
<rect x="196" y="233" width="42" height="4" rx="2" fill="#A4A4A4"/>
<rect x="196" y="239" width="32" height="4" rx="2" fill="#A4A4A4"/>
</g>
</g>
<defs>
<filter id="filter0_d_5042_89210" x="0.372307" y="0.186153" width="370.255" height="314.255" filterUnits="userSpaceOnUse" color-interpolation-filters="sRGB">
<feFlood flood-opacity="0" result="BackgroundImageFix"/>
<feColorMatrix in="SourceAlpha" type="matrix" values="0 0 0 0 0 0 0 0 0 0 0 0 0 0 0 0 0 0 127 0" result="hardAlpha"/>
<feOffset dy="16.8138"/>
<feGaussianBlur stdDeviation="16.8138"/>
<feComposite in2="hardAlpha" operator="out"/>
<feColorMatrix type="matrix" values="0 0 0 0 0.27451 0 0 0 0 0.278431 0 0 0 0 0.305882 0 0 0 0.2 0"/>
<feBlend mode="multiply" in2="BackgroundImageFix" result="effect1_dropShadow_5042_89210"/>
<feBlend mode="normal" in="SourceGraphic" in2="effect1_dropShadow_5042_89210" result="shape"/>
</filter>
<filter id="filter1_d_5042_89210" x="39.963" y="67.4815" width="81.8983" height="88.5936" filterUnits="userSpaceOnUse" color-interpolation-filters="sRGB">
<feFlood flood-opacity="0" result="BackgroundImageFix"/>
<feColorMatrix in="SourceAlpha" type="matrix" values="0 0 0 0 0 0 0 0 0 0 0 0 0 0 0 0 0 0 127 0" result="hardAlpha"/>
<feOffset dy="8.51852"/>
<feGaussianBlur stdDeviation="8.51852"/>
<feComposite in2="hardAlpha" operator="out"/>
<feColorMatrix type="matrix" values="0 0 0 0 0.25098 0 0 0 0 0.25098 0 0 0 0 0.25098 0 0 0 0.1 0"/>
<feBlend mode="normal" in2="BackgroundImageFix" result="effect1_dropShadow_5042_89210"/>
<feBlend mode="normal" in="SourceGraphic" in2="effect1_dropShadow_5042_89210" result="shape"/>
</filter>
<filter id="filter2_d_5042_89210" x="39.963" y="160.481" width="81.8983" height="88.5936" filterUnits="userSpaceOnUse" color-interpolation-filters="sRGB">
<feFlood flood-opacity="0" result="BackgroundImageFix"/>
<feColorMatrix in="SourceAlpha" type="matrix" values="0 0 0 0 0 0 0 0 0 0 0 0 0 0 0 0 0 0 127 0" result="hardAlpha"/>
<feOffset dy="8.51852"/>
<feGaussianBlur stdDeviation="8.51852"/>
<feComposite in2="hardAlpha" operator="out"/>
<feColorMatrix type="matrix" values="0 0 0 0 0.25098 0 0 0 0 0.25098 0 0 0 0 0.25098 0 0 0 0.1 0"/>
<feBlend mode="normal" in2="BackgroundImageFix" result="effect1_dropShadow_5042_89210"/>
<feBlend mode="normal" in="SourceGraphic" in2="effect1_dropShadow_5042_89210" result="shape"/>
</filter>
<filter id="filter3_d_5042_89210" x="107.963" y="67.4815" width="81.8983" height="88.5936" filterUnits="userSpaceOnUse" color-interpolation-filters="sRGB">
<feFlood flood-opacity="0" result="BackgroundImageFix"/>
<feColorMatrix in="SourceAlpha" type="matrix" values="0 0 0 0 0 0 0 0 0 0 0 0 0 0 0 0 0 0 127 0" result="hardAlpha"/>
<feOffset dy="8.51852"/>
<feGaussianBlur stdDeviation="8.51852"/>
<feComposite in2="hardAlpha" operator="out"/>
<feColorMatrix type="matrix" values="0 0 0 0 0.25098 0 0 0 0 0.25098 0 0 0 0 0.25098 0 0 0 0.1 0"/>
<feBlend mode="normal" in2="BackgroundImageFix" result="effect1_dropShadow_5042_89210"/>
<feBlend mode="normal" in="SourceGraphic" in2="effect1_dropShadow_5042_89210" result="shape"/>
</filter>
<filter id="filter4_d_5042_89210" x="107.963" y="160.481" width="81.8983" height="88.5936" filterUnits="userSpaceOnUse" color-interpolation-filters="sRGB">
<feFlood flood-opacity="0" result="BackgroundImageFix"/>
<feColorMatrix in="SourceAlpha" type="matrix" values="0 0 0 0 0 0 0 0 0 0 0 0 0 0 0 0 0 0 127 0" result="hardAlpha"/>
<feOffset dy="8.51852"/>
<feGaussianBlur stdDeviation="8.51852"/>
<feComposite in2="hardAlpha" operator="out"/>
<feColorMatrix type="matrix" values="0 0 0 0 0.25098 0 0 0 0 0.25098 0 0 0 0 0.25098 0 0 0 0.1 0"/>
<feBlend mode="normal" in2="BackgroundImageFix" result="effect1_dropShadow_5042_89210"/>
<feBlend mode="normal" in="SourceGraphic" in2="effect1_dropShadow_5042_89210" result="shape"/>
</filter>
<filter id="filter5_d_5042_89210" x="175.963" y="67.4815" width="81.8983" height="88.5936" filterUnits="userSpaceOnUse" color-interpolation-filters="sRGB">
<feFlood flood-opacity="0" result="BackgroundImageFix"/>
<feColorMatrix in="SourceAlpha" type="matrix" values="0 0 0 0 0 0 0 0 0 0 0 0 0 0 0 0 0 0 127 0" result="hardAlpha"/>
<feOffset dy="8.51852"/>
<feGaussianBlur stdDeviation="8.51852"/>
<feComposite in2="hardAlpha" operator="out"/>
<feColorMatrix type="matrix" values="0 0 0 0 0.25098 0 0 0 0 0.25098 0 0 0 0 0.25098 0 0 0 0.1 0"/>
<feBlend mode="normal" in2="BackgroundImageFix" result="effect1_dropShadow_5042_89210"/>
<feBlend mode="normal" in="SourceGraphic" in2="effect1_dropShadow_5042_89210" result="shape"/>
</filter>
<filter id="filter6_d_5042_89210" x="175.963" y="160.481" width="81.8983" height="88.5936" filterUnits="userSpaceOnUse" color-interpolation-filters="sRGB">
<feFlood flood-opacity="0" result="BackgroundImageFix"/>
<feColorMatrix in="SourceAlpha" type="matrix" values="0 0 0 0 0 0 0 0 0 0 0 0 0 0 0 0 0 0 127 0" result="hardAlpha"/>
<feOffset dy="8.51852"/>
<feGaussianBlur stdDeviation="8.51852"/>
<feComposite in2="hardAlpha" operator="out"/>
<feColorMatrix type="matrix" values="0 0 0 0 0.25098 0 0 0 0 0.25098 0 0 0 0 0.25098 0 0 0 0.1 0"/>
<feBlend mode="normal" in2="BackgroundImageFix" result="effect1_dropShadow_5042_89210"/>
<feBlend mode="normal" in="SourceGraphic" in2="effect1_dropShadow_5042_89210" result="shape"/>
</filter>
<clipPath id="clip0_5042_89210">
<rect width="293.72" height="227.429" fill="white" transform="translate(38.5234 33)"/>
</clipPath>
<clipPath id="clip1_5042_89210">
<rect x="57" y="76" width="47.8233" height="54.5185" rx="3" fill="white"/>
</clipPath>
<clipPath id="clip2_5042_89210">
<rect x="57" y="169" width="47.8233" height="54.5185" rx="3" fill="white"/>
</clipPath>
<clipPath id="clip3_5042_89210">
<rect x="125" y="76" width="47.8233" height="54.5185" rx="3" fill="white"/>
</clipPath>
<clipPath id="clip4_5042_89210">
<rect x="125" y="169" width="47.8233" height="54.5185" rx="3" fill="white"/>
</clipPath>
<clipPath id="clip5_5042_89210">
<rect x="193" y="76" width="47.8233" height="54.5185" rx="3" fill="white"/>
</clipPath>
<clipPath id="clip6_5042_89210">
<rect x="193" y="169" width="47.8233" height="54.5185" rx="3" fill="white"/>
</clipPath>
</defs>
</svg>
