<svg width="283" height="306" viewBox="0 0 283 306" fill="none" xmlns="http://www.w3.org/2000/svg">
<g filter="url(#filter0_d_5042_89864)">
<path d="M34 27.0883C34 21.5167 38.5167 17 44.0883 17H384.683C390.255 17 394.772 21.5167 394.772 27.0883V33.1636H34V27.0883Z" fill="#E8E8E8"/>
<rect x="42.4141" y="22.4648" width="5.04415" height="5.04415" rx="2.52208" fill="#ED695E"/>
<rect x="50.8203" y="22.4648" width="5.04415" height="5.04415" rx="2.52208" fill="#F5BF4F"/>
<rect x="59.2305" y="22.4648" width="5.04415" height="5.04415" rx="2.52208" fill="#61C454"/>
<path d="M34 33H395V244.912C395 250.483 390.483 255 384.912 255H44.0883C38.5167 255 34 250.483 34 244.912V33Z" fill="#E8E8E8"/>
<g clip-path="url(#clip0_5042_89864)">
<rect width="351.72" height="218.429" transform="translate(38.5234 33)" fill="#F3F0F0"/>
<rect x="55.2617" y="82" width="80.4195" height="71.3154" rx="3.23435" fill="#E8E8E8"/>
<mask id="mask0_5042_89864" style="mask-type:luminance" maskUnits="userSpaceOnUse" x="55" y="82" width="77" height="72">
<rect x="55.2617" y="82" width="75.8675" height="71.3154" rx="3.23435" fill="white"/>
</mask>
<g mask="url(#mask0_5042_89864)">
</g>
<path fill-rule="evenodd" clip-rule="evenodd" d="M60.5703 113.483C60.5703 112.017 61.7592 110.828 63.2257 110.828H117.85C119.317 110.828 120.506 112.017 120.506 113.483C120.506 114.95 119.317 116.139 117.85 116.139H63.2257C61.7592 116.139 60.5703 114.95 60.5703 113.483Z" fill="#D7D7D7"/>
<path fill-rule="evenodd" clip-rule="evenodd" d="M60.5703 121.073C60.5703 119.607 61.7592 118.418 63.2257 118.418H114.057C115.523 118.418 116.712 119.607 116.712 121.073C116.712 122.54 115.523 123.729 114.057 123.729H63.2257C61.7592 123.729 60.5703 122.54 60.5703 121.073Z" fill="#D7D7D7"/>
<path fill-rule="evenodd" clip-rule="evenodd" d="M60.5703 129.417C60.5703 127.951 61.7592 126.762 63.2257 126.762H117.092C118.558 126.762 119.747 127.951 119.747 129.417C119.747 130.884 118.558 132.072 117.092 132.072H63.2257C61.7592 132.072 60.5703 130.884 60.5703 129.417Z" fill="#D7D7D7"/>
<path fill-rule="evenodd" clip-rule="evenodd" d="M60.5703 137.765C60.5703 136.298 61.7592 135.109 63.2257 135.109H112.54C114.006 135.109 115.195 136.298 115.195 137.765C115.195 139.231 114.006 140.42 112.54 140.42H63.2257C61.7592 140.42 60.5703 139.231 60.5703 137.765Z" fill="#D7D7D7"/>
<path fill-rule="evenodd" clip-rule="evenodd" d="M60.5703 145.351C60.5703 143.884 61.7592 142.695 63.2257 142.695H115.574C117.041 142.695 118.23 143.884 118.23 145.351C118.23 146.817 117.041 148.006 115.574 148.006H63.2257C61.7592 148.006 60.5703 146.817 60.5703 145.351Z" fill="#D7D7D7"/>
<path fill-rule="evenodd" clip-rule="evenodd" d="M60.5703 89.9679C60.5703 88.5013 61.7592 87.3125 63.2257 87.3125H111.022C112.489 87.3125 113.678 88.5013 113.678 89.9679C113.678 91.4344 112.489 92.6232 111.022 92.6232H63.2257C61.7592 92.6232 60.5703 91.4344 60.5703 89.9679Z" fill="#FFA469"/>
<path fill-rule="evenodd" clip-rule="evenodd" d="M60.5703 98.3116C60.5703 96.8451 61.7592 95.6562 63.2257 95.6562H97.366C98.8326 95.6562 100.021 96.8451 100.021 98.3116C100.021 99.7781 98.8326 100.967 97.366 100.967H63.2257C61.7592 100.967 60.5703 99.7781 60.5703 98.3116Z" fill="#FFA469"/>
<rect x="144.996" y="82" width="80.4195" height="71.3154" rx="3.23435" fill="#E8E8E8"/>
<mask id="mask1_5042_89864" style="mask-type:luminance" maskUnits="userSpaceOnUse" x="144" y="82" width="77" height="72">
<rect x="144.996" y="82" width="75.8675" height="71.3154" rx="3.23435" fill="white"/>
</mask>
<g mask="url(#mask1_5042_89864)">
</g>
<path fill-rule="evenodd" clip-rule="evenodd" d="M150.309 113.483C150.309 112.017 151.497 110.828 152.964 110.828H207.589C209.055 110.828 210.244 112.017 210.244 113.483C210.244 114.95 209.055 116.139 207.589 116.139H152.964C151.497 116.139 150.309 114.95 150.309 113.483Z" fill="#D7D7D7"/>
<path fill-rule="evenodd" clip-rule="evenodd" d="M150.309 121.073C150.309 119.607 151.497 118.418 152.964 118.418H203.795C205.262 118.418 206.451 119.607 206.451 121.073C206.451 122.54 205.262 123.729 203.795 123.729H152.964C151.497 123.729 150.309 122.54 150.309 121.073Z" fill="#D7D7D7"/>
<path fill-rule="evenodd" clip-rule="evenodd" d="M150.309 129.417C150.309 127.951 151.497 126.762 152.964 126.762H206.83C208.296 126.762 209.485 127.951 209.485 129.417C209.485 130.884 208.296 132.072 206.83 132.072H152.964C151.497 132.072 150.309 130.884 150.309 129.417Z" fill="#D7D7D7"/>
<path fill-rule="evenodd" clip-rule="evenodd" d="M150.309 137.765C150.309 136.298 151.497 135.109 152.964 135.109H202.278C203.744 135.109 204.933 136.298 204.933 137.765C204.933 139.231 203.744 140.42 202.278 140.42H152.964C151.497 140.42 150.309 139.231 150.309 137.765Z" fill="#D7D7D7"/>
<path fill-rule="evenodd" clip-rule="evenodd" d="M150.309 145.351C150.309 143.884 151.497 142.695 152.964 142.695H205.313C206.779 142.695 207.968 143.884 207.968 145.351C207.968 146.817 206.779 148.006 205.313 148.006H152.964C151.497 148.006 150.309 146.817 150.309 145.351Z" fill="#D7D7D7"/>
<path fill-rule="evenodd" clip-rule="evenodd" d="M150.309 89.9679C150.309 88.5013 151.497 87.3125 152.964 87.3125H200.76C202.227 87.3125 203.416 88.5013 203.416 89.9679C203.416 91.4344 202.227 92.6232 200.76 92.6232H152.964C151.497 92.6232 150.309 91.4344 150.309 89.9679Z" fill="#FCCD82"/>
<path fill-rule="evenodd" clip-rule="evenodd" d="M150.309 98.3116C150.309 96.8451 151.497 95.6562 152.964 95.6562H187.104C188.571 95.6562 189.76 96.8451 189.76 98.3116C189.76 99.7781 188.571 100.967 187.104 100.967H152.964C151.497 100.967 150.309 99.7781 150.309 98.3116Z" fill="#FCCD82"/>
<rect x="235" y="82" width="80.4195" height="71.3154" rx="3.23435" fill="#E8E8E8"/>
<mask id="mask2_5042_89864" style="mask-type:luminance" maskUnits="userSpaceOnUse" x="235" y="82" width="76" height="72">
<rect x="235" y="82" width="75.8675" height="71.3154" rx="3.23435" fill="white"/>
</mask>
<g mask="url(#mask2_5042_89864)">
</g>
<path fill-rule="evenodd" clip-rule="evenodd" d="M240.309 113.483C240.309 112.017 241.497 110.828 242.964 110.828H297.589C299.055 110.828 300.244 112.017 300.244 113.483C300.244 114.95 299.055 116.139 297.589 116.139H242.964C241.497 116.139 240.309 114.95 240.309 113.483Z" fill="#D7D7D7"/>
<path fill-rule="evenodd" clip-rule="evenodd" d="M240.309 121.073C240.309 119.607 241.497 118.418 242.964 118.418H293.795C295.262 118.418 296.451 119.607 296.451 121.073C296.451 122.54 295.262 123.729 293.795 123.729H242.964C241.497 123.729 240.309 122.54 240.309 121.073Z" fill="#D7D7D7"/>
<path fill-rule="evenodd" clip-rule="evenodd" d="M240.309 129.417C240.309 127.951 241.497 126.762 242.964 126.762H296.83C298.296 126.762 299.485 127.951 299.485 129.417C299.485 130.884 298.296 132.072 296.83 132.072H242.964C241.497 132.072 240.309 130.884 240.309 129.417Z" fill="#D7D7D7"/>
<path fill-rule="evenodd" clip-rule="evenodd" d="M240.309 137.765C240.309 136.298 241.497 135.109 242.964 135.109H292.278C293.744 135.109 294.933 136.298 294.933 137.765C294.933 139.231 293.744 140.42 292.278 140.42H242.964C241.497 140.42 240.309 139.231 240.309 137.765Z" fill="#D7D7D7"/>
<path fill-rule="evenodd" clip-rule="evenodd" d="M240.309 145.351C240.309 143.884 241.497 142.695 242.964 142.695H295.313C296.779 142.695 297.968 143.884 297.968 145.351C297.968 146.817 296.779 148.006 295.313 148.006H242.964C241.497 148.006 240.309 146.817 240.309 145.351Z" fill="#D7D7D7"/>
<path fill-rule="evenodd" clip-rule="evenodd" d="M240.309 89.9679C240.309 88.5013 241.497 87.3125 242.964 87.3125H290.76C292.227 87.3125 293.416 88.5013 293.416 89.9679C293.416 91.4344 292.227 92.6232 290.76 92.6232H242.964C241.497 92.6232 240.309 91.4344 240.309 89.9679Z" fill="#B5DE89"/>
<path fill-rule="evenodd" clip-rule="evenodd" d="M240.309 98.3116C240.309 96.8451 241.497 95.6562 242.964 95.6562H277.104C278.571 95.6562 279.76 96.8451 279.76 98.3116C279.76 99.7781 278.571 100.967 277.104 100.967H242.964C241.497 100.967 240.309 99.7781 240.309 98.3116Z" fill="#B5DE89"/>
<path d="M89.4653 153.551C89.4653 155.227 90.824 156.585 92.5 156.585C94.176 156.585 95.5347 155.227 95.5347 153.551C95.5347 151.875 94.176 150.516 92.5 150.516C90.824 150.516 89.4653 151.875 89.4653 153.551ZM184.902 153.148C184.68 152.926 184.32 152.926 184.098 153.148L180.477 156.77C180.254 156.992 180.254 157.352 180.477 157.574C180.699 157.796 181.059 157.796 181.281 157.574L184.5 154.355L187.719 157.574C187.941 157.796 188.301 157.796 188.523 157.574C188.746 157.352 188.746 156.992 188.523 156.77L184.902 153.148ZM92.5 168.223H91.931V168.792H92.5V168.223ZM184.5 168.223V168.792H185.069V168.223H184.5ZM91.931 153.551V168.223H93.069V153.551H91.931ZM92.5 168.792H184.5V167.654H92.5V168.792ZM185.069 168.223V153.551H183.931V168.223H185.069Z" fill="#FFA469"/>
<path fill-rule="evenodd" clip-rule="evenodd" d="M140.003 177.329C145.031 177.329 149.107 173.253 149.107 168.225C149.107 163.197 145.031 159.121 140.003 159.121C134.974 159.121 130.898 163.197 130.898 168.225C130.898 173.253 134.974 177.329 140.003 177.329Z" fill="#FFA469"/>
<path fill-rule="evenodd" clip-rule="evenodd" d="M137.051 167.934C136.669 167.552 136.051 167.552 135.669 167.934C135.287 168.316 135.287 168.934 135.669 169.316L138.343 171.929C138.769 172.355 139.475 172.298 139.827 171.809L144.391 165.743C144.706 165.305 144.606 164.694 144.168 164.379C143.73 164.064 143.12 164.164 142.805 164.602L138.912 169.734L137.051 167.934Z" fill="white"/>
<path d="M267.465 153.551C267.465 155.227 268.824 156.585 270.5 156.585C272.176 156.585 273.535 155.227 273.535 153.551C273.535 151.875 272.176 150.516 270.5 150.516C268.824 150.516 267.465 151.875 267.465 153.551ZM362.902 153.148C362.68 152.926 362.32 152.926 362.098 153.148L358.477 156.77C358.254 156.992 358.254 157.352 358.477 157.574C358.699 157.796 359.059 157.796 359.281 157.574L362.5 154.355L365.719 157.574C365.941 157.796 366.301 157.796 366.523 157.574C366.746 157.352 366.746 156.992 366.523 156.77L362.902 153.148ZM270.5 168.223H269.931V168.792H270.5V168.223ZM362.5 168.223V168.792H363.069V168.223H362.5ZM269.931 153.551V168.223H271.069V153.551H269.931ZM270.5 168.792H362.5V167.654H270.5V168.792ZM363.069 168.223V153.551H361.931V168.223H363.069Z" fill="#FFA469"/>
<path d="M276.598 82.0742C276.82 82.2964 277.18 82.2964 277.402 82.0742L281.023 78.4531C281.246 78.2309 281.246 77.8706 281.023 77.6484C280.801 77.4262 280.441 77.4262 280.219 77.6484L277 80.8672L273.781 77.6484C273.559 77.4262 273.199 77.4262 272.977 77.6484C272.754 77.8706 272.754 78.2309 272.977 78.4531L276.598 82.0742ZM188.035 81.6719C188.035 79.9958 186.676 78.6372 185 78.6372C183.324 78.6372 181.965 79.9958 181.965 81.6719C181.965 83.3479 183.324 84.7066 185 84.7066C186.676 84.7066 188.035 83.3479 188.035 81.6719ZM277 67L277.569 67L277.569 66.431L277 66.431L277 67ZM185 67L185 66.431L184.431 66.431L184.431 67L185 67ZM277.569 81.6719L277.569 67L276.431 67L276.431 81.6719L277.569 81.6719ZM277 66.431L185 66.431L185 67.569L277 67.569L277 66.431ZM184.431 67L184.431 81.6719L185.569 81.6719L185.569 67L184.431 67Z" fill="#FFA469"/>
<path fill-rule="evenodd" clip-rule="evenodd" d="M231.503 76.2082C236.531 76.2082 240.607 72.1322 240.607 67.1041C240.607 62.076 236.531 58 231.503 58C226.474 58 222.398 62.076 222.398 67.1041C222.398 72.1322 226.474 76.2082 231.503 76.2082Z" fill="#FFA469"/>
<path fill-rule="evenodd" clip-rule="evenodd" d="M228.551 66.8129C228.169 66.4313 227.551 66.4313 227.169 66.8129C226.787 67.1944 226.787 67.8131 227.169 68.1947L229.843 70.8079C230.269 71.234 230.975 71.1767 231.327 70.6875L235.891 64.6219C236.206 64.1838 236.106 63.5732 235.668 63.2582C235.23 62.9431 234.62 63.0428 234.305 63.4809L230.412 68.6132L228.551 66.8129Z" fill="white"/>
<rect x="55.2617" y="214.664" width="80.4195" height="71.3154" rx="3.23435" fill="#E8E8E8"/>
<mask id="mask3_5042_89864" style="mask-type:luminance" maskUnits="userSpaceOnUse" x="55" y="214" width="77" height="72">
<rect x="55.2617" y="214.664" width="75.8675" height="71.3154" rx="3.23435" fill="white"/>
</mask>
<g mask="url(#mask3_5042_89864)">
</g>
<path fill-rule="evenodd" clip-rule="evenodd" d="M60.5703 246.151C60.5703 244.685 61.7592 243.496 63.2257 243.496H117.85C119.317 243.496 120.506 244.685 120.506 246.151C120.506 247.618 119.317 248.807 117.85 248.807H63.2257C61.7592 248.807 60.5703 247.618 60.5703 246.151Z" fill="#D7D7D7"/>
<path fill-rule="evenodd" clip-rule="evenodd" d="M60.5703 253.737C60.5703 252.271 61.7592 251.082 63.2257 251.082H114.057C115.523 251.082 116.712 252.271 116.712 253.737C116.712 255.204 115.523 256.393 114.057 256.393H63.2257C61.7592 256.393 60.5703 255.204 60.5703 253.737Z" fill="#D7D7D7"/>
<path fill-rule="evenodd" clip-rule="evenodd" d="M60.5703 222.632C60.5703 221.165 61.7592 219.977 63.2257 219.977H111.022C112.489 219.977 113.678 221.165 113.678 222.632C113.678 224.098 112.489 225.287 111.022 225.287H63.2257C61.7592 225.287 60.5703 224.098 60.5703 222.632Z" fill="#FFA469"/>
<path fill-rule="evenodd" clip-rule="evenodd" d="M60.5703 230.976C60.5703 229.509 61.7592 228.32 63.2257 228.32H97.366C98.8326 228.32 100.021 229.509 100.021 230.976C100.021 232.442 98.8326 233.631 97.366 233.631H63.2257C61.7592 233.631 60.5703 232.442 60.5703 230.976Z" fill="#FFA469"/>
<rect x="144.996" y="214.664" width="80.4195" height="71.3154" rx="3.23435" fill="#E8E8E8"/>
<mask id="mask4_5042_89864" style="mask-type:luminance" maskUnits="userSpaceOnUse" x="144" y="214" width="77" height="72">
<rect x="144.996" y="214.664" width="75.8675" height="71.3154" rx="3.23435" fill="white"/>
</mask>
<g mask="url(#mask4_5042_89864)">
</g>
<path fill-rule="evenodd" clip-rule="evenodd" d="M150.309 246.151C150.309 244.685 151.497 243.496 152.964 243.496H207.589C209.055 243.496 210.244 244.685 210.244 246.151C210.244 247.618 209.055 248.807 207.589 248.807H152.964C151.497 248.807 150.309 247.618 150.309 246.151Z" fill="#D7D7D7"/>
<path fill-rule="evenodd" clip-rule="evenodd" d="M150.309 253.737C150.309 252.271 151.497 251.082 152.964 251.082H203.795C205.262 251.082 206.451 252.271 206.451 253.737C206.451 255.204 205.262 256.393 203.795 256.393H152.964C151.497 256.393 150.309 255.204 150.309 253.737Z" fill="#D7D7D7"/>
<path fill-rule="evenodd" clip-rule="evenodd" d="M150.309 222.632C150.309 221.165 151.497 219.977 152.964 219.977H200.76C202.227 219.977 203.416 221.165 203.416 222.632C203.416 224.098 202.227 225.287 200.76 225.287H152.964C151.497 225.287 150.309 224.098 150.309 222.632Z" fill="#FCCD82"/>
<path fill-rule="evenodd" clip-rule="evenodd" d="M150.309 230.976C150.309 229.509 151.497 228.32 152.964 228.32H187.104C188.571 228.32 189.76 229.509 189.76 230.976C189.76 232.442 188.571 233.631 187.104 233.631H152.964C151.497 233.631 150.309 232.442 150.309 230.976Z" fill="#FCCD82"/>
<rect x="235" y="214.664" width="80.4195" height="71.3154" rx="3.23435" fill="#E8E8E8"/>
<mask id="mask5_5042_89864" style="mask-type:luminance" maskUnits="userSpaceOnUse" x="235" y="214" width="76" height="72">
<rect x="235" y="214.664" width="75.8675" height="71.3154" rx="3.23435" fill="white"/>
</mask>
<g mask="url(#mask5_5042_89864)">
</g>
<path fill-rule="evenodd" clip-rule="evenodd" d="M240.309 246.151C240.309 244.685 241.497 243.496 242.964 243.496H297.589C299.055 243.496 300.244 244.685 300.244 246.151C300.244 247.618 299.055 248.807 297.589 248.807H242.964C241.497 248.807 240.309 247.618 240.309 246.151Z" fill="#D7D7D7"/>
<path fill-rule="evenodd" clip-rule="evenodd" d="M240.309 253.737C240.309 252.271 241.497 251.082 242.964 251.082H293.795C295.262 251.082 296.451 252.271 296.451 253.737C296.451 255.204 295.262 256.393 293.795 256.393H242.964C241.497 256.393 240.309 255.204 240.309 253.737Z" fill="#D7D7D7"/>
<path fill-rule="evenodd" clip-rule="evenodd" d="M240.309 222.632C240.309 221.165 241.497 219.977 242.964 219.977H290.76C292.227 219.977 293.416 221.165 293.416 222.632C293.416 224.098 292.227 225.287 290.76 225.287H242.964C241.497 225.287 240.309 224.098 240.309 222.632Z" fill="#B5DE89"/>
<path fill-rule="evenodd" clip-rule="evenodd" d="M240.309 230.976C240.309 229.509 241.497 228.32 242.964 228.32H277.104C278.571 228.32 279.76 229.509 279.76 230.976C279.76 232.442 278.571 233.631 277.104 233.631H242.964C241.497 233.631 240.309 232.442 240.309 230.976Z" fill="#B5DE89"/>
<path d="M62.4226 56.3398V48.4344H58.5239V56.3398H56.9859V47.0449H63.9875V56.3398H62.4226ZM66.7917 53.4664V53.8036C66.7917 54.0375 66.8321 54.2398 66.9131 54.4107C66.994 54.5726 67.0974 54.7075 67.2233 54.8154C67.3583 54.9143 67.5111 54.9908 67.682 55.0448C67.8619 55.0897 68.0463 55.1122 68.2351 55.1122C68.442 55.1122 68.6893 55.0762 68.9771 55.0043C69.2739 54.9323 69.5662 54.7659 69.854 54.5051C69.9979 54.676 70.1373 54.8424 70.2722 55.0043C70.4161 55.1572 70.5555 55.3191 70.6904 55.4899C70.3127 55.8587 69.9125 56.106 69.4898 56.2319C69.076 56.3488 68.6578 56.4073 68.2351 56.4073C67.8484 56.4073 67.4797 56.3578 67.1289 56.2589C66.7872 56.16 66.4814 56.0116 66.2116 55.8137C65.9507 55.6069 65.7439 55.3505 65.591 55.0448C65.4381 54.739 65.3617 54.3792 65.3617 53.9655V52.2117C65.3617 51.807 65.4291 51.4428 65.564 51.119C65.7079 50.7952 65.9058 50.5209 66.1576 50.2961C66.4094 50.0712 66.7017 49.9004 67.0345 49.7834C67.3672 49.6575 67.7315 49.5946 68.1272 49.5946C68.5319 49.5946 68.9052 49.653 69.2469 49.77C69.5887 49.8869 69.881 50.0578 70.1238 50.2826C70.3756 50.4984 70.569 50.7638 70.7039 51.0785C70.8388 51.3933 70.9063 51.7531 70.9063 52.1578V53.4664H66.7917ZM69.4628 52.2387C69.4628 51.7711 69.3324 51.4338 69.0716 51.2269C68.8107 51.0111 68.5005 50.9032 68.1407 50.9032C67.781 50.9032 67.4662 51.0156 67.1964 51.2404C66.9356 51.4563 66.8051 51.7845 66.8051 52.2252V52.4411H69.4628V52.2387ZM77.7745 54.0195C77.7745 54.7659 77.5677 55.355 77.154 55.7867C76.7492 56.2094 76.1736 56.4208 75.4272 56.4208C75.1933 56.4208 74.9145 56.3983 74.5908 56.3533C74.267 56.3084 73.9117 56.1959 73.525 56.0161V59.011H72.095V49.662H73.3901L73.525 50.3231C73.9837 50.0443 74.3749 49.8554 74.6987 49.7565C75.0225 49.6485 75.3013 49.5946 75.5351 49.5946C76.2276 49.5946 76.7717 49.7924 77.1674 50.1882C77.5722 50.5749 77.7745 51.182 77.7745 52.0094V54.0195ZM76.331 52.1308C76.331 51.6811 76.2321 51.3753 76.0342 51.2134C75.8454 51.0426 75.6025 50.9571 75.3058 50.9571C75.1888 50.9571 75.0539 50.9751 74.901 51.0111C74.7571 51.0471 74.6042 51.0965 74.4424 51.1595C74.2805 51.2224 74.1186 51.2944 73.9567 51.3753C73.8038 51.4563 73.6599 51.5417 73.525 51.6317V54.6805C73.8848 54.8334 74.1905 54.9368 74.4424 54.9908C74.7032 55.0448 74.955 55.0717 75.1978 55.0717C75.3507 55.0717 75.4946 55.0537 75.6295 55.0178C75.7734 54.9818 75.8948 54.9188 75.9938 54.8289C76.1017 54.73 76.1826 54.6041 76.2366 54.4512C76.2996 54.2983 76.331 54.1094 76.331 53.8846V52.1308ZM84.5019 54.3298C84.5019 54.5906 84.4569 54.8424 84.367 55.0852C84.277 55.3281 84.1421 55.5439 83.9622 55.7328C83.7824 55.9126 83.5575 56.061 83.2877 56.178C83.0179 56.2859 82.7031 56.3398 82.3434 56.3398H78.9573V49.662H82.3164C82.6672 49.662 82.9729 49.7115 83.2338 49.8104C83.4946 49.9094 83.7059 50.0443 83.8678 50.2151C84.0387 50.377 84.1646 50.5704 84.2455 50.7952C84.3355 51.0111 84.3805 51.2404 84.3805 51.4833C84.3805 51.7441 84.304 52.0049 84.1511 52.2657C84.0072 52.5265 83.8049 52.7199 83.544 52.8458C83.8588 52.9897 84.0971 53.1966 84.259 53.4664C84.4209 53.7362 84.5019 54.024 84.5019 54.3298ZM83.0449 54.2893C83.0449 54.0375 82.955 53.8396 82.7751 53.6957C82.5952 53.5518 82.3794 53.4799 82.1275 53.4799H80.4007V55.1392H82.0466C82.3883 55.1392 82.6402 55.0627 82.8021 54.9098C82.9639 54.757 83.0449 54.5501 83.0449 54.2893ZM82.9505 51.5912C82.9505 51.3483 82.8605 51.173 82.6806 51.065C82.5098 50.9481 82.3074 50.8897 82.0736 50.8897H80.4007V52.2792H82.114C82.3749 52.2792 82.5772 52.2207 82.7211 52.1038C82.874 51.9779 82.9505 51.807 82.9505 51.5912ZM89.9395 51.9419L88.8737 53.6148L87.0121 56.3398H85.7305V49.662H87.1739V54.0465H87.2279L88.2127 52.576L90.1553 49.662H91.4504V56.3398H90.0069V51.9419H89.9395ZM93.9248 49.6485V51.6047C93.9248 52.0454 94.0282 52.3556 94.2351 52.5355C94.4509 52.7154 94.7297 52.8053 95.0715 52.8053C95.3143 52.8053 95.5841 52.7559 95.8809 52.6569C96.1867 52.558 96.4835 52.4186 96.7713 52.2387V49.6485H98.1878V56.3398H96.7713V53.5203C96.3396 53.7542 95.9619 53.9071 95.6381 53.979C95.3233 54.051 95.04 54.0869 94.7882 54.0869C94.0777 54.0869 93.5156 53.8936 93.1019 53.5068C92.6971 53.1201 92.4948 52.5445 92.4948 51.78V49.6485H93.9248ZM103.734 56.3398V53.5743H100.914V56.3398H99.498V49.662H100.914V52.3332H103.734V49.662H105.177V56.3398H103.734ZM112.617 56.3398V49.662H114.02V56.3398H112.617ZM107.949 55.1257H109.528C109.869 55.1257 110.13 55.0493 110.31 54.8964C110.49 54.7345 110.58 54.5141 110.58 54.2353C110.58 54.0195 110.499 53.8216 110.337 53.6417C110.175 53.4619 109.905 53.3719 109.528 53.3719H107.949V55.1257ZM106.533 56.3398V49.6485H107.949V52.1713H109.622C110.387 52.1713 110.971 52.3646 111.376 52.7514C111.781 53.1291 111.983 53.6238 111.983 54.2353C111.983 54.5231 111.933 54.7974 111.835 55.0582C111.745 55.3101 111.601 55.5304 111.403 55.7193C111.205 55.9081 110.958 56.061 110.661 56.178C110.373 56.2859 110.031 56.3398 109.636 56.3398H106.533ZM116.775 53.4664V53.8036C116.775 54.0375 116.816 54.2398 116.897 54.4107C116.977 54.5726 117.081 54.7075 117.207 54.8154C117.342 54.9143 117.495 54.9908 117.665 55.0448C117.845 55.0897 118.03 55.1122 118.219 55.1122C118.425 55.1122 118.673 55.0762 118.961 55.0043C119.257 54.9323 119.55 54.7659 119.837 54.5051C119.981 54.676 120.121 54.8424 120.256 55.0043C120.4 55.1572 120.539 55.3191 120.674 55.4899C120.296 55.8587 119.896 56.106 119.473 56.2319C119.059 56.3488 118.641 56.4073 118.219 56.4073C117.832 56.4073 117.463 56.3578 117.112 56.2589C116.771 56.16 116.465 56.0116 116.195 55.8137C115.934 55.6069 115.727 55.3505 115.574 55.0448C115.422 54.739 115.345 54.3792 115.345 53.9655V52.2117C115.345 51.807 115.413 51.4428 115.547 51.119C115.691 50.7952 115.889 50.5209 116.141 50.2961C116.393 50.0712 116.685 49.9004 117.018 49.7834C117.351 49.6575 117.715 49.5946 118.111 49.5946C118.515 49.5946 118.889 49.653 119.23 49.77C119.572 49.8869 119.864 50.0578 120.107 50.2826C120.359 50.4984 120.552 50.7638 120.687 51.0785C120.822 51.3933 120.89 51.7531 120.89 52.1578V53.4664H116.775ZM119.446 52.2387C119.446 51.7711 119.316 51.4338 119.055 51.2269C118.794 51.0111 118.484 50.9032 118.124 50.9032C117.764 50.9032 117.45 51.0156 117.18 51.2404C116.919 51.4563 116.789 51.7845 116.789 52.2252V52.4411H119.446V52.2387ZM61.1275 69.3398V63.9167H58.3215V69.3398H56.8915V62.662H62.571V69.3398H61.1275ZM69.5537 67.0195C69.5537 67.7659 69.3469 68.355 68.9332 68.7867C68.5285 69.2094 67.9529 69.4208 67.2064 69.4208C66.9725 69.4208 66.6937 69.3983 66.37 69.3533C66.0462 69.3084 65.6909 69.1959 65.3042 69.0161V72.011H63.8742V62.662H65.1693L65.3042 63.3231C65.7629 63.0443 66.1541 62.8554 66.4779 62.7565C66.8017 62.6485 67.0805 62.5946 67.3143 62.5946C68.0068 62.5946 68.5509 62.7924 68.9467 63.1882C69.3514 63.5749 69.5537 64.182 69.5537 65.0094V67.0195ZM68.1102 65.1308C68.1102 64.6811 68.0113 64.3753 67.8135 64.2134C67.6246 64.0426 67.3818 63.9571 67.085 63.9571C66.968 63.9571 66.8331 63.9751 66.6803 64.0111C66.5364 64.0471 66.3835 64.0965 66.2216 64.1595C66.0597 64.2224 65.8978 64.2944 65.7359 64.3753C65.583 64.4563 65.4391 64.5417 65.3042 64.6317V67.6805C65.664 67.8334 65.9697 67.9368 66.2216 67.9908C66.4824 68.0448 66.7342 68.0717 66.977 68.0717C67.1299 68.0717 67.2738 68.0537 67.4087 68.0178C67.5526 67.9818 67.6741 67.9188 67.773 67.8289C67.8809 67.73 67.9618 67.6041 68.0158 67.4512C68.0788 67.2983 68.1102 67.1094 68.1102 66.8846V65.1308ZM76.416 66.979C76.416 67.3747 76.335 67.7255 76.1732 68.0313C76.0203 68.337 75.8089 68.5934 75.5391 68.8002C75.2783 68.9981 74.977 69.151 74.6352 69.2589C74.2935 69.3578 73.9382 69.4073 73.5695 69.4073C73.1917 69.4073 72.8275 69.3578 72.4767 69.2589C72.135 69.151 71.8337 68.9981 71.5729 68.8002C71.3211 68.5934 71.1187 68.337 70.9658 68.0313C70.8129 67.7255 70.7365 67.3747 70.7365 66.979V65.0364C70.7365 64.6406 70.8129 64.2899 70.9658 63.9841C71.1277 63.6783 71.339 63.422 71.5999 63.2151C71.8607 63.0083 72.162 62.8509 72.5037 62.743C72.8455 62.6351 73.2052 62.5811 73.583 62.5811C73.9877 62.5811 74.3609 62.6351 74.7027 62.743C75.0444 62.8509 75.3412 63.0128 75.5931 63.2286C75.8539 63.4355 76.0562 63.6918 76.2001 63.9976C76.344 64.3034 76.416 64.6541 76.416 65.0499V66.979ZM74.9995 65.2927C74.9995 65.0409 74.9545 64.8295 74.8646 64.6586C74.7836 64.4788 74.6757 64.3349 74.5408 64.2269C74.4059 64.119 74.253 64.0426 74.0821 63.9976C73.9112 63.9436 73.7449 63.9167 73.583 63.9167C73.4211 63.9167 73.2547 63.9436 73.0838 63.9976C72.9129 64.0426 72.76 64.119 72.6251 64.2269C72.4902 64.3349 72.3778 64.4788 72.2879 64.6586C72.2069 64.8295 72.1665 65.0409 72.1665 65.2927V66.7092C72.1665 67.2128 72.3059 67.5681 72.5847 67.7749C72.8635 67.9818 73.1962 68.0852 73.583 68.0852C73.7449 68.0852 73.9112 68.0627 74.0821 68.0178C74.253 67.9638 74.4059 67.8829 74.5408 67.7749C74.6757 67.667 74.7836 67.5276 74.8646 67.3567C74.9545 67.1769 74.9995 66.961 74.9995 66.7092V65.2927ZM80.0411 63.8897L79.9602 65.4276C79.9242 66.0122 79.8703 66.5248 79.7983 66.9655C79.7354 67.4062 79.6094 67.7839 79.4206 68.0987H82.375V63.8897H80.0411ZM77.1946 68.1257C77.2756 68.1257 77.3565 68.1257 77.4375 68.1257C77.5274 68.1257 77.6083 68.1212 77.6803 68.1122C77.9951 67.8874 78.2199 67.5726 78.3548 67.1679C78.4897 66.7542 78.5797 66.1876 78.6246 65.4681L78.8 62.662H83.7915V68.0987C83.8904 68.0987 83.9894 68.1032 84.0883 68.1122C84.1872 68.1122 84.2862 68.1122 84.3851 68.1122V71.0666H83.0765V69.3398H78.5032V71.0666H77.1946V68.1257ZM89.5813 68.7328C89.1046 69.0026 88.6999 69.1825 88.3671 69.2724C88.0433 69.3533 87.7421 69.3938 87.4632 69.3938C86.7977 69.3938 86.2761 69.2139 85.8983 68.8542C85.5206 68.4944 85.3317 67.9998 85.3317 67.3702C85.3317 67.0015 85.4127 66.6912 85.5746 66.4394C85.7365 66.1876 85.9388 65.9852 86.1816 65.8323C86.4245 65.6704 86.6853 65.5535 86.9641 65.4816C87.2519 65.4096 87.5172 65.3736 87.76 65.3736H89.6082V64.9689C89.6082 64.5732 89.4958 64.2899 89.271 64.119C89.0461 63.9481 88.6999 63.8627 88.2322 63.8627C88.0074 63.8627 87.7286 63.8987 87.3958 63.9706C87.072 64.0336 86.7438 64.2 86.411 64.4698L85.7499 63.404C86.1996 63.0623 86.6493 62.8419 87.099 62.743C87.5577 62.6351 87.9804 62.5811 88.3671 62.5811C89.2845 62.5811 89.959 62.7834 90.3907 63.1882C90.8224 63.5929 91.0382 64.2089 91.0382 65.0364V69.3398H89.7431L89.6217 68.7598L89.5813 68.7328ZM89.6082 66.4799H88.0029C87.877 66.4799 87.7465 66.4888 87.6116 66.5068C87.4767 66.5248 87.3508 66.5653 87.2339 66.6282C87.126 66.6822 87.0315 66.7632 86.9506 66.8711C86.8787 66.979 86.8427 67.1274 86.8427 67.3163C86.8427 67.5681 86.9326 67.7659 87.1125 67.9098C87.2924 68.0448 87.5307 68.1122 87.8275 68.1122C87.9894 68.1122 88.1513 68.0942 88.3131 68.0582C88.475 68.0133 88.6324 67.9638 88.7853 67.9098C88.9472 67.8469 89.0956 67.7794 89.2305 67.7075C89.3744 67.6355 89.5003 67.5681 89.6082 67.5051V66.4799ZM95.7972 69.3398V66.5743H95.2441C95.0912 66.5743 94.9473 66.5833 94.8124 66.6013C94.6865 66.6193 94.5696 66.6642 94.4617 66.7362C94.3627 66.7991 94.2728 66.8936 94.1919 67.0195C94.1109 67.1454 94.0435 67.3163 93.9895 67.5321L93.4634 69.3398H91.8985L92.6 67.1679C92.7079 66.8351 92.8338 66.5563 92.9777 66.3315C93.1216 66.0976 93.3554 65.9357 93.6792 65.8458C93.4184 65.7559 93.2115 65.6075 93.0587 65.4006C92.9058 65.1848 92.7753 64.915 92.6674 64.5912L92.0199 62.6485H93.5308L94.1109 64.4023C94.2458 64.798 94.4167 65.0499 94.6236 65.1578C94.8304 65.2657 95.0642 65.3197 95.3251 65.3197H95.7972V62.6485H97.2272V65.3197H97.6994C97.9692 65.3197 98.2075 65.2657 98.4144 65.1578C98.6212 65.0499 98.7876 64.798 98.9135 64.4023L99.4936 62.6485H101.005L100.357 64.5912C100.249 64.915 100.119 65.1848 99.9658 65.4006C99.8129 65.6075 99.6061 65.7559 99.3452 65.8458C99.669 65.9357 99.9028 66.0976 100.047 66.3315C100.191 66.5563 100.317 66.8351 100.424 67.1679L101.126 69.3398H99.5611L99.0484 67.5321C98.9855 67.3163 98.9135 67.1454 98.8326 67.0195C98.7517 66.8936 98.6572 66.7991 98.5493 66.7362C98.4504 66.6642 98.3379 66.6193 98.212 66.6013C98.0861 66.5833 97.9422 66.5743 97.7803 66.5743H97.2272V69.3398H95.7972ZM106.249 64.9419L105.184 66.6148L103.322 69.3398H102.04V62.662H103.484V67.0465H103.538L104.523 65.576L106.465 62.662H107.76V69.3398H106.317V64.9419H106.249Z" fill="#46474E"/>
<path d="M60.0888 200.519L58.0922 204H56.3384L59.2523 199.238L56.5138 194.705H58.281L60.0888 197.956L61.91 194.705H63.6637L60.9387 199.238L63.8526 204H62.0988L60.0888 200.519ZM70.2372 201.639C70.2372 202.035 70.1563 202.386 69.9944 202.691C69.8415 202.997 69.6301 203.254 69.3603 203.46C69.0995 203.658 68.7982 203.811 68.4565 203.919C68.1147 204.018 67.7595 204.067 67.3907 204.067C67.013 204.067 66.6487 204.018 66.298 203.919C65.9562 203.811 65.6549 203.658 65.3941 203.46C65.1423 203.254 64.9399 202.997 64.787 202.691C64.6342 202.386 64.5577 202.035 64.5577 201.639V199.697C64.5577 199.301 64.6342 198.95 64.787 198.644C64.9489 198.338 65.1603 198.082 65.4211 197.875C65.6819 197.668 65.9832 197.511 66.325 197.403C66.6667 197.295 67.0265 197.241 67.4042 197.241C67.8089 197.241 68.1822 197.295 68.5239 197.403C68.8657 197.511 69.1625 197.673 69.4143 197.889C69.6751 198.096 69.8775 198.352 70.0214 198.658C70.1653 198.964 70.2372 199.314 70.2372 199.71V201.639ZM68.8207 199.953C68.8207 199.701 68.7757 199.49 68.6858 199.319C68.6049 199.139 68.4969 198.995 68.362 198.887C68.2271 198.779 68.0742 198.703 67.9034 198.658C67.7325 198.604 67.5661 198.577 67.4042 198.577C67.2423 198.577 67.0759 198.604 66.9051 198.658C66.7342 198.703 66.5813 198.779 66.4464 198.887C66.3115 198.995 66.1991 199.139 66.1091 199.319C66.0282 199.49 65.9877 199.701 65.9877 199.953V201.369C65.9877 201.873 66.1271 202.228 66.4059 202.435C66.6847 202.642 67.0175 202.745 67.4042 202.745C67.5661 202.745 67.7325 202.723 67.9034 202.678C68.0742 202.624 68.2271 202.543 68.362 202.435C68.4969 202.327 68.6049 202.188 68.6858 202.017C68.7757 201.837 68.8207 201.621 68.8207 201.369V199.953ZM73.687 200.196C73.687 200.843 73.633 201.396 73.5251 201.855C73.4262 202.314 73.2733 202.7 73.0664 203.015C72.8686 203.321 72.6212 203.568 72.3245 203.757C72.0277 203.946 71.6859 204.09 71.2992 204.189L70.881 203.042C71.1328 202.943 71.3486 202.835 71.5285 202.718C71.7084 202.601 71.8523 202.44 71.9602 202.233C72.0771 202.026 72.1581 201.761 72.203 201.437C72.257 201.113 72.284 200.695 72.284 200.182V197.322H77.1136V204H75.6836V198.55H73.687V200.196ZM84.1757 201.639C84.1757 202.035 84.0947 202.386 83.9328 202.691C83.7799 202.997 83.5686 203.254 83.2988 203.46C83.038 203.658 82.7367 203.811 82.3949 203.919C82.0532 204.018 81.6979 204.067 81.3292 204.067C80.9514 204.067 80.5872 204.018 80.2364 203.919C79.8947 203.811 79.5934 203.658 79.3326 203.46C79.0807 203.254 78.8784 202.997 78.7255 202.691C78.5726 202.386 78.4962 202.035 78.4962 201.639V199.697C78.4962 199.301 78.5726 198.95 78.7255 198.644C78.8874 198.338 79.0987 198.082 79.3596 197.875C79.6204 197.668 79.9217 197.511 80.2634 197.403C80.6052 197.295 80.9649 197.241 81.3427 197.241C81.7474 197.241 82.1206 197.295 82.4624 197.403C82.8041 197.511 83.1009 197.673 83.3527 197.889C83.6136 198.096 83.8159 198.352 83.9598 198.658C84.1037 198.964 84.1757 199.314 84.1757 199.71V201.639ZM82.7592 199.953C82.7592 199.701 82.7142 199.49 82.6243 199.319C82.5433 199.139 82.4354 198.995 82.3005 198.887C82.1656 198.779 82.0127 198.703 81.8418 198.658C81.6709 198.604 81.5045 198.577 81.3427 198.577C81.1808 198.577 81.0144 198.604 80.8435 198.658C80.6726 198.703 80.5197 198.779 80.3848 198.887C80.2499 198.995 80.1375 199.139 80.0476 199.319C79.9666 199.49 79.9262 199.701 79.9262 199.953V201.369C79.9262 201.873 80.0656 202.228 80.3444 202.435C80.6232 202.642 80.9559 202.745 81.3427 202.745C81.5045 202.745 81.6709 202.723 81.8418 202.678C82.0127 202.624 82.1656 202.543 82.3005 202.435C82.4354 202.327 82.5433 202.188 82.6243 202.017C82.7142 201.837 82.7592 201.621 82.7592 201.369V199.953ZM87.8008 198.55L87.7199 200.088C87.6839 200.672 87.6299 201.185 87.558 201.626C87.495 202.066 87.3691 202.444 87.1803 202.759H90.1347V198.55H87.8008ZM84.9543 202.786C85.0353 202.786 85.1162 202.786 85.1972 202.786C85.2871 202.786 85.368 202.781 85.44 202.772C85.7548 202.548 85.9796 202.233 86.1145 201.828C86.2494 201.414 86.3394 200.848 86.3843 200.128L86.5597 197.322H91.5512V202.759C91.6501 202.759 91.7491 202.763 91.848 202.772C91.9469 202.772 92.0458 202.772 92.1448 202.772V205.727H90.8362V204H86.2629V205.727H84.9543V202.786ZM97.4893 204V201.234H94.6698V204H93.2533V197.322H94.6698V199.993H97.4893V197.322H98.9328V204H97.4893ZM106.372 204V197.322H107.775V204H106.372ZM101.705 202.786H103.283C103.625 202.786 103.886 202.709 104.065 202.557C104.245 202.395 104.335 202.174 104.335 201.895C104.335 201.68 104.254 201.482 104.092 201.302C103.931 201.122 103.661 201.032 103.283 201.032H101.705V202.786ZM100.288 204V197.309H101.705V199.831H103.377C104.142 199.831 104.726 200.025 105.131 200.412C105.536 200.789 105.738 201.284 105.738 201.895C105.738 202.183 105.689 202.458 105.59 202.718C105.5 202.97 105.356 203.191 105.158 203.379C104.96 203.568 104.713 203.721 104.416 203.838C104.128 203.946 103.787 204 103.391 204H100.288ZM110.53 201.127V201.464C110.53 201.698 110.571 201.9 110.652 202.071C110.733 202.233 110.836 202.368 110.962 202.476C111.097 202.575 111.25 202.651 111.421 202.705C111.601 202.75 111.785 202.772 111.974 202.772C112.181 202.772 112.428 202.736 112.716 202.664C113.013 202.592 113.305 202.426 113.593 202.165C113.737 202.336 113.876 202.503 114.011 202.664C114.155 202.817 114.294 202.979 114.429 203.15C114.051 203.519 113.651 203.766 113.229 203.892C112.815 204.009 112.397 204.067 111.974 204.067C111.587 204.067 111.218 204.018 110.868 203.919C110.526 203.82 110.22 203.672 109.95 203.474C109.69 203.267 109.483 203.011 109.33 202.705C109.177 202.399 109.1 202.039 109.1 201.626V199.872C109.1 199.467 109.168 199.103 109.303 198.779C109.447 198.455 109.645 198.181 109.896 197.956C110.148 197.731 110.441 197.561 110.773 197.444C111.106 197.318 111.47 197.255 111.866 197.255C112.271 197.255 112.644 197.313 112.986 197.43C113.327 197.547 113.62 197.718 113.863 197.943C114.114 198.159 114.308 198.424 114.443 198.739C114.578 199.053 114.645 199.413 114.645 199.818V201.127H110.53ZM113.202 199.899C113.202 199.431 113.071 199.094 112.81 198.887C112.55 198.671 112.239 198.563 111.88 198.563C111.52 198.563 111.205 198.676 110.935 198.901C110.674 199.116 110.544 199.445 110.544 199.885V200.101H113.202V199.899ZM121.487 197.241C122.216 197.241 122.791 197.412 123.214 197.754C123.646 198.096 123.862 198.554 123.862 199.13C123.862 199.247 123.848 199.373 123.821 199.508C123.794 199.634 123.745 199.759 123.673 199.885C123.601 200.011 123.506 200.133 123.389 200.25C123.273 200.358 123.124 200.452 122.944 200.533C123.133 200.614 123.291 200.713 123.416 200.83C123.542 200.947 123.641 201.073 123.713 201.207C123.794 201.342 123.848 201.477 123.875 201.612C123.911 201.747 123.929 201.873 123.929 201.99C123.929 202.637 123.695 203.146 123.228 203.514C122.76 203.883 122.108 204.067 121.271 204.067C120.831 204.067 120.381 204.004 119.922 203.879C119.473 203.753 119.072 203.546 118.722 203.258L119.491 202.273C119.725 202.462 120.003 202.606 120.327 202.705C120.651 202.804 120.93 202.853 121.164 202.853C121.667 202.853 122.018 202.768 122.216 202.597C122.423 202.417 122.526 202.215 122.526 201.99C122.526 201.711 122.423 201.504 122.216 201.369C122.018 201.225 121.748 201.153 121.406 201.153H120.462V200.034H121.406C121.73 200.034 121.982 199.962 122.162 199.818C122.351 199.665 122.445 199.472 122.445 199.238C122.445 198.977 122.333 198.788 122.108 198.671C121.883 198.554 121.627 198.496 121.339 198.496C121.105 198.496 120.844 198.536 120.556 198.617C120.269 198.689 120.008 198.824 119.774 199.022L119.005 198.037C119.329 197.749 119.711 197.547 120.152 197.43C120.601 197.304 121.047 197.241 121.487 197.241ZM130.586 201.99C130.586 202.251 130.541 202.503 130.451 202.745C130.361 202.988 130.226 203.204 130.046 203.393C129.866 203.573 129.641 203.721 129.372 203.838C129.102 203.946 128.787 204 128.427 204H125.041V197.322H128.4C128.751 197.322 129.057 197.372 129.318 197.471C129.578 197.57 129.79 197.704 129.952 197.875C130.123 198.037 130.248 198.231 130.329 198.455C130.419 198.671 130.464 198.901 130.464 199.143C130.464 199.404 130.388 199.665 130.235 199.926C130.091 200.187 129.889 200.38 129.628 200.506C129.943 200.65 130.181 200.857 130.343 201.127C130.505 201.396 130.586 201.684 130.586 201.99ZM129.129 201.949C129.129 201.698 129.039 201.5 128.859 201.356C128.679 201.212 128.463 201.14 128.211 201.14H126.485V202.799H128.13C128.472 202.799 128.724 202.723 128.886 202.57C129.048 202.417 129.129 202.21 129.129 201.949ZM129.034 199.251C129.034 199.009 128.944 198.833 128.764 198.725C128.594 198.608 128.391 198.55 128.157 198.55H126.485V199.939H128.198C128.459 199.939 128.661 199.881 128.805 199.764C128.958 199.638 129.034 199.467 129.034 199.251ZM137.426 201.639C137.426 202.035 137.345 202.386 137.184 202.691C137.031 202.997 136.819 203.254 136.549 203.46C136.289 203.658 135.987 203.811 135.646 203.919C135.304 204.018 134.949 204.067 134.58 204.067C134.202 204.067 133.838 204.018 133.487 203.919C133.145 203.811 132.844 203.658 132.583 203.46C132.331 203.254 132.129 202.997 131.976 202.691C131.823 202.386 131.747 202.035 131.747 201.639V199.697C131.747 199.301 131.823 198.95 131.976 198.644C132.138 198.338 132.349 198.082 132.61 197.875C132.871 197.668 133.172 197.511 133.514 197.403C133.856 197.295 134.216 197.241 134.593 197.241C134.998 197.241 135.371 197.295 135.713 197.403C136.055 197.511 136.352 197.673 136.603 197.889C136.864 198.096 137.067 198.352 137.211 198.658C137.354 198.964 137.426 199.314 137.426 199.71V201.639ZM136.01 199.953C136.01 199.701 135.965 199.49 135.875 199.319C135.794 199.139 135.686 198.995 135.551 198.887C135.416 198.779 135.263 198.703 135.092 198.658C134.922 198.604 134.755 198.577 134.593 198.577C134.431 198.577 134.265 198.604 134.094 198.658C133.923 198.703 133.77 198.779 133.636 198.887C133.501 198.995 133.388 199.139 133.298 199.319C133.217 199.49 133.177 199.701 133.177 199.953V201.369C133.177 201.873 133.316 202.228 133.595 202.435C133.874 202.642 134.207 202.745 134.593 202.745C134.755 202.745 134.922 202.723 135.092 202.678C135.263 202.624 135.416 202.543 135.551 202.435C135.686 202.327 135.794 202.188 135.875 202.017C135.965 201.837 136.01 201.621 136.01 201.369V199.953ZM142.967 204V201.234H140.148V204H138.731V197.322H140.148V199.993H142.967V197.322H144.411V204H142.967ZM145.766 204V197.309H147.196V199.98H148.046C148.316 199.98 148.558 199.926 148.774 199.818C148.99 199.71 149.17 199.458 149.314 199.062L149.921 197.309H151.432L150.744 199.251C150.636 199.575 150.506 199.845 150.353 200.061C150.209 200.268 150.006 200.416 149.746 200.506C150.06 200.596 150.29 200.758 150.434 200.992C150.578 201.216 150.703 201.495 150.811 201.828L151.553 204H149.988L149.435 202.192C149.372 201.985 149.296 201.819 149.206 201.693C149.125 201.567 149.031 201.473 148.923 201.41C148.815 201.338 148.693 201.293 148.558 201.275C148.433 201.248 148.289 201.234 148.127 201.234H147.196V204H145.766ZM156.773 199.602L155.707 201.275L153.845 204H152.564V197.322H154.007V201.707H154.061L155.046 200.236L156.989 197.322H158.284V204H156.84V199.602H156.773Z" fill="#46474E"/>
</g>
</g>
<defs>
<filter id="filter0_d_5042_89864" x="0.372307" y="0.186153" width="428.255" height="305.255" filterUnits="userSpaceOnUse" color-interpolation-filters="sRGB">
<feFlood flood-opacity="0" result="BackgroundImageFix"/>
<feColorMatrix in="SourceAlpha" type="matrix" values="0 0 0 0 0 0 0 0 0 0 0 0 0 0 0 0 0 0 127 0" result="hardAlpha"/>
<feOffset dy="16.8138"/>
<feGaussianBlur stdDeviation="16.8138"/>
<feComposite in2="hardAlpha" operator="out"/>
<feColorMatrix type="matrix" values="0 0 0 0 0.27451 0 0 0 0 0.278431 0 0 0 0 0.305882 0 0 0 0.2 0"/>
<feBlend mode="multiply" in2="BackgroundImageFix" result="effect1_dropShadow_5042_89864"/>
<feBlend mode="normal" in="SourceGraphic" in2="effect1_dropShadow_5042_89864" result="shape"/>
</filter>
<clipPath id="clip0_5042_89864">
<rect width="351.72" height="218.429" fill="white" transform="translate(38.5234 33)"/>
</clipPath>
</defs>
</svg>
