<svg width="128" height="128" viewBox="0 0 128 128" fill="none" xmlns="http://www.w3.org/2000/svg">
<path d="M36.6434 18.6734C36.649 18.6734 36.6544 18.6719 36.6592 18.669C40.3659 16.4274 44.2856 14.683 48.3277 13.4358C49.0393 13.2162 49.5846 12.6348 49.7363 11.9056L51.81 1.93984C52.0004 1.02501 52.7988 0.363917 53.7331 0.347581L72.0137 0.0279319C72.9479 0.0115967 73.7689 0.644263 73.9912 1.55178L76.4128 11.4373C76.59 12.1606 77.1551 12.7225 77.8738 12.9169C81.5876 13.9216 85.2122 15.3359 88.68 17.1597C89.3378 17.5057 90.1327 17.4794 90.7543 17.0719L99.2644 11.4929C100.046 10.9806 101.078 11.0777 101.75 11.7268L114.901 24.4256C115.573 25.0745 115.706 26.1022 115.222 26.9011L109.952 35.5941C109.566 36.2308 109.569 37.0277 109.939 37.6735C111.89 41.072 113.431 44.64 114.563 48.3194C114.782 49.032 115.364 49.5781 116.094 49.7299L126.06 51.8031C126.975 51.9934 127.636 52.7919 127.652 53.7262L127.972 72.0038C127.988 72.938 127.356 73.7591 126.448 73.9813L116.561 76.4026C115.838 76.5797 115.276 77.1448 115.081 77.8636C114.077 81.5766 112.662 85.2006 110.838 88.6678C110.492 89.3258 110.518 90.1209 110.926 90.7426L116.506 99.2515C117.018 100.033 116.921 101.065 116.273 101.737L103.571 114.902C102.922 115.574 101.894 115.708 101.095 115.224L92.4008 109.954C91.7642 109.568 90.9675 109.571 90.3218 109.941C86.9227 111.892 83.3541 113.433 79.674 114.565C78.9615 114.784 78.4153 115.366 78.2634 116.096L76.19 126.06C75.9997 126.975 75.2012 127.636 74.2669 127.652L55.9863 127.972C55.0521 127.988 54.2311 127.356 54.0088 126.448L51.5872 116.563C51.4101 115.839 50.845 115.278 50.1262 115.083C46.4125 114.078 42.7878 112.664 39.32 110.84C38.6622 110.494 37.8673 110.521 37.2457 110.928L28.7356 116.507C27.9541 117.019 26.9221 116.922 26.2499 116.273L13.099 103.574C12.4269 102.926 12.2936 101.898 12.778 101.099L18.0479 92.4059C18.434 91.7692 18.4315 90.9723 18.0608 90.3265C16.11 86.928 14.5687 83.36 13.4368 79.6806C13.2176 78.968 12.6359 78.4219 11.906 78.2701L1.93999 76.1969C1.02511 76.0066 0.363967 75.2081 0.347625 74.2738L0.0279415 55.9962C0.0116009 55.062 0.64433 54.2409 1.55191 54.0187L11.439 51.5974C12.1623 51.4203 12.7242 50.8552 12.9187 50.1364C13.9235 46.4234 15.3378 42.7994 17.1618 39.3322C17.508 38.6742 17.4816 37.8791 17.0739 37.2574L11.4943 28.7485C10.982 27.9673 11.0788 26.9355 11.7274 26.2631L24.4291 13.0982C25.0779 12.4257 26.1059 12.2921 26.905 12.7764L36.6275 18.669C36.6323 18.6719 36.6378 18.6734 36.6434 18.6734ZM48.1067 47.281C39.2638 56.4299 39.5199 71.0239 48.6871 79.8656C57.8373 88.7073 72.4332 88.4513 81.2761 79.2852C90.119 70.1363 89.8629 55.5423 80.6957 46.7006C71.5284 37.8589 56.9496 38.1149 48.1067 47.281Z" fill="#585960"/>
</svg>
