<svg width="24" height="24" viewBox="0 0 24 24" fill="none" xmlns="http://www.w3.org/2000/svg">
<path d="M15 22.75H9C3.57 22.75 1.25 20.43 1.25 15V9C1.25 3.57 3.57 1.25 9 1.25H15C20.43 1.25 22.75 3.57 22.75 9V15C22.75 20.43 20.43 22.75 15 22.75ZM9 2.75C4.39 2.75 2.75 4.39 2.75 9V15C2.75 19.61 4.39 21.25 9 21.25H15C19.61 21.25 21.25 19.61 21.25 15V9C21.25 4.39 19.61 2.75 15 2.75H9Z" fill="#FFA469"/>
<path d="M10.6395 9.4975C10.4495 9.4975 10.2595 9.4275 10.1095 9.2775C9.39945 8.5675 8.23945 8.5675 7.52945 9.2775C7.23945 9.5675 6.75945 9.5675 6.46945 9.2775C6.17945 8.9875 6.17945 8.5075 6.46945 8.2175C7.75945 6.9275 9.86945 6.9275 11.1695 8.2175C11.4595 8.5075 11.4595 8.9875 11.1695 9.2775C11.0195 9.4275 10.8295 9.4975 10.6395 9.4975Z" fill="#FFA469"/>
<path d="M13.3608 9.4975C13.1708 9.4975 12.9808 9.4275 12.8308 9.2775C12.5408 8.9875 12.5408 8.5075 12.8308 8.2175C14.1208 6.9275 16.2308 6.9275 17.5308 8.2175C17.8208 8.5075 17.8208 8.9875 17.5308 9.2775C17.2408 9.5675 16.7608 9.5675 16.4708 9.2775C15.7608 8.5675 14.6008 8.5675 13.8908 9.2775C13.7508 9.4275 13.5608 9.4975 13.3608 9.4975Z" fill="#FFA469"/>
<path d="M15.6 18.4469H8.4C7.49 18.4469 6.75 17.7069 6.75 16.7969C6.75 13.9069 9.1 11.5469 12 11.5469C14.9 11.5469 17.25 13.9069 17.25 16.7969C17.25 17.7069 16.51 18.4469 15.6 18.4469ZM12 13.0469C9.93 13.0469 8.25 14.7269 8.25 16.7969C8.25 16.8769 8.32 16.9469 8.4 16.9469H15.6C15.68 16.9469 15.75 16.8769 15.75 16.7969C15.75 14.7269 14.07 13.0469 12 13.0469Z" fill="#FFA469"/>
</svg>
