<svg width="24" height="24" viewBox="0 0 24 24" fill="none" xmlns="http://www.w3.org/2000/svg">
<path d="M15 22.75H9C3.57 22.75 1.25 20.43 1.25 15V9C1.25 3.57 3.57 1.25 9 1.25H15C20.43 1.25 22.75 3.57 22.75 9V15C22.75 20.43 20.43 22.75 15 22.75ZM9 2.75C4.39 2.75 2.75 4.39 2.75 9V15C2.75 19.61 4.39 21.25 9 21.25H15C19.61 21.25 21.25 19.61 21.25 15V9C21.25 4.39 19.61 2.75 15 2.75H9Z" fill="#FFA469"/>
<path d="M8.81945 9.7475C7.96945 9.7475 7.11945 9.4275 6.46945 8.7775C6.17945 8.4875 6.17945 8.0075 6.46945 7.7175C6.75945 7.4275 7.23945 7.4275 7.52945 7.7175C8.23945 8.4275 9.39945 8.4275 10.1095 7.7175C10.3995 7.4275 10.8795 7.4275 11.1695 7.7175C11.4595 8.0075 11.4595 8.4875 11.1695 8.7775C10.5195 9.4175 9.66945 9.7475 8.81945 9.7475Z" fill="#FFA469"/>
<path d="M15.1808 9.7475C14.3308 9.7475 13.4808 9.4275 12.8308 8.7775C12.5408 8.4875 12.5408 8.0075 12.8308 7.7175C13.1208 7.4275 13.6008 7.4275 13.8908 7.7175C14.6008 8.4275 15.7608 8.4275 16.4708 7.7175C16.7608 7.4275 17.2408 7.4275 17.5308 7.7175C17.8208 8.0075 17.8208 8.4875 17.5308 8.7775C16.8808 9.4175 16.0308 9.7475 15.1808 9.7475Z" fill="#FFA469"/>
<path d="M12 19.15C9.1 19.15 6.75 16.79 6.75 13.9C6.75 12.99 7.49 12.25 8.4 12.25H15.6C16.51 12.25 17.25 12.99 17.25 13.9C17.25 16.79 14.9 19.15 12 19.15ZM8.4 13.75C8.32 13.75 8.25 13.82 8.25 13.9C8.25 15.97 9.93 17.65 12 17.65C14.07 17.65 15.75 15.97 15.75 13.9C15.75 13.82 15.68 13.75 15.6 13.75H8.4Z" fill="#FFA469"/>
</svg>
