<svg width="14" height="14" viewBox="0 0 14 14" fill="none" xmlns="http://www.w3.org/2000/svg">
<path id="Vector" d="M10.6887 14C10.3435 14 9.90061 13.8885 9.34696 13.5607L7.39942 12.4C7.19751 12.282 6.80669 12.282 6.61129 12.4L4.65724 13.5607C3.50435 14.2492 2.82694 13.9738 2.52081 13.7508C2.22118 13.5279 1.75221 12.9574 2.05835 11.6459L2.52081 9.63279C2.57291 9.42295 2.4687 9.06229 2.31237 8.90492L0.697022 7.27869C-0.110653 6.46557 -0.0455177 5.77049 0.065212 5.42951C0.175942 5.08853 0.527671 4.48525 1.64799 4.29508L3.7258 3.94754C3.92121 3.91475 4.20129 3.70492 4.28597 3.52787L5.43886 1.21311C5.95994 0.157377 6.64386 0 7.0021 0C7.36034 0 8.04426 0.157377 8.56534 1.21311L9.71172 3.52131C9.80291 3.69836 10.083 3.9082 10.2784 3.94098L12.3562 4.28852C13.483 4.47869 13.8348 5.08197 13.939 5.42295C14.0432 5.76393 14.1083 6.45902 13.3072 7.27213L11.6918 8.90492C11.5355 9.06229 11.4378 9.41639 11.4834 9.63279L11.9459 11.6459C12.2455 12.9574 11.783 13.5279 11.4834 13.7508C11.3206 13.8689 11.06 14 10.6887 14Z" fill="#FFA469"/>
</svg>
