<svg width="14" height="14" viewBox="0 0 14 14" fill="none" xmlns="http://www.w3.org/2000/svg">
<path d="M7.00033 13.2682C3.54116 13.2682 0.729492 10.4566 0.729492 6.9974C0.729492 3.53823 3.54116 0.726562 7.00033 0.726562C10.4595 0.726562 13.2712 3.53823 13.2712 6.9974C13.2712 10.4566 10.4595 13.2682 7.00033 13.2682ZM7.00033 1.60156C4.02533 1.60156 1.60449 4.0224 1.60449 6.9974C1.60449 9.9724 4.02533 12.3932 7.00033 12.3932C9.97533 12.3932 12.3962 9.9724 12.3962 6.9974C12.3962 4.0224 9.97533 1.60156 7.00033 1.60156Z" fill="#FFA469"/>
<path d="M6.17184 9.08729C6.05517 9.08729 5.94434 9.04062 5.86267 8.95896L4.21184 7.30812C4.04267 7.13896 4.04267 6.85896 4.21184 6.68979C4.381 6.52062 4.661 6.52062 4.83017 6.68979L6.17184 8.03146L9.17017 5.03312C9.33934 4.86396 9.61934 4.86396 9.7885 5.03312C9.95767 5.20229 9.95767 5.48229 9.7885 5.65146L6.481 8.95896C6.39934 9.04062 6.2885 9.08729 6.17184 9.08729Z" fill="#FFA469"/>
</svg>
