<svg width="64" height="64" viewBox="0 0 64 64" fill="none" xmlns="http://www.w3.org/2000/svg">
<g id="_&#208;&#161;&#208;&#187;&#208;&#190;&#208;&#185;_1" clip-path="url(#clip0_729_31941)">
<path id="Vector" d="M64 21.7489C63.4533 22.3689 62.6617 22.5455 61.95 22.8572C59.885 23.7655 59.885 23.7572 59.12 25.8372C59.0283 26.0889 59.1017 26.2772 59.185 26.4872C59.5633 27.4339 59.925 28.3872 60.325 29.3222C60.5617 29.8739 60.4833 30.3122 60.0567 30.7339C59.0183 31.7572 57.9883 32.7889 56.9717 33.8339C56.54 34.2789 56.0833 34.3872 55.5083 34.1389C54.6683 33.7772 53.8067 33.4639 52.9683 33.0989C52.6483 32.9605 52.38 32.9555 52.0883 33.1355C51.9133 33.2439 51.725 33.3622 51.5267 33.4039C50.5517 33.6055 50.3217 34.2255 50.2467 35.1672C49.87 39.8422 47.985 43.8605 44.7383 47.2355C44.3917 47.5955 44.2383 47.9405 44.2517 48.4389C44.285 49.6255 44.2683 50.8122 44.26 52.0005C44.2517 53.0572 43.6933 53.4355 42.7133 53.0355C41.5783 52.5722 40.4467 52.0955 39.3233 51.6039C39.0133 51.4689 38.7567 51.4655 38.4383 51.6005C33.5583 53.6439 28.6267 53.7722 23.6433 51.9855C23.4717 51.9239 23.2583 51.6839 23.1017 51.9405C22.9683 52.1605 23.205 52.3139 23.345 52.4605C23.7633 52.8972 24.1817 53.3322 24.6067 53.7605C24.9483 54.1055 25.0583 54.4905 24.8633 54.9539C24.47 55.8939 24.0867 56.8372 23.6967 57.7789C23.5183 58.2105 23.19 58.4255 22.7267 58.4355C22.2683 58.4455 21.8067 58.4922 21.3533 58.4489C20.7183 58.3905 20.2517 58.5905 19.8417 59.0872C19.6017 59.3772 19.4367 59.6255 19.45 60.0155C19.4717 60.5772 19.43 61.1389 19.4283 61.7022C19.425 62.2205 19.185 62.5455 18.7083 62.7572C17.765 63.1772 16.765 63.4705 15.87 63.9989H15.245C14.66 63.6022 14.2067 63.0589 13.695 62.5805C13.155 62.0739 11.77 62.0855 11.2283 62.6039C10.7383 63.0739 10.24 63.5339 9.745 63.9989H9.12C8.25 63.5105 7.30833 63.1772 6.38667 62.8122C5.74333 62.5572 5.47833 62.1472 5.50833 61.4789C5.52833 61.0422 5.48833 60.6039 5.50833 60.1672C5.52333 59.8322 5.38 59.6089 5.18333 59.3439C4.61333 58.5805 3.88667 58.3105 2.97 58.4372C2.78667 58.4622 2.595 58.4189 2.40833 58.4289C1.78167 58.4639 1.42167 58.1739 1.18 57.5939C0.805 56.6822 0.526667 55.7239 0 54.8739C0 54.6239 0 54.3739 0 54.1239C0.501667 53.6072 0.99 53.0755 1.51167 52.5789C1.78833 52.3155 1.86167 52.0322 1.90167 51.6572C1.97833 50.9422 1.72667 50.4405 1.20333 49.9872C0.77 49.6122 0.398333 49.1655 0 48.7489C0 48.4989 0 48.2489 0 47.9989C0.526667 47.1972 0.791667 46.2772 1.14 45.3989C1.41 44.7172 1.82333 44.3939 2.55667 44.4622C2.86667 44.4905 3.19 44.4122 3.49167 44.4655C4.33167 44.6139 4.85 44.1555 5.345 43.5889C5.50333 43.4089 5.50833 43.2205 5.51167 43.0139C5.51667 42.4105 5.52333 41.8055 5.52833 41.2022C5.53333 40.6872 5.77167 40.3422 6.25333 40.1455C7.15833 39.7772 8.06167 39.4039 8.96 39.0189C9.44333 38.8122 9.845 38.8972 10.2083 39.2672C10.5883 39.6539 10.9833 40.0239 11.3617 40.4122C11.5467 40.6022 11.76 40.7972 12.005 40.6255C12.23 40.4689 11.9817 40.2572 11.9267 40.0822C9.65 32.9955 10.8033 26.5372 15.45 20.7105C15.705 20.3905 15.9833 20.1205 16.4467 20.2022C17.2617 20.3455 17.505 21.1805 16.91 21.8772C15.6383 23.3639 14.6383 25.0122 13.9417 26.8355C12.3767 30.9305 12.2233 35.0689 13.625 39.2422C13.71 39.4955 13.815 39.7422 13.9233 40.0272C14.3083 39.8172 14.5383 39.4889 14.8233 39.2239C15.165 38.9072 15.5317 38.8189 15.9683 39.0022C16.9067 39.3989 17.8483 39.7872 18.79 40.1772C19.2233 40.3572 19.4317 40.6872 19.445 41.1489C19.4517 41.3989 19.4967 41.6555 19.4533 41.8972C19.2717 42.8955 19.73 43.5972 20.4367 44.2172C20.6267 44.3839 20.8067 44.4572 21.0483 44.4572C21.61 44.4572 22.1733 44.4789 22.735 44.4739C23.2117 44.4705 23.5283 44.6939 23.7067 45.1189C24.1 46.0589 24.4733 47.0072 24.8733 47.9439C25.14 48.5689 24.7983 48.9622 24.405 49.3672C23.7317 50.0589 23.575 49.9822 24.65 50.3455C29.1867 51.8789 33.6583 51.6872 38.0317 49.7222C38.5917 49.4705 39.0733 49.4322 39.6333 49.6939C40.5133 50.1039 41.4217 50.4522 42.395 50.8589C42.395 49.8122 42.4283 48.8572 42.3833 47.9039C42.3517 47.2239 42.5783 46.7355 43.065 46.2555C46.6167 42.7522 48.4317 38.4822 48.4883 33.5022C48.5767 25.7655 43.54 18.8572 36.165 16.4922C30.5717 14.6972 25.3267 15.3689 20.445 18.6772C19.8133 19.1055 19.335 19.0555 18.9833 18.5422C18.6367 18.0372 18.7717 17.5622 19.3967 17.1322C22.57 14.9589 26.0867 13.8105 29.9267 13.6872C30.4383 13.6705 30.5783 13.4372 30.8083 13.0389C31.35 12.1039 31.2583 11.2622 30.785 10.3522C30.4617 9.72719 30.2633 9.03885 29.9883 8.38719C29.795 7.92552 29.875 7.54219 30.225 7.19385C31.33 6.08885 32.4317 4.98219 33.53 3.87052C33.8833 3.51385 34.2783 3.46219 34.7283 3.64719C35.6133 4.01052 36.5067 4.35219 37.385 4.73385C37.7267 4.88219 38 4.85552 38.32 4.68052C38.7383 4.45219 39.1733 4.22719 39.6283 4.10052C40.3133 3.91052 40.7117 3.52219 40.9267 2.84385C41.1267 2.21219 41.4567 1.62385 41.695 1.00219C41.8467 0.607188 42.0667 0.273854 42.375 -0.0078125H48C48.3417 0.303854 48.5433 0.702187 48.715 1.12219C48.9583 1.71885 49.245 2.29719 49.4583 2.90385C49.665 3.48885 49.9667 3.88219 50.615 4.04885C51.15 4.18552 51.6483 4.47552 52.1467 4.73219C52.4133 4.86885 52.635 4.87385 52.9083 4.75719C53.7867 4.38219 54.6817 4.04719 55.56 3.67219C56.0883 3.44719 56.51 3.53385 56.9117 3.94385C57.9583 5.01552 59.015 6.07552 60.08 7.12719C60.49 7.53219 60.5567 7.96052 60.3367 8.48385C59.9417 9.42052 59.575 10.3705 59.1983 11.3155C59.0367 11.7222 59.7717 13.9705 60.1417 14.1922C60.2483 14.2555 60.3683 14.2955 60.4833 14.3439C61.3233 14.7039 62.16 15.0705 63.005 15.4172C63.395 15.5755 63.7383 15.7822 64 16.1155V21.7405V21.7489ZM44.9817 10.0889C47.9017 10.1539 50.3183 11.1955 52.1183 13.4589C55.4033 17.5872 54.2533 23.7839 49.715 26.4972C49.3183 26.7339 49.2267 26.9305 49.3867 27.3689C49.7667 28.4055 49.995 29.4855 50.145 30.5822C50.3333 31.9539 50.3483 31.9739 51.565 31.2822C52.1217 30.9655 52.6267 30.9055 53.215 31.1789C53.9317 31.5105 54.6833 31.7639 55.405 32.0872C55.7667 32.2489 55.9967 32.1889 56.2617 31.8989C56.84 31.2705 57.44 30.6605 58.0683 30.0839C58.3867 29.7905 58.41 29.5372 58.245 29.1589C57.8867 28.3405 57.5883 27.4955 57.2367 26.6722C57.0417 26.2172 57.0317 25.7989 57.2683 25.3589C57.665 24.6239 57.9733 23.8489 58.19 23.0455C58.3283 22.5305 58.63 22.2289 59.1083 22.0339C59.975 21.6822 60.8267 21.2905 61.695 20.9422C62.0083 20.8155 62.14 20.6539 62.13 20.3005C62.1033 19.3839 62.1033 18.4672 62.13 17.5505C62.14 17.2005 62.0217 17.0289 61.7033 16.9005C60.8167 16.5422 59.95 16.1339 59.0617 15.7805C58.5917 15.5939 58.3283 15.2872 58.195 14.8039C57.9733 14.0005 57.6683 13.2239 57.2733 12.4905C57.0367 12.0522 57.0367 11.6355 57.2317 11.1772C57.5917 10.3355 57.8933 9.47052 58.2617 8.63385C58.425 8.26385 58.355 8.03385 58.075 7.76719C57.44 7.16552 56.82 6.54719 56.225 5.90552C55.9667 5.62719 55.7483 5.60219 55.41 5.75052C54.6117 6.10385 53.7917 6.40719 52.9867 6.74552C52.5717 6.91885 52.2 6.90052 51.7983 6.67552C51.2733 6.38052 50.7417 6.01219 50.17 5.90385C48.705 5.62552 48.06 4.67052 47.6 3.36719C47.0633 1.84885 46.995 1.86885 45.3783 1.87552C44.715 1.87885 43.9 1.67552 43.4333 1.98552C42.965 2.29552 42.7867 3.11219 42.5867 3.73885C42.245 4.80885 41.6817 5.58385 40.4967 5.76552C40.2767 5.79885 40.0383 5.88552 39.8633 6.02052C38.5133 7.05552 37.1917 6.84886 35.7617 6.12219C34.5183 5.49052 34.4717 5.57552 33.495 6.56219C32.9833 7.07885 32.2233 7.53219 32.0433 8.14886C31.8533 8.80385 32.4267 9.55385 32.75 10.2155C33.26 11.2589 33.4367 12.2439 32.72 13.2555C32.4083 13.6955 32.6733 13.7972 33.075 13.8389C34.3433 13.9705 35.58 14.2555 36.78 14.6755C37.2117 14.8255 37.4033 14.7605 37.6483 14.3589C39.3267 11.6005 41.8033 10.1922 44.9783 10.0889H44.9817ZM9.12 40.9905C8.79333 41.1239 8.43667 41.3039 8.06 41.4155C7.55 41.5672 7.295 41.8355 7.38167 42.3989C7.57 43.6189 7.165 44.5422 6.22333 45.4122C5.55167 46.0339 4.94167 46.4472 4.055 46.3072C3.055 46.1505 2.55667 46.5639 2.27833 47.5105C2.13 48.0155 2.09 48.3589 2.53 48.6889C3.53667 49.4455 3.91667 50.3939 3.80167 51.7055C3.725 52.5789 3.61667 53.2989 2.89833 53.8139C2.105 54.3839 2.02167 55.0072 2.475 55.8739C2.745 56.3889 2.99 56.6622 3.57833 56.5839C4.66833 56.4372 5.59167 56.6889 6.18 57.7189C6.27 57.8755 6.42167 58.0155 6.57667 58.1139C7.25833 58.5439 7.49833 59.1722 7.37 59.9339C7.21 60.8855 7.555 61.3955 8.505 61.6872C9.06333 61.8589 9.41167 61.8839 9.77833 61.4189C10.3867 60.6489 11.1233 60.3589 12.1783 60.3089C13.5883 60.2405 14.6417 60.5589 15.4617 61.6822C15.64 61.9272 15.8483 61.9072 16.1183 61.8055C17.57 61.2622 17.5733 61.2705 17.5933 59.7255C17.595 59.5805 17.6083 59.4339 17.5967 59.2889C17.5617 58.8372 17.8 58.5389 18.0667 58.1922C19.0267 56.9422 20.2017 56.2855 21.81 56.5789C22.0833 56.6289 22.205 56.4672 22.3167 56.2305C22.9917 54.7972 22.9967 54.8005 21.905 53.6655C21.7467 53.5005 21.585 53.3372 21.43 53.1689C21.225 52.9439 21.1533 52.6772 21.1417 52.3705C21.085 50.8372 21.2133 49.3855 22.675 48.4422C22.895 48.3005 22.935 48.0889 22.8 47.8439C22.7017 47.6622 22.6083 47.4672 22.565 47.2672C22.4 46.5205 21.9867 46.2005 21.1983 46.3222C20.2117 46.4739 19.41 46.1572 18.8667 45.2689C18.74 45.0622 18.5417 44.8805 18.3383 44.7422C17.74 44.3355 17.5717 43.7855 17.5867 43.0805C17.6167 41.6972 17.5733 41.7222 16.3367 41.1689C15.8717 40.9605 15.5783 41.0189 15.2717 41.4005C14.59 42.2522 13.7967 42.8605 12.6067 42.5189C12.51 42.4905 12.3917 42.4922 12.2967 42.5222C11.2317 42.8505 10.5017 42.3505 9.87333 41.5689C9.75667 41.4239 9.61 41.3022 9.475 41.1722C9.38667 41.0872 9.305 40.9855 9.12 40.9905ZM44.92 11.9422C42.7183 12.0022 40.7967 13.0522 39.3817 15.0672C39.09 15.4822 39.175 15.6472 39.61 15.8705C43.385 17.8189 46.2483 20.6939 48.185 24.4722C48.4533 24.9955 48.63 25.0122 49.075 24.7039C51.63 22.9272 52.6883 19.8589 51.76 16.8305C50.8517 13.8689 48.3083 11.9805 44.92 11.9439V11.9422Z" fill="#65666D"/>
<path id="Vector_2" d="M24.8832 34.6817C24.8832 35.5984 24.8932 36.515 24.8799 37.4317C24.8632 38.5734 24.1049 39.345 22.9716 39.3984C19.9416 39.5384 17.8482 37.85 17.5782 34.9834C17.4249 33.3567 18.0232 31.9984 19.3049 30.975C19.6032 30.7367 19.7516 30.4934 19.8166 30.1134C20.7349 24.6734 25.2532 20.8617 30.7449 20.875C36.0099 20.8884 40.6132 24.9067 41.3599 30.1634C41.4082 30.5084 41.5466 30.7134 41.8099 30.92C44.1716 32.77 44.2349 36.3617 41.9266 38.2734C41.5766 38.5634 41.4849 38.8534 41.4832 39.2784C41.4699 41.9867 39.7716 44.0684 37.1366 44.6134C36.8532 44.6717 36.7216 44.805 36.5899 45.0434C36.0649 45.9984 35.2449 46.4934 34.1499 46.505C33.5049 46.5117 32.8566 46.5284 32.2132 46.4917C30.7549 46.4067 29.6982 45.2967 29.6566 43.8434C29.6149 42.4284 30.6016 41.255 32.0332 41.105C32.7749 41.0267 33.5316 41.0434 34.2782 41.0684C35.2682 41.1 36.0332 41.565 36.5266 42.4217C36.6916 42.7084 36.8432 42.7984 37.1666 42.705C38.4116 42.3484 39.4766 41.08 39.5982 39.8017C39.6266 39.505 39.5499 39.375 39.2382 39.39C38.8849 39.4067 38.5299 39.4084 38.1766 39.3934C37.1099 39.3517 36.3016 38.6034 36.2816 37.5384C36.2466 35.6234 36.2466 33.705 36.2816 31.79C36.3016 30.6367 37.1666 29.9034 38.4016 29.8867C39.116 29.8767 39.3543 29.5267 39.1166 28.8367C37.8199 25.0617 34.3416 22.6534 30.3516 22.765C26.3416 22.8784 23.0216 25.4484 21.8982 29.2767C21.7382 29.8217 21.8632 29.9517 22.4099 29.895C23.1332 29.82 23.8282 29.93 24.3616 30.505C24.7166 30.8884 24.8899 31.3417 24.8866 31.8667C24.8816 32.8034 24.8866 33.7417 24.8866 34.6784L24.8832 34.6817ZM38.1399 34.6134C38.1399 35.445 38.1516 36.275 38.1332 37.1067C38.1266 37.4367 38.2566 37.5284 38.5682 37.5417C40.3516 37.6234 41.7232 36.3967 41.7432 34.685C41.7632 32.96 40.3649 31.6767 38.5699 31.75C38.2532 31.7634 38.1266 31.855 38.1332 32.1834C38.1499 32.9934 38.1382 33.8034 38.1382 34.6134H38.1399ZM23.0116 34.6584C23.0116 33.87 22.9866 33.08 23.0216 32.2934C23.0416 31.8367 22.8666 31.74 22.4482 31.75C20.6599 31.795 19.3816 33.0284 19.4216 34.7034C19.4632 36.4034 20.7549 37.5684 22.5482 37.5434C22.8849 37.5384 23.0299 37.455 23.0199 37.0884C22.9949 36.28 23.0116 35.47 23.0132 34.66L23.0116 34.6584ZM33.2516 44.6234C33.2516 44.6234 33.2516 44.6267 33.2516 44.6284C33.5832 44.6284 33.9166 44.65 34.2466 44.6234C34.6966 44.5867 34.9716 44.33 35.0099 43.8717C35.0499 43.3934 34.8382 43.04 34.3549 42.9684C33.6366 42.8617 32.9066 42.8617 32.1882 42.9684C31.7299 43.0367 31.5149 43.3817 31.5332 43.8184C31.5516 44.2567 31.8032 44.565 32.2582 44.615C32.5866 44.6517 32.9199 44.6217 33.2516 44.6217V44.6234Z" fill="#65666D"/>
<path id="Vector_3" d="M2.00345 23.5831C2.04845 23.0665 2.51512 22.6898 3.03845 22.7481C3.52845 22.8031 3.90512 23.2581 3.86012 23.7398C3.81512 24.2265 3.30179 24.6415 2.81179 24.5881C2.33012 24.5348 1.96012 24.0748 2.00345 23.5831Z" fill="#65666D"/>
<path id="Vector_4" d="M1.00783 38.4397C1.01116 37.9331 1.47116 37.4947 1.97783 37.5164C2.4695 37.5364 2.87116 37.9564 2.87116 38.4497C2.87116 38.9431 2.4595 39.3697 1.97783 39.3747C1.4745 39.3797 1.0045 38.9264 1.00783 38.4397Z" fill="#65666D"/>
<path id="Vector_5" d="M15.8506 8.15313C15.8589 8.63313 15.4423 9.07813 14.9606 9.10146C14.4489 9.12646 13.9989 8.69979 13.9923 8.17979C13.9856 7.67479 14.3706 7.26479 14.8706 7.24313C15.3956 7.21979 15.8423 7.63479 15.8506 8.15146V8.15313Z" fill="#65666D"/>
<path id="Vector_6" d="M20.2287 5.79948C20.2154 6.30782 19.7421 6.76615 19.2521 6.74615C18.7621 6.72615 18.3604 6.28782 18.3754 5.78948C18.3904 5.29448 18.8154 4.88115 19.3087 4.88282C19.8054 4.88282 20.2404 5.31782 20.2287 5.79948Z" fill="#65666D"/>
<path id="Vector_7" d="M2.36956 33.4933C2.36622 33.99 1.96456 34.39 1.45956 34.4017C0.929556 34.4133 0.501223 33.995 0.507889 33.4733C0.514556 32.98 0.922889 32.5683 1.41789 32.555C1.93456 32.5417 2.37289 32.975 2.36956 33.4933Z" fill="#65666D"/>
<path id="Vector_8" d="M2.6976 28.5158C2.68927 29.0124 2.20594 29.4574 1.70094 29.4324C1.20094 29.4091 0.82927 28.9841 0.852603 28.4641C0.875937 27.9458 1.27094 27.5808 1.79427 27.5941C2.30427 27.6074 2.70594 28.0158 2.6976 28.5158Z" fill="#65666D"/>
<path id="Vector_9" d="M5.82165 19.0538C5.83498 19.5454 5.37665 20.0021 4.87665 19.9988C4.37498 19.9954 3.98498 19.6021 3.97665 19.0921C3.96998 18.5888 4.34998 18.1704 4.84332 18.1421C5.34665 18.1121 5.80832 18.5438 5.82165 19.0538Z" fill="#65666D"/>
<path id="Vector_10" d="M8.51575 14.8868C8.51908 15.4018 8.07575 15.8401 7.57075 15.8235C7.08575 15.8085 6.66575 15.3785 6.66408 14.8968C6.66075 14.3801 7.09408 13.9651 7.62408 13.9768C8.13575 13.9885 8.51408 14.3735 8.51741 14.8851L8.51575 14.8868Z" fill="#65666D"/>
<path id="Vector_11" d="M10.9477 10.2896C11.4377 10.2729 11.8627 10.6696 11.8894 11.1679C11.9194 11.7062 11.5294 12.1312 10.9977 12.1429C10.4927 12.1529 10.0744 11.7762 10.041 11.2796C10.006 10.7796 10.441 10.3062 10.9494 10.2896H10.9477Z" fill="#65666D"/>
<path id="Vector_12" d="M29.8846 3.4986C29.8846 4.01027 29.5063 4.40027 28.9946 4.41527C28.4746 4.43027 28.0296 4.00527 28.0313 3.49527C28.0313 2.98527 28.4779 2.56193 28.9996 2.5786C29.5096 2.5936 29.8863 2.98693 29.8863 3.50027L29.8846 3.4986Z" fill="#65666D"/>
<path id="Vector_13" d="M24.0547 3.3204C24.553 3.32706 24.983 3.7604 24.9647 4.23706C24.9463 4.71706 24.508 5.15206 24.038 5.16206C23.5097 5.17206 23.0963 4.74373 23.118 4.20373C23.1363 3.69706 23.5447 3.31373 24.0563 3.3204H24.0547Z" fill="#65666D"/>
<path id="Vector_14" d="M44.3748 59.7295C44.3648 60.2195 43.9415 60.6278 43.4515 60.6212C42.9631 60.6145 42.4931 60.1278 42.5165 59.6512C42.5398 59.1678 42.9698 58.7612 43.4581 58.7578C43.9615 58.7545 44.3848 59.2028 44.3731 59.7295H44.3748Z" fill="#65666D"/>
<path id="Vector_15" d="M61.1966 36.4553C61.2 36.9553 60.79 37.3787 60.295 37.3837C59.79 37.3887 59.345 36.9353 59.3516 36.422C59.3583 35.9287 59.7883 35.512 60.2816 35.5237C60.7683 35.5353 61.1933 35.967 61.1966 36.4553Z" fill="#65666D"/>
<path id="Vector_16" d="M47.792 56.2734C48.2953 56.2834 48.7353 56.7518 48.7103 57.2534C48.6853 57.7484 48.2653 58.1418 47.7687 58.1334C47.2487 58.1251 46.837 57.6851 46.8603 57.1634C46.882 56.6701 47.307 56.2651 47.792 56.2751V56.2734Z" fill="#65666D"/>
<path id="Vector_17" d="M38.7962 60.5C39.3162 60.5034 39.7278 60.94 39.7095 61.4667C39.6928 61.9484 39.2445 62.3734 38.7728 62.3534C38.2828 62.3317 37.8678 61.9167 37.8595 61.4367C37.8512 60.9084 38.2628 60.495 38.7945 60.5H38.7962Z" fill="#65666D"/>
<path id="Vector_18" d="M59.1948 42.2585C58.6915 42.2368 58.3215 41.8168 58.3448 41.2952C58.3681 40.7935 58.7981 40.3885 59.2881 40.4068C59.7765 40.4252 60.1931 40.8619 60.1881 41.3519C60.1831 41.8602 59.7198 42.2819 59.1948 42.2602V42.2585Z" fill="#65666D"/>
<path id="Vector_19" d="M58.3697 45.9966C58.3631 46.4966 57.9014 46.9233 57.3914 46.9016C56.8964 46.8816 56.4964 46.4582 56.5081 45.9699C56.5197 45.4849 56.9397 45.0649 57.4247 45.0549C57.9364 45.0432 58.3747 45.4816 58.3697 45.9982V45.9966Z" fill="#65666D"/>
<path id="Vector_20" d="M51.6095 54.9628C51.1062 54.9561 50.6729 54.4911 50.6962 53.9844C50.7195 53.4778 51.1179 53.1044 51.6295 53.1094C52.1662 53.1144 52.5562 53.5278 52.5362 54.0678C52.5179 54.5561 52.0895 54.9694 51.6095 54.9628Z" fill="#65666D"/>
<path id="Vector_21" d="M28.8649 61.4847C29.3999 61.4714 29.8249 61.8814 29.8216 62.4064C29.8182 62.8947 29.4049 63.3197 28.9182 63.3364C28.4032 63.3547 27.9732 62.9264 27.9766 62.398C27.9782 61.8797 28.3516 61.4964 28.8666 61.4847H28.8649Z" fill="#65666D"/>
<path id="Vector_22" d="M23.9042 62.5522C23.4176 62.5372 23.0026 62.0872 23.0242 61.5989C23.0476 61.1022 23.4709 60.7105 23.9742 60.7189C24.5176 60.7289 24.9126 61.1555 24.8776 61.6939C24.8459 62.1772 24.4026 62.5689 23.9026 62.5522H23.9042Z" fill="#65666D"/>
<path id="Vector_23" d="M33.8901 61.3906C34.4001 61.3973 34.8184 61.8473 34.7968 62.369C34.7751 62.8773 34.3751 63.259 33.8684 63.254C33.3401 63.249 32.9401 62.8223 32.9618 62.2873C32.9818 61.7923 33.4018 61.3856 33.8884 61.3923L33.8901 61.3906Z" fill="#65666D"/>
<path id="Vector_24" d="M54.8383 51.1712C54.33 51.1546 53.9433 50.7462 53.9533 50.2346C53.9633 49.6962 54.3933 49.3046 54.9366 49.3379C55.45 49.3696 55.815 49.7779 55.7916 50.2979C55.77 50.7929 55.34 51.1879 54.84 51.1712H54.8383Z" fill="#65666D"/>
<path id="Vector_25" d="M6.32031 51.3646C6.48531 48.873 7.58865 46.953 9.89698 45.873C12.1786 44.8046 14.3903 45.083 16.3353 46.6613C18.3036 48.2563 18.9586 50.388 18.467 52.8696C18.4436 52.9913 18.407 53.113 18.367 53.2296C18.1786 53.7813 17.717 54.048 17.2086 53.903C16.697 53.7563 16.432 53.2996 16.5753 52.7296C16.762 51.9913 16.8286 51.2596 16.6503 50.5096C16.1003 48.1846 13.8136 46.723 11.5336 47.2496C9.29198 47.768 7.82698 50.0446 8.29365 52.2863C8.78865 54.663 11.0203 56.133 13.392 55.643C13.5136 55.618 13.6353 55.588 13.7586 55.5646C14.3003 55.4663 14.7536 55.7246 14.882 56.203C15.022 56.7263 14.772 57.1963 14.2136 57.3646C12.7603 57.8063 11.3186 57.7363 9.95865 57.0613C7.62531 55.9046 6.42865 53.9913 6.32198 51.3646H6.32031Z" fill="#65666D"/>
</g>
<defs>
<clipPath id="clip0_729_31941">
<rect width="64" height="64" fill="white"/>
</clipPath>
</defs>
</svg>
