<svg width="64" height="64" viewBox="0 0 64 64" fill="none" xmlns="http://www.w3.org/2000/svg">
<g id="_&#208;&#161;&#208;&#187;&#208;&#190;&#208;&#185;_1" clip-path="url(#clip0_729_31983)">
<path id="Vector" d="M45.25 64H42.125C42.01 63.885 41.8567 63.9017 41.715 63.8883C38.7283 63.6 35.9533 62.6617 33.3867 61.1183C32.9917 60.8817 32.6067 60.785 32.1567 60.785C23.0833 60.7933 14.0117 60.79 4.93833 60.79C4.62667 60.79 4.31333 60.79 4.00167 60.7733C2.26167 60.675 0.793333 59.5417 0.221667 57.8867C0.148333 57.675 0.175 57.4267 0 57.25V8.875C0.836667 6.03 2.76833 5.235 5.24833 5.32167C8.03 5.41833 10.8183 5.345 13.6033 5.34167C13.8233 5.34167 14.0833 5.425 14.2433 5.20167C14.85 4.35167 15.7217 4.19 16.6767 4.265C17.055 4.295 17.1983 4.16 17.3117 3.78667C17.7467 2.34833 18.655 1.28333 19.995 0.581667C20.515 0.31 21.085 0.2 21.6267 0H23.2517C23.35 0.141667 23.5117 0.108333 23.6467 0.145C25.5317 0.66 26.8317 1.82833 27.45 3.68167C27.6067 4.15 27.79 4.31167 28.265 4.26833C29.06 4.19667 29.825 4.32333 30.36 4.985C30.6033 5.285 30.8583 5.35333 31.2133 5.35167C34.19 5.34167 37.1683 5.345 40.145 5.34667C40.5817 5.34667 41.02 5.33667 41.45 5.43833C43.5033 5.915 44.7817 7.57333 44.7883 9.82333C44.7983 14.0917 44.7867 18.36 44.7967 22.6283C44.7983 23.5917 44.5833 23.495 45.68 23.5967C53.965 24.3567 61.07 30.3183 63.2683 38.3433C63.6217 39.63 63.77 40.9467 64 42.2517V45.2517C63.9633 45.4117 63.9083 45.5717 63.8933 45.7333C63.1017 53.9783 57.2167 60.995 49.22 63.2483C47.9167 63.615 46.5767 63.7633 45.25 64.0017V64ZM26.5033 54.3917C26.2817 53.9917 26.12 53.7033 25.9617 53.415C23.835 49.5233 22.965 45.35 23.675 40.99C25.0367 32.6317 29.8483 27.0983 37.8683 24.3767C38.28 24.2367 38.4033 24.0683 38.4 23.6433C38.3833 19.8733 38.3833 16.1033 38.4 12.3333C38.4017 11.89 38.3217 11.7217 37.8283 11.7283C35.6 11.7567 33.37 11.7467 31.1417 11.735C30.8 11.7333 30.5683 11.825 30.3467 12.0967C29.975 12.555 29.46 12.7817 28.865 12.7833C24.5533 12.7867 20.2417 12.7867 15.93 12.7833C15.335 12.7833 14.8117 12.5567 14.45 12.0967C14.2083 11.79 13.9483 11.735 13.5967 11.7367C11.43 11.7483 9.26333 11.7617 7.09833 11.7283C6.53333 11.72 6.37667 11.865 6.37667 12.4433C6.39333 26.1917 6.39333 39.9383 6.37667 53.6867C6.37667 54.2617 6.52833 54.4067 7.09667 54.405C13.325 54.385 19.5533 54.3917 25.7817 54.3917H26.5033ZM25.6117 43.7383C25.6117 53.73 33.735 61.8633 43.7217 61.8717C53.6983 61.8783 61.8533 53.7417 61.8683 43.76C61.885 33.75 53.7283 25.5983 43.71 25.6117C33.7033 25.625 25.6083 33.7317 25.61 43.74L25.6117 43.7383ZM29.93 58.5683C29.4333 58.0483 28.9183 57.57 28.4817 57.0283C28.1583 56.6267 27.8067 56.5117 27.3067 56.5117C20.4117 56.5283 13.515 56.525 6.62 56.52C5.13833 56.52 4.265 55.6667 4.265 54.215C4.26167 40.1117 4.26167 26.0067 4.265 11.9033C4.265 10.4783 5.14 9.61667 6.57167 9.61167C8.48833 9.605 10.405 9.61 12.3217 9.61C13.8883 9.61 13.8617 9.61 13.8883 8.065C13.8983 7.53 13.6917 7.46667 13.2417 7.46833C10.4083 7.485 7.575 7.47667 4.74167 7.47667C2.88167 7.47667 2.13333 8.22667 2.13333 10.09C2.13333 25.4017 2.13333 40.715 2.13333 56.0267C2.13333 57.8967 2.88 58.655 4.72833 58.655C12.895 58.655 21.0617 58.655 29.2283 58.6517C29.4467 58.6517 29.6783 58.715 29.9333 58.565L29.93 58.5683ZM22.3117 10.6567C24.27 10.6567 26.2283 10.6383 28.1867 10.6683C28.6967 10.6767 28.8267 10.5067 28.8 10.0317C28.7633 9.36667 28.8017 8.69833 28.7867 8.03167C28.775 7.51333 29.0067 6.84333 28.695 6.51667C28.3533 6.15833 27.6683 6.405 27.135 6.395C25.94 6.375 25.7417 6.215 25.5867 5.03C25.3767 3.43 24.1667 2.24833 22.62 2.13667C21.12 2.02833 19.7383 2.99833 19.325 4.47C19.2533 4.72667 19.24 5.00167 19.2067 5.27C19.1067 6.05 18.76 6.37333 17.98 6.38667C17.48 6.395 16.9783 6.41333 16.48 6.38167C16.09 6.35667 15.98 6.49333 15.9883 6.875C16.0117 7.93667 16.0283 9.00167 15.9833 10.0617C15.9617 10.5867 16.1617 10.67 16.6217 10.665C18.5167 10.6433 20.4133 10.655 22.3083 10.655L22.3117 10.6567ZM42.655 16.2967C42.655 14.1533 42.66 12.01 42.655 9.86667C42.65 8.29 41.8433 7.48167 40.275 7.47833C37.6733 7.47333 35.0717 7.47833 32.4717 7.47833C30.9017 7.47833 30.9217 7.47833 30.9183 9.04167C30.9183 9.525 31.08 9.625 31.53 9.62167C33.6733 9.6 35.8167 9.61167 37.96 9.61167C39.7783 9.61167 40.5217 10.3617 40.5217 12.195C40.5217 15.8583 40.5267 19.52 40.515 23.1833C40.515 23.595 40.5633 23.8167 41.0583 23.6833C41.375 23.5983 41.7183 23.585 42.05 23.5833C42.5117 23.58 42.675 23.41 42.6683 22.9183C42.6383 20.7133 42.655 18.5067 42.655 16.3V16.2967Z" fill="#65666D"/>
<path id="Vector_2" d="M18.1306 22.387C15.7373 22.387 13.3439 22.3886 10.9506 22.387C10.0773 22.387 9.62392 22.0253 9.61726 21.342C9.61059 20.662 10.0856 20.2603 10.9273 20.2603C15.7339 20.257 20.5406 20.257 25.3489 20.2603C26.1956 20.2603 26.6589 20.6603 26.6489 21.3503C26.6373 22.022 26.2023 22.3853 25.3723 22.387C22.9589 22.392 20.5439 22.387 18.1306 22.387Z" fill="#65666D"/>
<path id="Vector_3" d="M16.5194 34.1292C14.6477 34.1292 12.7777 34.1325 10.906 34.1292C10.0677 34.1275 9.59937 33.7242 9.61771 33.0358C9.63437 32.3792 10.091 32.0025 10.906 32.0025C14.6694 31.9992 18.4327 31.9992 22.196 32.0025C22.971 32.0025 23.471 32.4325 23.471 33.0658C23.471 33.7008 22.9727 34.1258 22.196 34.1275C20.3044 34.1325 18.4127 34.1292 16.521 34.1292H16.5194Z" fill="#65666D"/>
<path id="Vector_4" d="M14.9439 43.7383C16.2972 43.7383 17.6489 43.7333 19.0022 43.7383C19.8006 43.7416 20.2622 44.1416 20.2572 44.8033C20.2522 45.4566 19.7806 45.8633 18.9856 45.8633C16.2806 45.8683 13.5756 45.8683 10.8689 45.8633C10.0772 45.8616 9.61223 45.4499 9.61723 44.7866C9.62223 44.1199 10.0722 43.7399 10.8856 43.7366C12.2389 43.7316 13.5906 43.7366 14.9439 43.7366V43.7383Z" fill="#65666D"/>
<path id="Vector_5" d="M36.2621 18.2529C36.2754 18.4362 36.1221 18.6829 35.9454 18.9179C34.9471 20.2496 33.9571 21.5862 32.9488 22.9096C32.4121 23.6146 31.7771 23.6562 31.1454 23.0546C30.8138 22.7396 30.4838 22.4196 30.1804 22.0779C29.7771 21.6262 29.7688 21.0862 30.1238 20.6612C30.5004 20.2096 31.0571 20.1146 31.5654 20.5079C31.8838 20.7546 32.0004 20.6396 32.1838 20.3879C32.8871 19.4329 33.6038 18.4879 34.3154 17.5412C34.6454 17.1012 35.0938 16.9779 35.5904 17.1579C36.0171 17.3112 36.2404 17.6579 36.2621 18.2512V18.2529Z" fill="#65666D"/>
<path id="Vector_6" d="M27.7422 43.7689C27.7272 34.9205 34.8889 27.7405 43.7272 27.7422C52.5389 27.7422 59.7139 34.8922 59.7372 43.6972C59.7622 52.5072 52.5539 59.7339 43.7372 59.7405C34.9422 59.7455 27.7555 52.5705 27.7422 43.7705V43.7689ZM42.2872 29.9522C39.4972 30.2872 37.1189 31.2922 35.0122 32.9655C34.7522 33.1722 34.7855 33.2939 34.9955 33.4905C35.3455 33.8172 35.6805 34.1605 36.0139 34.5039C36.6005 35.1072 36.6522 35.7322 36.1672 36.1989C35.6972 36.6505 35.0972 36.5922 34.5189 36.0289C34.1605 35.6805 33.8039 35.3305 33.4622 34.9655C33.2705 34.7605 33.1539 34.7789 32.9805 34.9972C31.2905 37.1172 30.2655 39.5072 29.9655 42.2089C29.9222 42.5922 30.0505 42.6755 30.3955 42.6622C30.9355 42.6439 31.4805 42.6339 32.0189 42.6722C32.6705 42.7189 33.0739 43.1805 33.0489 43.7789C33.0255 44.3522 32.6205 44.7522 31.9872 44.7822C31.4672 44.8055 30.9455 44.8105 30.4255 44.7855C30.0355 44.7672 29.9239 44.8889 29.9689 45.2855C30.2755 47.9622 31.2839 50.3389 32.9622 52.4422C33.1555 52.6855 33.2789 52.7022 33.4889 52.4755C33.8439 52.0955 34.2155 51.7289 34.5922 51.3705C35.1172 50.8705 35.7655 50.8472 36.1989 51.2972C36.6255 51.7389 36.5989 52.3405 36.1139 52.8539C35.7572 53.2322 35.3872 53.6005 35.0089 53.9572C34.8055 54.1489 34.7405 54.2789 35.0039 54.4905C37.1222 56.1839 39.5239 57.1905 42.2172 57.5072C42.6055 57.5522 42.6705 57.3839 42.6622 57.0522C42.6489 56.4905 42.6339 55.9255 42.6855 55.3672C42.7405 54.7705 43.2472 54.3655 43.7939 54.4005C44.3355 54.4355 44.7422 54.8389 44.7772 55.4255C44.8055 55.9022 44.8322 56.3872 44.7805 56.8605C44.7172 57.4555 44.9539 57.5655 45.4889 57.4872C47.7072 57.1622 49.7555 56.4105 51.6022 55.1272C52.3955 54.5761 52.4578 53.9655 51.7889 53.2955C51.6705 53.1772 51.5522 53.0605 51.4372 52.9405C50.8889 52.3739 50.8272 51.7472 51.2739 51.2905C51.7222 50.8322 52.3339 50.9055 52.9339 51.4072C53.4072 51.8039 53.7255 52.6939 54.3322 52.5322C54.8605 52.3922 55.1522 51.5922 55.4955 51.0455C56.5605 49.3455 57.1889 47.4889 57.4872 45.5089C57.5739 44.9305 57.4155 44.7155 56.8205 44.7822C56.4089 44.8289 55.9889 44.8005 55.5722 44.7872C54.8655 44.7639 54.4139 44.3555 54.4005 43.7522C54.3889 43.1555 54.8455 42.7005 55.5322 42.6655C56.0305 42.6405 56.5322 42.6389 57.0305 42.6655C57.4055 42.6839 57.5539 42.5839 57.5039 42.1772C57.1755 39.5072 56.1839 37.1222 54.5005 35.0222C54.3089 34.7822 54.1822 34.7655 53.9705 34.9939C53.6189 35.3772 53.2455 35.7422 52.8689 36.1005C52.3339 36.6089 51.7055 36.6305 51.2672 36.1739C50.8539 35.7422 50.8805 35.1122 51.3539 34.6105C51.7105 34.2322 52.0805 33.8655 52.4572 33.5055C52.6555 33.3172 52.7305 33.1939 52.4605 32.9789C50.3422 31.2822 47.9489 30.2689 45.2472 29.9705C44.8672 29.9289 44.7722 30.0572 44.7872 30.4055C44.8072 30.9039 44.8039 31.4055 44.7872 31.9055C44.7639 32.6155 44.3572 33.0522 43.7405 33.0555C43.1272 33.0589 42.6972 32.6239 42.6639 31.9222C42.6405 31.4239 42.6389 30.9222 42.6639 30.4239C42.6822 30.0439 42.5822 29.8539 42.2889 29.9555L42.2872 29.9522Z" fill="#65666D"/>
<path id="Vector_7" d="M22.3789 6.39573C21.7622 6.38739 21.3322 5.93073 21.3522 5.30573C21.3706 4.72739 21.8206 4.27406 22.3872 4.26573C22.9639 4.25739 23.4722 4.76239 23.4672 5.33906C23.4622 5.92573 22.9706 6.40239 22.3789 6.39573Z" fill="#65666D"/>
<path id="Vector_8" d="M45.7965 45.8739C45.6798 45.8373 45.5132 45.8073 45.3648 45.7356C44.6732 45.3989 43.9798 45.0656 43.3015 44.7023C42.7165 44.3889 42.5182 43.8889 42.7732 43.2823C43.8165 40.8123 44.8732 38.3489 45.9432 35.8906C46.2148 35.2656 46.8215 35.0506 47.3882 35.3123C47.9132 35.5556 48.1348 36.1339 47.8798 36.7389C47.0332 38.7506 46.1765 40.7573 45.3032 42.7573C45.1465 43.1139 45.1582 43.3056 45.5482 43.4556C45.8748 43.5823 46.1948 43.7506 46.4832 43.9489C46.9165 44.2456 47.0082 44.6939 46.8498 45.1689C46.6948 45.6323 46.3198 45.8389 45.7932 45.8739H45.7965Z" fill="#65666D"/>
</g>
<defs>
<clipPath id="clip0_729_31983">
<rect width="64" height="64" fill="white"/>
</clipPath>
</defs>
</svg>
