<svg width="383" height="483" viewBox="0 0 383 483" fill="none" xmlns="http://www.w3.org/2000/svg">
<path d="M218.674 292.433C217.891 292.021 216.919 292.326 216.487 293.121C216.076 293.904 216.393 294.898 217.176 295.31C217.96 295.722 218.932 295.417 219.364 294.622C219.775 293.839 219.458 292.846 218.674 292.433Z" fill="#FFA469"/>
<path d="M123.198 236.978C122.126 236.408 120.799 236.823 120.231 237.895C119.663 238.968 120.079 240.296 121.151 240.865C122.224 241.435 123.55 241.02 124.118 239.948C124.687 238.875 124.271 237.547 123.198 236.978Z" fill="#FFA469"/>
<path d="M136.139 235.988C135.458 235.624 134.597 235.897 134.235 236.577C133.872 237.258 134.145 238.12 134.826 238.483C135.527 238.836 136.367 238.574 136.73 237.893C137.093 237.213 136.819 236.351 136.139 235.988Z" fill="#FFA469"/>
<path d="M150.576 234.103C148.834 233.19 146.666 233.867 145.756 235.61C144.845 237.352 145.523 239.521 147.266 240.434C149.008 241.347 151.175 240.67 152.086 238.928C152.997 237.185 152.318 235.016 150.576 234.103Z" fill="#FFA469"/>
<path d="M165.361 233.08C162.082 231.352 158.011 232.619 156.287 235.898C154.563 239.178 155.833 243.252 159.112 244.981C162.391 246.709 166.462 245.442 168.186 242.162C169.91 238.883 168.64 234.808 165.361 233.08Z" fill="#FFA469"/>
<path d="M178.338 236.502C175.059 234.774 170.988 236.041 169.264 239.32C167.54 242.599 168.81 246.674 172.089 248.402C175.368 250.131 179.439 248.864 181.163 245.584C182.887 242.305 181.617 238.23 178.338 236.502Z" fill="#FFA469"/>
<path d="M190.389 242.33C187.502 240.808 183.948 241.932 182.43 244.819C180.911 247.707 182.038 251.264 184.925 252.786C187.812 254.308 191.366 253.184 192.884 250.297C194.403 247.409 193.276 243.852 190.389 242.33Z" fill="#FFA469"/>
<path d="M201.965 249.168C199.191 247.715 195.789 248.784 194.34 251.558C192.91 254.322 193.962 257.738 196.736 259.191C199.509 260.643 202.912 259.574 204.361 256.8C205.79 254.037 204.738 250.621 201.965 249.168Z" fill="#FFA469"/>
<path d="M212.731 257.23C209.957 255.777 206.555 256.847 205.105 259.621C203.656 262.395 204.728 265.8 207.501 267.253C210.275 268.706 213.677 267.636 215.127 264.863C216.556 262.099 215.504 258.683 212.741 257.25L212.731 257.23Z" fill="#FFA469"/>
<path d="M222.662 266.02C219.569 264.401 215.761 265.581 214.146 268.674C212.53 271.768 213.712 275.579 216.805 277.199C219.899 278.818 223.706 277.639 225.322 274.545C226.938 271.452 225.755 267.64 222.662 266.02Z" fill="#FFA469"/>
<path d="M228.769 280.85C228.058 280.477 227.177 280.761 226.805 281.472C226.433 282.184 226.717 283.065 227.428 283.438C228.139 283.811 229.02 283.528 229.372 282.827C229.744 282.116 229.46 281.234 228.749 280.861L228.769 280.85Z" fill="#FFA469"/>
<path d="M235.702 292.361C234.991 291.988 234.11 292.271 233.738 292.983C233.366 293.694 233.65 294.576 234.361 294.949C235.072 295.322 235.953 295.039 236.325 294.327C236.698 293.616 236.414 292.734 235.702 292.361Z" fill="#FFA469"/>
<path d="M241.116 304.642C240.405 304.269 239.524 304.552 239.152 305.264C238.78 305.975 239.064 306.857 239.775 307.23C240.486 307.603 241.367 307.32 241.739 306.608C242.112 305.897 241.828 305.015 241.116 304.642Z" fill="#FFA469"/>
<path d="M244.921 317.541C244.209 317.168 243.329 317.451 242.956 318.162C242.584 318.874 242.868 319.756 243.58 320.129C244.291 320.502 245.172 320.218 245.544 319.507C245.916 318.795 245.632 317.914 244.921 317.541Z" fill="#FFA469"/>
<path d="M247.469 329.962C246.293 329.344 244.835 329.802 244.218 330.978C243.601 332.153 244.06 333.613 245.236 334.231C246.411 334.85 247.869 334.391 248.487 333.216C249.104 332.04 248.644 330.581 247.469 329.962Z" fill="#FFA469"/>
<path d="M107.331 225.532C106.259 224.963 104.932 225.377 104.364 226.45C103.796 227.523 104.212 228.85 105.284 229.42C106.356 229.99 107.683 229.575 108.251 228.502C108.82 227.43 108.404 226.102 107.331 225.532Z" fill="#FFA469"/>
<path d="M120.363 222.251C119.29 221.681 117.964 222.096 117.395 223.169C116.827 224.241 117.243 225.569 118.315 226.139C119.388 226.709 120.714 226.294 121.283 225.221C121.851 224.148 121.435 222.821 120.363 222.251Z" fill="#FFA469"/>
<path d="M133.667 220.485C132.595 219.916 131.268 220.331 130.7 221.403C130.132 222.476 130.547 223.804 131.62 224.373C132.692 224.943 134.019 224.528 134.587 223.455C135.156 222.383 134.74 221.055 133.667 220.485Z" fill="#FFA469"/>
<path d="M147.089 220.196C146.017 219.627 144.69 220.042 144.122 221.114C143.553 222.187 143.969 223.515 145.042 224.084C146.114 224.654 147.441 224.239 148.009 223.166C148.577 222.094 148.162 220.766 147.089 220.196Z" fill="#FFA469"/>
<path d="M162.564 217.408C159.286 215.68 155.215 216.947 153.491 220.226C151.777 223.526 153.036 227.581 156.315 229.309C159.594 231.037 163.665 229.77 165.389 226.491C167.113 223.211 165.843 219.136 162.564 217.408Z" fill="#FFA469"/>
<path d="M175.335 220.838C172.448 219.316 168.893 220.44 167.375 223.327C165.857 226.214 166.983 229.772 169.87 231.294C172.757 232.816 176.311 231.692 177.83 228.805C179.348 225.917 178.222 222.36 175.335 220.838Z" fill="#FFA469"/>
<path d="M188.116 224.994C185.229 223.472 181.675 224.596 180.156 227.483C178.638 230.371 179.764 233.928 182.651 235.45C185.538 236.972 189.093 235.848 190.611 232.961C192.129 230.074 191.003 226.516 188.116 224.994Z" fill="#FFA469"/>
<path d="M200.342 230.572C197.455 229.05 193.901 230.174 192.383 233.061C190.865 235.949 191.991 239.506 194.878 241.028C197.765 242.55 201.319 241.427 202.837 238.539C204.356 235.652 203.229 232.094 200.342 230.572Z" fill="#FFA469"/>
<path d="M211.59 237.999C208.992 236.634 205.781 237.628 204.42 240.227C203.059 242.826 204.055 246.039 206.653 247.404C209.252 248.768 212.462 247.774 213.823 245.176C215.185 242.577 214.188 239.364 211.59 237.999Z" fill="#FFA469"/>
<path d="M222.74 245.247C219.647 243.627 215.84 244.807 214.224 247.901C212.608 250.994 213.791 254.806 216.884 256.425C219.977 258.045 223.784 256.865 225.4 253.772C227.016 250.678 225.833 246.867 222.74 245.247Z" fill="#FFA469"/>
<path d="M232.459 254.544C229.366 252.924 225.558 254.104 223.942 257.197C222.327 260.291 223.509 264.102 226.602 265.722C229.695 267.342 233.503 266.162 235.119 263.068C236.735 259.975 235.552 256.164 232.459 254.544Z" fill="#FFA469"/>
<path d="M241.069 264.888C237.976 263.268 234.168 264.448 232.552 267.541C230.936 270.635 232.119 274.446 235.212 276.066C238.305 277.686 242.113 276.506 243.728 273.412C245.344 270.319 244.162 266.507 241.069 264.888Z" fill="#FFA469"/>
<path d="M246.202 280.408C245.491 280.035 244.61 280.318 244.238 281.03C243.866 281.741 244.15 282.623 244.861 282.996C245.572 283.369 246.453 283.086 246.825 282.374C247.198 281.663 246.914 280.781 246.202 280.408Z" fill="#FFA469"/>
<path d="M252.296 292.384C251.584 292.011 250.704 292.295 250.332 293.006C249.959 293.718 250.243 294.599 250.955 294.972C251.666 295.345 252.547 295.062 252.919 294.351C253.291 293.639 253.007 292.757 252.296 292.384Z" fill="#FFA469"/>
<path d="M257.03 304.978C256.319 304.605 255.438 304.888 255.066 305.6C254.694 306.311 254.978 307.193 255.689 307.566C256.4 307.939 257.281 307.656 257.653 306.944C258.026 306.233 257.742 305.351 257.03 304.978Z" fill="#FFA469"/>
<path d="M260.304 318.002C259.592 317.628 258.711 317.912 258.339 318.623C257.967 319.335 258.251 320.217 258.963 320.59C259.674 320.963 260.555 320.679 260.927 319.968C261.299 319.256 261.015 318.375 260.304 318.002Z" fill="#FFA469"/>
<path d="M262.116 331.322C261.405 330.949 260.524 331.232 260.152 331.944C259.78 332.655 260.064 333.537 260.775 333.91C261.486 334.283 262.367 334 262.739 333.288C263.112 332.577 262.828 331.695 262.116 331.322Z" fill="#FFA469"/>
<path d="M262.413 344.752C261.702 344.378 260.821 344.662 260.449 345.373C260.077 346.085 260.36 346.967 261.072 347.34C261.783 347.713 262.664 347.429 263.036 346.718C263.408 346.006 263.125 345.125 262.413 344.752Z" fill="#FFA469"/>
<path d="M263.467 353.841C260.374 352.221 256.566 353.401 254.95 356.494C253.334 359.588 254.517 363.399 257.61 365.019C260.703 366.639 264.511 365.459 266.127 362.365C267.743 359.272 266.56 355.46 263.467 353.841Z" fill="#FFA469"/>
<path d="M93.1612 212.65C90.6659 211.335 87.567 212.296 86.265 214.812C84.9524 217.307 85.916 220.409 88.4314 221.714C90.9266 223.03 94.0256 222.069 95.3275 219.553C96.6401 217.057 95.6766 213.955 93.1612 212.65Z" fill="#FFA469"/>
<path d="M104.464 210.751C103.392 210.181 102.065 210.596 101.497 211.669C100.928 212.741 101.344 214.069 102.417 214.639C103.489 215.209 104.816 214.794 105.384 213.721C105.952 212.648 105.537 211.321 104.464 210.751Z" fill="#FFA469"/>
<path d="M117.519 207.563C116.446 206.994 115.12 207.409 114.551 208.481C113.983 209.554 114.399 210.882 115.471 211.451C116.544 212.021 117.87 211.606 118.439 210.534C119.007 209.461 118.591 208.133 117.519 207.563Z" fill="#FFA469"/>
<path d="M130.823 205.688C129.751 205.119 128.424 205.534 127.856 206.606C127.288 207.679 127.704 209.007 128.776 209.576C129.849 210.146 131.175 209.731 131.743 208.659C132.312 207.586 131.896 206.258 130.823 205.688Z" fill="#FFA469"/>
<path d="M144.238 205.149C143.165 204.58 141.839 204.995 141.27 206.067C140.702 207.14 141.118 208.468 142.19 209.037C143.263 209.607 144.589 209.192 145.158 208.12C145.726 207.047 145.31 205.719 144.238 205.149Z" fill="#FFA469"/>
<path d="M159.366 202.674C156.479 201.152 152.925 202.275 151.406 205.163C149.888 208.05 151.014 211.608 153.901 213.13C156.788 214.652 160.343 213.528 161.861 210.641C163.379 207.753 162.253 204.196 159.366 202.674Z" fill="#FFA469"/>
<path d="M172.631 204.783C169.744 203.261 166.19 204.385 164.672 207.272C163.154 210.16 164.28 213.717 167.167 215.239C170.054 216.761 173.608 215.638 175.126 212.75C176.645 209.863 175.519 206.305 172.631 204.783Z" fill="#FFA469"/>
<path d="M185.6 208.244C182.713 206.722 179.159 207.846 177.641 210.733C176.122 213.621 177.249 217.178 180.136 218.7C183.023 220.222 186.577 219.098 188.095 216.211C189.614 213.324 188.487 209.766 185.6 208.244Z" fill="#FFA469"/>
<path d="M198.202 212.955C195.315 211.433 191.761 212.557 190.242 215.444C188.724 218.332 189.85 221.889 192.737 223.411C195.624 224.933 199.179 223.809 200.697 220.922C202.215 218.034 201.089 214.477 198.202 212.955Z" fill="#FFA469"/>
<path d="M210.249 218.908C207.362 217.386 203.807 218.51 202.289 221.397C200.771 224.285 201.897 227.842 204.784 229.364C207.671 230.886 211.225 229.763 212.744 226.875C214.262 223.988 213.136 220.43 210.249 218.908Z" fill="#FFA469"/>
<path d="M221.371 226.538C218.773 225.173 215.563 226.167 214.201 228.766C212.84 231.365 213.836 234.578 216.435 235.943C219.033 237.307 222.243 236.313 223.605 233.715C224.966 231.116 223.969 227.903 221.371 226.538Z" fill="#FFA469"/>
<path d="M232.24 234.324C229.394 232.832 225.88 233.934 224.412 236.769C222.923 239.616 224.028 243.133 226.874 244.625C229.719 246.117 233.233 245.015 234.722 242.169C236.211 239.322 235.106 235.805 232.26 234.313L232.24 234.324Z" fill="#FFA469"/>
<path d="M242.24 243.106C239.147 241.487 235.34 242.666 233.724 245.76C232.108 248.853 233.291 252.665 236.384 254.285C239.477 255.904 243.284 254.724 244.9 251.631C246.516 248.537 245.333 244.726 242.24 243.106Z" fill="#FFA469"/>
<path d="M251.022 253.278C247.929 251.658 244.121 252.838 242.505 255.932C240.889 259.025 242.072 262.837 245.165 264.456C248.258 266.076 252.066 264.896 253.682 261.803C255.297 258.709 254.115 254.898 251.022 253.278Z" fill="#FFA469"/>
<path d="M258.795 264.27C255.702 262.651 251.894 263.831 250.278 266.924C248.663 270.018 249.845 273.829 252.938 275.449C256.031 277.068 259.839 275.889 261.455 272.795C263.071 269.702 261.888 265.89 258.795 264.27Z" fill="#FFA469"/>
<path d="M263.147 280.275C262.436 279.902 261.555 280.185 261.183 280.897C260.811 281.608 261.095 282.49 261.806 282.863C262.518 283.236 263.399 282.953 263.771 282.241C264.143 281.53 263.859 280.648 263.147 280.275Z" fill="#FFA469"/>
<path d="M268.554 292.587C267.842 292.214 266.961 292.498 266.589 293.209C266.217 293.921 266.501 294.802 267.213 295.175C267.924 295.549 268.805 295.265 269.177 294.554C269.549 293.842 269.265 292.961 268.554 292.587Z" fill="#FFA469"/>
<path d="M272.718 305.345C272.006 304.972 271.126 305.256 270.753 305.967C270.381 306.679 270.665 307.56 271.377 307.933C272.088 308.306 272.969 308.023 273.341 307.312C273.713 306.6 273.429 305.718 272.718 305.345Z" fill="#FFA469"/>
<path d="M275.601 318.502C274.889 318.128 274.008 318.412 273.636 319.123C273.264 319.835 273.548 320.717 274.259 321.09C274.971 321.463 275.852 321.179 276.224 320.468C276.596 319.756 276.312 318.875 275.601 318.502Z" fill="#FFA469"/>
<path d="M277.14 331.837C276.428 331.464 275.547 331.748 275.175 332.459C274.803 333.171 275.087 334.052 275.798 334.426C276.51 334.799 277.391 334.515 277.763 333.804C278.135 333.092 277.851 332.211 277.14 331.837Z" fill="#FFA469"/>
<path d="M277.366 345.283C276.655 344.91 275.774 345.193 275.402 345.905C275.03 346.616 275.314 347.498 276.025 347.871C276.736 348.244 277.617 347.961 277.989 347.249C278.362 346.538 278.078 345.656 277.366 345.283Z" fill="#FFA469"/>
<path d="M278.506 354.38C275.413 352.76 271.605 353.94 269.989 357.033C268.374 360.127 269.556 363.938 272.649 365.558C275.742 367.178 279.55 365.998 281.166 362.904C282.782 359.811 281.599 356 278.506 354.38Z" fill="#FFA469"/>
<path d="M276.061 367.575C272.968 365.955 269.16 367.135 267.544 370.229C265.928 373.322 267.111 377.134 270.204 378.753C273.297 380.373 277.105 379.193 278.721 376.1C280.336 373.006 279.154 369.195 276.061 367.575Z" fill="#FFA469"/>
<path d="M272.311 380.481C269.218 378.862 265.41 380.041 263.794 383.135C262.178 386.228 263.361 390.04 266.454 391.66C269.547 393.279 273.355 392.1 274.971 389.006C276.586 385.912 275.404 382.101 272.311 380.481Z" fill="#FFA469"/>
<path d="M260.598 405.718C258 404.353 254.789 405.347 253.428 407.946C252.066 410.544 253.063 413.758 255.661 415.122C258.259 416.487 261.47 415.493 262.831 412.894C264.193 410.296 263.196 407.082 260.598 405.718Z" fill="#FFA469"/>
<path d="M87.9035 202.168C87.9035 202.168 87.8528 202.169 87.8633 202.189C87.8633 202.189 87.8644 202.24 87.8845 202.229C87.8845 202.229 87.9352 202.228 87.9447 202.198C87.9447 202.198 87.9436 202.147 87.913 202.138L87.9035 202.168Z" fill="#FFA469"/>
<path d="M101.636 195.97C100.564 195.4 99.237 195.815 98.6687 196.888C98.1004 197.96 98.5162 199.288 99.5886 199.858C100.661 200.427 101.988 200.012 102.556 198.94C103.124 197.867 102.708 196.539 101.636 195.97Z" fill="#FFA469"/>
<path d="M116.389 189.572C113.502 188.05 109.948 189.174 108.43 192.061C106.911 194.949 108.038 198.506 110.925 200.028C113.812 201.55 117.366 200.427 118.884 197.539C120.403 194.652 119.276 191.094 116.389 189.572Z" fill="#FFA469"/>
<path d="M129.686 187.619C126.799 186.097 123.245 187.221 121.727 190.108C120.208 192.996 121.335 196.553 124.222 198.075C127.109 199.597 130.663 198.473 132.181 195.586C133.699 192.699 132.573 189.141 129.686 187.619Z" fill="#FFA469"/>
<path d="M140.795 191.309C140.361 191.073 139.804 191.238 139.559 191.702C139.334 192.155 139.499 192.713 139.953 192.938C140.406 193.164 140.963 192.999 141.188 192.546C141.413 192.092 141.259 191.555 140.795 191.309Z" fill="#FFA469"/>
<path d="M154.209 191.77C153.775 191.534 153.198 191.709 152.973 192.163C152.748 192.616 152.913 193.174 153.367 193.399C153.8 193.635 154.357 193.471 154.602 193.007C154.837 192.574 154.673 192.016 154.209 191.77Z" fill="#FFA469"/>
<path d="M169.85 189.033C166.963 187.511 163.409 188.635 161.891 191.522C160.372 194.41 161.499 197.967 164.386 199.489C167.273 201.011 170.827 199.888 172.345 197C173.864 194.113 172.737 190.555 169.85 189.033Z" fill="#FFA469"/>
<path d="M182.983 191.885C180.096 190.363 176.542 191.486 175.024 194.374C173.505 197.261 174.631 200.819 177.519 202.341C180.406 203.863 183.96 202.739 185.478 199.852C186.996 196.964 185.87 193.407 182.983 191.885Z" fill="#FFA469"/>
<path d="M195.811 195.885C192.924 194.363 189.37 195.486 187.852 198.374C186.333 201.261 187.46 204.819 190.347 206.341C193.234 207.863 196.788 206.739 198.306 203.852C199.824 200.964 198.698 197.407 195.811 195.885Z" fill="#FFA469"/>
<path d="M208.21 201.057C205.323 199.535 201.768 200.658 200.25 203.546C198.732 206.433 199.858 209.991 202.745 211.513C205.632 213.035 209.186 211.911 210.705 209.023C212.223 206.136 211.097 202.578 208.21 201.057Z" fill="#FFA469"/>
<path d="M220.1 207.299C217.213 205.777 213.659 206.9 212.141 209.788C210.622 212.675 211.749 216.233 214.636 217.755C217.523 219.277 221.077 218.153 222.595 215.266C224.114 212.378 222.987 208.821 220.1 207.299Z" fill="#FFA469"/>
<path d="M231.137 215.108C228.539 213.744 225.328 214.738 223.967 217.336C222.605 219.935 223.602 223.148 226.2 224.513C228.799 225.878 232.009 224.884 233.37 222.285C234.732 219.686 233.735 216.473 231.137 215.108Z" fill="#FFA469"/>
<path d="M241.723 223.374C239.125 222.009 235.914 223.003 234.553 225.602C233.191 228.201 234.188 231.414 236.786 232.779C239.384 234.143 242.595 233.149 243.956 230.55C245.318 227.952 244.321 224.739 241.723 223.374Z" fill="#FFA469"/>
<path d="M252.006 231.677C248.913 230.057 245.105 231.237 243.489 234.33C241.874 237.424 243.056 241.235 246.149 242.855C249.242 244.475 253.05 243.295 254.666 240.201C256.282 237.108 255.099 233.296 252.006 231.677Z" fill="#FFA469"/>
<path d="M260.959 241.708C257.866 240.088 254.058 241.268 252.442 244.362C250.827 247.455 252.009 251.266 255.102 252.886C258.195 254.506 262.003 253.326 263.619 250.233C265.235 247.139 264.052 243.328 260.959 241.708Z" fill="#FFA469"/>
<path d="M266.718 256.822C266.006 256.449 265.126 256.732 264.753 257.444C264.381 258.155 264.665 259.037 265.377 259.41C266.088 259.783 266.969 259.5 267.341 258.788C267.713 258.077 267.429 257.195 266.718 256.822Z" fill="#FFA469"/>
<path d="M273.733 268.283C273.022 267.91 272.141 268.193 271.769 268.905C271.397 269.616 271.681 270.498 272.392 270.871C273.104 271.244 273.984 270.961 274.357 270.249C274.729 269.538 274.445 268.656 273.733 268.283Z" fill="#FFA469"/>
<path d="M279.71 280.322C278.999 279.949 278.118 280.232 277.746 280.944C277.373 281.655 277.657 282.537 278.369 282.91C279.08 283.283 279.961 283 280.333 282.288C280.705 281.577 280.421 280.695 279.71 280.322Z" fill="#FFA469"/>
<path d="M284.565 292.856C283.853 292.483 282.973 292.766 282.621 293.467C282.248 294.179 282.532 295.06 283.244 295.433C283.955 295.806 284.836 295.523 285.208 294.812C285.58 294.1 285.296 293.218 284.585 292.845L284.565 292.856Z" fill="#FFA469"/>
<path d="M288.288 305.798C287.577 305.425 286.696 305.709 286.324 306.42C285.952 307.132 286.235 308.013 286.947 308.386C287.658 308.759 288.539 308.476 288.911 307.765C289.283 307.053 289 306.171 288.288 305.798Z" fill="#FFA469"/>
<path d="M290.827 318.994C290.116 318.621 289.235 318.904 288.863 319.616C288.491 320.327 288.775 321.209 289.486 321.582C290.197 321.955 291.078 321.671 291.45 320.96C291.823 320.248 291.539 319.367 290.827 318.994Z" fill="#FFA469"/>
<path d="M292.171 332.361C291.46 331.988 290.579 332.271 290.206 332.983C289.834 333.694 290.118 334.576 290.83 334.949C291.541 335.322 292.422 335.039 292.794 334.327C293.166 333.616 292.882 332.734 292.171 332.361Z" fill="#FFA469"/>
<path d="M292.343 345.783C291.631 345.41 290.751 345.693 290.378 346.405C290.006 347.116 290.29 347.998 291.002 348.371C291.713 348.744 292.594 348.461 292.966 347.749C293.338 347.038 293.054 346.156 292.343 345.783Z" fill="#FFA469"/>
<path d="M291.288 359.197C290.577 358.824 289.696 359.107 289.324 359.819C288.952 360.53 289.235 361.412 289.947 361.785C290.658 362.158 291.539 361.875 291.911 361.163C292.283 360.452 292 359.57 291.288 359.197Z" fill="#FFA469"/>
<path d="M289.022 372.455C288.311 372.082 287.43 372.365 287.058 373.076C286.686 373.788 286.97 374.67 287.681 375.043C288.393 375.416 289.274 375.132 289.646 374.421C290.018 373.709 289.734 372.828 289.022 372.455Z" fill="#FFA469"/>
<path d="M285.965 384.734C284.862 384.154 283.515 384.58 282.937 385.683C282.36 386.787 282.786 388.135 283.889 388.714C284.992 389.293 286.339 388.868 286.917 387.764C287.495 386.661 287.068 385.313 285.965 384.734Z" fill="#FFA469"/>
<path d="M283.279 393.763C280.186 392.143 276.379 393.323 274.763 396.416C273.147 399.51 274.33 403.321 277.423 404.941C280.516 406.561 284.324 405.381 285.939 402.287C287.555 399.194 286.373 395.382 283.279 393.763Z" fill="#FFA469"/>
<path d="M277.121 406.819C274.523 405.455 271.313 406.449 269.951 409.047C268.59 411.646 269.586 414.859 272.185 416.224C274.783 417.589 277.993 416.594 279.355 413.996C280.716 411.397 279.719 408.184 277.121 406.819Z" fill="#FFA469"/>
<path d="M270.356 418.421C267.757 417.056 264.547 418.05 263.186 420.649C261.824 423.248 262.821 426.461 265.419 427.826C268.017 429.19 271.228 428.196 272.589 425.597C273.95 422.999 272.954 419.785 270.356 418.421Z" fill="#FFA469"/>
<path d="M5.0885 402.12C5.0885 402.12 5.00642 402.111 4.98728 402.173C4.95747 402.215 4.97881 402.255 5.04065 402.275C5.08223 402.304 5.12272 402.283 5.14186 402.221C5.17167 402.18 5.15033 402.139 5.0885 402.12Z" fill="#FFA469"/>
<path d="M74.5193 188.695C72.4466 187.595 69.8847 188.403 68.8075 190.465C67.7303 192.527 68.5195 195.102 70.6017 196.172C72.6743 197.272 75.2362 196.464 76.3134 194.402C77.3906 192.339 76.6015 189.765 74.5395 188.685L74.5193 188.695Z" fill="#FFA469"/>
<path d="M87.4181 182.569C84.8198 181.205 81.6095 182.199 80.2481 184.797C78.8868 187.396 79.8833 190.609 82.4815 191.974C85.0798 193.339 88.2901 192.344 89.6515 189.746C91.0128 187.147 90.0163 183.934 87.4181 182.569Z" fill="#FFA469"/>
<path d="M100.207 178.444C97.6089 177.08 94.3985 178.074 93.0372 180.672C91.6758 183.271 92.6724 186.484 95.2706 187.849C97.8688 189.214 101.079 188.219 102.441 185.621C103.802 183.022 102.805 179.809 100.207 178.444Z" fill="#FFA469"/>
<path d="M113.569 174.869C110.682 173.347 107.128 174.471 105.609 177.358C104.091 180.246 105.217 183.803 108.104 185.325C110.992 186.847 114.546 185.723 116.064 182.836C117.582 179.949 116.456 176.391 113.569 174.869Z" fill="#FFA469"/>
<path d="M126.858 172.869C123.971 171.347 120.417 172.471 118.898 175.358C117.38 178.246 118.506 181.803 121.394 183.325C124.281 184.847 127.835 183.723 129.353 180.836C130.871 177.949 129.745 174.391 126.858 172.869Z" fill="#FFA469"/>
<path d="M138.527 175.228C137.454 174.658 136.128 175.073 135.559 176.145C134.991 177.218 135.407 178.546 136.479 179.115C137.552 179.685 138.878 179.27 139.447 178.198C140.015 177.125 139.599 175.797 138.527 175.228Z" fill="#FFA469"/>
<path d="M151.365 176.567C150.911 176.342 150.354 176.506 150.13 176.96C149.894 177.393 150.059 177.951 150.523 178.196C150.956 178.432 151.513 178.268 151.758 177.804C151.983 177.35 151.818 176.793 151.365 176.567Z" fill="#FFA469"/>
<path d="M164.732 177.856C164.279 177.631 163.721 177.795 163.497 178.249C163.272 178.702 163.437 179.26 163.89 179.485C164.344 179.711 164.901 179.546 165.125 179.093C165.361 178.659 165.196 178.102 164.732 177.856Z" fill="#FFA469"/>
<path d="M180.337 175.701C177.388 174.16 173.763 175.295 172.215 178.224C170.678 181.173 171.816 184.802 174.744 186.353C177.693 187.894 181.318 186.759 182.866 183.83C184.404 180.881 183.266 177.252 180.337 175.701Z" fill="#FFA469"/>
<path d="M193.256 179.26C190.369 177.738 186.815 178.861 185.297 181.749C183.779 184.636 184.905 188.194 187.792 189.716C190.679 191.238 194.233 190.114 195.751 187.227C197.27 184.339 196.144 180.782 193.256 179.26Z" fill="#FFA469"/>
<path d="M205.928 183.752C203.041 182.23 199.487 183.354 197.969 186.241C196.451 189.129 197.577 192.686 200.464 194.208C203.351 195.73 206.905 194.606 208.423 191.719C209.942 188.831 208.815 185.274 205.928 183.752Z" fill="#FFA469"/>
<path d="M217.927 189.732C215.298 188.357 212.067 189.362 210.697 191.992C209.326 194.621 210.333 197.855 212.962 199.229C215.591 200.603 218.821 199.598 220.192 196.969C221.563 194.339 220.556 191.106 217.927 189.732Z" fill="#FFA469"/>
<path d="M229.676 196.249C227.078 194.884 223.867 195.878 222.506 198.477C221.145 201.076 222.141 204.289 224.739 205.654C227.338 207.018 230.548 206.024 231.909 203.426C233.271 200.827 232.274 197.614 229.676 196.249Z" fill="#FFA469"/>
<path d="M240.902 203.671C238.304 202.306 235.094 203.3 233.732 205.899C232.371 208.498 233.368 211.711 235.966 213.076C238.564 214.44 241.774 213.446 243.136 210.847C244.497 208.249 243.501 205.035 240.902 203.671Z" fill="#FFA469"/>
<path d="M251.457 211.983C248.859 210.619 245.649 211.613 244.287 214.211C242.926 216.81 243.922 220.023 246.521 221.388C249.119 222.753 252.329 221.759 253.691 219.16C255.052 216.561 254.055 213.348 251.457 211.983Z" fill="#FFA469"/>
<path d="M261.293 221.14C258.695 219.775 255.484 220.769 254.123 223.368C252.762 225.966 253.758 229.18 256.357 230.544C258.955 231.909 262.165 230.915 263.526 228.316C264.888 225.717 263.891 222.504 261.293 221.14Z" fill="#FFA469"/>
<path d="M270.842 230.184C267.749 228.565 263.941 229.745 262.325 232.838C260.709 235.932 261.892 239.743 264.985 241.363C268.078 242.982 271.886 241.803 273.502 238.709C275.118 235.616 273.935 231.804 270.842 230.184Z" fill="#FFA469"/>
<path d="M276.827 245.111C276.116 244.738 275.235 245.021 274.863 245.733C274.491 246.444 274.775 247.326 275.486 247.699C276.197 248.072 277.078 247.789 277.45 247.077C277.823 246.366 277.539 245.484 276.827 245.111Z" fill="#FFA469"/>
<path d="M284.179 256.377C283.467 256.004 282.586 256.287 282.214 256.998C281.842 257.71 282.126 258.592 282.838 258.965C283.549 259.338 284.43 259.054 284.802 258.343C285.174 257.631 284.89 256.75 284.179 256.377Z" fill="#FFA469"/>
<path d="M290.554 268.197C289.842 267.824 288.961 268.107 288.589 268.819C288.217 269.53 288.501 270.412 289.213 270.785C289.924 271.158 290.805 270.875 291.177 270.163C291.549 269.452 291.265 268.57 290.554 268.197Z" fill="#FFA469"/>
<path d="M295.983 280.502C295.272 280.128 294.391 280.412 294.019 281.123C293.647 281.835 293.931 282.717 294.642 283.09C295.354 283.463 296.234 283.179 296.607 282.468C296.979 281.756 296.695 280.875 295.983 280.502Z" fill="#FFA469"/>
<path d="M300.374 293.212C299.663 292.839 298.782 293.123 298.41 293.834C298.037 294.546 298.321 295.427 299.033 295.801C299.744 296.174 300.625 295.89 300.997 295.179C301.369 294.467 301.085 293.586 300.374 293.212Z" fill="#FFA469"/>
<path d="M303.733 306.244C303.022 305.871 302.141 306.154 301.769 306.866C301.397 307.577 301.681 308.459 302.392 308.832C303.104 309.205 303.984 308.922 304.357 308.21C304.729 307.498 304.445 306.617 303.733 306.244Z" fill="#FFA469"/>
<path d="M306.019 319.475C305.308 319.102 304.427 319.386 304.055 320.097C303.683 320.809 303.967 321.69 304.678 322.063C305.389 322.436 306.27 322.153 306.622 321.452C306.994 320.741 306.71 319.859 305.999 319.486L306.019 319.475Z" fill="#FFA469"/>
<path d="M307.194 332.877C306.483 332.504 305.602 332.787 305.23 333.498C304.858 334.21 305.142 335.092 305.853 335.465C306.565 335.838 307.445 335.554 307.818 334.843C308.19 334.131 307.906 333.25 307.194 332.877Z" fill="#FFA469"/>
<path d="M307.296 346.314C306.585 345.941 305.704 346.224 305.331 346.936C304.959 347.647 305.243 348.529 305.955 348.902C306.666 349.275 307.547 348.992 307.919 348.28C308.291 347.569 308.007 346.687 307.296 346.314Z" fill="#FFA469"/>
<path d="M306.296 359.728C305.585 359.355 304.704 359.638 304.331 360.35C303.959 361.061 304.243 361.943 304.955 362.316C305.666 362.689 306.547 362.406 306.919 361.694C307.291 360.983 307.007 360.101 306.296 359.728Z" fill="#FFA469"/>
<path d="M304.635 372.17C303.47 371.571 302.052 372.009 301.445 373.153C300.837 374.298 301.286 375.738 302.451 376.336C303.596 376.945 305.034 376.497 305.641 375.352C306.238 374.187 305.8 372.768 304.655 372.159L304.635 372.17Z" fill="#FFA469"/>
<path d="M301.046 386.048C300.335 385.675 299.454 385.959 299.082 386.67C298.709 387.382 298.993 388.263 299.705 388.636C300.416 389.009 301.297 388.726 301.669 388.015C302.041 387.303 301.757 386.421 301.046 386.048Z" fill="#FFA469"/>
<path d="M296.819 398.822C296.108 398.449 295.227 398.732 294.855 399.444C294.483 400.155 294.767 401.037 295.478 401.41C296.19 401.783 297.07 401.5 297.443 400.788C297.815 400.077 297.531 399.195 296.819 398.822Z" fill="#FFA469"/>
<path d="M291.601 411.181C290.889 410.808 290.008 411.091 289.636 411.803C289.264 412.515 289.548 413.396 290.259 413.769C290.971 414.142 291.852 413.859 292.224 413.147C292.596 412.436 292.312 411.554 291.601 411.181Z" fill="#FFA469"/>
<path d="M26.8087 201.28C24.2105 199.915 21.0001 200.91 19.6387 203.508C18.2774 206.107 19.2739 209.32 21.8722 210.685C24.4704 212.05 27.6807 211.055 29.0421 208.457C30.4035 205.858 29.4069 202.645 26.8087 201.28Z" fill="#FFA469"/>
<path d="M37.2852 192.858C34.687 191.494 31.4767 192.488 30.1153 195.086C28.7539 197.685 29.7505 200.898 32.3487 202.263C34.947 203.628 38.1573 202.634 39.5187 200.035C40.88 197.436 39.8835 194.223 37.2852 192.858Z" fill="#FFA469"/>
<path d="M48.3634 185.272C45.7651 183.908 42.5548 184.902 41.1934 187.5C39.8321 190.099 40.8286 193.312 43.4268 194.677C46.0251 196.042 49.2354 195.048 50.5968 192.449C51.9582 189.85 50.9616 186.637 48.3634 185.272Z" fill="#FFA469"/>
<path d="M58.9216 180.484C57.4266 179.699 55.563 180.267 54.7593 181.773C53.9758 183.268 54.5458 185.134 56.061 185.908C57.5561 186.694 59.4197 186.125 60.2032 184.63C60.9867 183.135 60.4166 181.269 58.9216 180.484Z" fill="#FFA469"/>
<path d="M97.3634 163.702C94.7651 162.337 91.5548 163.332 90.1934 165.93C88.8321 168.529 89.8286 171.742 92.4268 173.107C95.0251 174.471 98.2354 173.477 99.5968 170.879C100.958 168.28 99.9616 165.067 97.3634 163.702Z" fill="#FFA469"/>
<path d="M124.006 158.103C121.119 156.581 117.565 157.705 116.047 160.593C114.529 163.48 115.655 167.038 118.542 168.56C121.429 170.082 124.983 168.958 126.501 166.07C128.02 163.183 126.894 159.625 124.006 158.103Z" fill="#FFA469"/>
<path d="M135.683 160.337C134.61 159.767 133.284 160.182 132.716 161.255C132.147 162.327 132.563 163.655 133.636 164.225C134.708 164.794 136.035 164.38 136.603 163.307C137.171 162.234 136.755 160.907 135.683 160.337Z" fill="#FFA469"/>
<path d="M149.061 160.409C148.03 159.869 146.794 160.261 146.256 161.293C145.737 162.313 146.111 163.56 147.142 164.1C148.162 164.62 149.408 164.247 149.947 163.216C150.465 162.196 150.092 160.949 149.061 160.409Z" fill="#FFA469"/>
<path d="M162.441 161.38C161.42 160.86 160.174 161.232 159.636 162.264C159.117 163.284 159.491 164.531 160.522 165.071C161.542 165.591 162.788 165.218 163.327 164.187C163.845 163.167 163.472 161.92 162.441 161.38Z" fill="#FFA469"/>
<path d="M175.318 164.164C174.751 163.87 174.042 164.088 173.748 164.655C173.455 165.222 173.674 165.932 174.241 166.226C174.808 166.521 175.517 166.302 175.811 165.735C176.104 165.168 175.885 164.458 175.318 164.164Z" fill="#FFA469"/>
<path d="M189.742 164.616C187.794 163.606 185.373 164.339 184.365 166.288C183.356 168.236 184.091 170.659 186.04 171.67C187.999 172.701 190.409 171.948 191.417 169.999C192.445 168.04 191.69 165.627 189.742 164.616Z" fill="#FFA469"/>
<path d="M203.768 166.302C200.572 164.633 196.633 165.857 194.968 169.053C193.304 172.25 194.53 176.193 197.726 177.861C200.922 179.53 204.862 178.307 206.526 175.11C208.191 171.914 206.965 167.971 203.768 166.302Z" fill="#FFA469"/>
<path d="M215.491 172.715C213.151 171.498 210.275 172.394 209.05 174.714C207.836 177.055 208.734 179.933 211.054 181.161C213.394 182.378 216.27 181.482 217.495 179.162C218.709 176.821 217.811 173.943 215.491 172.715Z" fill="#FFA469"/>
<path d="M227.863 178.03C225.265 176.665 222.055 177.66 220.693 180.258C219.332 182.857 220.329 186.07 222.927 187.435C225.525 188.8 228.735 187.805 230.097 185.207C231.458 182.608 230.462 179.395 227.863 178.03Z" fill="#FFA469"/>
<path d="M239.535 184.725C236.937 183.361 233.727 184.355 232.365 186.954C231.004 189.552 232 192.766 234.599 194.13C237.197 195.495 240.407 194.501 241.769 191.902C243.13 189.303 242.133 186.09 239.535 184.725Z" fill="#FFA469"/>
<path d="M250.645 192.249C248.046 190.884 244.836 191.878 243.475 194.477C242.113 197.076 243.11 200.289 245.708 201.654C248.306 203.018 251.517 202.024 252.878 199.425C254.239 196.827 253.243 193.614 250.645 192.249Z" fill="#FFA469"/>
<path d="M261.176 200.6C258.578 199.236 255.367 200.23 254.006 202.829C252.645 205.427 253.641 208.641 256.239 210.005C258.838 211.37 262.048 210.376 263.409 207.777C264.771 205.178 263.774 201.965 261.176 200.6Z" fill="#FFA469"/>
<path d="M271.059 209.741C268.46 208.376 265.25 209.371 263.889 211.969C262.527 214.568 263.524 217.781 266.122 219.146C268.72 220.511 271.931 219.516 273.292 216.918C274.653 214.319 273.657 211.106 271.059 209.741Z" fill="#FFA469"/>
<path d="M280.463 219.11C277.617 217.618 274.104 218.72 272.615 221.566C271.126 224.412 272.231 227.93 275.077 229.422C277.923 230.914 281.436 229.812 282.925 226.965C284.414 224.119 283.309 220.602 280.463 219.11Z" fill="#FFA469"/>
<path d="M286.866 233.455C286.155 233.082 285.274 233.365 284.902 234.076C284.53 234.788 284.814 235.67 285.525 236.043C286.236 236.416 287.117 236.132 287.489 235.421C287.862 234.709 287.578 233.828 286.866 233.455Z" fill="#FFA469"/>
<path d="M294.46 244.556C293.749 244.183 292.868 244.466 292.496 245.178C292.123 245.89 292.407 246.771 293.119 247.144C293.83 247.517 294.711 247.234 295.083 246.522C295.455 245.811 295.171 244.929 294.46 244.556Z" fill="#FFA469"/>
<path d="M303.49 251.872C300.397 250.252 296.59 251.432 294.974 254.526C293.358 257.619 294.541 261.431 297.634 263.05C300.727 264.67 304.534 263.49 306.15 260.397C307.766 257.303 306.583 253.492 303.49 251.872Z" fill="#FFA469"/>
<path d="M309.365 263.966C306.272 262.346 302.465 263.526 300.849 266.619C299.233 269.713 300.416 273.524 303.509 275.144C306.602 276.764 310.409 275.584 312.025 272.49C313.641 269.397 312.458 265.585 309.365 263.966Z" fill="#FFA469"/>
<path d="M312.062 280.775C311.35 280.402 310.469 280.685 310.097 281.397C309.725 282.108 310.009 282.99 310.72 283.363C311.432 283.736 312.313 283.453 312.685 282.741C313.057 282.03 312.773 281.148 312.062 280.775Z" fill="#FFA469"/>
<path d="M316.054 293.595C315.342 293.222 314.461 293.506 314.089 294.217C313.717 294.929 314.001 295.81 314.713 296.183C315.424 296.556 316.305 296.273 316.677 295.562C317.049 294.85 316.765 293.968 316.054 293.595Z" fill="#FFA469"/>
<path d="M319.093 306.712C318.381 306.339 317.501 306.623 317.128 307.334C316.756 308.046 317.04 308.927 317.752 309.3C318.463 309.674 319.344 309.39 319.716 308.679C320.088 307.967 319.804 307.086 319.093 306.712Z" fill="#FFA469"/>
<path d="M321.14 319.994C320.428 319.621 319.547 319.904 319.175 320.616C318.803 321.327 319.087 322.209 319.798 322.582C320.51 322.955 321.391 322.671 321.763 321.96C322.135 321.248 321.851 320.367 321.14 319.994Z" fill="#FFA469"/>
<path d="M322.249 346.837C321.538 346.464 320.657 346.748 320.285 347.459C319.912 348.171 320.196 349.052 320.908 349.426C321.619 349.799 322.5 349.515 322.872 348.804C323.244 348.092 322.96 347.211 322.249 346.837Z" fill="#FFA469"/>
<path d="M321.296 360.228C320.584 359.855 319.704 360.138 319.332 360.85C318.959 361.561 319.243 362.443 319.955 362.816C320.666 363.189 321.547 362.906 321.919 362.194C322.291 361.483 322.007 360.601 321.296 360.228Z" fill="#FFA469"/>
<path d="M319.351 373.525C318.639 373.152 317.758 373.435 317.386 374.147C317.014 374.858 317.298 375.74 318.009 376.113C318.721 376.486 319.602 376.203 319.974 375.491C320.346 374.78 320.062 373.898 319.351 373.525Z" fill="#FFA469"/>
<path d="M318.171 383.302C315.615 381.967 312.445 382.94 311.113 385.498C309.781 388.055 310.757 391.228 313.313 392.563C315.87 393.898 319.04 392.925 320.372 390.367C321.704 387.81 320.728 384.637 318.171 383.302Z" fill="#FFA469"/>
<path d="M312.722 399.06C311.763 398.56 310.588 398.921 310.089 399.879C309.589 400.838 309.951 402.014 310.91 402.515C311.869 403.016 313.043 402.655 313.543 401.696C314.042 400.737 313.681 399.561 312.722 399.06Z" fill="#FFA469"/>
<path d="M1.46778 206.502C0.756365 206.128 -0.124484 206.412 -0.496632 207.123C-0.86878 207.835 -0.584844 208.717 0.126567 209.09C0.837977 209.463 1.71886 209.179 2.091 208.468C2.46315 207.756 2.17919 206.875 1.46778 206.502Z" fill="#FFA469"/>
<path d="M13.0479 193.268C10.233 191.785 6.73934 192.877 5.26028 195.692C3.78123 198.508 4.87557 202.005 7.69042 203.487C10.5053 204.97 13.999 203.878 15.478 201.063C16.9571 198.248 15.8627 194.751 13.0479 193.268Z" fill="#FFA469"/>
<path d="M23.2432 184.526C20.4283 183.043 16.9347 184.135 15.4556 186.95C13.9765 189.765 15.0709 193.262 17.8857 194.745C20.7006 196.228 24.1943 195.136 25.6734 192.321C27.1524 189.505 26.058 186.008 23.2432 184.526Z" fill="#FFA469"/>
<path d="M81.6524 152.843C79.0542 151.478 75.8439 152.472 74.4825 155.071C73.1211 157.669 74.1177 160.883 76.7159 162.247C79.3141 163.612 82.5245 162.618 83.8859 160.019C85.2472 157.421 84.2507 154.207 81.6524 152.843Z" fill="#FFA469"/>
<path d="M93.6705 150.571C91.9589 149.668 89.8629 150.333 88.9617 152.045C88.0604 153.757 88.7272 155.855 90.4389 156.758C92.1505 157.661 94.2465 156.996 95.1477 155.284C96.049 153.572 95.3822 151.474 93.6705 150.571Z" fill="#FFA469"/>
<path d="M132.377 146.322C131.769 145.997 131.02 146.237 130.696 146.846C130.373 147.454 130.613 148.204 131.222 148.528C131.83 148.852 132.579 148.613 132.903 148.004C133.226 147.396 132.986 146.646 132.377 146.322Z" fill="#FFA469"/>
<path d="M159.068 147.091C158.635 146.855 158.057 147.03 157.833 147.483C157.608 147.937 157.762 148.474 158.226 148.72C158.659 148.956 159.237 148.781 159.461 148.327C159.686 147.874 159.532 147.336 159.068 147.091Z" fill="#FFA469"/>
<path d="M172.521 148.492C171.954 148.198 171.245 148.416 170.952 148.983C170.658 149.551 170.877 150.26 171.444 150.555C172.011 150.849 172.72 150.63 173.014 150.063C173.307 149.496 173.088 148.787 172.521 148.492Z" fill="#FFA469"/>
<path d="M185.7 151.064C185.164 150.779 184.475 150.987 184.191 151.524C183.907 152.06 184.115 152.749 184.651 153.034C185.187 153.319 185.876 153.111 186.16 152.575C186.445 152.039 186.236 151.349 185.7 151.064Z" fill="#FFA469"/>
<path d="M198.692 154.51C198.156 154.225 197.467 154.433 197.183 154.969C196.899 155.505 197.107 156.195 197.643 156.48C198.18 156.764 198.868 156.556 199.153 156.02C199.437 155.484 199.228 154.794 198.692 154.51Z" fill="#FFA469"/>
<path d="M211.309 159.053C210.886 158.838 210.349 158.991 210.134 159.414C209.919 159.837 210.073 160.374 210.496 160.59C210.918 160.806 211.455 160.652 211.671 160.229C211.886 159.807 211.732 159.269 211.309 159.053Z" fill="#FFA469"/>
<path d="M225.754 160.319C223.156 158.955 219.945 159.949 218.584 162.547C217.223 165.146 218.219 168.359 220.817 169.724C223.416 171.089 226.626 170.094 227.987 167.496C229.349 164.897 228.352 161.684 225.754 160.319Z" fill="#FFA469"/>
<path d="M237.754 166.343C235.156 164.978 231.945 165.972 230.584 168.571C229.223 171.169 230.219 174.383 232.817 175.747C235.416 177.112 238.626 176.118 239.987 173.519C241.349 170.921 240.352 167.707 237.754 166.343Z" fill="#FFA469"/>
<path d="M249.787 172.333C246.694 170.713 242.886 171.893 241.271 174.987C239.655 178.08 240.837 181.891 243.93 183.511C247.024 185.131 250.831 183.951 252.447 180.858C254.063 177.764 252.88 173.953 249.787 172.333Z" fill="#FFA469"/>
<path d="M261.107 179.448C257.736 177.691 253.574 178.98 251.821 182.352C250.048 185.734 251.361 189.89 254.712 191.657C258.094 193.434 262.245 192.125 264.018 188.742C265.791 185.36 264.478 181.204 261.097 179.427L261.107 179.448Z" fill="#FFA469"/>
<path d="M269.84 191.247C268.356 190.481 266.512 191.04 265.749 192.524C264.986 194.009 265.534 195.834 267.029 196.619C268.514 197.384 270.337 196.837 271.121 195.342C271.884 193.857 271.335 192.032 269.84 191.247Z" fill="#FFA469"/>
<path d="M313.869 240.144C310.91 238.583 307.245 239.74 305.687 242.699C304.13 245.659 305.289 249.328 308.248 250.889C311.207 252.451 314.873 251.294 316.43 248.334C317.988 245.375 316.829 241.706 313.869 240.144Z" fill="#FFA469"/>
<path d="M318.598 254.946C317.237 254.219 315.567 254.764 314.841 256.125C314.136 257.476 314.642 259.169 316.023 259.885C317.384 260.612 319.055 260.068 319.78 258.707C320.505 257.345 319.98 255.663 318.598 254.946Z" fill="#FFA469"/>
<path d="M323.726 267.818C322.665 267.269 321.358 267.673 320.81 268.735C320.262 269.797 320.667 271.105 321.729 271.654C322.791 272.204 324.097 271.8 324.645 270.738C325.193 269.676 324.788 268.368 323.726 267.818Z" fill="#FFA469"/>
<path d="M327.96 281.087C327.249 280.714 326.368 280.998 325.996 281.709C325.623 282.421 325.907 283.302 326.619 283.676C327.33 284.049 328.211 283.765 328.583 283.054C328.955 282.342 328.671 281.461 327.96 281.087Z" fill="#FFA469"/>
<path d="M331.632 294.033C330.92 293.66 330.04 293.943 329.667 294.655C329.295 295.366 329.579 296.248 330.291 296.621C331.002 296.994 331.883 296.711 332.255 295.999C332.627 295.288 332.343 294.406 331.632 294.033Z" fill="#FFA469"/>
<path d="M334.413 307.181C333.702 306.808 332.821 307.091 332.449 307.803C332.077 308.515 332.36 309.396 333.072 309.769C333.783 310.142 334.664 309.859 335.036 309.147C335.408 308.436 335.125 307.554 334.413 307.181Z" fill="#FFA469"/>
<path d="M337.218 347.337C336.506 346.964 335.626 347.248 335.253 347.959C334.881 348.671 335.165 349.552 335.877 349.926C336.588 350.299 337.469 350.015 337.841 349.304C338.213 348.592 337.929 347.711 337.218 347.337Z" fill="#FFA469"/>
<path d="M335.986 361.386C335.625 361.189 335.159 361.331 334.974 361.712C334.778 362.074 334.92 362.54 335.301 362.726C335.662 362.922 336.128 362.78 336.314 362.399C336.51 362.038 336.367 361.572 335.986 361.386Z" fill="#FFA469"/>
<path d="M336.172 370.837C333.677 369.521 330.589 370.503 329.276 372.998C327.963 375.494 328.927 378.596 331.442 379.901C333.938 381.216 337.037 380.255 338.338 377.739C339.651 375.244 338.688 372.142 336.172 370.837Z" fill="#FFA469"/>
<path d="M333.461 383.88C330.904 382.546 327.734 383.519 326.402 386.076C325.07 388.633 326.046 391.806 328.602 393.141C331.159 394.476 334.329 393.503 335.661 390.946C336.993 388.388 336.017 385.215 333.461 383.88Z" fill="#FFA469"/>
<path d="M7.12404 180.587C6.41263 180.214 5.53178 180.498 5.15963 181.209C4.78748 181.921 5.07142 182.802 5.78283 183.176C6.49424 183.549 7.37509 183.265 7.74723 182.554C8.11938 181.842 7.83545 180.961 7.12404 180.587Z" fill="#FFA469"/>
<path d="M52.1118 151.411C51.3696 151.028 50.4685 151.322 50.0964 152.033C49.7147 152.776 49.9987 153.657 50.7207 154.051C51.4427 154.444 52.3437 154.15 52.736 153.428C53.1284 152.706 52.8338 151.804 52.1118 151.411Z" fill="#FFA469"/>
<path d="M64.4008 145.997C63.6788 145.603 62.7778 145.897 62.3855 146.619C62.0038 147.362 62.2676 148.254 63.0098 148.637C63.752 149.019 64.6328 148.736 65.0251 148.014C65.4068 147.271 65.1229 146.39 64.4008 145.997Z" fill="#FFA469"/>
<path d="M78.7774 137.991C76.1792 136.626 72.9688 137.621 71.6075 140.219C70.2461 142.818 71.2426 146.031 73.8409 147.396C76.4391 148.761 79.6495 147.766 81.0109 145.168C82.3722 142.569 81.3757 139.356 78.7774 137.991Z" fill="#FFA469"/>
<path d="M247.031 155.9C245.072 154.869 242.662 155.623 241.654 157.571C240.646 159.52 241.381 161.943 243.329 162.954C245.288 163.985 247.698 163.231 248.707 161.283C249.715 159.334 248.98 156.911 247.031 155.9Z" fill="#FFA469"/>
<path d="M259.121 161.725C256.523 160.361 253.313 161.355 251.951 163.954C250.59 166.552 251.586 169.766 254.185 171.13C256.783 172.495 259.993 171.501 261.355 168.902C262.716 166.303 261.719 163.09 259.121 161.725Z" fill="#FFA469"/>
<path d="M270.129 169.436C267.531 168.072 264.32 169.066 262.959 171.665C261.598 174.263 262.594 177.477 265.192 178.841C267.791 180.206 271.001 179.212 272.362 176.613C273.724 174.014 272.727 170.801 270.129 169.436Z" fill="#FFA469"/>
<path d="M280.621 177.866C278.023 176.501 274.813 177.496 273.451 180.094C272.09 182.693 273.086 185.906 275.685 187.271C278.283 188.635 281.493 187.641 282.855 185.043C284.216 182.444 283.219 179.231 280.621 177.866Z" fill="#FFA469"/>
<path d="M289.702 188.524C287.99 187.621 285.894 188.286 284.993 189.998C284.092 191.71 284.759 193.808 286.47 194.711C288.182 195.614 290.278 194.949 291.179 193.237C292.08 191.525 291.413 189.427 289.702 188.524Z" fill="#FFA469"/>
<path d="M321.834 232.91C321.432 232.684 320.926 232.847 320.71 233.27C320.505 233.662 320.648 234.179 321.071 234.395C321.473 234.621 321.98 234.458 322.195 234.035C322.421 233.633 322.257 233.126 321.834 232.91Z" fill="#FFA469"/>
<path d="M328.702 244.095C327.991 243.722 327.11 244.006 326.738 244.717C326.366 245.429 326.65 246.31 327.361 246.683C328.072 247.056 328.953 246.773 329.325 246.062C329.698 245.35 329.414 244.468 328.702 244.095Z" fill="#FFA469"/>
<path d="M334.929 255.401C333.764 254.803 332.346 255.24 331.738 256.385C331.142 257.55 331.58 258.969 332.724 259.578C333.889 260.176 335.307 259.739 335.915 258.595C336.522 257.45 336.073 256.01 334.929 255.401Z" fill="#FFA469"/>
<path d="M339.944 267.87C338.8 267.261 337.362 267.709 336.754 268.854C336.147 269.998 336.595 271.438 337.74 272.047C338.885 272.656 340.323 272.208 340.93 271.063C341.527 269.898 341.089 268.479 339.944 267.87Z" fill="#FFA469"/>
<path d="M343.726 281.447C343.014 281.074 342.133 281.357 341.761 282.069C341.389 282.78 341.673 283.662 342.384 284.035C343.096 284.408 343.977 284.125 344.349 283.413C344.721 282.702 344.437 281.82 343.726 281.447Z" fill="#FFA469"/>
<path d="M347.132 294.455C346.42 294.082 345.54 294.365 345.167 295.076C344.795 295.788 345.079 296.67 345.791 297.043C346.502 297.416 347.383 297.132 347.755 296.421C348.127 295.709 347.843 294.828 347.132 294.455Z" fill="#FFA469"/>
<path d="M352.171 347.869C351.46 347.496 350.579 347.779 350.206 348.491C349.834 349.202 350.118 350.084 350.83 350.457C351.541 350.83 352.422 350.546 352.794 349.835C353.166 349.123 352.882 348.242 352.171 347.869Z" fill="#FFA469"/>
<path d="M60.8414 132.252C60.8414 132.252 60.7081 132.245 60.6687 132.317C60.6496 132.379 60.6614 132.451 60.7339 132.49C60.7957 132.509 60.8671 132.498 60.9065 132.425C60.9459 132.353 60.9139 132.292 60.8414 132.252Z" fill="#FFA469"/>
<path d="M218.975 129.988C218.573 129.762 218.066 129.925 217.851 130.348C217.625 130.751 217.789 131.257 218.212 131.473C218.603 131.679 219.12 131.536 219.336 131.113C219.561 130.711 219.398 130.204 218.975 129.988Z" fill="#FFA469"/>
<path d="M245.707 136.694C243.109 135.33 239.899 136.324 238.537 138.922C237.176 141.521 238.172 144.734 240.771 146.099C243.369 147.464 246.579 146.469 247.941 143.871C249.302 141.272 248.305 138.059 245.707 136.694Z" fill="#FFA469"/>
<path d="M257.512 143.14C254.914 141.775 251.703 142.769 250.342 145.368C248.98 147.966 249.977 151.18 252.575 152.544C255.174 153.909 258.384 152.915 259.745 150.316C261.107 147.717 260.11 144.504 257.512 143.14Z" fill="#FFA469"/>
<path d="M268.91 150.257C266.312 148.892 263.102 149.886 261.74 152.485C260.379 155.083 261.375 158.297 263.974 159.661C266.572 161.026 269.782 160.032 271.144 157.433C272.505 154.835 271.508 151.621 268.91 150.257Z" fill="#FFA469"/>
<path d="M279.863 158.054C277.265 156.689 274.055 157.683 272.693 160.282C271.332 162.88 272.329 166.094 274.927 167.458C277.525 168.823 280.735 167.829 282.097 165.23C283.458 162.632 282.462 159.418 279.863 158.054Z" fill="#FFA469"/>
<path d="M290.356 166.468C287.757 165.103 284.547 166.097 283.186 168.696C281.824 171.294 282.821 174.508 285.419 175.872C288.017 177.237 291.228 176.243 292.589 173.644C293.95 171.046 292.954 167.832 290.356 166.468Z" fill="#FFA469"/>
<path d="M300.293 175.522C297.695 174.158 294.484 175.152 293.123 177.75C291.762 180.349 292.758 183.562 295.357 184.927C297.955 186.292 301.165 185.298 302.526 182.699C303.888 180.1 302.891 176.887 300.293 175.522Z" fill="#FFA469"/>
<path d="M331.96 221.386C331.713 221.258 331.429 221.356 331.292 221.583C331.164 221.831 331.262 222.114 331.489 222.253C331.737 222.38 332.02 222.282 332.158 222.055C332.285 221.808 332.197 221.493 331.96 221.386Z" fill="#FFA469"/>
<path d="M339.249 232.118C338.537 231.745 337.657 232.029 337.284 232.74C336.912 233.452 337.196 234.333 337.908 234.706C338.619 235.08 339.5 234.796 339.852 234.095C340.224 233.384 339.94 232.502 339.249 232.118Z" fill="#FFA469"/>
<path d="M345.39 244.072C344.678 243.699 343.797 243.982 343.425 244.694C343.053 245.405 343.337 246.287 344.048 246.66C344.76 247.033 345.641 246.75 346.013 246.038C346.385 245.327 346.101 244.445 345.39 244.072Z" fill="#FFA469"/>
<path d="M350.819 256.369C350.108 255.996 349.227 256.279 348.855 256.991C348.483 257.702 348.767 258.584 349.478 258.957C350.19 259.33 351.07 259.046 351.443 258.335C351.815 257.623 351.531 256.742 350.819 256.369Z" fill="#FFA469"/>
<path d="M355.499 268.986C354.788 268.613 353.907 268.896 353.535 269.608C353.162 270.319 353.446 271.201 354.158 271.574C354.869 271.947 355.75 271.664 356.122 270.952C356.494 270.241 356.21 269.359 355.499 268.986Z" fill="#FFA469"/>
<path d="M150.788 101.087C150.077 100.714 149.196 100.998 148.824 101.709C148.452 102.421 148.735 103.302 149.447 103.675C150.158 104.049 151.039 103.765 151.411 103.054C151.783 102.342 151.5 101.461 150.788 101.087Z" fill="#FFA469"/>
<path d="M255.629 124.975C253.031 123.611 249.82 124.605 248.459 127.204C247.098 129.802 248.094 133.016 250.692 134.38C253.291 135.745 256.501 134.751 257.862 132.152C259.224 129.553 258.227 126.34 255.629 124.975Z" fill="#FFA469"/>
<path d="M267.363 131.554C264.765 130.189 261.555 131.183 260.193 133.782C258.832 136.38 259.829 139.594 262.427 140.958C265.025 142.323 268.235 141.329 269.597 138.73C270.958 136.132 269.962 132.918 267.363 131.554Z" fill="#FFA469"/>
<path d="M278.684 138.796C276.085 137.431 272.875 138.425 271.514 141.024C270.152 143.623 271.149 146.836 273.747 148.201C276.345 149.565 279.556 148.571 280.917 145.972C282.278 143.374 281.282 140.16 278.684 138.796Z" fill="#FFA469"/>
<path d="M289.613 146.632C287.015 145.267 283.805 146.261 282.443 148.86C281.082 151.458 282.079 154.672 284.677 156.036C287.275 157.401 290.485 156.407 291.847 153.808C293.208 151.21 292.212 147.996 289.613 146.632Z" fill="#FFA469"/>
<path d="M300.074 155.093C297.476 153.728 294.266 154.722 292.904 157.321C291.543 159.919 292.54 163.133 295.138 164.497C297.736 165.862 300.946 164.868 302.308 162.269C303.669 159.671 302.673 156.457 300.074 155.093Z" fill="#FFA469"/>
<path d="M310.035 164.1C307.437 162.736 304.227 163.73 302.865 166.329C301.504 168.927 302.5 172.141 305.099 173.505C307.697 174.87 310.907 173.876 312.269 171.277C313.63 168.678 312.633 165.465 310.035 164.1Z" fill="#FFA469"/>
<path d="M342.616 208.767C341.905 208.394 341.024 208.677 340.652 209.389C340.28 210.1 340.564 210.982 341.275 211.355C341.986 211.728 342.867 211.445 343.239 210.733C343.612 210.022 343.328 209.14 342.616 208.767Z" fill="#FFA469"/>
<path d="M349.694 220.205C348.983 219.832 348.102 220.115 347.73 220.826C347.358 221.538 347.642 222.42 348.353 222.793C349.065 223.166 349.945 222.882 350.318 222.171C350.69 221.459 350.406 220.578 349.694 220.205Z" fill="#FFA469"/>
<path d="M356.14 231.994C355.428 231.621 354.547 231.904 354.175 232.616C353.803 233.327 354.087 234.209 354.798 234.582C355.51 234.955 356.391 234.671 356.763 233.96C357.135 233.248 356.851 232.367 356.14 231.994Z" fill="#FFA469"/>
<path d="M361.89 244.142C361.178 243.769 360.297 244.052 359.925 244.764C359.553 245.475 359.837 246.357 360.548 246.73C361.26 247.103 362.141 246.82 362.513 246.108C362.885 245.397 362.601 244.515 361.89 244.142Z" fill="#FFA469"/>
<path d="M366.952 256.611C366.241 256.238 365.36 256.521 364.988 257.233C364.616 257.944 364.9 258.826 365.611 259.199C366.322 259.572 367.203 259.289 367.575 258.577C367.948 257.866 367.664 256.984 366.952 256.611Z" fill="#FFA469"/>
<path d="M371.648 268.701C370.586 268.152 369.28 268.556 368.732 269.618C368.184 270.68 368.589 271.988 369.651 272.537C370.713 273.087 372.019 272.682 372.567 271.62C373.115 270.558 372.71 269.251 371.648 268.701Z" fill="#FFA469"/>
<path d="M374.976 282.267C374.264 281.894 373.383 282.177 373.011 282.889C372.639 283.6 372.923 284.482 373.634 284.855C374.346 285.228 375.227 284.945 375.599 284.233C375.971 283.522 375.687 282.64 374.976 282.267Z" fill="#FFA469"/>
<path d="M253.567 107.218C250.968 105.853 247.758 106.847 246.397 109.446C245.035 112.044 246.032 115.258 248.63 116.622C251.228 117.987 254.439 116.993 255.8 114.394C257.161 111.796 256.165 108.582 253.567 107.218Z" fill="#FFA469"/>
<path d="M265.551 113.311C262.953 111.947 259.742 112.941 258.381 115.54C257.02 118.138 258.016 121.352 260.614 122.716C263.213 124.081 266.423 123.087 267.784 120.488C269.146 117.889 268.149 114.676 265.551 113.311Z" fill="#FFA469"/>
<path d="M277.541 119.34C274.582 117.778 270.916 118.935 269.359 121.895C267.801 124.854 268.961 128.523 271.92 130.085C274.879 131.646 278.545 130.489 280.102 127.53C281.66 124.57 280.501 120.901 277.541 119.34Z" fill="#FFA469"/>
<path d="M288.465 127.327C285.867 125.962 282.656 126.957 281.295 129.555C279.934 132.154 280.93 135.367 283.528 136.732C286.127 138.096 289.337 137.102 290.698 134.504C292.06 131.905 291.063 128.692 288.465 127.327Z" fill="#FFA469"/>
<path d="M299.203 135.5C296.749 134.214 293.721 135.163 292.407 137.608C291.124 140.062 292.076 143.093 294.541 144.399C296.994 145.685 300.022 144.735 301.325 142.271C302.608 139.816 301.656 136.786 299.203 135.5Z" fill="#FFA469"/>
<path d="M366.749 220.017C366.038 219.644 365.157 219.927 364.785 220.639C364.412 221.35 364.696 222.232 365.408 222.605C366.119 222.978 367 222.695 367.372 221.983C367.744 221.272 367.46 220.39 366.749 220.017Z" fill="#FFA469"/>
<path d="M372.796 232.009C372.085 231.636 371.204 231.92 370.831 232.631C370.459 233.343 370.743 234.224 371.455 234.597C372.166 234.97 373.047 234.687 373.419 233.976C373.791 233.264 373.507 232.382 372.796 232.009Z" fill="#FFA469"/>
<path d="M378.433 243.92C377.505 243.429 376.35 243.779 375.871 244.727C375.381 245.655 375.732 246.811 376.68 247.291C377.608 247.782 378.783 247.422 379.262 246.473C379.752 245.545 379.401 244.389 378.442 243.889L378.433 243.92Z" fill="#FFA469"/>
<path d="M383.195 256.495C382.267 256.004 381.092 256.365 380.633 257.302C380.143 258.231 380.494 259.386 381.453 259.887C382.381 260.378 383.536 260.028 384.015 259.079C384.505 258.151 384.154 256.996 383.195 256.495Z" fill="#FFA469"/>
<path d="M263.543 95.3895C260.945 94.0248 257.734 95.019 256.373 97.6177C255.012 100.216 256.008 103.43 258.607 104.794C261.205 106.159 264.415 105.165 265.776 102.566C267.138 99.9675 266.141 96.7542 263.543 95.3895Z" fill="#FFA469"/>
<path d="M275.434 101.655C272.835 100.29 269.625 101.285 268.264 103.883C266.902 106.482 267.899 109.695 270.497 111.06C273.095 112.425 276.306 111.43 277.667 108.832C279.028 106.233 278.032 103.02 275.434 101.655Z" fill="#FFA469"/>
<path d="M285.778 110.884C284.5 110.217 282.93 110.708 282.244 111.997C281.578 113.276 282.071 114.847 283.36 115.535C284.638 116.202 286.208 115.711 286.894 114.422C287.56 113.143 287.067 111.572 285.778 110.884Z" fill="#FFA469"/>
</svg>
