<svg width="386" height="354" viewBox="0 0 386 354" fill="none" xmlns="http://www.w3.org/2000/svg">
<path d="M203.358 27.8759L185.689 31.6002C183.308 32.1026 180.969 30.5782 180.467 28.1963L176.742 10.5273C176.24 8.14539 177.764 5.80684 180.146 5.30448L197.815 1.58012C200.197 1.07776 202.536 2.60215 203.038 4.98401L206.762 22.6531C207.265 25.035 205.74 27.3735 203.358 27.8759Z" stroke="#65666D" stroke-linecap="round" stroke-linejoin="round"/>
<path d="M190.631 11.2188L192.883 21.9501" stroke="#65666D" stroke-linecap="round" stroke-linejoin="round"/>
<path d="M197.111 15.4531L186.389 17.7137" stroke="#65666D" stroke-linecap="round" stroke-linejoin="round"/>
<path d="M381.499 216.806L363.83 220.53C361.448 221.032 359.11 219.508 358.607 217.126L354.883 199.457C354.38 197.075 355.905 194.737 358.287 194.234L375.956 190.51C378.338 190.007 380.676 191.532 381.179 193.914L384.903 211.583C385.405 213.965 383.881 216.303 381.499 216.806Z" stroke="#65666D" stroke-linecap="round" stroke-linejoin="round"/>
<path d="M372.889 200.93L366.904 210.111" stroke="#65666D" stroke-linecap="round" stroke-linejoin="round"/>
<path d="M374.492 208.508L365.311 202.523" stroke="#65666D" stroke-linecap="round" stroke-linejoin="round"/>
<path d="M136.376 331.419L118.344 330.38C115.91 330.241 114.056 328.154 114.195 325.72L115.234 307.687C115.373 305.253 117.46 303.4 119.894 303.539L137.927 304.578C140.361 304.716 142.214 306.804 142.076 309.238L141.036 327.271C140.898 329.704 138.81 331.558 136.376 331.419Z" stroke="#65666D" stroke-linecap="round" stroke-linejoin="round"/>
<path d="M133.612 317.796L122.664 317.164" stroke="#65666D" stroke-linecap="round" stroke-linejoin="round"/>
<path d="M21.1621 205.37L4.02135 199.688C1.70878 198.926 0.461549 196.431 1.22375 194.119L6.90557 176.978C7.66776 174.665 10.1622 173.409 12.4748 174.18L29.6155 179.862C31.9281 180.624 33.1753 183.119 32.4131 185.431L26.7313 202.572C25.9691 204.885 23.4747 206.14 21.1621 205.37Z" stroke="#65666D" stroke-linecap="round" stroke-linejoin="round"/>
<path d="M23.6718 186.32L9.96094 193.215" stroke="#65666D" stroke-linecap="round" stroke-linejoin="round"/>
<path d="M15.8062 183.488C16.2826 184.432 15.9015 185.584 14.9574 186.052C14.0133 186.528 12.8614 186.147 12.385 185.203C11.9086 184.259 12.2897 183.107 13.2338 182.639C14.1779 182.171 15.3298 182.544 15.8062 183.488Z" stroke="#65666D" stroke-linecap="round" stroke-linejoin="round"/>
<path d="M21.2515 194.324C21.7279 195.268 21.3468 196.42 20.4027 196.887C19.4586 197.355 18.3067 196.983 17.8303 196.039C17.3539 195.095 17.735 193.943 18.6791 193.475C19.6232 193.007 20.7751 193.38 21.2515 194.324Z" stroke="#65666D" stroke-linecap="round" stroke-linejoin="round"/>
<path d="M314.449 39.7216L254.556 33.5807C253.43 33.4681 252.426 34.2823 252.313 35.4083C252.201 36.5342 253.015 37.5389 254.141 37.6515L314.034 43.7924C315.16 43.905 316.164 43.0908 316.277 41.9649C316.39 40.8389 315.575 39.8342 314.449 39.7216Z" fill="#65666D"/>
<path d="M298.62 46.5564L268.669 43.4903C268.106 43.4296 267.604 43.8454 267.543 44.4083C267.482 44.9713 267.898 45.4737 268.452 45.5343L298.403 48.6004C298.966 48.661 299.469 48.2453 299.529 47.6823C299.59 47.1193 299.174 46.617 298.62 46.5564Z" fill="#65666D"/>
<path d="M331.563 134.693L234.349 124.732C233.786 124.672 233.283 125.088 233.223 125.642C233.162 126.205 233.578 126.707 234.132 126.768L331.347 136.728C331.91 136.789 332.412 136.373 332.473 135.819C332.533 135.265 332.126 134.754 331.563 134.693Z" fill="#65666D"/>
<path d="M330.809 142.008L217.771 130.428C217.208 130.367 216.705 130.783 216.645 131.337C216.584 131.9 217 132.403 217.554 132.463L330.593 144.043C331.156 144.104 331.658 143.688 331.719 143.134C331.779 142.571 331.372 142.069 330.809 142.008Z" fill="#65666D"/>
<path d="M298.41 146.089L217.028 137.748C216.465 137.687 215.963 138.103 215.902 138.658C215.842 139.22 216.257 139.723 216.812 139.783L298.194 148.124C298.756 148.185 299.259 147.769 299.319 147.215C299.38 146.661 298.964 146.15 298.41 146.089Z" fill="#65666D"/>
<path d="M251.765 114.183C265.776 114.183 277.134 102.825 277.134 88.8143C277.134 74.8034 265.776 63.4453 251.765 63.4453C237.755 63.4453 226.396 74.8034 226.396 88.8143C226.396 102.825 237.755 114.183 251.765 114.183Z" fill="#FBD97E"/>
<mask id="mask0_729_31675" style="mask-type:luminance" maskUnits="userSpaceOnUse" x="226" y="63" width="52" height="52">
<path d="M251.764 114.175C265.774 114.175 277.133 102.817 277.133 88.8065C277.133 74.7956 265.774 63.4375 251.764 63.4375C237.753 63.4375 226.395 74.7956 226.395 88.8065C226.395 102.817 237.753 114.175 251.764 114.175Z" fill="white"/>
</mask>
<g mask="url(#mask0_729_31675)">
<path opacity="0.5" d="M251.771 114.183C265.782 114.183 277.14 102.825 277.14 88.8143C277.14 74.8034 265.782 63.4453 251.771 63.4453C237.76 63.4453 226.402 74.8034 226.402 88.8143C226.402 102.825 237.76 114.183 251.771 114.183Z" fill="#F3F0F0"/>
</g>
<path d="M251.765 114.183C265.776 114.183 277.134 102.825 277.134 88.8143C277.134 74.8034 265.776 63.4453 251.765 63.4453C237.755 63.4453 226.396 74.8034 226.396 88.8143C226.396 102.825 237.755 114.183 251.765 114.183Z" stroke="#65666D" stroke-miterlimit="10"/>
<path d="M252.482 88.7412L273.581 99.36C274.777 96.8915 275.565 94.1805 275.859 91.2963C276.526 84.783 274.543 78.6075 270.792 73.8438L252.482 88.7499V88.7412Z" fill="#F3F0F0"/>
<path d="M252.623 87.6139L270.292 73.2361C267.685 70.144 264.316 67.6929 260.427 66.2031L257.24 74.9511L252.623 87.6139Z" fill="#FBD97E"/>
<path d="M254.622 64.7734L252.482 85.6819L259.68 65.9254C258.069 65.3711 256.38 64.9813 254.63 64.7734H254.622Z" fill="#8F8F92"/>
<path d="M251.39 88.563L253.833 64.6924C240.685 63.5578 229.001 73.1805 227.65 86.3544C227.208 90.6504 227.927 94.7905 229.529 98.4802L251.382 88.5543L251.39 88.563Z" fill="#8F8F92"/>
<path d="M249.3 112.936C259.451 113.975 268.771 108.588 273.232 100.074L251.76 89.2734L229.873 99.2166C233.39 106.613 240.561 112.044 249.3 112.936Z" fill="#D7D7D7"/>
<path d="M292.065 76.3268L289.172 76.0323C288.878 75.9977 288.652 75.7379 288.687 75.4347L288.982 72.5418C289.016 72.2474 289.276 72.0308 289.579 72.0568L292.472 72.3513C292.767 72.3859 292.992 72.6458 292.957 72.9489L292.663 75.8418C292.628 76.1363 292.368 76.3615 292.065 76.3268Z" fill="#FBD97E" stroke="#65666D" stroke-miterlimit="10"/>
<path d="M332.683 77.9503L295.396 74.1307C295.145 74.1047 294.963 73.8795 294.989 73.6283C295.015 73.3771 295.24 73.1952 295.491 73.2212L332.778 77.0409C333.029 77.0668 333.211 77.292 333.185 77.5432C333.159 77.7944 332.934 77.9763 332.683 77.9503Z" fill="#65666D"/>
<path d="M328.825 79.5622L295.185 76.115C294.934 76.089 294.752 75.8639 294.778 75.6127C294.804 75.3615 295.029 75.1796 295.28 75.2056L328.921 78.6528C329.172 78.6788 329.354 78.904 329.328 79.1552C329.302 79.4063 329.077 79.5882 328.825 79.5622Z" fill="#65666D"/>
<path d="M291.151 85.2331L288.258 84.9386C287.964 84.904 287.738 84.6441 287.773 84.341L288.068 81.4481C288.102 81.1536 288.362 80.9371 288.665 80.9631L291.558 81.2575C291.853 81.2922 292.069 81.552 292.043 81.8552L291.749 84.748C291.714 85.0512 291.454 85.2677 291.151 85.2331Z" fill="#8F8F92" stroke="#65666D" stroke-linecap="round" stroke-linejoin="round"/>
<path d="M331.769 86.8409L294.482 83.0213C294.231 82.9953 294.049 82.7701 294.075 82.5189C294.101 82.2678 294.326 82.0859 294.577 82.1118L331.864 85.9315C332.115 85.9575 332.297 86.1827 332.271 86.4338C332.245 86.685 332.02 86.8669 331.769 86.8409Z" fill="#65666D"/>
<path d="M327.911 88.4529L294.271 85.0057C294.02 84.9797 293.838 84.7545 293.864 84.5033C293.89 84.2521 294.115 84.0702 294.366 84.0962L328.007 87.5434C328.258 87.5694 328.44 87.7946 328.414 88.0458C328.388 88.297 328.163 88.4788 327.911 88.4529Z" fill="#65666D"/>
<path d="M290.235 94.1237L287.343 93.8292C287.048 93.7946 286.832 93.5347 286.858 93.2316L287.152 90.3387C287.187 90.0442 287.447 89.8277 287.75 89.8537L290.643 90.1482C290.937 90.1828 291.162 90.4426 291.128 90.7458L290.833 93.6387C290.798 93.9332 290.539 94.1497 290.235 94.1237Z" fill="#8F8F92" stroke="#65666D" stroke-linecap="round" stroke-linejoin="round"/>
<path d="M330.847 95.7315L293.56 91.9119C293.309 91.8859 293.127 91.6607 293.153 91.4096C293.179 91.1584 293.404 90.9765 293.655 91.0025L330.942 94.8221C331.193 94.8481 331.375 95.0733 331.349 95.3245C331.323 95.5756 331.098 95.7575 330.847 95.7315Z" fill="#65666D"/>
<path d="M326.99 97.3435L293.349 93.8963C293.098 93.8703 292.916 93.6451 292.942 93.3939C292.968 93.1428 293.193 92.9609 293.444 92.9868L327.085 96.4341C327.336 96.46 327.518 96.6852 327.492 96.9364C327.466 97.1876 327.241 97.3695 326.99 97.3435Z" fill="#65666D"/>
<path d="M289.323 103.022L286.43 102.728C286.136 102.693 285.91 102.433 285.945 102.13L286.239 99.2371C286.274 98.9427 286.534 98.7261 286.837 98.7521L289.73 99.0466C290.024 99.0812 290.25 99.3411 290.215 99.6442L289.92 102.537C289.886 102.832 289.626 103.057 289.323 103.022Z" fill="#D7D7D7" stroke="#65666D" stroke-miterlimit="10"/>
<path d="M329.948 104.646L292.661 100.826C292.41 100.8 292.228 100.575 292.254 100.324C292.28 100.072 292.506 99.8905 292.757 99.9165L330.044 103.736C330.295 103.762 330.477 103.987 330.451 104.239C330.425 104.49 330.2 104.672 329.948 104.646Z" fill="#65666D"/>
<path d="M326.091 106.258L292.451 102.81C292.199 102.784 292.018 102.559 292.043 102.308C292.069 102.057 292.295 101.875 292.546 101.901L326.186 105.348C326.438 105.374 326.619 105.599 326.593 105.85C326.567 106.102 326.342 106.284 326.091 106.258Z" fill="#65666D"/>
<path d="M288.417 111.928L285.524 111.634C285.229 111.599 285.004 111.339 285.039 111.036L285.333 108.143C285.368 107.849 285.628 107.632 285.931 107.658L288.824 107.953C289.118 107.987 289.343 108.247 289.309 108.55L289.014 111.443C288.988 111.738 288.72 111.963 288.417 111.928Z" fill="#F3F0F0" stroke="#65666D" stroke-linecap="round" stroke-linejoin="round"/>
<path d="M329.044 113.536L291.757 109.717C291.506 109.691 291.324 109.465 291.35 109.214C291.376 108.963 291.601 108.781 291.852 108.807L329.139 112.627C329.391 112.653 329.573 112.878 329.547 113.129C329.521 113.38 329.295 113.562 329.044 113.536Z" fill="#65666D"/>
<path d="M325.187 115.148L291.546 111.701C291.295 111.675 291.113 111.45 291.139 111.199C291.165 110.947 291.39 110.766 291.642 110.792L325.282 114.239C325.533 114.265 325.715 114.49 325.689 114.741C325.663 114.992 325.438 115.174 325.187 115.148Z" fill="#65666D"/>
<path d="M313.683 166.489L312.436 178.664L314.564 178.882L315.811 166.707L313.683 166.489Z" fill="#8F8F92" stroke="#65666D" stroke-linecap="round" stroke-linejoin="round"/>
<path d="M313.234 171.145L312.646 176.875L314.775 177.093L315.362 171.363L313.234 171.145Z" fill="#FBD97E" stroke="#65666D" stroke-miterlimit="10"/>
<path d="M318.816 163.966L317.568 176.141L319.697 176.359L320.944 164.184L318.816 163.966Z" fill="#8F8F92" stroke="#65666D" stroke-linecap="round" stroke-linejoin="round"/>
<path d="M318.468 167.184L317.881 172.914L320.009 173.132L320.596 167.402L318.468 167.184Z" fill="#FBD97E" stroke="#65666D" stroke-miterlimit="10"/>
<path d="M323.355 166.786L322.107 178.961L324.236 179.179L325.483 167.004L323.355 166.786Z" fill="#8F8F92" stroke="#65666D" stroke-linecap="round" stroke-linejoin="round"/>
<path d="M323.155 168.606L322.568 174.336L324.697 174.554L325.284 168.824L323.155 168.606Z" fill="#FBD97E" stroke="#65666D" stroke-miterlimit="10"/>
<path d="M309.144 163.599L307.896 175.773L310.025 175.991L311.272 163.817L309.144 163.599Z" fill="#8F8F92" stroke="#65666D" stroke-linecap="round" stroke-linejoin="round"/>
<path d="M308.694 168.255L308.107 173.984L310.236 174.202L310.823 168.473L308.694 168.255Z" fill="#FBD97E" stroke="#65666D" stroke-miterlimit="10"/>
<path d="M303.98 166.763L302.732 178.938L304.861 179.156L306.108 166.981L303.98 166.763Z" fill="#8F8F92" stroke="#65666D" stroke-linecap="round" stroke-linejoin="round"/>
<path d="M303.444 171.786L302.857 177.516L304.986 177.734L305.573 172.004L303.444 171.786Z" fill="#FBD97E" stroke="#65666D" stroke-miterlimit="10"/>
<path d="M299.519 163.13L298.271 175.305L300.4 175.523L301.647 163.348L299.519 163.13Z" fill="#8F8F92" stroke="#65666D" stroke-linecap="round" stroke-linejoin="round"/>
<path d="M298.89 169.067L298.303 174.797L300.431 175.015L301.018 169.285L298.89 169.067Z" fill="#FBD97E" stroke="#65666D" stroke-miterlimit="10"/>
<path d="M294.058 168.95L292.811 181.125L294.939 181.343L296.186 169.168L294.058 168.95Z" fill="#8F8F92" stroke="#65666D" stroke-linecap="round" stroke-linejoin="round"/>
<path d="M293.452 174.942L292.865 180.672L294.993 180.89L295.58 175.16L293.452 174.942Z" fill="#FBD97E" stroke="#65666D" stroke-miterlimit="10"/>
<path d="M290.066 160.833L288.818 173.008L290.947 173.226L292.194 161.051L290.066 160.833Z" fill="#8F8F92" stroke="#65666D" stroke-linecap="round" stroke-linejoin="round"/>
<path d="M289.601 165.458L289.014 171.188L291.142 171.406L291.729 165.676L289.601 165.458Z" fill="#FBD97E" stroke="#65666D" stroke-miterlimit="10"/>
<path d="M285.339 159.599L284.092 171.773L286.22 171.991L287.467 159.817L285.339 159.599Z" fill="#8F8F92" stroke="#65666D" stroke-linecap="round" stroke-linejoin="round"/>
<path d="M285.171 161.505L284.584 167.234L286.712 167.452L287.299 161.723L285.171 161.505Z" fill="#FBD97E" stroke="#65666D" stroke-miterlimit="10"/>
<path d="M279.761 166.786L278.514 178.961L280.642 179.179L281.889 167.004L279.761 166.786Z" fill="#8F8F92" stroke="#65666D" stroke-linecap="round" stroke-linejoin="round"/>
<path d="M279.616 168.2L279.029 173.93L281.158 174.148L281.745 168.418L279.616 168.2Z" fill="#FBD97E" stroke="#65666D" stroke-miterlimit="10"/>
<path d="M275.519 160.942L274.271 173.117L276.4 173.335L277.647 161.161L275.519 160.942Z" fill="#8F8F92" stroke="#65666D" stroke-linecap="round" stroke-linejoin="round"/>
<path d="M275.093 165.091L274.506 170.82L276.634 171.038L277.221 165.309L275.093 165.091Z" fill="#FBD97E" stroke="#65666D" stroke-miterlimit="10"/>
<path d="M270.394 163.591L269.146 175.766L271.275 175.984L272.522 163.809L270.394 163.591Z" fill="#8F8F92" stroke="#65666D" stroke-linecap="round" stroke-linejoin="round"/>
<path d="M269.937 168.247L269.35 173.977L271.478 174.195L272.065 168.465L269.937 168.247Z" fill="#FBD97E" stroke="#65666D" stroke-miterlimit="10"/>
<path d="M265.035 168.56L263.787 180.734L265.915 180.952L267.163 168.778L265.035 168.56Z" fill="#8F8F92" stroke="#65666D" stroke-linecap="round" stroke-linejoin="round"/>
<path d="M264.39 175.044L263.803 180.773L265.931 180.991L266.518 175.262L264.39 175.044Z" fill="#FBD97E" stroke="#65666D" stroke-miterlimit="10"/>
<path d="M261.05 160.396L259.803 172.57L261.931 172.788L263.178 160.614L261.05 160.396Z" fill="#8F8F92" stroke="#65666D" stroke-linecap="round" stroke-linejoin="round"/>
<path d="M260.53 165.473L259.943 171.203L262.072 171.421L262.659 165.691L260.53 165.473Z" fill="#FBD97E" stroke="#65666D" stroke-miterlimit="10"/>
<path d="M256.785 154.521L255.537 166.695L257.665 166.913L258.913 154.739L256.785 154.521Z" fill="#8F8F92" stroke="#65666D" stroke-linecap="round" stroke-linejoin="round"/>
<path d="M256.28 159.63L255.693 165.359L257.822 165.577L258.409 159.848L256.28 159.63Z" fill="#FBD97E" stroke="#65666D" stroke-miterlimit="10"/>
<path d="M251.347 160.513L250.1 172.688L252.228 172.906L253.475 160.731L251.347 160.513Z" fill="#8F8F92" stroke="#65666D" stroke-linecap="round" stroke-linejoin="round"/>
<path d="M251.155 162.333L250.568 168.062L252.697 168.281L253.284 162.551L251.155 162.333Z" fill="#FBD97E" stroke="#65666D" stroke-miterlimit="10"/>
<path d="M245.855 166.903L244.607 179.078L246.736 179.296L247.983 167.121L245.855 166.903Z" fill="#8F8F92" stroke="#65666D" stroke-linecap="round" stroke-linejoin="round"/>
<path d="M245.757 167.848L245.17 173.578L247.298 173.796L247.885 168.066L245.757 167.848Z" fill="#FBD97E" stroke="#65666D" stroke-miterlimit="10"/>
<path d="M241.761 159.536L240.514 171.711L242.642 171.929L243.889 159.754L241.761 159.536Z" fill="#8F8F92" stroke="#65666D" stroke-linecap="round" stroke-linejoin="round"/>
<path d="M241.288 164.106L240.701 169.836L242.829 170.054L243.416 164.324L241.288 164.106Z" fill="#FBD97E" stroke="#65666D" stroke-miterlimit="10"/>
<path d="M237.16 156.974L235.912 169.148L238.04 169.366L239.288 157.192L237.16 156.974Z" fill="#8F8F92" stroke="#65666D" stroke-linecap="round" stroke-linejoin="round"/>
<path d="M237.023 158.426L236.436 164.156L238.564 164.374L239.151 158.645L237.023 158.426Z" fill="#FBD97E" stroke="#65666D" stroke-miterlimit="10"/>
<path d="M231.98 160.278L230.732 172.453L232.861 172.671L234.108 160.496L231.98 160.278Z" fill="#8F8F92" stroke="#65666D" stroke-linecap="round" stroke-linejoin="round"/>
<path d="M231.343 166.77L230.756 172.5L232.884 172.718L233.471 166.988L231.343 166.77Z" fill="#FBD97E" stroke="#65666D" stroke-miterlimit="10"/>
<path d="M227.597 156.028L226.35 168.203L228.478 168.421L229.725 156.246L227.597 156.028Z" fill="#8F8F92" stroke="#65666D" stroke-linecap="round" stroke-linejoin="round"/>
<path d="M227.015 161.52L226.428 167.25L228.556 167.468L229.143 161.738L227.015 161.52Z" fill="#FBD97E" stroke="#65666D" stroke-miterlimit="10"/>
<path d="M222.636 157.185L221.389 169.359L223.517 169.577L224.764 157.403L222.636 157.185Z" fill="#8F8F92" stroke="#65666D" stroke-linecap="round" stroke-linejoin="round"/>
<path d="M222.023 163.176L221.436 168.906L223.564 169.124L224.151 163.395L222.023 163.176Z" fill="#FBD97E" stroke="#65666D" stroke-miterlimit="10"/>
<path d="M217.995 155.122L216.748 167.297L218.876 167.515L220.124 155.34L217.995 155.122Z" fill="#8F8F92" stroke="#65666D" stroke-linecap="round" stroke-linejoin="round"/>
<path d="M217.944 155.614L217.357 161.344L219.486 161.562L220.073 155.832L217.944 155.614Z" fill="#FBD97E" stroke="#65666D" stroke-miterlimit="10"/>
<path d="M325.509 193.654L228.294 183.693C227.731 183.633 227.229 184.048 227.168 184.603C227.107 185.166 227.523 185.668 228.077 185.729L325.292 195.689C325.855 195.75 326.357 195.334 326.418 194.78C326.479 194.217 326.063 193.715 325.509 193.654Z" fill="#65666D"/>
<path d="M324.762 200.969L211.724 189.389C211.161 189.328 210.658 189.744 210.598 190.298C210.537 190.861 210.953 191.363 211.507 191.424L324.546 203.004C325.109 203.065 325.611 202.649 325.672 202.095C325.733 201.532 325.325 201.03 324.762 200.969Z" fill="#65666D"/>
<path d="M276.531 203.43L210.974 196.709C210.411 196.648 209.908 197.064 209.848 197.618C209.787 198.181 210.203 198.684 210.757 198.744L276.315 205.466C276.878 205.526 277.38 205.11 277.441 204.556C277.501 203.993 277.085 203.491 276.531 203.43Z" fill="#65666D"/>
<path d="M354.746 35.2757L342.507 154.698L334.981 228.163L229.798 217.388L209.331 215.292L196.227 213.95L207.841 100.573L215.992 21.0625L354.746 35.2757Z" stroke="#65666D" stroke-linecap="round" stroke-linejoin="round"/>
<path d="M353.023 342.714L291.528 353.177C291.528 353.177 280.823 296.315 274.439 287.359C268.056 278.395 269.225 274.714 266.124 268.677C264.253 265.03 254.873 258.231 247.511 251.519H247.502C246.862 250.938 246.238 250.358 245.64 249.778C245.38 249.544 245.138 249.293 244.895 249.059C243.917 248.089 243.007 247.145 242.202 246.218C241.907 245.889 241.63 245.56 241.37 245.231C239.837 243.334 238.755 241.558 238.391 239.956C238.365 239.869 238.347 239.783 238.339 239.687C238.313 239.575 238.295 239.471 238.287 239.367C238.122 238.024 237.949 236.491 237.776 234.828C237.741 234.499 237.707 234.153 237.663 233.806C237.646 233.668 237.629 233.538 237.611 233.391C237.464 232.005 237.299 230.532 237.109 229.017C236.918 227.432 236.71 225.786 236.468 224.132C236.39 223.56 236.312 222.988 236.217 222.408C236.217 222.399 236.217 222.391 236.208 222.391C236.113 221.75 236.009 221.109 235.905 220.459C235.81 219.905 235.714 219.351 235.619 218.796C235.602 218.701 235.576 218.614 235.567 218.536C235.446 217.887 235.325 217.255 235.203 216.614C235.177 216.544 235.169 216.475 235.16 216.397C235.039 215.834 234.926 215.28 234.796 214.717C234.528 213.461 234.225 212.231 233.896 211.036C233.246 208.654 232.484 206.428 231.6 204.453C227.166 194.553 232.934 198.13 229.461 172.657C229.461 172.657 232.016 166.75 239.3 171.471C239.863 171.835 240.4 172.233 240.929 172.657H240.937C242.401 173.835 243.7 175.23 244.809 176.798C246.255 178.833 247.381 181.163 248.152 183.692C249.304 187.46 249.676 191.678 249.139 196.078C249.139 196.078 254.613 214.838 257.498 219.108C260.39 223.378 272.308 198.849 271.538 195.991C271.382 195.419 271.165 194.025 270.923 192.111C270.871 191.686 270.819 191.236 270.758 190.76C270.706 190.283 270.645 189.79 270.594 189.279C270.559 189.036 270.533 188.776 270.498 188.525C270.49 188.421 270.481 188.317 270.464 188.222C270.36 187.243 270.238 186.204 270.126 185.13C270.1 184.827 270.065 184.541 270.031 184.246C269.979 183.735 269.927 183.207 269.875 182.687C269.857 182.609 269.857 182.523 269.849 182.427C269.814 182.133 269.779 181.83 269.753 181.518C269.684 180.912 269.623 180.297 269.563 179.682C269.502 179.153 269.459 178.625 269.407 178.097C269.303 177.101 269.208 176.105 269.112 175.143C269.043 174.424 268.974 173.714 268.913 173.021C268.896 172.865 268.879 172.709 268.87 172.562C268.506 168.751 268.22 165.616 268.116 164.282C268.116 164.282 259.446 151.446 258.554 145.4C257.662 139.346 257.74 132.989 261.369 130.399C269.961 124.284 267.449 134.141 271.295 138.22C275.141 142.317 281.039 148.986 284.382 151.073C287.466 153.031 290.22 160.636 290.61 161.744C290.168 160.081 285.759 143.729 285.664 140.437C285.552 136.964 282.901 118.646 287.405 112.072C291.9 105.506 297.894 110.599 298.448 111.898C299.003 113.198 299.167 130.945 300.752 135.89C302.346 140.827 308.972 161.415 308.972 161.415C308.972 161.415 309.249 141.39 310.747 132.426C312.237 123.47 316.135 116.454 319.946 116.056C323.757 115.657 327.282 119.858 327.282 119.858C327.282 119.858 325.775 134.149 326.208 137.449C326.632 140.741 325.584 152.667 327.394 159.077C327.394 159.077 327.187 142.005 329.837 139.822C332.496 137.64 334.765 136.592 336.255 138.064C337.736 139.537 338.065 149.644 339.581 155.725C341.105 161.814 340.906 170.068 341.902 179.552C342.898 189.036 346.822 202.201 346.042 209.728C345.263 217.237 342.864 235.92 340.932 246.876C339.001 257.841 334.072 272.843 334.072 272.843C334.072 272.843 336.316 280.855 335.882 288C335.441 295.146 353.023 342.714 353.023 342.714Z" fill="#F3F0F0"/>
<path opacity="0.4" d="M329.84 139.82H329.832C329.832 139.82 329.814 139.846 329.806 139.855C329.71 139.924 329.476 140.106 329.139 140.392C329.355 139.993 329.58 139.612 329.823 139.266L329.84 139.829V139.82Z" fill="#FBD97E"/>
<path d="M291.511 353.174C291.511 353.174 280.814 296.313 274.422 287.357C268.039 278.401 269.208 274.712 266.108 268.675C263.007 262.638 239.318 247.948 238.27 239.365C237.222 230.79 236.018 214.351 231.584 204.451C227.149 194.543 232.917 198.128 229.436 172.655C229.436 172.655 232.008 166.757 239.283 171.469C246.559 176.181 250.396 185.63 249.123 196.084C249.123 196.084 254.597 214.836 257.481 219.106C260.374 223.385 272.283 198.847 271.512 195.98C270.741 193.113 268.455 168.723 268.1 164.28C268.1 164.28 259.43 151.444 258.538 145.398C257.645 139.353 257.723 132.987 261.352 130.405C269.945 124.291 267.433 134.147 271.278 138.235C275.124 142.323 281.022 148.993 284.366 151.089C287.709 153.185 290.636 161.889 290.636 161.889C290.636 161.889 285.751 143.926 285.647 140.453C285.544 136.979 282.885 118.661 287.388 112.095C291.892 105.53 297.886 110.623 298.432 111.914C298.986 113.213 299.15 130.96 300.744 135.897C302.329 140.842 308.955 161.43 308.955 161.43C308.955 161.43 309.241 141.405 310.731 132.441C312.229 123.476 316.127 116.469 319.929 116.071C323.74 115.673 327.265 119.873 327.265 119.873C327.265 119.873 325.758 134.164 326.182 137.464C326.607 140.764 325.567 152.682 327.378 159.1C327.378 159.1 327.161 142.029 329.82 139.838C332.479 137.655 334.748 136.607 336.23 138.079C337.711 139.552 338.04 149.66 339.564 155.74C341.089 161.82 340.889 170.083 341.885 179.567C342.881 189.051 346.805 202.216 346.026 209.734C345.246 217.252 342.838 235.926 340.907 246.891C338.975 257.857 334.056 272.858 334.056 272.858C334.056 272.858 336.299 280.87 335.857 288.015C335.415 295.161 352.998 342.729 352.998 342.729" stroke="#65666D" stroke-linecap="round" stroke-linejoin="round"/>
<path d="M308.943 161.414C310.736 165.623 315.162 183.396 316.747 185.856C318.332 188.316 320.125 189.061 320.125 189.061" stroke="#65666D" stroke-linecap="round" stroke-linejoin="round"/>
<path d="M327.387 159.078C327.387 159.078 327.006 162.716 328.972 174.331C330.938 185.946 331.9 190.882 333 193.472" stroke="#65666D" stroke-linecap="round" stroke-linejoin="round"/>
<path d="M290.631 161.875C293.03 168.951 294.39 180.228 295.758 183.624C297.127 187.019 298.348 187.72 298.348 187.72" stroke="#65666D" stroke-linecap="round" stroke-linejoin="round"/>
<path d="M294.521 178.852C294.521 178.852 297.042 180.722 297.847 183.052" stroke="#65666D" stroke-linecap="round" stroke-linejoin="round"/>
<path d="M257.482 219.109C257.482 219.109 258.799 228.49 264.68 227.745" stroke="#65666D" stroke-linecap="round" stroke-linejoin="round"/>
<path d="M271.515 195.977C271.515 195.977 273.039 207.124 270.545 211.861" stroke="#65666D" stroke-linecap="round" stroke-linejoin="round"/>
<path d="M318.485 196.078C318.485 196.078 322.434 198.495 319.793 205.588C317.151 212.673 312.561 241.299 312.561 241.299" stroke="#65666D" stroke-linecap="round" stroke-linejoin="round"/>
<path d="M335.687 203.57C337.341 209.98 337.489 210.144 334.804 218.017C332.11 225.891 327.779 245.171 327.779 245.171" stroke="#65666D" stroke-linecap="round" stroke-linejoin="round"/>
<path d="M334.057 272.837C334.057 272.837 331.476 267.623 333.606 263.336" stroke="#65666D" stroke-linecap="round" stroke-linejoin="round"/>
<path d="M274.42 287.352C274.42 287.352 280.951 296.524 283.791 306.788" stroke="#65666D" stroke-linecap="round" stroke-linejoin="round"/>
<path d="M322.477 126.568L324.243 124.827L325.04 124.602L324.988 125.468L323.369 127.529L322.477 126.568Z" fill="#8F8F92" stroke="#65666D" stroke-linecap="round" stroke-linejoin="round"/>
<path d="M323.923 127.542L321.056 134.064L243.797 237.073L235.188 231.59L246.872 216.935L316.266 129.889L322.39 126C322.39 126 323.697 126.338 323.931 127.542H323.923Z" fill="#FBD97E"/>
<mask id="mask1_729_31675" style="mask-type:luminance" maskUnits="userSpaceOnUse" x="235" y="126" width="89" height="112">
<path d="M323.921 127.542L321.054 134.064L243.795 237.073L235.186 231.59L246.87 216.935L316.264 129.889L322.388 126C322.388 126 323.696 126.338 323.929 127.542H323.921Z" fill="white"/>
</mask>
<g mask="url(#mask1_729_31675)">
<path opacity="0.3" d="M323.921 127.541L321.054 134.063L243.795 237.072L235.186 231.589L246.87 216.934C252.24 216.38 253.132 219.55 253.132 219.55L319.694 132.677C319.036 130.338 316.264 129.897 316.264 129.897L322.388 126.008C322.388 126.008 323.696 126.346 323.929 127.55L323.921 127.541Z" fill="#65666D"/>
</g>
<path d="M323.923 127.542L321.056 134.064L243.797 237.073L235.188 231.59L246.872 216.935L316.266 129.889L322.39 126C322.39 126 323.697 126.338 323.931 127.542H323.923Z" stroke="#65666D" stroke-linecap="round" stroke-linejoin="round"/>
<path d="M268.978 206.579C268.978 206.579 260.36 223.694 252.053 235.803L246.129 237.336C246.129 237.336 232.531 250.847 224.233 257.594C224.233 257.594 222.102 256.356 220.18 254.191C220.18 254.191 231.959 231.567 244.994 217.25C244.994 217.25 246.891 217.83 249.273 219.519C250.685 220.524 252.27 221.91 253.734 223.807L268.259 205.531L268.978 206.588V206.579Z" fill="#FBD97E"/>
<mask id="mask2_729_31675" style="mask-type:luminance" maskUnits="userSpaceOnUse" x="220" y="205" width="49" height="53">
<path d="M268.976 206.579C268.976 206.579 260.358 223.694 252.051 235.803L246.127 237.336C246.127 237.336 232.529 250.847 224.231 257.594C224.231 257.594 222.101 256.356 220.178 254.191C220.178 254.191 231.957 231.567 244.992 217.25C244.992 217.25 246.889 217.83 249.271 219.519C250.683 220.524 252.268 221.91 253.732 223.807L268.257 205.531L268.976 206.588V206.579Z" fill="white"/>
</mask>
<g mask="url(#mask2_729_31675)">
<path opacity="0.3" d="M268.985 206.578C268.985 206.578 260.367 223.693 252.06 235.802L246.136 237.335C246.136 237.335 232.538 250.846 224.24 257.594L224.465 253.93C233.465 240.184 244.897 225.192 249.271 219.527C250.683 220.532 252.268 221.918 253.732 223.814L245.66 234.589L250.285 233.758L268.257 205.539L268.976 206.596L268.985 206.578Z" fill="#65666D"/>
</g>
<path d="M268.978 206.579C268.978 206.579 260.36 223.694 252.053 235.803L246.129 237.336C246.129 237.336 232.531 250.847 224.233 257.594C224.233 257.594 222.102 256.356 220.18 254.191C220.18 254.191 231.959 231.567 244.994 217.25C244.994 217.25 246.891 217.83 249.273 219.519C250.685 220.524 252.27 221.91 253.734 223.807L268.259 205.531L268.978 206.588V206.579Z" stroke="#65666D" stroke-linecap="round" stroke-linejoin="round"/>
<path d="M298.355 187.72L274.224 211.123L270.37 214.865C273.012 208.074 271.73 197.585 271.565 196.303V196.286C271.557 196.217 271.548 196.174 271.548 196.174C271.548 196.113 271.548 196.035 271.531 195.992C271.383 195.429 271.167 194.026 270.924 192.111C270.872 191.687 270.82 191.237 270.76 190.76C270.699 190.284 270.647 189.79 270.587 189.279C270.552 189.037 270.526 188.777 270.5 188.534C270.491 188.43 270.483 188.326 270.465 188.231C270.361 187.252 270.24 186.213 270.127 185.13C270.101 184.836 270.067 184.541 270.032 184.247C269.98 183.736 269.928 183.216 269.876 182.688C269.868 182.61 269.859 182.523 269.85 182.428C269.824 182.134 269.781 181.822 269.755 181.51C269.686 180.904 269.634 180.289 269.564 179.674C269.513 179.145 269.461 178.617 269.409 178.089C269.313 177.093 269.209 176.097 269.123 175.135C269.045 174.416 268.976 173.706 268.915 173.022C268.898 172.866 268.889 172.71 268.872 172.554C268.508 168.743 268.222 165.616 268.118 164.274C268.118 164.274 259.457 151.438 258.556 145.392C257.673 139.347 257.742 132.981 261.371 130.4C269.963 124.276 267.442 134.133 271.288 138.221C275.134 142.317 281.041 148.978 284.375 151.074C287.71 153.179 290.646 161.875 290.646 161.875C293.045 168.951 294.405 180.219 295.774 183.623C297.142 187.019 298.363 187.72 298.363 187.72H298.355Z" fill="#F3F0F0"/>
<path d="M294.539 178.852C294.539 178.852 297.06 180.722 297.865 183.052" stroke="#65666D" stroke-linecap="round" stroke-linejoin="round"/>
<path d="M298.364 187.724C298.364 187.724 297.143 187.023 295.774 183.627C294.406 180.232 293.046 168.955 290.647 161.879C290.647 161.879 287.711 153.174 284.376 151.078C281.033 148.982 275.143 142.313 271.289 138.225C267.435 134.137 269.955 124.28 261.363 130.395C257.734 132.976 257.665 139.342 258.548 145.388C259.44 151.433 268.11 164.278 268.11 164.278C268.465 168.73 270.752 193.12 271.523 195.978" stroke="#65666D" stroke-linecap="round" stroke-linejoin="round"/>
<path d="M271.517 195.984C271.517 195.984 273.041 207.131 270.547 211.869" stroke="#65666D" stroke-linecap="round" stroke-linejoin="round"/>
<path d="M234.15 190.163L117.603 239.212L105.59 244.27L82.9492 190.475L30.375 65.5525L158.935 11.4453L234.15 190.163Z" fill="#F3F0F0"/>
<mask id="mask3_729_31675" style="mask-type:luminance" maskUnits="userSpaceOnUse" x="30" y="11" width="205" height="234">
<path d="M234.134 190.163L117.587 239.212L105.574 244.27L82.9335 190.475L30.3594 65.5525L158.919 11.4453L234.134 190.163Z" fill="white"/>
</mask>
<g mask="url(#mask3_729_31675)">
<path d="M125.715 34.6932L70.2221 58.0528C69.1827 58.4945 68.689 59.6898 69.1307 60.7292C69.5725 61.7685 70.7677 62.2622 71.8071 61.8205L127.3 38.4609C128.339 38.0192 128.833 36.8239 128.391 35.7846C127.95 34.7452 126.754 34.2515 125.706 34.6932H125.715Z" fill="#65666D"/>
</g>
<mask id="mask4_729_31675" style="mask-type:luminance" maskUnits="userSpaceOnUse" x="30" y="11" width="205" height="234">
<path d="M234.134 190.163L117.587 239.212L105.574 244.27L82.9335 190.475L30.3594 65.5525L158.919 11.4453L234.134 190.163Z" fill="white"/>
</mask>
<g mask="url(#mask4_729_31675)">
<path d="M115.102 48.2823L87.3514 59.9577C86.8317 60.1743 86.5892 60.7806 86.8057 61.3003C87.0223 61.8199 87.6286 62.0624 88.1482 61.8459L115.899 50.1705C116.419 49.9539 116.661 49.3476 116.445 48.828C116.228 48.3083 115.622 48.0658 115.102 48.2823Z" fill="#65666D"/>
</g>
<mask id="mask5_729_31675" style="mask-type:luminance" maskUnits="userSpaceOnUse" x="30" y="11" width="205" height="234">
<path d="M234.134 190.163L117.587 239.212L105.574 244.27L82.9335 190.475L30.3594 65.5525L158.919 11.4453L234.134 190.163Z" fill="white"/>
</mask>
<g mask="url(#mask5_729_31675)">
<path d="M160.752 119.422C160.752 119.422 161.922 128.62 158.5 130.058C155.374 131.374 151.259 126.438 147.665 127.953C144.071 129.469 146.903 142.496 143.438 143.959C139.974 145.423 135.799 140.062 132.811 141.326C129.823 142.582 131.624 149.286 128.55 150.585C126.003 151.659 122.365 146.324 119.455 145.155C118.84 144.903 118.26 144.843 117.723 145.068C114.674 146.35 116.19 160.355 113.557 161.464C112.682 161.836 111.928 161.897 111.218 161.845C110.179 161.776 109.261 161.464 108.247 161.568C107.892 161.602 107.52 161.689 107.139 161.854C104.895 162.798 105.199 170.169 103.146 171.035C101.093 171.901 99.0664 170.827 96.8751 171.754C94.6838 172.68 94.7184 176.509 91.4531 177.886L92.8389 181.168L172.618 147.597" fill="#D7D7D7"/>
<path d="M160.752 119.422C160.752 119.422 161.922 128.62 158.5 130.058C155.374 131.374 151.259 126.438 147.665 127.953C144.071 129.469 146.903 142.496 143.438 143.959C139.974 145.423 135.799 140.062 132.811 141.326C129.823 142.582 131.624 149.286 128.55 150.585C126.003 151.659 122.365 146.324 119.455 145.155C118.84 144.903 118.26 144.843 117.723 145.068C114.674 146.35 116.19 160.355 113.557 161.464C112.682 161.836 111.928 161.897 111.218 161.845C110.179 161.776 109.261 161.464 108.247 161.568C107.892 161.602 107.52 161.689 107.139 161.854C104.895 162.798 105.199 170.169 103.146 171.035C101.093 171.901 99.0664 170.827 96.8751 171.754C94.6838 172.68 94.7184 176.509 91.4531 177.886L92.8389 181.168L172.618 147.597" stroke="#65666D" stroke-miterlimit="10"/>
<path d="M76.6641 142.773L92.8174 181.152L176.347 145.995" stroke="#65666D" stroke-linecap="round" stroke-linejoin="round"/>
<path d="M167.165 134.676C167.165 134.676 166.775 134.191 166.178 133.62C165.147 132.624 163.51 131.359 162.263 131.879C161.05 132.39 160.938 134.416 160.964 136.573C160.99 139.206 161.223 142.03 159.898 142.593C158.772 143.069 157.768 142.359 156.728 141.579C155.542 140.696 154.329 139.726 152.865 140.341C150.405 141.38 151.15 144.585 150.284 147.33C149.842 148.734 148.976 150.015 147.045 150.83C144.914 151.722 142.757 150.847 140.731 149.461C137.301 147.123 134.217 143.329 132.225 144.169C129.047 145.503 132.554 154.104 129.133 155.541C127.228 156.347 123.278 150.327 119.441 145.156C116.41 141.06 113.448 137.5 111.62 138.262C107.497 139.994 114.288 160.548 111.291 161.803C111.265 161.812 111.23 161.829 111.204 161.838C109.957 162.332 109.039 162.02 108.233 161.561C107.151 160.946 106.276 160.08 105.081 160.582C102.872 161.509 104.171 169.573 101.737 170.595C99.3037 171.617 97.8486 170.136 95.1116 171.288C92.799 172.258 91.4219 177.87 91.4219 177.87L92.8077 181.153L172.587 147.582" fill="#8F8F92"/>
<path d="M167.165 134.676C167.165 134.676 166.775 134.191 166.178 133.62C165.147 132.624 163.51 131.359 162.263 131.879C161.05 132.39 160.938 134.416 160.964 136.573C160.99 139.206 161.223 142.03 159.898 142.593C158.772 143.069 157.768 142.359 156.728 141.579C155.542 140.696 154.329 139.726 152.865 140.341C150.405 141.38 151.15 144.585 150.284 147.33C149.842 148.734 148.976 150.015 147.045 150.83C144.914 151.722 142.757 150.847 140.731 149.461C137.301 147.123 134.217 143.329 132.225 144.169C129.047 145.503 132.554 154.104 129.133 155.541C127.228 156.347 123.278 150.327 119.441 145.156C116.41 141.06 113.448 137.5 111.62 138.262C107.497 139.994 114.288 160.548 111.291 161.803C111.265 161.812 111.23 161.829 111.204 161.838C109.957 162.332 109.039 162.02 108.233 161.561C107.151 160.946 106.276 160.08 105.081 160.582C102.872 161.509 104.171 169.573 101.737 170.595C99.3037 171.617 97.8486 170.136 95.1116 171.288C92.799 172.258 91.4219 177.87 91.4219 177.87L92.8077 181.153L172.587 147.582" stroke="#65666D" stroke-linecap="round" stroke-linejoin="round"/>
<path d="M150.29 162.079L122.539 173.755C122.019 173.971 121.777 174.577 121.993 175.097C122.21 175.617 122.816 175.859 123.336 175.643L151.087 163.967C151.606 163.751 151.849 163.145 151.632 162.625C151.416 162.105 150.809 161.863 150.29 162.079Z" fill="#65666D"/>
<path d="M173.811 119.769L171.126 120.895C170.849 121.007 170.528 120.877 170.416 120.609L169.29 117.924C169.177 117.647 169.299 117.326 169.576 117.213L172.261 116.087C172.538 115.975 172.858 116.105 172.971 116.373L174.097 119.058C174.209 119.335 174.08 119.656 173.811 119.769Z" fill="#D7D7D7" stroke="#65666D" stroke-miterlimit="10"/>
<path d="M186.764 111.563L175.678 116.231C175.444 116.327 175.175 116.223 175.08 115.989C174.985 115.755 175.089 115.486 175.323 115.391L186.409 110.723C186.643 110.627 186.911 110.731 187.007 110.965C187.102 111.199 186.998 111.468 186.764 111.563Z" fill="#65666D"/>
<path d="M184.152 114.828L176.443 118.068C176.21 118.163 175.941 118.059 175.846 117.825C175.75 117.591 175.854 117.323 176.088 117.228L183.797 113.988C184.031 113.893 184.299 113.997 184.394 114.231C184.49 114.465 184.386 114.733 184.152 114.828Z" fill="#65666D"/>
<path d="M177.28 128.011L174.595 129.137C174.318 129.249 173.997 129.119 173.885 128.851L172.759 126.166C172.646 125.889 172.767 125.568 173.044 125.456L175.729 124.33C176.007 124.217 176.327 124.347 176.44 124.616L177.566 127.301C177.678 127.578 177.557 127.898 177.28 128.011Z" fill="#8F8F92" stroke="#65666D" stroke-linecap="round" stroke-linejoin="round"/>
<path d="M190.217 119.805L179.131 124.473C178.897 124.569 178.629 124.465 178.533 124.231C178.438 123.997 178.542 123.729 178.776 123.633L189.862 118.965C190.096 118.87 190.365 118.974 190.46 119.207C190.555 119.441 190.451 119.71 190.217 119.805Z" fill="#65666D"/>
<path d="M187.605 123.071L179.896 126.31C179.663 126.405 179.394 126.301 179.299 126.067C179.204 125.834 179.308 125.565 179.541 125.47L187.25 122.23C187.484 122.135 187.752 122.239 187.848 122.473C187.943 122.707 187.839 122.975 187.605 123.071Z" fill="#65666D"/>
</g>
<mask id="mask6_729_31675" style="mask-type:luminance" maskUnits="userSpaceOnUse" x="30" y="11" width="205" height="234">
<path d="M234.134 190.163L117.587 239.212L105.574 244.27L82.9335 190.475L30.3594 65.5525L158.919 11.4453L234.134 190.163Z" fill="white"/>
</mask>
<g mask="url(#mask6_729_31675)">
<path d="M204.834 153.798L114.765 191.7C114.246 191.916 114.003 192.523 114.22 193.042C114.436 193.562 115.043 193.805 115.562 193.588L205.631 155.686C206.151 155.47 206.393 154.863 206.177 154.344C205.96 153.824 205.354 153.581 204.834 153.798Z" fill="#65666D"/>
<path d="M207.686 160.579L102.953 204.657C102.433 204.873 102.191 205.479 102.407 205.999C102.624 206.519 103.23 206.761 103.75 206.545L208.482 162.467C209.002 162.251 209.245 161.645 209.028 161.125C208.812 160.605 208.205 160.363 207.686 160.579Z" fill="#65666D"/>
<path d="M210.537 167.36L105.805 211.438C105.285 211.654 105.042 212.261 105.259 212.78C105.475 213.3 106.082 213.543 106.601 213.326L211.334 169.249C211.854 169.032 212.096 168.426 211.88 167.906C211.663 167.386 211.057 167.144 210.537 167.36Z" fill="#65666D"/>
<path d="M213.389 174.142L108.656 218.219C108.136 218.436 107.894 219.042 108.11 219.562C108.327 220.081 108.933 220.324 109.453 220.107L214.186 176.03C214.705 175.813 214.948 175.207 214.731 174.687C214.515 174.168 213.908 173.925 213.389 174.142Z" fill="#65666D"/>
<path d="M172.257 199.446L111.515 225.006C110.996 225.222 110.753 225.829 110.97 226.348C111.186 226.868 111.793 227.111 112.312 226.894L173.054 201.335C173.574 201.118 173.816 200.512 173.6 199.992C173.383 199.472 172.786 199.23 172.257 199.446Z" fill="#65666D"/>
</g>
<mask id="mask7_729_31675" style="mask-type:luminance" maskUnits="userSpaceOnUse" x="30" y="11" width="205" height="234">
<path d="M234.134 190.163L117.587 239.212L105.574 244.27L82.9335 190.475L30.3594 65.5525L158.919 11.4453L234.134 190.163Z" fill="white"/>
</mask>
<g mask="url(#mask7_729_31675)">
<path d="M138.807 67.2188C138.807 67.2188 139.976 76.4084 136.555 77.8548C133.428 79.1714 129.314 74.2344 125.72 75.7501C122.125 77.2659 124.958 90.2925 121.493 91.7563C118.028 93.22 113.854 87.8587 110.866 89.1232C107.877 90.3791 109.679 97.083 106.604 98.3822C104.058 99.4562 100.42 94.1208 97.5098 92.9515C96.8949 92.7003 96.3146 92.6397 95.7776 92.8649C92.7288 94.1468 94.2445 108.152 91.6115 109.261C90.7367 109.633 89.9832 109.694 89.2729 109.642C88.2336 109.573 87.3155 109.261 86.3021 109.365C85.947 109.399 85.5832 109.486 85.1935 109.651C82.9502 110.595 83.2533 117.965 81.2006 118.832C79.1479 119.698 77.1211 118.624 74.9298 119.55C72.7385 120.477 72.7731 124.305 69.5078 125.683L70.8936 128.965L150.673 95.394" fill="#D7D7D7"/>
<path d="M138.807 67.2188C138.807 67.2188 139.976 76.4084 136.555 77.8548C133.428 79.1714 129.314 74.2344 125.72 75.7501C122.125 77.2659 124.958 90.2925 121.493 91.7563C118.028 93.22 113.854 87.8587 110.866 89.1232C107.877 90.3791 109.679 97.083 106.604 98.3822C104.058 99.4562 100.42 94.1208 97.5098 92.9515C96.8949 92.7003 96.3146 92.6397 95.7776 92.8649C92.7288 94.1468 94.2445 108.152 91.6115 109.261C90.7367 109.633 89.9832 109.694 89.2729 109.642C88.2336 109.573 87.3155 109.261 86.3021 109.365C85.947 109.399 85.5832 109.486 85.1935 109.651C82.9502 110.595 83.2533 117.965 81.2006 118.832C79.1479 119.698 77.1211 118.624 74.9298 119.55C72.7385 120.477 72.7731 124.305 69.5078 125.683L70.8936 128.965L150.673 95.394" stroke="#65666D" stroke-miterlimit="10"/>
<path d="M143.96 79.4766C143.96 79.4766 144.688 83.9371 142.93 84.6734C141.466 85.2883 140.565 84.4308 139.023 84.3702C138.408 84.3442 137.69 84.4482 136.789 84.8293C135.377 85.4182 135.039 87.3237 134.788 89.3764C134.485 91.8969 134.32 94.6252 132.475 95.4047C131.185 95.9504 129.79 95.6299 128.353 95.1276C126.066 94.3307 123.65 93.0662 121.328 94.0449C120.202 94.5213 119.414 95.7425 118.799 97.2582C117.353 100.835 116.894 106.015 115.335 106.673C113.109 107.609 109.029 103.78 107.054 104.612C105.08 105.443 105.885 108.882 104.283 109.557C102.68 110.233 101.762 108.241 98.9388 109.427C96.1152 110.614 97.4924 114.789 93.5082 116.46C89.524 118.132 87.7744 115.057 83.9287 116.677C80.0745 118.297 80.776 121.215 78.065 122.359C75.354 123.502 74.2021 121.519 72.262 122.333C70.3738 123.121 69.8628 126.222 69.8281 126.421L70.8935 128.95L150.673 95.3787" fill="#FBD97E"/>
<path d="M143.96 79.4766C143.96 79.4766 144.688 83.9371 142.93 84.6734C141.466 85.2883 140.565 84.4308 139.023 84.3702C138.408 84.3442 137.69 84.4482 136.789 84.8293C135.377 85.4182 135.039 87.3237 134.788 89.3764C134.485 91.8969 134.32 94.6252 132.475 95.4047C131.185 95.9504 129.79 95.6299 128.353 95.1276C126.066 94.3307 123.65 93.0662 121.328 94.0449C120.202 94.5213 119.414 95.7425 118.799 97.2582C117.353 100.835 116.894 106.015 115.335 106.673C113.109 107.609 109.029 103.78 107.054 104.612C105.08 105.443 105.885 108.882 104.283 109.557C102.68 110.233 101.762 108.241 98.9388 109.427C96.1152 110.614 97.4924 114.789 93.5082 116.46C89.524 118.132 87.7744 115.057 83.9287 116.677C80.0745 118.297 80.776 121.215 78.065 122.359C75.354 123.502 74.2021 121.519 72.262 122.333C70.3738 123.121 69.8628 126.222 69.8281 126.421L70.8935 128.95L150.673 95.3787" stroke="#65666D" stroke-miterlimit="10"/>
<path d="M54.7188 90.5703L70.8721 128.949L154.402 93.7923" stroke="#65666D" stroke-linecap="round" stroke-linejoin="round"/>
<path d="M128.079 109.282L100.328 120.958C99.8083 121.174 99.5658 121.781 99.7823 122.3C99.9988 122.82 100.605 123.062 101.125 122.846L128.876 111.17C129.395 110.954 129.638 110.348 129.421 109.828C129.205 109.308 128.598 109.066 128.079 109.282Z" fill="#65666D"/>
<path d="M150.475 64.2295L147.79 65.3555C147.513 65.4681 147.192 65.3381 147.08 65.0696L145.954 62.3846C145.841 62.1075 145.963 61.787 146.24 61.6744L148.925 60.5484C149.202 60.4358 149.522 60.5658 149.635 60.8343L150.761 63.5193C150.874 63.7964 150.752 64.1169 150.475 64.2295Z" fill="#D7D7D7" stroke="#65666D" stroke-miterlimit="10"/>
<path d="M163.42 56.0394L152.334 60.7078C152.1 60.8031 151.832 60.6992 151.736 60.4653C151.641 60.2315 151.745 59.963 151.979 59.8677L163.065 55.1992C163.299 55.104 163.568 55.2079 163.663 55.4418C163.758 55.6756 163.654 55.9441 163.42 56.0394Z" fill="#65666D"/>
<path d="M160.816 59.2972L153.107 62.5365C152.874 62.6318 152.605 62.5279 152.51 62.294C152.415 62.0602 152.518 61.7917 152.752 61.6964L160.461 58.4571C160.695 58.3618 160.963 58.4657 161.059 58.6996C161.154 58.9334 161.05 59.2019 160.816 59.2972Z" fill="#65666D"/>
<path d="M153.927 72.4795L151.242 73.6055C150.965 73.7181 150.644 73.5881 150.532 73.3196L149.406 70.6346C149.293 70.3575 149.423 70.037 149.692 69.9244L152.377 68.7984C152.654 68.6858 152.974 68.8157 153.087 69.0842L154.213 71.7693C154.325 72.0464 154.196 72.3669 153.927 72.4795Z" fill="#FBD97E" stroke="#65666D" stroke-miterlimit="10"/>
<path d="M166.881 64.2738L155.795 68.9422C155.561 69.0375 155.293 68.9336 155.197 68.6997C155.102 68.4658 155.206 68.1973 155.44 68.1021L166.526 63.4336C166.76 63.3383 167.029 63.4423 167.124 63.6761C167.219 63.91 167.115 64.1785 166.881 64.2738Z" fill="#65666D"/>
<path d="M164.269 67.5394L156.561 70.7787C156.327 70.874 156.058 70.7701 155.963 70.5362C155.868 70.3024 155.972 70.0339 156.205 69.9386L163.914 66.6992C164.148 66.604 164.416 66.7079 164.512 66.9418C164.607 67.1756 164.503 67.4441 164.269 67.5394Z" fill="#65666D"/>
</g>
<path d="M234.15 190.163L117.603 239.212L105.59 244.27L82.9492 190.475L30.375 65.5525L158.935 11.4453L234.15 190.163Z" stroke="#65666D" stroke-linecap="round" stroke-linejoin="round"/>
<path d="M110.364 199.126C112.382 192.214 120.289 170.015 119.25 160.202C119.155 159.319 118.964 158.53 118.696 157.812C115.924 150.484 104.595 151.194 100.239 157.266C95.4575 163.944 91.5599 175.966 91.2221 183.276C91.0402 187.321 89.3079 191.028 87.7922 193.548C87.7922 193.565 87.7922 193.574 87.7749 193.583C86.5536 195.61 85.4796 196.839 85.4796 196.839L59.6256 135.5C59.6256 135.5 55.4509 138.878 52.8611 143.053C51.8131 144.724 51.0336 146.543 50.8777 148.31C50.3494 154.356 43.5069 179.17 40.6573 189.651C40.6054 189.876 40.5361 190.084 40.4841 190.291C37.7471 200.356 44.9707 237.738 42.9093 248.599C40.8392 259.452 39.5574 259.218 39.2629 266.927C39.0463 272.557 30.9913 289.671 21.9662 307.245C16.7954 317.318 11.2955 327.53 6.76562 335.802L72.8688 333.056C74.0121 325.027 75.19 316.547 76.264 308.345C76.7057 304.967 77.4246 301.494 78.2388 298.203C79.6939 292.304 81.4781 286.978 82.5521 283.86C84.2411 278.992 85.9993 269.915 85.9993 269.915C93.6906 261.782 103.772 248.989 106.691 240.319C106.691 240.302 106.709 240.276 106.709 240.259C107.445 238.067 107.713 236.144 107.367 234.637C107.072 233.39 106.916 231.771 106.847 229.908C106.847 229.908 106.847 229.903 106.847 229.891C106.518 220.511 108.666 204.894 110.355 199.135L110.364 199.126Z" fill="#F3F0F0"/>
<path d="M16.8281 317.552C25.117 302.404 33.1807 286.822 38.9838 270.019C39.6767 267.602 38.7499 264.458 39.4515 262.042C47.3073 240.215 38.3948 217.497 39.8586 195.15C41.0885 186.342 43.9034 177.464 46.7183 168.595C48.0435 162.168 48.5459 154.988 50.6592 148.527C52.8419 143.659 54.9985 137.994 59.641 135.5C68.4755 155.75 77.2841 176.078 85.495 196.839C89.2021 194.691 89.7997 189.893 90.432 185.883C92.4241 176.243 94.4422 167.408 98.0886 159.293C101.796 152.771 111.236 149.99 117.031 155.317C118.685 156.841 119.577 159.189 119.681 161.579C118.555 172.77 115.039 184.064 111.496 194.561C110.102 199.395 108.681 203.439 108.084 208.238C108.153 209.823 108.179 210.62 108.248 212.213C106.196 220.26 108.084 227.345 107.616 235.33C105.823 249.734 94.3036 259.764 85.9887 270.461C83.936 278.507 81.8833 286.553 79.0337 294.634C75.5518 306.717 74.4605 318.713 73.2739 330.362" stroke="#65666D" stroke-linecap="round" stroke-linejoin="round"/>
<path d="M85.4889 196.828C85.4889 196.828 82.7693 202.051 81.6866 206.295C80.6039 210.539 75.1213 209.924 72.2891 212.566" stroke="#65666D" stroke-linecap="round" stroke-linejoin="round"/>
<path d="M64.8125 189.359C64.8125 189.359 72.2699 191.992 76.6092 195.379C80.9485 198.766 84.1619 199.597 84.1619 199.597" stroke="#65666D" stroke-linecap="round" stroke-linejoin="round"/>
<path d="M60.0469 170.873C60.0469 170.873 66.0665 172.562 70.5271 170.44C70.5271 170.44 70.8562 166.75 71.6617 164.039" stroke="#65666D" stroke-linecap="round" stroke-linejoin="round"/>
<path d="M71.9766 171.305C71.9766 171.305 72.0372 172.145 75.1033 172.179" stroke="#65666D" stroke-linecap="round" stroke-linejoin="round"/>
<path d="M86.005 269.914C86.005 269.914 80.1327 275.241 76.5469 284.838" stroke="#65666D" stroke-linecap="round" stroke-linejoin="round"/>
<path d="M40.1414 192.133C39.8729 197.321 45.9618 215.761 47.8153 224.916C49.6689 234.08 50.3531 240.558 50.3531 240.558" stroke="#65666D" stroke-linecap="round" stroke-linejoin="round"/>
</svg>
