<svg width="346" height="424" viewBox="0 0 346 424" fill="none" xmlns="http://www.w3.org/2000/svg">
<path d="M110.212 345.749C110.396 345.54 110.366 345.219 110.184 345.052C109.976 344.868 109.677 344.893 109.487 345.08C109.303 345.288 109.333 345.609 109.514 345.776C109.723 345.96 110.044 345.93 110.212 345.749Z" fill="#E8E8E8"/>
<path d="M100.191 336.766C100.191 336.766 100.202 336.716 100.175 336.699C100.175 336.699 100.13 336.71 100.108 336.715C100.108 336.715 100.096 336.765 100.124 336.782C100.124 336.782 100.174 336.794 100.191 336.766Z" fill="#E8E8E8"/>
<path d="M185.781 309.007C185.893 308.886 185.873 308.704 185.752 308.592C185.631 308.481 185.448 308.501 185.337 308.622C185.225 308.743 185.246 308.925 185.366 309.037C185.487 309.148 185.67 309.128 185.781 309.007Z" fill="#E8E8E8"/>
<path d="M203.75 251.562C203.862 251.441 203.841 251.258 203.721 251.147C203.6 251.035 203.417 251.056 203.305 251.177C203.194 251.297 203.214 251.48 203.335 251.591C203.456 251.703 203.639 251.682 203.75 251.562Z" fill="#E8E8E8"/>
<path d="M204.466 231.073C204.672 230.859 204.636 230.516 204.422 230.31C204.208 230.104 203.865 230.139 203.659 230.353C203.452 230.567 203.466 230.915 203.702 231.116C203.916 231.323 204.259 231.287 204.466 231.073Z" fill="#E8E8E8"/>
<path d="M214.061 240.596C214.279 240.332 214.277 239.934 214.014 239.717C213.772 239.493 213.352 239.501 213.134 239.765C212.916 240.028 212.918 240.426 213.181 240.644C213.445 240.861 213.843 240.859 214.061 240.596Z" fill="#E8E8E8"/>
<path d="M238.379 275.676C239.586 274.354 239.465 272.297 238.12 271.098C236.775 269.899 234.738 270.015 233.537 271.359C232.331 272.681 232.451 274.738 233.791 275.915C235.136 277.114 237.173 276.998 238.374 275.654L238.379 275.676Z" fill="#E8E8E8"/>
<path d="M243.507 288.084C244.708 286.739 244.593 284.705 243.248 283.505C241.903 282.306 239.866 282.422 238.665 283.767C237.464 285.111 237.579 287.146 238.924 288.345C240.269 289.544 242.306 289.428 243.507 288.084Z" fill="#E8E8E8"/>
<path d="M193.735 222.381C193.735 222.381 193.786 222.205 193.725 222.149C193.665 222.093 193.549 222.098 193.493 222.158C193.437 222.219 193.442 222.335 193.502 222.39C193.562 222.446 193.679 222.442 193.735 222.381Z" fill="#E8E8E8"/>
<path d="M233.637 240.328C234.268 239.637 234.217 238.547 233.503 237.923C232.811 237.292 231.726 237.366 231.095 238.058C230.464 238.749 230.537 239.833 231.229 240.463C231.921 241.093 233.011 241.041 233.637 240.328Z" fill="#E8E8E8"/>
<path d="M244.079 253.701C246.04 251.518 245.864 248.161 243.679 246.204C241.494 244.246 238.135 244.423 236.174 246.607C234.213 248.791 234.389 252.147 236.574 254.104C238.759 256.062 242.118 255.885 244.079 253.701Z" fill="#E8E8E8"/>
<path d="M250.829 265.318C252.79 263.135 252.614 259.779 250.429 257.821C248.244 255.863 244.885 256.04 242.924 258.224C240.963 260.408 241.139 263.764 243.324 265.722C245.509 267.679 248.868 267.502 250.829 265.318Z" fill="#E8E8E8"/>
<path d="M256.509 277.49C258.469 275.307 258.294 271.95 256.109 269.993C253.924 268.035 250.564 268.212 248.604 270.396C246.643 272.58 246.818 275.936 249.003 277.894C251.188 279.851 254.548 279.674 256.509 277.49Z" fill="#E8E8E8"/>
<path d="M261.056 290.131C263.016 287.947 262.841 284.591 260.656 282.633C258.471 280.676 255.111 280.853 253.15 283.037C251.19 285.22 251.365 288.577 253.55 290.534C255.735 292.492 259.095 292.315 261.056 290.131Z" fill="#E8E8E8"/>
<path d="M262.759 312.856C262.759 312.856 262.771 312.807 262.749 312.812C262.749 312.812 262.699 312.801 262.705 312.823C262.705 312.823 262.693 312.872 262.721 312.889C262.721 312.889 262.77 312.9 262.787 312.873L262.759 312.856Z" fill="#E8E8E8"/>
<path d="M265.395 327.694C266.211 326.794 266.134 325.406 265.234 324.592C264.334 323.778 262.945 323.855 262.129 324.755C261.313 325.654 261.39 327.042 262.29 327.856C263.19 328.671 264.58 328.594 265.395 327.694Z" fill="#E8E8E8"/>
<path d="M267.978 343.567C270.162 341.142 269.946 337.421 267.519 335.24C265.093 333.059 261.368 333.278 259.184 335.703C256.999 338.128 257.216 341.849 259.643 344.03C262.069 346.21 265.794 345.992 267.978 343.567Z" fill="#E8E8E8"/>
<path d="M266.603 356.926C268.787 354.501 268.571 350.78 266.144 348.599C263.718 346.419 259.993 346.637 257.809 349.062C255.624 351.487 255.841 355.208 258.268 357.389C260.694 359.57 264.419 359.351 266.603 356.926Z" fill="#E8E8E8"/>
<path d="M260.296 366.79C260.631 366.428 260.609 365.848 260.219 365.496C259.834 365.167 259.253 365.19 258.924 365.574C258.594 365.958 258.617 366.539 259.001 366.868C259.385 367.197 259.944 367.18 260.296 366.79Z" fill="#E8E8E8"/>
<path d="M256.562 379.689C256.897 379.327 256.869 378.724 256.485 378.395C256.1 378.066 255.519 378.088 255.189 378.473C254.854 378.835 254.877 379.415 255.267 379.767C255.629 380.101 256.21 380.078 256.562 379.689Z" fill="#E8E8E8"/>
<path d="M255.377 395.52C257.561 393.095 257.344 389.374 254.918 387.193C252.491 385.012 248.766 385.231 246.582 387.656C244.398 390.081 244.615 393.802 247.041 395.983C249.467 398.164 253.192 397.945 255.377 395.52Z" fill="#E8E8E8"/>
<path d="M18.4106 218.413C19.1534 217.601 19.0815 216.329 18.2469 215.593C17.4346 214.851 16.1615 214.924 15.424 215.758C14.6812 216.57 14.7532 217.842 15.5877 218.578C16.4001 219.32 17.6731 219.247 18.4106 218.413Z" fill="#E8E8E8"/>
<path d="M29.0278 210.179C29.7653 209.345 29.6986 208.095 28.8641 207.359C28.0518 206.617 26.7787 206.689 26.0412 207.524C25.2984 208.335 25.3703 209.607 26.2049 210.344C27.0172 211.085 28.2903 211.013 29.0278 210.179Z" fill="#E8E8E8"/>
<path d="M39.2679 201.946C39.4744 201.732 39.4387 201.389 39.2247 201.183C39.0107 200.977 38.6674 201.013 38.4609 201.226C38.2543 201.44 38.2901 201.783 38.504 201.99C38.718 202.196 39.0667 202.182 39.2679 201.946Z" fill="#E8E8E8"/>
<path d="M51.1569 195.702C51.3413 195.493 51.3109 195.173 51.1297 195.005C50.9211 194.821 50.6 194.852 50.4324 195.033C50.2481 195.241 50.2785 195.562 50.4596 195.729C50.6682 195.914 50.9672 195.888 51.1569 195.702Z" fill="#E8E8E8"/>
<path d="M63.6786 190.666C63.8966 190.402 63.8945 190.004 63.6309 189.787C63.3672 189.569 62.9689 189.571 62.7508 189.835C62.5328 190.098 62.5349 190.496 62.7985 190.714C63.0622 190.932 63.4605 190.929 63.6786 190.666Z" fill="#E8E8E8"/>
<path d="M76.1128 186.315C76.1128 186.315 76.1412 186.238 76.086 186.204C76.053 186.165 76.0084 186.176 75.9746 186.231C75.9354 186.264 75.9515 186.331 76.0014 186.342C76.0344 186.381 76.079 186.37 76.1128 186.315Z" fill="#E8E8E8"/>
<path d="M89.2612 183.495C89.2612 183.495 89.2897 183.417 89.2344 183.384C89.2014 183.345 89.1569 183.355 89.1231 183.41C89.0839 183.443 89.0946 183.488 89.1499 183.522C89.1829 183.561 89.2274 183.55 89.2612 183.495Z" fill="#E8E8E8"/>
<path d="M116.022 181.4C116.022 181.4 116.033 181.351 116.011 181.356C116.011 181.356 115.962 181.345 115.945 181.372C115.945 181.372 115.933 181.421 115.961 181.438C115.961 181.438 116.01 181.45 116.027 181.422L116.022 181.4Z" fill="#E8E8E8"/>
<path d="M129.435 182.174C129.435 182.174 129.447 182.124 129.419 182.107C129.419 182.107 129.375 182.118 129.353 182.124C129.353 182.124 129.341 182.173 129.369 182.19C129.369 182.19 129.413 182.18 129.435 182.174Z" fill="#E8E8E8"/>
<path d="M142.813 184.225C142.813 184.225 142.864 184.049 142.804 183.993C142.743 183.937 142.627 183.942 142.571 184.002C142.515 184.062 142.52 184.178 142.58 184.234C142.641 184.29 142.757 184.285 142.813 184.225Z" fill="#E8E8E8"/>
<path d="M169.013 192.067C169.271 191.77 169.258 191.328 168.961 191.071C168.665 190.815 168.222 190.828 167.965 191.124C167.708 191.42 167.721 191.863 168.017 192.119C168.314 192.376 168.756 192.363 169.013 192.067Z" fill="#E8E8E8"/>
<path d="M181.364 197.545C181.66 197.216 181.637 196.73 181.307 196.434C180.978 196.138 180.491 196.162 180.195 196.491C179.899 196.821 179.922 197.307 180.252 197.603C180.581 197.898 181.068 197.875 181.364 197.545Z" fill="#E8E8E8"/>
<path d="M193.122 204.061C193.418 203.732 193.394 203.245 193.065 202.95C192.736 202.654 192.249 202.678 191.953 203.007C191.657 203.336 191.68 203.823 192.009 204.118C192.339 204.414 192.826 204.39 193.122 204.061Z" fill="#E8E8E8"/>
<path d="M203.81 211.213C203.81 211.213 203.879 211.009 203.791 210.936C203.703 210.864 203.587 210.868 203.492 210.962C203.419 211.049 203.424 211.166 203.517 211.26C203.605 211.333 203.743 211.323 203.816 211.235L203.81 211.213Z" fill="#E8E8E8"/>
<path d="M224.872 209.159C225.257 208.714 225.236 208.04 224.785 207.632C224.335 207.225 223.666 207.27 223.258 207.719C222.85 208.169 222.894 208.838 223.344 209.246C223.789 209.631 224.464 209.608 224.872 209.159Z" fill="#E8E8E8"/>
<path d="M238.835 222.387C241.366 219.551 241.138 215.199 238.295 212.65C235.451 210.101 231.1 210.353 228.57 213.19C226.017 216.032 226.267 220.378 229.111 222.927C231.949 225.454 236.305 225.224 238.835 222.387Z" fill="#E8E8E8"/>
<path d="M246.608 231.577C248.624 229.333 248.444 225.861 246.199 223.848C243.954 221.834 240.478 222.016 238.461 224.26C236.445 226.504 236.625 229.976 238.87 231.99C241.115 234.003 244.591 233.821 246.608 231.577Z" fill="#E8E8E8"/>
<path d="M254.47 242.264C256.43 240.08 256.255 236.724 254.07 234.766C251.885 232.809 248.525 232.986 246.564 235.169C244.604 237.353 244.779 240.709 246.964 242.667C249.149 244.625 252.509 244.447 254.47 242.264Z" fill="#E8E8E8"/>
<path d="M261.54 253.686C263.501 251.502 263.325 248.146 261.14 246.188C258.955 244.23 255.596 244.408 253.635 246.591C251.674 248.775 251.85 252.131 254.035 254.089C256.219 256.047 259.579 255.869 261.54 253.686Z" fill="#E8E8E8"/>
<path d="M267.657 265.647C269.618 263.463 269.442 260.107 267.257 258.149C265.072 256.191 261.713 256.369 259.752 258.552C257.791 260.736 257.967 264.092 260.152 266.05C262.337 268.007 265.696 267.83 267.657 265.647Z" fill="#E8E8E8"/>
<path d="M272.782 278.045C274.743 275.861 274.567 272.505 272.382 270.547C270.197 268.59 266.838 268.767 264.877 270.951C262.916 273.134 263.092 276.491 265.277 278.448C267.462 280.406 270.821 280.229 272.782 278.045Z" fill="#E8E8E8"/>
<path d="M276.876 290.842C278.837 288.658 278.661 285.302 276.476 283.344C274.291 281.387 270.931 281.564 268.971 283.748C267.01 285.931 267.186 289.287 269.371 291.245C271.555 293.203 274.915 293.026 276.876 290.842Z" fill="#E8E8E8"/>
<path d="M279.109 303.198C280.685 301.459 280.531 298.778 278.796 297.227C277.061 295.676 274.371 295.809 272.824 297.565C271.249 299.304 271.402 301.986 273.137 303.537C274.872 305.087 277.562 304.954 279.115 303.221L279.109 303.198Z" fill="#E8E8E8"/>
<path d="M281.876 317.193C283.837 315.01 283.661 311.654 281.476 309.696C279.291 307.738 275.931 307.915 273.971 310.099C272.01 312.283 272.186 315.639 274.371 317.597C276.555 319.554 279.915 319.377 281.876 317.193Z" fill="#E8E8E8"/>
<path d="M282.735 330.608C284.696 328.424 284.52 325.068 282.335 323.11C280.151 321.152 276.791 321.329 274.83 323.513C272.869 325.697 273.045 329.053 275.23 331.011C277.415 332.968 280.774 332.791 282.735 330.608Z" fill="#E8E8E8"/>
<path d="M282.923 344.442C285.108 342.017 284.891 338.296 282.464 336.115C280.038 333.934 276.313 334.153 274.129 336.578C271.945 339.003 272.161 342.724 274.588 344.905C277.014 347.085 280.739 346.867 282.923 344.442Z" fill="#E8E8E8"/>
<path d="M281.595 357.817C283.779 355.392 283.563 351.671 281.136 349.49C278.71 347.309 274.985 347.528 272.801 349.953C270.617 352.378 270.833 356.099 273.26 358.28C275.686 360.46 279.411 360.242 281.595 357.817Z" fill="#E8E8E8"/>
<path d="M276.442 368.553C277.258 367.653 277.181 366.266 276.281 365.451C275.381 364.637 273.991 364.714 273.176 365.614C272.36 366.514 272.437 367.902 273.337 368.716C274.237 369.53 275.627 369.453 276.442 368.553Z" fill="#E8E8E8"/>
<path d="M271.999 380.657C272.329 380.273 272.306 379.693 271.922 379.364C271.56 379.029 270.979 379.052 270.627 379.441C270.292 379.803 270.314 380.384 270.704 380.735C271.089 381.065 271.67 381.042 271.999 380.657Z" fill="#E8E8E8"/>
<path d="M267.468 393.306C267.798 392.922 267.775 392.341 267.391 392.012C267.006 391.683 266.425 391.706 266.096 392.09C265.766 392.474 265.788 393.055 266.173 393.384C266.535 393.718 267.116 393.695 267.468 393.306Z" fill="#E8E8E8"/>
<path d="M265.729 408.963C267.947 406.483 267.737 402.69 265.277 400.47C262.796 398.256 258.999 398.468 256.776 400.926C254.558 403.406 254.769 407.199 257.228 409.419C259.709 411.633 263.506 411.421 265.729 408.963Z" fill="#E8E8E8"/>
<path d="M6.32386 212.071C7.87685 210.337 7.74524 207.65 6.01047 206.099C4.27569 204.549 1.58584 204.682 0.0328404 206.415C-1.54233 208.155 -1.38851 210.836 0.346264 212.387C2.08104 213.937 4.77086 213.805 6.32386 212.071Z" fill="#E8E8E8"/>
<path d="M16.3002 203.145C17.6857 201.593 17.5569 199.21 15.9979 197.804C14.4443 196.421 12.0587 196.551 10.6511 198.109C9.26562 199.662 9.39433 202.045 10.9533 203.45C12.507 204.833 14.8926 204.704 16.3002 203.145Z" fill="#E8E8E8"/>
<path d="M25.7426 193.999C26.3737 193.308 26.3001 192.224 25.6085 191.594C24.9169 190.964 23.8266 191.016 23.2008 191.729C22.5697 192.42 22.6211 193.51 23.3349 194.134C24.0265 194.765 25.1114 194.69 25.7426 193.999Z" fill="#E8E8E8"/>
<path d="M37.2358 187.106C37.828 186.448 37.7704 185.431 37.1063 184.817C36.4475 184.226 35.4291 184.284 34.8148 184.948C34.2227 185.606 34.2856 186.646 34.9443 187.237C35.6031 187.828 36.6437 187.765 37.2358 187.106Z" fill="#E8E8E8"/>
<path d="M49.4896 181.364C50.1544 180.618 50.1091 179.457 49.3572 178.771C48.6105 178.107 47.4483 178.153 46.7835 178.899C46.1187 179.646 46.164 180.807 46.916 181.492C47.6626 182.156 48.8248 182.11 49.5118 181.359L49.4896 181.364Z" fill="#E8E8E8"/>
<path d="M61.3587 175.9C61.6885 175.515 61.6658 174.935 61.2814 174.606C60.897 174.277 60.3381 174.294 59.9862 174.684C59.6564 175.068 59.6791 175.648 60.0635 175.977C60.4479 176.307 61.029 176.284 61.3587 175.9Z" fill="#E8E8E8"/>
<path d="M74.2337 172.071C74.5688 171.709 74.5462 171.129 74.1564 170.778C73.772 170.448 73.1909 170.471 72.8612 170.855C72.5314 171.24 72.5541 171.82 72.9385 172.149C73.3007 172.484 73.8818 172.461 74.2337 172.071Z" fill="#E8E8E8"/>
<path d="M87.0448 168.985C87.2123 168.804 87.1872 168.505 87.0061 168.338C86.825 168.171 86.526 168.196 86.3585 168.377C86.1909 168.558 86.216 168.856 86.3971 169.024C86.5783 169.191 86.8772 169.166 87.0448 168.985Z" fill="#E8E8E8"/>
<path d="M101.022 167.862C101.502 167.324 101.449 166.517 100.911 166.037C100.373 165.558 99.5644 165.612 99.084 166.149C98.6035 166.687 98.6574 167.495 99.1954 167.974C99.7334 168.454 100.542 168.4 101.022 167.862Z" fill="#E8E8E8"/>
<path d="M113.806 166.676C113.952 166.501 113.937 166.246 113.784 166.096C113.608 165.951 113.353 165.965 113.203 166.119C113.057 166.294 113.072 166.549 113.225 166.699C113.401 166.844 113.656 166.83 113.806 166.676Z" fill="#E8E8E8"/>
<path d="M127.915 167.771C128.396 167.233 128.353 166.377 127.815 165.897C127.272 165.395 126.419 165.46 125.939 165.998C125.436 166.541 125.501 167.392 126.039 167.872C126.577 168.352 127.435 168.309 127.915 167.771Z" fill="#E8E8E8"/>
<path d="M140.763 168.921C141.003 168.652 140.996 168.232 140.722 167.97C140.453 167.73 140.032 167.738 139.775 168.034C139.535 168.303 139.542 168.723 139.839 168.98C140.108 169.22 140.528 169.212 140.785 168.916L140.763 168.921Z" fill="#E8E8E8"/>
<path d="M154.212 171.846C154.603 171.423 154.559 170.754 154.142 170.386C153.719 169.996 153.049 170.04 152.681 170.457C152.29 170.879 152.334 171.548 152.751 171.917C153.173 172.307 153.843 172.263 154.212 171.846Z" fill="#E8E8E8"/>
<path d="M166.976 175.446C167.272 175.117 167.26 174.581 166.903 174.268C166.568 173.951 166.037 173.985 165.724 174.342C165.405 174.676 165.44 175.207 165.796 175.519C166.131 175.837 166.663 175.803 166.976 175.446Z" fill="#E8E8E8"/>
<path d="M238.024 200.834C239.985 198.65 239.809 195.294 237.624 193.337C235.44 191.379 232.08 191.556 230.119 193.74C228.158 195.923 228.334 199.28 230.519 201.237C232.704 203.195 236.064 203.018 238.024 200.834Z" fill="#E8E8E8"/>
<path d="M248.437 210.814C250.766 208.213 250.557 204.232 247.955 201.906C245.353 199.581 241.368 199.791 239.038 202.392C236.709 204.993 236.918 208.974 239.52 211.3C242.122 213.626 246.107 213.415 248.437 210.814Z" fill="#E8E8E8"/>
<path d="M257.374 220.845C259.704 218.244 259.495 214.264 256.892 211.938C254.29 209.612 250.305 209.823 247.976 212.423C245.646 215.024 245.855 219.005 248.457 221.331C251.06 223.657 255.045 223.446 257.374 220.845Z" fill="#E8E8E8"/>
<path d="M265.538 231.509C267.868 228.909 267.659 224.928 265.057 222.602C262.454 220.276 258.469 220.487 256.14 223.087C253.81 225.688 254.019 229.669 256.621 231.995C259.224 234.321 263.209 234.11 265.538 231.509Z" fill="#E8E8E8"/>
<path d="M272.89 242.767C275.219 240.166 275.01 236.185 272.408 233.86C269.806 231.534 265.821 231.745 263.491 234.345C261.162 236.946 261.371 240.927 263.973 243.253C266.575 245.579 270.56 245.368 272.89 242.767Z" fill="#E8E8E8"/>
<path d="M278.618 253.858C280.579 251.674 280.403 248.318 278.218 246.36C276.033 244.402 272.674 244.58 270.713 246.763C268.752 248.947 268.928 252.303 271.113 254.261C273.298 256.218 276.657 256.041 278.618 253.858Z" fill="#E8E8E8"/>
<path d="M284.212 266.084C286.172 263.9 285.997 260.544 283.812 258.587C281.627 256.629 278.267 256.806 276.307 258.99C274.346 261.173 274.522 264.53 276.706 266.487C278.891 268.445 282.251 268.268 284.212 266.084Z" fill="#E8E8E8"/>
<path d="M288.845 278.678C290.805 276.494 290.63 273.138 288.445 271.18C286.26 269.223 282.9 269.4 280.939 271.584C278.979 273.767 279.154 277.123 281.339 279.081C283.524 281.039 286.884 280.862 288.845 278.678Z" fill="#E8E8E8"/>
<path d="M290.891 290.09C292.019 288.833 291.925 286.887 290.663 285.738C289.406 284.612 287.457 284.706 286.334 285.985C285.206 287.241 285.3 289.188 286.557 290.314C287.814 291.441 289.762 291.346 290.891 290.09Z" fill="#E8E8E8"/>
<path d="M297.727 331.475C299.688 329.291 299.512 325.935 297.328 323.977C295.143 322.02 291.783 322.197 289.822 324.38C287.862 326.564 288.037 329.92 290.222 331.878C292.407 333.836 295.767 333.658 297.727 331.475Z" fill="#E8E8E8"/>
<path d="M296.611 358.676C298.795 356.251 298.578 352.53 296.152 350.349C293.726 348.169 290 348.387 287.816 350.812C285.632 353.237 285.849 356.958 288.275 359.139C290.702 361.32 294.427 361.101 296.611 358.676Z" fill="#E8E8E8"/>
<path d="M291.583 369.444C292.398 368.544 292.322 367.156 291.422 366.342C290.521 365.528 289.132 365.605 288.317 366.505C287.501 367.404 287.577 368.792 288.478 369.606C289.378 370.421 290.767 370.344 291.583 369.444Z" fill="#E8E8E8"/>
<path d="M288.231 382.398C289.008 381.531 288.93 380.237 288.063 379.462C287.201 378.709 285.9 378.764 285.124 379.631C284.37 380.493 284.425 381.792 285.292 382.567C286.154 383.32 287.455 383.265 288.231 382.398Z" fill="#E8E8E8"/>
<path d="M284.003 395.131C284.757 394.269 284.702 392.97 283.835 392.195C282.973 391.441 281.672 391.497 280.896 392.364C280.141 393.226 280.196 394.525 281.064 395.3C281.926 396.053 283.226 395.998 284.003 395.131Z" fill="#E8E8E8"/>
<path d="M278.144 406.926C278.569 406.449 278.531 405.708 278.053 405.284C277.576 404.86 276.834 404.898 276.409 405.376C275.985 405.853 276.023 406.594 276.5 407.018C276.978 407.442 277.72 407.404 278.144 406.926Z" fill="#E8E8E8"/>
<path d="M274.162 420.804C275.62 419.163 275.504 416.636 273.862 415.18C272.221 413.725 269.691 413.842 268.233 415.483C266.753 417.129 266.891 419.65 268.533 421.106C270.18 422.584 272.704 422.444 274.162 420.804Z" fill="#E8E8E8"/>
<path d="M269.086 433.983C271.489 431.294 271.27 427.175 268.58 424.777C265.89 422.378 261.766 422.599 259.364 425.288C256.962 427.976 257.181 432.095 259.871 434.494C262.561 436.892 266.684 436.671 269.086 433.983Z" fill="#E8E8E8"/>
<path d="M22.9454 178.342C23.6492 177.563 23.5933 176.357 22.7916 175.66C22.0121 174.957 20.8056 175.014 20.1071 175.815C19.4033 176.594 19.4592 177.799 20.2662 178.519C21.0457 179.222 22.2523 179.165 22.9729 178.359L22.9454 178.342Z" fill="#E8E8E8"/>
<path d="M59.7362 161.781C60.5296 160.887 60.4584 159.521 59.5635 158.729C58.6686 157.937 57.3015 158.009 56.5082 158.903C55.7148 159.798 55.786 161.163 56.6809 161.955C57.5758 162.747 58.9429 162.676 59.7362 161.781Z" fill="#E8E8E8"/>
<path d="M71.3844 156.934C71.5298 156.758 71.5154 156.504 71.3618 156.354C71.186 156.208 70.9314 156.223 70.7807 156.376C70.6353 156.552 70.6497 156.806 70.8033 156.957C70.9791 157.102 71.2337 157.088 71.3844 156.934Z" fill="#E8E8E8"/>
<path d="M84.3003 153.979C84.3003 153.979 84.3288 153.902 84.2735 153.868C84.2405 153.829 84.196 153.84 84.1621 153.895C84.1229 153.928 84.1337 153.972 84.1889 154.006C84.2219 154.045 84.2665 154.034 84.3003 153.979Z" fill="#E8E8E8"/>
<path d="M97.6284 152.253C97.6284 152.253 97.6569 152.175 97.6016 152.141C97.5463 152.108 97.5241 152.113 97.4902 152.168C97.4564 152.224 97.4618 152.246 97.5171 152.28C97.5501 152.319 97.5946 152.308 97.6284 152.253Z" fill="#E8E8E8"/>
<path d="M193.251 171.428C195.212 169.244 195.036 165.888 192.851 163.93C190.666 161.973 187.306 162.15 185.346 164.334C183.385 166.517 183.561 169.873 185.746 171.831C187.93 173.789 191.29 173.612 193.251 171.428Z" fill="#E8E8E8"/>
<path d="M205.227 177.49C207.188 175.307 207.013 171.95 204.828 169.993C202.643 168.035 199.283 168.212 197.322 170.396C195.362 172.58 195.537 175.936 197.722 177.894C199.907 179.851 203.267 179.674 205.227 177.49Z" fill="#E8E8E8"/>
<path d="M216.735 184.451C218.696 182.268 218.52 178.911 216.335 176.954C214.151 174.996 210.791 175.173 208.83 177.357C206.869 179.541 207.045 182.897 209.23 184.854C211.415 186.812 214.774 186.635 216.735 184.451Z" fill="#E8E8E8"/>
<path d="M227.688 192.24C229.649 190.057 229.473 186.7 227.289 184.743C225.104 182.785 221.744 182.962 219.783 185.146C217.822 187.33 217.998 190.686 220.183 192.644C222.368 194.601 225.728 194.424 227.688 192.24Z" fill="#E8E8E8"/>
<path d="M248.243 189.888C250.316 187.584 250.12 184.045 247.814 181.976C245.508 179.907 241.966 180.104 239.894 182.409C237.821 184.713 238.017 188.252 240.323 190.321C242.629 192.39 246.171 192.192 248.243 189.888Z" fill="#E8E8E8"/>
<path d="M258.46 199.65C260.79 197.049 260.581 193.068 257.978 190.742C255.376 188.417 251.391 188.627 249.062 191.228C246.732 193.829 246.941 197.81 249.543 200.136C252.145 202.461 256.131 202.251 258.46 199.65Z" fill="#E8E8E8"/>
<path d="M263.879 206.363C264.415 205.765 264.357 204.842 263.758 204.306C263.16 203.771 262.236 203.83 261.699 204.428C261.163 205.026 261.222 205.949 261.82 206.485C262.418 207.02 263.343 206.961 263.879 206.363Z" fill="#E8E8E8"/>
<path d="M272.191 216.894C272.728 216.296 272.669 215.373 272.071 214.837C271.473 214.302 270.548 214.361 270.012 214.959C269.476 215.557 269.534 216.48 270.132 217.016C270.731 217.551 271.655 217.492 272.191 216.894Z" fill="#E8E8E8"/>
<path d="M279.777 228.004C280.314 227.406 280.255 226.482 279.657 225.947C279.059 225.411 278.134 225.47 277.598 226.068C277.062 226.666 277.12 227.59 277.718 228.125C278.317 228.661 279.241 228.602 279.777 228.004Z" fill="#E8E8E8"/>
<path d="M289.757 242.475C291.885 240.11 291.684 236.456 289.318 234.331C286.952 232.206 283.293 232.408 281.165 234.773C279.037 237.137 279.238 240.792 281.604 242.917C283.97 245.042 287.628 244.84 289.757 242.475Z" fill="#E8E8E8"/>
<path d="M295.741 254.514C297.869 252.149 297.668 248.495 295.302 246.37C292.936 244.245 289.278 244.447 287.15 246.812C285.021 249.177 285.222 252.831 287.588 254.956C289.954 257.081 293.613 256.879 295.741 254.514Z" fill="#E8E8E8"/>
<path d="M312.11 318.912C314.071 316.728 313.895 313.372 311.71 311.415C309.526 309.457 306.166 309.634 304.205 311.818C302.244 314.002 302.42 317.358 304.605 319.315C306.79 321.273 310.149 321.096 312.11 318.912Z" fill="#E8E8E8"/>
<path d="M311.363 331.11C312.659 329.673 312.528 327.478 311.09 326.184C309.652 324.89 307.454 325.021 306.158 326.459C304.862 327.896 304.993 330.091 306.431 331.385C307.869 332.679 310.067 332.548 311.363 331.11Z" fill="#E8E8E8"/>
<path d="M305.979 369.686C306.443 369.176 306.394 368.391 305.884 367.928C305.373 367.465 304.587 367.514 304.124 368.024C303.66 368.535 303.708 369.32 304.219 369.783C304.729 370.245 305.515 370.197 305.979 369.686Z" fill="#E8E8E8"/>
<path d="M298.679 395.368C299.014 395.006 298.986 394.404 298.602 394.074C298.217 393.745 297.658 393.763 297.306 394.152C296.971 394.514 296.999 395.117 297.384 395.446C297.768 395.775 298.327 395.758 298.679 395.368Z" fill="#E8E8E8"/>
<path d="M294.019 408.067C294.444 407.59 294.406 406.849 293.928 406.425C293.451 406.001 292.709 406.039 292.284 406.516C291.86 406.994 291.898 407.735 292.375 408.159C292.853 408.583 293.595 408.544 294.019 408.067Z" fill="#E8E8E8"/>
<path d="M288.289 420.212C288.696 419.762 288.664 419.043 288.214 418.636C287.764 418.229 287.044 418.262 286.636 418.711C286.229 419.161 286.261 419.88 286.711 420.287C287.161 420.694 287.881 420.662 288.289 420.212Z" fill="#E8E8E8"/>
<path d="M69.2493 142.478C69.5791 142.094 69.5564 141.513 69.172 141.184C68.7876 140.855 68.2287 140.872 67.8768 141.262C67.5417 141.624 67.5697 142.226 67.9541 142.556C68.3385 142.885 68.8974 142.867 69.2493 142.478Z" fill="#E8E8E8"/>
<path d="M110.042 137.935C110.796 137.074 110.741 135.775 109.874 134.999C109.006 134.224 107.711 134.302 106.935 135.169C106.18 136.03 106.235 137.33 107.103 138.105C107.943 138.863 109.265 138.802 110.042 137.935Z" fill="#E8E8E8"/>
<path d="M139.578 141.41C141.667 139.078 141.482 135.49 139.144 133.382C136.805 131.274 133.197 131.488 131.107 133.82C128.996 136.157 129.208 139.762 131.541 141.848C133.874 143.934 137.489 143.742 139.578 141.41Z" fill="#E8E8E8"/>
<path d="M152.898 143.324C154.987 140.993 154.803 137.404 152.464 135.296C150.131 133.21 146.517 133.402 144.428 135.734C142.316 138.071 142.528 141.676 144.861 143.762C147.195 145.848 150.809 145.656 152.898 143.324Z" fill="#E8E8E8"/>
<path d="M166.197 146.309C168.381 143.884 168.164 140.163 165.738 137.982C163.312 135.801 159.586 136.02 157.402 138.445C155.218 140.87 155.435 144.591 157.861 146.772C160.288 148.953 164.013 148.734 166.197 146.309Z" fill="#E8E8E8"/>
<path d="M178.665 149.654C180.626 147.471 180.45 144.115 178.265 142.157C176.08 140.199 172.721 140.376 170.76 142.56C168.799 144.744 168.975 148.1 171.16 150.058C173.344 152.015 176.704 151.838 178.665 149.654Z" fill="#E8E8E8"/>
<path d="M191.298 154.279C193.258 152.096 193.083 148.739 190.898 146.782C188.713 144.824 185.353 145.001 183.393 147.185C181.432 149.369 181.607 152.725 183.792 154.683C185.977 156.64 189.337 156.463 191.298 154.279Z" fill="#E8E8E8"/>
<path d="M203.556 159.756C205.516 157.572 205.341 154.216 203.156 152.258C200.971 150.301 197.611 150.478 195.65 152.662C193.69 154.845 193.865 158.202 196.05 160.159C198.235 162.117 201.595 161.94 203.556 159.756Z" fill="#E8E8E8"/>
<path d="M215.423 166.061C217.383 163.877 217.208 160.521 215.023 158.563C212.838 156.605 209.478 156.783 207.518 158.966C205.557 161.15 205.732 164.506 207.917 166.464C210.102 168.422 213.462 168.244 215.423 166.061Z" fill="#E8E8E8"/>
<path d="M226.829 173.178C228.79 170.994 228.614 167.638 226.429 165.68C224.244 163.723 220.885 163.9 218.924 166.084C216.963 168.267 217.139 171.623 219.324 173.581C221.509 175.539 224.868 175.362 226.829 173.178Z" fill="#E8E8E8"/>
<path d="M237.712 181.061C239.672 178.877 239.497 175.521 237.312 173.563C235.127 171.605 231.767 171.783 229.807 173.966C227.846 176.15 228.022 179.506 230.206 181.464C232.391 183.422 235.751 183.244 237.712 181.061Z" fill="#E8E8E8"/>
<path d="M258.67 179.094C260.949 176.575 260.717 172.694 258.197 170.418C255.678 168.143 251.792 168.377 249.513 170.895C247.234 173.413 247.444 177.3 249.986 179.57C252.505 181.846 256.391 181.612 258.67 179.094Z" fill="#E8E8E8"/>
<path d="M266.683 186.867C268.124 185.254 268.002 182.799 266.388 181.36C264.773 179.921 262.321 180.067 260.875 181.658C259.433 183.271 259.578 185.721 261.17 187.165C262.784 188.604 265.236 188.458 266.683 186.867Z" fill="#E8E8E8"/>
<path d="M273.981 195.113C274.517 194.515 274.458 193.592 273.86 193.056C273.262 192.521 272.337 192.58 271.801 193.178C271.265 193.776 271.323 194.699 271.921 195.235C272.52 195.77 273.444 195.711 273.981 195.113Z" fill="#E8E8E8"/>
<path d="M282.434 205.574C282.97 204.976 282.912 204.053 282.313 203.517C281.715 202.982 280.79 203.04 280.254 203.639C279.718 204.237 279.776 205.16 280.375 205.695C280.973 206.231 281.897 206.172 282.434 205.574Z" fill="#E8E8E8"/>
<path d="M290.199 216.543C290.736 215.945 290.677 215.021 290.079 214.486C289.48 213.95 288.556 214.009 288.02 214.607C287.483 215.205 287.542 216.129 288.14 216.664C288.739 217.2 289.663 217.141 290.199 216.543Z" fill="#E8E8E8"/>
<path d="M297.223 227.98C297.759 227.382 297.701 226.459 297.102 225.923C296.504 225.388 295.579 225.447 295.043 226.045C294.507 226.643 294.565 227.566 295.164 228.102C295.762 228.637 296.686 228.578 297.223 227.98Z" fill="#E8E8E8"/>
<path d="M303.512 239.84C304.048 239.242 303.99 238.318 303.391 237.783C302.793 237.247 301.868 237.306 301.332 237.904C300.796 238.502 300.854 239.426 301.453 239.961C302.051 240.496 302.975 240.438 303.512 239.84Z" fill="#E8E8E8"/>
<path d="M320.749 290.627C321.302 290.002 321.238 289.056 320.64 288.521C320.014 287.968 319.09 288.027 318.531 288.631C317.973 289.234 318.036 290.18 318.64 290.737C319.244 291.295 320.19 291.231 320.749 290.627Z" fill="#E8E8E8"/>
<path d="M322.983 303.869C323.542 303.266 323.478 302.32 322.874 301.763C322.248 301.211 321.319 301.247 320.766 301.873C320.212 302.498 320.271 303.422 320.875 303.979C321.5 304.532 322.425 304.473 322.983 303.869Z" fill="#E8E8E8"/>
<path d="M327.22 319.764C329.18 317.58 329.005 314.224 326.82 312.266C324.635 310.309 321.275 310.486 319.314 312.669C317.354 314.853 317.529 318.209 319.714 320.167C321.899 322.125 325.259 321.947 327.22 319.764Z" fill="#E8E8E8"/>
<path d="M6.0048 154.211C6.90983 153.196 6.82346 151.67 5.82998 150.761C4.81433 149.858 3.26448 149.95 2.37629 150.938C1.47126 151.953 1.56297 153.501 2.55644 154.41C3.57209 155.314 5.12194 155.221 6.02696 154.206L6.0048 154.211Z" fill="#E8E8E8"/>
<path d="M17.163 147.061C17.811 146.342 17.7542 145.231 17.0404 144.606C16.3213 143.959 15.2088 144.016 14.583 144.729C13.935 145.448 13.9918 146.56 14.7056 147.184C15.4247 147.831 16.5372 147.774 17.163 147.061Z" fill="#E8E8E8"/>
<path d="M29.1476 141.073C29.7397 140.415 29.6768 139.375 29.018 138.784C28.3593 138.193 27.3408 138.251 26.7265 138.915C26.1344 139.573 26.192 140.59 26.8561 141.204C27.5148 141.795 28.5386 141.759 29.1476 141.073Z" fill="#E8E8E8"/>
<path d="M41.054 135.486C41.3838 135.101 41.3611 134.521 40.9767 134.192C40.5923 133.862 40.0112 133.885 39.6815 134.27C39.3518 134.654 39.3744 135.234 39.7588 135.563C40.1432 135.893 40.7021 135.875 41.054 135.486Z" fill="#E8E8E8"/>
<path d="M53.7806 131.157C54.1103 130.773 54.0877 130.193 53.7033 129.864C53.3189 129.534 52.76 129.552 52.408 129.941C52.073 130.303 52.0956 130.884 52.4854 131.235C52.8698 131.565 53.4509 131.542 53.7806 131.157Z" fill="#E8E8E8"/>
<path d="M66.765 127.673C67.0947 127.289 67.0721 126.708 66.6877 126.379C66.3032 126.05 65.7443 126.068 65.3924 126.457C65.0574 126.819 65.08 127.4 65.4697 127.751C65.832 128.085 66.4131 128.063 66.765 127.673Z" fill="#E8E8E8"/>
<path d="M79.9447 125.017C80.2744 124.633 80.2518 124.052 79.8673 123.723C79.4829 123.394 78.924 123.411 78.5721 123.801C78.2424 124.185 78.265 124.765 78.6494 125.095C79.0338 125.424 79.5927 125.406 79.9447 125.017Z" fill="#E8E8E8"/>
<path d="M93.2806 123.204C93.6157 122.842 93.5877 122.24 93.2033 121.91C92.8189 121.581 92.2378 121.604 91.908 121.988C91.5783 122.372 91.6009 122.953 91.9853 123.282C92.3698 123.611 92.9287 123.594 93.2806 123.204Z" fill="#E8E8E8"/>
<path d="M106.687 122.267C107.022 121.905 106.994 121.302 106.61 120.973C106.225 120.644 105.666 120.661 105.314 121.051C104.985 121.435 105.007 122.015 105.392 122.345C105.776 122.674 106.357 122.651 106.687 122.267Z" fill="#E8E8E8"/>
<path d="M122.71 124.475C124.318 122.681 124.171 119.927 122.376 118.321C120.581 116.715 117.824 116.864 116.215 118.658C114.606 120.452 114.754 123.206 116.549 124.812C118.344 126.418 121.101 126.269 122.71 124.475Z" fill="#E8E8E8"/>
<path d="M137.267 126.262C139.451 123.837 139.235 120.116 136.808 117.935C134.382 115.754 130.657 115.973 128.473 118.398C126.288 120.823 126.505 124.544 128.932 126.725C131.358 128.906 135.083 128.687 137.267 126.262Z" fill="#E8E8E8"/>
<path d="M150.611 127.895C152.795 125.47 152.578 121.749 150.152 119.568C147.726 117.387 144 117.606 141.816 120.031C139.632 122.456 139.849 126.177 142.275 128.358C144.702 130.539 148.427 130.32 150.611 127.895Z" fill="#E8E8E8"/>
<path d="M163.838 130.379C166.022 127.954 165.805 124.233 163.379 122.052C160.952 119.872 157.227 120.09 155.043 122.515C152.859 124.94 153.075 128.662 155.502 130.842C157.928 133.023 161.653 132.804 163.838 130.379Z" fill="#E8E8E8"/>
<path d="M176.415 133.326C178.376 131.143 178.2 127.786 176.015 125.829C173.83 123.871 170.471 124.048 168.51 126.232C166.549 128.416 166.725 131.772 168.91 133.73C171.094 135.687 174.454 135.51 176.415 133.326Z" fill="#E8E8E8"/>
<path d="M189.212 137.459C191.173 135.275 190.997 131.919 188.812 129.962C186.627 128.004 183.267 128.181 181.307 130.365C179.346 132.548 179.522 135.905 181.706 137.862C183.891 139.82 187.251 139.643 189.212 137.459Z" fill="#E8E8E8"/>
<path d="M201.696 142.42C203.657 140.236 203.481 136.88 201.296 134.922C199.111 132.965 195.752 133.142 193.791 135.326C191.83 137.509 192.006 140.866 194.191 142.823C196.376 144.781 199.735 144.604 201.696 142.42Z" fill="#E8E8E8"/>
<path d="M213.852 148.154C215.813 145.971 215.637 142.614 213.453 140.657C211.268 138.699 207.908 138.876 205.947 141.06C203.987 143.244 204.162 146.6 206.347 148.558C208.532 150.515 211.892 150.338 213.852 148.154Z" fill="#E8E8E8"/>
<path d="M225.61 154.67C227.571 152.486 227.395 149.13 225.21 147.172C223.026 145.215 219.666 145.392 217.705 147.576C215.744 149.759 215.92 153.116 218.105 155.073C220.29 157.031 223.649 156.854 225.61 154.67Z" fill="#E8E8E8"/>
<path d="M236.931 161.928C238.891 159.744 238.716 156.388 236.531 154.43C234.346 152.473 230.986 152.65 229.025 154.833C227.065 157.017 227.24 160.373 229.425 162.331C231.61 164.289 234.97 164.112 236.931 161.928Z" fill="#E8E8E8"/>
<path d="M247.743 169.897C249.704 167.713 249.528 164.357 247.343 162.399C245.158 160.441 241.799 160.619 239.838 162.802C237.877 164.986 238.053 168.342 240.238 170.3C242.423 172.257 245.782 172.08 247.743 169.897Z" fill="#E8E8E8"/>
<path d="M267.986 167.332C269.908 165.181 269.743 161.869 267.591 159.95C265.439 158.032 262.124 158.198 260.202 160.349C258.28 162.5 258.445 165.812 260.597 167.731C262.749 169.649 266.065 169.483 267.986 167.332Z" fill="#E8E8E8"/>
<path d="M274.918 174.074C275.454 173.476 275.396 172.553 274.798 172.017C274.199 171.482 273.275 171.54 272.738 172.139C272.202 172.737 272.261 173.66 272.859 174.195C273.457 174.731 274.382 174.672 274.918 174.074Z" fill="#E8E8E8"/>
<path d="M284.066 183.894C284.603 183.296 284.544 182.373 283.946 181.837C283.348 181.302 282.423 181.361 281.887 181.959C281.351 182.557 281.409 183.48 282.007 184.016C282.606 184.551 283.53 184.492 284.066 183.894Z" fill="#E8E8E8"/>
<path d="M292.613 194.254C293.15 193.656 293.091 192.732 292.493 192.197C291.894 191.661 290.97 191.72 290.434 192.318C289.897 192.916 289.956 193.84 290.554 194.375C291.153 194.911 292.077 194.852 292.613 194.254Z" fill="#E8E8E8"/>
<path d="M300.551 205.09C301.087 204.492 301.029 203.568 300.43 203.033C299.832 202.497 298.908 202.556 298.371 203.154C297.835 203.752 297.893 204.676 298.492 205.211C299.09 205.747 300.015 205.688 300.551 205.09Z" fill="#E8E8E8"/>
<path d="M307.809 216.394C308.345 215.796 308.287 214.873 307.688 214.337C307.09 213.802 306.165 213.861 305.629 214.459C305.093 215.057 305.151 215.98 305.75 216.516C306.348 217.051 307.272 216.992 307.809 216.394Z" fill="#E8E8E8"/>
<path d="M314.387 228.121C314.923 227.523 314.865 226.599 314.266 226.064C313.668 225.529 312.743 225.587 312.207 226.185C311.671 226.783 311.729 227.707 312.328 228.242C312.926 228.778 313.85 228.719 314.387 228.121Z" fill="#E8E8E8"/>
<path d="M337.189 303.791C337.189 303.791 337.229 303.663 337.169 303.607C337.113 303.574 337.041 303.567 336.985 303.628C336.951 303.683 336.945 303.755 337.006 303.811C337.066 303.867 337.133 303.851 337.189 303.791Z" fill="#E8E8E8"/>
<path d="M2.33593 137.812C2.85538 137.242 2.80234 136.341 2.23147 135.822C1.6606 135.303 0.758371 135.357 0.238925 135.927C-0.280521 136.498 -0.227479 137.399 0.343388 137.918C0.914256 138.436 1.81649 138.383 2.33593 137.812Z" fill="#E8E8E8"/>
<path d="M13.804 131.087C14.1338 130.703 14.1165 130.145 13.7267 129.793C13.3645 129.459 12.7834 129.482 12.4315 129.871C12.1017 130.255 12.1244 130.836 12.5088 131.165C12.8932 131.494 13.4521 131.477 13.804 131.087Z" fill="#E8E8E8"/>
<path d="M26.5152 125.867C27.1073 125.208 27.0719 124.185 26.3856 123.577C25.7269 122.986 24.7031 123.022 24.0941 123.708C23.502 124.366 23.5649 125.406 24.2237 125.997C24.8824 126.588 25.9009 126.53 26.5152 125.867Z" fill="#E8E8E8"/>
<path d="M38.4915 120.478C38.8266 120.116 38.7986 119.513 38.4142 119.184C38.0298 118.855 37.4709 118.872 37.119 119.262C36.7892 119.646 36.8119 120.226 37.1963 120.556C37.5807 120.885 38.1618 120.862 38.4915 120.478Z" fill="#E8E8E8"/>
<path d="M51.2728 116.29C51.6079 115.928 51.5799 115.326 51.1955 114.996C50.8111 114.667 50.2521 114.685 49.9002 115.074C49.5652 115.436 49.5931 116.039 49.9776 116.368C50.362 116.697 50.9209 116.68 51.2728 116.29Z" fill="#E8E8E8"/>
<path d="M64.2806 112.876C64.6157 112.514 64.5877 111.911 64.2033 111.582C63.8189 111.253 63.26 111.271 62.908 111.66C62.5783 112.044 62.601 112.625 62.9854 112.954C63.3698 113.283 63.9287 113.266 64.2806 112.876Z" fill="#E8E8E8"/>
<path d="M78.331 111.037C79.0854 110.175 79.0302 108.876 78.1628 108.101C77.2955 107.326 76.0002 107.403 75.2237 108.27C74.4694 109.132 74.5245 110.431 75.3919 111.206C76.254 111.96 77.5545 111.904 78.331 111.037Z" fill="#E8E8E8"/>
<path d="M90.7962 108.431C91.1313 108.069 91.1033 107.466 90.7189 107.137C90.3345 106.808 89.7756 106.825 89.4237 107.215C89.0886 107.577 89.1166 108.18 89.501 108.509C89.8854 108.838 90.4443 108.82 90.7962 108.431Z" fill="#E8E8E8"/>
<path d="M104.202 107.376C104.538 107.014 104.51 106.411 104.125 106.082C103.741 105.753 103.16 105.776 102.83 106.16C102.495 106.522 102.523 107.125 102.907 107.454C103.269 107.789 103.851 107.766 104.202 107.376Z" fill="#E8E8E8"/>
<path d="M117.64 107.157C117.97 106.773 117.947 106.193 117.563 105.863C117.178 105.534 116.619 105.552 116.267 105.941C115.932 106.303 115.96 106.906 116.345 107.235C116.707 107.57 117.31 107.542 117.64 107.157Z" fill="#E8E8E8"/>
<path d="M132.194 108.714C133.082 107.727 132.995 106.201 132.007 105.314C131.019 104.427 129.491 104.514 128.603 105.502C127.715 106.489 127.801 108.015 128.79 108.902C129.778 109.789 131.305 109.702 132.194 108.714Z" fill="#E8E8E8"/>
<path d="M148.173 112.434C150.358 110.009 150.141 106.288 147.714 104.107C145.288 101.926 141.563 102.145 139.379 104.57C137.195 106.995 137.411 110.716 139.838 112.897C142.264 115.078 145.989 114.859 148.173 112.434Z" fill="#E8E8E8"/>
<path d="M161.433 114.604C163.617 112.179 163.4 108.458 160.974 106.277C158.547 104.096 154.822 104.315 152.638 106.74C150.454 109.165 150.671 112.886 153.097 115.067C155.518 117.225 159.249 117.029 161.433 114.604Z" fill="#E8E8E8"/>
<path d="M174.205 117.237C176.199 114.998 176.03 111.57 173.785 109.557C171.545 107.566 168.113 107.737 166.097 109.981C164.08 112.225 164.272 115.647 166.517 117.661C168.762 119.674 172.188 119.481 174.205 117.237Z" fill="#E8E8E8"/>
<path d="M187.032 120.897C188.993 118.713 188.817 115.357 186.632 113.399C184.447 111.441 181.088 111.619 179.127 113.802C177.166 115.986 177.342 119.342 179.527 121.3C181.712 123.257 185.071 123.08 187.032 120.897Z" fill="#E8E8E8"/>
<path d="M199.681 125.397C201.641 123.213 201.466 119.857 199.281 117.899C197.096 115.941 193.736 116.119 191.775 118.302C189.815 120.486 189.99 123.842 192.175 125.8C194.36 127.757 197.72 127.58 199.681 125.397Z" fill="#E8E8E8"/>
<path d="M212.071 130.654C214.032 128.471 213.856 125.115 211.671 123.157C209.486 121.199 206.127 121.376 204.166 123.56C202.205 125.744 202.381 129.1 204.566 131.058C206.751 133.015 210.11 132.838 212.071 130.654Z" fill="#E8E8E8"/>
<path d="M224.095 136.639C226.055 134.455 225.88 131.099 223.695 129.141C221.51 127.184 218.15 127.361 216.189 129.544C214.229 131.728 214.404 135.084 216.589 137.042C218.774 139 222.134 138.822 224.095 136.639Z" fill="#E8E8E8"/>
<path d="M235.751 143.326C237.712 141.143 237.536 137.786 235.351 135.829C233.166 133.871 229.806 134.048 227.846 136.232C225.885 138.416 226.061 141.772 228.246 143.729C230.43 145.687 233.79 145.51 235.751 143.326Z" fill="#E8E8E8"/>
<path d="M246.985 150.693C248.946 148.51 248.77 145.154 246.585 143.196C244.401 141.238 241.041 141.415 239.08 143.599C237.119 145.783 237.295 149.139 239.48 151.097C241.665 153.054 245.024 152.877 246.985 150.693Z" fill="#E8E8E8"/>
<path d="M257.766 158.733C259.727 156.549 259.552 153.193 257.367 151.235C255.182 149.277 251.822 149.455 249.861 151.638C247.901 153.822 248.076 157.178 250.261 159.136C252.446 161.093 255.806 160.916 257.766 158.733Z" fill="#E8E8E8"/>
<path d="M284.91 162.902C285.446 162.304 285.388 161.381 284.79 160.845C284.191 160.31 283.267 160.369 282.731 160.967C282.194 161.565 282.253 162.488 282.851 163.024C283.45 163.559 284.374 163.5 284.91 162.902Z" fill="#E8E8E8"/>
<path d="M294.145 172.676C294.681 172.078 294.622 171.154 294.024 170.619C293.426 170.083 292.501 170.142 291.965 170.74C291.429 171.338 291.487 172.262 292.086 172.797C292.684 173.332 293.608 173.274 294.145 172.676Z" fill="#E8E8E8"/>
<path d="M302.793 182.965C303.329 182.367 303.271 181.443 302.673 180.908C302.074 180.372 301.15 180.431 300.613 181.029C300.077 181.627 300.136 182.551 300.734 183.086C301.332 183.621 302.257 183.563 302.793 182.965Z" fill="#E8E8E8"/>
<path d="M310.856 193.699C311.392 193.101 311.333 192.178 310.735 191.642C310.137 191.107 309.212 191.165 308.676 191.764C308.14 192.362 308.198 193.285 308.796 193.82C309.395 194.356 310.319 194.297 310.856 193.699Z" fill="#E8E8E8"/>
<path d="M317.292 203.964C317.292 203.964 317.316 203.864 317.266 203.852C317.233 203.813 317.188 203.824 317.154 203.879C317.115 203.912 317.131 203.979 317.181 203.99C317.214 204.03 317.259 204.019 317.292 203.964Z" fill="#E8E8E8"/>
<path d="M325.121 216.465C325.657 215.867 325.599 214.943 325.001 214.408C324.402 213.872 323.478 213.931 322.942 214.529C322.405 215.127 322.464 216.051 323.062 216.586C323.66 217.121 324.585 217.063 325.121 216.465Z" fill="#E8E8E8"/>
<path d="M345.316 398.637C345.853 398.038 345.794 397.115 345.196 396.58C344.598 396.044 343.673 396.103 343.137 396.701C342.601 397.299 342.659 398.223 343.257 398.758C343.856 399.293 344.78 399.235 345.316 398.637Z" fill="#E8E8E8"/>
<path d="M11.0931 115.736C11.4282 115.374 11.4002 114.771 11.0158 114.442C10.6536 114.107 10.0724 114.13 9.72052 114.52C9.38545 114.882 9.41344 115.484 9.79785 115.813C10.1823 116.143 10.7633 116.12 11.0931 115.736Z" fill="#E8E8E8"/>
<path d="M23.9833 110.826C24.6313 110.108 24.5745 108.996 23.8607 108.371C23.1416 107.724 22.0291 107.782 21.4033 108.495C20.7554 109.214 20.8121 110.325 21.5259 110.95C22.245 111.597 23.3575 111.54 23.9833 110.826Z" fill="#E8E8E8"/>
<path d="M35.9368 105.509C36.2666 105.125 36.2439 104.544 35.8595 104.215C35.4751 103.886 34.9162 103.903 34.5643 104.293C34.2292 104.655 34.2572 105.258 34.6416 105.587C35.026 105.916 35.5849 105.899 35.9368 105.509Z" fill="#E8E8E8"/>
<path d="M48.7493 101.431C49.0844 101.069 49.0618 100.488 48.672 100.137C48.2876 99.8077 47.7287 99.8253 47.3768 100.215C47.0471 100.599 47.0697 101.18 47.4541 101.509C47.8385 101.838 48.3974 101.82 48.7493 101.431Z" fill="#E8E8E8"/>
<path d="M61.7962 98.0949C62.1313 97.7329 62.1087 97.1524 61.7189 96.801C61.3345 96.4718 60.7756 96.4894 60.4237 96.8789C60.0939 97.2631 60.1166 97.8436 60.501 98.1728C60.8632 98.5074 61.4443 98.4845 61.7962 98.0949Z" fill="#E8E8E8"/>
<path d="M75.8545 96.2791C76.6088 95.4175 76.5537 94.1183 75.6863 93.343C74.8242 92.5899 73.5237 92.6456 72.7472 93.5125C71.9928 94.3741 72.048 95.6734 72.9154 96.4486C73.7774 97.2017 75.078 97.146 75.8545 96.2791Z" fill="#E8E8E8"/>
<path d="M89.2703 94.4985C90.0858 93.5987 90.0093 92.2109 89.109 91.3967C88.2088 90.5824 86.8195 90.6596 86.004 91.5593C85.1885 92.4591 85.265 93.8469 86.1652 94.6612C87.0655 95.4754 88.4548 95.3982 89.2703 94.4985Z" fill="#E8E8E8"/>
<path d="M102.661 93.3735C103.476 92.4737 103.4 91.0859 102.5 90.2716C101.599 89.4574 100.21 89.5345 99.3946 90.4343C98.5791 91.3341 98.6556 92.7219 99.5559 93.5362C100.456 94.3504 101.845 94.2732 102.661 93.3735Z" fill="#E8E8E8"/>
<path d="M115.156 92.173C115.491 91.811 115.463 91.2083 115.078 90.8791C114.716 90.5446 114.135 90.5675 113.783 90.957C113.453 91.3412 113.476 91.9217 113.86 92.251C114.245 92.5802 114.826 92.5572 115.156 92.173Z" fill="#E8E8E8"/>
<path d="M128.961 92.8984C129.48 92.3279 129.427 91.4266 128.856 90.9079C128.286 90.3893 127.383 90.4428 126.864 91.0133C126.344 91.5839 126.398 92.4852 126.968 93.0038C127.539 93.5224 128.441 93.469 128.961 92.8984Z" fill="#E8E8E8"/>
<path d="M141.968 93.7199C142.298 93.3357 142.275 92.7552 141.891 92.426C141.506 92.0968 140.947 92.1144 140.596 92.5039C140.266 92.8881 140.288 93.4686 140.673 93.7978C141.057 94.127 141.638 94.1041 141.968 93.7199Z" fill="#E8E8E8"/>
<path d="M158.456 98.4345C160.361 96.3112 160.19 93.0711 158.066 91.1692C155.941 89.2673 152.698 89.4399 150.793 91.5633C148.888 93.6866 149.059 96.9267 151.184 98.8286C153.308 100.73 156.552 100.558 158.456 98.4345Z" fill="#E8E8E8"/>
<path d="M171.621 101.075C173.525 98.9518 173.354 95.7117 171.23 93.8098C169.105 91.9079 165.862 92.0805 163.957 94.2039C162.052 96.3272 162.228 99.5895 164.348 101.469C166.472 103.371 169.716 103.199 171.621 101.075Z" fill="#E8E8E8"/>
<path d="M184.759 104.568C186.719 102.385 186.544 99.0286 184.359 97.0709C182.174 95.1133 178.814 95.2904 176.854 97.4741C174.893 99.6579 175.068 103.014 177.253 104.972C179.438 106.929 182.798 106.752 184.759 104.568Z" fill="#E8E8E8"/>
<path d="M197.571 108.654C199.532 106.471 199.356 103.114 197.171 101.157C194.986 99.1992 191.627 99.3763 189.666 101.56C187.705 103.744 187.881 107.1 190.066 109.058C192.251 111.015 195.61 110.838 197.571 108.654Z" fill="#E8E8E8"/>
<path d="M210.134 113.451C212.094 111.268 211.919 107.911 209.734 105.954C207.549 103.996 204.189 104.173 202.229 106.357C200.268 108.541 200.443 111.897 202.628 113.854C204.813 115.812 208.173 115.635 210.134 113.451Z" fill="#E8E8E8"/>
<path d="M222.391 118.959C224.352 116.775 224.177 113.419 221.992 111.462C219.807 109.504 216.447 109.681 214.486 111.865C212.526 114.048 212.701 117.405 214.886 119.362C217.071 121.32 220.431 121.143 222.391 118.959Z" fill="#E8E8E8"/>
<path d="M234.321 125.154C236.282 122.971 236.106 119.614 233.921 117.657C231.736 115.699 228.377 115.876 226.416 118.06C224.455 120.244 224.631 123.6 226.816 125.558C229.001 127.515 232.36 127.338 234.321 125.154Z" fill="#E8E8E8"/>
<path d="M245.899 131.99C247.86 129.807 247.684 126.45 245.499 124.493C243.315 122.535 239.955 122.712 237.994 124.896C236.033 127.08 236.209 130.436 238.394 132.394C240.579 134.351 243.938 134.174 245.899 131.99Z" fill="#E8E8E8"/>
<path d="M257.063 139.451C259.024 137.268 258.848 133.911 256.664 131.954C254.479 129.996 251.119 130.173 249.158 132.357C247.197 134.541 247.373 137.897 249.558 139.854C251.743 141.812 255.103 141.635 257.063 139.451Z" fill="#E8E8E8"/>
<path d="M264.296 144.432C264.514 144.168 264.512 143.77 264.248 143.552C264.007 143.329 263.591 143.359 263.368 143.601C263.145 143.842 263.147 144.24 263.416 144.48C263.679 144.697 264.078 144.695 264.296 144.432Z" fill="#E8E8E8"/>
<path d="M334.753 203.948C334.753 203.948 334.782 203.871 334.727 203.837C334.671 203.803 334.649 203.808 334.615 203.864C334.576 203.897 334.587 203.941 334.642 203.975C334.675 204.014 334.72 204.003 334.753 203.948Z" fill="#E8E8E8"/>
<path d="M8.41339 100.47C8.74847 100.108 8.72051 99.5052 8.3361 99.176C7.95169 98.8468 7.37061 98.8697 7.04087 99.2539C6.7058 99.616 6.73376 100.219 7.11817 100.548C7.50258 100.877 8.06148 100.859 8.41339 100.47Z" fill="#E8E8E8"/>
<path d="M20.7728 95.1652C21.1025 94.781 21.0799 94.2005 20.6955 93.8713C20.3111 93.5421 19.7521 93.5597 19.4002 93.9492C19.0652 94.3113 19.0931 94.9139 19.4775 95.2431C19.862 95.5723 20.443 95.5494 20.7728 95.1652Z" fill="#E8E8E8"/>
<path d="M33.4056 90.548C33.7353 90.1638 33.7127 89.5833 33.3283 89.2541C32.966 88.9196 32.385 88.9425 32.033 89.332C31.698 89.6941 31.726 90.2967 32.1104 90.6259C32.4948 90.9551 33.0759 90.9322 33.4056 90.548Z" fill="#E8E8E8"/>
<path d="M46.2557 86.5888C46.5854 86.2046 46.5628 85.6241 46.1784 85.2949C45.794 84.9657 45.235 84.9833 44.8831 85.3729C44.5481 85.7349 44.5707 86.3154 44.9605 86.6667C45.3502 87.0181 45.9259 86.973 46.2557 86.5888Z" fill="#E8E8E8"/>
<path d="M60.2625 84.1704C61.078 83.2706 61.0015 81.8828 60.1012 81.0685C59.201 80.2543 57.8117 80.3315 56.9962 81.2312C56.1807 82.131 56.2572 83.5188 57.1574 84.333C58.0577 85.1473 59.4469 85.0701 60.2625 84.1704Z" fill="#E8E8E8"/>
<path d="M73.4656 81.6C74.2811 80.7003 74.2046 79.3125 73.3043 78.4982C72.4041 77.684 71.0148 77.7611 70.1993 78.6609C69.3838 79.5607 69.4603 80.9485 70.3606 81.7627C71.2608 82.5769 72.6501 82.4998 73.4656 81.6Z" fill="#E8E8E8"/>
<path d="M86.7859 79.7172C87.6014 78.8175 87.5249 77.4296 86.6247 76.6154C85.7244 75.8012 84.3351 75.8783 83.5196 76.7781C82.7041 77.6778 82.7806 79.0657 83.6809 79.8799C84.5811 80.6941 85.9704 80.617 86.7859 79.7172Z" fill="#E8E8E8"/>
<path d="M100.177 78.5297C100.992 77.63 100.916 76.2421 100.015 75.4279C99.115 74.6137 97.7258 74.6908 96.9102 75.5906C96.0947 76.4903 96.1712 77.8782 97.0715 78.6924C97.9717 79.5066 99.361 79.4295 100.177 78.5297Z" fill="#E8E8E8"/>
<path d="M113.598 78.061C114.414 77.1612 114.337 75.7734 113.437 74.9592C112.537 74.1449 111.148 74.2221 110.332 75.1218C109.517 76.0216 109.593 77.4094 110.493 78.2237C111.394 79.0379 112.783 78.9607 113.598 78.061Z" fill="#E8E8E8"/>
<path d="M127.059 78.311C127.875 77.4112 127.798 76.0234 126.898 75.2092C125.998 74.3949 124.609 74.4721 123.793 75.3718C122.978 76.2716 123.054 77.6594 123.954 78.4737C124.855 79.2879 126.244 79.2107 127.059 78.311Z" fill="#E8E8E8"/>
<path d="M139.671 78.5554C140.079 78.1055 140.047 77.3867 139.597 76.9796C139.146 76.5725 138.427 76.6054 138.019 77.0553C137.611 77.5051 137.644 78.2239 138.094 78.631C138.544 79.0381 139.264 79.0053 139.694 78.55L139.671 78.5554Z" fill="#E8E8E8"/>
<path d="M152.851 80.0637C153.181 79.6795 153.163 79.1211 152.774 78.7698C152.389 78.4406 151.808 78.4635 151.478 78.8477C151.143 79.2097 151.171 79.8123 151.556 80.1416C151.94 80.4708 152.499 80.4532 152.851 80.0637Z" fill="#E8E8E8"/>
<path d="M205.762 94.4672C206.578 93.5675 206.501 92.1796 205.601 91.3654C204.701 90.5512 203.312 90.6283 202.496 91.5281C201.681 92.4278 201.757 93.8157 202.657 94.6299C203.558 95.4441 204.947 95.367 205.762 94.4672Z" fill="#E8E8E8"/>
<path d="M220.509 101.615C222.469 99.4316 222.294 96.0754 220.109 94.1178C217.924 92.1601 214.564 92.3373 212.604 94.521C210.643 96.7047 210.818 100.061 213.003 102.019C215.188 103.976 218.548 103.799 220.509 101.615Z" fill="#E8E8E8"/>
<path d="M5.78058 85.2355C6.11032 84.8514 6.0877 84.2709 5.70329 83.9417C5.31888 83.6124 4.75996 83.63 4.40806 84.0195C4.07298 84.3816 4.10094 84.9842 4.48535 85.3134C4.86976 85.6426 5.45085 85.6197 5.78058 85.2355Z" fill="#E8E8E8"/>
<path d="M18.1947 80.1105C18.5297 79.7485 18.5071 79.168 18.1173 78.8167C17.7329 78.4875 17.1518 78.5104 16.8221 78.8945C16.487 79.2566 16.515 79.8592 16.8994 80.1884C17.2616 80.523 17.8427 80.5001 18.1947 80.1105Z" fill="#E8E8E8"/>
<path d="M30.89 75.6184C31.225 75.2563 31.1971 74.6537 30.8127 74.3245C30.4282 73.9953 29.8472 74.0182 29.5174 74.4024C29.1877 74.7865 29.2103 75.367 29.5947 75.6962C29.9791 76.0254 30.5381 76.0079 30.89 75.6184Z" fill="#E8E8E8"/>
<path d="M43.88 71.8727C44.2877 71.4229 44.2438 70.7537 43.7936 70.3466C43.3435 69.9395 42.6737 69.9838 42.266 70.4337C41.8804 70.8782 41.9022 71.5527 42.3523 71.9598C42.8024 72.3669 43.4722 72.3226 43.88 71.8727Z" fill="#E8E8E8"/>
<path d="M57.7781 69.3969C58.5936 68.4972 58.5171 67.1093 57.6168 66.2951C56.7166 65.4809 55.3273 65.558 54.5118 66.4578C53.6963 67.3575 53.7728 68.7454 54.6731 69.5596C55.5733 70.3738 56.9626 70.2967 57.7781 69.3969Z" fill="#E8E8E8"/>
<path d="M70.989 66.8422C71.8045 65.9425 71.728 64.5546 70.8278 63.7404C69.9275 62.9262 68.5382 63.0033 67.7227 63.9031C66.9072 64.8028 66.9837 66.1907 67.884 67.0049C68.7842 67.8191 70.1735 67.742 70.989 66.8422Z" fill="#E8E8E8"/>
<path d="M84.3015 64.9438C85.117 64.044 85.0405 62.6562 84.1403 61.842C83.24 61.0278 81.8508 61.1049 81.0353 62.0046C80.2198 62.9044 80.2962 64.2922 81.1965 65.1065C82.0967 65.9207 83.486 65.8436 84.3015 64.9438Z" fill="#E8E8E8"/>
<path d="M97.6765 63.6938C98.492 62.794 98.4155 61.4062 97.5153 60.592C96.615 59.7778 95.2258 59.8549 94.4102 60.7547C93.5947 61.6544 93.6712 63.0422 94.5715 63.8565C95.4717 64.6707 96.861 64.5936 97.6765 63.6938Z" fill="#E8E8E8"/>
<path d="M111.106 63.1469C111.922 62.2472 111.845 60.8593 110.945 60.0451C110.045 59.2309 108.655 59.308 107.84 60.2078C107.024 61.1075 107.101 62.4954 108.001 63.3096C108.901 64.1238 110.291 64.0467 111.106 63.1469Z" fill="#E8E8E8"/>
<path d="M124.288 62.9945C124.953 62.2483 124.907 61.0873 124.161 60.4235C123.409 59.7376 122.252 59.8056 121.587 60.5518C120.922 61.298 120.967 62.459 121.714 63.1228C122.461 63.7865 123.623 63.7408 124.305 62.967L124.288 62.9945Z" fill="#E8E8E8"/>
<path d="M137.426 63.5037C137.962 62.9056 137.904 61.9822 137.305 61.4468C136.707 60.9113 135.783 60.9702 135.246 61.5682C134.71 62.1663 134.768 63.0897 135.367 63.6252C135.965 64.1606 136.89 64.1018 137.426 63.5037Z" fill="#E8E8E8"/>
<path d="M150.39 64.5949C150.72 64.2107 150.697 63.6302 150.313 63.301C149.928 62.9718 149.369 62.9894 149.017 63.3789C148.682 63.741 148.71 64.3436 149.095 64.6728C149.479 65.002 150.038 64.9844 150.39 64.5949Z" fill="#E8E8E8"/>
<path d="M3.15559 70.0715C3.48533 69.6873 3.46269 69.1068 3.07828 68.7776C2.69387 68.4484 2.13498 68.4659 1.78307 68.8555C1.45333 69.2397 1.47595 69.8202 1.86036 70.1494C2.24477 70.4786 2.80368 70.461 3.15559 70.0715Z" fill="#E8E8E8"/>
<path d="M15.6556 65.0871C15.9907 64.7251 15.968 64.1446 15.5783 63.7932C15.216 63.4587 14.635 63.4816 14.283 63.8711C13.948 64.2331 13.9759 64.8358 14.3603 65.165C14.7448 65.4942 15.3037 65.4766 15.6556 65.0871Z" fill="#E8E8E8"/>
<path d="M28.3509 60.7121C28.6806 60.3279 28.6633 59.7695 28.2736 59.4182C27.8892 59.089 27.3303 59.1066 26.9784 59.4961C26.6433 59.8581 26.6712 60.4608 27.0557 60.79C27.4401 61.1192 27.999 61.1016 28.3509 60.7121Z" fill="#E8E8E8"/>
<path d="M41.8222 57.4233C42.4312 56.7374 42.3683 55.6978 41.7042 55.0845C41.0179 54.4765 39.9719 54.5177 39.363 55.2036C38.754 55.8895 38.8169 56.929 39.481 57.5424C40.1673 58.1504 41.2132 58.1092 41.8222 57.4233Z" fill="#E8E8E8"/>
<path d="M55.3015 54.6157C56.117 53.7159 56.0405 52.3281 55.1403 51.5139C54.24 50.6996 52.8508 50.7768 52.0352 51.6765C51.2197 52.5763 51.2962 53.9641 52.1965 54.7783C53.0967 55.5926 54.486 55.5154 55.3015 54.6157Z" fill="#E8E8E8"/>
<path d="M68.5046 52.0688C69.3202 51.169 69.2437 49.7812 68.3434 48.967C67.4432 48.1528 66.0539 48.2299 65.2384 49.1297C64.4229 50.0294 64.4994 51.4172 65.3996 52.2315C66.2998 53.0457 67.6891 52.9686 68.5046 52.0688Z" fill="#E8E8E8"/>
<path d="M81.8093 50.1469C82.6248 49.2472 82.5483 47.8593 81.6481 47.0451C80.7479 46.2309 79.3586 46.308 78.5431 47.2078C77.7276 48.1075 77.8041 49.4954 78.7043 50.3096C79.6046 51.1238 80.9938 51.0467 81.8093 50.1469Z" fill="#E8E8E8"/>
<path d="M95.1843 48.8657C95.9998 47.9659 95.9233 46.5781 95.0231 45.7639C94.1229 44.9496 92.7336 45.0268 91.9181 45.9265C91.1026 46.8263 91.1791 48.2141 92.0793 49.0283C92.9796 49.8426 94.3688 49.7654 95.1843 48.8657Z" fill="#E8E8E8"/>
<path d="M108.066 47.7068C108.603 47.1088 108.544 46.1853 107.946 45.6499C107.348 45.1145 106.423 45.1733 105.887 45.7713C105.351 46.3694 105.409 47.2928 106.007 47.8283C106.606 48.3637 107.53 48.3049 108.066 47.7068Z" fill="#E8E8E8"/>
<path d="M121.512 47.699C122.048 47.101 121.99 46.1775 121.391 45.6421C120.793 45.1067 119.868 45.1654 119.332 45.7635C118.796 46.3616 118.854 47.285 119.453 47.8204C120.051 48.3559 120.975 48.2971 121.512 47.699Z" fill="#E8E8E8"/>
<path d="M134.941 48.3006C135.478 47.7025 135.419 46.7791 134.821 46.2436C134.223 45.7082 133.298 45.767 132.762 46.3651C132.226 46.9631 132.284 47.8866 132.882 48.422C133.481 48.9574 134.405 48.8986 134.941 48.3006Z" fill="#E8E8E8"/>
<path d="M160.714 50.6022C160.714 50.6022 160.782 50.3983 160.689 50.3035C160.601 50.231 160.485 50.2356 160.39 50.3287C160.317 50.4166 160.327 50.5548 160.415 50.6274C160.503 50.7 160.619 50.6954 160.714 50.6022Z" fill="#E8E8E8"/>
<path d="M0.538406 54.9309C0.87348 54.5688 0.845503 53.9662 0.461093 53.637C0.0988591 53.3024 -0.482229 53.3253 -0.834138 53.7149C-1.16387 54.099 -1.14124 54.6795 -0.756825 55.0087C-0.372415 55.3379 0.186497 55.3204 0.538406 54.9309Z" fill="#E8E8E8"/>
<path d="M13.0931 50.0715C13.4228 49.6873 13.4002 49.1068 13.0158 48.7776C12.6314 48.4484 12.0725 48.4659 11.7205 48.8555C11.3855 49.2175 11.4135 49.8202 11.7979 50.1494C12.1823 50.4786 12.7412 50.461 13.0931 50.0715Z" fill="#E8E8E8"/>
<path d="M25.8353 45.8058C26.1704 45.4438 26.1424 44.8412 25.758 44.512C25.3957 44.1774 24.7925 44.2057 24.4627 44.5899C24.1277 44.9519 24.1556 45.5546 24.54 45.8838C24.9244 46.213 25.4834 46.1954 25.8353 45.8058Z" fill="#E8E8E8"/>
<path d="M38.7375 42.0833C39.0504 41.7266 39.0331 41.1683 38.6762 40.8559C38.3193 40.5435 37.7604 40.561 37.4475 40.9177C37.1346 41.2744 37.1519 41.8328 37.5088 42.1452C37.8657 42.4576 38.4246 42.44 38.7375 42.0833Z" fill="#E8E8E8"/>
<path d="M52.5233 39.6077C53.1881 38.8614 53.1429 37.7004 52.3962 37.0367C51.6496 36.3729 50.4874 36.4187 49.8226 37.165C49.1578 37.9112 49.203 39.0722 49.9772 39.7528C50.7238 40.4165 51.886 40.3707 52.5508 39.6245L52.5233 39.6077Z" fill="#E8E8E8"/>
<path d="M65.4649 36.8162C66.0012 36.2181 65.9428 35.2947 65.3444 34.7593C64.746 34.2238 63.8216 34.2826 63.2853 34.8807C62.7491 35.4788 62.8074 36.4022 63.4058 36.9376C64.0042 37.4731 64.9286 37.4143 65.4649 36.8162Z" fill="#E8E8E8"/>
<path d="M78.7696 34.8943C79.3059 34.2963 79.2475 33.3728 78.6491 32.8374C78.0507 32.302 77.1263 32.3608 76.59 32.9588C76.0537 33.5569 76.1121 34.4803 76.7105 35.0158C77.3089 35.5512 78.2333 35.4924 78.7696 34.8943Z" fill="#E8E8E8"/>
<path d="M92.1446 33.5428C92.6809 32.9447 92.6225 32.0213 92.0241 31.4858C91.4257 30.9504 90.5013 31.0092 89.965 31.6073C89.4287 32.2053 89.4871 33.1288 90.0855 33.6642C90.6839 34.1996 91.6083 34.1408 92.1446 33.5428Z" fill="#E8E8E8"/>
<path d="M105.582 32.8162C106.118 32.2181 106.06 31.2947 105.462 30.7593C104.863 30.2238 103.939 30.2826 103.403 30.8807C102.866 31.4788 102.925 32.4022 103.523 32.9376C104.121 33.4731 105.046 33.4143 105.582 32.8162Z" fill="#E8E8E8"/>
<path d="M119.02 32.6912C119.556 32.0931 119.497 31.1697 118.899 30.6343C118.301 30.0988 117.376 30.1576 116.84 30.7557C116.304 31.3538 116.362 32.2772 116.961 32.8126C117.559 33.3481 118.483 33.2893 119.02 32.6912Z" fill="#E8E8E8"/>
<path d="M132.465 33.1521C133.001 32.5541 132.943 31.6306 132.344 31.0952C131.746 30.5598 130.822 30.6186 130.285 31.2166C129.749 31.8147 129.807 32.7381 130.406 33.2736C131.004 33.809 131.929 33.7502 132.465 33.1521Z" fill="#E8E8E8"/>
<path d="M145.863 34.2381C146.4 33.64 146.341 32.7166 145.743 32.1811C145.144 31.6457 144.22 31.7045 143.684 32.3026C143.147 32.9006 143.206 33.8241 143.804 34.3595C144.403 34.8949 145.327 34.8361 145.863 34.2381Z" fill="#E8E8E8"/>
<path d="M9.90743 34.5288C9.90743 34.5288 9.91895 34.4789 9.89134 34.4621C9.86372 34.4452 9.84147 34.4505 9.84684 34.4728C9.84684 34.4728 9.83531 34.5226 9.86293 34.5395C9.86293 34.5395 9.90743 34.5288 9.92969 34.5234L9.90743 34.5288Z" fill="#E8E8E8"/>
<path d="M22.67 30.3456C22.67 30.3456 22.6814 30.2961 22.6594 30.3015C22.6594 30.3015 22.61 30.29 22.5932 30.3174C22.5765 30.3448 22.5818 30.3668 22.6092 30.3835C22.6092 30.3835 22.6586 30.3949 22.6533 30.3729L22.67 30.3456Z" fill="#E8E8E8"/>
<path d="M35.6229 26.7055C35.6229 26.7055 35.6344 26.6556 35.6068 26.6388L35.5623 26.6495C35.5623 26.6495 35.5508 26.6994 35.5784 26.7162L35.6229 26.7055Z" fill="#E8E8E8"/>
<path d="M48.7534 23.6589C48.7534 23.6589 48.7765 23.5592 48.7266 23.5477C48.6936 23.5086 48.6491 23.5194 48.6152 23.5746C48.5761 23.6076 48.5868 23.652 48.642 23.6858C48.675 23.7249 48.7196 23.7141 48.7534 23.6589Z" fill="#E8E8E8"/>
<path d="M63.0146 22.0725C63.5677 21.4469 63.5093 20.5235 62.9056 19.9659C62.3018 19.4083 61.3553 19.4724 60.7968 20.0759C60.2437 20.7014 60.3021 21.6249 60.9058 22.1824C61.5095 22.74 62.4561 22.6759 63.0146 22.0725Z" fill="#E8E8E8"/>
<path d="M76.3466 20.1778C76.9219 19.5469 76.8528 18.5791 76.2216 18.0047C75.5904 17.4303 74.6216 17.4998 74.0463 18.1307C73.471 18.7616 73.5401 19.7294 74.1713 20.3038C74.8026 20.8782 75.7713 20.8087 76.3466 20.1778Z" fill="#E8E8E8"/>
<path d="M89.7138 18.7793C90.2891 18.1484 90.22 17.1807 89.5888 16.6063C88.9575 16.0319 87.9888 16.1014 87.4135 16.7323C86.8382 17.3632 86.9073 18.331 87.5385 18.9053C88.1698 19.4797 89.1385 19.4102 89.7138 18.7793Z" fill="#E8E8E8"/>
<path d="M103.098 17.9178C103.634 17.3197 103.576 16.3963 102.977 15.8608C102.379 15.3254 101.454 15.3842 100.918 15.9823C100.382 16.5803 100.44 17.5038 101.039 18.0392C101.637 18.5746 102.561 18.5158 103.098 17.9178Z" fill="#E8E8E8"/>
<path d="M116.837 17.9852C117.519 17.2114 117.468 16.0283 116.694 15.3477C115.92 14.6672 114.736 14.7183 114.054 15.4921C113.372 16.2658 113.423 17.4489 114.197 18.1295C114.971 18.81 116.156 18.7589 116.837 17.9852Z" fill="#E8E8E8"/>
<path d="M130.229 18.2441C130.894 17.4978 130.838 16.3865 130.091 15.7227C129.344 15.059 128.232 15.1162 127.567 15.8625C126.902 16.6087 126.959 17.72 127.706 18.3838C128.452 19.0475 129.565 18.9903 130.229 18.2441Z" fill="#E8E8E8"/>
<path d="M142.347 18.0238C142.347 18.0238 142.359 17.9744 142.331 17.9577C142.331 17.9577 142.282 17.9463 142.265 17.9737C142.265 17.9737 142.254 18.023 142.281 18.0398C142.281 18.0398 142.33 18.0512 142.325 18.0291L142.347 18.0238Z" fill="#E8E8E8"/>
<path d="M155.738 19.5183C155.738 19.5183 155.766 19.4408 155.711 19.4071C155.678 19.368 155.633 19.3787 155.6 19.4339C155.56 19.4669 155.577 19.5336 155.626 19.5451C155.659 19.5842 155.704 19.5735 155.738 19.5183Z" fill="#E8E8E8"/>
<path d="M46.11 8.73338C46.11 8.73338 46.07 8.86065 46.1307 8.91663C46.1913 8.97261 46.2581 8.95652 46.3142 8.89593C46.3703 8.83534 46.3542 8.76859 46.2936 8.71261C46.2383 8.67887 46.1661 8.67279 46.11 8.73338Z" fill="#E8E8E8"/>
<path d="M59.5191 6.41451C59.5191 6.41451 59.5591 6.28724 59.4985 6.23126C59.4378 6.17528 59.371 6.19137 59.3149 6.25196C59.2811 6.30717 59.2749 6.37923 59.3355 6.43521C59.3908 6.46895 59.463 6.4751 59.5191 6.41451Z" fill="#E8E8E8"/>
<path d="M73.8899 5.40875C74.4821 4.75035 74.4077 3.76048 73.7764 3.18609C73.123 2.61705 72.1267 2.66976 71.5514 3.30066C70.9815 3.95371 71.0337 4.94893 71.665 5.52332C72.3184 6.09236 73.3146 6.03965 73.8899 5.40875Z" fill="#E8E8E8"/>
<path d="M87.2787 4.01669C87.8487 3.36364 87.7964 2.36842 87.1652 1.79403C86.5064 1.20284 85.5155 1.2777 84.9402 1.9086C84.3703 2.56165 84.4225 3.55687 85.0537 4.13126C85.7071 4.7003 86.7034 4.64759 87.2787 4.01669Z" fill="#E8E8E8"/>
<path d="M100.59 3.05839C101.126 2.46033 101.068 1.53686 100.469 1.00143C99.871 0.465992 98.9466 0.524791 98.4103 1.12285C97.874 1.72091 97.9324 2.64438 98.5308 3.17981C99.1292 3.71525 100.054 3.65645 100.59 3.05839Z" fill="#E8E8E8"/>
<path d="M114.027 2.72246C114.564 2.1244 114.505 1.20099 113.907 0.665555C113.309 0.130121 112.384 0.188919 111.848 0.786977C111.312 1.38503 111.37 2.30845 111.968 2.84388C112.567 3.37931 113.491 3.32052 114.027 2.72246Z" fill="#E8E8E8"/>
</svg>
