<svg width="64" height="64" viewBox="0 0 64 64" fill="none" xmlns="http://www.w3.org/2000/svg">
<g id="_&#208;&#161;&#208;&#187;&#208;&#190;&#208;&#185;_1" clip-path="url(#clip0_729_31971)">
<path id="Vector" d="M33.875 64H30C29.8167 63.8683 29.6017 63.8967 29.3967 63.8833C28.045 63.7967 26.7083 63.5933 25.3883 63.31C19.5167 62.0517 14.3917 59.3617 10.0233 55.2367C9.78667 55.0133 9.54333 54.8833 9.21167 54.8417C8.16 54.71 7.11333 54.5417 6.065 54.3817C5.5 54.2967 5.1 53.97 4.92167 53.4417C4.73667 52.895 4.82667 52.3717 5.24667 51.9383C5.435 51.7433 5.60833 51.53 5.82167 51.3667C6.17 51.0967 6.18333 50.8783 5.91333 50.5017C3.85833 47.6417 2.33333 44.5183 1.33667 41.1383C1.28 40.945 1.275 40.71 1.09667 40.5733C0.528333 40.135 0.27 39.5017 0 38.875V25.125C0.231667 24.6183 0.393333 24.065 0.833333 23.69C1.11833 23.4467 1.26333 23.1517 1.36667 22.805C2.53833 18.8917 4.41833 15.345 6.95 12.1417C7.32333 11.6683 7.71 11.2 8.12667 10.765C8.49333 10.3817 8.94333 10.365 9.37 10.675C9.785 10.975 9.84333 11.495 9.535 11.9533C9.42 12.125 9.27167 12.275 9.13667 12.4333C6.64833 15.3467 4.78167 18.615 3.505 22.2267C3.35 22.665 3.41167 22.7967 3.89833 22.7833C5.00167 22.7517 6.10833 22.7417 7.21 22.7867C7.75 22.8083 7.995 22.6417 8.205 22.13C14.5783 6.63667 34.0317 1.28667 47.4183 11.3267C47.5667 11.4383 47.695 11.6217 47.9517 11.6C47.8267 10.6983 47.65 9.825 48.35 9.08667C49.035 8.36333 49.8933 8.435 50.7833 8.575C50.705 8.31667 50.5167 8.24333 50.3733 8.135C42.5783 2.33 33.9483 0.546667 24.51 2.85C20.0933 3.92833 16.17 6.02667 12.6733 8.93C12.115 9.39333 11.55 9.37833 11.1867 8.93167C10.825 8.48667 10.9383 7.94 11.4967 7.47667C15.8617 3.84833 20.8333 1.50833 26.4233 0.506667C27.6483 0.286667 28.89 0.166667 30.125 0C31.4167 0 32.7083 0 34 0C34.1833 0.126667 34.3983 0.105 34.6033 0.116667C35.7267 0.181667 36.8383 0.341667 37.94 0.553333C44.0367 1.725 49.355 4.43 53.8817 8.68C54.1833 8.96333 54.4917 9.13 54.91 9.18C55.9217 9.3 56.9267 9.46667 57.9333 9.61667C58.5 9.70167 58.8967 10.0283 59.0767 10.5567C59.2617 11.1017 59.17 11.6267 58.7533 12.0617C58.5667 12.2567 58.3917 12.47 58.1783 12.6333C57.83 12.9033 57.8167 13.1217 58.085 13.4983C60.14 16.3583 61.665 19.4817 62.6617 22.8617C62.7183 23.055 62.725 23.2883 62.9033 23.4267C63.47 23.865 63.7267 24.5 64 25.1267V38.8767C63.7717 39.36 63.6217 39.8917 63.2117 40.2667C62.945 40.5117 62.7517 40.7783 62.6467 41.1333C61.6267 44.5967 60.055 47.7967 57.91 50.6967C52.7883 57.6267 46.0133 61.9433 37.5167 63.5233C36.31 63.7483 35.0817 63.7817 33.875 64ZM53.9983 41.305C53.7417 41.1767 53.51 41.23 53.2883 41.23C52.1017 41.2233 50.9133 41.2367 49.7267 41.2217C49.0983 41.2133 48.685 40.8283 48.6767 40.2967C48.6683 39.755 49.0667 39.385 49.6983 39.355C49.885 39.3467 50.0733 39.3517 50.26 39.3517C53.7383 39.3517 57.2183 39.3517 60.6967 39.3517C61.7733 39.3517 62.1233 39.0017 62.1233 37.9317C62.1233 33.995 62.1233 30.0567 62.1233 26.12C62.1233 24.975 61.79 24.6483 60.6233 24.6483C41.54 24.6483 22.4567 24.6483 3.37333 24.6483C2.18667 24.6483 1.87333 24.97 1.87333 26.1817C1.87333 30.035 1.87333 33.89 1.87333 37.7433C1.87333 39.0683 2.15833 39.3517 3.48833 39.3517C17.1967 39.3517 30.905 39.3517 44.6133 39.3517C44.8633 39.3517 45.1167 39.3367 45.3617 39.3717C45.83 39.4417 46.1067 39.7267 46.145 40.205C46.1817 40.68 45.9667 41.0233 45.5083 41.1533C45.255 41.225 44.975 41.2233 44.7067 41.2233C33.415 41.2267 22.1233 41.2267 10.8317 41.2267C10.665 41.2267 10.4983 41.2333 10.3317 41.2267C10.045 41.2133 9.96167 41.2933 10.09 41.5867C10.585 42.7133 11.1683 43.79 11.8183 44.835C11.9967 45.1217 12.125 45.1033 12.315 44.87C12.4067 44.7567 12.5133 44.6567 12.625 44.5617C13.505 43.81 14.7867 44.2083 15.0067 45.345C15.2233 46.4683 15.3483 47.6083 15.5117 48.74C15.565 49.1083 15.625 49.445 15.9433 49.73C20.0133 53.3617 24.7583 55.5133 30.195 55.8283C39.1433 56.3483 46.2717 52.8417 51.5917 45.6533C52.58 44.3167 53.3767 42.86 53.9983 41.305ZM32.005 22.7733C37.8783 22.7733 43.75 22.7733 49.6233 22.7733C50.915 22.7733 52.2067 22.7533 53.4967 22.7833C54.025 22.795 54.0267 22.6317 53.835 22.2267C53.3533 21.21 52.83 20.22 52.245 19.2583C52.0433 18.9267 51.9083 18.8483 51.6317 19.1833C51.1833 19.7267 50.6067 19.97 49.9083 19.7317C49.1983 19.4883 48.985 18.8933 48.8967 18.2183C48.765 17.2083 48.6117 16.2 48.4867 15.1883C48.435 14.7783 48.2783 14.465 47.955 14.1833C42.3483 9.315 35.845 7.25 28.515 8.39C20.0483 9.70667 13.9967 14.44 10.2433 22.125C9.93 22.765 9.94833 22.775 10.6417 22.7767C17.7633 22.7767 24.885 22.7767 32.0083 22.7767L32.005 22.7733ZM13.2383 55.4633C13.25 55.5033 13.25 55.555 13.275 55.5783C13.3833 55.675 13.495 55.7683 13.6117 55.8567C18.6333 59.7083 24.315 61.81 30.63 62.0867C37.5383 62.3883 43.8517 60.5317 49.4883 56.5117C54.6967 52.7967 58.3267 47.8783 60.4733 41.8533C60.6667 41.3117 60.56 41.195 60.0017 41.215C58.8983 41.255 57.7933 41.2517 56.69 41.215C56.2217 41.2 56.0133 41.3517 55.8333 41.7917C49.4083 57.39 30.0583 62.73 16.5483 52.6467C16.4133 52.545 16.3033 52.3583 16.0817 52.4067C16.48 54.8383 15.4283 55.775 13.24 55.4633H13.2383ZM56.7583 11.335C54.475 11.0083 52.2767 10.695 50.08 10.375C49.7317 10.325 49.7017 10.4967 49.74 10.7717C49.8817 11.76 50.01 12.75 50.1533 13.7367C50.3267 14.9383 50.5083 16.14 50.69 17.375C52.0967 16.405 52.695 16.5217 53.5933 17.8983C54.505 19.295 55.2917 20.7583 55.89 22.3167C56.0217 22.66 56.1983 22.79 56.5733 22.7817C57.7383 22.7567 58.905 22.7517 60.07 22.7817C60.56 22.795 60.6767 22.6983 60.5017 22.2033C59.555 19.52 58.29 17.0033 56.6433 14.6817C55.4633 13.0183 55.4583 12.95 56.7583 11.335ZM13.315 46.5983C11.9967 47.5867 11.3133 47.4667 10.4633 46.1833C9.53 44.7733 8.735 43.29 8.12 41.715C7.97833 41.3533 7.79833 41.2067 7.395 41.2167C6.27167 41.245 5.145 41.2267 4.02 41.2267C3.31 41.2267 3.30667 41.23 3.535 41.8833C4.585 44.8933 6.075 47.6667 8.00167 50.2083C8.56833 50.9567 8.53667 51.275 7.88333 51.9367C7.67667 52.1467 7.47167 52.36 7.18833 52.6517C9.16167 52.9383 10.9917 53.2033 12.82 53.4717C14.295 53.6883 14.3117 53.6883 14.115 52.2217C13.8683 50.3717 13.5883 48.5267 13.3117 46.5967L13.315 46.5983Z" fill="#65666D"/>
<path id="Vector_2" d="M26.3592 27.0354C26.4008 27.0354 26.4425 27.0354 26.4842 27.0354C30.0842 27.0354 32.0425 29.3904 31.4208 32.9854C31.1058 34.8121 30.2492 36.2437 28.3658 36.7837C27.2558 37.1021 26.0925 36.9787 24.9542 36.9337C24.4358 36.9137 24.1308 36.5287 24.1275 36.0021C24.1158 33.3187 24.1125 30.6354 24.1258 27.9537C24.1292 27.3804 24.5092 27.0921 25.0492 27.0487C25.4825 27.0137 25.9225 27.0421 26.3592 27.0421V27.0354ZM26.9208 28.9104C26.7342 28.9104 26.5458 28.9204 26.3608 28.9087C26.0992 28.8921 25.9875 28.9937 25.9892 29.2654C25.9975 31.0921 25.9975 32.9204 25.9975 34.7471C25.9975 34.9287 26.0292 35.0437 26.2542 35.0904C27.7892 35.4054 29.0692 34.6787 29.4642 33.2371C29.6242 32.6521 29.6725 32.0504 29.6025 31.4471C29.3992 29.6804 28.5858 28.9154 26.9208 28.9121V28.9104Z" fill="#65666D"/>
<path id="Vector_3" d="M42.1696 36.0935C42.1546 36.5868 41.9413 36.9135 41.4763 37.0335C41.0113 37.1535 40.6396 36.9818 40.4296 36.5668C40.2429 36.1985 40.1096 35.8001 39.9763 35.4068C39.8829 35.1301 39.7296 35.0201 39.4296 35.0268C38.4513 35.0435 37.4729 35.0418 36.4946 35.0268C36.2179 35.0235 36.0813 35.1268 35.9963 35.3801C35.8713 35.7535 35.7363 36.1268 35.5729 36.4851C35.3429 36.9885 34.8696 37.1851 34.3896 37.0101C33.8946 36.8285 33.6496 36.3335 33.8529 35.7918C34.8763 33.0685 35.9146 30.3518 36.9529 27.6351C37.1279 27.1785 37.4913 26.9418 37.9646 26.9301C38.4379 26.9185 38.8296 27.1335 39.0046 27.5885C40.0496 30.3251 41.0813 33.0668 42.1146 35.8068C42.1513 35.9018 42.1546 36.0101 42.1696 36.0901V36.0935ZM37.9863 30.1751C37.5746 31.2585 37.2279 32.1718 36.8546 33.1568C37.5529 33.1568 38.1713 33.1535 38.7896 33.1585C39.0263 33.1601 39.0796 33.0585 39.0013 32.8518C38.6829 32.0135 38.3646 31.1735 37.9863 30.1751Z" fill="#65666D"/>
<path id="Vector_4" d="M13.0071 30.8538C13.0071 31.6655 12.9621 32.4805 13.0154 33.2888C13.2004 36.1505 9.93209 37.8322 7.58375 36.7338C6.16875 36.0722 5.35375 34.9838 5.37542 33.3455C5.39875 31.5972 5.37709 29.8472 5.38209 28.0988C5.38375 27.3638 5.72709 26.9355 6.30042 26.9222C6.89709 26.9088 7.25209 27.3488 7.25375 28.1238C7.25709 29.8722 7.30375 31.6238 7.23709 33.3705C7.19709 34.4322 8.22042 35.1905 9.13042 35.2005C10.0404 35.2105 11.1988 34.5288 11.1521 33.3655C11.0821 31.6188 11.1304 29.8688 11.1354 28.1188C11.1371 27.3522 11.5038 26.9072 12.0988 26.9238C12.6738 26.9405 13.0038 27.3638 13.0071 28.1055C13.0121 29.0222 13.0071 29.9372 13.0071 30.8538Z" fill="#65666D"/>
<path id="Vector_5" d="M15.2652 31.9547C15.2652 30.6864 15.2602 29.418 15.2652 28.148C15.2702 27.2347 15.5885 26.923 16.5152 26.9164C17.2019 26.9114 17.8885 26.893 18.5735 26.923C20.4235 27.003 21.8402 28.4297 21.8419 30.1914C21.8435 31.9264 20.4635 33.3414 18.6419 33.473C18.5802 33.478 18.5169 33.478 18.4552 33.4814C17.5763 33.5092 17.1369 33.9564 17.1369 34.823C17.1369 35.2397 17.1469 35.6547 17.1319 36.0714C17.1119 36.6714 16.7635 37.053 16.2402 37.073C15.7069 37.093 15.2819 36.688 15.2702 36.0747C15.2485 34.9314 15.2619 33.7864 15.2619 32.643C15.2619 32.4147 15.2619 32.1847 15.2619 31.9564L15.2652 31.9547ZM17.1435 30.193C17.1458 31.1919 17.5835 31.6625 18.4569 31.6047C19.3385 31.5464 19.9819 30.933 19.9635 30.168C19.9419 29.218 19.2019 28.7664 17.7202 28.788C16.6069 28.8047 17.3669 29.6547 17.1469 30.068C17.1302 30.0997 17.1452 30.1497 17.1452 30.1914L17.1435 30.193Z" fill="#65666D"/>
<path id="Vector_6" d="M53.276 31.97C53.276 30.7 53.2693 29.43 53.2776 28.16C53.2843 27.3 53.596 26.9833 54.4393 26.975C55.4593 26.9667 56.4793 26.9667 57.4993 26.975C58.1876 26.9817 58.6043 27.33 58.6143 27.8817C58.6243 28.46 58.196 28.83 57.4726 28.8433C56.8693 28.855 56.2643 28.8717 55.6626 28.8383C55.2326 28.8133 55.146 28.9883 55.141 29.38C55.121 31.0733 55.111 31.0733 56.816 31.075C57.0026 31.075 57.191 31.0667 57.3776 31.08C57.9676 31.1183 58.356 31.4833 58.3593 31.9967C58.3626 32.505 57.9843 32.8983 57.391 32.9333C56.831 32.9667 56.266 32.97 55.706 32.9417C55.271 32.92 55.1393 33.0717 55.1376 33.5083C55.1293 35.1617 55.1143 35.16 56.7893 35.1617C57.101 35.1617 57.416 35.1433 57.726 35.1783C58.2693 35.2383 58.626 35.6383 58.6126 36.13C58.601 36.6233 58.2276 37.015 57.681 37.0233C56.536 37.0433 55.391 37.0467 54.246 37.0233C53.5893 37.01 53.2993 36.6433 53.2743 35.9033C53.2743 35.8833 53.2743 35.8617 53.2743 35.8417C53.2743 34.5517 53.2743 33.26 53.2743 31.97H53.276Z" fill="#65666D"/>
<path id="Vector_7" d="M46.7384 32.6568C46.7384 31.5335 46.7251 30.4101 46.7467 29.2868C46.7534 28.9051 46.6317 28.7618 46.2501 28.7885C45.9401 28.8102 45.6251 28.8035 45.3151 28.7735C44.7817 28.7201 44.4851 28.4068 44.4767 27.8701C44.4684 27.3268 44.7784 27.0001 45.2984 26.9451C45.7917 26.8935 46.2951 26.9218 46.7951 26.9218C47.7934 26.9201 48.7917 26.9118 49.7901 26.9251C50.4934 26.9351 50.8784 27.2751 50.8851 27.8518C50.8917 28.4318 50.5101 28.7651 49.8101 28.7935C49.0123 28.8268 48.6134 29.2535 48.6134 30.0735C48.6134 32.0085 48.6084 33.9418 48.6167 35.8768C48.6184 36.3435 48.5251 36.7535 48.0717 36.9785C47.4367 37.2951 46.7601 36.8518 46.7467 36.0885C46.7267 34.9451 46.7417 33.8001 46.7417 32.6568H46.7401H46.7384Z" fill="#65666D"/>
</g>
<defs>
<clipPath id="clip0_729_31971">
<rect width="64" height="64" fill="white"/>
</clipPath>
</defs>
</svg>
