<svg width="130" height="231" viewBox="0 0 130 231" fill="none" xmlns="http://www.w3.org/2000/svg">
<g id="_&#208;&#161;&#208;&#187;&#208;&#190;&#208;&#185;_1" clip-path="url(#clip0_729_30416)">
<g id="Hourglass">
<g id="Group">
<g id="Group_2">
<g id="Group_3">
<path id="Vector" d="M12.7279 8.10804C2.39251 24.4604 3.06866 47.1361 14.3635 62.8341C21.8912 73.2973 33.1796 80.3138 42.1498 89.5654C51.1135 98.8106 57.9265 112.442 53.1935 124.454C48.3768 136.679 34.2679 141.655 23.7072 149.397C12.1998 157.832 4.11829 170.861 1.6391 184.965C-0.8401 199.069 2.32168 214.1 10.2615 225.989H120.003C120.003 225.989 139.283 189.027 114.497 160.851C89.7117 132.682 76.4013 132.222 77.3157 113.751C78.2366 95.2797 91.0833 89.2739 98.4308 82.3481C105.778 75.4223 141.575 59.2578 120.46 8.10156H12.7279V8.10804Z" fill="#F3F0F0"/>
<path id="Vector_2" d="M12.0663 8.10881C12.0663 8.10881 12.7038 8.09585 13.953 8.09585C15.2087 8.09585 17.0762 8.08937 19.5167 8.08289C24.4172 8.07641 31.6358 8.06345 40.9344 8.0505C59.5509 8.03754 86.4872 8.0181 119.792 7.99219H119.869L119.902 8.06345C121.402 11.8924 122.915 15.838 123.991 20.0168C125.098 24.1761 126 28.5169 126.322 33.0067C126.657 37.49 126.515 42.1223 125.626 46.7222C124.712 51.3091 123.076 55.8507 120.668 60.0555C119.47 62.1611 118.06 64.163 116.534 66.0872C114.995 68.0049 113.282 69.806 111.479 71.5293C109.669 73.2462 107.744 74.8659 105.741 76.4143C103.745 77.9692 101.659 79.4399 99.6237 80.9883C98.6063 81.7593 97.6725 82.6274 96.7002 83.5021C95.7214 84.3573 94.7168 85.1801 93.7058 85.9899C91.6774 87.6226 89.6297 89.2552 87.6978 91.0369C83.7955 94.5483 80.4985 98.9345 78.6826 104.046C77.8004 106.592 77.1693 109.262 76.9632 111.996C76.9117 112.676 76.8151 113.363 76.7894 114.043C76.7765 114.73 76.7378 115.416 76.77 116.103C76.7765 117.477 76.931 118.857 77.1822 120.211C77.6973 122.925 78.8307 125.523 80.4727 127.771C82.0955 130.045 84.0917 132.047 86.1652 133.972C90.3316 137.807 94.749 141.461 98.9862 145.413C103.243 149.339 107.37 153.486 111.35 157.846C113.327 160.036 115.33 162.232 117.055 164.674C118.839 167.072 120.339 169.682 121.653 172.391C124.248 177.833 125.852 183.8 126.38 189.896C126.946 195.999 126.515 202.219 125.311 208.302C124.718 211.347 123.926 214.366 122.954 217.334C121.982 220.301 120.861 223.229 119.47 226.054L119.425 226.145H116.495C79.0303 226.145 42.8856 226.145 9.57419 226.138H9.49047L9.4454 226.067C4.21655 218.169 1.11273 209.099 0.256279 200.003C-0.651686 190.907 0.739239 181.791 4.05556 173.693C7.32681 165.568 12.414 158.442 18.5637 152.844C21.6289 150.019 25.0482 147.713 28.4676 145.575C31.8934 143.437 35.3514 141.455 38.6162 139.291C41.8681 137.12 45.0041 134.807 47.5477 131.983C50.1042 129.177 52.0554 125.886 53.0728 122.342C54.0967 118.798 54.1095 115.08 53.5107 111.581C52.8989 108.07 51.6754 104.746 50.1171 101.688C48.5587 98.6235 46.6655 95.8117 44.592 93.2461C42.5249 90.6741 40.2196 88.3871 37.9078 86.2296C33.265 81.9277 28.5062 78.1636 24.2304 74.2958C22.0861 72.3651 20.0576 70.4215 18.1902 68.4195C16.3356 66.4046 14.6356 64.3444 13.1803 62.2064C10.2439 57.9434 8.22834 53.4471 6.90181 49.1128C5.57528 44.7721 4.91845 40.5738 4.76391 36.7125C4.67375 35.7472 4.70595 34.8013 4.71239 33.8813C4.72527 32.9548 4.69951 32.0543 4.78966 31.1797C4.85406 30.305 4.92489 29.4498 4.98285 28.6141C5.07944 27.7848 5.22111 26.9814 5.33058 26.204C6.2965 19.952 8.17038 15.378 9.63214 12.456C9.97987 11.711 10.289 11.0566 10.6238 10.5319C10.9394 9.99412 11.2034 9.54061 11.4094 9.1778C11.8344 8.45866 12.0534 8.09585 12.0534 8.09585C12.0083 8.17359 11.828 8.49105 11.4288 9.20371C11.2227 9.56652 10.9651 10.02 10.656 10.5578C10.3276 11.0826 10.025 11.7369 9.67722 12.482C8.23478 15.4104 6.38021 19.9779 5.42717 26.2234C5.3177 27.0009 5.18247 27.8042 5.08588 28.627C5.02148 29.4563 4.96353 30.3115 4.89914 31.1861C4.80898 32.0608 4.83474 32.9613 4.8283 33.8813C4.8283 34.8013 4.7961 35.7472 4.88626 36.706C5.04724 40.5609 5.71051 44.7397 7.04348 49.0675C8.37001 53.3888 10.3856 57.8592 13.322 62.1027C14.7773 64.2278 16.4709 66.2815 18.3254 68.29C20.1929 70.2854 22.2213 72.2226 24.3656 74.1468C28.6415 78.0016 33.4002 81.7593 38.0624 86.0677C40.3806 88.2251 42.6924 90.5186 44.7788 93.1036C46.8651 95.6821 48.7648 98.5004 50.336 101.584C51.9008 104.662 53.1436 108.005 53.7618 111.542C54.3736 115.073 54.3671 118.831 53.3304 122.42C52.3001 126.003 50.3231 129.339 47.7538 132.17C45.1844 135.028 42.0355 137.353 38.7772 139.53C35.4995 141.707 32.0479 143.69 28.6286 145.828C25.2092 147.966 21.8156 150.266 18.7697 153.071C12.6587 158.643 7.59727 165.737 4.34534 173.816C1.04833 181.869 -0.329713 190.933 0.578252 199.977C1.4347 209.021 4.52565 218.04 9.7223 225.892L9.58707 225.821C42.8984 225.821 79.0432 225.821 116.508 225.814H119.335L119.187 225.905C120.565 223.113 121.685 220.184 122.651 217.237C123.617 214.282 124.403 211.276 124.995 208.244C126.193 202.186 126.624 195.999 126.058 189.935C125.536 183.871 123.939 177.943 121.363 172.54C120.056 169.851 118.569 167.253 116.791 164.875C115.078 162.452 113.082 160.262 111.105 158.079C107.132 153.725 103.011 149.585 98.7608 145.659C94.5301 141.714 90.1255 138.06 85.9463 134.211C83.8728 132.281 81.8572 130.266 80.2151 127.959C78.5473 125.679 77.3947 123.022 76.8731 120.269C76.6219 118.889 76.4674 117.496 76.4545 116.11C76.4223 115.416 76.4609 114.723 76.4738 114.03C76.4996 113.337 76.5897 112.65 76.6477 111.963C76.8537 109.21 77.4913 106.515 78.3863 103.936C80.2216 98.779 83.5572 94.341 87.4853 90.8101C89.43 89.0155 91.4842 87.3829 93.5126 85.7502C94.5301 84.9339 95.5282 84.1176 96.5006 83.2688C97.4536 82.4136 98.4131 81.5261 99.437 80.7486C101.485 79.1937 103.565 77.7295 105.554 76.1746C107.551 74.6327 109.47 73.0194 111.273 71.3091C113.069 69.5987 114.769 67.8041 116.308 65.8993C117.822 63.9816 119.225 61.9991 120.423 59.9064C122.825 55.7341 124.448 51.2184 125.362 46.6639C126.251 42.0963 126.393 37.4835 126.064 33.0196C125.749 28.5428 124.847 24.2215 123.752 20.0751C122.683 15.9092 121.177 11.9701 119.683 8.14768L119.792 8.21894C86.5065 8.19303 59.5831 8.17359 40.9795 8.16064C31.6744 8.14768 24.4494 8.13472 19.5489 8.12824C17.1019 8.12176 15.228 8.11528 13.9723 8.11528C12.7166 8.11528 12.0663 8.10233 12.0663 8.10233V8.10881Z" fill="#65666D"/>
</g>
<path id="Vector_3" d="M115.419 38.0941C131.582 40.7698 106.095 69.5679 91.6701 80.9316C83.3181 87.5141 74.3479 94.6472 70.3812 104.547C65.88 115.781 69.2157 128.401 67.0327 139.7C66.6721 141.573 63.916 141.281 63.9418 139.37C64.0512 131.952 63.8516 124.54 62.6281 117.239C60.8959 106.886 56.9356 96.6426 49.7234 89.0495C43.8377 82.8558 36.1168 78.7418 29.8319 72.9498C20.6621 64.495 11.2412 53.5913 10.3203 41.1067C10.3203 41.1067 27.9258 26.8405 37.7009 28.6416C49.1245 30.7472 60.3679 48.4796 78.0635 46.4452C90.4209 45.0264 96.6543 34.9843 115.406 38.0876L115.419 38.0941Z" fill="#FCCD82"/>
<path id="Vector_4" d="M116.845 192.255C116.44 188.187 115.358 183.587 111.771 181.669C109.595 180.509 106.954 180.639 104.572 181.267C102.189 181.896 99.9547 182.984 97.5978 183.69C92.955 185.077 87.8678 184.915 83.3215 183.237C78.9362 181.617 75.1691 178.689 71.0994 176.382C67.0297 174.082 62.258 172.365 57.7246 173.499C49.9071 175.456 45.8374 184.928 38.11 187.215C34.6713 188.232 30.988 187.662 27.4913 186.865C24.0011 186.068 20.4916 185.044 16.9177 185.18C14.1165 185.284 11.1995 186.262 9.22899 188.193L9.24831 188.167C9.24831 188.167 9.20967 188.206 9.19036 188.232C8.86838 188.556 8.57217 188.899 8.30171 189.275C5.90623 192.488 5.51986 196.816 6.2604 200.742C7.08465 205.141 9.12596 209.204 11.3154 213.097C13.8976 217.684 16.8276 222.252 21.0905 225.31C26.3515 229.08 32.9713 226.476 39.4108 226.988C54.4341 228.18 70.6036 228.996 85.6268 227.824C93.5667 227.202 101.004 228.07 107.302 223.172C111.732 219.725 114.617 214.529 116.008 209.068C117.399 203.606 117.393 197.872 116.826 192.268L116.845 192.255Z" fill="#FCCD82"/>
<path id="Vector_5" d="M1.5334 231C1.5334 231 1.23075 225.934 7.79901 223.109H123.226C123.226 223.109 129.247 226.174 129.988 230.89L1.5334 230.994V231Z" fill="#65666D"/>
<path id="Vector_6" d="M120.791 8.72056C120.733 8.74648 120.669 8.77887 120.611 8.80479L12.0735 8.10508C12.0735 8.10508 11.6871 7.85889 11.114 7.40537C8.01665 4.96936 9.74886 -0.0322372 13.6769 0.000156595L119.02 0.855352C123.367 0.887746 124.719 6.8482 120.791 8.72056Z" fill="#65666D"/>
<path id="Vector_7" d="M64.0272 153.242C65.2185 152.821 66.6416 154.026 66.4355 155.276C66.223 156.527 64.4844 157.2 63.4991 156.403C62.5139 155.613 62.7715 153.76 63.937 153.274" fill="#FBD97E"/>
<path id="Vector_8" d="M25.2041 68.4502C25.2041 68.4502 25.0624 68.3207 24.8177 68.0615C24.5602 67.7765 24.206 67.3877 23.7681 66.9018C23.3238 66.39 22.7378 65.7939 22.1389 65.0359C21.5336 64.2779 20.8446 63.4162 20.0912 62.4703C19.3893 61.4726 18.5972 60.4036 17.7987 59.2115C17.4188 58.6025 17.026 57.9741 16.6203 57.3262C16.4207 57.0023 16.2082 56.6783 16.015 56.335C15.8282 55.9916 15.6415 55.6417 15.4483 55.2854C13.8642 52.4801 12.454 49.1889 11.4494 45.5997C10.4448 42.004 9.97476 38.4536 9.92969 35.2207C9.92969 34.4109 9.96832 33.6269 9.98764 32.8624C10.007 32.4802 10.0005 32.1044 10.0392 31.7351C10.0778 31.3658 10.1164 31.003 10.1551 30.6467C10.2388 29.934 10.2903 29.2408 10.3869 28.58C10.5028 27.9256 10.6187 27.2972 10.7282 26.6947C10.9149 25.4831 11.2305 24.4271 11.4558 23.4812C11.5782 23.0147 11.6748 22.5742 11.7971 22.179C11.9259 21.7902 12.0418 21.4274 12.1449 21.1035C12.3509 20.4815 12.5184 19.9827 12.6407 19.6134C12.7566 19.2765 12.8274 19.1016 12.8339 19.1016C12.8403 19.1016 12.8017 19.2894 12.7051 19.6328C12.5956 20.0086 12.454 20.5075 12.2672 21.1359C12.1706 21.4663 12.0612 21.8291 11.9452 22.2178C11.8293 22.613 11.7456 23.0601 11.6297 23.5266C11.4236 24.4725 11.121 25.5285 10.9536 26.7335C10.8505 27.3361 10.7475 27.958 10.638 28.6124C10.5479 29.2667 10.5028 29.96 10.4255 30.6661C10.3933 31.0225 10.3547 31.3853 10.3225 31.7481C10.2903 32.1174 10.2967 32.4931 10.2839 32.8689C10.271 33.6269 10.2323 34.4109 10.2388 35.2142C10.2967 38.4212 10.7733 41.9392 11.7714 45.5025C12.7631 49.0658 14.1604 52.3311 15.7188 55.1299C15.9055 55.4862 16.0923 55.8361 16.279 56.1795C16.4657 56.5229 16.6783 56.8403 16.8779 57.1707C17.2771 57.8186 17.6635 58.447 18.037 59.056C18.8226 60.2481 19.6018 61.3236 20.2844 62.3213C21.0249 63.2802 21.6946 64.1419 22.287 64.9128C22.8666 65.6838 23.4397 66.2863 23.8647 66.8176C24.2833 67.3229 24.6181 67.7181 24.8693 68.0162C25.0946 68.2947 25.2105 68.4438 25.2041 68.4502Z" fill="#65666D"/>
<path id="Vector_9" d="M19.0938 164.7C19.0938 164.7 19.1324 164.623 19.2161 164.487C19.3127 164.338 19.4415 164.13 19.6025 163.878C19.7763 163.606 19.9888 163.275 20.2335 162.893C20.3623 162.698 20.4976 162.491 20.6392 162.264C20.8002 162.051 20.9805 161.837 21.1673 161.604C21.5472 161.137 21.9722 160.619 22.4294 160.049C22.9252 159.511 23.4919 158.954 24.0908 158.345C25.3143 157.153 26.7954 155.883 28.5147 154.6C31.9341 151.996 36.3451 149.404 41.1232 146.379C43.4929 144.843 45.9914 143.223 48.3547 141.254C50.718 139.297 52.9976 137.043 54.8392 134.354C58.4775 128.912 59.9586 122.608 60.0874 116.971C60.2355 111.29 59.0313 106.236 57.6211 102.206C56.1915 98.1636 54.5495 95.0797 53.3582 93C52.7593 91.957 52.2699 91.1666 51.935 90.6353C51.7741 90.3762 51.6517 90.1753 51.5551 90.0263C51.4714 89.8902 51.4328 89.8125 51.4328 89.8125C51.4328 89.8125 51.4907 89.8773 51.5809 90.0069C51.6839 90.1559 51.8191 90.3502 51.9866 90.5964C52.3407 91.1212 52.8494 91.8987 53.4676 92.9353C54.6976 94.9955 56.3783 98.0664 57.8465 102.122C59.2954 106.165 60.5317 111.251 60.4029 116.978C60.3772 118.403 60.2677 119.867 60.0488 121.345C59.8427 122.828 59.5336 124.325 59.1086 125.821C58.2779 128.815 56.9514 131.795 55.129 134.542C53.2616 137.269 50.9562 139.543 48.5736 141.506C46.191 143.489 43.6861 145.102 41.3035 146.638C36.5061 149.65 32.095 152.216 28.6692 154.788C26.9499 156.051 25.4624 157.308 24.2389 158.474C23.64 159.077 23.0669 159.621 22.5711 160.152C22.101 160.71 21.676 161.221 21.2896 161.681C21.0964 161.915 20.9097 162.122 20.7487 162.336C20.6006 162.556 20.4589 162.757 20.3301 162.951C20.0725 163.327 19.8536 163.651 19.6733 163.917C19.4994 164.163 19.3642 164.357 19.2612 164.506C19.1646 164.636 19.1131 164.7 19.1131 164.7H19.0938Z" fill="#65666D"/>
<path id="Vector_10" d="M13.102 176.141C13.102 176.141 13.0633 176.251 12.9603 176.439C12.838 176.659 12.6834 176.931 12.5031 177.261C12.297 177.611 12.0523 178.052 11.8012 178.577C11.5501 179.101 11.2281 179.678 10.9576 180.358C10.8095 180.695 10.6614 181.045 10.5069 181.414C10.3523 181.784 10.2235 182.179 10.0754 182.581C9.7599 183.377 9.5152 184.265 9.2383 185.191C8.74246 187.057 8.33033 189.143 8.11139 191.366C7.91821 193.588 7.9504 195.719 8.09851 197.644C8.20798 198.602 8.28526 199.522 8.44624 200.365C8.52352 200.786 8.57503 201.2 8.65875 201.589C8.7489 201.978 8.83261 202.347 8.91633 202.71C9.05799 203.429 9.2705 204.058 9.42504 204.615C9.57315 205.178 9.74058 205.651 9.87581 206.034C9.99816 206.39 10.0947 206.688 10.1785 206.928C10.2429 207.135 10.2751 207.245 10.2622 207.252C10.2493 207.252 10.1978 207.154 10.1141 206.954C10.0175 206.72 9.89512 206.429 9.75346 206.079C9.59247 205.697 9.41216 205.23 9.24474 204.673C9.07087 204.116 8.84549 203.487 8.6845 202.768C8.59435 202.412 8.5042 202.036 8.40761 201.647C8.31102 201.259 8.25306 200.844 8.16935 200.417C7.98904 199.568 7.89889 198.648 7.78298 197.676C7.61555 195.732 7.57692 193.581 7.7701 191.34C7.98904 189.098 8.41405 186.993 8.9292 185.114C9.21898 184.181 9.47656 183.293 9.80497 182.49C9.95952 182.088 10.0947 181.693 10.2622 181.324C10.4296 180.961 10.5841 180.604 10.7387 180.274C11.0285 179.594 11.3633 179.024 11.6338 178.505C11.8978 177.987 12.1618 177.559 12.3872 177.216C12.5933 176.899 12.7607 176.639 12.9024 176.419C13.0247 176.238 13.0891 176.147 13.102 176.154V176.141Z" fill="#65666D"/>
</g>
<path id="Vector_11" d="M92.7228 191.712C92.7228 191.712 92.6842 191.751 92.594 191.809C92.4845 191.874 92.3557 191.958 92.1948 192.062C91.8148 192.295 91.2932 192.606 90.63 193.008C90.2887 193.215 89.9087 193.435 89.4966 193.681C89.0781 193.915 88.6015 194.135 88.0993 194.394C87.0883 194.887 85.9613 195.515 84.6348 196.014C83.978 196.286 83.2954 196.571 82.5742 196.863C81.8594 197.154 81.0802 197.374 80.2946 197.646C78.7298 198.223 76.9912 198.631 75.1752 199.111C71.5176 199.927 67.4286 200.53 63.1012 200.666C58.7739 200.756 54.6527 200.368 50.9564 199.746C49.1212 199.363 47.3696 199.046 45.7726 198.553C44.9741 198.32 44.1885 198.139 43.4544 197.886C42.7268 197.627 42.0249 197.381 41.3552 197.148C40.0029 196.714 38.8502 196.15 37.8135 195.709C37.2983 195.483 36.8153 195.282 36.3775 195.074C35.9524 194.848 35.5661 194.647 35.2119 194.459C34.5293 194.096 33.9948 193.805 33.602 193.597C33.4346 193.507 33.2994 193.429 33.1899 193.364C33.0998 193.312 33.0547 193.28 33.0547 193.273C33.0547 193.273 33.1062 193.286 33.2092 193.332C33.3251 193.383 33.4668 193.448 33.6407 193.532C34.0399 193.727 34.5873 193.999 35.2763 194.336C35.6305 194.511 36.0233 194.712 36.4547 194.925C36.8926 195.126 37.3756 195.314 37.8972 195.534C38.9404 195.956 40.093 196.5 41.4453 196.921C42.115 197.148 42.8105 197.387 43.5446 197.64C44.2722 197.886 45.0579 198.061 45.8563 198.281C47.4469 198.761 49.192 199.065 51.0208 199.435C54.6977 200.037 58.7932 200.413 63.1012 200.329C67.4028 200.193 71.4726 199.603 75.1173 198.806C76.9203 198.34 78.6526 197.944 80.2173 197.381C81.003 197.115 81.7757 196.895 82.4905 196.616C83.2053 196.331 83.8878 196.053 84.5447 195.794C85.8712 195.308 86.9981 194.699 88.0155 194.226C88.5178 193.979 88.9943 193.766 89.4193 193.539C89.8379 193.306 90.2178 193.085 90.5656 192.891C91.2353 192.515 91.7698 192.217 92.1561 192.003C92.3235 191.913 92.4652 191.842 92.5747 191.777C92.6713 191.731 92.7228 191.705 92.7228 191.712Z" fill="#65666D"/>
<path id="Vector_12" d="M99.439 54.5989C99.439 54.5989 99.3939 54.6442 99.3037 54.7285C99.1943 54.8192 99.0526 54.9358 98.8787 55.0783C98.4859 55.3958 97.9321 55.8363 97.2367 56.4C95.8007 57.5403 93.7336 59.1923 91.1127 61.1619C88.4919 63.1185 85.3108 65.399 81.5373 67.5305C79.6312 68.5541 77.5963 69.6037 75.3682 70.3876C73.1466 71.178 70.7511 71.7806 68.2462 71.9814C63.217 72.3248 58.4453 71.042 54.5688 69.1178C52.6305 68.1395 50.8789 67.0446 49.282 65.9562C47.7107 64.8418 46.2747 63.7599 45.0062 62.7233C42.4561 60.663 40.4599 58.9202 39.069 57.7281C38.3928 57.1386 37.8583 56.6786 37.4784 56.3417C37.311 56.1927 37.1758 56.0696 37.0727 55.9724C36.9826 55.8882 36.9375 55.8428 36.9375 55.8363C36.9375 55.8363 36.9955 55.8687 37.092 55.94C37.2015 56.0307 37.3432 56.1408 37.5235 56.2834C37.9163 56.6008 38.4637 57.0479 39.1527 57.618C40.5694 58.7842 42.5849 60.4946 45.1478 62.5289C46.4228 63.5525 47.8653 64.615 49.4365 65.7164C51.0271 66.7854 52.7722 67.8674 54.6976 68.8262C58.5484 70.7116 63.2556 71.9684 68.2204 71.6315C70.6868 71.4372 73.05 70.8411 75.2523 70.0637C77.4611 69.2927 79.4831 68.2561 81.3827 67.2454C85.1498 65.1398 88.3309 62.8852 90.9711 60.9546C93.6048 59.0109 95.6976 57.3912 97.153 56.2834C97.8677 55.7456 98.428 55.318 98.8337 55.0135C99.014 54.8775 99.1621 54.7738 99.278 54.6896C99.381 54.6183 99.4325 54.5859 99.4325 54.5859L99.439 54.5989Z" fill="#65666D"/>
</g>
</g>
</g>
<defs>
<clipPath id="clip0_729_30416">
<rect width="130" height="231" fill="white"/>
</clipPath>
</defs>
</svg>
